<svg width="83" height="77" viewBox="0 0 83 77" fill="none" xmlns="http://www.w3.org/2000/svg">
<path d="M45.4937 67.9649L22.5113 48.6797C20.7964 47.2405 20.5734 44.6824 22.0126 42.9676L51.7207 7.56352C53.1599 5.84866 55.718 5.62569 57.4329 7.06487L80.4153 26.35C82.1302 27.7892 82.3532 30.3473 80.914 32.0622L51.2059 67.4662C49.7667 69.1811 47.2086 69.4041 45.4937 67.9649Z" fill="white"/>
<path d="M46.8072 23.5363C48.1086 22.9688 48.8383 22.3404 48.8383 21.6755V11.0012L22.0126 42.9715C20.5734 44.6863 20.7964 47.2444 22.5113 48.6836L45.4937 67.9688C45.895 68.3053 46.345 68.5485 46.8153 68.7066V23.5363H46.8072Z" fill="#BCEBFF"/>
<path fill-rule="evenodd" clip-rule="evenodd" d="M68.099 35.5773C71.0097 35.5773 73.3693 33.2177 73.3693 30.307C73.3693 27.3963 71.0097 25.0367 68.099 25.0367C65.1883 25.0367 62.8287 27.3963 62.8287 30.307C62.8287 33.2177 65.1883 35.5773 68.099 35.5773Z" stroke="#30446D" strokeWidth="2" stroke-linecap="round" stroke-linejoin="round"/>
<path fill-rule="evenodd" clip-rule="evenodd" d="M45.2505 37.5756C48.1612 37.5756 50.5208 35.2161 50.5208 32.3054C50.5208 29.3947 48.1612 27.0351 45.2505 27.0351C42.3398 27.0351 39.9802 29.3947 39.9802 32.3054C39.9802 35.2161 42.3398 37.5756 45.2505 37.5756Z" stroke="#30446D" strokeWidth="2" stroke-linecap="round" stroke-linejoin="round"/>
<path d="M54.2867 46.7663C52.057 44.8934 51.7651 41.5731 53.638 39.3434C55.511 37.1136 58.8313 36.8217 61.061 38.6947C63.2908 40.5677 63.5826 43.8879 61.7097 46.1177C60.6678 47.3582 59.1759 47.9988 57.6718 47.9988" stroke="#30446D" strokeWidth="2" stroke-linecap="round" stroke-linejoin="round"/>
<path fill-rule="evenodd" clip-rule="evenodd" d="M34.8254 49.9973C37.7361 49.9973 40.0957 47.6377 40.0957 44.727C40.0957 41.8164 37.7361 39.4568 34.8254 39.4568C31.9148 39.4568 29.5552 41.8164 29.5552 44.727C29.5552 47.6377 31.9148 49.9973 34.8254 49.9973Z" stroke="#30446D" strokeWidth="2" stroke-linecap="round" stroke-linejoin="round"/>
<path fill-rule="evenodd" clip-rule="evenodd" d="M47.2489 60.4202C50.1596 60.4202 52.5192 58.0607 52.5192 55.15C52.5192 52.2393 50.1596 49.8797 47.2489 49.8797C44.3382 49.8797 41.9786 52.2393 41.9786 55.15C41.9786 58.0607 44.3382 60.4202 47.2489 60.4202Z" stroke="#30446D" strokeWidth="2" stroke-linecap="round" stroke-linejoin="round"/>
<path d="M76.3838 37.458L51.2041 67.4661" stroke="#30446D" strokeWidth="2" stroke-linecap="round" stroke-linejoin="round"/>
<path d="M37.6856 61.4175L22.5113 48.6838C20.7964 47.2446 20.5734 44.6865 22.0126 42.9716L51.7207 7.56755C53.1599 5.85269 55.718 5.62971 57.4329 7.0689L80.4153 26.354C82.1302 27.7932 82.3532 30.3513 80.914 32.0662" stroke="#30446D" strokeWidth="2" stroke-linecap="round" stroke-linejoin="round"/>
<path d="M51.2064 67.4661C49.7672 69.181 47.2091 69.404 45.4943 67.9648" stroke="#30446D" strokeWidth="2" stroke-linecap="round" stroke-linejoin="round"/>
<path fill-rule="evenodd" clip-rule="evenodd" d="M55.6725 25.1539C58.5832 25.1539 60.9428 22.7944 60.9428 19.8837C60.9428 16.973 58.5832 14.6134 55.6725 14.6134C52.7618 14.6134 50.4022 16.973 50.4022 19.8837C50.4022 22.7944 52.7618 25.1539 55.6725 25.1539Z" stroke="#30446D" strokeWidth="2" stroke-linecap="round" stroke-linejoin="round"/>
<path d="M23.2973 1C10.9811 1 1 2.99459 1 5.45946V21.6757C1 22.3405 1.72973 22.9689 3.03108 23.5365H3.02703V71.9459C3.02703 74.1838 12.1041 76 23.2973 76C34.4905 76 43.5676 74.1838 43.5676 71.9459V23.5365H43.5635C44.8649 22.9689 45.5946 22.3405 45.5946 21.6757V5.45946C45.5946 2.99459 35.6135 1 23.2973 1Z" fill="white"/>
<path d="M43.5681 25.5635C40.0411 27.0959 32.2938 28.1621 23.2979 28.1621C14.3019 28.1621 6.55056 27.0959 3.02759 25.5635V21.8297H43.5681V25.5635Z" fill="#BCEBFF"/>
<path d="M23.2979 33.4325C12.1046 33.4325 3.02759 31.6163 3.02759 29.3785V62.2163C3.02759 64.4541 12.1046 66.2704 23.2979 66.2704C24.0722 66.2704 24.8343 66.2622 25.5843 66.246V33.4082C24.8343 33.4204 24.0722 33.4325 23.2979 33.4325Z" fill="#BCEBFF"/>
<path d="M19.2438 46.3244C16.7506 46.223 14.4235 46.0284 12.3519 45.7649V38.873C9.48164 38.5041 7.11002 37.9933 5.47218 37.3933V44.2852C3.91543 43.7095 3.02759 43.0527 3.02759 42.3554V49.2473C3.02759 49.9446 3.91543 50.6054 5.47218 51.1771V58.069C7.10597 58.669 9.48164 59.1798 12.3519 59.5487V52.6568C14.4235 52.9244 16.7506 53.1149 19.2438 53.2163V46.3244Z" fill="#42BA85"/>
<path d="M23.2973 1C10.9811 1 1 2.99459 1 5.45946V21.6757C1 24.1405 10.9811 26.1351 23.2973 26.1351C35.6135 26.1351 45.5946 24.1405 45.5946 21.6757V5.45946C45.5946 2.99459 35.6135 1 23.2973 1Z" fill="#BCEBFF"/>
<path d="M43.5676 62.4878V23.5364" stroke="#30446D" strokeWidth="2" stroke-linecap="round" stroke-linejoin="round"/>
<path d="M3.02759 23.5364V71.9459C3.02759 74.1837 12.1046 75.9999 23.2979 75.9999C33.0925 75.9999 41.2654 74.6094 43.1546 72.7648" stroke="#30446D" strokeWidth="2" stroke-linecap="round" stroke-linejoin="round"/>
<path d="M40.8514 2.71078C43.8231 3.46889 45.5947 4.4216 45.5947 5.45943" stroke="#30446D" strokeWidth="2" stroke-linecap="round" stroke-linejoin="round"/>
<path d="M45.5946 5.45946C45.5946 7.92432 35.6135 9.91892 23.2973 9.91892C10.9811 9.91892 1 7.92432 1 5.45946C1 2.99459 10.9811 1 23.2973 1" stroke="#30446D" strokeWidth="2" stroke-linecap="round" stroke-linejoin="round"/>
<path d="M45.5946 5.45949V21.6757C45.5946 24.1406 35.6135 26.1352 23.2973 26.1352C10.9811 26.1352 1 24.1406 1 21.6757V5.45949" stroke="#30446D" strokeWidth="2" stroke-linecap="round" stroke-linejoin="round"/>
<path d="M10.4992 32.5204C13.9897 33.0879 18.4452 33.4325 23.2979 33.4325C24.7249 33.4325 26.1154 33.4041 27.4573 33.3474C29.756 33.2501 31.6654 35.0987 31.6654 37.3974V62.119C31.6654 64.2798 29.9708 66.0717 27.8141 66.169C26.3627 66.2339 24.8506 66.2704 23.2979 66.2704C12.1046 66.2704 3.02759 64.4541 3.02759 62.2163" stroke="#30446D" strokeWidth="2" stroke-linecap="round" stroke-linejoin="round"/>
<path d="M25.587 33.4081V59.1432" stroke="#30446D" strokeWidth="2" stroke-linecap="round" stroke-linejoin="round"/>
<path d="M12.3498 59.5487V52.6568C14.4214 52.9244 16.7485 53.1149 19.2417 53.2163V46.3244C16.7485 46.223 14.4214 46.0284 12.3498 45.7649V38.873C9.47955 38.5041 7.10793 37.9933 5.47009 37.3933" stroke="#30446D" strokeWidth="2" stroke-linecap="round" stroke-linejoin="round"/>
<path d="M63.7601 64.6648H57.7034C58.1372 64.754 58.4817 66.5297 58.4817 68.7107C58.4817 70.8918 58.1372 72.6675 57.7034 72.7567H63.7601C65.9939 72.7567 67.8061 70.9445 67.8061 68.7107C67.8061 66.477 65.998 64.6648 63.7601 64.6648Z" fill="#42BA85"/>
<path d="M58.4819 68.7107C58.4819 66.5297 58.1373 64.754 57.7036 64.6648H52.3927C50.159 64.6648 48.3468 66.477 48.3468 68.7107C48.3468 70.9445 50.159 72.7567 52.3927 72.7567H57.7036C58.1373 72.6675 58.4819 70.8918 58.4819 68.7107Z" fill="#BCEBFF"/>
<path fill-rule="evenodd" clip-rule="evenodd" d="M63.7603 72.7567H52.3927C50.159 72.7567 48.3468 70.9445 48.3468 68.7107V68.7107C48.3468 66.477 50.159 64.6648 52.3927 64.6648H63.7603C65.9941 64.6648 67.8063 66.477 67.8063 68.7107V68.7107C67.8063 70.9445 65.9982 72.7567 63.7603 72.7567Z" stroke="#30446D" strokeWidth="2" stroke-linecap="round" stroke-linejoin="round"/>
<path d="M57.6709 64.6567C58.1168 64.6567 58.4817 66.4729 58.4817 68.7108C58.4817 70.9486 58.1168 72.7648 57.6709 72.7648" stroke="#30446D" strokeWidth="2" stroke-linecap="round" stroke-linejoin="round"/>
<path d="M78.0805 65.8487L73.7994 61.5676C74.0426 61.9365 73.0332 63.4365 71.4886 64.9771C69.944 66.5217 68.448 67.5311 68.0791 67.2879L72.3602 71.569C73.9413 73.1501 76.5034 73.1501 78.0805 71.569C79.6615 69.992 79.6615 67.4298 78.0805 65.8487Z" fill="#42BA85"/>
<path d="M71.4874 64.9769C73.032 63.4323 74.0415 61.9364 73.7982 61.5675L70.0401 57.8094C68.459 56.2283 65.8969 56.2283 64.3198 57.8094C62.7388 59.3905 62.7388 61.9526 64.3198 63.5296L68.078 67.2878C68.4469 67.531 69.9428 66.5215 71.4874 64.9769Z" fill="#BCEBFF"/>
<path fill-rule="evenodd" clip-rule="evenodd" d="M72.359 71.5729L64.3198 63.5337C62.7388 61.9526 62.7388 59.3905 64.3198 57.8134V57.8134C65.9009 56.2324 68.4631 56.2324 70.0401 57.8134L78.0793 65.8526C79.6604 67.4337 79.6604 69.9959 78.0793 71.5729V71.5729C76.4982 73.1499 73.9401 73.1499 72.359 71.5729Z" stroke="#30446D" strokeWidth="2" stroke-linecap="round" stroke-linejoin="round"/>
<path d="M73.7831 61.5393C74.0993 61.8555 73.0737 63.3961 71.4885 64.9812C69.9034 66.5663 68.3669 67.592 68.0466 67.2758" stroke="#30446D" strokeWidth="2" stroke-linecap="round" stroke-linejoin="round"/>
</svg>
