<svg width="56" height="60" viewBox="0 0 56 60" fill="none" xmlns="http://www.w3.org/2000/svg">
<path d="M29.7168 1.32617H35.8835C36.7012 1.32617 37.4855 1.65102 38.0637 2.22926C38.6419 2.8075 38.9668 3.59175 38.9668 4.40951V12.8671C38.9668 24.9969 29.7168 35.2274 20.4668 35.2274C11.2168 35.2274 1.9668 24.9969 1.9668 12.8671V4.40951C1.9668 3.59175 2.29165 2.8075 2.86988 2.22926C3.44812 1.65102 4.23238 1.32617 5.05013 1.32617H11.2168M20.5139 35.2422C5.05097 53.7422 26.6343 66.0755 38.9676 53.7422M54.0319 42.9154C54.0319 47.1726 50.5808 50.6237 46.3236 50.6237C42.0664 50.6237 38.6152 47.1726 38.6152 42.9154C38.6152 38.6582 42.0664 35.207 46.3236 35.207C50.5808 35.207 54.0319 38.6582 54.0319 42.9154ZM47.0951 42.9154C47.0951 42.7109 47.0138 42.5149 46.8693 42.3703C46.7247 42.2257 46.5287 42.1445 46.3242 42.1445C46.1198 42.1445 45.9231 42.2257 45.7785 42.3703C45.6339 42.5149 45.5527 42.7116 45.5527 42.916C45.5527 43.1205 45.6339 43.3165 45.7785 43.4611C45.9231 43.6056 46.1191 43.6868 46.3236 43.6868C46.528 43.6868 46.7241 43.6056 46.8686 43.4611C47.0132 43.3165 47.0951 43.1198 47.0951 42.9154Z" stroke="#004171" stroke-width="2" stroke-linecap="round" stroke-linejoin="round"/>
</svg>
