<svg width="40" height="50" viewBox="0 0 40 50" fill="none" xmlns="http://www.w3.org/2000/svg">
<path d="M29.25 6.49079V11.2479H33.875C35.1016 11.2479 36.278 11.7491 37.1454 12.6413C38.0127 13.5334 38.5 14.7434 38.5 16.0051V18.3837M10.75 34.2408V15.7408H16.0357C20.5352 15.7408 21.3214 17.8122 21.3214 20.3665C21.3214 22.9207 20.5352 24.9895 16.0357 24.9895H10.75M17.3571 24.9908L26.6071 36.8836M26.6071 26.3122L17.3571 36.8836M36.0333 48.7765H3.96666C3.31246 48.7765 2.68506 48.5127 2.22247 48.0432C1.75988 47.5736 1.5 46.9368 1.5 46.2728V3.70889C1.5 3.04485 1.75988 2.40801 2.22247 1.93847C2.68506 1.46892 3.31246 1.20513 3.96666 1.20513H26.2234C28.3424 1.19808 30.4069 1.88664 32.1088 3.16808C33.7934 4.45985 35.2934 5.98244 36.5661 7.69237C37.8285 9.41989 38.5069 11.5154 38.4999 13.6663V46.2728C38.4999 46.9368 38.2401 47.5736 37.7775 48.0432C37.3149 48.5127 36.6875 48.7765 36.0333 48.7765Z" stroke="#004171" stroke-width="2" stroke-linecap="round" stroke-linejoin="round"/>
</svg>
