<svg width="49" height="77" viewBox="0 0 49 77" fill="none" xmlns="http://www.w3.org/2000/svg">
<path fill-rule="evenodd" clip-rule="evenodd" d="M34.006 41.4781L48.3658 60.0851L42.0306 76C42.0306 76 32.6916 63.8546 24.7144 53.5051C16.7372 63.8546 7.39818 76 7.39818 76L1.06299 60.089L15.4228 41.4821L15.3311 41.3638C14.8824 40.7848 14.5076 40.3011 14.2228 39.9387C10.7572 35.514 7.01136 30.0748 7.01136 24.829C7.01136 23.8027 7.20872 22.8673 7.57186 22.0147C7.62711 21.8805 7.69026 21.7503 7.75341 21.62L7.75343 21.62L15.9359 5.26293C15.9833 5.15241 16.0346 5.04584 16.0859 4.93927C16.0919 4.93324 16.0956 4.9249 16.0988 4.91779C16.0998 4.91559 16.1007 4.9135 16.1017 4.91164C17.3806 2.3894 20.4159 1 24.7183 1C29.0365 1 32.0798 2.40124 33.3468 4.93927C33.3714 4.98677 33.3922 5.03585 33.4128 5.08474C33.4385 5.14554 33.464 5.20605 33.4968 5.26293V5.26688C33.5065 5.28635 33.5165 5.30606 33.5266 5.32602C33.5575 5.38695 33.5894 5.45013 33.6192 5.51555L41.6753 21.616L41.6754 21.6162C41.7385 21.7464 41.8017 21.8766 41.8569 22.0107C42.22 22.8633 42.4174 23.7988 42.4174 24.8251C42.4174 30.0708 38.6755 35.5061 35.2059 39.9348C35.1224 40.0422 35.031 40.1595 34.9324 40.2863C34.6722 40.6204 34.3609 41.0202 34.006 41.4781ZM24.7141 14.7559C22.2906 14.7559 19.5946 15.0361 17.0527 15.6637C18.4815 19.6188 20.9367 24.3514 24.7141 29.4472C28.4915 24.3514 30.9467 19.6188 32.3756 15.6637C29.8336 15.0361 27.1377 14.7559 24.7141 14.7559Z" fill="white"/>
<path d="M33.4974 5.26701C33.8329 6.05645 34.0065 6.94456 34.0065 7.9274C34.0065 12.3364 31.4922 20.3096 24.7189 29.4394L33.9947 41.4941C34.492 40.8546 34.9025 40.3296 35.2104 39.9349C38.68 35.5062 42.4219 30.071 42.4219 24.8252C42.4219 23.7989 42.2245 22.8635 41.8614 22.0109C41.8061 21.8767 41.743 21.7464 41.6798 21.6162L33.4974 5.26701Z" fill="#BCEBFF"/>
<path d="M16.0869 4.94321C16.0355 5.04978 15.9842 5.15635 15.9369 5.26687C15.6014 6.05631 15.4277 6.94442 15.4277 7.92726C15.4277 12.3362 17.942 20.3095 24.7153 29.4393L48.3667 60.085L42.0315 76C42.0315 76 18.4394 45.3187 14.2238 39.9387C10.7542 35.51 7.01233 30.0748 7.01233 24.829C7.01233 23.8027 7.20969 22.8673 7.57283 22.0147C7.62809 21.8805 7.69124 21.7502 7.7544 21.62L16.0869 4.94321Z" fill="#42BA85"/>
<path d="M15.4042 41.5097L1.06812 60.085L7.39936 76C7.39936 76 16.7383 63.8546 24.7156 53.5051L15.4042 41.5097Z" fill="#BCEBFF"/>
<path d="M43.8946 71.3187L42.0315 76C42.0315 76 18.4394 45.3187 14.2238 39.9387C10.7542 35.51 7.01233 30.0748 7.01233 24.829C7.01233 23.8028 7.20969 22.8673 7.57283 22.0147C7.62809 21.8805 7.69124 21.7502 7.7544 21.62L9.35694 18.4109" stroke="#30446D" strokeWidth="2" stroke-linecap="round" stroke-linejoin="round"/>
<path d="M28.753 23.3291C32.5225 16.8163 34.0067 11.3179 34.0067 7.93119C34.0067 6.94835 33.833 6.05629 33.4975 5.27081C33.4501 5.16029 33.4027 5.05371 33.3475 4.94714V4.94714C32.0804 2.40912 29.0372 1.00787 24.719 1.00787C20.4166 1.00787 17.3812 2.39727 16.1023 4.91951C16.0984 4.9274 16.0944 4.93925 16.0865 4.94714C16.0352 5.05371 15.9839 5.16029 15.9366 5.27081C15.601 6.06024 15.4274 6.94835 15.4274 7.93119C15.4274 12.3402 17.9417 20.3134 24.715 29.4432L41.6799 51.421" stroke="#30446D" strokeWidth="2" stroke-linecap="round" stroke-linejoin="round"/>
<path d="M16.4181 64.2926L19.4495 60.3573" stroke="#30446D" strokeWidth="2" stroke-linecap="round" stroke-linejoin="round"/>
<path d="M15.4111 41.4623L1 60.085L7.39835 76L13.7651 67.7346" stroke="#30446D" strokeWidth="2" stroke-linecap="round" stroke-linejoin="round"/>
<path d="M33.9937 41.4623C33.9937 41.4623 34.1673 41.265 35.2094 39.9387C38.6789 35.51 42.4208 30.0748 42.4208 24.829C42.4208 23.8027 42.2235 22.8672 41.8603 22.0147C41.8051 21.8804 41.7419 21.7502 41.6788 21.6199" stroke="#30446D" strokeWidth="2" stroke-linecap="round" stroke-linejoin="round"/>
<path d="M41.6785 21.62L33.3461 4.94321" stroke="#30446D" strokeWidth="2" stroke-linecap="round" stroke-linejoin="round"/>
<path d="M20.9128 14.9731C22.2115 14.8231 23.4982 14.752 24.714 14.752C27.1375 14.752 29.8334 15.0323 32.3793 15.6599" stroke="#30446D" strokeWidth="2" stroke-linecap="round" stroke-linejoin="round"/>
</svg>
