<svg xmlns="http://www.w3.org/2000/svg" width="137" height="24" fill="none" viewBox="0 0 137 24">
    <rect width="137" height="24" fill="#FEA070" rx="12"/>
    <path fill="#fff" d="M19.487 13.9h-4.464l-.924 2.1h-1.236l3.804-8.4h1.188l3.816 8.4h-1.26l-.924-2.1zm-.42-.96l-1.812-4.116-1.812 4.116h3.624zm8.989-3.3L25.272 16h-1.176l-2.784-6.36h1.2l2.184 5.1 2.232-5.1h1.128zm3.192-.06c.88 0 1.552.216 2.016.648.472.432.708 1.076.708 1.932V16H32.88v-.84c-.192.296-.468.524-.828.684-.352.152-.772.228-1.26.228-.712 0-1.284-.172-1.716-.516-.424-.344-.636-.796-.636-1.356s.204-1.008.612-1.344c.408-.344 1.056-.516 1.944-.516h1.824v-.228c0-.496-.144-.876-.432-1.14-.288-.264-.712-.396-1.272-.396-.376 0-.744.064-1.104.192-.36.12-.664.284-.912.492l-.48-.864c.328-.264.72-.464 1.176-.6.456-.144.94-.216 1.452-.216zm-.264 5.604c.44 0 .82-.096 1.14-.288.32-.2.552-.48.696-.84v-.888h-1.776c-.976 0-1.464.328-1.464.984 0 .32.124.572.372.756.248.184.592.276 1.032.276zm5.12-5.544h1.152V16h-1.152V9.64zm.576-1.224c-.224 0-.412-.072-.564-.216-.144-.144-.216-.32-.216-.528 0-.208.072-.384.216-.528.152-.152.34-.228.564-.228.224 0 .408.072.552.216.152.136.228.308.228.516 0 .216-.076.4-.228.552-.144.144-.328.216-.552.216zm2.775-1.32h1.152V16h-1.152V7.096zm5.668 2.484c.88 0 1.552.216 2.016.648.472.432.708 1.076.708 1.932V16h-1.092v-.84c-.192.296-.468.524-.828.684-.352.152-.772.228-1.26.228-.712 0-1.284-.172-1.716-.516-.424-.344-.636-.796-.636-1.356s.204-1.008.612-1.344c.408-.344 1.056-.516 1.944-.516h1.824v-.228c0-.496-.144-.876-.432-1.14-.288-.264-.712-.396-1.272-.396-.376 0-.744.064-1.104.192-.36.12-.664.284-.912.492l-.48-.864c.328-.264.72-.464 1.176-.6.456-.144.94-.216 1.452-.216zm-.264 5.604c.44 0 .82-.096 1.14-.288.32-.2.552-.48.696-.84v-.888h-1.776c-.976 0-1.464.328-1.464.984 0 .32.124.572.372.756.248.184.592.276 1.032.276zM53.35 9.58c.616 0 1.168.136 1.656.408.488.272.868.652 1.14 1.14.28.488.42 1.052.42 1.692 0 .64-.14 1.208-.42 1.704-.272.488-.652.868-1.14 1.14-.488.272-1.04.408-1.656.408-.472 0-.904-.092-1.296-.276-.392-.184-.716-.452-.972-.804V16h-1.104V7.096h1.152V10.6c.256-.336.576-.588.96-.756.384-.176.804-.264 1.26-.264zm-.096 5.484c.408 0 .772-.092 1.092-.276.328-.192.584-.456.768-.792.192-.344.288-.736.288-1.176 0-.44-.096-.828-.288-1.164-.184-.344-.44-.608-.768-.792-.32-.184-.684-.276-1.092-.276-.4 0-.764.092-1.092.276-.328.184-.584.448-.768.792-.184.336-.276.724-.276 1.164 0 .44.092.832.276 1.176.184.336.44.6.768.792.328.184.692.276 1.092.276zm4.903-7.968h1.152V16h-1.152V7.096zm9.1 5.76c0 .088-.008.204-.024.348h-5.16c.072.56.316 1.012.732 1.356.424.336.948.504 1.572.504.76 0 1.372-.256 1.836-.768l.636.744c-.288.336-.648.592-1.08.768-.424.176-.9.264-1.428.264-.672 0-1.268-.136-1.788-.408-.52-.28-.924-.668-1.212-1.164-.28-.496-.42-1.056-.42-1.68 0-.616.136-1.172.408-1.668.28-.496.66-.88 1.14-1.152.488-.28 1.036-.42 1.644-.42.608 0 1.148.14 1.62.42.48.272.852.656 1.116 1.152.272.496.408 1.064.408 1.704zm-3.144-2.304c-.552 0-1.016.168-1.392.504-.368.336-.584.776-.648 1.32h4.08c-.064-.536-.284-.972-.66-1.308-.368-.344-.828-.516-1.38-.516zm7.966-.912h1.152V16H72.08V9.64zm.576-1.224c-.224 0-.412-.072-.564-.216-.144-.144-.216-.32-.216-.528 0-.208.072-.384.216-.528.152-.152.34-.228.564-.228.224 0 .408.072.552.216.152.136.228.308.228.516 0 .216-.076.4-.228.552-.144.144-.328.216-.552.216zm6.172 1.164c.808 0 1.448.236 1.92.708.48.464.72 1.148.72 2.052V16h-1.152v-3.528c0-.616-.148-1.08-.444-1.392-.296-.312-.72-.468-1.272-.468-.624 0-1.116.184-1.476.552-.36.36-.54.88-.54 1.56V16h-1.152V9.64h1.104v.96c.232-.328.544-.58.936-.756.4-.176.852-.264 1.356-.264zM88.91 7.6V16h-1.188V8.644h-1.895V7.6h3.084zm4.562-.096c1.128 0 1.996.364 2.604 1.092.616.728.924 1.76.924 3.096 0 .936-.168 1.736-.504 2.4-.328.656-.792 1.156-1.392 1.5-.592.336-1.284.504-2.076.504-.408 0-.792-.04-1.152-.12-.36-.088-.672-.212-.936-.372l.456-.936c.408.264.948.396 1.62.396.872 0 1.552-.268 2.04-.804.496-.544.744-1.332.744-2.364v-.3c-.24.36-.572.636-.996.828-.424.184-.9.276-1.428.276-.552 0-1.048-.104-1.488-.312-.432-.208-.772-.504-1.02-.888-.24-.392-.36-.84-.36-1.344 0-.528.128-.992.384-1.392.264-.4.62-.708 1.068-.924.448-.224.952-.336 1.512-.336zm.108 4.224c.376 0 .712-.072 1.008-.216.296-.144.524-.34.684-.588.168-.248.252-.524.252-.828 0-.296-.08-.564-.24-.804-.152-.248-.38-.444-.684-.588-.296-.152-.656-.228-1.08-.228-.552 0-1 .148-1.344.444-.336.296-.504.692-.504 1.188s.172.892.516 1.188c.344.288.808.432 1.392.432zm16.269-2.148c.8 0 1.432.232 1.896.696.472.464.708 1.152.708 2.064V16h-1.152v-3.528c0-.616-.144-1.08-.432-1.392-.28-.312-.684-.468-1.212-.468-.584 0-1.048.184-1.392.552-.344.36-.516.88-.516 1.56V16h-1.152v-3.528c0-.616-.144-1.08-.432-1.392-.28-.312-.684-.468-1.212-.468-.584 0-1.048.184-1.392.552-.344.36-.516.88-.516 1.56V16h-1.152V9.64h1.104v.948c.232-.328.536-.576.912-.744.376-.176.804-.264 1.284-.264.496 0 .936.1 1.32.3.384.2.68.492.888.876.24-.368.572-.656.996-.864.432-.208.916-.312 1.452-.312zm4.723.06h1.152V16h-1.152V9.64zm.576-1.224c-.224 0-.412-.072-.564-.216-.144-.144-.216-.32-.216-.528 0-.208.072-.384.216-.528.152-.152.34-.228.564-.228.224 0 .408.072.552.216.152.136.228.308.228.516 0 .216-.076.4-.228.552-.144.144-.328.216-.552.216zm6.172 1.164c.808 0 1.448.236 1.92.708.48.464.72 1.148.72 2.052V16h-1.152v-3.528c0-.616-.148-1.08-.444-1.392-.296-.312-.72-.468-1.272-.468-.624 0-1.116.184-1.476.552-.36.36-.54.88-.54 1.56V16h-1.152V9.64h1.104v.96c.232-.328.544-.58.936-.756.4-.176.852-.264 1.356-.264z"/>
</svg>
