<svg width="20" height="20" viewBox="0 0 20 20" fill="none" xmlns="http://www.w3.org/2000/svg">
<path d="M13.8747 9.16665H15.2747C15.455 9.16665 15.6304 9.10817 15.7747 8.99998L18.683 6.81665C18.8521 6.6887 18.966 6.50112 19.0016 6.29211C19.0372 6.08309 18.9918 5.86836 18.8747 5.69165L17.6747 3.88332C17.612 3.78946 17.531 3.70931 17.4364 3.64771C17.3419 3.58612 17.2358 3.54436 17.1247 3.52498C17.0126 3.50622 16.8978 3.51059 16.7875 3.53782C16.6771 3.56505 16.5735 3.61456 16.483 3.68332L13.608 5.83332H1.66634C1.44533 5.83332 1.23337 5.92111 1.07709 6.07739C0.920805 6.23367 0.833008 6.44564 0.833008 6.66665V8.33332C0.833008 8.55433 0.920805 8.76629 1.07709 8.92257C1.23337 9.07885 1.44533 9.16665 1.66634 9.16665H3.63301L8.17467 11.8917L5.28301 13.775C4.9813 13.4899 4.58146 13.3317 4.16634 13.3333C3.83671 13.3333 3.51447 13.4311 3.24039 13.6142C2.96631 13.7973 2.75269 14.0576 2.62654 14.3622C2.5004 14.6667 2.46739 15.0018 2.5317 15.3251C2.59601 15.6484 2.75474 15.9454 2.98783 16.1785C3.22092 16.4116 3.51789 16.5703 3.84119 16.6346C4.16449 16.6989 4.4996 16.6659 4.80415 16.5398C5.10869 16.4136 5.36899 16.2 5.55212 15.9259C5.73526 15.6519 5.83301 15.3296 5.83301 15C5.82831 14.8214 5.79742 14.6446 5.74134 14.475L8.96634 12.3666L12.5747 14.5333C12.5282 14.6846 12.5029 14.8417 12.4997 15C12.4997 15.3296 12.5974 15.6519 12.7806 15.9259C12.9637 16.2 13.224 16.4136 13.5285 16.5398C13.8331 16.6659 14.1682 16.6989 14.4915 16.6346C14.8148 16.5703 15.1118 16.4116 15.3449 16.1785C15.5779 15.9454 15.7367 15.6484 15.801 15.3251C15.8653 15.0018 15.8323 14.6667 15.7061 14.3622C15.58 14.0576 15.3664 13.7973 15.0923 13.6142C14.8182 13.4311 14.496 13.3333 14.1663 13.3333C13.7291 13.3352 13.3101 13.5087 12.9997 13.8166L9.74134 11.8583L13.8747 9.16665ZM4.16634 15.8333C4.00152 15.8333 3.84041 15.7844 3.70337 15.6929C3.56632 15.6013 3.45951 15.4712 3.39644 15.3189C3.33337 15.1666 3.31687 14.9991 3.34902 14.8374C3.38117 14.6758 3.46054 14.5273 3.57709 14.4107C3.69363 14.2942 3.84211 14.2148 4.00377 14.1827C4.16542 14.1505 4.33297 14.167 4.48524 14.2301C4.63752 14.2932 4.76766 14.4 4.85923 14.537C4.9508 14.674 4.99967 14.8352 4.99967 15C4.99967 15.221 4.91188 15.433 4.7556 15.5892C4.59932 15.7455 4.38735 15.8333 4.16634 15.8333ZM14.1663 14.1666C14.3312 14.1666 14.4923 14.2155 14.6293 14.3071C14.7664 14.3987 14.8732 14.5288 14.9362 14.6811C14.9993 14.8334 15.0158 15.0009 14.9837 15.1626C14.9515 15.3242 14.8721 15.4727 14.7556 15.5892C14.6391 15.7058 14.4906 15.7851 14.3289 15.8173C14.1673 15.8495 13.9997 15.833 13.8474 15.7699C13.6952 15.7068 13.565 15.6 13.4734 15.463C13.3819 15.3259 13.333 15.1648 13.333 15C13.333 14.779 13.4208 14.567 13.5771 14.4107C13.7334 14.2544 13.9453 14.1666 14.1663 14.1666ZM1.66634 6.66665H13.608C13.7883 6.66665 13.9638 6.60817 14.108 6.49998L16.983 4.34998L18.183 6.14998L15.2747 8.33332H1.66634V6.66665ZM5.25801 9.16665H12.3497L8.94967 11.3833L5.25801 9.16665Z" fill="#005D8D"/>
<path d="M1.66699 6.66663H13.7503L17.0837 4.16663L18.3337 6.24996L15.417 8.33329H1.66699V6.66663Z" fill="#005D8D"/>
</svg>
