<svg xmlns="http://www.w3.org/2000/svg" width="48" height="48" fill="none" viewBox="0 0 48 48">
    <rect width="48" height="48" fill="#FFFADD" rx="24"/>
    <path stroke="#004171" stroke-linecap="round" stroke-linejoin="round" d="M25.279 30.356c-.259.497-.616.935-1.05 1.289-.435.353-.938.613-1.477.765v0c-1.05.297-2.174.165-3.126-.368-.952-.532-1.654-1.42-1.951-2.47l-2.52-8.9c-.147-.52-.19-1.064-.128-1.601.063-.537.231-1.056.495-1.528.263-.472.617-.888 1.042-1.223.424-.335.91-.583 1.43-.73v0c1.05-.297 2.174-.165 3.127.367.952.533 1.654 1.421 1.95 2.47l.14.5M16.416 25.12l4.455-1.261"/>
    <path stroke="#004171" stroke-linecap="round" stroke-linejoin="round" d="M24.266 27.7c.804.786 1.844 1.286 2.96 1.425 1.115.138 2.246-.093 3.218-.658.971-.565 1.731-1.433 2.163-2.471.431-1.039.51-2.19.225-3.277-.075-.288-.175-.568-.3-.838"/>
    <path stroke="#004171" stroke-linecap="round" stroke-linejoin="round" d="M31.452 20.343c-.483-.472-1.054-.844-1.681-1.095s-1.297-.376-1.973-.368c-.675.008-1.342.149-1.962.414-.621.266-1.184.651-1.655 1.134-.472.484-.844 1.055-1.096 1.682-.25.627-.376 1.297-.368 1.972.016 1.364.573 2.665 1.549 3.618l7.186-7.357z"/>
</svg>
