<svg xmlns="http://www.w3.org/2000/svg" width="48" height="48" fill="none" viewBox="0 0 48 48">
    <rect width="48" height="48" fill="#BCEBFF" rx="24"/>
    <path stroke="#004171" stroke-linecap="round" stroke-linejoin="round" d="M24.557 14.7h2c.265 0 .52.105.707.293.187.187.293.441.293.707v2.743c0 3.934-3 7.252-6 7.252s-6-3.318-6-7.252V15.7c0-.265.105-.52.293-.707.187-.188.441-.293.707-.293h2M21.571 25.7c-5.015 6 1.985 10 5.985 6M29.942 30.689c1.381 0 2.5-1.12 2.5-2.5s-1.119-2.5-2.5-2.5c-1.38 0-2.5 1.12-2.5 2.5s1.12 2.5 2.5 2.5z"/>
    <path stroke="#004171" stroke-linecap="round" stroke-linejoin="round" d="M30.194 28.189c0-.066-.026-.13-.073-.177-.047-.047-.11-.073-.177-.073M29.692 28.188c0 .066.027.13.074.177.047.047.11.073.176.073.067 0 .13-.026.177-.073.047-.047.073-.11.073-.177"/>
    <path stroke="#004171" stroke-linecap="round" stroke-linejoin="round" d="M29.942 27.939c-.066 0-.13.026-.176.073-.047.047-.074.11-.074.177"/>
</svg>
