<svg width="88" height="134" viewBox="0 0 88 134" fill="none" xmlns="http://www.w3.org/2000/svg">
<path d="M31.6706 17.1027C30.7252 15.468 23.3457 17.9694 15.1784 22.6833C7.01103 27.3973 1.1547 32.5445 2.10012 34.1793C2.27082 34.4748 2.65818 34.6323 3.2228 34.6717C5.04141 35.5777 8.73772 37.9216 11.6659 42.9966L59.2452 125.399C62.889 131.708 70.9579 133.875 77.2672 130.231C83.5766 126.587 85.7431 118.518 82.0994 112.209L34.52 29.8068C31.5918 24.7317 31.4146 20.3592 31.5327 18.3305C31.7822 17.8118 31.8413 17.3982 31.6706 17.1027Z" fill="white"/>
<path d="M77.2672 130.224C83.5766 126.581 85.7431 118.512 82.0993 112.202L61.2871 76.1584L61.1886 76.2175C61.1886 74.5499 54.4262 73.1974 46.0882 73.1974C37.7502 73.1974 30.9878 74.5499 30.9878 76.2175L30.8696 76.2437L59.2452 125.392C62.8825 131.702 70.9513 133.868 77.2672 130.224Z" fill="#FF7DAC"/>
<path d="M25.2431 17.8249C28.7031 16.5513 31.152 16.2033 31.6706 17.1028C32.616 18.7375 26.7597 23.8848 18.5924 28.5987C10.425 33.3127 3.03897 35.8141 2.10012 34.1793C1.1547 32.5445 7.01103 27.3973 15.1784 22.6833" stroke="#30446D" strokeWidth="4" stroke-linecap="round" stroke-linejoin="round"/>
<path d="M42.9303 44.3622L34.5201 29.7936C30.4758 22.7818 31.6707 17.0962 31.6707 17.0962" stroke="#30446D" strokeWidth="4" stroke-linecap="round" stroke-linejoin="round"/>
<path d="M2.09375 34.1729C2.09375 34.1729 7.61524 35.9783 11.6661 42.9902L59.2454 125.392C62.8892 131.702 70.9581 133.868 77.2674 130.224V130.224" stroke="#30446D" strokeWidth="4" stroke-linecap="round" stroke-linejoin="round"/>
<path d="M52.3845 78.9619C50.4674 79.1391 48.3337 79.2376 46.0817 79.2376C39.1093 79.2376 33.2333 78.2922 31.5 77.0054" stroke="#30446D" strokeWidth="4" stroke-linecap="round" stroke-linejoin="round"/>
<path d="M85.0474 9.44753C85.3756 7.58953 78.1143 4.75985 68.8243 3.1185C59.5343 1.48372 51.7412 1.66098 51.4129 3.51899C51.3538 3.86039 51.5508 4.22805 51.9578 4.61541C52.7719 6.47998 54.0981 10.649 53.0805 16.42L36.5554 110.128C35.2883 117.304 40.081 124.145 47.257 125.412C54.433 126.679 61.2741 121.886 62.5412 114.71L79.0663 21.0026C80.0839 15.2316 82.7561 11.7717 84.1545 10.2945C84.6731 10.0647 84.9817 9.78237 85.0474 9.44753Z" fill="white"/>
<path d="M59.4949 53.4028C52.2401 53.4028 46.3641 54.578 46.3641 56.029L46.1015 55.9962L36.5554 110.128C35.2883 117.304 40.081 124.145 47.257 125.412C54.433 126.679 61.2741 121.886 62.5412 114.71L72.8948 56.0027L72.6257 56.029C72.6257 54.578 66.7496 53.4028 59.4949 53.4028Z" fill="#FF7DAC"/>
<path d="M57.3609 7.29409C53.5596 5.98757 51.2223 4.58915 51.4127 3.51899C51.7409 1.66098 59.5341 1.48372 68.8241 3.1185C78.1141 4.75328 85.3754 7.58953 85.0471 9.44753C84.7189 11.3055 76.9258 11.4828 67.6357 9.84802" stroke="#30446D" strokeWidth="4" stroke-linecap="round" stroke-linejoin="round"/>
<path d="M38.3474 119.385C40.2579 122.458 43.4159 124.729 47.2632 125.412V125.412C54.4392 126.679 61.2803 121.886 62.5474 114.71L79.0725 21.0027C80.4775 13.0323 85.0536 9.44763 85.0536 9.44763" stroke="#30446D" strokeWidth="4" stroke-linecap="round" stroke-linejoin="round"/>
<path d="M51.4125 3.51904C51.4125 3.51904 54.4851 8.44965 53.0801 16.42L39.0039 96.2354" stroke="#30446D" strokeWidth="4" stroke-linecap="round" stroke-linejoin="round"/>
<path d="M59.4945 58.6551C52.2398 58.6551 46.3638 57.4799 46.3638 56.029C46.3638 54.578 52.2398 53.4028 59.4945 53.4028C66.7493 53.4028 72.6253 54.578 72.6253 56.029" stroke="#30446D" strokeWidth="4" stroke-linecap="round" stroke-linejoin="round"/>
</svg>
