<svg width="24" height="24" viewBox="0 0 24 24" fill="none" xmlns="http://www.w3.org/2000/svg">
<path fill-rule="evenodd" clip-rule="evenodd" d="M16.203 6.055L14.797 3.946C14.611 3.667 14.299 3.5 13.965 3.5H9.035C8.701 3.5 8.389 3.667 8.203 3.946L6.797 6.055C6.611 6.333 6.299 6.5 5.965 6.5H3.5C2.948 6.5 2.5 6.948 2.5 7.5V17.5C2.5 18.053 2.948 18.5 3.5 18.5H19.5C20.052 18.5 20.5 18.053 20.5 17.5V7.5C20.5 6.948 20.052 6.5 19.5 6.5H17.035C16.701 6.5 16.389 6.333 16.203 6.055Z" stroke="white" stroke-linecap="round" stroke-linejoin="round"/>
<path fill-rule="evenodd" clip-rule="evenodd" d="M15.5 11.5C15.5 13.709 13.709 15.5 11.5 15.5C9.291 15.5 7.5 13.709 7.5 11.5C7.5 9.291 9.291 7.5 11.5 7.5C13.709 7.5 15.5 9.291 15.5 11.5Z" stroke="white" stroke-linecap="round" stroke-linejoin="round"/>
</svg>
