<svg width="195" height="195" viewBox="0 0 195 195" fill="none" xmlns="http://www.w3.org/2000/svg">
<g filter="url(#filter0_d)">
<g filter="url(#filter1_d)">
<rect x="61" y="28" width="70" height="70" rx="35" fill="#004171"/>
<rect x="61.3889" y="28.3889" width="69.2222" height="69.2222" rx="34.6111" stroke="#EAEAEA" strokeWidth="0.777778"/>
</g>
<mask id="mask0" mask-type="alpha" maskUnits="userSpaceOnUse" x="61" y="28" width="70" height="70">
<rect x="61" y="28" width="70" height="70" rx="35" fill="#004171"/>
</mask>
<g mask="url(#mask0)">
<path d="M84.3291 80.6574L88.9759 79.6514L105.587 81.0167L109.12 82.5376L93.9699 100.28L84.3291 80.6574Z" fill="#FFBE9D"/>
<path d="M94.5745 79.2269C93.6564 69.0751 92.7362 58.9233 91.814 48.7715L79.8379 50.8074L78.239 62.083C77.9636 64.0471 77.6821 66.0531 78.0474 68.0052C78.3827 69.8017 79.245 71.4364 79.5504 73.2209C79.7639 74.5178 79.6866 75.8459 79.3241 77.1093C78.9617 78.3727 78.3231 79.5398 77.4546 80.5263L94.5745 79.2269Z" fill="#263238"/>
<path d="M111.472 54.2682C111.226 51.7668 110.484 49.3397 109.288 47.1289C108.092 44.9182 106.467 42.9684 104.508 41.3938C100.963 38.6633 96.951 37.9267 92.4899 38.1483C90.2922 38.2621 87.8132 39.298 85.903 40.3938C83.2921 41.8849 82.1903 44.9088 80.9927 47.6813C78.5017 53.1904 78.8789 60.6156 80.6155 62.6516L111.957 81.1188C115.999 78.9751 115.466 71.7894 114.083 67.4301C112.827 63.1281 111.954 58.7238 111.472 54.2682Z" fill="#263238"/>
<path d="M103.934 45.5432L89.4725 41.4054C84.8197 40.7647 81.5323 46.4174 81.0891 51.0941C80.5981 56.2858 80.2029 62.6511 80.6999 66.5554C81.6939 74.3998 87.6521 75.5854 87.6521 75.5854C87.6521 75.5854 87.6521 75.6992 87.6521 78.0226L87.5383 81.3999C89.3347 87.7832 101.676 86.7292 102.994 82.2202L106.311 48.4055C106.346 47.7172 106.121 47.041 105.68 46.5109C105.24 45.9808 104.617 45.6354 103.934 45.5432Z" fill="#FFBE9D"/>
<path d="M82.8193 58.1668C82.8078 58.4281 82.8992 58.6835 83.0738 58.8783C83.2484 59.0731 83.4924 59.1917 83.7535 59.2087C83.8803 59.2227 84.0087 59.2113 84.1311 59.175C84.2535 59.1388 84.3674 59.0784 84.4661 58.9976C84.5649 58.9167 84.6464 58.8169 84.7061 58.704C84.7657 58.5912 84.8022 58.4676 84.8134 58.3404C84.8233 58.0795 84.7315 57.8248 84.5571 57.6304C84.3828 57.436 84.1397 57.3169 83.8792 57.2985C83.7522 57.2836 83.6235 57.2944 83.5008 57.3303C83.3781 57.3663 83.2638 57.4265 83.1649 57.5076C83.066 57.5886 82.9844 57.6887 82.925 57.802C82.8657 57.9153 82.8297 58.0393 82.8193 58.1668Z" fill="#263238"/>
<path d="M82.4601 55.6213C82.5799 55.7531 83.3584 55.2201 84.4362 55.256C85.5141 55.292 86.2865 55.8549 86.4063 55.7291C86.5261 55.6033 86.3464 55.4297 86.0111 55.1662C85.5543 54.8285 85.0042 54.6402 84.4362 54.6273C83.8765 54.6097 83.3254 54.769 82.8613 55.0824C82.526 55.3279 82.4063 55.5614 82.4601 55.6213Z" fill="#263238"/>
<path d="M92.5681 58.0352C92.5581 58.2962 92.65 58.5508 92.8243 58.7452C92.9987 58.9397 93.2418 59.0587 93.5023 59.0772C93.6291 59.0912 93.7575 59.0798 93.8799 59.0435C94.0023 59.0073 94.1162 58.9469 94.2149 58.866C94.3136 58.7852 94.3952 58.6854 94.4548 58.5725C94.5145 58.4597 94.551 58.336 94.5621 58.2089C94.5752 57.9471 94.4844 57.6908 94.3095 57.4957C94.1345 57.3006 93.8896 57.1824 93.628 57.167C93.5012 57.1529 93.3728 57.1643 93.2504 57.2006C93.128 57.2369 93.0141 57.2972 92.9154 57.3781C92.8166 57.459 92.7351 57.5588 92.6754 57.6716C92.6158 57.7845 92.5793 57.9081 92.5681 58.0352Z" fill="#263238"/>
<path d="M92.97 55.663C93.0898 55.7947 93.8682 55.2558 94.9461 55.2917C96.024 55.3276 96.7964 55.8905 96.9162 55.7648C97.0359 55.639 96.8563 55.4714 96.521 55.2079C96.0645 54.8694 95.5142 54.6811 94.9461 54.669C94.3858 54.6472 93.8335 54.8068 93.3712 55.124C93.0539 55.3696 92.9341 55.5971 92.97 55.663Z" fill="#263238"/>
<path d="M88.9099 63.2146C88.3467 63.0201 87.7612 62.8974 87.1674 62.8493C86.8979 62.8074 86.6344 62.7475 86.5985 62.5559C86.5842 62.2713 86.6573 61.9892 86.8081 61.7475L87.6823 59.6756C88.9099 56.7295 89.8021 54.2863 89.6824 54.2504C89.5626 54.2145 88.4848 56.5558 87.2512 59.502C86.9578 60.2325 86.6524 60.9211 86.4069 61.5858C86.2223 61.9129 86.1607 62.2952 86.2332 62.6637C86.2685 62.7621 86.3264 62.8508 86.4024 62.9225C86.4783 62.9943 86.5701 63.0472 86.6704 63.0769C86.8218 63.1249 86.9788 63.153 87.1374 63.1607C87.7233 63.2563 88.3193 63.2744 88.9099 63.2146Z" fill="#263238"/>
<path d="M87.658 75.5862C91.3424 75.9958 95.0636 75.262 98.3168 73.4844C98.3168 73.4844 95.4425 78.7898 87.646 77.8198L87.658 75.5862Z" fill="#EB996E"/>
<path d="M92.4485 65.3524C92.3228 65.1462 92.1472 64.9751 91.9378 64.8547C91.7285 64.7344 91.4923 64.6687 91.2509 64.6638C90.9181 64.6284 90.5819 64.6831 90.2774 64.8222C89.973 64.9612 89.7115 65.1795 89.5203 65.4542C89.3828 65.7089 89.3465 66.0062 89.4185 66.2865C89.4784 66.4302 89.4185 66.3584 89.5383 66.4602C89.8996 66.8518 90.3492 67.1516 90.8497 67.3344C91.1231 67.4165 91.415 67.4135 91.6866 67.3258C91.9583 67.2381 92.1968 67.0699 92.3706 66.8434C92.5196 66.6261 92.6057 66.3719 92.6194 66.1089C92.6331 65.8458 92.574 65.584 92.4485 65.3524Z" fill="#EB996E"/>
<path d="M92.2514 64.1065C92.0777 64.1065 92.0298 65.2622 90.9999 66.0527C89.9699 66.8431 88.7304 66.6515 88.7124 66.8371C88.7124 66.909 88.9819 67.0706 89.5088 67.1066C90.1943 67.1377 90.8687 66.9256 91.413 66.5078C91.9415 66.1131 92.2924 65.5254 92.3891 64.873C92.455 64.3999 92.3352 64.1005 92.2514 64.1065Z" fill="#263238"/>
<path d="M92.6107 52.2569C92.6886 52.5563 93.7784 52.5143 95.006 52.7778C96.2335 53.0413 97.2396 53.4784 97.4312 53.2329C97.515 53.1132 97.3653 52.8197 96.9761 52.5024C96.463 52.101 95.8615 51.8279 95.2216 51.706C94.5836 51.5715 93.9229 51.59 93.2934 51.7598C92.8323 51.9036 92.5748 52.1131 92.6107 52.2569Z" fill="#263238"/>
<path d="M82.5132 53.2563C82.7588 53.4659 83.5432 53.0887 84.5252 52.927C85.5073 52.7653 86.3756 52.8072 86.5253 52.5258C86.5911 52.3881 86.4235 52.1665 86.0223 51.9929C85.4786 51.7969 84.8926 51.749 84.3244 51.8543C83.7561 51.9595 83.2261 52.214 82.7887 52.5917C82.4833 52.8851 82.4055 53.1486 82.5132 53.2563Z" fill="#263238"/>
<path d="M89.4545 40.8608C89.0197 44.0231 89.4694 47.2441 90.754 50.1663C91.0754 50.9955 91.567 51.7482 92.1971 52.3759C92.5166 52.6852 92.9036 52.916 93.3276 53.0501C93.7516 53.1841 94.201 53.2178 94.6402 53.1483C93.3026 51.4015 92.5428 49.2812 92.4666 47.0824C93.4067 49.298 94.3708 51.5495 95.9516 53.3639C97.5325 55.1783 99.8618 56.5077 102.257 56.2861L102.089 54.6753C102.383 55.8549 103.054 56.9063 104 57.6693C104.479 58.0343 105.063 58.2373 105.666 58.2491C106.268 58.261 106.859 58.081 107.353 57.7352C106.533 53.825 108.91 49.5734 107.395 45.8788C106.347 43.3219 103.682 41.7949 101.042 40.9686C97.3041 39.8101 93.3261 39.6655 89.5144 40.5494" fill="#263238"/>
<path d="M89.7776 40.9268L89.7417 41.0944C89.7716 41.0465 89.7776 40.9866 89.7776 40.9268Z" fill="#263238"/>
<path d="M89.7417 41.0945L89.2686 40.9029C87.7896 40.1424 86.8255 39.2861 84.538 41.3161C83.2183 42.5798 82.1549 44.0864 81.4063 45.7532C80.6134 47.2624 80.035 48.8747 79.6877 50.5437C79.3517 52.5224 79.3033 54.5393 79.544 56.5318C80.8673 55.6516 81.538 54.0767 81.9392 52.5437C82.3404 51.0108 82.6039 49.406 83.3704 48.0167C83.076 49.3145 83.0011 50.6524 83.1488 51.9749C83.1784 52.3395 83.3303 52.6835 83.5799 52.9509C83.7097 53.0775 83.8837 53.1483 84.065 53.1483C84.2462 53.1483 84.4203 53.0775 84.55 52.9509C84.1099 51.415 84.1099 49.7863 84.55 48.2503C84.9882 46.7231 85.5759 45.2429 86.3045 43.8311C85.9594 46.4789 86.0688 49.1662 86.6279 51.7773C86.6779 52.1578 86.8334 52.5166 87.077 52.8132C87.3042 52.9887 87.5687 53.1097 87.85 53.1668C88.1314 53.2239 88.4221 53.2156 88.6998 53.1426C89.2524 52.9948 89.8305 52.9683 90.3944 53.0647C89.0967 49.2074 88.8711 45.07 89.7417 41.0945Z" fill="#263238"/>
<path d="M101.951 76.1789C102.137 74.3825 100.316 72.2866 100.514 70.4663C100.724 68.5381 101.957 66.8734 102.454 64.9991C103.652 60.4542 100.388 55.502 101.921 51.0469L107.939 51.8732L111.927 81.143L97.9751 81.6819C99.2086 79.8735 101.73 78.3286 101.951 76.1789Z" fill="#263238"/>
<path d="M50.646 111.227C50.646 111.227 67.5324 86.9989 68.9396 86.6755C70.3468 86.3522 85.6643 79.6455 85.6643 79.6455L94.886 98.2445L108.958 82.1425C108.958 82.1425 122.09 91.993 122.868 94.1846C123.647 96.3762 112.862 127.79 112.862 127.79C112.862 127.79 117.713 135.293 118.647 143.736C119.581 152.179 117.713 168.126 117.713 168.126L64.4186 167.635C64.4186 167.635 63.8557 144.083 67.9037 131.808C70.0893 125.191 72.5145 117.317 72.5145 117.317L71.263 112.784L62.5084 122.634L50.646 111.227Z" fill="#BCEBFF"/>
<path d="M122.868 94.1846L131 124.826L114.533 130.79L112.862 127.796L122.868 94.1846Z" fill="#BCEBFF"/>
<path d="M71.2813 112.79C71.2016 112.483 71.1455 112.171 71.1136 111.856C71.0178 111.257 70.904 110.377 70.7843 109.293C70.5507 107.125 70.3112 104.113 70.2873 100.778C70.2655 97.9312 70.4134 95.0858 70.7304 92.2568C70.8561 91.167 70.9699 90.2927 71.0777 89.6939C71.1134 89.3784 71.1734 89.066 71.2573 88.7598C71.2664 89.0765 71.2444 89.3934 71.1915 89.7059C71.1256 90.3047 71.0418 91.1909 70.9459 92.2748C70.7543 94.4484 70.5687 97.4485 70.5927 100.772C70.6166 104.095 70.8202 107.101 70.9998 109.269C71.0956 110.317 71.1735 111.185 71.2274 111.844C71.2734 112.157 71.2915 112.474 71.2813 112.79Z" fill="#263238"/>
<path d="M112.863 85.1547C112.786 85.2969 112.696 85.4312 112.593 85.5559L111.767 86.6816L108.665 90.8134L98.1319 104.67L98.0899 104.73H91.3234L91.2815 104.646C88.2874 98.2506 85.5748 92.5739 83.6347 88.478C82.6886 86.4421 81.9281 84.8014 81.3832 83.6397C81.1377 83.0888 80.9341 82.6516 80.7844 82.3283L80.6347 81.9869C80.6347 81.9091 80.5927 81.8672 80.5987 81.8672L80.6646 81.975L80.8383 82.3043L81.479 83.5918C82.0419 84.7415 82.8323 86.3702 83.8143 88.3822C85.7784 92.4781 88.497 98.1428 91.551 104.52L91.4132 104.43H98.0001L97.8804 104.49L108.491 90.7176C109.827 88.999 110.887 87.6158 111.671 86.6397L112.533 85.5499C112.633 85.4102 112.743 85.2781 112.863 85.1547Z" fill="#263238"/>
<path d="M115.125 131.957C115.125 131.957 115.071 131.892 114.987 131.754L114.64 131.155L113.329 128.778V128.748V128.712C114.185 125.412 115.634 119.999 117.293 113.897L120.886 100.969C121.347 99.3463 121.724 98.0169 121.999 97.0588L122.317 95.9989C122.346 95.8744 122.391 95.7538 122.448 95.6396C122.441 95.7679 122.417 95.8947 122.377 96.0169C122.311 96.2924 122.221 96.6516 122.113 97.0888C121.862 98.0588 121.514 99.3942 121.095 101.023L117.616 113.981C115.951 120.083 114.454 125.478 113.526 128.76V128.694C114.023 129.694 114.43 130.49 114.724 131.089C114.85 131.347 114.951 131.562 115.029 131.73C115.072 131.801 115.104 131.877 115.125 131.957Z" fill="#263238"/>
<g opacity="0.3">
<path opacity="0.3" d="M71.2811 112.79C69.8592 110.067 69.0608 107.061 68.9437 103.992C68.8267 100.922 69.394 97.8645 70.6044 95.041C70.6044 95.041 70.6823 109.903 71.2811 112.79Z" fill="black"/>
</g>
</g>
</g>
<defs>
<filter id="filter0_d" x="0.333334" y="0" width="194.444" height="194.444" filterUnits="userSpaceOnUse" color-interpolation-filters="sRGB">
<feFlood flood-opacity="0" result="BackgroundImageFix"/>
<feColorMatrix in="SourceAlpha" type="matrix" values="0 0 0 0 0 0 0 0 0 0 0 0 0 0 0 0 0 0 127 0" result="hardAlpha"/>
<feOffset dx="1.55556" dy="34.2222"/>
<feGaussianBlur stdDeviation="31.1111"/>
<feColorMatrix type="matrix" values="0 0 0 0 0 0 0 0 0 0 0 0 0 0 0 0 0 0 0.15 0"/>
<feBlend mode="normal" in2="BackgroundImageFix" result="effect1_dropShadow"/>
<feBlend mode="normal" in="SourceGraphic" in2="effect1_dropShadow" result="shape"/>
</filter>
<filter id="filter1_d" x="57.8889" y="24.8889" width="82.4444" height="82.4444" filterUnits="userSpaceOnUse" color-interpolation-filters="sRGB">
<feFlood flood-opacity="0" result="BackgroundImageFix"/>
<feColorMatrix in="SourceAlpha" type="matrix" values="0 0 0 0 0 0 0 0 0 0 0 0 0 0 0 0 0 0 127 0" result="hardAlpha"/>
<feOffset dx="3.11111" dy="3.11111"/>
<feGaussianBlur stdDeviation="3.11111"/>
<feColorMatrix type="matrix" values="0 0 0 0 0 0 0 0 0 0 0 0 0 0 0 0 0 0 0.25 0"/>
<feBlend mode="normal" in2="BackgroundImageFix" result="effect1_dropShadow"/>
<feBlend mode="normal" in="SourceGraphic" in2="effect1_dropShadow" result="shape"/>
</filter>
</defs>
</svg>
