<svg width="40" height="40" viewBox="0 0 40 40" fill="none" xmlns="http://www.w3.org/2000/svg">
<path d="M28 0H12C5.37258 0 0 5.37258 0 12V28C0 34.6274 5.37258 40 12 40H28C34.6274 40 40 34.6274 40 28V12C40 5.37258 34.6274 0 28 0Z" fill="#2EC28B" fill-opacity="0.2"/>
<path d="M19.9999 10.0005C17.483 9.8783 15.0198 10.7556 13.1467 12.4413C11.2737 14.1271 10.1427 16.4847 10 19.0005C10.0027 20.8559 10.6265 22.657 11.772 24.1165C11.7825 24.1291 11.7893 24.1444 11.7918 24.1606C11.7943 24.1768 11.7923 24.1934 11.786 24.2085L10.528 27.2245C10.4875 27.3232 10.4774 27.4318 10.4991 27.5362C10.5209 27.6407 10.5734 27.7362 10.65 27.8105C10.776 27.9374 10.9471 28.0092 11.126 28.0105C11.1798 28.0103 11.2335 28.0043 11.286 27.9925L15.416 27.0325C15.4356 27.0265 15.4565 27.0265 15.476 27.0325C16.8976 27.6751 18.4399 28.0065 19.9999 28.0045C21.2615 28.1377 22.5371 28.0041 23.7437 27.6125C24.9504 27.2209 26.0611 26.58 27.0041 25.7313C27.947 24.8827 28.7011 23.8453 29.2172 22.6864C29.7333 21.5275 29.9999 20.2731 29.9999 19.0045C29.9999 17.7359 29.7333 16.4815 29.2172 15.3226C28.7011 14.1638 27.947 13.1264 27.0041 12.2777C26.0611 11.4291 24.9504 10.7881 23.7437 10.3965C22.5371 10.0049 21.2615 9.87136 19.9999 10.0045V10.0005ZM15.908 20.0005C15.7102 20.0005 15.5169 19.9419 15.3524 19.832C15.188 19.7221 15.0598 19.5659 14.9841 19.3832C14.9084 19.2005 14.8886 18.9994 14.9272 18.8054C14.9658 18.6115 15.061 18.4333 15.2009 18.2934C15.3407 18.1536 15.5189 18.0583 15.7129 18.0197C15.9069 17.9811 16.1079 18.001 16.2906 18.0766C16.4734 18.1523 16.6296 18.2805 16.7394 18.445C16.8493 18.6094 16.908 18.8028 16.908 19.0005C16.9083 19.1322 16.8825 19.2626 16.8323 19.3843C16.782 19.506 16.7082 19.6165 16.6151 19.7096C16.522 19.8027 16.4114 19.8765 16.2897 19.9268C16.168 19.9771 16.0377 20.0028 15.906 20.0025L15.908 20.0005ZM19.9999 20.0005C19.8022 20.0005 19.6088 19.9419 19.4444 19.832C19.2799 19.7221 19.1518 19.5659 19.0761 19.3832C19.0004 19.2005 18.9806 18.9994 19.0192 18.8054C19.0578 18.6115 19.1531 18.4333 19.2929 18.2934C19.4328 18.1536 19.6109 18.0583 19.8049 18.0197C19.9989 17.9811 20.1999 18.001 20.3826 18.0766C20.5654 18.1523 20.7216 18.2805 20.8315 18.445C20.9414 18.6094 20.9999 18.8028 20.9999 19.0005C21.0002 19.132 20.9746 19.2623 20.9245 19.3838C20.8744 19.5054 20.8007 19.6159 20.7078 19.7089C20.6149 19.802 20.5046 19.8758 20.3831 19.9262C20.2617 19.9766 20.1314 20.0025 19.9999 20.0025V20.0005ZM24.09 20.0005C23.8922 20.0005 23.6988 19.9419 23.5344 19.832C23.3699 19.7221 23.2418 19.5659 23.1661 19.3832C23.0904 19.2005 23.0706 18.9994 23.1092 18.8054C23.1478 18.6115 23.243 18.4333 23.3829 18.2934C23.5227 18.1536 23.701 18.0583 23.895 18.0197C24.0889 17.9811 24.29 18.001 24.4727 18.0766C24.6554 18.1523 24.8116 18.2805 24.9214 18.445C25.0313 18.6094 25.09 18.8028 25.09 19.0005C25.0903 19.132 25.0646 19.2623 25.0145 19.3838C24.9643 19.5054 24.8907 19.6159 24.7978 19.7089C24.7049 19.802 24.5945 19.8758 24.4731 19.9262C24.3516 19.9766 24.2215 20.0025 24.09 20.0025V20.0005Z" fill="#2EC28B"/>
</svg>
