<svg width="82" height="81" viewBox="0 0 82 81" fill="none" xmlns="http://www.w3.org/2000/svg">
<path d="M9.3252 79.9997C13.9231 79.9997 17.6504 75.9771 17.6504 71.015C17.6504 66.0529 13.9231 62.0303 9.3252 62.0303C4.72732 62.0303 1 66.0529 1 71.015C1 75.9771 4.72732 79.9997 9.3252 79.9997Z" fill="#BCEBFF"/>
<path d="M35.5247 0.60207C37.5144 -0.637821 40.0619 0.0989258 41.2108 2.24627L68.2677 52.8212C69.4166 54.9686 68.7339 57.7179 66.7442 58.9578L34.3009 79.1734C32.3112 80.4133 29.7636 79.6766 28.6148 77.5292L1.55788 26.9542C0.408998 24.8069 1.09166 22.0576 3.08139 20.8177L35.5247 0.60207Z" fill="#42BA85"/>
<rect width="38.2261" height="57.3577" transform="matrix(0.84872 -0.528843 0.471722 0.881747 5.16064 24.7061)" fill="white"/>
<path d="M10.1703 16.4016L3.08139 20.8176C1.09166 22.0575 0.408998 24.8068 1.55788 26.9542L28.6148 77.5291C29.7636 79.6765 32.3112 80.4132 34.3009 79.1733L66.7442 58.9577C68.7339 57.7178 69.4166 54.9685 68.2677 52.8212L47.7794 14.5283" stroke="#30446D" strokeWidth="1.32" stroke-linecap="round" stroke-linejoin="round"/>
<path d="M49.9521 64.2363L32.2194 75.2875L28.2524 67.8751" stroke="#30446D" strokeWidth="1.32" stroke-linecap="round" stroke-linejoin="round"/>
<path d="M30.2759 9.06092L37.6062 4.49219L57.8822 42.3942" stroke="#30446D" strokeWidth="1.32" stroke-linecap="round" stroke-linejoin="round"/>
<path d="M19.8689 24.2676L17.9292 32.0798L15.4482 31.361" stroke="#30446D" strokeWidth="1.32" stroke-linecap="round" stroke-linejoin="round"/>
<path d="M24.3687 22.8792L36.6275 15.2422" stroke="#30446D" strokeWidth="1.32" stroke-linecap="round" stroke-linejoin="round"/>
<path d="M26.2422 26.3791L34.8962 20.9883" stroke="#30446D" strokeWidth="1.32" stroke-linecap="round" stroke-linejoin="round"/>
<path d="M24.864 33.6074L22.9243 41.4151L20.4434 40.6964" stroke="#30446D" strokeWidth="1.32" stroke-linecap="round" stroke-linejoin="round"/>
<path d="M29.3638 32.2151L41.6226 24.5781" stroke="#30446D" strokeWidth="1.32" stroke-linecap="round" stroke-linejoin="round"/>
<path d="M31.2373 35.719L39.8913 30.3281" stroke="#30446D" strokeWidth="1.32" stroke-linecap="round" stroke-linejoin="round"/>
<path d="M27.1787 53.2886L49.5319 39.3623" stroke="#30446D" strokeWidth="1.32" stroke-linecap="round" stroke-linejoin="round"/>
<path d="M29.0518 56.7922L36.9857 51.8506" stroke="#30446D" strokeWidth="1.32" stroke-linecap="round" stroke-linejoin="round"/>
<path d="M25.7136 4.12412L20.7851 7.1924C19.9817 5.68746 18.2001 5.17084 16.8056 6.04236C15.4111 6.90938 14.9324 8.83211 15.74 10.3371L10.57 13.5581C9.77498 14.0522 9.50025 15.1529 9.96229 16.0109L12.4599 20.6785C12.9177 21.5365 13.9376 21.833 14.7326 21.3343L29.872 11.9004C30.6671 11.4062 30.9418 10.3056 30.4797 9.44757L27.9822 4.78001C27.5285 3.92197 26.5086 3.62547 25.7136 4.12412Z" fill="#BCEBFF"/>
<path d="M19.8318 18.1631L29.8762 11.9053C30.6712 11.4111 30.946 10.3105 30.4839 9.45245L27.9863 4.78489C27.5285 3.92685 26.5086 3.63035 25.7136 4.129L20.7851 7.19729C19.9817 5.69235 18.2001 5.17572 16.8056 6.04724C15.4111 6.91427 14.9324 8.837 15.74 10.3419L10.57 13.5585C9.77498 14.0526 9.50025 15.1533 9.96229 16.0113L11.2444 18.4102" stroke="#30446D" strokeWidth="1.32" stroke-linecap="round" stroke-linejoin="round"/>
<path d="M41.3813 22.4214C41.269 21.2354 41.2148 20.0224 41.2148 18.7915V11.6038C41.2148 8.13116 43.8248 5.31445 47.0425 5.31445V5.31445" stroke="#30446D" strokeWidth="1.32" stroke-linecap="round" stroke-linejoin="round"/>
<path d="M72.8467 5.31055V5.31055C76.0644 5.31055 78.6743 8.12726 78.6743 11.5998V18.7876" stroke="#30446D" strokeWidth="1.32" stroke-linecap="round" stroke-linejoin="round"/>
<path d="M70.7654 7.55583H69.1003C67.9515 7.55583 67.019 6.54955 67.019 5.30966C67.019 4.06976 67.9515 3.06348 69.1003 3.06348H70.7654C71.9143 3.06348 72.8467 4.06976 72.8467 5.30966C72.8467 6.54955 71.9143 7.55583 70.7654 7.55583Z" fill="#30446D"/>
<path d="M50.7849 7.55583H49.1199C47.971 7.55583 47.0386 6.54955 47.0386 5.30966C47.0386 4.06976 47.971 3.06348 49.1199 3.06348H50.7849C51.9338 3.06348 52.8662 4.06976 52.8662 5.30966C52.8662 6.54955 51.9338 7.55583 50.7849 7.55583Z" fill="#30446D"/>
<path d="M59.9426 60.1621V65.0633C59.9426 71.2672 55.2846 76.2942 49.5361 76.2942V76.2942C47.0469 76.2942 44.7616 75.3508 42.9717 73.7784" stroke="#30446D" strokeWidth="1.32" stroke-linecap="round" stroke-linejoin="round"/>
<path d="M16.2268 65.9925C17.1259 67.4256 17.6504 69.1552 17.6504 71.015C17.6504 75.979 13.9249 79.9997 9.3252 79.9997C4.72553 79.9997 1 75.979 1 71.015C1 66.0509 4.72553 62.0303 9.3252 62.0303" stroke="#30446D" strokeWidth="1.32" stroke-linecap="round" stroke-linejoin="round"/>
<path d="M9.3252 66.5229V52.2552C9.3252 49.6137 10.0287 47.1473 11.2483 45.0674" stroke="#30446D" strokeWidth="1.32" stroke-linecap="round" stroke-linejoin="round"/>
<path fill-rule="evenodd" clip-rule="evenodd" d="M9.3252 75.5072C11.6241 75.5072 13.4878 73.4959 13.4878 71.0148C13.4878 68.5338 11.6241 66.5225 9.3252 66.5225C7.02626 66.5225 5.1626 68.5338 5.1626 71.0148C5.1626 73.4959 7.02626 75.5072 9.3252 75.5072Z" stroke="#30446D" strokeWidth="1.32" stroke-linecap="round" stroke-linejoin="round"/>
<path d="M78.6365 22.4391C77.0547 22.1111 75.5271 23.2252 75.2232 24.9323C73.3625 35.3366 67.077 42.6008 59.9423 42.6008C52.8076 42.6008 46.5221 35.3366 44.6614 24.9323C44.3575 23.2252 42.8257 22.1111 41.2481 22.4391C39.6663 22.767 38.6339 24.4157 38.9378 26.1228C41.0649 38.0051 48.0955 46.7068 56.6122 48.5262V52.9692C56.6122 54.9548 58.1024 56.563 59.9423 56.563C61.7822 56.563 63.2724 54.9548 63.2724 52.9692V48.5262C71.789 46.7068 78.8197 38.0051 80.9468 26.1228C81.2506 24.4157 80.2183 22.767 78.6365 22.4391Z" fill="#BCEBFF"/>
<path d="M80.9468 26.1228C81.2506 24.4157 80.2183 22.767 78.6365 22.4391C77.0547 22.1111 75.5271 23.2252 75.2232 24.9323C73.3625 35.3366 67.077 42.6008 59.9423 42.6008C52.8076 42.6008 46.5221 35.3366 44.6614 24.9323C44.3575 23.2252 42.8257 22.1111 41.2481 22.4391C39.6663 22.767 38.6339 24.4157 38.9378 26.1228C40.2657 33.5487 43.5125 39.7347 47.8374 43.7733" stroke="#30446D" strokeWidth="1.32" stroke-linecap="round" stroke-linejoin="round"/>
<path d="M56.6123 48.5262V52.9691C56.6123 54.9547 58.1025 56.563 59.9424 56.563C61.7823 56.563 63.2725 54.9547 63.2725 52.9691V48.5262C69.8743 47.1156 75.5854 41.5675 78.8073 33.6025" stroke="#30446D" strokeWidth="1.32" stroke-linecap="round" stroke-linejoin="round"/>
</svg>
