<svg width="48" height="48" viewBox="0 0 48 48" fill="none" xmlns="http://www.w3.org/2000/svg">
<circle cx="24" cy="24" r="24" fill="#FFFADD"/>
<path d="M25.2793 30.3559C25.0207 30.8527 24.6631 31.2912 24.2285 31.6445C23.7939 31.9978 23.2915 32.2582 22.7523 32.4099V32.4099C21.7027 32.7067 20.5782 32.5745 19.6261 32.0423C18.674 31.51 17.9723 30.6214 17.6753 29.5719L15.1563 20.6719C15.0087 20.1518 14.9651 19.6078 15.0278 19.0709C15.0906 18.534 15.2586 18.0147 15.5221 17.5427C15.7857 17.0707 16.1397 16.6553 16.5639 16.3203C16.9881 15.9852 17.4742 15.737 17.9943 15.5899V15.5899C19.044 15.293 20.1687 15.4252 21.121 15.9574C22.0732 16.4896 22.7751 17.3782 23.0723 18.4279L23.2113 18.9279" stroke="#004171" stroke-linecap="round" stroke-linejoin="round"/>
<path d="M16.416 25.1199L20.871 23.8589" stroke="#004171" stroke-linecap="round" stroke-linejoin="round"/>
<path d="M24.2656 27.6999C25.0697 28.4857 26.1093 28.9862 27.225 29.1248C28.3407 29.2634 29.4711 29.0325 30.4431 28.4673C31.415 27.9021 32.1749 27.0339 32.6063 25.9957C33.0377 24.9574 33.1168 23.8064 32.8316 22.7189C32.7565 22.4312 32.6561 22.1508 32.5316 21.8809" stroke="#004171" stroke-linecap="round" stroke-linejoin="round"/>
<path d="M31.4519 20.343C30.9688 19.8711 30.3975 19.4991 29.7707 19.248C29.1438 18.9969 28.4736 18.8718 27.7984 18.8797C27.1232 18.8877 26.4562 19.0285 25.8354 19.2943C25.2146 19.56 24.6522 19.9454 24.1804 20.4285C23.7085 20.9115 23.3365 21.4828 23.0854 22.1097C22.8343 22.7365 22.7092 23.4067 22.7172 24.0819C22.7332 25.4456 23.2903 26.7471 24.2659 27.7L31.4519 20.343Z" stroke="#004171" stroke-linecap="round" stroke-linejoin="round"/>
</svg>
