<svg width="32" height="31" viewBox="0 0 32 31" fill="none" xmlns="http://www.w3.org/2000/svg">
<path d="M15.9485 29.7754C24.0101 29.7754 30.5454 23.2402 30.5454 15.1785C30.5454 7.11686 24.0101 0.581604 15.9485 0.581604C7.88682 0.581604 1.35156 7.11686 1.35156 15.1785C1.35156 23.2402 7.88682 29.7754 15.9485 29.7754Z" fill="#BCEBFF"/>
<path d="M15.9471 26.8568C22.3967 26.8568 27.6251 21.6283 27.6251 15.1788C27.6251 8.72916 22.3967 3.50073 15.9471 3.50073C9.49753 3.50073 4.2691 8.72916 4.2691 15.1788C4.2691 21.6283 9.49753 26.8568 15.9471 26.8568Z" fill="white"/>
<path d="M20.0759 19.3078L16.9796 16.2114" stroke="#30446D" strokeWidth="0.986111" stroke-linecap="round" stroke-linejoin="round"/>
<path d="M29.4356 9.58706C30.1505 11.3103 30.5449 13.1987 30.5449 15.1808C30.5449 23.2422 24.0095 29.7777 15.948 29.7777C7.88656 29.7777 1.3511 23.2422 1.3511 15.1808C1.3511 7.11931 7.88656 0.583862 15.948 0.583862C19.3526 0.583862 22.4859 1.74994 24.9685 3.7049" stroke="#30446D" strokeWidth="0.986111" stroke-linecap="round" stroke-linejoin="round"/>
<path d="M4.6389 18.105C4.3973 17.1707 4.2691 16.1895 4.2691 15.1788C4.2691 8.72959 9.49796 3.50073 15.9471 3.50073C22.3963 3.50073 27.6251 8.72959 27.6251 15.1788C27.6251 21.6279 22.3963 26.8568 15.9471 26.8568C12.5056 26.8568 9.41167 25.3677 7.27428 22.9986" stroke="#30446D" strokeWidth="0.986111" stroke-linecap="round" stroke-linejoin="round"/>
<path d="M15.9494 7.58801V13.7192" stroke="#30446D" strokeWidth="0.986111" stroke-linecap="round" stroke-linejoin="round"/>
<path fill-rule="evenodd" clip-rule="evenodd" d="M15.9504 16.6381C16.7565 16.6381 17.4099 15.9847 17.4099 15.1786C17.4099 14.3726 16.7565 13.7192 15.9504 13.7192C15.1444 13.7192 14.491 14.3726 14.491 15.1786C14.491 15.9847 15.1444 16.6381 15.9504 16.6381Z" stroke="#30446D" strokeWidth="0.986111" stroke-linecap="round" stroke-linejoin="round"/>
</svg>
