<svg width="40" height="41" viewBox="0 0 40 41" fill="none" xmlns="http://www.w3.org/2000/svg">
<circle cx="20" cy="20.9375" r="20" fill="#005D8D"/>
<path d="M14.8955 28.7147H13.6802C11.2639 28.7147 9.30518 26.756 9.30518 24.3397C9.30518 21.9235 11.2639 19.9647 13.6802 19.9647H14.1663V18.9925C14.1663 15.7709 16.778 13.1592 19.9996 13.1592C23.2213 13.1592 25.833 15.7709 25.833 18.9925V19.9647H26.3191C28.7353 19.9647 30.6941 21.9235 30.6941 24.3397C30.6941 26.756 28.7353 28.7147 26.3191 28.7147H25.1038M19.9996 31.6314L19.9996 22.8814M19.9996 22.8814L17.083 25.7981M19.9996 22.8814L22.9163 25.7981" stroke="white" stroke-linecap="round"/>
</svg>
