<svg width="74" height="74" viewBox="0 0 74 74" fill="none" xmlns="http://www.w3.org/2000/svg">
<path d="M40.0833 12.3333H33.9167C33.5078 12.3333 33.1157 12.1709 32.8265 11.8818C32.5374 11.5927 32.375 11.2005 32.375 10.7917C32.375 10.3828 32.5374 9.99066 32.8265 9.70154C33.1157 9.41243 33.5078 9.25 33.9167 9.25H40.0833C40.4922 9.25 40.8843 9.41243 41.1735 9.70154C41.4626 9.99066 41.625 10.3828 41.625 10.7917C41.625 11.2005 41.4626 11.5927 41.1735 11.8818C40.8843 12.1709 40.4922 12.3333 40.0833 12.3333Z" fill="#004171"/>
<path d="M59 60.875H57.75V62.125H59V60.875ZM45.875 14H44.625V15.25H45.875V14ZM27.125 14V15.25H28.375V14H27.125ZM13.8828 60.875V62.125H15.1328V60.875H13.8828ZM10.25 66.5H9V67.75H10.25V66.5ZM62.75 66.5V67.75H64V66.5H62.75ZM19.5078 60.7578H18.2578V62.0078H19.5078V60.7578ZM19.5078 19.625V18.375H18.2578V19.625H19.5078ZM27.125 19.625H28.375V18.375H27.125V19.625ZM45.875 19.625V18.375H44.625V19.625H45.875ZM53.375 19.625H54.625V18.375H53.375V19.625ZM53.375 60.7578V62.0078H54.625V60.7578H53.375ZM40.25 60.7578H39V62.0078H40.25V60.7578ZM32.75 60.7578V62.0078H34V60.7578H32.75ZM38.375 17.75V16.5H37.125V17.75H38.375ZM34.625 17.75H35.875V16.5H34.625V17.75ZM34.625 14V15.25H35.875V14H34.625ZM38.375 14H37.125V15.25H38.375V14ZM24 35.0938C24 36.6044 25.1456 37.75 26.6562 37.75V35.25C26.6008 35.25 26.568 35.2403 26.5525 35.2342C26.5373 35.2281 26.5314 35.2226 26.5294 35.2206C26.5274 35.2186 26.5219 35.2127 26.5158 35.1975C26.5097 35.182 26.5 35.1492 26.5 35.0938H24ZM26.6562 37.75H31.3438V35.25H26.6562V37.75ZM31.3438 37.75C32.669 37.75 34 36.6708 34 35.0938H31.5C31.5 35.1172 31.4956 35.1326 31.4899 35.1451C31.4835 35.1593 31.4718 35.1772 31.4523 35.1957C31.4322 35.2147 31.4083 35.2299 31.3848 35.2395C31.3614 35.2492 31.3466 35.25 31.3438 35.25V37.75ZM34 35.0938V30.4062H31.5V35.0938H34ZM34 30.4062C34 29.6481 33.6335 28.9947 33.1944 28.5556C32.7553 28.1165 32.1019 27.75 31.3438 27.75V30.25C31.3115 30.25 31.3075 30.2424 31.3315 30.2536C31.3555 30.2648 31.3908 30.2875 31.4267 30.3233C31.4625 30.3592 31.4852 30.3945 31.4964 30.4185C31.5076 30.4425 31.5 30.4385 31.5 30.4062H34ZM31.3438 27.75H26.6562V30.25H31.3438V27.75ZM26.6562 27.75C25.0792 27.75 24 29.081 24 30.4062H26.5C26.5 30.4034 26.5008 30.3886 26.5105 30.3652C26.5201 30.3417 26.5353 30.3178 26.5543 30.2977C26.5728 30.2782 26.5907 30.2665 26.6049 30.2601C26.6174 30.2544 26.6328 30.25 26.6562 30.25V27.75ZM24 30.4062V35.0938H26.5V30.4062H24ZM41.6562 37.75H46.3438V35.25H41.6562V37.75ZM46.3438 37.75C47.669 37.75 49 36.6708 49 35.0938H46.5C46.5 35.1172 46.4956 35.1326 46.4899 35.1451C46.4835 35.1593 46.4718 35.1772 46.4523 35.1957C46.4322 35.2147 46.4083 35.2299 46.3848 35.2395C46.3614 35.2492 46.3466 35.25 46.3438 35.25V37.75ZM49 35.0938V30.4062H46.5V35.0938H49ZM49 30.4062C49 29.6481 48.6335 28.9947 48.1944 28.5556C47.7553 28.1165 47.1019 27.75 46.3438 27.75V30.25C46.3115 30.25 46.3075 30.2424 46.3315 30.2536C46.3555 30.2648 46.3908 30.2875 46.4267 30.3233C46.4625 30.3592 46.4852 30.3945 46.4964 30.4185C46.5076 30.4425 46.5 30.4385 46.5 30.4062H49ZM46.3438 27.75H41.6562V30.25H46.3438V27.75ZM41.6562 27.75C40.0792 27.75 39 29.081 39 30.4062H41.5C41.5 30.4034 41.5008 30.3886 41.5105 30.3652C41.5201 30.3417 41.5353 30.3178 41.5543 30.2977C41.5728 30.2782 41.5907 30.2665 41.6049 30.2601C41.6174 30.2544 41.6328 30.25 41.6562 30.25V27.75ZM39 30.4062V35.0938H41.5V30.4062H39ZM39 35.0938C39 36.6044 40.1456 37.75 41.6562 37.75V35.25C41.6008 35.25 41.568 35.2403 41.5525 35.2342C41.5373 35.2281 41.5314 35.2226 41.5294 35.2206C41.5274 35.2186 41.5219 35.2127 41.5158 35.1975C41.5097 35.182 41.5 35.1492 41.5 35.0938H39ZM34 46.3438V41.6562H31.5V46.3438H34ZM34 41.6562C34 40.8981 33.6335 40.2447 33.1944 39.8056C32.7553 39.3665 32.1019 39 31.3438 39V41.5C31.3115 41.5 31.3075 41.4924 31.3315 41.5036C31.3555 41.5148 31.3908 41.5375 31.4267 41.5733C31.4625 41.6092 31.4852 41.6445 31.4964 41.6685C31.5076 41.6925 31.5 41.6885 31.5 41.6562H34ZM31.3438 39H26.6562V41.5H31.3438V39ZM26.6562 39C25.0792 39 24 40.331 24 41.6562H26.5C26.5 41.6534 26.5008 41.6386 26.5105 41.6152C26.5201 41.5917 26.5353 41.5678 26.5543 41.5477C26.5728 41.5282 26.5907 41.5165 26.6049 41.5101C26.6174 41.5044 26.6328 41.5 26.6562 41.5V39ZM24 41.6562V46.3438H26.5V41.6562H24ZM24 46.3438C24 47.8544 25.1456 49 26.6562 49V46.5C26.6008 46.5 26.568 46.4903 26.5525 46.4842C26.5373 46.4781 26.5314 46.4726 26.5294 46.4706C26.5274 46.4686 26.5219 46.4627 26.5158 46.4475C26.5097 46.432 26.5 46.3992 26.5 46.3438H24ZM26.6562 49H31.3438V46.5H26.6562V49ZM31.3438 49C32.669 49 34 47.9208 34 46.3438H31.5C31.5 46.3672 31.4956 46.3826 31.4899 46.3951C31.4835 46.4093 31.4718 46.4272 31.4523 46.4457C31.4322 46.4647 31.4083 46.4799 31.3848 46.4895C31.3614 46.4992 31.3466 46.5 31.3438 46.5V49ZM41.6562 49H46.3438V46.5H41.6562V49ZM46.3438 49C47.669 49 49 47.9208 49 46.3438H46.5C46.5 46.3672 46.4956 46.3826 46.4899 46.3951C46.4835 46.4093 46.4718 46.4272 46.4523 46.4457C46.4322 46.4647 46.4083 46.4799 46.3848 46.4895C46.3614 46.4992 46.3466 46.5 46.3438 46.5V49ZM49 46.3438V41.6562H46.5V46.3438H49ZM49 41.6562C49 40.8981 48.6335 40.2447 48.1944 39.8056C47.7553 39.3665 47.1019 39 46.3438 39V41.5C46.3115 41.5 46.3075 41.4924 46.3315 41.5036C46.3555 41.5148 46.3908 41.5375 46.4267 41.5733C46.4625 41.6092 46.4852 41.6445 46.4964 41.6685C46.5076 41.6925 46.5 41.6885 46.5 41.6562H49ZM46.3438 39H41.6562V41.5H46.3438V39ZM41.6562 39C40.0792 39 39 40.331 39 41.6562H41.5C41.5 41.6534 41.5008 41.6386 41.5105 41.6152C41.5201 41.5917 41.5353 41.5678 41.5543 41.5477C41.5728 41.5282 41.5907 41.5165 41.6049 41.5101C41.6174 41.5044 41.6328 41.5 41.6562 41.5V39ZM39 41.6562V46.3438H41.5V41.6562H39ZM39 46.3438C39 47.8544 40.1456 49 41.6562 49V46.5C41.6008 46.5 41.568 46.4903 41.5525 46.4842C41.5373 46.4781 41.5314 46.4726 41.5294 46.4706C41.5274 46.4686 41.5219 46.4627 41.5158 46.4475C41.5097 46.432 41.5 46.3992 41.5 46.3438H39ZM64 62.2812C64 61.5231 63.6335 60.8697 63.1944 60.4306C62.7553 59.9915 62.1019 59.625 61.3438 59.625V62.125C61.3115 62.125 61.3075 62.1174 61.3315 62.1286C61.3555 62.1398 61.3908 62.1625 61.4267 62.1983C61.4625 62.2342 61.4852 62.2695 61.4964 62.2935C61.5076 62.3175 61.5 62.3135 61.5 62.2812H64ZM61.3438 59.625H59V62.125H61.3438V59.625ZM60.25 60.875V16.5781H57.75V60.875H60.25ZM60.25 16.5781C60.25 14.3784 58.2935 12.75 56.1875 12.75V15.25C57.1284 15.25 57.75 15.9653 57.75 16.5781H60.25ZM56.1875 12.75H45.875V15.25H56.1875V12.75ZM47.125 14V9.3125H44.625V14H47.125ZM47.125 9.3125C47.125 7.09871 45.2763 5.25 43.0625 5.25V7.75C43.8956 7.75 44.625 8.47942 44.625 9.3125H47.125ZM43.0625 5.25H29.9375V7.75H43.0625V5.25ZM29.9375 5.25C27.5726 5.25 25.875 7.13311 25.875 9.3125H28.375C28.375 8.44501 29.0211 7.75 29.9375 7.75V5.25ZM25.875 9.3125V14H28.375V9.3125H25.875ZM27.125 12.75H16.6953V15.25H27.125V12.75ZM16.6953 12.75C14.5893 12.75 12.6328 14.3784 12.6328 16.5781H15.1328C15.1328 15.9653 15.7544 15.25 16.6953 15.25V12.75ZM12.6328 16.5781V60.875H15.1328V16.5781H12.6328ZM13.8828 59.625H11.6562V62.125H13.8828V59.625ZM11.6562 59.625C10.0792 59.625 9 60.956 9 62.2812H11.5C11.5 62.2784 11.5008 62.2636 11.5105 62.2402C11.5201 62.2167 11.5353 62.1928 11.5543 62.1727C11.5728 62.1532 11.5907 62.1415 11.6049 62.1351C11.6174 62.1294 11.6328 62.125 11.6562 62.125V59.625ZM9 62.2812V66.5H11.5V62.2812H9ZM10.25 67.75H62.75V65.25H10.25V67.75ZM64 66.5V62.2812H61.5V66.5H64ZM20.7578 60.7578V19.625H18.2578V60.7578H20.7578ZM19.5078 20.875H27.125V18.375H19.5078V20.875ZM25.875 19.625V22.4375H28.375V19.625H25.875ZM25.875 22.4375C25.875 24.7685 27.6065 26.5 29.9375 26.5V24C28.9872 24 28.375 23.3878 28.375 22.4375H25.875ZM29.9375 26.5H43.0625V24H29.9375V26.5ZM43.0625 26.5C45.2419 26.5 47.125 24.8024 47.125 22.4375H44.625C44.625 23.3539 43.93 24 43.0625 24V26.5ZM47.125 22.4375V19.625H44.625V22.4375H47.125ZM45.875 20.875H53.375V18.375H45.875V20.875ZM52.125 19.625V60.7578H54.625V19.625H52.125ZM53.375 59.5078H40.25V62.0078H53.375V59.5078ZM41.5 60.7578V52.9062H39V60.7578H41.5ZM41.5 52.9062C41.5 52.1481 41.1335 51.4947 40.6944 51.0556C40.2553 50.6165 39.6019 50.25 38.8438 50.25V52.75C38.8115 52.75 38.8075 52.7424 38.8315 52.7536C38.8555 52.7648 38.8908 52.7875 38.9267 52.8233C38.9625 52.8592 38.9852 52.8945 38.9964 52.9185C39.0076 52.9425 39 52.9385 39 52.9062H41.5ZM38.8438 50.25H34.1562V52.75H38.8438V50.25ZM34.1562 50.25C32.5792 50.25 31.5 51.581 31.5 52.9062H34C34 52.9034 34.0008 52.8886 34.0105 52.8652C34.0201 52.8417 34.0353 52.8178 34.0543 52.7977C34.0728 52.7782 34.0907 52.7665 34.1049 52.7601C34.1174 52.7544 34.1328 52.75 34.1562 52.75V50.25ZM31.5 52.9062V60.7578H34V52.9062H31.5ZM32.75 59.5078H19.5078V62.0078H32.75V59.5078ZM41.4219 15.25C41.1911 15.25 41.065 15.1472 41.0214 15.1036C40.9778 15.06 40.875 14.9339 40.875 14.7031H43.375C43.375 14.1208 43.0964 13.6431 42.7892 13.3358C42.4819 13.0286 42.0042 12.75 41.4219 12.75V15.25ZM40.875 14.7031V17.0469H43.375V14.7031H40.875ZM40.875 17.0469C40.875 16.9421 40.9267 16.7716 41.0748 16.64C41.1999 16.5288 41.3313 16.5 41.4219 16.5V19C41.864 19 42.347 18.854 42.7357 18.5085C43.1475 18.1425 43.375 17.6204 43.375 17.0469H40.875ZM41.4219 16.5H38.375V19H41.4219V16.5ZM37.125 17.75V20.7969H39.625V17.75H37.125ZM37.125 20.7969C37.125 20.6921 37.1767 20.5216 37.3248 20.39C37.4499 20.2788 37.5813 20.25 37.6719 20.25V22.75C38.114 22.75 38.597 22.604 38.9857 22.2585C39.3975 21.8925 39.625 21.3704 39.625 20.7969H37.125ZM37.6719 20.25H35.3281V22.75H37.6719V20.25ZM35.3281 20.25C35.2864 20.25 35.4848 20.2404 35.6847 20.4403C35.8846 20.6402 35.875 20.8386 35.875 20.7969H33.375C33.375 21.2239 33.4826 21.7738 33.9169 22.2081C34.3512 22.6424 34.9011 22.75 35.3281 22.75V20.25ZM35.875 20.7969V17.75H33.375V20.7969H35.875ZM34.625 16.5H31.5781V19H34.625V16.5ZM31.5781 16.5C31.5364 16.5 31.7348 16.4904 31.9347 16.6903C32.1346 16.8902 32.125 17.0886 32.125 17.0469H29.625C29.625 17.4739 29.7326 18.0238 30.1669 18.4581C30.6012 18.8924 31.1511 19 31.5781 19V16.5ZM32.125 17.0469V14.7031H29.625V17.0469H32.125ZM32.125 14.7031C32.125 14.7937 32.0962 14.9251 31.985 15.0502C31.8534 15.1983 31.6829 15.25 31.5781 15.25V12.75C31.0046 12.75 30.4825 12.9775 30.1165 13.3893C29.771 13.778 29.625 14.261 29.625 14.7031H32.125ZM31.5781 15.25H34.625V12.75H31.5781V15.25ZM35.875 14V10.9531H33.375V14H35.875ZM35.875 10.9531C35.875 11.0437 35.8462 11.1751 35.735 11.3002C35.6034 11.4483 35.4329 11.5 35.3281 11.5V9C34.7546 9 34.2325 9.22752 33.8665 9.63927C33.521 10.028 33.375 10.511 33.375 10.9531H35.875ZM35.3281 11.5H37.6719V9H35.3281V11.5ZM37.6719 11.5C37.4411 11.5 37.315 11.3972 37.2714 11.3536C37.2278 11.31 37.125 11.1839 37.125 10.9531H39.625C39.625 10.3708 39.3464 9.89311 39.0392 9.58584C38.7319 9.27857 38.2542 9 37.6719 9V11.5ZM37.125 10.9531V14H39.625V10.9531H37.125ZM38.375 15.25H41.4219V12.75H38.375V15.25Z" fill="#004171"/>
</svg>
