<svg width="175" height="48" viewBox="0 0 175 48" fill="none" xmlns="http://www.w3.org/2000/svg">
<path d="M38.3557 38.7359L38.1639 38.5439C38.068 38.6399 37.8762 38.7359 37.7324 38.7359H19.5132C19.5611 38.8319 19.6091 38.9279 19.705 38.9759L28.4789 47.7599C28.6228 47.9039 28.8625 47.9999 29.1022 47.9999H46.2187C46.6022 47.9999 46.9858 47.8559 47.2255 47.5679L38.3557 38.7359Z" fill="#00664C"/>
<path d="M74.4114 19.2002H69.5209C69.4251 19.2002 69.3771 19.1522 69.3771 19.0562C69.2333 18.0482 68.8018 17.2322 68.1305 16.6082C67.4114 15.9842 66.4525 15.6482 65.3018 15.6482C63.7675 15.6482 62.521 16.2242 61.6579 17.3282C60.7949 18.4802 60.3155 20.0642 60.3155 22.0802C60.3155 24.1922 60.747 25.8242 61.6579 26.8802C62.5689 27.9842 63.7675 28.5122 65.3018 28.5122C66.4525 28.5122 67.3634 28.2242 68.0826 27.6482C68.8018 27.0722 69.2333 26.3522 69.4251 25.3442C69.4251 25.2482 69.5209 25.2002 69.5689 25.2002L74.4593 25.2482C74.5552 25.2482 74.6511 25.3442 74.6031 25.4402C74.5072 26.3042 74.2196 27.2162 73.7881 28.0802C73.3566 28.9922 72.7333 29.8562 71.9182 30.5762C71.1031 31.3442 70.1442 31.9202 69.0415 32.3522C67.8908 32.7842 66.5963 33.0242 65.1579 33.0242C63.2401 33.0242 61.5141 32.5922 59.9799 31.7282C58.4456 30.8642 57.247 29.6162 56.384 27.9842C55.521 26.3522 55.0415 24.3362 55.0415 22.0322C55.0415 19.6802 55.473 17.6642 56.384 16.0322C57.2949 14.4002 58.4936 13.1522 60.0278 12.2882C61.562 11.4242 63.2881 10.9922 65.1579 10.9922C66.884 10.9922 68.4182 11.3282 69.8086 11.9522C71.1511 12.5762 72.3018 13.4882 73.1168 14.6882C73.9319 15.8402 74.4593 17.2322 74.6511 18.8642C74.5552 19.1042 74.5072 19.2002 74.4114 19.2002Z" fill="#004171"/>
<path d="M86.7325 25.9198V16.9438C86.7325 16.8478 86.7805 16.7998 86.8764 16.7998H91.6709C91.7668 16.7998 91.8147 16.8478 91.8147 16.9438V32.6878C91.8147 32.7838 91.7668 32.8318 91.6709 32.8318H87.1161C87.0202 32.8318 86.9723 32.7838 86.9723 32.6878V29.8558H86.8284C86.4928 30.8158 85.8695 31.6318 85.0065 32.2078C84.1435 32.7838 83.1366 33.0718 81.938 33.0718C80.8353 33.0718 79.8764 32.8318 79.0613 32.3038C78.2462 31.8238 77.575 31.1038 77.1435 30.1918C76.664 29.2798 76.4723 28.2238 76.4243 27.0238V16.9438C76.4243 16.8478 76.4723 16.7998 76.5682 16.7998H81.3627C81.4586 16.7998 81.5065 16.8478 81.5065 16.9438V26.0158C81.5065 26.8798 81.7462 27.5518 82.1777 28.0798C82.6093 28.5598 83.2325 28.8478 83.9997 28.8478C84.7668 28.8478 85.3901 28.6078 85.9175 28.0798C86.4928 27.5518 86.7325 26.8318 86.7325 25.9198Z" fill="#004171"/>
<path d="M94.5962 32.6874V16.9434C94.5962 16.8474 94.6441 16.7994 94.74 16.7994H99.3907C99.4866 16.7994 99.5346 16.8474 99.5346 16.9434V19.7274H99.6784C99.9661 18.6714 100.446 17.9034 101.117 17.3754C101.788 16.8474 102.555 16.6074 103.418 16.6074C103.85 16.6074 104.233 16.6554 104.617 16.7514C104.952 16.8474 105.24 16.9434 105.528 17.1354C105.576 17.1834 105.624 17.2794 105.576 17.3274L104.137 21.4074C103.898 21.3114 103.658 21.2154 103.418 21.1194C103.178 21.0234 102.891 20.9754 102.555 20.9754C101.74 20.9754 101.069 21.2634 100.493 21.8394C99.9181 22.4154 99.6305 23.1834 99.6305 24.1434V32.6874C99.6305 32.7834 99.5825 32.8314 99.4866 32.8314H94.6921C94.6921 32.8314 94.5962 32.7834 94.5962 32.6874Z" fill="#004171"/>
<path d="M113.487 33.1196C110.993 33.1196 108.98 32.3996 107.541 30.9116C106.103 29.4236 105.384 27.4076 105.384 24.8636C105.384 23.1836 105.719 21.7436 106.343 20.4956C107.014 19.2476 107.925 18.2876 109.124 17.6156C110.322 16.9436 111.713 16.5596 113.343 16.5596C114.877 16.5596 116.219 16.8956 117.37 17.5196C118.521 18.1436 119.432 19.0556 120.103 20.3036C120.774 21.5036 121.11 22.9916 121.11 24.7676V25.8716C121.11 25.9676 121.062 26.0156 120.966 26.0156H110.466V26.1596C110.466 27.1196 110.754 27.9356 111.329 28.5116C111.904 29.0876 112.671 29.4236 113.63 29.4236C114.302 29.4236 114.877 29.2796 115.356 28.9916C115.836 28.7036 116.171 28.3676 116.363 27.8876C116.363 27.8396 116.459 27.7916 116.507 27.7916L120.87 27.9356C120.966 27.9356 121.062 28.0316 121.014 28.1276C120.678 29.6156 119.911 30.8156 118.617 31.7276C117.274 32.6876 115.548 33.1196 113.487 33.1196ZM110.37 23.0876H116.315C116.315 22.2716 116.028 21.5996 115.5 21.0716C114.973 20.5436 114.254 20.3036 113.439 20.3036C112.576 20.3036 111.904 20.5916 111.329 21.1196C110.706 21.5996 110.418 22.2716 110.37 23.0876Z" fill="#004171"/>
<path d="M123.698 32.6887V11.6167C123.698 11.5207 123.746 11.4727 123.842 11.4727H132.568C134.965 11.4727 136.787 11.9527 137.986 12.9607C139.232 13.9687 139.808 15.2647 139.808 16.8967C139.808 18.0967 139.424 19.1527 138.705 19.9687C137.938 20.7847 136.979 21.3127 135.828 21.5527V21.7447C136.691 21.7927 137.506 22.0327 138.226 22.4167C138.945 22.8487 139.568 23.4247 140 24.1927C140.431 24.9607 140.671 25.8247 140.671 26.8807C140.671 28.0327 140.383 29.0407 139.808 29.9527C139.232 30.8647 138.369 31.5847 137.267 32.0647C136.164 32.5927 134.822 32.8327 133.239 32.8327H123.794C123.746 32.8327 123.698 32.7847 123.698 32.6887ZM128.828 20.2567H131.705C132.568 20.2567 133.239 20.0647 133.767 19.6327C134.294 19.2007 134.582 18.6247 134.582 17.8567C134.582 17.1367 134.342 16.6087 133.815 16.1767C133.287 15.7447 132.616 15.5527 131.753 15.5527H128.828V20.2567ZM128.828 28.6567H132.041C133.143 28.6567 134.006 28.4647 134.534 28.0327C135.061 27.6007 135.349 27.0247 135.349 26.2567C135.349 25.4407 135.061 24.7687 134.486 24.2887C133.911 23.8087 133.143 23.5687 132.137 23.5687H128.828V28.6567Z" fill="#004171"/>
<path d="M147.431 33.1202C145.897 33.1202 144.65 32.7362 143.644 31.9682C142.637 31.2002 142.157 30.0002 142.157 28.4162C142.157 27.2162 142.445 26.3042 142.972 25.5842C143.5 24.8642 144.219 24.3842 145.13 24.0482C146.041 23.7122 147 23.5202 148.102 23.4242C149.493 23.3282 150.452 23.1362 151.027 22.9922C151.602 22.8002 151.89 22.4642 151.89 21.9842V21.9362C151.89 21.4082 151.698 20.9762 151.315 20.6882C150.931 20.4002 150.452 20.2562 149.828 20.2562C149.157 20.2562 148.63 20.4002 148.198 20.6882C147.815 20.9762 147.575 21.3122 147.431 21.7922C147.431 21.8402 147.335 21.8882 147.287 21.8882L142.876 21.7442C142.781 21.7442 142.685 21.6482 142.733 21.5522C142.972 20.1602 143.644 19.0082 144.794 18.0962C145.993 17.1362 147.671 16.6562 149.828 16.6562C151.171 16.6562 152.417 16.8482 153.472 17.2802C154.527 17.7122 155.39 18.2882 156.013 19.1042C156.637 19.9202 156.924 20.8802 156.924 21.9842V32.7362C156.924 32.8322 156.876 32.8802 156.781 32.8802H152.274C152.178 32.8802 152.13 32.8322 152.13 32.7362V30.6722H151.986C151.219 32.2562 149.637 33.1202 147.431 33.1202ZM149.013 29.7602C149.828 29.7602 150.5 29.5202 151.075 29.0402C151.65 28.5602 151.938 27.9362 151.938 27.1202V25.5842C151.65 25.7282 151.267 25.8722 150.739 25.9682C150.212 26.0642 149.733 26.1602 149.253 26.2082C147.767 26.4482 147 27.0722 147 28.0802C147 28.6082 147.191 28.9922 147.575 29.2802C147.959 29.6162 148.438 29.7602 149.013 29.7602Z" fill="#004171"/>
<path d="M162.15 39.0728C161.431 39.0728 160.856 39.0248 160.376 38.8808C159.945 38.7848 159.609 38.6888 159.322 38.5448C159.226 38.4968 159.226 38.4488 159.226 38.3528L160.28 34.7528C160.328 34.6568 160.376 34.6088 160.472 34.6568C161.143 34.8488 161.719 34.9448 162.198 34.8968C162.726 34.8008 163.109 34.5128 163.397 33.9368L163.589 33.4088L157.979 16.9928C157.931 16.8968 158.027 16.8008 158.123 16.8008H163.109C163.157 16.8008 163.253 16.8488 163.253 16.8968L166.178 28.2248H166.322L169.294 16.8968C169.294 16.8488 169.39 16.8008 169.438 16.8008H174.52C174.616 16.8008 174.712 16.8968 174.664 16.9928L168.671 34.4168C168.239 35.7128 167.472 36.8168 166.417 37.7288C165.363 38.6408 163.924 39.0728 162.15 39.0728Z" fill="#004171"/>
<path d="M15.4858 20.3994C15.4858 20.0634 15.1982 19.7754 14.8625 19.7754H0.239258C0.287203 19.8714 0.335148 19.9674 0.431039 20.0154L9.15707 28.7994C9.25296 28.8954 9.3009 28.9434 9.39679 28.9914C9.49268 29.0394 9.63652 29.0874 9.73241 29.0874H15.4379V20.3994" fill="#005D8D"/>
<path d="M28.6238 9.841C28.5759 9.745 28.528 9.649 28.4321 9.601L19.706 0.817C19.6101 0.721 19.5622 0.673 19.4663 0.625V9.601V15.313C19.4663 15.649 19.754 15.937 20.0896 15.937H28.7197V10.177C28.6718 10.081 28.6718 9.937 28.6238 9.841Z" fill="#42BA85"/>
<path d="M15.5822 0.384766H1.48634C1.10278 0.384766 0.719218 0.528766 0.479492 0.816766L9.30141 9.64877L9.49319 9.84077C9.58908 9.74477 9.73292 9.64877 9.9247 9.64877H15.1507H15.6302V0.384766" fill="#005D8D"/>
<path d="M0.719178 1.05543L0.431507 0.81543C0.143836 1.05543 0 1.43943 0 1.82343V15.9354H9.25343V15.5514V10.2234C9.25343 10.0314 9.30137 9.88743 9.44521 9.79143L0.719178 1.05543Z" fill="#00B2DD"/>
<path d="M47.37 28.7992L38.5961 20.0152C38.5002 19.9192 38.4522 19.8712 38.3563 19.8232V28.9912V31.1992V38.1112C38.3563 38.3032 38.3084 38.4473 38.1646 38.5433L47.1782 47.5673C47.4659 47.2793 47.6097 46.9433 47.6097 46.5113V29.4232C47.6097 29.1832 47.5139 28.9432 47.37 28.7992Z" fill="#42BA85"/>
<path d="M28.6704 38.7354V19.7754H20.0403C19.7047 19.7754 19.417 20.0634 19.417 20.3994V38.3994C19.417 38.5434 19.4649 38.6394 19.5129 38.7354H28.6704Z" fill="#42BA85"/>
<path d="M38.3555 19.8714C38.2596 19.8234 38.1157 19.7754 38.0198 19.7754H20.0404C19.8486 19.7754 19.7048 19.8234 19.6089 19.9674L28.6705 29.0394H38.3555V19.8714Z" fill="#00664C"/>
<path d="M0.719178 1.05543L0.431507 0.81543C0.143836 1.05543 0 1.43943 0 1.82343V15.9354H9.25343V15.5514V10.2234C9.25343 10.0314 9.30137 9.88743 9.44521 9.79143L0.719178 1.05543Z" fill="#00B2DD"/>
<path d="M47.37 28.7992L38.5961 20.0152C38.5002 19.9192 38.4522 19.8712 38.3563 19.8232V28.9912V31.1992V38.1112C38.3563 38.3032 38.3084 38.4472 38.1646 38.5432L47.1782 47.5672C47.4659 47.2792 47.6097 46.9432 47.6097 46.5112V29.4232C47.6097 29.1832 47.5139 28.9432 47.37 28.7992Z" fill="#42BA85"/>
<path d="M28.6704 38.7354V19.7754H20.0403C19.7047 19.7754 19.417 20.0634 19.417 20.3994V38.3994C19.417 38.5434 19.4649 38.6394 19.5129 38.7354H28.6704Z" fill="#42BA85"/>
<path d="M38.3555 19.8714C38.2596 19.8234 38.1157 19.7754 38.0198 19.7754H20.0404C19.8486 19.7754 19.7048 19.8234 19.6089 19.9674L28.6705 29.0394H38.3555V19.8714Z" fill="#00664C"/>
</svg>
