<svg width="197" height="54" viewBox="0 0 197 54" fill="none" xmlns="http://www.w3.org/2000/svg">
<path d="M43.1501 43.5782L42.9344 43.3622C42.8265 43.4702 42.6107 43.5782 42.4489 43.5782H21.9523C22.0063 43.6862 22.0602 43.7942 22.1681 43.8482L32.0388 53.7302C32.2006 53.8922 32.4703 54.0002 32.74 54.0002H51.996C52.4275 54.0002 52.859 53.8382 53.1287 53.5142L43.1501 43.5782Z" fill="#00664C"/>
<path d="M83.7128 21.6002H78.2111C78.1032 21.6002 78.0493 21.5462 78.0493 21.4382C77.8875 20.3042 77.4021 19.3862 76.6469 18.6842C75.8378 17.9822 74.7591 17.6042 73.4646 17.6042C71.7385 17.6042 70.3361 18.2522 69.3652 19.4942C68.3944 20.7902 67.855 22.5722 67.855 24.8402C67.855 27.2162 68.3404 29.0522 69.3652 30.2402C70.3901 31.4822 71.7385 32.0762 73.4646 32.0762C74.7591 32.0762 75.7839 31.7522 76.593 31.1042C77.4021 30.4562 77.8875 29.6462 78.1033 28.5122C78.1033 28.4042 78.2111 28.3502 78.2651 28.3502L83.7668 28.4042C83.8747 28.4042 83.9825 28.5122 83.9286 28.6202C83.8207 29.5922 83.4971 30.6182 83.0116 31.5902C82.5262 32.6162 81.825 33.5882 80.908 34.3982C79.9911 35.2622 78.9123 35.9102 77.6717 36.3962C76.3772 36.8822 74.9209 37.1522 73.3027 37.1522C71.1452 37.1522 69.2034 36.6662 67.4774 35.6942C65.7514 34.7222 64.4029 33.3182 63.432 31.4822C62.4611 29.6462 61.9218 27.3782 61.9218 24.7862C61.9218 22.1402 62.4072 19.8722 63.432 18.0362C64.4569 16.2002 65.8053 14.7962 67.5313 13.8242C69.2574 12.8522 71.1991 12.3662 73.3027 12.3662C75.2445 12.3662 76.9705 12.7442 78.5348 13.4462C80.045 14.1482 81.3395 15.1742 82.2565 16.5242C83.1735 17.8202 83.7668 19.3862 83.9825 21.2222C83.8746 21.4922 83.8207 21.6002 83.7128 21.6002Z" fill="#004171"/>
<path d="M97.5739 29.16V19.062C97.5739 18.954 97.6279 18.9 97.7357 18.9H103.13C103.237 18.9 103.291 18.954 103.291 19.062V36.774C103.291 36.882 103.237 36.936 103.13 36.936H98.0054C97.8976 36.936 97.8436 36.882 97.8436 36.774V33.588H97.6818C97.3042 34.668 96.603 35.586 95.6321 36.234C94.6613 36.882 93.5285 37.206 92.1801 37.206C90.9395 37.206 89.8607 36.936 88.9438 36.342C88.0268 35.802 87.2717 34.992 86.7862 33.966C86.2469 32.94 86.0311 31.752 85.9772 30.402V19.062C85.9772 18.954 86.0311 18.9 86.139 18.9H91.5328C91.6407 18.9 91.6946 18.954 91.6946 19.062V29.268C91.6946 30.24 91.9643 30.996 92.4498 31.59C92.9352 32.13 93.6364 32.454 94.4994 32.454C95.3625 32.454 96.0637 32.184 96.657 31.59C97.3042 30.996 97.5739 30.186 97.5739 29.16Z" fill="#004171"/>
<path d="M106.421 36.7738V19.0618C106.421 18.9538 106.475 18.8998 106.583 18.8998H111.815C111.923 18.8998 111.977 18.9538 111.977 19.0618V22.1938H112.138C112.462 21.0058 113.002 20.1418 113.757 19.5478C114.512 18.9538 115.375 18.6838 116.346 18.6838C116.831 18.6838 117.263 18.7378 117.694 18.8458C118.072 18.9538 118.395 19.0618 118.719 19.2778C118.773 19.3318 118.827 19.4398 118.773 19.4938L117.155 24.0838C116.885 23.9758 116.615 23.8678 116.346 23.7598C116.076 23.6518 115.752 23.5978 115.375 23.5978C114.458 23.5978 113.703 23.9218 113.055 24.5698C112.408 25.2178 112.085 26.0818 112.085 27.1618V36.7738C112.085 36.8818 112.031 36.9358 111.923 36.9358H106.529C106.529 36.9358 106.421 36.8818 106.421 36.7738Z" fill="#004171"/>
<path d="M127.672 37.2598C124.867 37.2598 122.602 36.4498 120.984 34.7758C119.366 33.1018 118.557 30.8338 118.557 27.9718C118.557 26.0818 118.934 24.4618 119.635 23.0578C120.391 21.6538 121.415 20.5738 122.764 19.8178C124.112 19.0618 125.676 18.6298 127.51 18.6298C129.236 18.6298 130.747 19.0078 132.041 19.7098C133.336 20.4118 134.361 21.4378 135.116 22.8418C135.871 24.1918 136.248 25.8658 136.248 27.8638V29.1058C136.248 29.2138 136.194 29.2678 136.087 29.2678H124.274V29.4298C124.274 30.5098 124.598 31.4278 125.245 32.0758C125.892 32.7238 126.755 33.1018 127.834 33.1018C128.589 33.1018 129.236 32.9398 129.776 32.6158C130.315 32.2918 130.693 31.9138 130.909 31.3738C130.909 31.3198 131.016 31.2658 131.07 31.2658L135.979 31.4278C136.087 31.4278 136.194 31.5358 136.141 31.6438C135.763 33.3178 134.9 34.6678 133.444 35.6938C131.933 36.7738 129.992 37.2598 127.672 37.2598ZM124.166 25.9738H130.855C130.855 25.0558 130.531 24.2998 129.938 23.7058C129.344 23.1118 128.535 22.8418 127.618 22.8418C126.647 22.8418 125.892 23.1658 125.245 23.7598C124.544 24.2998 124.22 25.0558 124.166 25.9738Z" fill="#004171"/>
<path d="M139.161 36.7746V13.0686C139.161 12.9606 139.215 12.9066 139.322 12.9066H149.139C151.836 12.9066 153.886 13.4466 155.234 14.5806C156.637 15.7146 157.284 17.1726 157.284 19.0086C157.284 20.3586 156.852 21.5466 156.043 22.4646C155.18 23.3826 154.102 23.9766 152.807 24.2466V24.4626C153.778 24.5166 154.695 24.7866 155.504 25.2186C156.313 25.7046 157.014 26.3526 157.5 27.2166C157.985 28.0806 158.255 29.0526 158.255 30.2406C158.255 31.5366 157.931 32.6706 157.284 33.6966C156.637 34.7226 155.666 35.5326 154.425 36.0726C153.185 36.6666 151.674 36.9366 149.894 36.9366H139.269C139.215 36.9366 139.161 36.8826 139.161 36.7746ZM144.932 22.7886H148.168C149.139 22.7886 149.894 22.5726 150.488 22.0866C151.081 21.6006 151.405 20.9526 151.405 20.0886C151.405 19.2786 151.135 18.6846 150.542 18.1986C149.948 17.7126 149.193 17.4966 148.222 17.4966H144.932V22.7886ZM144.932 32.2386H148.546C149.786 32.2386 150.757 32.0226 151.351 31.5366C151.944 31.0506 152.268 30.4026 152.268 29.5386C152.268 28.6206 151.944 27.8646 151.297 27.3246C150.65 26.7846 149.786 26.5146 148.654 26.5146H144.932V32.2386Z" fill="#004171"/>
<path d="M165.86 37.2597C164.134 37.2597 162.732 36.8277 161.599 35.9637C160.466 35.0997 159.927 33.7497 159.927 31.9677C159.927 30.6177 160.251 29.5917 160.844 28.7817C161.437 27.9717 162.246 27.4317 163.271 27.0537C164.296 26.6757 165.375 26.4597 166.615 26.3517C168.179 26.2437 169.258 26.0277 169.906 25.8657C170.553 25.6497 170.876 25.2717 170.876 24.7317V24.6777C170.876 24.0837 170.661 23.5977 170.229 23.2737C169.798 22.9497 169.258 22.7877 168.557 22.7877C167.802 22.7877 167.209 22.9497 166.723 23.2737C166.292 23.5977 166.022 23.9757 165.86 24.5157C165.86 24.5697 165.752 24.6237 165.698 24.6237L160.736 24.4617C160.628 24.4617 160.52 24.3537 160.574 24.2457C160.844 22.6797 161.599 21.3837 162.894 20.3577C164.242 19.2777 166.13 18.7377 168.557 18.7377C170.067 18.7377 171.47 18.9537 172.656 19.4397C173.843 19.9257 174.814 20.5737 175.515 21.4917C176.216 22.4097 176.54 23.4897 176.54 24.7317V36.8277C176.54 36.9357 176.486 36.9897 176.378 36.9897H171.308C171.2 36.9897 171.146 36.9357 171.146 36.8277V34.5057H170.984C170.121 36.2877 168.341 37.2597 165.86 37.2597ZM167.64 33.4797C168.557 33.4797 169.312 33.2097 169.959 32.6697C170.607 32.1297 170.93 31.4277 170.93 30.5097V28.7817C170.607 28.9437 170.175 29.1057 169.582 29.2137C168.989 29.3217 168.449 29.4297 167.91 29.4837C166.238 29.7537 165.375 30.4557 165.375 31.5897C165.375 32.1837 165.59 32.6157 166.022 32.9397C166.453 33.3177 166.993 33.4797 167.64 33.4797Z" fill="#004171"/>
<path d="M182.419 43.956C181.61 43.956 180.963 43.902 180.423 43.74C179.938 43.632 179.56 43.524 179.237 43.362C179.129 43.308 179.129 43.254 179.129 43.146L180.315 39.096C180.369 38.988 180.423 38.934 180.531 38.988C181.286 39.204 181.933 39.312 182.473 39.258C183.066 39.15 183.498 38.826 183.821 38.178L184.037 37.584L177.726 19.116C177.672 19.008 177.78 18.9 177.888 18.9H183.498C183.552 18.9 183.659 18.954 183.659 19.008L186.95 31.752H187.112L190.456 19.008C190.456 18.954 190.564 18.9 190.618 18.9H196.335C196.443 18.9 196.551 19.008 196.497 19.116L189.755 38.718C189.269 40.176 188.406 41.418 187.219 42.444C186.033 43.47 184.415 43.956 182.419 43.956Z" fill="#004171"/>
<path d="M17.4214 22.9494C17.4214 22.5714 17.0978 22.2474 16.7202 22.2474H0.269043C0.322981 22.3554 0.37692 22.4634 0.484796 22.5174L10.3016 32.3994C10.4095 32.5074 10.4634 32.5614 10.5713 32.6154C10.6791 32.6694 10.841 32.7234 10.9488 32.7234H17.3675V22.9494" fill="#005D8D"/>
<path d="M32.2017 11.0706C32.1478 10.9626 32.0938 10.8546 31.9859 10.8006L22.1692 0.918576C22.0613 0.810576 22.0074 0.756576 21.8995 0.702576V10.8006V17.2266C21.8995 17.6046 22.2231 17.9286 22.6007 17.9286H32.3096V11.4486C32.2556 11.3406 32.2556 11.1786 32.2017 11.0706Z" fill="#42BA85"/>
<path d="M17.5299 0.432434H1.67201C1.24051 0.432434 0.808998 0.594434 0.539307 0.918434L10.464 10.8544L10.6797 11.0704C10.7876 10.9624 10.9494 10.8544 11.1652 10.8544H17.0444H17.5838V0.432434" fill="#005D8D"/>
<path d="M0.809075 1.1876L0.485445 0.917603C0.161815 1.1876 0 1.6196 0 2.0516V17.9276H10.4101V17.4956V11.5016C10.4101 11.2856 10.464 11.1236 10.6259 11.0156L0.809075 1.1876Z" fill="#00B2DD"/>
<path d="M53.2913 32.3994L43.4206 22.5174C43.3127 22.4094 43.2588 22.3554 43.1509 22.3014V32.6154V35.0994V42.8754C43.1509 43.0914 43.097 43.2534 42.9352 43.3614L53.0756 53.5134C53.3992 53.1894 53.561 52.8114 53.561 52.3254V33.1014C53.561 32.8314 53.4532 32.5614 53.2913 32.3994Z" fill="#42BA85"/>
<path d="M32.2542 43.5774V22.2474H22.5453C22.1677 22.2474 21.8441 22.5714 21.8441 22.9494V43.1994C21.8441 43.3614 21.898 43.4694 21.9519 43.5774H32.2542Z" fill="#42BA85"/>
<path d="M43.1497 22.3554C43.0418 22.3014 42.88 22.2474 42.7721 22.2474H22.5453C22.3295 22.2474 22.1677 22.3014 22.0598 22.4634L32.2542 32.6694H43.1497V22.3554Z" fill="#00664C"/>
<path d="M0.809075 1.18754L0.485445 0.917542C0.161815 1.18754 0 1.61954 0 2.05154V17.9275H10.4101V17.4955V11.5015C10.4101 11.2855 10.464 11.1235 10.6259 11.0155L0.809075 1.18754Z" fill="#00B2DD"/>
<path d="M53.2913 32.3993L43.4206 22.5173C43.3127 22.4093 43.2588 22.3553 43.1509 22.3013V32.6153V35.0993V42.8753C43.1509 43.0913 43.097 43.2533 42.9352 43.3613L53.0756 53.5133C53.3992 53.1893 53.561 52.8113 53.561 52.3253V33.1013C53.561 32.8313 53.4532 32.5613 53.2913 32.3993Z" fill="#42BA85"/>
<path d="M32.2542 43.5774V22.2474H22.5453C22.1677 22.2474 21.8441 22.5714 21.8441 22.9494V43.1994C21.8441 43.3614 21.898 43.4694 21.9519 43.5774H32.2542Z" fill="#42BA85"/>
<path d="M43.1497 22.3554C43.0418 22.3014 42.88 22.2474 42.7721 22.2474H22.5453C22.3295 22.2474 22.1677 22.3014 22.0598 22.4634L32.2542 32.6694H43.1497V22.3554Z" fill="#00664C"/>
</svg>
