<svg width="175" height="48" viewBox="0 0 175 48" fill="none" xmlns="http://www.w3.org/2000/svg">
<g clip-path="url(#clip0)">
<path d="M38.3557 38.7362L38.1639 38.5442C38.068 38.6402 37.8762 38.7362 37.7324 38.7362H19.5132C19.5611 38.8322 19.6091 38.9282 19.705 38.9762L28.4789 47.7602C28.6228 47.9042 28.8625 48.0002 29.1022 48.0002H46.2187C46.6022 48.0002 46.9858 47.8562 47.2255 47.5682L38.3557 38.7362Z" fill="#00664C"/>
<path d="M74.4114 19.2002H69.521C69.4251 19.2002 69.3772 19.1522 69.3772 19.0562C69.2333 18.0482 68.8018 17.2322 68.1306 16.6082C67.4114 15.9842 66.4525 15.6482 65.3018 15.6482C63.7676 15.6482 62.521 16.2242 61.658 17.3282C60.795 18.4802 60.3155 20.0642 60.3155 22.0802C60.3155 24.1922 60.747 25.8242 61.658 26.8802C62.569 27.9842 63.7676 28.5122 65.3018 28.5122C66.4525 28.5122 67.3635 28.2242 68.0827 27.6482C68.8018 27.0722 69.2333 26.3522 69.4251 25.3442C69.4251 25.2482 69.521 25.2002 69.569 25.2002L74.4594 25.2482C74.5553 25.2482 74.6511 25.3442 74.6032 25.4402C74.5073 26.3042 74.2196 27.2162 73.7881 28.0802C73.3566 28.9922 72.7333 29.8562 71.9183 30.5762C71.1032 31.3442 70.1443 31.9202 69.0416 32.3522C67.8909 32.7842 66.5963 33.0242 65.158 33.0242C63.2402 33.0242 61.5142 32.5922 59.9799 31.7282C58.4457 30.8642 57.247 29.6162 56.384 27.9842C55.521 26.3522 55.0416 24.3362 55.0416 22.0322C55.0416 19.6802 55.4731 17.6642 56.384 16.0322C57.295 14.4002 58.4936 13.1522 60.0279 12.2882C61.5621 11.4242 63.2881 10.9922 65.158 10.9922C66.884 10.9922 68.4183 11.3282 69.8087 11.9522C71.1511 12.5762 72.3018 13.4882 73.1169 14.6882C73.932 15.8402 74.4594 17.2322 74.6511 18.8642C74.5552 19.1042 74.5073 19.2002 74.4114 19.2002Z" fill="#004171"/>
<path d="M86.7324 25.92V16.944C86.7324 16.848 86.7803 16.8 86.8762 16.8H91.6707C91.7666 16.8 91.8146 16.848 91.8146 16.944V32.688C91.8146 32.784 91.7666 32.832 91.6707 32.832H87.1159C87.02 32.832 86.9721 32.784 86.9721 32.688V29.856H86.8283C86.4926 30.816 85.8693 31.632 85.0063 32.208C84.1433 32.784 83.1365 33.072 81.9378 33.072C80.8351 33.072 79.8762 32.832 79.0611 32.304C78.2461 31.824 77.5748 31.104 77.1433 30.192C76.6639 29.28 76.4721 28.224 76.4241 27.024V16.944C76.4241 16.848 76.4721 16.8 76.568 16.8H81.3625C81.4584 16.8 81.5063 16.848 81.5063 16.944V26.016C81.5063 26.88 81.7461 27.552 82.1776 28.08C82.6091 28.56 83.2324 28.848 83.9995 28.848C84.7666 28.848 85.3899 28.608 85.9173 28.08C86.4926 27.552 86.7324 26.832 86.7324 25.92Z" fill="#004171"/>
<path d="M94.5964 32.6878V16.9438C94.5964 16.8478 94.6444 16.7998 94.7403 16.7998H99.391C99.4869 16.7998 99.5348 16.8478 99.5348 16.9438V19.7278H99.6786C99.9663 18.6718 100.446 17.9038 101.117 17.3758C101.788 16.8478 102.555 16.6078 103.418 16.6078C103.85 16.6078 104.233 16.6558 104.617 16.7518C104.953 16.8478 105.24 16.9438 105.528 17.1358C105.576 17.1838 105.624 17.2798 105.576 17.3278L104.138 21.4078C103.898 21.3118 103.658 21.2158 103.418 21.1198C103.179 21.0238 102.891 20.9758 102.555 20.9758C101.74 20.9758 101.069 21.2638 100.494 21.8398C99.9184 22.4158 99.6307 23.1838 99.6307 24.1438V32.6878C99.6307 32.7838 99.5828 32.8318 99.4869 32.8318H94.6923C94.6923 32.8318 94.5964 32.7838 94.5964 32.6878Z" fill="#004171"/>
<path d="M113.486 33.1198C110.993 33.1198 108.98 32.3998 107.541 30.9118C106.103 29.4238 105.384 27.4078 105.384 24.8638C105.384 23.1838 105.719 21.7438 106.343 20.4958C107.014 19.2478 107.925 18.2878 109.123 17.6158C110.322 16.9438 111.712 16.5598 113.343 16.5598C114.877 16.5598 116.219 16.8958 117.37 17.5198C118.521 18.1438 119.432 19.0558 120.103 20.3038C120.774 21.5038 121.11 22.9918 121.11 24.7678V25.8718C121.11 25.9678 121.062 26.0158 120.966 26.0158H110.466V26.1598C110.466 27.1198 110.754 27.9358 111.329 28.5118C111.904 29.0878 112.671 29.4238 113.63 29.4238C114.301 29.4238 114.877 29.2798 115.356 28.9918C115.836 28.7038 116.171 28.3678 116.363 27.8878C116.363 27.8398 116.459 27.7918 116.507 27.7918L120.87 27.9358C120.966 27.9358 121.062 28.0318 121.014 28.1278C120.678 29.6158 119.911 30.8158 118.617 31.7278C117.274 32.6878 115.548 33.1198 113.486 33.1198ZM110.37 23.0878H116.315C116.315 22.2718 116.027 21.5998 115.5 21.0718C114.973 20.5438 114.254 20.3038 113.438 20.3038C112.575 20.3038 111.904 20.5918 111.329 21.1198C110.706 21.5998 110.418 22.2718 110.37 23.0878Z" fill="#004171"/>
<path d="M123.698 32.6884V11.6164C123.698 11.5204 123.746 11.4724 123.842 11.4724H132.568C134.965 11.4724 136.787 11.9524 137.986 12.9604C139.233 13.9684 139.808 15.2644 139.808 16.8964C139.808 18.0964 139.424 19.1524 138.705 19.9684C137.938 20.7844 136.979 21.3124 135.828 21.5524V21.7444C136.691 21.7924 137.507 22.0324 138.226 22.4164C138.945 22.8484 139.568 23.4244 140 24.1924C140.431 24.9604 140.671 25.8244 140.671 26.8804C140.671 28.0324 140.383 29.0404 139.808 29.9524C139.233 30.8644 138.37 31.5844 137.267 32.0644C136.164 32.5924 134.822 32.8324 133.239 32.8324H123.794C123.746 32.8324 123.698 32.7844 123.698 32.6884ZM128.829 20.2564H131.705C132.568 20.2564 133.239 20.0644 133.767 19.6324C134.294 19.2004 134.582 18.6244 134.582 17.8564C134.582 17.1364 134.342 16.6084 133.815 16.1764C133.287 15.7444 132.616 15.5524 131.753 15.5524H128.829V20.2564ZM128.829 28.6564H132.041C133.144 28.6564 134.007 28.4644 134.534 28.0324C135.061 27.6004 135.349 27.0244 135.349 26.2564C135.349 25.4404 135.061 24.7684 134.486 24.2884C133.911 23.8084 133.144 23.5684 132.137 23.5684H128.829V28.6564Z" fill="#004171"/>
<path d="M147.431 33.1198C145.897 33.1198 144.65 32.7358 143.644 31.9678C142.637 31.1998 142.157 29.9998 142.157 28.4158C142.157 27.2158 142.445 26.3038 142.972 25.5838C143.5 24.8638 144.219 24.3838 145.13 24.0478C146.041 23.7118 147 23.5198 148.102 23.4238C149.493 23.3278 150.452 23.1358 151.027 22.9918C151.602 22.7998 151.89 22.4638 151.89 21.9838V21.9358C151.89 21.4078 151.698 20.9758 151.315 20.6878C150.931 20.3998 150.452 20.2558 149.829 20.2558C149.157 20.2558 148.63 20.3998 148.198 20.6878C147.815 20.9758 147.575 21.3118 147.431 21.7918C147.431 21.8398 147.335 21.8878 147.287 21.8878L142.876 21.7438C142.781 21.7438 142.685 21.6478 142.733 21.5518C142.972 20.1598 143.644 19.0078 144.794 18.0958C145.993 17.1358 147.671 16.6558 149.829 16.6558C151.171 16.6558 152.418 16.8478 153.472 17.2798C154.527 17.7118 155.39 18.2878 156.013 19.1038C156.637 19.9198 156.924 20.8798 156.924 21.9838V32.7358C156.924 32.8318 156.876 32.8798 156.781 32.8798H152.274C152.178 32.8798 152.13 32.8318 152.13 32.7358V30.6718H151.986C151.219 32.2558 149.637 33.1198 147.431 33.1198ZM149.013 29.7598C149.829 29.7598 150.5 29.5198 151.075 29.0398C151.65 28.5598 151.938 27.9358 151.938 27.1198V25.5838C151.65 25.7278 151.267 25.8718 150.739 25.9678C150.212 26.0638 149.733 26.1598 149.253 26.2078C147.767 26.4478 147 27.0718 147 28.0798C147 28.6078 147.192 28.9918 147.575 29.2798C147.959 29.6158 148.438 29.7598 149.013 29.7598Z" fill="#004171"/>
<path d="M162.15 39.072C161.431 39.072 160.856 39.024 160.376 38.88C159.945 38.784 159.609 38.688 159.321 38.544C159.225 38.496 159.225 38.448 159.225 38.352L160.28 34.752C160.328 34.656 160.376 34.608 160.472 34.656C161.143 34.848 161.719 34.944 162.198 34.896C162.725 34.8 163.109 34.512 163.397 33.936L163.588 33.408L157.979 16.992C157.931 16.896 158.027 16.8 158.123 16.8H163.109C163.157 16.8 163.253 16.848 163.253 16.896L166.178 28.224H166.321L169.294 16.896C169.294 16.848 169.39 16.8 169.438 16.8H174.52C174.616 16.8 174.712 16.896 174.664 16.992L168.671 34.416C168.239 35.712 167.472 36.816 166.417 37.728C165.362 38.64 163.924 39.072 162.15 39.072Z" fill="#004171"/>
<path d="M15.4857 20.3995C15.4857 20.0635 15.198 19.7755 14.8624 19.7755H0.239136C0.287081 19.8715 0.335026 19.9675 0.430917 20.0155L9.15694 28.7995C9.25283 28.8955 9.30078 28.9435 9.39667 28.9915C9.49256 29.0395 9.6364 29.0875 9.73229 29.0875H15.4378V20.3995" fill="#005D8D"/>
<path d="M28.6237 9.84051C28.5758 9.74451 28.5278 9.64851 28.4319 9.60051L19.7059 0.816512C19.61 0.720512 19.5621 0.672512 19.4662 0.624512V9.60051V15.3125C19.4662 15.6485 19.7539 15.9365 20.0895 15.9365H28.7196V10.1765C28.6717 10.0805 28.6717 9.93651 28.6237 9.84051Z" fill="#42BA85"/>
<path d="M15.5821 0.384399H1.48622C1.10266 0.384399 0.719096 0.528399 0.47937 0.816399L9.30129 9.6484L9.49307 9.8404C9.58896 9.7444 9.7328 9.6484 9.92458 9.6484H15.1506H15.6301V0.384399" fill="#005D8D"/>
<path d="M0.719178 1.05567L0.431507 0.815674C0.143836 1.05567 0 1.43967 0 1.82367V15.9357H9.25343V15.5517V10.2237C9.25343 10.0317 9.30137 9.88768 9.44521 9.79168L0.719178 1.05567Z" fill="#00B2DD"/>
<path d="M47.3701 28.7995L38.5961 20.0155C38.5002 19.9195 38.4523 19.8715 38.3564 19.8235V28.9915V31.1995V38.1115C38.3564 38.3035 38.3084 38.4475 38.1646 38.5435L47.1783 47.5675C47.466 47.2795 47.6098 46.9435 47.6098 46.5115V29.4235C47.6098 29.1835 47.5139 28.9435 47.3701 28.7995Z" fill="#42BA85"/>
<path d="M28.6704 38.7355V19.7755H20.0402C19.7046 19.7755 19.4169 20.0635 19.4169 20.3995V38.3995C19.4169 38.5435 19.4649 38.6395 19.5128 38.7355H28.6704Z" fill="#42BA85"/>
<path d="M38.3553 19.8715C38.2594 19.8235 38.1156 19.7755 38.0197 19.7755H20.0402C19.8484 19.7755 19.7046 19.8235 19.6087 19.9675L28.6703 29.0395H38.3553V19.8715Z" fill="#00664C"/>
<path d="M0.719178 1.05567L0.431507 0.815674C0.143836 1.05567 0 1.43967 0 1.82367V15.9357H9.25343V15.5517V10.2237C9.25343 10.0317 9.30137 9.88767 9.44521 9.79167L0.719178 1.05567Z" fill="#00B2DD"/>
<path d="M47.3701 28.7995L38.5961 20.0155C38.5002 19.9195 38.4523 19.8715 38.3564 19.8235V28.9915V31.1995V38.1115C38.3564 38.3035 38.3084 38.4475 38.1646 38.5435L47.1783 47.5675C47.466 47.2795 47.6098 46.9435 47.6098 46.5115V29.4235C47.6098 29.1835 47.5139 28.9435 47.3701 28.7995Z" fill="#42BA85"/>
<path d="M28.6704 38.7355V19.7755H20.0402C19.7046 19.7755 19.4169 20.0635 19.4169 20.3995V38.3995C19.4169 38.5435 19.4649 38.6395 19.5128 38.7355H28.6704Z" fill="#42BA85"/>
<path d="M38.3553 19.8715C38.2594 19.8235 38.1156 19.7755 38.0197 19.7755H20.0402C19.8484 19.7755 19.7046 19.8235 19.6087 19.9675L28.6703 29.0395H38.3553V19.8715Z" fill="#00664C"/>
</g>
<defs>
<clipPath id="clip0">
<rect width="175" height="48" fill="white"/>
</clipPath>
</defs>
</svg>
