<svg width="98" height="98" viewBox="0 0 98 98" fill="none" xmlns="http://www.w3.org/2000/svg">
<path fill-rule="evenodd" clip-rule="evenodd" d="M34.7084 14.2916C34.7084 12.6672 35.3537 11.1093 36.5023 9.9606C37.651 8.81194 39.2089 8.16663 40.8334 8.16663H57.1667C58.7912 8.16663 60.3491 8.81194 61.4977 9.9606C62.6464 11.1093 63.2917 12.6672 63.2917 14.2916H69.4167C71.0412 14.2916 72.5991 14.9369 73.7477 16.0856C74.8964 17.2343 75.5417 18.7922 75.5417 20.4166V51.0416H71.4584V20.4166C71.4584 19.8751 71.2433 19.3558 70.8604 18.9729C70.4775 18.5901 69.9582 18.375 69.4167 18.375H63.2917C63.2917 19.9994 62.6464 21.5573 61.4977 22.706C60.3491 23.8546 58.7912 24.5 57.1667 24.5H40.8334C39.2089 24.5 37.651 23.8546 36.5023 22.706C35.3537 21.5573 34.7084 19.9994 34.7084 18.375H28.5834C28.0419 18.375 27.5226 18.5901 27.1397 18.9729C26.7568 19.3558 26.5417 19.8751 26.5417 20.4166V77.5833C26.5417 78.1248 26.7568 78.6441 27.1397 79.027C27.5226 79.4099 28.0419 79.625 28.5834 79.625H53.0834V83.7083H28.5834C26.9589 83.7083 25.401 83.063 24.2523 81.9143C23.1037 80.7657 22.4584 79.2077 22.4584 77.5833V20.4166C22.4584 18.7922 23.1037 17.2343 24.2523 16.0856C25.401 14.9369 26.9589 14.2916 28.5834 14.2916H34.7084ZM40.8334 12.25C40.2919 12.25 39.7726 12.4651 39.3897 12.8479C39.0068 13.2308 38.7917 13.7501 38.7917 14.2916V18.375C38.7917 18.9164 39.0068 19.4357 39.3897 19.8186C39.7726 20.2015 40.2919 20.4166 40.8334 20.4166H57.1667C57.7082 20.4166 58.2275 20.2015 58.6104 19.8186C58.9933 19.4357 59.2084 18.9164 59.2084 18.375V14.2916C59.2084 13.7501 58.9933 13.2308 58.6104 12.8479C58.2275 12.4651 57.7082 12.25 57.1667 12.25H40.8334ZM46.9584 32.6666V38.7916H40.8334V42.875H46.9584V49H51.0417V42.875H57.1667V38.7916H51.0417V32.6666H46.9584ZM57.1667 55.125C56.6252 55.125 56.1059 55.3401 55.723 55.7229C55.3401 56.1058 55.125 56.6251 55.125 57.1666V71.0275C55.1251 73.3802 55.706 75.6964 56.8162 77.7707C57.9263 79.845 59.5314 81.6131 61.4889 82.9182L68.2836 87.4507C68.6191 87.6745 69.0134 87.794 69.4167 87.794C69.82 87.794 70.2143 87.6745 70.5498 87.4507L77.3445 82.9182C79.3017 81.6133 80.9066 79.8455 82.0168 77.7716C83.1269 75.6977 83.7079 73.3819 83.7084 71.0295V57.1666C83.7084 56.6251 83.4933 56.1058 83.1104 55.7229C82.7275 55.3401 82.2082 55.125 81.6667 55.125H57.1667ZM76.9852 66.7767L68.8185 74.9434C68.4356 75.3262 67.9164 75.5412 67.375 75.5412C66.8337 75.5412 66.3145 75.3262 65.9316 74.9434L61.8482 70.8601L64.7352 67.9732L67.375 70.613L74.0983 63.8898L76.9852 66.7767Z" fill="#18406D"/>
</svg>
