<svg width="24" height="24" viewBox="0 0 24 24" fill="none" xmlns="http://www.w3.org/2000/svg">
<path d="M6.25 5H8.25C8.38261 5 8.50979 4.94732 8.60356 4.85355C8.69732 4.75978 8.75 4.63261 8.75 4.5C8.75 4.36739 8.69732 4.24021 8.60356 4.14645C8.50979 4.05268 8.38261 4 8.25 4H6.25C6.11739 4 5.99022 4.05268 5.89645 4.14645C5.80268 4.24021 5.75 4.36739 5.75 4.5C5.75 4.63261 5.80268 4.75978 5.89645 4.85355C5.99022 4.94732 6.11739 5 6.25 5Z" fill="#005D8D"/>
<path d="M6.25 8H8.25C8.38261 8 8.50979 7.94732 8.60356 7.85355C8.69732 7.75979 8.75 7.63261 8.75 7.5C8.75 7.36739 8.69732 7.24022 8.60356 7.14645C8.50979 7.05268 8.38261 7 8.25 7H6.25C6.11739 7 5.99022 7.05268 5.89645 7.14645C5.80268 7.24022 5.75 7.36739 5.75 7.5C5.75 7.63261 5.80268 7.75979 5.89645 7.85355C5.99022 7.94732 6.11739 8 6.25 8Z" fill="#005D8D"/>
<path d="M8.25 11C8.38261 11 8.50979 10.9473 8.60356 10.8536C8.69732 10.7598 8.75 10.6326 8.75 10.5C8.75 10.3674 8.69732 10.2402 8.60356 10.1464C8.50979 10.0527 8.38261 10 8.25 10H6.25C6.11739 10 5.99022 10.0527 5.89645 10.1464C5.80268 10.2402 5.75 10.3674 5.75 10.5C5.75 10.6326 5.80268 10.7598 5.89645 10.8536C5.99022 10.9473 6.11739 11 6.25 11H8.25Z" fill="#005D8D"/>
<path d="M12.75 15.05V4.5C12.75 4.36739 12.6973 4.24021 12.6036 4.14645C12.5098 4.05268 12.3826 4 12.25 4C12.1174 4 11.9902 4.05268 11.8965 4.14645C11.8027 4.24021 11.75 4.36739 11.75 4.5V15.05C11.143 15.1739 10.6036 15.5188 10.2364 16.0178C9.86922 16.5168 9.7004 17.1344 9.76267 17.7508C9.82493 18.3672 10.1139 18.9385 10.5734 19.354C11.033 19.7694 11.6305 19.9995 12.25 19.9995C12.8695 19.9995 13.467 19.7694 13.9266 19.354C14.3862 18.9385 14.6751 18.3672 14.7373 17.7508C14.7996 17.1344 14.6308 16.5168 14.2636 16.0178C13.8964 15.5188 13.357 15.1739 12.75 15.05ZM12.25 19C11.9533 19 11.6633 18.912 11.4167 18.7472C11.17 18.5824 10.9777 18.3481 10.8642 18.074C10.7507 17.7999 10.7209 17.4983 10.7788 17.2074C10.8367 16.9164 10.9796 16.6491 11.1893 16.4393C11.3991 16.2296 11.6664 16.0867 11.9574 16.0288C12.2483 15.9709 12.5499 16.0006 12.824 16.1142C13.0981 16.2277 13.3324 16.42 13.4972 16.6666C13.662 16.9133 13.75 17.2033 13.75 17.5C13.75 17.8978 13.592 18.2794 13.3107 18.5607C13.0294 18.842 12.6478 19 12.25 19Z" fill="#005D8D"/>
<path d="M14.75 11.55V3.55005C14.75 2.88701 14.4866 2.25112 14.0178 1.78228C13.5489 1.31344 12.9131 1.05005 12.25 1.05005C11.587 1.05005 10.9511 1.31344 10.4822 1.78228C10.0134 2.25112 9.75001 2.88701 9.75001 3.55005V11.6C8.50547 12.1705 7.49343 13.1494 6.88189 14.3742C6.27034 15.5991 6.09607 16.9963 6.38801 18.3338C6.67994 19.6714 7.42051 20.8689 8.4868 21.7275C9.55309 22.5862 10.881 23.0544 12.25 23.0544C13.6191 23.0544 14.9469 22.5862 16.0132 21.7275C17.0795 20.8689 17.8201 19.6714 18.112 18.3338C18.4039 16.9963 18.2297 15.5991 17.6181 14.3742C17.0066 13.1494 15.9946 12.1705 14.75 11.6V11.55ZM12.25 22C11.0877 21.9959 9.96323 21.587 9.06978 20.8437C8.17632 20.1003 7.56975 19.0689 7.35435 17.9267C7.13894 16.7846 7.32815 15.6031 7.88946 14.5854C8.45076 13.5676 9.34909 12.7772 10.43 12.35C10.524 12.3123 10.6046 12.2475 10.6616 12.1638C10.7186 12.0801 10.7494 11.9813 10.75 11.88V3.50005C10.75 3.10222 10.908 2.72069 11.1893 2.43939C11.4707 2.15808 11.8522 2.00005 12.25 2.00005C12.6478 2.00005 13.0294 2.15808 13.3107 2.43939C13.592 2.72069 13.75 3.10222 13.75 3.50005V11.88C13.7507 11.9813 13.7814 12.0801 13.8384 12.1638C13.8954 12.2475 13.976 12.3123 14.07 12.35C15.1509 12.7772 16.0493 13.5676 16.6106 14.5854C17.1719 15.6031 17.3611 16.7846 17.1457 17.9267C16.9303 19.0689 16.3237 20.1003 15.4302 20.8437C14.5368 21.587 13.4123 21.9959 12.25 22Z" fill="#005D8D"/>
</svg>
