<svg width="69" height="65" viewBox="0 0 69 65" fill="none" xmlns="http://www.w3.org/2000/svg">
<path d="M55.0735 1.25006C50.7904 1.25006 48.2243 3.29418 45.4927 5.03682C42.761 3.29418 40.1949 1.25006 35.9118 1.25006C29.0221 1.25006 23.4338 6.97432 23.4338 14.0368C23.4338 21.8824 29.4302 25.6508 29.4302 37.739C29.4302 51.5662 33.8235 56.3934 36.8235 56.3934C43.5552 56.3934 39.2831 38.4596 45.4927 38.4596C51.7022 38.4596 47.4302 56.3971 54.1618 56.3971C57.1618 56.3971 61.5551 51.5699 61.5551 37.7427C61.5551 25.6508 67.5515 21.8861 67.5515 14.0405C67.5515 6.97432 61.9632 1.25006 55.0735 1.25006Z" fill="white"/>
<path d="M41.0179 27.7721C41.0179 27.7721 39.8487 27.6434 37.9554 27.1986C37.9554 27.1986 32.4774 26.5993 26.0693 23.4817C27.6796 27.1103 29.4296 31.2133 29.4296 37.7427C29.4296 46.9559 31.3818 52.1692 33.5693 54.625C38.3524 48.239 41.198 40.239 41.198 31.5552C41.2017 30.2795 41.1392 29.0148 41.0179 27.7721Z" fill="#BCEBFF"/>
<path d="M40.1434 53.5956C39.5 55.2758 38.5037 56.3971 36.8235 56.3971C33.8235 56.3971 29.4302 51.5699 29.4302 37.7427C29.4302 25.6508 23.4338 21.8861 23.4338 14.0405C23.4338 6.97432 29.0221 1.25006 35.9118 1.25006C43.3713 1.25006 45.625 7.45962 52.6177 7.45962" stroke="#30446D" strokeWidth="2" stroke-linecap="round" stroke-linejoin="round"/>
<path d="M48.4007 3.18388C50.2462 2.10668 52.2977 1.25006 55.0698 1.25006C61.9632 1.25006 67.5514 6.97432 67.5514 14.0368C67.5514 21.8824 61.5551 25.6508 61.5551 37.739C61.5551 51.5662 57.1617 56.3934 54.1617 56.3934C47.4301 56.3934 51.7021 38.4596 45.4926 38.4596C41.7095 38.4596 41.8161 45.114 40.9558 50.3162" stroke="#30446D" strokeWidth="2" stroke-linecap="round" stroke-linejoin="round"/>
<path d="M19.7569 63.75C30.7458 57.2095 38.1392 44.9853 38.1392 30.9816C38.1392 29.7059 38.0767 28.4412 37.9554 27.1985C37.9554 27.1985 28.3892 26.1544 19.7569 19.6323C11.1245 26.1544 1.55834 27.1985 1.55834 27.1985C1.43701 28.4412 1.37451 29.7059 1.37451 30.9816C1.37451 44.9853 8.76789 57.2095 19.7569 63.75Z" fill="white"/>
<path d="M37.121 39.8529C37.7865 37.0073 38.1394 34.0367 38.1394 30.9816C38.1394 29.7059 38.0769 28.4412 37.9556 27.1985C37.9556 27.1985 28.3894 26.1544 19.7571 19.6323V39.8529H37.121Z" fill="#BCEBFF"/>
<path d="M2.39258 39.853C4.77493 50.0478 11.1683 58.6361 19.7565 63.75V39.853H2.39258Z" fill="#BCEBFF"/>
<path d="M19.7578 19.6323V53.8603" stroke="#30446D" strokeWidth="2" stroke-linecap="round" stroke-linejoin="round"/>
<path d="M26.5617 39.8529H2.39258" stroke="#30446D" strokeWidth="2" stroke-linecap="round" stroke-linejoin="round"/>
<path d="M37.1205 39.8529H33.6353" stroke="#30446D" strokeWidth="2" stroke-linecap="round" stroke-linejoin="round"/>
<path d="M14.1541 59.6545C15.8893 61.1912 17.7643 62.5662 19.757 63.7501V63.7501C30.746 57.2096 38.1393 44.9854 38.1393 30.9817C38.1393 29.706 38.0768 28.4412 37.9555 27.1986C37.9555 27.1986 36.3452 27.0221 33.8489 26.364" stroke="#30446D" strokeWidth="2" stroke-linecap="round" stroke-linejoin="round"/>
<path d="M28.948 24.75C26.0877 23.614 22.8635 21.9779 19.7569 19.6323C11.1245 26.1544 1.55834 27.1985 1.55834 27.1985C1.43701 28.4412 1.37451 29.7059 1.37451 30.9816C1.37451 38.5037 3.50686 45.5147 7.18701 51.4044" stroke="#30446D" strokeWidth="2" stroke-linecap="round" stroke-linejoin="round"/>
</svg>
