<svg xmlns="http://www.w3.org/2000/svg" width="80" height="80" fill="none" viewBox="0 0 80 80">
    <path fill="#fff" d="M33.043 51.4l-4.27 4.288 2.347 2.337 4.25-4.27"/>
    <path fill="#fff" fill-rule="evenodd" d="M28.109 38.053c0-11.331 9.186-20.518 20.517-20.518s20.518 9.186 20.518 20.518c0 11.33-9.187 20.517-20.518 20.517-11.33 0-20.517-9.186-20.517-20.517zm3.971 0c0 9.137 7.41 16.547 16.547 16.547 9.14 0 16.546-7.41 16.546-16.547s-7.41-16.547-16.546-16.547c-9.137 0-16.547 7.41-16.547 16.547z" clip-rule="evenodd"/>
    <path fill="#BCEBFF" d="M33.39 55.741l1.98-1.986-2.327-2.356-1.999 2.006c.718.84 1.503 1.621 2.346 2.336z"/>
    <path fill="#42BA85" d="M53.008 54.037c-.073-2.913.208-6.007.486-9.061.593-6.523 1.208-13.27-1.962-16.44-3.038-3.039-9.736-2.456-16.216-1.894-7.634.662-15.53 1.347-20.183-3.306-.86-.86-.86-2.257 0-3.12.86-.86 2.257-.86 3.12 0 3.2 3.2 10.054 2.604 16.683 2.028 7.485-.648 15.226-1.324 19.717 3.17 4.63 4.63 3.921 12.424 3.236 19.959-.205 2.26-.414 4.55-.467 6.708"/>
    <path stroke="#30446D" stroke-linecap="round" stroke-linejoin="round" strokeWidth="1.324" d="M53.974 38.751c.136-4.262-.278-8.061-2.435-10.209-3.045-3.031-9.743-2.436-16.22-1.86-7.634.679-15.527 1.38-20.19-3.263-.863-.86-.867-2.257-.006-3.12.86-.864 2.257-.867 3.12-.007 3.207 3.193 10.06 2.584 16.686 1.995 7.486-.665 15.223-1.353 19.724 3.128 4.64 4.62 3.948 12.416 3.28 19.952-.203 2.263-.405 4.55-.454 6.708"/>
    <path fill="#BCEBFF" d="M62.644 46.889c-2.157.056-4.444.268-6.708.48-7.535.701-15.325 1.426-19.965-3.194-4.5-4.484-3.845-12.224-3.21-19.71.563-6.629 1.142-13.486-2.065-16.68-.863-.86-.867-2.256-.006-3.12.86-.863 2.257-.867 3.12-.006 4.663 4.643 3.995 12.542 3.35 20.177-.55 6.48-1.116 13.18 1.929 16.212 3.177 3.163 9.921 2.535 16.444 1.93 3.044-.285 6.128-.57 9.03-.507M25.031 55.695c1.033-1.036 2.707-1.04 3.743-.007l2.346 2.337c1.036 1.032 1.04 2.707.007 3.743L17.35 75.604c-1.678 1.684-4.401 1.688-6.082.013-1.685-1.678-1.688-4.401-.014-6.082l13.777-13.84z"/>
    <path stroke="#30446D" stroke-linecap="round" stroke-linejoin="round" strokeWidth="1.324" d="M11.254 69.531c-1.678 1.685-1.671 4.408.014 6.083v0c1.684 1.677 4.407 1.67 6.082-.014l13.777-13.836c1.032-1.036 1.029-2.713-.007-3.743l-2.346-2.336c-1.036-1.032-2.714-1.03-3.743.007l-7.377 7.406"/>
    <path stroke="#30446D" stroke-linecap="round" stroke-linejoin="round" strokeWidth="1.324" d="M33.043 51.4l-4.27 4.288 2.347 2.337 4.25-4.27"/>
    <path stroke="#30446D" stroke-linecap="round" stroke-linejoin="round" strokeWidth="1.293" d="M42.448 57.624c-8.313-2.621-14.34-10.391-14.34-19.571 0-11.331 9.187-20.518 20.518-20.518 11.331 0 20.518 9.186 20.518 20.518 0 11.33-9.187 20.517-20.518 20.517"/>
    <path stroke="#30446D" stroke-linecap="round" stroke-linejoin="round" strokeWidth="1.324" d="M56.86 23.74c4.957 2.85 8.3 8.194 8.313 14.32.02 9.136-7.373 16.563-16.51 16.58-7.102.016-13.165-4.445-15.528-10.723"/>
    <path fill="#BCEBFF" d="M60.636 46.978c-1.543.096-3.128.242-4.7.39-7.535.702-15.325 1.427-19.965-3.193-4.5-4.484-3.845-12.224-3.21-19.71.563-6.629 1.142-13.486-2.065-16.68-.863-.86-.867-2.256-.006-3.12.86-.863 2.257-.867 3.12-.006 4.663 4.643 3.995 12.542 3.35 20.177-.55 6.48-1.116 13.18 1.929 16.212 3.177 3.163 9.921 2.535 16.444 1.93 2.088-.196 4.196-.391 6.251-.474"/>
    <path stroke="#30446D" stroke-linecap="round" stroke-linejoin="round" strokeWidth="1.324" d="M33.208 17.578c.08-4.103-.397-7.73-2.478-9.812-.86-.86-.86-2.257 0-3.12.86-.861 2.257-.861 3.12 0 4.653 4.652 3.968 12.548 3.306 20.183-.562 6.48-1.145 13.178 1.893 16.215 3.17 3.17 9.915 2.555 16.44 1.963 3.045-.278 6.13-.56 9.035-.49"/>
    <path stroke="#30446D" stroke-linecap="round" stroke-linejoin="round" strokeWidth="1.324" d="M62.598 46.935c-2.158.053-4.444.261-6.708.466-7.535.685-15.329 1.394-19.958-3.236-3.157-3.157-3.763-7.922-3.62-13.075M48.613 31.477l-9.527 9.57M53.775 33.797l-9.425 9.468M46.21 26.387l-9.299 9.34M21.238 17.28l-2.998 3.012M30.693 7.786l-6.566 6.592M32.933 13.041l-9.428 9.468"/>
    <path fill="#42BA85" d="M51.538 28.542c-3.044-3.031-9.742-2.436-16.218-1.86-7.635.679-15.528 1.38-20.19-3.263-.864-.86-.868-2.257-.007-3.12.86-.864 2.257-.867 3.12-.007 3.207 3.193 10.06 2.584 16.686 1.995 7.486-.665 15.223-1.353 19.724 3.128"/>
    <path stroke="#30446D" stroke-linecap="round" stroke-linejoin="round" strokeWidth="1.324" d="M51.538 28.542c-3.044-3.031-9.742-2.436-16.218-1.86-7.635.679-15.528 1.38-20.19-3.263-.864-.86-.868-2.257-.007-3.12.86-.864 2.257-.867 3.12-.007 3.207 3.193 10.06 2.584 16.686 1.995 7.486-.665 15.223-1.353 19.724 3.128"/>
</svg>
