<svg width="71" height="77" viewBox="0 0 71 77" fill="none" xmlns="http://www.w3.org/2000/svg">
<path d="M43.3028 63.5336C43.0893 65.4998 35.055 67.0793 25.1754 67.0793C15.1627 67.0793 7.04384 65.4555 7.04384 63.453L1 5.83507C1 3.16369 11.8225 1 25.1754 1C38.5282 1 49.3507 3.16369 49.3507 5.83507L43.3028 63.5336Z" fill="white"/>
<path d="M48.0819 17.9227C48.0819 15.2513 37.8276 13.0876 25.1758 13.0876C12.524 13.0876 2.26965 15.2513 2.26965 17.9227L7.04429 63.4529C7.04429 65.4555 15.1632 67.0792 25.1758 67.0792C35.0555 67.0792 43.0897 65.4998 43.3033 63.5335L48.0699 18.0798C48.0739 18.0637 48.0779 18.0476 48.0819 18.0315C48.0819 17.9952 48.0819 17.959 48.0819 17.9227Z" fill="#BCEBFF"/>
<path d="M16.2391 22.3791C8.02754 21.6418 2.26575 19.9253 2.26575 17.9228" stroke="#30446D" strokeWidth="2" stroke-linecap="round" stroke-linejoin="round"/>
<path d="M39.2772 14.1152C44.6361 15.0016 48.0811 16.3796 48.0811 17.9268C48.0811 17.9631 48.0811 17.9994 48.077 18.0316C47.8071 20.6546 37.6575 22.7619 25.1749 22.7619" stroke="#30446D" strokeWidth="2" stroke-linecap="round" stroke-linejoin="round"/>
<path d="M1 5.83507C1 3.16369 11.8225 1 25.1754 1C38.5282 1 49.3507 3.16369 49.3507 5.83507C49.3507 5.87133 49.3507 5.9076 49.3467 5.93983C49.0646 8.56286 38.3509 10.6701 25.1754 10.6701C16.3231 10.6701 8.57897 9.71924 4.36843 8.29693" stroke="#30446D" strokeWidth="2" stroke-linecap="round" stroke-linejoin="round"/>
<path d="M49.3429 5.94385L43.3031 63.5336" stroke="#30446D" strokeWidth="2" stroke-linecap="round" stroke-linejoin="round"/>
<path d="M43.3071 63.4529C43.3071 63.4811 43.3071 63.5053 43.3031 63.5335C43.0895 65.4998 35.0553 67.0792 25.1756 67.0792C20.7273 67.0792 16.6498 66.7569 13.4949 66.225" stroke="#30446D" strokeWidth="2" stroke-linecap="round" stroke-linejoin="round"/>
<path d="M1.00391 5.94385L6.15326 55.0118" stroke="#30446D" strokeWidth="2" stroke-linecap="round" stroke-linejoin="round"/>
<path d="M16.2382 48.279L17.3502 66.7288" stroke="#30446D" strokeWidth="2" stroke-linecap="round" stroke-linejoin="round"/>
<path d="M15.283 32.428L15.7826 40.7524" stroke="#30446D" strokeWidth="2" stroke-linecap="round" stroke-linejoin="round"/>
<path d="M35.0636 32.428L33.0006 66.7288" stroke="#30446D" strokeWidth="2" stroke-linecap="round" stroke-linejoin="round"/>
<path d="M15.283 32.4279C15.283 28.9427 19.4895 26.1182 25.1747 26.1182C30.8599 26.1182 35.0665 28.9427 35.0665 32.4279" stroke="#30446D" strokeWidth="2" stroke-linecap="round" stroke-linejoin="round"/>
<path d="M36.6262 27.8951C37.8189 26.2431 39.6078 24.9255 41.695 24.3776C44.0763 23.753 46.0748 24.3292 47.2352 25.7032" stroke="#30446D" strokeWidth="2" stroke-linecap="round" stroke-linejoin="round"/>
<path d="M15.284 32.428C15.284 28.9427 12.4635 25.3768 8.65188 24.3776C6.27061 23.753 4.27211 24.3292 3.11169 25.7032" stroke="#30446D" strokeWidth="2" stroke-linecap="round" stroke-linejoin="round"/>
<path d="M48.5446 74.1868C51.498 74.1868 52.8438 76 56.2001 76C60.9345 76 68.9486 61.9058 69.4966 50.2814C70.1574 36.2396 61.2367 34.0316 48.5446 34.0316C35.8526 34.0316 26.9319 36.2396 27.5926 50.2814C28.1406 61.9098 36.1548 76 40.8891 76C44.2454 76 45.5872 74.1868 48.5446 74.1868Z" fill="#42BA85"/>
<path d="M48.5446 34.0275C35.8526 34.0275 26.9319 36.2355 27.5926 50.2774C28.1406 61.9057 36.1548 75.9959 40.8891 75.9959C44.2454 75.9959 45.5912 74.1828 48.5446 74.1828C51.498 74.1828 52.8438 75.9959 56.2001 75.9959C60.9345 75.9959 68.9486 61.9017 69.4966 50.2774" stroke="#30446D" strokeWidth="2" stroke-linecap="round" stroke-linejoin="round"/>
<path d="M45.6682 40.7524C46.4539 41.0223 47.4129 41.2198 48.5451 41.2198C52.1714 41.2198 54.053 39.189 54.053 39.189" stroke="#30446D" strokeWidth="2" stroke-linecap="round" stroke-linejoin="round"/>
<path d="M48.5454 40.7524C48.5454 30.0185 54.6336 25.9812 54.6336 25.9812" stroke="#30446D" strokeWidth="2" stroke-linecap="round" stroke-linejoin="round"/>
</svg>
