<svg width="366" height="366" fill="none" xmlns="http://www.w3.org/2000/svg">
    <path d="M366 279.916H0v.183h366v-.183zM100.767 284.9H76.523v.183h24.244v-.183zM155.104 291.605h-29.829v.183h29.829v-.183zM75.791 289.316h-37.39v.183h37.39v-.183zM329.325 286.131h-68.179v.183h68.179v-.183zM254.634 286.131H250v.183h4.634v-.183zM233.83 289.221h-30.912v.183h30.912v-.183zM173.485 247.269H32.143a4.182 4.182 0 0 1-4.172-4.179V44.403a4.18 4.18 0 0 1 4.172-4.143h141.342a4.18 4.18 0 0 1 4.18 4.18v198.65a4.18 4.18 0 0 1-4.18 4.179zM32.143 40.406a3.996 3.996 0 0 0-3.99 3.997V243.09a3.996 3.996 0 0 0 3.99 3.996h141.342a4.005 4.005 0 0 0 3.997-3.996V44.403a4.005 4.005 0 0 0-3.997-3.997H32.143zM331.822 247.269H190.473a4.187 4.187 0 0 1-4.18-4.179V44.403a4.19 4.19 0 0 1 4.18-4.143h141.349a4.179 4.179 0 0 1 4.165 4.143V243.09a4.177 4.177 0 0 1-4.165 4.179zM190.473 40.406a4.003 4.003 0 0 0-3.997 3.997V243.09a4.006 4.006 0 0 0 3.997 3.996h141.349a4.005 4.005 0 0 0 3.997-3.996V44.403a4.005 4.005 0 0 0-3.997-3.997H190.473z" fill="#EBEBEB"/>
    <path d="M313.083 93.578h-47.038v74.832h47.038V93.578z" fill="#E0E0E0"/>
    <path d="M315.925 93.578h-48.642v74.832h48.642V93.578z" fill="#F5F5F5"/>
    <path d="M271.359 99.039v63.918h40.487V99.039h-40.487z" fill="#fff"/>
    <path d="M272.1 202.307h-13.557v75.425H272.1v-75.425zM320.819 277.736h-59.673v2.182h59.673v-2.182z" fill="#F0F0F0"/>
    <path d="M272.092 277.736h51.328v-75.425h-51.328v75.425z" fill="#F5F5F5"/>
    <path d="M317.358 207.271v30.334H278.16v-30.334h3.382a6.405 6.405 0 0 0 6.317 5.541h19.8a6.415 6.415 0 0 0 6.325-5.541h3.374zm.732-.732h-4.794a5.637 5.637 0 0 1-5.644 5.541h-19.793a5.633 5.633 0 0 1-5.637-5.541h-4.794v31.798h40.662v-31.798zM317.358 242.437v30.334H278.16v-30.334h3.382a6.415 6.415 0 0 0 6.317 5.541h19.8a6.429 6.429 0 0 0 6.325-5.541h3.374zm.732-.732h-4.794a5.643 5.643 0 0 1-5.644 5.541h-19.793a5.644 5.644 0 0 1-5.637-5.541h-4.794v31.798h40.662v-31.798z" fill="#EBEBEB"/>
    <path d="M216.752 202.307h-13.557v75.425h13.557v-75.425zM265.475 277.736h-59.672v2.182h59.672v-2.182z" fill="#F0F0F0"/>
    <path d="M216.746 277.736h51.328v-75.425h-51.328v75.425z" fill="#F5F5F5"/>
    <path d="M262.013 207.271v30.334h-39.199v-30.334h3.375a6.407 6.407 0 0 0 6.324 5.541h19.801a6.414 6.414 0 0 0 6.324-5.541h3.375zm.732-.732h-4.788a5.636 5.636 0 0 1-5.643 5.541h-19.801a5.635 5.635 0 0 1-5.644-5.541h-4.787v31.798h40.663v-31.798zM262.013 242.437v30.334h-39.199v-30.334h3.375a6.423 6.423 0 0 0 6.324 5.541h19.801a6.426 6.426 0 0 0 6.324-5.541h3.375zm.732-.732h-4.788a5.643 5.643 0 0 1-5.643 5.541h-19.801a5.643 5.643 0 0 1-5.644-5.541h-4.787v31.798h40.663v-31.798z" fill="#EBEBEB"/>
    <path d="M165.71 201.6h-7.034v78.309h7.034V201.6z" fill="#E6E6E6"/>
    <path d="M167.927 201.6h-4.882v78.309h4.882V201.6z" fill="#F0F0F0"/>
    <path d="M99.839 210.252h68.091v-8.645H99.839v8.645z" fill="#F0F0F0"/>
    <path d="M102.245 210.244h-7.034v69.665h7.034v-69.665z" fill="#E6E6E6"/>
    <path d="M104.464 210.244h-4.882v69.665h4.882v-69.665z" fill="#F0F0F0"/>
    <path d="M52.177 210.244h-7.034v69.665h7.034v-69.665z" fill="#E6E6E6"/>
    <path d="M54.396 210.244h-4.882v69.665h4.882v-69.665z" fill="#F0F0F0"/>
    <path d="M121.189 210.244h-7.035v69.665h7.035v-69.665z" fill="#E6E6E6"/>
    <path d="M123.408 210.244h-4.883v69.665h4.883v-69.665z" fill="#F0F0F0"/>
    <path d="M99.845 201.6H45.143v8.645h54.702V201.6z" fill="#E6E6E6"/>
    <path d="M226.041 58.127H54.511v95.497h171.53V58.127z" fill="#E0E0E0"/>
    <path d="M235.462 58.127H55.375v95.497h180.087V58.127z" fill="#F5F5F5"/>
    <path d="M232.52 150.682V61.07H58.318v89.612H232.52z" fill="#fff"/>
    <path d="m128.854 150.682 32.889-89.612h-54.278l-32.889 89.612h54.278zM181.097 150.682l32.889-89.612h-40.941l-32.889 89.612h40.941z" fill="#F5F5F5"/>
    <path d="M61.928 184.574v1.925h1.23l1.017 15.102h15.006l1.017-15.102h1.23v-1.925h-19.5zM66.35 147.27c-.242-8.44 7.744-9.428 18.24-7.891 9.978 1.464 12.569-2.928 12.569-2.928s2.489 20.05-11.031 24.771c-12.847 4.48-19.515-5.497-19.779-13.952z" fill="#E6E6E6"/>
    <path d="M71.598 159.626c-1.99-2.928-8.11-5.716-12.956 3.763-3.506 6.851-7.935 4.289-7.935 4.289s8.052 12.013 17.334 8.25c8.82-3.579 7.064-11.119 3.557-16.302zM74.078 173.426c.49-2.416 3.66-5.812 9.267-1.062 4.056 3.433 6.2.623 6.2.623s-1.94 9.808-8.85 9.874c-6.566.073-7.495-5.204-6.617-9.435z" fill="#E6E6E6"/>
    <path d="M71.113 190.243a.55.55 0 0 1-.417-.191c-1.032-1.215-.19-4.135.973-8.169 1.464-5.182 3.368-11.631 1.786-16.309a65.761 65.761 0 0 0-3.06-7.232c-2.195-4.714-4.157-8.784-2.547-13.044a.539.539 0 0 1 .514-.368.53.53 0 0 1 .218.046.545.545 0 0 1 .317.298.554.554 0 0 1 .005.434c-1.464 3.814.3 7.51 2.518 12.188a69.104 69.104 0 0 1 3.104 7.32c1.684 5.007-.227 11.631-1.771 16.96-.908 3.14-1.845 6.39-1.194 7.159a.545.545 0 0 1 .07.608.56.56 0 0 1-.135.168.526.526 0 0 1-.381.132z" fill="#E6E6E6"/>
    <path d="M183 312.975c78.384 0 141.927-3.71 141.927-8.286 0-4.577-63.543-8.287-141.927-8.287-78.385 0-141.928 3.71-141.928 8.287 0 4.576 63.543 8.286 141.928 8.286z" fill="#F5F5F5"/>
    <path d="M116.301 299.05a2.37 2.37 0 0 0 1.786.132.533.533 0 0 0 .175-.586.728.728 0 0 0-.314-.453c-.849-.564-3.17-.11-3.265-.088a.144.144 0 0 0-.074.041.142.142 0 0 0-.036.076.154.154 0 0 0 .013.079c.012.024.03.045.053.06.531.296 1.087.543 1.662.739zm1.244-.79c.088.028.171.068.249.117a.433.433 0 0 1 .198.271c.036.197 0 .271-.074.307-.38.271-1.793-.197-2.781-.732a6.354 6.354 0 0 1 2.408.037z" fill="#004171"/>
    <path d="M114.669 298.328h.058c.769-.081 2.504-.842 2.614-1.508 0-.154 0-.373-.374-.534a1.012 1.012 0 0 0-.805 0c-.907.351-1.552 1.808-1.581 1.866a.15.15 0 0 0 0 .139.169.169 0 0 0 .088.037zm2.108-1.808h.081c.227.102.212.205.205.234-.066.403-1.281 1.047-2.109 1.23a3.258 3.258 0 0 1 1.303-1.464.728.728 0 0 1 .52 0z" fill="#004171"/>
    <path d="M114.039 297.985h-6.434a.441.441 0 0 0-.454.402l-.513 5.241a.983.983 0 0 0 .266.735.992.992 0 0 0 .715.312c2.321-.036 5.659-.176 8.572-.176 3.411 0 3.66.191 7.664.191 2.416 0 2.782-2.445 1.742-2.672-4.736-1.01-5.79-1.113-10.079-3.572a3.093 3.093 0 0 0-1.479-.461zM84.84 299.387a2.63 2.63 0 0 0 1.794-.447.538.538 0 0 0 .08-.607.58.58 0 0 0-.395-.33c-.944-.263-3.17.908-3.265.959a.17.17 0 0 0-.095.139c0 .028.01.054.028.075a.13.13 0 0 0 .067.043c.59.109 1.187.165 1.786.168zm1.098-1.142c.09-.012.181-.012.271 0a.32.32 0 0 1 .242.198c.073.168 0 .256 0 .307-.33.381-1.823.388-2.928.234a7.256 7.256 0 0 1 2.415-.724v-.015z" fill="#004171"/>
    <path d="M83.084 299.234h.059c.732-.322 2.357-1.595 2.342-2.261 0-.154-.08-.352-.461-.388a1.154 1.154 0 0 0-.805.234 4.668 4.668 0 0 0-1.252 2.276.117.117 0 0 0 0 .125c.017.01.037.017.057.019.02.003.04.001.06-.005zm1.786-2.386h.088c.242 0 .249.124.249.154 0 .402-1.098 1.405-1.888 1.837a3.848 3.848 0 0 1 1.039-1.815.842.842 0 0 1 .512-.176z" fill="#004171"/>
    <path d="M81.173 297.984h-6.434a.54.54 0 0 0-.513.403l-1.317 5.241a.826.826 0 0 0 .82 1.047c2.32-.037 5.68-.176 8.6-.176 3.412 0 2.065.19 6.069.19 2.415 0 3.162-2.444 2.152-2.671-4.582-1.01-4.055-1.113-7.964-3.572a2.724 2.724 0 0 0-1.413-.462z" fill="#004171"/>
    <path d="M109.684 148.742s-6.837 45.274-9.516 62.081c-2.452 15.562-12.495 66.414-15.767 82.131-.22 1.076-.279 2.071-.857 2.928.776.995.161 3.089.161 3.089l-10.248 1.039a3.659 3.659 0 0 1-.732-2.928c.103-.732 1.069-2.115 1.267-4.516 1.31-15.856 7.136-59.292 8.615-80.381 1.391-19.801 6.75-63.435 6.75-63.435l20.327-.008z" fill="#004171"/>
    <path opacity=".3" d="M103.859 171.289c-6.83 4.883-5.03 25.569-3.88 40.912.073-.483.154-.944.22-1.384 1.464-9.172 4.135-26.857 6.287-40.992-.344-.131-2.276 1.216-2.627 1.464z" fill="#000"/>
    <path d="M120.867 148.742s-.439 44.067-.944 62.045c-.454 15.891-.498 67.797-3.74 82.576-.33 1.508.439 1.808.292 2.409a6.387 6.387 0 0 0-.117.629 1.97 1.97 0 0 1-1.544 1.662l-7.511 1.698a1.27 1.27 0 0 1-1.507-.9 10.885 10.885 0 0 1-.279-2.994c0-.82.388-2.54.337-3.528-.988-18.564-3.455-65.514-3.916-80.132-.63-20.013-1.793-63.465-1.793-63.465h20.722z" fill="#004171"/>
    <path d="M92.576 106.466c-1.069 1.976-2.196 4.069-3.235 6.119-1.04 2.05-2.108 4.143-3.111 6.222a174.19 174.19 0 0 0-1.464 3.126 126.7 126.7 0 0 0-1.376 3.125 65.379 65.379 0 0 0-2.248 6.222l-3.396-4.948c.646.158 1.3.273 1.962.344a10.9 10.9 0 0 0 2.027 0 10.67 10.67 0 0 0 2.101-.337c.352-.087.732-.19 1.062-.307.168-.059.35-.117.512-.183l.256-.088.11-.044h.073a2.215 2.215 0 0 1 3.13-.062 2.214 2.214 0 0 1 .062 3.129l-.315.425c-.095.124-.183.249-.278.358-.19.227-.38.432-.578.652a13.014 13.014 0 0 1-4.253 2.928 14.189 14.189 0 0 1-3.39.981 15.913 15.913 0 0 1-3.535.183 3.745 3.745 0 0 1-3.565-3.909c.011-.199.038-.398.08-.593l.096-.439a59.41 59.41 0 0 1 2.13-7.371c.82-2.365 1.757-4.641 2.737-6.896.981-2.254 2.035-4.45 3.126-6.588 1.09-2.137 2.196-4.297 3.506-6.471a4.475 4.475 0 0 1 4.433-2.242 4.477 4.477 0 0 1 2.98 1.681 4.472 4.472 0 0 1 .376 4.953l-.015.03z" fill="#FFC3BD"/>
    <path d="m84.97 126.283 3.456-2.672 2.928 6.134s-2.848 1.75-5.505.732l-.878-4.194z" fill="#FFC3BD"/>
    <path d="m93.486 120.193 1.478 5.849-3.63 3.704-2.906-6.134 5.058-3.419z" fill="#FFC3BD"/>
    <path d="M114.771 77.666c0 .476.183.886.491.915.307.03.593-.337.629-.812.037-.476-.175-.879-.49-.908-.315-.03-.593.337-.63.805z" fill="#004171"/>
    <path d="M114.924 78.545c.444 1.5 1.092 2.93 1.925 4.253a2.716 2.716 0 0 1-2.298.22l.373-4.473z" fill="#ED847E"/>
    <path d="m144.937 105.252-.278-6.676-7.042 1.999a7.796 7.796 0 0 0 1.116 3.205 7.786 7.786 0 0 0 2.376 2.424l3.828-.952z" fill="#FFC3BD"/>
    <path d="m142.259 93.74-6.017 3.338 1.398 3.499 7.028-1.998-2.409-4.839z" fill="#FFC3BD"/>
    <path d="M142.147 90.285h-6.449a.66.66 0 0 0-.644.593l-1.193 12.4a.527.527 0 0 0 .134.417.536.536 0 0 0 .4.176h6.442a.674.674 0 0 0 .651-.593l1.186-12.4a.511.511 0 0 0-.126-.418.52.52 0 0 0-.401-.175z" fill="#004171"/>
    <path d="M141.702 90.285h-6.442a.656.656 0 0 0-.644.593l-1.193 12.4a.544.544 0 0 0 .134.417.55.55 0 0 0 .4.176h6.442a.663.663 0 0 0 .644-.593l1.193-12.4a.514.514 0 0 0-.02-.224.532.532 0 0 0-.514-.37v.001z" fill="#004171"/>
    <path d="M133.957 103.615a.268.268 0 0 1-.205-.088.29.29 0 0 1-.057-.103.29.29 0 0 1-.009-.117l1.193-12.4a.413.413 0 0 1 .396-.366h6.441a.29.29 0 0 1 .205.08.29.29 0 0 1 .066.22l-1.193 12.444a.413.413 0 0 1-.395.366l-6.442-.036z" fill="#fff"/>
    <path d="M140.041 97.028a2.624 2.624 0 0 1-2.43 2.371 1.977 1.977 0 0 1-1.991-2.269 2.619 2.619 0 0 1 2.43-2.372 1.973 1.973 0 0 1 1.525.67 1.96 1.96 0 0 1 .466 1.6z" fill="#004171"/>
    <path d="M143.577 100.438a27.127 27.127 0 0 1-3.316-5.014 1.693 1.693 0 0 0-.908 2.057c.271.812 1.303 2.928 1.303 2.928s-.498 2.54.439 4.311c.937 1.772 2.482-4.282 2.482-4.282z" fill="#FFC3BD"/>
    <path d="M113.256 74.885a.297.297 0 0 1-.2-.226.267.267 0 0 1 .052-.207.268.268 0 0 1 .082-.072 2.737 2.737 0 0 1 2.54-.205.282.282 0 0 1 .088.065c.024.028.043.06.055.095a.285.285 0 0 1 .013.109.276.276 0 0 1-.032.104.274.274 0 0 1-.157.136.28.28 0 0 1-.209-.011 2.192 2.192 0 0 0-2.013.183.254.254 0 0 1-.219.03z" fill="#004171"/>
    <path d="M99.23 82.996c.879 4.312 1.428 10.285-1.566 13.176 0 0 1.215 4.392 9.223 4.392 8.784 0 4.209-3.836 4.209-3.836-3.66-1.141-3.66-5.314-2.855-8.66l-9.01-5.072z" fill="#FFC3BD"/>
    <path d="M96.04 99.038c-.798-1.105-.791-4.619.043-5.241 1.347-.995 7.13-1.23 14.933.564-.812 3.403.981 5.19.981 5.19l-15.957-.513z" fill="#BCEBFF"/>
    <path d="M87.11 97.497c-5.52 1.266-9.223 16.001-9.223 16.001l10.409 7.818a23.913 23.913 0 0 0 5.804-10.892c1.86-7.393-1.339-14.223-6.99-12.927z" fill="#004171"/>
    <path opacity=".1" d="M87.11 97.497c-5.52 1.266-9.223 16.001-9.223 16.001l10.409 7.818a23.913 23.913 0 0 0 5.804-10.892c1.86-7.393-1.339-14.223-6.99-12.927z" fill="#56CCF2"/>
    <path d="M119.631 101.75c3.03 3.375 5.914 6.793 8.784 10.116a191.726 191.726 0 0 0 4.392 4.853 41.061 41.061 0 0 0 4.355 4.151c.295.237.603.457.923.659.241.161.461.219.227.19a2.189 2.189 0 0 0-.828.088c-.23.069-.449.17-.651.3a1.907 1.907 0 0 0-.395.315c-.066.117.095 0 .241-.278.411-.722.733-1.492.959-2.292.278-.922.534-1.91.732-2.928.871-4.099 1.464-8.542 1.976-12.89l4.429-.103c.681 4.628.877 9.313.586 13.982a33.887 33.887 0 0 1-.461 3.66 18.088 18.088 0 0 1-1.201 4.069 8.768 8.768 0 0 1-1.662 2.482 5.08 5.08 0 0 1-1.046.842 5.47 5.47 0 0 1-1.42.629 6.014 6.014 0 0 1-2.497.147 9.361 9.361 0 0 1-2.928-.967 18.48 18.48 0 0 1-1.91-1.149 46.857 46.857 0 0 1-5.658-4.831c-1.684-1.647-3.265-3.323-4.817-5-3.082-3.374-6.01-6.8-8.894-10.182l6.764-5.863z" fill="#FFC3BD"/>
    <path opacity=".4" d="M91.932 107.857c-2.979 2.972-3.916 8.382-4.114 13.081l.49.374a23.972 23.972 0 0 0 5.806-10.893c.11-.439.204-.885.285-1.317l-2.467-1.245z" fill="#004171"/>
    <path d="m77.497 112.726-.212.564a.808.808 0 0 0 .307.9l9.955 7.533a.8.8 0 0 0 1.098-.132v-.051a.798.798 0 0 0 .172-.581.798.798 0 0 0-.289-.532l-9.78-8.052a.79.79 0 0 0-1.251.351z" fill="#BCEBFF"/>
    <path d="M122.076 103.403c1.252 6.368 2.35 28.819-.959 54.717H87.562c-.249-4.839 4.392-37.823-.439-60.624a81.443 81.443 0 0 1 10.54-1.34c4.465-.26 8.94-.26 13.404 0 1.464.132 2.928.344 4.223.571a8.434 8.434 0 0 1 6.786 6.676z" fill="#004171"/>
    <path opacity=".1" d="M122.076 103.403c1.252 6.368 2.35 28.819-.959 54.717H87.562c-.249-4.839 4.392-37.823-.439-60.624a81.443 81.443 0 0 1 10.54-1.34c4.465-.26 8.94-.26 13.404 0 1.464.132 2.928.344 4.223.571a8.434 8.434 0 0 1 6.786 6.676z" fill="#00B2DD"/>
    <path opacity=".4" d="m122.978 111.998-5.168 1.237c-.308 3.894 2.884 8.411 5.49 11.397.022-4.853-.103-9.135-.322-12.634z" fill="#004171"/>
    <path d="M99.055 75.242c-.124 5.856-.498 9.26 2.196 12.51 4.048 4.89 11.449 2.87 13.315-2.811 1.684-5.124 1.611-13.813-3.894-16.639a7.92 7.92 0 0 0-11.617 6.94z" fill="#FFC3BD"/>
    <path d="M111.688 79.613s2.32 1.866 2.364-1.07a16.506 16.506 0 0 0-.315-4.2s1.501-.096 1.369-2.592c-.132-2.496-3.945-6.251-9.897-5.329-5.95.922-5.548 3.894-5.548 3.894s-5.512.352-2.408 9.297c2.254 6.507 2.598 7.693 2.598 7.693s5.497 1.164 6.72-.102c1.222-1.267 2.796-8.404 5.117-7.591z" fill="#004171"/>
    <path d="M97.965 73.932c-5.717 2.928-10.387 7.533 1.376 7.518 11.763-.015 14.757-8.784 14.757-8.784l-16.133 1.266z" fill="#004171"/>
    <path opacity=".2" d="M97.965 73.932c-5.717 2.928-10.387 7.533 1.376 7.518 11.763-.015 14.757-8.784 14.757-8.784l-16.133 1.266z" fill="#fff"/>
    <path d="M115.334 71.583c-.732 1.368-3.828 3.938-5.9 5.124-2.071 1.185-6.317 1.595-7.935 1.537-1.617-.059-5.036-.44-5.468-1.537-.432-1.098-.388-4.392-.249-6.515.14-2.123 5.966-5.856 8.287-6.347 2.32-.49 7.32.967 8.784 2.277 1.464 1.31 2.481 5.46 2.481 5.46z" fill="#BCEBFF"/>
    <path d="M108.44 78.326a6.652 6.652 0 0 0 1.339 4.034c1.171 1.515 2.584.731 2.928-.937.329-1.53.117-4.158-1.391-5.073s-2.847.234-2.876 1.976z" fill="#FFC3BD"/>
    <path d="M109.736 105.333c-2.774 7.62 14.428 16.836 14.428 16.836l6.588-9.516s-4.846-9.516-10.782-13.835c-7.306-5.3-8.125.732-10.234 6.515z" fill="#004171"/>
    <path opacity=".1" d="M109.736 105.333c-2.774 7.62 14.428 16.836 14.428 16.836l6.588-9.516s-4.846-9.516-10.782-13.835c-7.306-5.3-8.125.732-10.234 6.515z" fill="#56CCF2"/>
    <path d="m130.875 111.835.374.491a.803.803 0 0 1 0 .951l-6.639 9.011a.794.794 0 0 1-1.018.227l-.102-.059a.78.78 0 0 1-.41-.836.8.8 0 0 1 .124-.305l6.368-9.443a.793.793 0 0 1 .643-.356.787.787 0 0 1 .66.319z" fill="#BCEBFF"/>
    <path d="M279.404 83.264H176.58a10.089 10.089 0 0 0-9.918 9.413l-10.658 197.926a8.85 8.85 0 0 0 2.406 6.645 8.853 8.853 0 0 0 6.502 2.768h102.824a10.082 10.082 0 0 0 9.919-9.413l10.658-197.91a8.867 8.867 0 0 0-2.401-6.655 8.857 8.857 0 0 0-6.508-2.774z" fill="#263238"/>
    <path d="M191.014 80.703h-5.073v.732h5.073v-.732zM164.479 87.394l-.637-.366a12.61 12.61 0 0 1 10.819-6.325h7.993v.732h-7.993a11.874 11.874 0 0 0-10.182 5.959z" fill="#005D8D"/>
    <path d="M277.485 83.264H174.661a10.089 10.089 0 0 0-9.918 9.413l-10.651 197.926a8.86 8.86 0 0 0 2.402 6.644 8.848 8.848 0 0 0 6.499 2.769h102.832a10.08 10.08 0 0 0 9.911-9.413l10.658-197.91a8.867 8.867 0 0 0-2.401-6.655 8.857 8.857 0 0 0-6.508-2.774z" fill="#005D8D"/>
    <path d="M163.08 298.438a7.371 7.371 0 0 1-5.419-2.298 7.354 7.354 0 0 1-1.578-2.559 7.35 7.35 0 0 1-.425-2.976l10.65-197.925a8.389 8.389 0 0 1 8.264-7.84h102.854a7.358 7.358 0 0 1 5.421 2.3 7.354 7.354 0 0 1 2.001 5.54l-10.68 197.925a8.389 8.389 0 0 1-8.264 7.847l-102.824-.014z" fill="#fff"/>
    <path opacity=".2" d="m167.45 162.137 3.141-58.267a4.478 4.478 0 0 1 4.392-4.202H275.34a3.939 3.939 0 0 1 3.974 4.202l-3.14 58.267a4.482 4.482 0 0 1-4.392 4.202H171.425a3.942 3.942 0 0 1-3.751-2.605 3.943 3.943 0 0 1-.224-1.597z" fill="#005D8D"/>
    <path d="M228.689 92.115h-5.856a3.389 3.389 0 0 1-3.345-2.657l-1.201-5.38h15.423l-1.347 5.124a3.867 3.867 0 0 1-3.674 2.913z" fill="#005D8D"/>
    <path opacity=".5" d="M227.732 88.096a2.051 2.051 0 0 1-2.02 1.918 1.8 1.8 0 0 1-1.816-1.918 2.052 2.052 0 0 1 2.021-1.918 1.794 1.794 0 0 1 1.815 1.918z" fill="#fff"/>
    <path d="M243.139 232.856h-49.6a.393.393 0 0 1-.395-.373l-1.581-35.026a.409.409 0 0 1 .112-.287.411.411 0 0 1 .283-.123h56.532a.397.397 0 0 1 .381.286.381.381 0 0 1 .007.168l-5.351 35.026a.39.39 0 0 1-.134.235.39.39 0 0 1-.254.094zm-49.227-.812h48.891l5.233-34.243h-55.668l1.544 34.243z" fill="#005D8D"/>
    <path d="M240.674 239.936h-43.313a.403.403 0 0 1-.413-.228.391.391 0 0 1 .1-.462.389.389 0 0 1 .313-.094h43.313a1.323 1.323 0 0 0 1.281-1.127l6.551-43.473a.402.402 0 0 1 .388-.337h2.818a.394.394 0 1 1 0 .79h-2.481l-6.501 43.137a2.095 2.095 0 0 1-2.056 1.794z" fill="#005D8D"/>
    <path d="M200.655 247.316a3.863 3.863 0 0 1-2.839-1.205 3.872 3.872 0 0 1-.827-1.341 3.872 3.872 0 0 1-.221-1.56 4.346 4.346 0 0 1 1.346-2.867 4.345 4.345 0 0 1 2.936-1.189 3.85 3.85 0 0 1 3.659 2.543c.18.498.255 1.028.221 1.557a4.337 4.337 0 0 1-4.275 4.062zm.395-7.378a3.552 3.552 0 0 0-3.499 3.316 3.053 3.053 0 0 0 .832 2.318 3.072 3.072 0 0 0 2.272.954 3.54 3.54 0 0 0 3.491-3.316 3.064 3.064 0 0 0-3.096-3.272zM238.405 247.316a3.86 3.86 0 0 1-3.659-2.548 3.86 3.86 0 0 1-.22-1.558 4.324 4.324 0 0 1 4.275-4.056 3.858 3.858 0 0 1 3.886 4.1 4.344 4.344 0 0 1-4.282 4.062zm.396-7.378a3.534 3.534 0 0 0-3.492 3.316 3.05 3.05 0 0 0 .83 2.315 3.054 3.054 0 0 0 2.266.957 3.554 3.554 0 0 0 2.399-.973 3.555 3.555 0 0 0 1.1-2.343 3.057 3.057 0 0 0-3.103-3.272z" fill="#005D8D"/>
    <path d="M206.32 168.98c-7.481 0-15.21-.154-22.787-.556a.355.355 0 0 1-.139-.034.352.352 0 0 1-.115-.084.356.356 0 0 1-.097-.263.373.373 0 0 1 .388-.351c31.476 1.661 65.799-.879 72.358-1.406a.37.37 0 0 1 .395.337.365.365 0 0 1-.336.395c-4.993.403-26.023 1.962-49.667 1.962z" fill="#fff"/>
    <path d="m212.615 182.348 8.052 6.888 8.784-6.888h-16.836zM226.532 284.15c6.231-6.066 6.623-15.769.876-21.673-5.747-5.903-15.457-5.772-21.688.294-6.231 6.066-6.624 15.769-.876 21.672 5.747 5.904 15.457 5.773 21.688-.293z" fill="#005D8D"/>
    <path d="M205.537 272.712s6.251 3.616 8.784 8.279c2.138-3.66 5.336-8.696 13.008-14.384-9.311 3.748-12.759 9.721-12.759 9.721a16.764 16.764 0 0 0-9.033-3.616zM223.398 155.524l-13.683-11.482a2.415 2.415 0 0 1-.297-3.401l17.687-21.078a2.414 2.414 0 0 1 3.401-.297l13.683 11.482a2.413 2.413 0 0 1 .297 3.4l-17.687 21.079a2.415 2.415 0 0 1-3.401.297z" fill="#fff"/>
    <path d="M224.18 129.068c.775-.338 1.209-.712 1.209-1.107v-6.356l-15.971 19.034a2.415 2.415 0 0 0 .297 3.401l13.683 11.482c.239.2.507.345.787.439v-26.893h-.005z" fill="#BCEBFF"/>
    <path clip-rule="evenodd" d="M236.856 136.238a3.137 3.137 0 1 0 .002-6.274 3.137 3.137 0 0 0-.002 6.274zM223.253 137.432a3.138 3.138 0 1 0 0-6.276 3.138 3.138 0 0 0 0 6.276z" stroke="#30446D" stroke-width=".732" stroke-linecap="round" stroke-linejoin="round"/>
    <path d="M228.633 142.904a3.136 3.136 0 0 1-.386-4.42 3.137 3.137 0 1 1 2.401 5.153" stroke="#30446D" stroke-width=".732" stroke-linecap="round" stroke-linejoin="round"/>
    <path clip-rule="evenodd" d="M217.046 144.824a3.138 3.138 0 1 0 0-6.276 3.138 3.138 0 0 0 0 6.276zM224.444 151.027a3.137 3.137 0 1 0 .002-6.274 3.137 3.137 0 0 0-.002 6.274z" stroke="#30446D" stroke-width=".732" stroke-linecap="round" stroke-linejoin="round"/>
    <path d="m241.788 137.359-14.991 17.866M218.75 151.623l-9.035-7.581a2.415 2.415 0 0 1-.297-3.401l17.687-21.078a2.414 2.414 0 0 1 3.401-.297l13.683 11.482a2.413 2.413 0 0 1 .297 3.4M226.801 155.227a2.414 2.414 0 0 1-3.401.296" stroke="#30446D" stroke-width=".732" stroke-linecap="round" stroke-linejoin="round"/>
    <path clip-rule="evenodd" d="M229.458 130.033a3.138 3.138 0 1 0 0-6.276 3.138 3.138 0 0 0 0 6.276z" stroke="#30446D" stroke-width=".732" stroke-linecap="round" stroke-linejoin="round"/>
    <path d="M210.183 115.654c-7.332 0-13.275 1.188-13.275 2.655v9.655c0 .396.435.77 1.209 1.108h-.002v28.821c0 1.332 5.404 2.413 12.068 2.413s12.068-1.081 12.068-2.413v-28.821h-.002c.775-.338 1.209-.712 1.209-1.108v-9.655c0-1.467-5.942-2.655-13.275-2.655z" fill="#fff"/>
    <path d="M222.251 130.278c-2.099.912-6.712 1.547-12.068 1.547-5.355 0-9.97-.635-12.068-1.547v-2.223h24.136v2.223zM210.183 134.964c-6.664 0-12.068-1.081-12.068-2.413v19.55c0 1.332 5.404 2.414 12.068 2.414.461 0 .915-.005 1.362-.015v-19.55c-.447.007-.901.014-1.362.014z" fill="#BCEBFF"/>
    <path d="M207.77 142.639a48.177 48.177 0 0 1-4.103-.333v-4.103c-1.709-.219-3.121-.524-4.096-.881v4.103c-.927-.342-1.456-.733-1.456-1.148v4.103c0 .415.529.808 1.456 1.149v4.103c.972.357 2.387.661 4.096.881v-4.103a47.77 47.77 0 0 0 4.103.333v-4.104z" fill="#42BA85"/>
    <path d="M210.183 115.654c-7.332 0-13.275 1.188-13.275 2.655v9.655c0 1.467 5.943 2.655 13.275 2.655 7.333 0 13.275-1.188 13.275-2.655v-9.655c0-1.467-5.942-2.655-13.275-2.655z" fill="#BCEBFF"/>
    <path d="M222.252 152.262v-23.19M198.115 129.072v28.821c0 1.333 5.404 2.414 12.068 2.414 5.832 0 10.698-.828 11.822-1.926M220.633 116.672c1.769.451 2.824 1.018 2.824 1.636M223.458 118.309c0 1.468-5.942 2.655-13.275 2.655-7.332 0-13.275-1.187-13.275-2.655 0-1.467 5.943-2.655 13.275-2.655" stroke="#30446D" stroke-width=".732" stroke-linecap="round" stroke-linejoin="round"/>
    <path d="M223.458 118.311v9.654c0 1.468-5.942 2.655-13.275 2.655-7.332 0-13.275-1.187-13.275-2.655v-9.654M202.564 134.42c2.078.338 4.73.543 7.619.543.85 0 1.678-.017 2.477-.051a2.41 2.41 0 0 1 2.505 2.412v14.718a2.41 2.41 0 0 1-2.293 2.411c-.864.039-1.764.06-2.689.06-6.664 0-12.068-1.081-12.068-2.413M211.547 134.947v15.322" stroke="#30446D" stroke-width=".732" stroke-linecap="round" stroke-linejoin="round"/>
    <path d="M203.666 150.513v-4.103c1.234.159 2.619.272 4.103.333v-4.104a48.245 48.245 0 0 1-4.103-.333v-4.103c-1.709-.219-3.121-.524-4.096-.881" stroke="#30446D" stroke-width=".732" stroke-linecap="round" stroke-linejoin="round"/>
    <path d="M234.274 153.557h-3.606c.258.053.463 1.11.463 2.408 0 1.299-.205 2.356-.463 2.409h3.606a2.41 2.41 0 0 0 0-4.817z" fill="#42BA85"/>
    <path d="M231.132 155.965c0-1.298-.205-2.355-.464-2.408h-3.162a2.41 2.41 0 0 0 0 4.817h3.162c.259-.053.464-1.11.464-2.409z" fill="#BCEBFF"/>
    <path clip-rule="evenodd" d="M234.274 158.374h-6.768a2.41 2.41 0 0 1-2.408-2.409v0a2.41 2.41 0 0 1 2.408-2.408h6.768a2.41 2.41 0 0 1 2.409 2.408v0a2.408 2.408 0 0 1-2.409 2.409z" stroke="#30446D" stroke-width=".732" stroke-linecap="round" stroke-linejoin="round"/>
    <path d="M230.648 153.553c.266 0 .483 1.081.483 2.413 0 1.333-.217 2.414-.483 2.414" stroke="#30446D" stroke-width=".732" stroke-linecap="round" stroke-linejoin="round"/>
    <path d="m242.798 154.262-2.549-2.549c.145.22-.456 1.113-1.375 2.03-.92.919-1.811 1.52-2.03 1.376l2.549 2.548a2.405 2.405 0 0 0 3.405 0 2.406 2.406 0 0 0 0-3.405z" fill="#42BA85"/>
    <path d="M238.876 153.743c.919-.92 1.52-1.81 1.375-2.03l-2.237-2.237a2.406 2.406 0 0 0-3.406 0 2.406 2.406 0 0 0 0 3.405l2.238 2.238c.219.144 1.11-.457 2.03-1.376z" fill="#BCEBFF"/>
    <path clip-rule="evenodd" d="m239.395 157.671-4.787-4.786a2.408 2.408 0 0 1 0-3.406v0a2.408 2.408 0 0 1 3.406 0l4.786 4.787a2.406 2.406 0 0 1 0 3.405v0a2.41 2.41 0 0 1-3.405 0z" stroke="#30446D" stroke-width=".732" stroke-linecap="round" stroke-linejoin="round"/>
    <path d="M240.239 151.699c.189.188-.422 1.106-1.366 2.049-.943.944-1.858 1.555-2.049 1.366" stroke="#30446D" stroke-width=".732" stroke-linecap="round" stroke-linejoin="round"/>
</svg>
