<svg width="76" height="76" viewBox="0 0 76 76" fill="none" xmlns="http://www.w3.org/2000/svg">
<path fill-rule="evenodd" clip-rule="evenodd" d="M75.5 17.1667C75.5 21.5869 73.744 25.8262 70.6184 28.9518C67.4928 32.0774 63.2536 33.8333 58.8333 33.8333C54.413 33.8333 50.1738 32.0774 47.0482 28.9518C43.9226 25.8262 42.1666 21.5869 42.1666 17.1667C42.1666 12.7464 43.9226 8.50716 47.0482 5.38155C50.1738 2.25595 54.413 0.5 58.8333 0.5C63.2536 0.5 67.4928 2.25595 70.6184 5.38155C73.744 8.50716 75.5 12.7464 75.5 17.1667ZM67.7541 19.2187C67.6301 19.7568 67.2975 20.2235 66.8295 20.5165C66.3616 20.8095 65.7964 20.9047 65.2583 20.7812L51.475 17.6146C50.9362 17.4908 50.4687 17.1581 50.1753 16.6897C49.8819 16.2212 49.7866 15.6554 49.9104 15.1167C50.0341 14.5779 50.3668 14.1105 50.8353 13.817C51.3037 13.5236 51.8696 13.4283 52.4083 13.5521L66.1916 16.7208C66.4582 16.7822 66.7101 16.8956 66.933 17.0543C67.1558 17.2131 67.3451 17.4142 67.4902 17.6462C67.6353 17.8781 67.7333 18.1364 67.7786 18.4062C67.8239 18.676 67.8156 18.9521 67.7541 19.2187Z" fill="#18406D"/>
<path d="M22.9541 7.26041C21.6062 4.06874 17.0937 3.74791 15.2833 6.71249L1.10828 29.9062C-0.527137 32.5812 1.29995 35.9979 4.48953 36.225L29.2104 37.9875C32.3979 38.2167 34.7187 35.0958 33.502 32.2167L22.9541 7.26041Z" fill="#18406D"/>
<path fill-rule="evenodd" clip-rule="evenodd" d="M61.7187 63.75C64.7236 62.349 67.049 59.8117 68.1832 56.6963C69.3174 53.5808 69.1675 50.1424 67.7666 47.1375C67.0729 45.6496 66.093 44.3129 64.8827 43.2037C63.6724 42.0945 62.2555 41.2345 60.7129 40.6729C57.5975 39.5387 54.1591 39.6886 51.1541 41.0895L28.4958 51.6562C27.008 52.3499 25.6714 53.3298 24.5624 54.54C23.4533 55.7503 22.5935 57.1671 22.032 58.7096C21.4705 60.2521 21.2183 61.8901 21.2898 63.5301C21.3614 65.1701 21.7552 66.7799 22.4489 68.2677C23.1426 69.7554 24.1225 71.092 25.3327 72.2011C26.5429 73.3101 27.9598 74.1699 29.5023 74.7314C31.0448 75.293 32.6828 75.5451 34.3228 75.4736C35.9628 75.4021 37.5726 75.0082 39.0604 74.3145L61.7187 63.7479V63.75ZM50.3812 64.4375L59.9583 59.9729C61.9389 59.0251 63.4655 57.3339 64.2062 55.2668C64.9468 53.1997 64.8417 50.9238 63.9137 48.9338C62.9857 46.9438 61.3097 45.4005 59.2501 44.6393C57.1905 43.8781 54.9137 43.9605 52.9145 44.8687L43.3374 49.3333L50.3791 64.4375H50.3812Z" fill="#18406D"/>
</svg>
