<svg width="77" height="77" viewBox="0 0 77 77" fill="none" xmlns="http://www.w3.org/2000/svg">
<path d="M52.5414 36.4144L48.218 32.0908" stroke="#30446D" strokeWidth="1.86764" stroke-linecap="round" stroke-linejoin="round"/>
<path d="M52.5422 36.4144L56.8656 32.0908" stroke="#30446D" strokeWidth="1.86764" stroke-linecap="round" stroke-linejoin="round"/>
<path d="M37.9069 44.8671L32.0012 46.4495" stroke="#30446D" strokeWidth="1.86764" stroke-linecap="round" stroke-linejoin="round"/>
<path d="M37.9078 44.8669L36.3254 38.9609" stroke="#30446D" strokeWidth="1.86764" stroke-linecap="round" stroke-linejoin="round"/>
<path d="M23.7176 39.415L20.7171 47.526C18.9878 52.2084 16.2641 56.4585 12.7362 59.9865L1.88887 70.8344C0.708592 72.0147 0.708592 73.9344 1.88887 75.1147C3.06915 76.2951 4.98873 76.2951 6.16901 75.1147L17.012 64.2669C20.5399 60.7389 24.7898 58.015 29.472 56.2856L37.5826 53.285C42.2648 51.5556 46.5147 48.8317 50.0425 45.3037L72.1998 23.1454C77.2668 18.0781 77.2668 9.86765 72.1998 4.80042C67.1328 -0.266808 58.9227 -0.266808 53.8558 4.80042L31.6985 26.9544C28.1706 30.4825 25.4469 34.7369 23.7176 39.415Z" fill="white"/>
<path d="M1.88521 70.8342C0.70493 72.0146 0.70493 73.9342 1.88521 75.1146C3.06549 76.2949 4.98506 76.2949 6.16534 75.1146L12.2786 69.001L7.99845 64.7207L1.88521 70.8342Z" fill="#BCEBFF"/>
<path d="M49.2733 24.6675L37.0468 36.8946C35.6071 36.5098 34.0032 36.8816 32.8748 38.01C31.1843 39.7006 31.1843 42.4374 32.8748 44.1236C34.5652 45.8098 37.3019 45.8141 38.988 44.1236C40.1207 42.9908 40.4882 41.3911 40.1034 39.9513L52.3299 27.7242C53.173 26.8812 53.173 25.5106 52.3299 24.6675C51.4825 23.8244 50.1164 23.8244 49.2733 24.6675Z" fill="#42BA85"/>
<path d="M60.5527 1.23334C58.1013 1.70893 55.758 2.89359 53.8601 4.79596L31.6985 26.9543C28.1706 30.4823 25.4469 34.7324 23.7176 39.4148L20.7171 47.5259C18.9878 52.2083 16.2641 56.4584 12.7362 59.9864L1.88887 70.8343C0.708592 72.0146 0.708592 73.9343 1.88887 75.1146V75.1146C3.06915 76.295 4.98873 76.295 6.16901 75.1146L17.012 64.2668C20.5399 60.7387 24.7898 58.0149 29.472 56.2854L37.5826 53.2849C42.2648 51.5554 46.5147 48.8316 50.0425 45.3036L72.1998 23.1452C77.2668 18.078 77.2668 9.86752 72.1998 4.80029V4.80029C70.6175 3.21786 68.7281 2.12832 66.7221 1.53599" stroke="#30446D" strokeWidth="1.86764" stroke-linecap="round" stroke-linejoin="round"/>
<path d="M32.8711 44.1276C34.5615 45.8181 37.2982 45.8181 38.9843 44.1276C40.1171 42.9948 40.4845 41.3951 40.0998 39.9554L64.5571 15.4969C65.4001 14.6538 65.4001 13.2832 64.5571 12.4401C63.714 11.597 62.3435 11.597 61.5004 12.4401L42.9445 30.9969" stroke="#30446D" strokeWidth="1.86764" stroke-linecap="round" stroke-linejoin="round"/>
<path d="M8.00244 64.7166L10.1425 66.8567" stroke="#30446D" strokeWidth="1.86764" stroke-linecap="round" stroke-linejoin="round"/>
</svg>
