<svg width="18" height="26" viewBox="0 0 18 26" fill="none" xmlns="http://www.w3.org/2000/svg">
<g clip-path="url(#clip0_254_28)">
<path d="M1.47974 2.62762C1.47974 2.62762 3.52185 4.32859 6.87024 3.562C10.045 2.83766 13.0049 2.015 17.9776 3.85937V14.779C17.9776 14.779 13.404 12.5393 9.23793 13.5383C5.07182 14.5372 2.7164 14.1537 1.47974 12.8838" fill="#E21B1B"/>
<path d="M1.60957 1.90552H0.818359V26H1.60957V1.90552Z" fill="#E21B1B"/>
<path d="M1.22356 2.46634C1.88678 2.46634 2.42442 1.91423 2.42442 1.23317C2.42442 0.55211 1.88678 0 1.22356 0C0.560347 0 0.0227051 0.55211 0.0227051 1.23317C0.0227051 1.91423 0.560347 2.46634 1.22356 2.46634Z" fill="#3A3A3A"/>
</g>
<defs>
<clipPath id="clip0_254_28">
<rect width="18" height="26" fill="white"/>
</clipPath>
</defs>
</svg>
