<svg width="46" height="62" viewBox="0 0 46 62" fill="none" xmlns="http://www.w3.org/2000/svg">
<path d="M44.6338 43.4144L22.0215 21.5473L16.9282 7.76034C15.9529 5.11947 16.2367 3.0425 16.468 2.09329C16.6325 1.87478 16.6945 1.68447 16.6373 1.5294C16.3225 0.678874 12.5741 1.24511 8.2605 2.7911C3.94692 4.33708 0.706364 6.28014 1.02112 7.13067C1.07835 7.28574 1.25003 7.39146 1.5171 7.45725C2.31352 8.03758 3.88492 9.44965 4.86257 12.0905L9.95588 25.8775L6.89656 56.9476C6.62949 59.6731 9.3383 61.7407 11.947 60.8032L43.2794 49.5654C45.8905 48.6303 46.6178 45.3316 44.6338 43.4144Z" fill="white"/>
<path d="M11.946 60.8057L43.2785 49.5679C45.8895 48.6328 46.6144 45.3317 44.6329 43.4145L32.1643 31.3591L32.1595 31.3615C31.4895 30.7482 30.1971 30.4593 28.1583 31.298C25.1157 32.548 22.3592 34.8341 20.6232 36.272C18.358 36.2696 14.755 36.2649 11.6074 37.2353C9.49711 37.8861 8.69592 38.9269 8.58384 39.8221L8.57908 39.8245L6.89323 56.9548C6.62854 59.6732 9.33735 61.7408 11.946 60.8057Z" fill="#BCEBFF"/>
<path d="M12.5446 56.4495C13.2689 56.4495 13.8561 55.871 13.8561 55.1573C13.8561 54.4436 13.2689 53.8651 12.5446 53.8651C11.8203 53.8651 11.2332 54.4436 11.2332 55.1573C11.2332 55.871 11.8203 56.4495 12.5446 56.4495Z" fill="white"/>
<path d="M14.8083 45.1436C15.7959 45.1436 16.5966 44.3547 16.5966 43.3815C16.5966 42.4083 15.7959 41.6193 14.8083 41.6193C13.8206 41.6193 13.0199 42.4083 13.0199 43.3815C13.0199 44.3547 13.8206 45.1436 14.8083 45.1436Z" fill="white"/>
<path d="M21.8085 48.5269C22.6645 48.5269 23.3584 47.8431 23.3584 46.9997C23.3584 46.1562 22.6645 45.4725 21.8085 45.4725C20.9525 45.4725 20.2585 46.1562 20.2585 46.9997C20.2585 47.8431 20.9525 48.5269 21.8085 48.5269Z" fill="white"/>
<path d="M9.39796 5.86897C5.08438 7.41496 1.33592 7.98119 1.02117 7.13067C0.706411 6.28014 3.94935 4.33708 8.26054 2.7911C12.5741 1.24511 16.3226 0.678874 16.6373 1.5294C16.7923 1.94762 16.0841 2.63133 14.8084 3.40432" stroke="#30446D" strokeWidth="1.13972" stroke-linecap="round" stroke-linejoin="round"/>
<path d="M29.1218 28.4126L22.0207 21.5473L16.9274 7.7603C15.5801 4.11383 16.6341 1.52936 16.6341 1.52936" stroke="#30446D" strokeWidth="1.13972" stroke-linecap="round" stroke-linejoin="round"/>
<path d="M8.58602 39.775L6.8954 56.95C6.62833 59.6754 9.33714 61.743 11.9458 60.8056L18.8394 58.3339" stroke="#30446D" strokeWidth="1.13972" stroke-linecap="round" stroke-linejoin="round"/>
<path d="M1.01959 7.1283C1.01959 7.1283 3.51379 8.44168 4.86104 12.0881L9.95436 25.8751L9.12932 34.2559" stroke="#30446D" strokeWidth="1.13972" stroke-linecap="round" stroke-linejoin="round"/>
<path d="M32.5981 31.9745C32.9152 32.9613 32.3787 34.4627 29.6413 35.3062C26.4937 36.2765 22.8907 36.2718 20.6254 36.2695C18.3601 36.2671 14.7571 36.2624 11.6096 37.2328C9.4993 37.8836 8.6981 38.9244 8.58603 39.8196" stroke="#30446D" strokeWidth="1.13972" stroke-linecap="round" stroke-linejoin="round"/>
<path d="M23.3828 34.0868C24.792 33.053 26.4302 32.0075 28.1613 31.2956C30.8081 30.2077 32.1983 31.0183 32.5989 31.9746" stroke="#30446D" strokeWidth="1.13972" stroke-linecap="round" stroke-linejoin="round"/>
</svg>
