<svg width="30" height="30" viewBox="0 0 30 30" fill="none" xmlns="http://www.w3.org/2000/svg">
<g clip-path="url(#clip0_597_12805)">
<path d="M9.80314 13.5052C10.0019 13.5055 10.1928 13.4264 10.3333 13.2859C10.4739 13.1453 10.553 12.9544 10.5527 12.7557C10.5527 12.3416 10.8885 12.0058 11.3026 12.0058C11.7166 12.0058 12.0525 12.3416 12.0525 12.7557C12.0525 13.1697 12.388 13.5052 12.802 13.5052C13.2164 13.5052 13.5519 13.1697 13.5519 12.7557C13.5519 11.5132 12.5448 10.5063 11.3026 10.5063C10.0604 10.5063 9.05328 11.5132 9.05328 12.7557C9.05328 12.9544 9.13208 13.1453 9.27266 13.2859C9.41352 13.4264 9.60408 13.5055 9.80314 13.5052Z" fill="#1F2937"/>
<path d="M19.9646 18.4581C17.1645 19.8578 12.939 19.8578 10.1384 18.4581C9.76799 18.2727 9.31769 18.4229 9.13236 18.7933C8.94729 19.1637 9.09721 19.6143 9.46761 19.7994C11.2128 20.6225 13.1222 21.0371 15.0513 21.0119C16.9805 21.0371 18.8902 20.6223 20.6351 19.7994C21.0055 19.6143 21.1557 19.1637 20.9706 18.7933C20.7853 18.4229 20.335 18.2727 19.9646 18.4581Z" fill="#1F2937"/>
<path d="M27.7976 12.0057H27.0478V9.75644C27.0458 7.68697 25.3685 6.0096 23.299 6.00768H21.0497V4.36984C22.0824 4.00494 22.7021 2.94865 22.5167 1.86902C22.3314 0.789125 21.3954 0 20.2998 0C19.2043 0 18.2683 0.789125 18.0829 1.86902C17.8976 2.94865 18.5173 4.00494 19.55 4.36984V6.00768H10.5527V4.36984C11.5857 4.00494 12.2051 2.94865 12.02 1.86902C11.8347 0.789125 10.8987 0 9.80314 0C8.70759 0 7.77129 0.789125 7.58623 1.86902C7.40089 2.94865 8.02033 4.00494 9.05328 4.36984V6.00768H6.80397C4.73451 6.00987 3.05741 7.68697 3.05521 9.75644V12.0057H2.30535C1.06373 12.0071 0.0574146 13.0134 0.0560417 14.2551V17.2542C0.0574146 18.4958 1.06373 19.5022 2.30535 19.5035H3.05521V22.5024C3.05741 24.5722 4.73451 26.2493 6.80397 26.2515H10.5527V29.2504C10.553 29.523 10.701 29.774 10.9393 29.906C11.1777 30.0381 11.469 30.0304 11.6999 29.886L17.5159 26.2515H23.299C25.3685 26.2495 27.0458 24.5722 27.0478 22.5024V19.5035H27.7976C29.0392 19.5022 30.0456 18.4958 30.0469 17.2542V14.2551C30.0456 13.0134 29.0392 12.0071 27.7976 12.0057V12.0057ZM20.2998 1.50906C20.7139 1.50906 21.0497 1.84459 21.0497 2.25865C21.0497 2.67298 20.7139 3.00851 20.2998 3.00851C19.8858 3.00851 19.55 2.67298 19.55 2.25865C19.5508 1.84514 19.886 1.50988 20.2998 1.50906ZM9.80314 1.50906C10.2172 1.50906 10.5527 1.84459 10.5527 2.25865C10.5527 2.67298 10.2172 3.00851 9.80314 3.00851C9.38908 3.00851 9.05328 2.67298 9.05328 2.25865C9.05383 1.84486 9.38908 1.50961 9.80314 1.50906ZM2.30535 18.0038C1.89157 18.0035 1.55604 17.668 1.55549 17.2542V14.2551C1.55604 13.8413 1.89157 13.5057 2.30535 13.5052H3.05521V18.0038H2.30535ZM25.5483 22.5024C25.5469 23.7443 24.5406 24.7506 23.299 24.7517H17.3007C17.1603 24.7517 17.0228 24.7913 16.9039 24.866L12.0524 27.8973V25.5016C12.0524 25.3028 11.9736 25.112 11.8328 24.9714C11.6922 24.8308 11.5014 24.7517 11.3026 24.7517H6.80397C5.56235 24.7506 4.55603 23.7443 4.55466 22.5024V9.75644C4.55603 8.51481 5.56235 7.5085 6.80397 7.50713H23.299C24.5406 7.5085 25.5469 8.51481 25.5483 9.75644V22.5024ZM28.5472 17.2542C28.5467 17.668 28.2114 18.0033 27.7976 18.0038H27.0478V13.5052H27.7976C28.2114 13.506 28.5467 13.8413 28.5472 14.2551V17.2542Z" fill="#1F2937"/>
<path d="M18.8004 10.5063C17.5588 10.5077 16.5524 11.514 16.5511 12.7557C16.5511 13.1697 16.8866 13.5052 17.3007 13.5052C17.715 13.5052 18.0505 13.1697 18.0505 12.7557C18.0505 12.3416 18.3863 12.0058 18.8004 12.0058C19.2144 12.0058 19.55 12.3416 19.55 12.7557C19.55 13.1697 19.8858 13.5052 20.2998 13.5052C20.7139 13.5052 21.0497 13.1697 21.0497 12.7557C21.0483 11.514 20.042 10.5077 18.8004 10.5063V10.5063Z" fill="#1F2937"/>
</g>
<defs>
<clipPath id="clip0_597_12805">
<rect width="30" height="30" fill="white"/>
</clipPath>
</defs>
</svg>
