<svg width="28" height="28" viewBox="0 0 28 28" fill="none" xmlns="http://www.w3.org/2000/svg">
<g clip-path="url(#clip0_599_12828)">
<path d="M24.7188 12.6875H23.625V10.5C23.625 8.08763 21.6624 6.125 19.25 6.125V1.09375C19.25 0.489672 18.7603 0 18.1562 0C17.5522 0 17.0625 0.489672 17.0625 1.09375V6.125H6.5625V1.09375C6.5625 0.489672 6.07283 0 5.46875 0C4.86467 0 4.375 0.489672 4.375 1.09375V6.125C1.96263 6.125 0 8.08763 0 10.5V19.25C0 21.6624 1.96263 23.625 4.375 23.625H11.1407L15.1954 27.6796C15.5088 27.9931 15.9794 28.0857 16.3873 27.9167C16.7961 27.7475 17.0625 27.3486 17.0625 26.9062V23.625H19.25C21.6624 23.625 23.625 21.6624 23.625 19.25H24.7188C26.528 19.25 28 17.778 28 15.9688C28 14.1595 26.528 12.6875 24.7188 12.6875ZM19.25 21.4375H15.9688C15.3647 21.4375 14.875 21.9272 14.875 22.5312V24.2657L12.3671 21.7579C12.1621 21.5527 11.8838 21.4375 11.5938 21.4375H4.375C3.16881 21.4375 2.1875 20.4562 2.1875 19.25V10.5C2.1875 9.29381 3.16881 8.3125 4.375 8.3125H19.25C20.4562 8.3125 21.4375 9.29381 21.4375 10.5V17.0625H18.1562C17.5522 17.0625 17.0625 17.5522 17.0625 18.1562C17.0625 18.7603 17.5522 19.25 18.1562 19.25H21.4375C21.4375 20.4562 20.4562 21.4375 19.25 21.4375ZM24.7188 17.0625H23.625V14.875H24.7188C25.3218 14.875 25.8125 15.3657 25.8125 15.9688C25.8125 16.5718 25.3218 17.0625 24.7188 17.0625Z" fill="#293543"/>
<path d="M7.65625 10.5C7.05217 10.5 6.5625 10.9897 6.5625 11.5938V13.7812C6.5625 14.3853 7.05217 14.875 7.65625 14.875C8.26033 14.875 8.75 14.3853 8.75 13.7812V11.5938C8.75 10.9897 8.26033 10.5 7.65625 10.5Z" fill="#293543"/>
<path d="M17.0625 11.5938C17.0625 10.9897 16.5728 10.5 15.9688 10.5C15.3647 10.5 14.875 10.9897 14.875 11.5938V13.7812C14.875 14.3853 15.3647 14.875 15.9688 14.875C16.5728 14.875 17.0625 14.3853 17.0625 13.7812V11.5938Z" fill="#293543"/>
<path d="M13.7812 19.25H9.84375C9.23967 19.25 8.75 18.7603 8.75 18.1562C8.75 17.5522 9.23967 17.0625 9.84375 17.0625H13.7812C14.3853 17.0625 14.875 17.5522 14.875 18.1562C14.875 18.7603 14.3853 19.25 13.7812 19.25Z" fill="#293543"/>
</g>
<defs>
<clipPath id="clip0_599_12828">
<rect width="28" height="28" fill="white"/>
</clipPath>
</defs>
</svg>
