<svg width="136" height="16" viewBox="0 0 136 16" fill="none" xmlns="http://www.w3.org/2000/svg">
<path d="M5.09219 12.16C3.63085 12.16 2.48952 11.7813 1.66819 11.024C0.857521 10.2667 0.425521 9.21067 0.372188 7.856C0.361521 7.54667 0.356188 7.05067 0.356188 6.368C0.356188 5.68533 0.361521 5.18933 0.372188 4.88C0.425521 3.55733 0.862854 2.52267 1.68419 1.776C2.51619 1.01867 3.65219 0.639999 5.09219 0.639999C6.07352 0.639999 6.91619 0.805333 7.62019 1.136C8.32419 1.46667 8.85752 1.88267 9.22019 2.384C9.58285 2.87467 9.77485 3.36 9.79619 3.84V3.872C9.79619 3.95733 9.76419 4.032 9.70019 4.096C9.63619 4.14933 9.55619 4.176 9.46019 4.176H7.81219C7.70552 4.176 7.62552 4.16 7.57219 4.128C7.51885 4.08533 7.47085 4.016 7.42819 3.92C7.27885 3.52533 7.01752 3.18933 6.64419 2.912C6.27085 2.624 5.75352 2.48 5.09219 2.48C4.34552 2.48 3.75885 2.68267 3.33219 3.088C2.91619 3.49333 2.69219 4.11733 2.66019 4.96C2.64952 5.26933 2.64419 5.73867 2.64419 6.368C2.64419 6.98667 2.64952 7.456 2.66019 7.776C2.72419 9.472 3.54552 10.32 5.12419 10.32C5.88152 10.32 6.48952 10.1173 6.94819 9.712C7.40685 9.296 7.63619 8.68267 7.63619 7.872V7.376H5.68419C5.56685 7.376 5.47085 7.33867 5.39619 7.264C5.33219 7.18933 5.30019 7.09333 5.30019 6.976V6.128C5.30019 6.01067 5.33219 5.91467 5.39619 5.84C5.47085 5.76533 5.56685 5.728 5.68419 5.728H9.50819C9.62552 5.728 9.71619 5.76533 9.78019 5.84C9.85485 5.91467 9.89219 6.01067 9.89219 6.128V7.808C9.89219 8.69333 9.69485 9.46667 9.30019 10.128C8.91619 10.7787 8.36152 11.28 7.63619 11.632C6.91085 11.984 6.06285 12.16 5.09219 12.16ZM15.3353 12.16C14.1513 12.16 13.2073 11.8187 12.5033 11.136C11.81 10.4427 11.442 9.472 11.3993 8.224L11.3833 7.824L11.3993 7.424C11.4526 6.208 11.826 5.25333 12.5193 4.56C13.2233 3.86667 14.162 3.52 15.3353 3.52C16.594 3.52 17.5646 3.904 18.2473 4.672C18.9406 5.44 19.2873 6.464 19.2873 7.744V8.08C19.2873 8.18667 19.25 8.27733 19.1753 8.352C19.1006 8.42667 19.0046 8.464 18.8873 8.464H13.5753V8.592C13.5966 9.17867 13.7566 9.67467 14.0553 10.08C14.3646 10.4747 14.786 10.672 15.3193 10.672C15.9486 10.672 16.4553 10.4267 16.8393 9.936C16.9353 9.81867 17.01 9.744 17.0633 9.712C17.1273 9.68 17.218 9.664 17.3353 9.664H18.7113C18.8073 9.664 18.8873 9.696 18.9513 9.76C19.026 9.81333 19.0633 9.88267 19.0633 9.968C19.0633 10.224 18.9086 10.528 18.5993 10.88C18.3006 11.2213 17.8686 11.52 17.3033 11.776C16.738 12.032 16.082 12.16 15.3353 12.16ZM17.1113 7.12V7.072C17.1113 6.44267 16.9513 5.936 16.6313 5.552C16.322 5.168 15.89 4.976 15.3353 4.976C14.7806 4.976 14.3486 5.168 14.0393 5.552C13.73 5.936 13.5753 6.44267 13.5753 7.072V7.12H17.1113ZM21.3697 12C21.263 12 21.1724 11.9627 21.0977 11.888C21.023 11.8133 20.9857 11.7227 20.9857 11.616V4.064C20.9857 3.95733 21.023 3.86667 21.0977 3.792C21.1724 3.71733 21.263 3.68 21.3697 3.68H22.6817C22.7884 3.68 22.879 3.71733 22.9537 3.792C23.0284 3.86667 23.0657 3.95733 23.0657 4.064V4.72C23.695 3.92 24.5857 3.52 25.7377 3.52C26.719 3.52 27.4977 3.84533 28.0737 4.496C28.6497 5.136 28.9377 6.01067 28.9377 7.12V11.616C28.9377 11.7227 28.9004 11.8133 28.8257 11.888C28.7617 11.9627 28.671 12 28.5537 12H27.1457C27.039 12 26.9484 11.9627 26.8737 11.888C26.799 11.8133 26.7617 11.7227 26.7617 11.616V7.216C26.7617 6.58667 26.607 6.10133 26.2977 5.76C25.999 5.408 25.5617 5.232 24.9857 5.232C24.4204 5.232 23.9724 5.408 23.6417 5.76C23.3217 6.112 23.1617 6.59733 23.1617 7.216V11.616C23.1617 11.7227 23.1244 11.8133 23.0497 11.888C22.9857 11.9627 22.895 12 22.7777 12H21.3697ZM34.5541 12.16C33.3701 12.16 32.4261 11.8187 31.7221 11.136C31.0287 10.4427 30.6607 9.472 30.6181 8.224L30.6021 7.824L30.6181 7.424C30.6714 6.208 31.0447 5.25333 31.7381 4.56C32.4421 3.86667 33.3807 3.52 34.5541 3.52C35.8127 3.52 36.7834 3.904 37.4661 4.672C38.1594 5.44 38.5061 6.464 38.5061 7.744V8.08C38.5061 8.18667 38.4687 8.27733 38.3941 8.352C38.3194 8.42667 38.2234 8.464 38.1061 8.464H32.7941V8.592C32.8154 9.17867 32.9754 9.67467 33.2741 10.08C33.5834 10.4747 34.0047 10.672 34.5381 10.672C35.1674 10.672 35.6741 10.4267 36.0581 9.936C36.1541 9.81867 36.2287 9.744 36.2821 9.712C36.3461 9.68 36.4367 9.664 36.5541 9.664H37.9301C38.0261 9.664 38.1061 9.696 38.1701 9.76C38.2447 9.81333 38.2821 9.88267 38.2821 9.968C38.2821 10.224 38.1274 10.528 37.8181 10.88C37.5194 11.2213 37.0874 11.52 36.5221 11.776C35.9567 12.032 35.3007 12.16 34.5541 12.16ZM36.3301 7.12V7.072C36.3301 6.44267 36.1701 5.936 35.8501 5.552C35.5407 5.168 35.1087 4.976 34.5541 4.976C33.9994 4.976 33.5674 5.168 33.2581 5.552C32.9487 5.936 32.7941 6.44267 32.7941 7.072V7.12H36.3301ZM40.5884 12C40.4818 12 40.3911 11.9627 40.3164 11.888C40.2418 11.8133 40.2044 11.7227 40.2044 11.616V4.08C40.2044 3.97333 40.2418 3.88267 40.3164 3.808C40.3911 3.72267 40.4818 3.68 40.5884 3.68H41.8844C42.0018 3.68 42.0978 3.71733 42.1724 3.792C42.2471 3.86667 42.2844 3.96267 42.2844 4.08V4.736C42.5404 4.39467 42.8604 4.13333 43.2444 3.952C43.6391 3.77067 44.0871 3.68 44.5884 3.68H45.2444C45.3618 3.68 45.4524 3.71733 45.5164 3.792C45.5911 3.856 45.6284 3.94667 45.6284 4.064V5.216C45.6284 5.32267 45.5911 5.41333 45.5164 5.488C45.4524 5.56267 45.3618 5.6 45.2444 5.6H43.9964C43.4951 5.6 43.1004 5.744 42.8124 6.032C42.5244 6.32 42.3804 6.71467 42.3804 7.216V11.616C42.3804 11.7227 42.3431 11.8133 42.2684 11.888C42.1938 11.9627 42.0978 12 41.9804 12H40.5884ZM49.1673 12.16C48.6233 12.16 48.122 12.0533 47.6633 11.84C47.2153 11.616 46.858 11.3173 46.5913 10.944C46.3353 10.5707 46.2073 10.16 46.2073 9.712C46.2073 8.98667 46.5006 8.4 47.0873 7.952C47.674 7.504 48.4793 7.2 49.5033 7.04L51.6953 6.72V6.384C51.6953 5.91467 51.578 5.56267 51.3433 5.328C51.1086 5.09333 50.73 4.976 50.2073 4.976C49.8553 4.976 49.5673 5.04533 49.3433 5.184C49.13 5.312 48.9593 5.44 48.8313 5.568C48.7033 5.70667 48.618 5.79733 48.5753 5.84C48.5326 5.968 48.4526 6.032 48.3353 6.032H47.1033C47.0073 6.032 46.922 6 46.8473 5.936C46.7833 5.872 46.7513 5.78667 46.7513 5.68C46.762 5.41333 46.89 5.10933 47.1353 4.768C47.3913 4.42667 47.7806 4.13333 48.3033 3.888C48.826 3.64267 49.466 3.52 50.2233 3.52C51.482 3.52 52.3993 3.80267 52.9753 4.368C53.5513 4.93333 53.8393 5.67467 53.8393 6.592V11.616C53.8393 11.7227 53.802 11.8133 53.7273 11.888C53.6633 11.9627 53.5726 12 53.4553 12H52.1593C52.0526 12 51.962 11.9627 51.8873 11.888C51.8126 11.8133 51.7753 11.7227 51.7753 11.616V10.992C51.5406 11.3333 51.2046 11.616 50.7673 11.84C50.3406 12.0533 49.8073 12.16 49.1673 12.16ZM49.7113 10.64C50.298 10.64 50.778 10.448 51.1513 10.064C51.5246 9.68 51.7113 9.12 51.7113 8.384V8.048L50.1113 8.304C49.4926 8.4 49.0233 8.55467 48.7033 8.768C48.394 8.98133 48.2393 9.24267 48.2393 9.552C48.2393 9.89333 48.3833 10.16 48.6713 10.352C48.9593 10.544 49.306 10.64 49.7113 10.64ZM56.2919 12C56.1853 12 56.0946 11.9627 56.0199 11.888C55.9453 11.8133 55.9079 11.7227 55.9079 11.616V1.024C55.9079 0.906666 55.9453 0.816 56.0199 0.752C56.0946 0.677333 56.1853 0.639999 56.2919 0.639999H57.6199C57.7373 0.639999 57.8279 0.677333 57.8919 0.752C57.9666 0.816 58.0039 0.906666 58.0039 1.024V11.616C58.0039 11.7227 57.9666 11.8133 57.8919 11.888C57.8279 11.9627 57.7373 12 57.6199 12H56.2919ZM64.1826 15.04C64.0759 15.04 63.9852 15.0027 63.9106 14.928C63.8359 14.864 63.7986 14.7733 63.7986 14.656V4.064C63.7986 3.94667 63.8359 3.856 63.9106 3.792C63.9852 3.71733 64.0759 3.68 64.1826 3.68H65.4466C65.5639 3.68 65.6546 3.71733 65.7186 3.792C65.7932 3.856 65.8306 3.94667 65.8306 4.064V4.704C66.4279 3.91467 67.2812 3.52 68.3906 3.52C69.4679 3.52 70.2946 3.86133 70.8706 4.544C71.4466 5.216 71.7559 6.128 71.7986 7.28C71.8092 7.408 71.8146 7.59467 71.8146 7.84C71.8146 8.096 71.8092 8.288 71.7986 8.416C71.7559 9.536 71.4466 10.4427 70.8706 11.136C70.2946 11.8187 69.4679 12.16 68.3906 12.16C67.3132 12.16 66.4919 11.7813 65.9266 11.024V14.656C65.9266 14.7733 65.8892 14.864 65.8146 14.928C65.7506 15.0027 65.6599 15.04 65.5426 15.04H64.1826ZM67.7986 10.448C68.9506 10.448 69.5639 9.73867 69.6386 8.32C69.6492 8.21333 69.6546 8.05333 69.6546 7.84C69.6546 7.62667 69.6492 7.46667 69.6386 7.36C69.5639 5.94133 68.9506 5.232 67.7986 5.232C67.1799 5.232 66.7212 5.42933 66.4226 5.824C66.1239 6.21867 65.9586 6.704 65.9266 7.28L65.9106 7.888L65.9266 8.512C65.9479 9.04533 66.1132 9.504 66.4226 9.888C66.7426 10.2613 67.2012 10.448 67.7986 10.448ZM74.0107 12C73.904 12 73.8134 11.9627 73.7387 11.888C73.664 11.8133 73.6267 11.7227 73.6267 11.616V1.024C73.6267 0.906666 73.664 0.816 73.7387 0.752C73.8134 0.677333 73.904 0.639999 74.0107 0.639999H75.4347C75.552 0.639999 75.6427 0.677333 75.7067 0.752C75.7814 0.816 75.8187 0.906666 75.8187 1.024V4.672C76.4587 3.904 77.3227 3.52 78.4107 3.52C79.392 3.52 80.176 3.84533 80.7627 4.496C81.3494 5.136 81.6427 6.01067 81.6427 7.12V11.616C81.6427 11.7227 81.6054 11.8133 81.5307 11.888C81.4667 11.9627 81.376 12 81.2587 12H79.8187C79.712 12 79.6214 11.9627 79.5467 11.888C79.472 11.8133 79.4347 11.7227 79.4347 11.616V7.216C79.4347 6.58667 79.28 6.10133 78.9707 5.76C78.672 5.408 78.2347 5.232 77.6587 5.232C77.0934 5.232 76.6454 5.408 76.3147 5.76C75.984 6.112 75.8187 6.59733 75.8187 7.216V11.616C75.8187 11.7227 75.7814 11.8133 75.7067 11.888C75.6427 11.9627 75.552 12 75.4347 12H74.0107ZM84.9116 15.04C84.8262 15.04 84.7516 15.008 84.6876 14.944C84.6236 14.88 84.5916 14.8053 84.5916 14.72C84.5916 14.624 84.6129 14.5387 84.6556 14.464L85.9036 11.504L82.8316 4.256C82.7889 4.16 82.7676 4.08533 82.7676 4.032C82.7782 3.936 82.8156 3.856 82.8796 3.792C82.9436 3.71733 83.0236 3.68 83.1196 3.68H84.4156C84.6182 3.68 84.7622 3.78133 84.8476 3.984L86.9756 9.216L89.1676 3.984C89.2529 3.78133 89.3969 3.68 89.5996 3.68H90.8796C90.9649 3.68 91.0396 3.712 91.1036 3.776C91.1782 3.84 91.2156 3.91467 91.2156 4C91.2156 4.07467 91.1942 4.16 91.1516 4.256L86.6236 14.736C86.5276 14.9387 86.3782 15.04 86.1756 15.04H84.9116ZM95.4971 12.16C94.6971 12.16 94.0251 12.0427 93.4811 11.808C92.9371 11.5627 92.5317 11.28 92.2651 10.96C92.0091 10.6293 91.8811 10.3467 91.8811 10.112C91.8811 10.0053 91.9184 9.92 91.9931 9.856C92.0677 9.792 92.1531 9.76 92.2491 9.76H93.5131C93.6091 9.76 93.6891 9.79733 93.7531 9.872C93.7957 9.904 93.9077 10 94.0891 10.16C94.2704 10.3307 94.4837 10.464 94.7291 10.56C94.9744 10.656 95.2464 10.704 95.5451 10.704C95.9717 10.704 96.3237 10.6187 96.6011 10.448C96.8784 10.2773 97.0171 10.0427 97.0171 9.744C97.0171 9.52 96.9531 9.33867 96.8251 9.2C96.7077 9.06133 96.4891 8.93867 96.1691 8.832C95.8491 8.71467 95.3744 8.592 94.7451 8.464C93.8384 8.272 93.1664 7.97867 92.7291 7.584C92.3024 7.18933 92.0891 6.66667 92.0891 6.016C92.0891 5.58933 92.2171 5.18933 92.4731 4.816C92.7291 4.432 93.1077 4.12267 93.6091 3.888C94.1211 3.64267 94.7291 3.52 95.4331 3.52C96.1477 3.52 96.7664 3.63733 97.2891 3.872C97.8117 4.096 98.2064 4.368 98.4731 4.688C98.7504 4.99733 98.8891 5.27467 98.8891 5.52C98.8891 5.616 98.8517 5.70133 98.7771 5.776C98.7131 5.84 98.6331 5.872 98.5371 5.872H97.3531C97.2677 5.872 97.1771 5.83467 97.0811 5.76C97.0064 5.70667 96.8891 5.60533 96.7291 5.456C96.5691 5.30667 96.3824 5.18933 96.1691 5.104C95.9557 5.01867 95.7051 4.976 95.4171 4.976C95.0224 4.976 94.7131 5.06133 94.4891 5.232C94.2757 5.40267 94.1691 5.62667 94.1691 5.904C94.1691 6.10667 94.2224 6.272 94.3291 6.4C94.4357 6.528 94.6437 6.65067 94.9531 6.768C95.2624 6.88533 95.7264 7.00267 96.3451 7.12C97.3691 7.32267 98.0997 7.63733 98.5371 8.064C98.9851 8.49067 99.2091 9.01333 99.2091 9.632C99.2091 10.3787 98.8837 10.9867 98.2331 11.456C97.5824 11.9253 96.6704 12.16 95.4971 12.16ZM101.181 2.304C101.074 2.304 100.983 2.26667 100.909 2.192C100.834 2.11733 100.797 2.02667 100.797 1.92V0.768C100.797 0.661333 100.834 0.570666 100.909 0.495999C100.983 0.421333 101.074 0.384 101.181 0.384H102.637C102.743 0.384 102.834 0.421333 102.909 0.495999C102.994 0.570666 103.037 0.661333 103.037 0.768V1.92C103.037 2.02667 102.999 2.11733 102.925 2.192C102.85 2.26667 102.754 2.304 102.637 2.304H101.181ZM101.245 12C101.138 12 101.047 11.9627 100.973 11.888C100.898 11.8133 100.861 11.7227 100.861 11.616V4.064C100.861 3.95733 100.898 3.86667 100.973 3.792C101.047 3.71733 101.138 3.68 101.245 3.68H102.573C102.69 3.68 102.781 3.71733 102.845 3.792C102.919 3.856 102.957 3.94667 102.957 4.064V11.616C102.957 11.7227 102.919 11.8133 102.845 11.888C102.781 11.9627 102.69 12 102.573 12H101.245ZM108.679 12.16C107.506 12.16 106.567 11.8347 105.863 11.184C105.17 10.5333 104.802 9.632 104.759 8.48L104.743 7.84L104.759 7.2C104.802 6.048 105.17 5.14667 105.863 4.496C106.567 3.84533 107.506 3.52 108.679 3.52C109.511 3.52 110.215 3.66933 110.791 3.968C111.378 4.26667 111.81 4.63467 112.087 5.072C112.375 5.49867 112.53 5.904 112.551 6.288C112.562 6.39467 112.525 6.48533 112.439 6.56C112.365 6.63467 112.274 6.672 112.167 6.672H110.759C110.653 6.672 110.567 6.65067 110.503 6.608C110.45 6.55467 110.397 6.46933 110.343 6.352C110.183 5.936 109.97 5.63733 109.703 5.456C109.447 5.27467 109.117 5.184 108.711 5.184C108.167 5.184 107.741 5.36 107.431 5.712C107.122 6.05333 106.957 6.576 106.935 7.28L106.919 7.872L106.935 8.4C106.978 9.79733 107.57 10.496 108.711 10.496C109.127 10.496 109.463 10.4053 109.719 10.224C109.975 10.0427 110.183 9.744 110.343 9.328C110.397 9.21067 110.45 9.13067 110.503 9.088C110.567 9.03467 110.653 9.008 110.759 9.008H112.167C112.274 9.008 112.365 9.04533 112.439 9.12C112.525 9.19467 112.562 9.28533 112.551 9.392C112.53 9.76533 112.381 10.1653 112.103 10.592C111.826 11.0187 111.399 11.3867 110.823 11.696C110.247 12.0053 109.533 12.16 108.679 12.16ZM114.54 2.304C114.433 2.304 114.343 2.26667 114.268 2.192C114.193 2.11733 114.156 2.02667 114.156 1.92V0.768C114.156 0.661333 114.193 0.570666 114.268 0.495999C114.343 0.421333 114.433 0.384 114.54 0.384H115.996C116.103 0.384 116.193 0.421333 116.268 0.495999C116.353 0.570666 116.396 0.661333 116.396 0.768V1.92C116.396 2.02667 116.359 2.11733 116.284 2.192C116.209 2.26667 116.113 2.304 115.996 2.304H114.54ZM114.604 12C114.497 12 114.407 11.9627 114.332 11.888C114.257 11.8133 114.22 11.7227 114.22 11.616V4.064C114.22 3.95733 114.257 3.86667 114.332 3.792C114.407 3.71733 114.497 3.68 114.604 3.68H115.932C116.049 3.68 116.14 3.71733 116.204 3.792C116.279 3.856 116.316 3.94667 116.316 4.064V11.616C116.316 11.7227 116.279 11.8133 116.204 11.888C116.14 11.9627 116.049 12 115.932 12H114.604ZM120.855 12.16C120.311 12.16 119.809 12.0533 119.351 11.84C118.903 11.616 118.545 11.3173 118.279 10.944C118.023 10.5707 117.895 10.16 117.895 9.712C117.895 8.98667 118.188 8.4 118.775 7.952C119.361 7.504 120.167 7.2 121.191 7.04L123.383 6.72V6.384C123.383 5.91467 123.265 5.56267 123.031 5.328C122.796 5.09333 122.417 4.976 121.895 4.976C121.543 4.976 121.255 5.04533 121.031 5.184C120.817 5.312 120.647 5.44 120.519 5.568C120.391 5.70667 120.305 5.79733 120.263 5.84C120.22 5.968 120.14 6.032 120.023 6.032H118.791C118.695 6.032 118.609 6 118.535 5.936C118.471 5.872 118.439 5.78667 118.439 5.68C118.449 5.41333 118.577 5.10933 118.823 4.768C119.079 4.42667 119.468 4.13333 119.991 3.888C120.513 3.64267 121.153 3.52 121.911 3.52C123.169 3.52 124.087 3.80267 124.663 4.368C125.239 4.93333 125.527 5.67467 125.527 6.592V11.616C125.527 11.7227 125.489 11.8133 125.415 11.888C125.351 11.9627 125.26 12 125.143 12H123.847C123.74 12 123.649 11.9627 123.575 11.888C123.5 11.8133 123.463 11.7227 123.463 11.616V10.992C123.228 11.3333 122.892 11.616 122.455 11.84C122.028 12.0533 121.495 12.16 120.855 12.16ZM121.399 10.64C121.985 10.64 122.465 10.448 122.839 10.064C123.212 9.68 123.399 9.12 123.399 8.384V8.048L121.799 8.304C121.18 8.4 120.711 8.55467 120.391 8.768C120.081 8.98133 119.927 9.24267 119.927 9.552C119.927 9.89333 120.071 10.16 120.359 10.352C120.647 10.544 120.993 10.64 121.399 10.64ZM127.963 12C127.857 12 127.766 11.9627 127.691 11.888C127.617 11.8133 127.579 11.7227 127.579 11.616V4.064C127.579 3.95733 127.617 3.86667 127.691 3.792C127.766 3.71733 127.857 3.68 127.963 3.68H129.275C129.382 3.68 129.473 3.71733 129.547 3.792C129.622 3.86667 129.659 3.95733 129.659 4.064V4.72C130.289 3.92 131.179 3.52 132.331 3.52C133.313 3.52 134.091 3.84533 134.667 4.496C135.243 5.136 135.531 6.01067 135.531 7.12V11.616C135.531 11.7227 135.494 11.8133 135.419 11.888C135.355 11.9627 135.265 12 135.147 12H133.739C133.633 12 133.542 11.9627 133.467 11.888C133.393 11.8133 133.355 11.7227 133.355 11.616V7.216C133.355 6.58667 133.201 6.10133 132.891 5.76C132.593 5.408 132.155 5.232 131.579 5.232C131.014 5.232 130.566 5.408 130.235 5.76C129.915 6.112 129.755 6.59733 129.755 7.216V11.616C129.755 11.7227 129.718 11.8133 129.643 11.888C129.579 11.9627 129.489 12 129.371 12H127.963Z" fill="#005D8D"/>
</svg>
