<svg width="24" height="24" viewBox="0 0 24 24" fill="none" xmlns="http://www.w3.org/2000/svg">
<path d="M14.39 13.0605L15.77 11.0005H17.5C17.6326 11.0005 17.7598 10.9479 17.8536 10.8541C17.9473 10.7603 18 10.6331 18 10.5005C18 10.3679 17.9473 10.2407 17.8536 10.147C17.7598 10.0532 17.6326 10.0005 17.5 10.0005H15.5C15.4174 10.0005 15.336 10.0204 15.2629 10.0588C15.1897 10.0971 15.127 10.1526 15.08 10.2205L13.56 12.5105L11.33 8.05053C11.2517 7.89435 11.1339 7.76138 10.9883 7.66489C10.8427 7.56839 10.6743 7.51172 10.5 7.50053C10.3254 7.4835 10.1495 7.51569 9.99217 7.59345C9.83488 7.67121 9.7025 7.79144 9.61 7.94053L8.23 10.0005H6.5C6.36739 10.0005 6.24021 10.0532 6.14645 10.147C6.05268 10.2407 6 10.3679 6 10.5005C6 10.6331 6.05268 10.7603 6.14645 10.8541C6.24021 10.9479 6.36739 11.0005 6.5 11.0005H8.5C8.58259 11.0006 8.66396 10.9806 8.73712 10.9423C8.81028 10.904 8.87304 10.8485 8.92 10.7805L10.44 8.49053L12.67 13.0005C12.7483 13.1567 12.8661 13.2897 13.0117 13.3862C13.1573 13.4827 13.3257 13.5393 13.5 13.5505H13.56C13.7284 13.5454 13.8928 13.4978 14.0379 13.4121C14.183 13.3265 14.3041 13.2055 14.39 13.0605Z" fill="#005D8D"/>
<path d="M21.2699 4.08032C20.7281 3.52544 20.0812 3.08402 19.3669 2.78185C18.6527 2.47967 17.8854 2.32277 17.1099 2.32032C16.3317 2.31881 15.5611 2.47284 14.8432 2.77336C14.1254 3.07389 13.4749 3.51484 12.9299 4.07032L11.9999 5.00032L11.0799 4.07032C10.5346 3.51672 9.88472 3.07708 9.16797 2.777C8.45121 2.47691 7.68193 2.32238 6.9049 2.32238C6.12786 2.32238 5.35858 2.47691 4.64183 2.777C3.92507 3.07708 3.27516 3.51672 2.7299 4.07032C1.62149 5.19322 1 6.70752 1 8.28532C1 9.86313 1.62149 11.3774 2.7299 12.5003L11.6399 21.5003C11.7353 21.596 11.8648 21.65 11.9999 21.6503C12.0653 21.6499 12.13 21.6365 12.1901 21.6107C12.2502 21.585 12.3045 21.5474 12.3499 21.5003C12.3965 21.4547 12.4335 21.4002 12.4587 21.3401C12.484 21.28 12.497 21.2155 12.497 21.1503C12.497 21.0851 12.484 21.0206 12.4587 20.9605C12.4335 20.9004 12.3965 20.8459 12.3499 20.8003L3.4299 11.8003C2.51376 10.8657 2.00061 9.60909 2.00061 8.30032C2.00061 6.99156 2.51376 5.73497 3.4299 4.80032C3.88079 4.33799 4.41965 3.97056 5.01474 3.71969C5.60982 3.46882 6.24909 3.33958 6.8949 3.33958C7.5407 3.33958 8.17997 3.46882 8.77506 3.71969C9.37014 3.97056 9.909 4.33799 10.3599 4.80032L11.6299 6.09032C11.7279 6.18099 11.8564 6.23135 11.9899 6.23135C12.1234 6.23135 12.2519 6.18099 12.3499 6.09032L13.6199 4.80032C14.0713 4.33315 14.6119 3.96141 15.2097 3.70717C15.8075 3.45294 16.4503 3.32139 17.0999 3.32032C17.7435 3.31997 18.3805 3.44904 18.9732 3.69986C19.5659 3.95067 20.1021 4.31811 20.5499 4.78032C21.466 5.71497 21.9792 6.97156 21.9792 8.28032C21.9792 9.58909 21.466 10.8457 20.5499 11.7803L14.3399 18.0603C14.293 18.1068 14.2558 18.1621 14.2305 18.223C14.2051 18.284 14.192 18.3493 14.192 18.4153C14.192 18.4813 14.2051 18.5467 14.2305 18.6076C14.2558 18.6685 14.293 18.7238 14.3399 18.7703C14.3855 18.8169 14.44 18.8539 14.5001 18.8791C14.5602 18.9044 14.6247 18.9174 14.6899 18.9174C14.7551 18.9174 14.8196 18.9044 14.8797 18.8791C14.9398 18.8539 14.9943 18.8169 15.0399 18.7703L21.2499 12.4803C22.3553 11.3579 22.9749 9.84569 22.9749 8.27032C22.9749 6.69495 22.3553 5.18278 21.2499 4.06032L21.2699 4.08032Z" fill="#005D8D"/>
</svg>
