<svg width="8" height="21" viewBox="0 0 8 21" fill="none" xmlns="http://www.w3.org/2000/svg">
<path d="M21.8966 6.84947C21.8966 3.63721 19.2933 1.03387 16.081 1.03387C13.8573 1.03387 11.927 2.28131 10.9483 4.11547C9.96958 2.28377 8.03927 1.03387 5.81559 1.03387C2.60333 1.03387 0 3.63721 0 6.84947C0 8.53818 0.719861 10.0593 1.87115 11.1218L10.9483 19.5062L20.0255 11.1218L20.0181 11.1193C21.1718 10.0593 21.8966 8.54065 21.8966 6.84947Z" fill="#42BA85"/>
<path d="M7.53458 16.3557L10.949 19.5113L20.0261 11.1269L20.0187 11.1244C21.17 10.0619 21.8948 8.54325 21.8948 6.85453C21.8948 3.64227 19.2915 1.03894 16.0792 1.03894C13.8556 1.03894 11.9252 2.28637 10.9465 4.12054C9.96781 2.28884 8.0375 1.03894 5.81381 1.03894C4.27302 1.03894 2.87027 1.638 1.82993 2.61672" stroke="#30446D" strokeWidth="0.986111" stroke-linecap="round" stroke-linejoin="round"/>
</svg>
