<svg width="24" height="24" viewBox="0 0 24 24" fill="none" xmlns="http://www.w3.org/2000/svg">
<path d="M14.39 13.06L15.77 11H17.5C17.6326 11 17.7598 10.9474 17.8536 10.8536C17.9473 10.7598 18 10.6327 18 10.5C18 10.3674 17.9473 10.2403 17.8536 10.1465C17.7598 10.0527 17.6326 10 17.5 10H15.5C15.4174 9.99997 15.336 10.0199 15.2629 10.0583C15.1897 10.0966 15.127 10.1521 15.08 10.22L13.56 12.51L11.33 8.05004C11.2517 7.89386 11.1339 7.7609 10.9883 7.6644C10.8427 7.5679 10.6743 7.51124 10.5 7.50004C10.3254 7.48301 10.1495 7.5152 9.99217 7.59296C9.83488 7.67072 9.7025 7.79095 9.61 7.94004L8.23 10H6.5C6.36739 10 6.24021 10.0527 6.14645 10.1465C6.05268 10.2403 6 10.3674 6 10.5C6 10.6327 6.05268 10.7598 6.14645 10.8536C6.24021 10.9474 6.36739 11 6.5 11H8.5C8.58259 11.0001 8.66396 10.9801 8.73712 10.9418C8.81028 10.9035 8.87304 10.848 8.92 10.78L10.44 8.49004L12.67 13C12.7483 13.1562 12.8661 13.2892 13.0117 13.3857C13.1573 13.4822 13.3257 13.5388 13.5 13.55H13.56C13.7284 13.5449 13.8928 13.4973 14.0379 13.4116C14.183 13.326 14.3041 13.205 14.39 13.06Z" fill="#005D8D"/>
<path d="M21.2699 4.08014C20.7281 3.52525 20.0812 3.08384 19.3669 2.78166C18.6527 2.47948 17.8854 2.32259 17.1099 2.32014C16.3317 2.31863 15.561 2.47266 14.8432 2.77318C14.1254 3.0737 13.4749 3.51466 12.9299 4.07014L11.9999 5.00014L11.0799 4.07014C10.5346 3.51653 9.88469 3.0769 9.16794 2.77681C8.45118 2.47673 7.6819 2.32219 6.90487 2.32219C6.12783 2.32219 5.35855 2.47673 4.6418 2.77681C3.92504 3.0769 3.27513 3.51653 2.72987 4.07014C1.62146 5.19304 0.999969 6.70734 0.999969 8.28514C0.999969 9.86294 1.62146 11.3772 2.72987 12.5001L11.6399 21.5001C11.7353 21.5959 11.8647 21.6498 11.9999 21.6501C12.0653 21.6498 12.1299 21.6363 12.19 21.6105C12.2501 21.5848 12.3045 21.5472 12.3499 21.5001C12.3964 21.4545 12.4334 21.4001 12.4587 21.34C12.4839 21.2799 12.4969 21.2153 12.4969 21.1501C12.4969 21.085 12.4839 21.0204 12.4587 20.9603C12.4334 20.9002 12.3964 20.8458 12.3499 20.8001L3.42987 11.8001C2.51373 10.8655 2.00058 9.6089 2.00058 8.30014C2.00058 6.99138 2.51373 5.73478 3.42987 4.80014C3.88076 4.3378 4.41962 3.97038 5.01471 3.71951C5.60979 3.46864 6.24906 3.3394 6.89487 3.3394C7.54067 3.3394 8.17994 3.46864 8.77503 3.71951C9.37011 3.97038 9.90897 4.3378 10.3599 4.80014L11.6299 6.09014C11.7278 6.1808 11.8564 6.23117 11.9899 6.23117C12.1233 6.23117 12.2519 6.1808 12.3499 6.09014L13.6199 4.80014C14.0712 4.33296 14.6119 3.96123 15.2097 3.70699C15.8075 3.45276 16.4503 3.3212 17.0999 3.32014C17.7434 3.31979 18.3805 3.44886 18.9732 3.69967C19.5659 3.95049 20.1021 4.31793 20.5499 4.78014C21.466 5.71478 21.9792 6.97138 21.9792 8.28014C21.9792 9.5889 21.466 10.8455 20.5499 11.7801L14.3399 18.0601C14.293 18.1066 14.2558 18.1619 14.2304 18.2229C14.205 18.2838 14.192 18.3491 14.192 18.4151C14.192 18.4811 14.205 18.5465 14.2304 18.6074C14.2558 18.6684 14.293 18.7237 14.3399 18.7701C14.3855 18.8167 14.4399 18.8537 14.5 18.879C14.5601 18.9042 14.6247 18.9172 14.6899 18.9172C14.7551 18.9172 14.8196 18.9042 14.8797 18.879C14.9398 18.8537 14.9942 18.8167 15.0399 18.7701L21.2499 12.4801C22.3553 11.3577 22.9748 9.84551 22.9748 8.27014C22.9748 6.69477 22.3553 5.1826 21.2499 4.06014L21.2699 4.08014Z" fill="#005D8D"/>
</svg>
