<svg width="102" height="91" viewBox="0 0 102 91" fill="none" xmlns="http://www.w3.org/2000/svg">
<rect x="18.1055" y="1" width="53.6375" height="73.142" fill="white"/>
<path d="M18.1055 9.09438V1H71.7429V74.142H18.1055V14.1997" stroke="#30446D" strokeWidth="1.32" stroke-linecap="round" stroke-linejoin="round"/>
<rect x="1" y="18.7783" width="53.6359" height="73.1398" transform="rotate(-14.9993 1 18.7783)" fill="white"/>
<path d="M61.8542 38.6533C56.4027 40.5209 52.4774 40.95 52.4774 40.95C49.7077 41.6278 47.967 41.8179 47.967 41.8179C47.806 43.4661 47.7231 45.1435 47.7231 46.8355C47.7231 59.0551 51.9703 70.2507 59.0211 78.9546L71.7381 75.5462L61.8542 38.6533Z" fill="#BCEBFF"/>
<path d="M16.3749 76.1514L1.00049 18.7837L52.8094 4.90137L60.4601 33.4365" stroke="#30446D" strokeWidth="1.32" stroke-linecap="round" stroke-linejoin="round"/>
<path d="M61.8546 38.6533L71.7434 75.5461L19.9345 89.4285L18.457 83.9185" stroke="#30446D" strokeWidth="1.32" stroke-linecap="round" stroke-linejoin="round"/>
<path d="M22.967 42.1738L18.5785 49.7757L15.9697 48.269" stroke="#30446D" strokeWidth="1.32" stroke-linecap="round" stroke-linejoin="round"/>
<path d="M28.4482 42.0812L52 35.7715" stroke="#30446D" strokeWidth="1.32" stroke-linecap="round" stroke-linejoin="round"/>
<path d="M29.584 46.324L43.5005 42.5938" stroke="#30446D" strokeWidth="1.32" stroke-linecap="round" stroke-linejoin="round"/>
<path d="M26.4977 55.3643L22.1092 62.9662L19.5054 61.4594" stroke="#30446D" strokeWidth="1.32" stroke-linecap="round" stroke-linejoin="round"/>
<path d="M31.9834 55.2712L43.5203 52.1797" stroke="#30446D" strokeWidth="1.32" stroke-linecap="round" stroke-linejoin="round"/>
<path d="M33.1191 59.5087L51.9556 54.4619" stroke="#30446D" strokeWidth="1.32" stroke-linecap="round" stroke-linejoin="round"/>
<path d="M9.97705 24.0205L25.9903 19.7295" stroke="#30446D" strokeWidth="1.32" stroke-linecap="round" stroke-linejoin="round"/>
<path d="M11.1133 28.2625L22.4162 25.2344" stroke="#30446D" strokeWidth="1.32" stroke-linecap="round" stroke-linejoin="round"/>
<path d="M30.0329 68.5488L25.6444 76.1507L23.0405 74.6489" stroke="#30446D" strokeWidth="1.32" stroke-linecap="round" stroke-linejoin="round"/>
<path d="M35.5137 68.4611L59.0654 62.1465" stroke="#30446D" strokeWidth="1.32" stroke-linecap="round" stroke-linejoin="round"/>
<path d="M36.6499 72.6991L47.6163 69.7588" stroke="#30446D" strokeWidth="1.32" stroke-linecap="round" stroke-linejoin="round"/>
<path d="M50.878 16.5207L45.2265 18.0372L43.7101 12.3857L38.9997 13.6487L40.5162 19.3001L34.8647 20.8117L36.1277 25.522L41.7791 24.0104L43.2907 29.6619L48.001 28.399L46.4894 22.7475L52.1409 21.231L50.878 16.5207Z" fill="#42BA85"/>
<path d="M52.1412 21.231L50.8783 16.5207L45.2268 18.0372L43.7103 12.3857L39 13.6487" stroke="#30446D" strokeWidth="1.32" stroke-linecap="round" stroke-linejoin="round"/>
<path d="M76.6194 89.4286C91.1942 80.754 101 64.5409 101 45.9677C101 44.2756 100.917 42.5983 100.756 40.9501C100.756 40.9501 88.0686 39.5653 76.6194 30.915C65.1703 39.5653 52.4826 40.9501 52.4826 40.9501C52.3217 42.5983 52.2388 44.2756 52.2388 45.9677C52.2388 64.5409 62.0447 80.754 76.6194 89.4286Z" fill="#BCEBFF"/>
<path d="M100.474 53.3652C100.644 52.1803 100.771 50.9856 100.859 49.7764" stroke="#30446D" strokeWidth="1.32" stroke-linecap="round" stroke-linejoin="round"/>
<path d="M71.7433 34.1572C61.8447 39.9306 52.4777 40.9546 52.4777 40.9546C52.3168 42.6027 52.2339 44.2801 52.2339 45.9721C52.2339 64.5453 62.0398 80.7584 76.6146 89.4331V89.4331C88.0198 82.6455 96.5043 71.2402 99.6543 57.6992" stroke="#30446D" strokeWidth="1.32" stroke-linecap="round" stroke-linejoin="round"/>
<path d="M100.756 40.9501C100.756 40.9501 88.0685 39.5653 76.6193 30.915C75.0053 32.1341 73.3669 33.2068 71.7432 34.1528" stroke="#30446D" strokeWidth="1.32" stroke-linecap="round" stroke-linejoin="round"/>
<path d="M74.1469 68.5342L64.4922 58.8794L68.6271 54.7396L74.1469 60.2545L86.5567 47.8447L90.6965 51.9797L74.1469 68.5342Z" fill="white"/>
<path d="M67.2329 61.6196L74.1473 68.534L90.6969 51.9795" stroke="#30446D" strokeWidth="1.32" stroke-linecap="round" stroke-linejoin="round"/>
</svg>
