<svg width="18" height="21" viewBox="0 0 18 21" fill="none" xmlns="http://www.w3.org/2000/svg">
<path d="M9 10.5C11.7344 10.5 14 8.27344 14 5.5C14 2.76562 11.7344 0.5 9 0.5C6.22656 0.5 4 2.76562 4 5.5C4 8.27344 6.22656 10.5 9 10.5ZM4.3125 17.0625C4.3125 17.6094 4.70312 18 5.25 18C5.75781 18 6.1875 17.6094 6.1875 17.0625C6.1875 16.5547 5.75781 16.125 5.25 16.125C4.70312 16.125 4.3125 16.5547 4.3125 17.0625ZM12.75 11.7891V13.7031C14.1562 13.9766 15.25 15.2656 15.25 16.75V18.3906C15.25 18.7031 15.0156 18.9375 14.7422 19.0156L13.4531 19.25C13.2969 19.2891 13.1406 19.1719 13.1016 19.0156L12.9844 18.3906C12.9453 18.2344 13.0625 18.0781 13.2188 18.0391L14 17.8828V16.75C14 14.3281 10.25 14.2109 10.25 16.8281V17.8828L10.9922 18.0391C11.1484 18.0781 11.2656 18.2344 11.2266 18.3906L11.1094 19.0156C11.0703 19.1719 10.9141 19.2891 10.7578 19.25L9.50781 19.0938C9.23438 19.0547 9 18.7812 9 18.4688V16.75C9 15.2656 10.0547 14.0156 11.5 13.7031V11.9453C11.3828 11.9844 11.3047 11.9844 11.2266 12.0234C10.5234 12.2578 9.78125 12.4141 9 12.4141C8.21875 12.4141 7.4375 12.2578 6.73438 12.0234C6.46094 11.9062 6.14844 11.8672 5.875 11.8281V14.9922C6.77344 15.2656 7.4375 16.0859 7.4375 17.1016C7.4375 18.2734 6.46094 19.2891 5.25 19.2891C4.03906 19.2891 3.0625 18.2734 3.0625 17.1016C3.0625 16.0859 3.72656 15.2656 4.625 14.9922V11.8672C2.125 12.2578 0.25 14.4062 0.25 17.0234V18.7812C0.25 19.7188 1.03125 20.5 1.96875 20.5H15.9922C16.9297 20.5 17.75 19.7188 17.75 18.7812V17.0234C17.75 14.2109 15.5234 11.9453 12.75 11.7891Z" fill="#2EC28B"/>
</svg>
