<svg width="25" height="25" viewBox="0 0 25 25" fill="none" xmlns="http://www.w3.org/2000/svg">
<path d="M20.2978 19.6662C19.3078 20.5757 18.0078 21.0754 16.6578 21.0654H5.56784C0.897835 20.7256 0.887836 13.9297 5.56784 13.5899H5.61784C2.91784 6.05447 12.1478 2.33672 16.0278 7.02389V7.03388C16.7278 7.89336 17.2578 9.03267 17.4978 10.4818C18.8278 10.6517 19.9078 11.3013 20.6778 12.2207C22.4278 14.2895 22.5778 17.6674 20.2978 19.6662Z" stroke="#292D32" stroke-width="1.5" stroke-miterlimit="10" stroke-linecap="round" stroke-linejoin="round"/>
<path d="M7.28783 13.9997C6.76783 13.7399 6.19783 13.6 5.61783 13.59" stroke="#292D32" stroke-width="1.5" stroke-miterlimit="10" stroke-linecap="round" stroke-linejoin="round"/>
<path d="M15.8778 10.9116C16.3978 10.6517 16.9678 10.5118 17.5478 10.5018" stroke="#292D32" stroke-width="1.5" stroke-miterlimit="10" stroke-linecap="round" stroke-linejoin="round"/>
<path d="M21.9978 9.49239C21.9978 10.5917 21.4878 11.5811 20.6778 12.2207C19.9078 11.3013 18.8278 10.6517 17.4978 10.4818C17.2578 9.03267 16.7278 7.89336 16.0278 7.03388V7.02388C16.6578 6.38427 17.5378 5.99451 18.4978 5.99451C20.4278 5.99451 21.9978 7.56356 21.9978 9.49239Z" stroke="#292D32" stroke-width="1.5" stroke-miterlimit="10" stroke-linecap="round" stroke-linejoin="round"/>
</svg>
