<svg width="63" height="51" viewBox="0 0 63 51" fill="none" xmlns="http://www.w3.org/2000/svg">
<path d="M60.7422 26.5625L49.5117 22.168C49.1211 21.9727 48.2422 21.7773 47.2656 22.168L36.0352 26.5625C35.0586 26.9531 34.375 27.9297 34.375 28.9062C34.375 39.8438 41.0156 47.3633 47.2656 49.8047C48.2422 50.1953 49.0234 50 49.5117 49.8047C54.4922 47.8516 62.5 41.1133 62.5 28.9062C62.5 27.9297 61.8164 26.9531 60.7422 26.5625ZM48.4375 45.2148V26.7578L57.7148 30.3711C57.1289 38.8672 51.7578 43.5547 48.4375 45.2148ZM21.875 25C28.7109 25 34.375 19.4336 34.375 12.5C34.375 5.66406 28.7109 0 21.875 0C14.9414 0 9.375 5.66406 9.375 12.5C9.375 19.4336 14.9414 25 21.875 25ZM31.25 28.9062C31.25 28.7109 31.25 28.5156 31.3477 28.2227C31.0547 28.2227 30.8594 28.125 30.5664 28.125H28.9062C26.7578 29.1992 24.4141 29.6875 21.875 29.6875C19.3359 29.6875 16.8945 29.1992 14.7461 28.125H13.0859C5.85938 28.125 0 34.082 0 41.3086V45.3125C0 47.9492 2.05078 50 4.6875 50H39.0625C39.6484 50 40.332 49.9023 40.918 49.6094C35.6445 45.5078 31.25 38.2812 31.25 28.9062Z" fill="#42BA85"/>
</svg>
