<svg width="74" height="74" viewBox="0 0 74 74" fill="none" xmlns="http://www.w3.org/2000/svg">
<path d="M65.7241 12.463C64.0475 10.7407 62.0457 9.37055 59.8355 8.43259C57.6253 7.49463 55.251 7.00764 52.8512 7.00003C50.4431 6.99534 48.0584 7.47344 45.8371 8.40626C43.6159 9.33908 41.6029 10.7078 39.9164 12.432L37.0386 15.3187L34.1917 12.432C32.5044 10.7136 30.4933 9.349 28.2753 8.41754C26.0574 7.48609 23.6769 7.00641 21.2724 7.00641C18.8679 7.00641 16.4874 7.48609 14.2694 8.41754C12.0515 9.349 10.0403 10.7136 8.35307 12.432C4.92317 15.9175 3 20.6178 3 25.5153C3 30.4128 4.92317 35.1131 8.35307 38.5986L35.9246 66.5344C36.2197 66.8315 36.6204 66.999 37.0386 67C37.2409 66.9988 37.441 66.957 37.627 66.8771C37.813 66.7971 37.9812 66.6806 38.1216 66.5344C38.2657 66.3928 38.3802 66.2238 38.4583 66.0372C38.5365 65.8507 38.5767 65.6504 38.5767 65.448C38.5767 65.2457 38.5365 65.0454 38.4583 64.8588C38.3802 64.6723 38.2657 64.5032 38.1216 64.3616L10.5192 36.4258C7.68426 33.5247 6.09634 29.6242 6.09634 25.5618C6.09634 21.4995 7.68426 17.599 10.5192 14.6979C11.9145 13.2628 13.5819 12.1223 15.4234 11.3436C17.2648 10.565 19.243 10.1638 21.2414 10.1638C23.2398 10.1638 25.218 10.565 27.0595 11.3436C28.9009 12.1223 30.5684 13.2628 31.9637 14.6979L35.8936 18.702C36.1968 18.9835 36.5946 19.1398 37.0076 19.1398C37.4207 19.1398 37.8185 18.9835 38.1216 18.702L42.0516 14.6979C43.4483 13.2478 45.1213 12.0939 46.9712 11.3048C48.821 10.5156 50.81 10.1073 52.8202 10.104C54.8117 10.1029 56.7831 10.5036 58.6171 11.2821C60.4511 12.0606 62.1103 13.2011 63.4961 14.6358C66.331 17.5369 67.9189 21.4374 67.9189 25.4998C67.9189 29.5621 66.331 33.4626 63.4961 36.3637L44.2796 55.8567C44.1346 56.001 44.0195 56.1726 43.9409 56.3618C43.8624 56.5509 43.8219 56.7537 43.8219 56.9586C43.8219 57.1635 43.8624 57.3664 43.9409 57.5555C44.0195 57.7446 44.1346 57.9163 44.2796 58.0605C44.4208 58.2051 44.5893 58.3199 44.7752 58.3983C44.9612 58.4767 45.1609 58.517 45.3626 58.517C45.5644 58.517 45.7641 58.4767 45.95 58.3983C46.136 58.3199 46.3045 58.2051 46.4457 58.0605L65.6622 38.5365C69.0827 35.0524 71 30.3586 71 25.4687C71 20.5788 69.0827 15.8851 65.6622 12.401L65.7241 12.463Z" fill="#004171"/>
</svg>
