<svg width="48" height="48" viewBox="0 0 48 48" fill="none" xmlns="http://www.w3.org/2000/svg">
<rect width="48" height="48" rx="24" fill="#FFECE9"/>
<path d="M25.5 16H24.19L24.75 14.32C24.801 14.1704 24.8158 14.0108 24.7932 13.8544C24.7706 13.6979 24.7113 13.5491 24.62 13.42C24.528 13.2908 24.4065 13.1853 24.2657 13.1122C24.1248 13.0392 23.9687 13.0007 23.81 13H18.19C18.0313 13.0007 17.8752 13.0392 17.7343 13.1122C17.5935 13.1853 17.472 13.2908 17.38 13.42C17.2887 13.5491 17.2294 13.6979 17.2068 13.8544C17.1842 14.0108 17.199 14.1704 17.25 14.32L17.81 16H16.5C16.3674 16 16.2402 16.0527 16.1464 16.1464C16.0527 16.2402 16 16.3674 16 16.5C16 16.6326 16.0527 16.7598 16.1464 16.8536C16.2402 16.9473 16.3674 17 16.5 17H17V31C17 32.0609 17.4214 33.0783 18.1716 33.8284C18.9217 34.5786 19.9391 35 21 35C22.0609 35 23.0783 34.5786 23.8284 33.8284C24.5786 33.0783 25 32.0609 25 31V17H25.5C25.6326 17 25.7598 16.9473 25.8536 16.8536C25.9473 16.7598 26 16.6326 26 16.5C26 16.3674 25.9473 16.2402 25.8536 16.1464C25.7598 16.0527 25.6326 16 25.5 16ZM18.19 14H23.81L23.14 16H18.86L18.19 14ZM21 34C20.2044 34 19.4413 33.6839 18.8787 33.1213C18.3161 32.5587 18 31.7956 18 31V22H24V31C24 31.7956 23.6839 32.5587 23.1213 33.1213C22.5587 33.6839 21.7956 34 21 34ZM24 21H18V17H24V21Z" fill="#005D8D"/>
<path d="M27.63 27.1697C27.36 27.4697 26 28.9997 26 29.9997C26 30.5302 26.2107 31.0389 26.5858 31.414C26.9609 31.789 27.4696 31.9997 28 31.9997C28.5304 31.9997 29.0391 31.789 29.4142 31.414C29.7893 31.0389 30 30.5302 30 29.9997C30 28.9997 28.64 27.4697 28.37 27.1697C28.3224 27.1195 28.265 27.0795 28.2014 27.0522C28.1377 27.0248 28.0692 27.0107 28 27.0107C27.9308 27.0107 27.8623 27.0248 27.7986 27.0522C27.735 27.0795 27.6777 27.1195 27.63 27.1697ZM28 30.9997C27.7348 30.9997 27.4804 30.8944 27.2929 30.7069C27.1054 30.5193 27 30.265 27 29.9997C27.2007 29.356 27.5423 28.765 28 28.2697C28.4558 28.7664 28.7972 29.3569 29 29.9997C29 30.265 28.8946 30.5193 28.7071 30.7069C28.5196 30.8944 28.2652 30.9997 28 30.9997Z" fill="#005D8D"/>
<path d="M29.39 17.1902C29.3421 17.1333 29.2824 17.0877 29.2151 17.0563C29.1477 17.025 29.0743 17.0088 29 17.0088C28.9257 17.0088 28.8523 17.025 28.7849 17.0563C28.7176 17.0877 28.6579 17.1333 28.61 17.1902C28.34 17.5202 26 20.4902 26 22.0002C26 22.7958 26.3161 23.5589 26.8787 24.1215C27.4413 24.6841 28.2044 25.0002 29 25.0002C29.7956 25.0002 30.5587 24.6841 31.1213 24.1215C31.6839 23.5589 32 22.7958 32 22.0002C32 20.4902 29.66 17.5202 29.39 17.1902ZM29 24.0002C28.4696 24.0002 27.9609 23.7894 27.5858 23.4144C27.2107 23.0393 27 22.5306 27 22.0002C27 21.2402 28.1 19.5102 29 18.3202C29.9 19.5102 31 21.2402 31 22.0002C31 22.5306 30.7893 23.0393 30.4142 23.4144C30.0391 23.7894 29.5304 24.0002 29 24.0002Z" fill="#005D8D"/>
</svg>
