<svg width="74" height="74" viewBox="0 0 74 74" fill="none" xmlns="http://www.w3.org/2000/svg">
<path d="M40.0833 12.3333H33.9167C33.5078 12.3333 33.1157 12.1709 32.8265 11.8818C32.5374 11.5927 32.375 11.2005 32.375 10.7917C32.375 10.3828 32.5374 9.99066 32.8265 9.70154C33.1157 9.41243 33.5078 9.25 33.9167 9.25H40.0833C40.4922 9.25 40.8843 9.41243 41.1735 9.70154C41.4626 9.99066 41.625 10.3828 41.625 10.7917C41.625 11.2005 41.4626 11.5927 41.1735 11.8818C40.8843 12.1709 40.4922 12.3333 40.0833 12.3333Z" fill="#004171"/>
<path d="M53.9582 3.08301H20.0415C18.8149 3.08301 17.6385 3.57028 16.7711 4.43764C15.9038 5.305 15.4165 6.48138 15.4165 7.70801V66.2913C15.4165 67.518 15.9038 68.6944 16.7711 69.5617C17.6385 70.4291 18.8149 70.9163 20.0415 70.9163H28.3357C28.9103 70.9203 29.4746 70.7637 29.9649 70.464C30.4553 70.1644 30.8521 69.7337 31.1107 69.2205L33.3307 64.7497H41.6248C42.0337 64.7497 42.4258 64.5873 42.715 64.2981C43.0041 64.009 43.1665 63.6169 43.1665 63.208C43.1665 62.7991 43.0041 62.407 42.715 62.1179C42.4258 61.8288 42.0337 61.6663 41.6248 61.6663H33.3307C32.7561 61.6623 32.1917 61.819 31.7014 62.1187C31.2111 62.4183 30.8142 62.849 30.5557 63.3622L28.3357 67.833H20.0415C19.6326 67.833 19.2405 67.6706 18.9514 67.3815C18.6623 67.0923 18.4998 66.7002 18.4998 66.2913V7.70801C18.4998 7.29913 18.6623 6.907 18.9514 6.61789C19.2405 6.32877 19.6326 6.16634 20.0415 6.16634H53.9582C54.3671 6.16634 54.7592 6.32877 55.0483 6.61789C55.3374 6.907 55.4998 7.29913 55.4998 7.70801V66.2913C55.4998 66.7002 55.3374 67.0923 55.0483 67.3815C54.7592 67.6706 54.3671 67.833 53.9582 67.833H41.6248C41.216 67.833 40.8238 67.9954 40.5347 68.2846C40.2456 68.5737 40.0832 68.9658 40.0832 69.3747C40.0832 69.7836 40.2456 70.1757 40.5347 70.4648C40.8238 70.7539 41.216 70.9163 41.6248 70.9163H53.9582C55.1848 70.9163 56.3612 70.4291 57.2285 69.5617C58.0959 68.6944 58.5832 67.518 58.5832 66.2913V7.70801C58.5832 6.48138 58.0959 5.305 57.2285 4.43764C56.3612 3.57028 55.1848 3.08301 53.9582 3.08301Z" fill="#004171"/>
</svg>
