<svg width="122" height="120" viewBox="0 0 122 120" fill="none" xmlns="http://www.w3.org/2000/svg">
<g clip-path="url(#clip0)">
<path d="M67.1038 109.683C68.9072 110.089 72.4087 111.084 73.9058 112.938C75.9676 115.489 76.4443 117.904 79.7505 118.706C81.3721 119.1 83.6234 118.532 83.6234 117.649C83.6234 116.766 80.388 113.881 79.3045 111.073C78.7761 109.704 78.5674 108.733 78.443 107.914" fill="#30446D"/>
<path fill-rule="evenodd" clip-rule="evenodd" d="M73.9158 78.0547C73.9158 78.0547 98.5546 87.6192 99.5444 96.5233C100.821 108.008 56.0618 110.757 56.0599 110.757L55.7938 109.683C44.6134 108.869 21.0008 106.111 21.9771 97.3331C22.9669 88.429 47.6057 78.8645 47.6057 78.8645C47.6057 78.8645 52.319 81.5964 59.6265 81.5964C68.3505 81.5964 73.9158 78.0547 73.9158 78.0547ZM50.9608 96.2144L61.5074 97.4837L72.6456 95.6133C72.6456 95.6133 67.3503 93.3829 60.8718 93.3829C54.3953 93.3829 50.9608 96.2144 50.9608 96.2144Z" fill="#42BA85"/>
<path d="M55.5443 108.652C55.5443 108.652 49.6862 109.577 47.6243 112.129C45.5625 114.681 45.0858 117.095 41.7795 117.897C40.158 118.291 37.9066 117.723 37.9066 116.84C37.9066 115.958 41.142 113.072 42.2256 110.264C43.5504 106.83 42.8631 105.895 43.895 103.59C44.9249 101.283 47.5554 102.061 53.5284 100.52" fill="#30446D"/>
<path d="M32.928 57.8633C28.542 65.6684 27.2976 73.9541 18.4395 86.4458C15.631 90.4068 11.0861 91.1343 9.31912 91.2664C8.8922 91.2989 8.54952 91.6301 8.5074 92.0551C8.45762 92.5644 8.85391 93.0104 9.36507 93.0162C12.3401 93.0526 14.6451 92.103 14.6451 92.103L10.1098 99.3951C9.82836 99.8469 9.98534 100.44 10.4506 100.695C10.8813 100.93 11.4212 100.789 11.6815 100.371L11.1129 101.288C10.82 101.761 10.9732 102.384 11.4537 102.665C11.9132 102.935 12.5028 102.793 12.7881 102.345L14.0344 100.396L13.462 101.29C13.2112 101.683 13.3414 102.205 13.7472 102.433C14.1148 102.64 14.58 102.529 14.8174 102.179L16.1556 100.193L16.1096 100.262C15.878 100.609 15.9584 101.076 16.2934 101.323C16.6284 101.57 17.1013 101.511 17.3617 101.187C32.1048 82.9443 41.1084 62.9117 41.1084 62.9117L32.928 57.8633Z" fill="white"/>
<path d="M111.038 88.2557C110.98 87.8326 110.624 87.5148 110.195 87.4995C108.423 87.4382 103.853 86.8945 100.889 83.0484C91.5411 70.9224 90.5494 64.9493 86.2132 57.9004L78.9996 63.5729C78.9996 63.5729 87.0958 80.0964 102.557 97.736C102.831 98.05 103.305 98.0902 103.631 97.8298C103.956 97.5694 104.018 97.0985 103.772 96.7635H103.78L105.258 98.7545C105.503 99.0838 105.951 99.1833 106.313 98.9861C106.742 98.7526 106.876 98.2012 106.6 97.7973L107.425 99.0034C107.714 99.4264 108.287 99.5451 108.721 99.2733C109.181 98.9861 109.307 98.3735 109.003 97.9274L108.202 96.7539C108.497 97.1866 109.089 97.2957 109.52 96.997C109.943 96.7022 110.05 96.1221 109.761 95.6952L104.912 88.5524C104.912 88.5524 107.253 89.4082 110.224 89.2531C110.73 89.2244 111.107 88.763 111.038 88.2557Z" fill="white"/>
<path d="M44.7161 45.65C44.7161 45.65 45.8245 38.8518 47.3101 31.4046C49.4428 20.7087 54.1715 18.4707 59.1777 18.4707C64.184 18.4707 68.9126 20.7106 71.0453 31.4046C72.5309 38.8499 73.4403 45.0393 73.4403 45.0393" fill="#30446D"/>
<path d="M66.4756 29.423C65.9205 29.423 65.4189 29.6681 65.0628 30.0624L64.9958 27.6311H58.0349L57.1255 24.3574L56.3483 27.6311H53.3905L53.3369 29.6623C53.0229 29.4249 52.6457 29.2871 52.2399 29.2871C51.1563 29.2871 50.2776 30.273 50.2776 31.4887C50.2776 32.7044 51.1563 33.6903 52.2399 33.6903C52.5634 33.6903 52.8678 33.6022 53.1358 33.4472C53.1148 34.0311 53.1358 34.5863 53.1358 35.3731C53.1358 37.5556 54.6616 39.4049 56.5263 40.4196L55.7127 44.2101C56.31 45.1386 57.585 46.4596 60.0048 46.4596C62.1548 46.4596 63.3436 45.2956 63.9428 44.3863L62.8401 40.2587C64.5306 39.2173 65.8477 37.4445 65.8477 35.3712C65.8477 34.6092 65.8037 33.966 65.7348 33.3955C65.9683 33.5008 66.2095 33.5506 66.4776 33.5506C67.5554 33.5506 68.4303 32.6259 68.4303 31.4849C68.4284 30.3477 67.5554 29.423 66.4756 29.423Z" fill="white"/>
<path d="M39.5753 47.9361C35.846 50.7828 32.6719 57.4566 32.6719 57.4566C32.6719 57.4566 35.3865 62.3977 41.7348 62.9855L43.7928 60.2804L47.6102 78.8638C47.6102 78.8638 52.3236 81.5957 59.631 81.5957C68.3551 81.5957 73.9203 78.054 73.9203 78.054L75.6319 61.0078L77.9828 64.069C84.3636 61.1246 86.5939 57.3589 86.5939 57.3589C86.5939 57.3589 82.9622 50.2908 78.8404 47.3464C74.7187 44.402 64.4764 43.3223 64.4764 43.3223C64.4764 43.3223 63.5422 46.4639 60.0081 46.4639C56.2788 46.4639 55.268 43.3223 55.268 43.3223C55.268 43.3223 43.3047 45.0893 39.5753 47.9361Z" fill="#BCEBFF"/>
<path d="M36.5851 61.3053C37.9252 62.119 39.631 62.7929 41.7349 62.9881L45.269 58.3418" stroke="#30446D" strokeWidth="0.765775" stroke-linecap="round" stroke-linejoin="round"/>
<path d="M84.0542 53.1549C82.6528 51.0911 80.7996 48.7516 78.8354 47.3484C74.7136 44.404 64.4714 43.3242 64.4714 43.3242C64.4714 43.3242 64.3374 43.7741 63.9794 44.3331" stroke="#30446D" strokeWidth="0.765775" stroke-linecap="round" stroke-linejoin="round"/>
<path d="M73.7325 58.5371L77.9807 64.0679C79.1045 63.5491 80.1 63.0035 80.9787 62.4598" stroke="#30446D" strokeWidth="0.765775" stroke-linecap="round" stroke-linejoin="round"/>
<path d="M74.7378 69.8985L75.6299 61.0078" stroke="#30446D" strokeWidth="0.765775" stroke-linecap="round" stroke-linejoin="round"/>
<path d="M59.6304 81.5964C68.3545 81.5964 73.9197 78.0547 73.9197 78.0547" stroke="#30446D" strokeWidth="0.765775" stroke-linecap="round" stroke-linejoin="round"/>
<path d="M44.9751 66.041L47.6094 78.8639C47.6094 78.8639 48.9093 79.6163 51.2008 80.3323" stroke="#30446D" strokeWidth="0.765775" stroke-linecap="round" stroke-linejoin="round"/>
<path d="M96.0624 102.065C85.7148 108.934 56.064 110.755 56.064 110.755L53.1196 98.8774L82.468 93.9688" stroke="#30446D" strokeWidth="0.765775" stroke-linecap="round" stroke-linejoin="round"/>
<path d="M73.9204 78.0547C73.9204 78.0547 84.1378 82.0214 91.6787 87.2229" stroke="#30446D" strokeWidth="0.765775" stroke-linecap="round" stroke-linejoin="round"/>
<path d="M55.061 96.7072L39.062 94.7812" stroke="#30446D" strokeWidth="0.765775" stroke-linecap="round" stroke-linejoin="round"/>
<path d="M47.6094 78.8633C47.6094 78.8633 34.3806 83.9997 26.92 90.2465" stroke="#30446D" strokeWidth="0.765775" stroke-linecap="round" stroke-linejoin="round"/>
<path d="M58.6909 93.495C59.3763 93.4242 60.1038 93.384 60.8753 93.384" stroke="#30446D" strokeWidth="0.765775" stroke-linecap="round" stroke-linejoin="round"/>
<path d="M50.9619 96.2145C50.9619 96.2145 52.6753 94.8016 55.9663 93.9727" stroke="#30446D" strokeWidth="0.765775" stroke-linecap="round" stroke-linejoin="round"/>
<path d="M55.5443 108.652C55.5443 108.652 49.6862 109.577 47.6243 112.129C45.5625 114.681 45.0858 117.095 41.7795 117.897C40.158 118.291 37.9066 117.723 37.9066 116.84C37.9066 115.958 41.142 113.072 42.2256 110.264C43.5504 106.83 42.8631 105.895 43.895 103.59C44.9249 101.283 47.5554 102.061 53.5284 100.52" stroke="#30446D" strokeWidth="0.765775" stroke-linecap="round" stroke-linejoin="round"/>
<path d="M57.5988 40.9002C55.2843 40.0866 53.1344 37.9654 53.1344 35.3751C53.1344 34.5864 53.1133 34.0331 53.1344 33.4492" stroke="#30446D" strokeWidth="0.765775" stroke-linecap="round" stroke-linejoin="round"/>
<path d="M65.7323 33.3984C65.8012 33.9689 65.8453 34.6122 65.8453 35.3741C65.8453 38.6995 62.4548 41.2553 59.5659 41.2553" stroke="#30446D" strokeWidth="0.765775" stroke-linecap="round" stroke-linejoin="round"/>
<path d="M65.0641 30.0633C65.4202 29.6689 65.9218 29.4238 66.4769 29.4238C67.5548 29.4238 68.4297 30.3485 68.4297 31.4895C68.4297 32.6305 67.5548 33.5552 66.4769 33.5552C66.207 33.5552 65.9677 33.5035 65.7341 33.4001" stroke="#30446D" strokeWidth="0.765775" stroke-linecap="round" stroke-linejoin="round"/>
<path d="M53.1358 33.4491C52.8678 33.6042 52.5615 33.6923 52.2399 33.6923C51.1563 33.6923 50.2776 32.7063 50.2776 31.4907C50.2776 30.275 51.1563 29.2891 52.2399 29.2891C52.6457 29.2891 53.0229 29.4269 53.3369 29.6643" stroke="#30446D" strokeWidth="0.765775" stroke-linecap="round" stroke-linejoin="round"/>
<path d="M53.3375 29.6623L53.3911 27.6311H56.3489L57.1262 24.3574L58.0356 27.6311H64.9964L65.0635 30.0624" stroke="#30446D" strokeWidth="0.765775" stroke-linecap="round" stroke-linejoin="round"/>
<path d="M59.3278 31.2578C59.3278 31.2578 58.6482 33.8825 58.4491 34.9029C58.25 35.9233 59.4925 36.1224 59.4925 36.1224" stroke="#30446D" strokeWidth="0.765775" stroke-linecap="round" stroke-linejoin="round"/>
<path d="M61.9225 37.1758C61.5319 37.8726 60.8293 38.3378 60.0482 38.4355" stroke="#30446D" strokeWidth="0.765775" stroke-linecap="round" stroke-linejoin="round"/>
<path d="M61.4075 32.1053C61.5759 31.7013 61.9741 31.418 62.4394 31.418C62.9046 31.418 63.3028 31.7013 63.4712 32.1053" stroke="#30446D" strokeWidth="0.765775" stroke-linecap="round" stroke-linejoin="round"/>
<path d="M55.0625 32.1053C55.231 31.7013 55.6292 31.418 56.0944 31.418C56.5596 31.418 56.9578 31.7013 57.1263 32.1053" stroke="#30446D" strokeWidth="0.765775" stroke-linecap="round" stroke-linejoin="round"/>
<path d="M56.5259 40.4219L55.7123 44.2125" stroke="#30446D" strokeWidth="0.765775" stroke-linecap="round" stroke-linejoin="round"/>
<path d="M62.8395 40.2617L63.9441 44.3892" stroke="#30446D" strokeWidth="0.765775" stroke-linecap="round" stroke-linejoin="round"/>
<path d="M80.1144 65.709C82.8195 70.7267 90.4198 83.8866 102.555 97.7356C102.829 98.0496 103.304 98.0898 103.629 97.8294V97.8294C103.955 97.5691 104.016 97.0981 103.771 96.7631L100.727 92.603" stroke="#30446D" strokeWidth="0.765775" stroke-linecap="round" stroke-linejoin="round"/>
<path d="M103.28 96.0938L105.255 98.7529C105.501 99.0822 105.949 99.1817 106.31 98.9846V98.9846C106.739 98.751 106.873 98.1996 106.598 97.7957" stroke="#30446D" strokeWidth="0.765775" stroke-linecap="round" stroke-linejoin="round"/>
<path d="M100.887 83.0488C103.853 86.8949 108.42 87.4405 110.193 87.4999C110.62 87.5152 110.976 87.8311 111.036 88.2561V88.2561C111.104 88.7634 110.727 89.2229 110.216 89.2497C107.245 89.4048 104.904 88.549 104.904 88.549L109.753 95.6918C110.042 96.1187 109.935 96.6988 109.512 96.9936V96.9936C109.081 97.2922 108.489 97.1831 108.194 96.7505" stroke="#30446D" strokeWidth="0.765775" stroke-linecap="round" stroke-linejoin="round"/>
<path d="M98.8387 80.3066C99.0264 80.567 99.2197 80.8293 99.415 81.0954" stroke="#30446D" strokeWidth="0.765775" stroke-linecap="round" stroke-linejoin="round"/>
<path d="M86.212 57.9004C90.0084 64.0687 91.2413 69.4157 97.758 78.7831" stroke="#30446D" strokeWidth="0.765775" stroke-linecap="round" stroke-linejoin="round"/>
<path d="M28.6123 85.4707C25.3922 90.5095 21.615 95.9235 17.3592 101.19C17.0969 101.514 16.626 101.573 16.291 101.326V101.326C15.9559 101.079 15.8755 100.612 16.1072 100.265L18.9827 95.9867" stroke="#30446D" strokeWidth="0.765775" stroke-linecap="round" stroke-linejoin="round"/>
<path d="M41.1064 62.9121C41.1064 62.9121 37.9744 69.8787 32.3823 79.3361" stroke="#30446D" strokeWidth="0.765775" stroke-linecap="round" stroke-linejoin="round"/>
<path d="M13.6647 93.6797L10.1096 99.3943C9.82819 99.8461 9.98518 100.44 10.4504 100.694V100.694C10.8811 100.93 11.421 100.788 11.6814 100.371" stroke="#30446D" strokeWidth="0.765775" stroke-linecap="round" stroke-linejoin="round"/>
<path d="M32.928 57.8633C28.542 65.6684 27.2976 73.9541 18.4395 86.4458C15.631 90.4068 11.0861 91.1343 9.31912 91.2664C8.8922 91.2989 8.54952 91.6301 8.5074 92.0551V92.0551C8.45762 92.5644 8.85391 93.0104 9.36507 93.0162C12.3401 93.0526 14.6451 92.103 14.6451 92.103" stroke="#30446D" strokeWidth="0.765775" stroke-linecap="round" stroke-linejoin="round"/>
<path d="M13.4618 101.288C13.2111 101.681 13.3412 102.203 13.7471 102.431V102.431C14.1147 102.638 14.5799 102.527 14.8173 102.177L16.1574 100.189" stroke="#30446D" strokeWidth="0.765775" stroke-linecap="round" stroke-linejoin="round"/>
<path d="M67.1038 109.683C68.9072 110.089 72.4087 111.084 73.9058 112.938C75.9676 115.489 76.4443 117.904 79.7505 118.706C81.3721 119.1 83.6234 118.532 83.6234 117.649C83.6234 116.766 80.388 113.881 79.3045 111.073C78.7761 109.704 78.5674 108.733 78.443 107.914" stroke="#30446D" strokeWidth="0.765775" stroke-linecap="round" stroke-linejoin="round"/>
<path d="M53.1279 31.0204C52.4541 30.2412 51.2977 30.9725 51.6289 31.8263" stroke="#30446D" strokeWidth="0.765775" stroke-linecap="round" stroke-linejoin="round"/>
<path d="M65.3938 31.3438C65.9605 30.4 67.3618 30.915 67.0306 31.989" stroke="#30446D" strokeWidth="0.765775" stroke-linecap="round" stroke-linejoin="round"/>
<path d="M105.087 95.5886L107.421 99.0039C107.71 99.427 108.282 99.5457 108.717 99.2739V99.2739C109.177 98.9867 109.303 98.3741 108.998 97.928L104.126 90.7891" stroke="#30446D" strokeWidth="0.765775" stroke-linecap="round" stroke-linejoin="round"/>
<path d="M102.532 91.8496L104.09 94.1297" stroke="#30446D" strokeWidth="0.765775" stroke-linecap="round" stroke-linejoin="round"/>
<path d="M13.6132 97.2564L11.1148 101.288C10.8219 101.761 10.9751 102.383 11.4556 102.665V102.665C11.9151 102.935 12.5047 102.793 12.79 102.345L17.0821 95.6406" stroke="#30446D" strokeWidth="0.765775" stroke-linecap="round" stroke-linejoin="round"/>
<path d="M15.2688 94.5859L14.3364 96.0907" stroke="#30446D" strokeWidth="0.765775" stroke-linecap="round" stroke-linejoin="round"/>
<path d="M44.7161 45.65C44.7161 45.65 45.8245 38.8518 47.3101 31.4046C49.4428 20.7087 54.1715 18.4707 59.1777 18.4707C64.184 18.4707 68.9126 20.7106 71.0453 31.4046C72.5309 38.8499 73.4403 45.0393 73.4403 45.0393" stroke="#30446D" strokeWidth="0.765775" stroke-linecap="round" stroke-linejoin="round"/>
<path d="M41.734 62.9881L45.2661 58.3418" stroke="#30446D" strokeWidth="0.765775" stroke-linecap="round" stroke-linejoin="round"/>
<path d="M60.5997 46.4332C60.4102 46.4543 60.213 46.4639 60.0062 46.4639C56.2769 46.4639 55.2661 43.3223 55.2661 43.3223C55.2661 43.3223 43.3047 45.0893 39.5753 47.9361C35.846 50.7828 32.6719 57.4566 32.6719 57.4566C32.6719 57.4566 33.1505 58.3257 34.1747 59.3787" stroke="#30446D" strokeWidth="0.765775" stroke-linecap="round" stroke-linejoin="round"/>
<path d="M106.741 61.999C113.518 57.9653 118.076 50.4263 118.076 41.7922C118.076 41.0053 118.038 40.2261 117.963 39.4585C117.963 39.4585 112.065 38.8133 106.741 34.793C101.417 38.8133 95.5183 39.4585 95.5183 39.4585C95.4437 40.2261 95.4054 41.0034 95.4054 41.7922C95.4054 50.4263 99.9637 57.9653 106.741 61.999Z" fill="#BCEBFF"/>
<path d="M117.831 45.228C117.909 44.6786 117.971 44.1215 118.011 43.5605" stroke="#30446D" strokeWidth="0.765775" stroke-linecap="round" stroke-linejoin="round"/>
<path d="M104.475 36.2988C99.8724 38.9829 95.519 39.4576 95.519 39.4576C95.4443 40.2253 95.406 41.0026 95.406 41.7913C95.406 50.4255 99.9662 57.9645 106.741 61.9982V61.9982C112.044 58.8413 115.99 53.5383 117.455 47.2437" stroke="#30446D" strokeWidth="0.765775" stroke-linecap="round" stroke-linejoin="round"/>
<path d="M117.963 39.4585C117.963 39.4585 112.064 38.8133 106.74 34.793C105.99 35.3596 105.228 35.8593 104.473 36.2996" stroke="#30446D" strokeWidth="0.765775" stroke-linecap="round" stroke-linejoin="round"/>
<path d="M105.591 52.2822L101.104 47.7948L103.026 45.8707L105.591 48.4361L111.363 42.6641L113.287 44.5881L105.591 52.2822Z" fill="white"/>
<path d="M102.377 49.0696L105.59 52.282L113.286 44.5879" stroke="#30446D" strokeWidth="0.765775" stroke-linecap="round" stroke-linejoin="round"/>
<path d="M88.331 7.55648H84.5519V3.7793H80.7728V7.55648H76.9956V11.3356H80.7728V15.1147H84.5519V11.3356H88.331V7.55648Z" fill="#42BA85"/>
<path d="M80.7728 15.1148V11.3357H76.9956V7.55664" stroke="#30446D" strokeWidth="0.765775" stroke-linecap="round" stroke-linejoin="round"/>
<path d="M91.3899 5.82755C91.8532 6.94175 92.1079 8.16508 92.1079 9.44775C92.1079 14.6646 87.8789 18.8936 82.662 18.8936C77.4452 18.8936 73.2162 14.6646 73.2162 9.44775C73.2162 4.23091 77.4452 0 82.662 0C83.937 0 85.1508 0.252706 86.2612 0.710256" stroke="#30446D" strokeWidth="0.765775" stroke-linecap="round" stroke-linejoin="round"/>
<path d="M25.587 29.3348C31.8473 29.3348 36.9224 24.2598 36.9224 17.9994C36.9224 11.7391 31.8473 6.66406 25.587 6.66406C19.3266 6.66406 14.2516 11.7391 14.2516 17.9994C14.2516 24.2598 19.3266 29.3348 25.587 29.3348Z" fill="#BCEBFF"/>
<path d="M25.5857 27.069C30.5942 27.069 34.6543 23.0088 34.6543 18.0003C34.6543 12.9918 30.5942 8.93164 25.5857 8.93164C20.5772 8.93164 16.517 12.9918 16.517 18.0003C16.517 23.0088 20.5772 27.069 25.5857 27.069Z" fill="white"/>
<path d="M28.7919 21.2053L26.3873 18.8008" stroke="#30446D" strokeWidth="0.765775" stroke-linecap="round" stroke-linejoin="round"/>
<path d="M36.0604 13.6575C36.6156 14.9957 36.9219 16.4622 36.9219 18.0014C36.9219 24.2616 31.8467 29.3368 25.5865 29.3368C19.3263 29.3368 14.2511 24.2616 14.2511 18.0014C14.2511 11.7412 19.3263 6.66602 25.5865 6.66602C28.2303 6.66602 30.6636 7.57154 32.5914 9.08969" stroke="#30446D" strokeWidth="0.765775" stroke-linecap="round" stroke-linejoin="round"/>
<path d="M16.8041 20.2728C16.6165 19.5472 16.517 18.7853 16.517 18.0003C16.517 12.9922 20.5775 8.93164 25.5857 8.93164C30.5938 8.93164 34.6543 12.9922 34.6543 18.0003C34.6543 23.0085 30.5938 27.069 25.5857 27.069C22.9131 27.069 20.5105 25.9127 18.8507 24.0729" stroke="#30446D" strokeWidth="0.765775" stroke-linecap="round" stroke-linejoin="round"/>
<path d="M25.5872 12.1055V16.8667" stroke="#30446D" strokeWidth="0.765775" stroke-linecap="round" stroke-linejoin="round"/>
<path fill-rule="evenodd" clip-rule="evenodd" d="M25.5881 19.1319C26.214 19.1319 26.7214 18.6245 26.7214 17.9986C26.7214 17.3727 26.214 16.8652 25.5881 16.8652C24.9621 16.8652 24.4547 17.3727 24.4547 17.9986C24.4547 18.6245 24.9621 19.1319 25.5881 19.1319Z" stroke="#30446D" strokeWidth="0.765775" stroke-linecap="round" stroke-linejoin="round"/>
<path d="M17.0043 55.0181C17.0043 52.5236 14.9826 50.502 12.4881 50.502C10.7613 50.502 9.26229 51.4707 8.50226 52.895C7.74223 51.4726 6.24322 50.502 4.5164 50.502C2.02189 50.502 0.000244141 52.5236 0.000244141 55.0181C0.000244141 56.3295 0.55926 57.5107 1.4533 58.3358L8.50226 64.8468L15.5512 58.3358L15.5455 58.3339C16.4414 57.5107 17.0043 56.3314 17.0043 55.0181Z" fill="#42BA85"/>
<path d="M5.85176 62.4003L8.50326 64.8507L15.5522 58.3397L15.5465 58.3378C16.4405 57.5127 17.0034 56.3334 17.0034 55.022C17.0034 52.5275 14.9817 50.5059 12.4872 50.5059C10.7604 50.5059 9.26137 51.4746 8.50134 52.8989C7.74131 51.4765 6.24231 50.5059 4.51548 50.5059C3.31896 50.5059 2.22965 50.9711 1.42175 51.7311" stroke="#30446D" strokeWidth="0.765775" stroke-linecap="round" stroke-linejoin="round"/>
</g>
<defs>
<clipPath id="clip0">
<rect width="122" height="120" fill="white"/>
</clipPath>
</defs>
</svg>
