<svg width="24" height="24" viewBox="0 0 24 24" fill="none" xmlns="http://www.w3.org/2000/svg">
<path d="M5.2601 7.63997C5.35796 7.6386 5.45327 7.60853 5.5342 7.5535C5.61514 7.49847 5.67815 7.4209 5.71541 7.3304C5.75268 7.2399 5.76256 7.14045 5.74384 7.04438C5.72512 6.94832 5.67862 6.85986 5.6101 6.78997L3.4601 4.62997L4.6301 3.45997L6.7901 5.60997C6.83547 5.65707 6.88982 5.6946 6.94993 5.72036C7.01004 5.74613 7.0747 5.75959 7.1401 5.75997C7.27523 5.75964 7.40471 5.70569 7.5001 5.60997C7.59171 5.51651 7.64302 5.39085 7.64302 5.25997C7.64302 5.1291 7.59171 5.00344 7.5001 4.90997L5.3401 2.74997L6.2401 1.84997C6.28793 1.80508 6.32605 1.75087 6.35211 1.69067C6.37817 1.63047 6.39161 1.56557 6.39161 1.49997C6.39161 1.43438 6.37817 1.36948 6.35211 1.30928C6.32605 1.24908 6.28793 1.19486 6.2401 1.14997C6.19361 1.10311 6.13831 1.06591 6.07738 1.04053C6.01645 1.01514 5.9511 1.00208 5.8851 1.00208C5.81909 1.00208 5.75374 1.01514 5.69281 1.04053C5.63188 1.06591 5.57658 1.10311 5.5301 1.14997L1.1501 5.52997C1.10323 5.57646 1.06604 5.63176 1.04065 5.69269C1.01527 5.75362 1.0022 5.81897 1.0022 5.88497C1.0022 5.95098 1.01527 6.01633 1.04065 6.07726C1.06604 6.13819 1.10323 6.19349 1.1501 6.23997C1.19499 6.2878 1.2492 6.32593 1.3094 6.35199C1.3696 6.37805 1.4345 6.39149 1.5001 6.39149C1.56569 6.39149 1.63059 6.37805 1.69079 6.35199C1.75099 6.32593 1.80521 6.2878 1.8501 6.23997L2.7501 5.33997L4.9101 7.49997C5.00403 7.59052 5.12963 7.64076 5.2601 7.63997Z" fill="#8E9AAB"/>
<path d="M22.8499 22.15L18.6299 17.92L18.9099 14.3C18.9204 14.1568 18.8999 14.013 18.8499 13.8784C18.7999 13.7438 18.7214 13.6216 18.6199 13.52L11.8799 6.79003L10.3599 5.26003C10.2669 5.1663 10.1563 5.09191 10.0345 5.04114C9.91263 4.99037 9.78192 4.96423 9.64991 4.96423C9.5179 4.96423 9.38719 4.99037 9.26533 5.04114C9.14347 5.09191 9.03287 5.1663 8.93991 5.26003L5.25991 8.94003C5.16618 9.03299 5.09179 9.1436 5.04102 9.26546C4.99025 9.38731 4.96411 9.51802 4.96411 9.65003C4.96411 9.78204 4.99025 9.91275 5.04102 10.0346C5.09179 10.1565 5.16618 10.2671 5.25991 10.36L13.5199 18.61C13.6206 18.7133 13.7424 18.7936 13.8771 18.8454C14.0117 18.8972 14.156 18.9192 14.2999 18.91L17.9199 18.63L22.1499 22.85C22.1948 22.8979 22.249 22.936 22.3092 22.962C22.3694 22.9881 22.4343 23.0016 22.4999 23.0016C22.5655 23.0016 22.6304 22.9881 22.6906 22.962C22.7508 22.936 22.805 22.8979 22.8499 22.85C22.8977 22.8051 22.9359 22.7509 22.9619 22.6907C22.988 22.6305 23.0014 22.5656 23.0014 22.5C23.0014 22.4344 22.988 22.3695 22.9619 22.3093C22.9359 22.2491 22.8977 22.1949 22.8499 22.15ZM17.6499 17.65L14.2299 17.91L5.99991 9.65003L9.64991 6.00003L10.8199 7.17003L8.99991 9.00003C8.90766 9.09518 8.85607 9.2225 8.85607 9.35503C8.85607 9.48756 8.90766 9.61488 8.99991 9.71003C9.0953 9.80575 9.22478 9.8597 9.35991 9.86003C9.49179 9.85815 9.61759 9.80424 9.70991 9.71003L11.5499 7.87003L13.3499 9.67003L11.5099 11.51C11.463 11.5565 11.4258 11.6118 11.4005 11.6727C11.3751 11.7337 11.362 11.799 11.362 11.865C11.362 11.931 11.3751 11.9964 11.4005 12.0573C11.4258 12.1182 11.463 12.1736 11.5099 12.22C11.6062 12.31 11.7331 12.3601 11.8649 12.3601C11.9967 12.3601 12.1236 12.31 12.2199 12.22L13.9999 10.36L15.7999 12.16L13.9999 14C13.9521 14.0449 13.914 14.0991 13.8879 14.1593C13.8618 14.2195 13.8484 14.2844 13.8484 14.35C13.8484 14.4156 13.8618 14.4805 13.8879 14.5407C13.914 14.6009 13.9521 14.6551 13.9999 14.7C14.0448 14.7479 14.099 14.786 14.1592 14.812C14.2194 14.8381 14.2843 14.8516 14.3499 14.8516C14.4155 14.8516 14.4804 14.8381 14.5406 14.812C14.6008 14.786 14.655 14.7479 14.6999 14.7L16.5499 12.86L17.9099 14.23L17.6499 17.65Z" fill="#8E9AAB"/>
</svg>
