<svg width="24" height="24" viewBox="0 0 24 24" fill="none" xmlns="http://www.w3.org/2000/svg">
<path d="M5.25985 7.63997C5.35772 7.6386 5.45302 7.60853 5.53396 7.5535C5.6149 7.49847 5.6779 7.4209 5.71517 7.3304C5.75243 7.2399 5.76232 7.14045 5.7436 7.04438C5.72488 6.94832 5.67837 6.85986 5.60985 6.78997L3.45985 4.62997L4.62985 3.45997L6.78985 5.60997C6.83523 5.65707 6.88957 5.6946 6.94969 5.72036C7.0098 5.74613 7.07445 5.75959 7.13985 5.75997C7.27499 5.75964 7.40446 5.70569 7.49985 5.60997C7.59147 5.51651 7.64278 5.39085 7.64278 5.25997C7.64278 5.1291 7.59147 5.00344 7.49985 4.90997L5.33985 2.74997L6.23985 1.84997C6.28768 1.80508 6.32581 1.75087 6.35187 1.69067C6.37793 1.63047 6.39137 1.56557 6.39137 1.49997C6.39137 1.43438 6.37793 1.36948 6.35187 1.30928C6.32581 1.24908 6.28768 1.19486 6.23985 1.14997C6.19337 1.10311 6.13807 1.06591 6.07714 1.04053C6.01621 1.01514 5.95086 1.00208 5.88485 1.00208C5.81885 1.00208 5.75349 1.01514 5.69256 1.04053C5.63163 1.06591 5.57633 1.10311 5.52985 1.14997L1.14985 5.52997C1.10299 5.57646 1.06579 5.63176 1.04041 5.69269C1.01502 5.75362 1.00195 5.81897 1.00195 5.88497C1.00195 5.95098 1.01502 6.01633 1.04041 6.07726C1.06579 6.13819 1.10299 6.19349 1.14985 6.23997C1.19474 6.2878 1.24896 6.32593 1.30916 6.35199C1.36936 6.37805 1.43426 6.39149 1.49985 6.39149C1.56545 6.39149 1.63035 6.37805 1.69055 6.35199C1.75074 6.32593 1.80496 6.2878 1.84985 6.23997L2.74985 5.33997L4.90985 7.49997C5.00379 7.59052 5.12939 7.64076 5.25985 7.63997Z" fill="#8E9AAB"/>
<path d="M22.8502 22.15L18.6302 17.92L18.9102 14.3C18.9207 14.1568 18.9002 14.013 18.8501 13.8784C18.8001 13.7438 18.7217 13.6216 18.6202 13.52L11.8802 6.79003L10.3602 5.26003C10.2672 5.1663 10.1566 5.09191 10.0347 5.04114C9.91287 4.99037 9.78217 4.96423 9.65015 4.96423C9.51814 4.96423 9.38744 4.99037 9.26558 5.04114C9.14372 5.09191 9.03312 5.1663 8.94015 5.26003L5.26015 8.94003C5.16643 9.03299 5.09203 9.1436 5.04126 9.26546C4.99049 9.38731 4.96436 9.51802 4.96436 9.65003C4.96436 9.78204 4.99049 9.91275 5.04126 10.0346C5.09203 10.1565 5.16643 10.2671 5.26015 10.36L13.5202 18.61C13.6208 18.7133 13.7427 18.7936 13.8773 18.8454C14.012 18.8972 14.1562 18.9192 14.3002 18.91L17.9202 18.63L22.1502 22.85C22.195 22.8979 22.2493 22.936 22.3095 22.962C22.3697 22.9881 22.4346 23.0016 22.5002 23.0016C22.5658 23.0016 22.6307 22.9881 22.6908 22.962C22.751 22.936 22.8053 22.8979 22.8502 22.85C22.898 22.8051 22.9361 22.7509 22.9622 22.6907C22.9882 22.6305 23.0017 22.5656 23.0017 22.5C23.0017 22.4344 22.9882 22.3695 22.9622 22.3093C22.9361 22.2491 22.898 22.1949 22.8502 22.15ZM17.6502 17.65L14.2302 17.91L6.00015 9.65003L9.65015 6.00003L10.8202 7.17003L9.00015 9.00003C8.9079 9.09518 8.85632 9.2225 8.85632 9.35503C8.85632 9.48756 8.9079 9.61488 9.00015 9.71003C9.09554 9.80575 9.22502 9.8597 9.36015 9.86003C9.49204 9.85815 9.61784 9.80424 9.71015 9.71003L11.5502 7.87003L13.3502 9.67003L11.5102 11.51C11.4633 11.5565 11.4261 11.6118 11.4007 11.6727C11.3753 11.7337 11.3623 11.799 11.3623 11.865C11.3623 11.931 11.3753 11.9964 11.4007 12.0573C11.4261 12.1182 11.4633 12.1736 11.5102 12.22C11.6065 12.31 11.7333 12.3601 11.8652 12.3601C11.997 12.3601 12.1238 12.31 12.2202 12.22L14.0002 10.36L15.8002 12.16L14.0002 14C13.9523 14.0449 13.9142 14.0991 13.8881 14.1593C13.8621 14.2195 13.8486 14.2844 13.8486 14.35C13.8486 14.4156 13.8621 14.4805 13.8881 14.5407C13.9142 14.6009 13.9523 14.6551 14.0002 14.7C14.045 14.7479 14.0993 14.786 14.1595 14.812C14.2197 14.8381 14.2846 14.8516 14.3502 14.8516C14.4158 14.8516 14.4807 14.8381 14.5408 14.812C14.601 14.786 14.6553 14.7479 14.7002 14.7L16.5502 12.86L17.9102 14.23L17.6502 17.65Z" fill="#8E9AAB"/>
</svg>
