<svg xmlns="http://www.w3.org/2000/svg" width="30" height="30" fill="none" viewBox="0 0 30 30">
    <circle cx="15" cy="15" r="15" fill="#fff"/>
    <g fill="#42BA85" clip-path="url(#clip0)">
        <path d="M22.785 11.787c-.037-.83-.17-1.4-.363-1.893-.198-.524-.503-.993-.902-1.383-.39-.397-.862-.704-1.38-.9-.497-.191-1.064-.325-1.893-.362-.835-.04-1.1-.049-3.218-.049s-2.383.01-3.215.046c-.829.036-1.399.17-1.892.363-.525.198-.994.502-1.384.902-.396.39-.704.862-.899 1.38-.192.497-.326 1.064-.363 1.893-.04.835-.048 1.1-.048 3.218s.009 2.383.045 3.215c.037.829.171 1.399.363 1.892.198.524.506.994.902 1.384.39.396.862.704 1.38.899.497.192 1.064.326 1.893.362.832.037 1.097.046 3.215.046s2.383-.009 3.215-.046c.83-.036 1.399-.17 1.893-.362 1.048-.405 1.877-1.234 2.282-2.283.192-.496.326-1.063.363-1.892.036-.832.046-1.097.046-3.215s-.004-2.383-.04-3.215zm-1.405 6.369c-.034.762-.162 1.173-.268 1.447-.262.68-.802 1.22-1.481 1.481-.274.107-.689.235-1.448.269-.823.036-1.07.045-3.15.045-2.082 0-2.332-.009-3.152-.045-.762-.034-1.173-.162-1.447-.269-.339-.125-.647-.323-.896-.582-.26-.253-.458-.557-.583-.895-.106-.275-.234-.69-.268-1.448-.036-.823-.045-1.07-.045-3.151 0-2.082.009-2.331.045-3.151.034-.762.162-1.173.268-1.448.125-.338.324-.646.586-.896.252-.259.557-.457.896-.582.274-.106.688-.234 1.447-.268.823-.037 1.07-.046 3.151-.046 2.085 0 2.331.01 3.151.046.762.034 1.174.162 1.448.268.338.125.646.323.896.582.259.253.457.558.582.896.107.274.235.689.268 1.448.037.823.046 1.07.046 3.15 0 2.082-.01 2.326-.046 3.149z"/>
        <path d="M15.029 10.994c-2.213 0-4.008 1.795-4.008 4.008 0 2.212 1.795 4.007 4.008 4.007 2.212 0 4.007-1.795 4.007-4.007 0-2.213-1.795-4.008-4.007-4.008zm0 6.607c-1.435 0-2.6-1.164-2.6-2.6 0-1.435 1.165-2.599 2.6-2.599s2.6 1.164 2.6 2.6c0 1.435-1.165 2.6-2.6 2.6zM20.131 10.836c0 .517-.419.935-.936.935-.516 0-.935-.418-.935-.935 0-.517.419-.936.935-.936.517 0 .936.42.936.936z"/>
    </g>
    <defs>
        <clipPath id="clip0">
            <path fill="#fff" d="M0 0H15.6V15.6H0z" transform="translate(7.2002 7.2002)"/>
        </clipPath>
    </defs>
</svg>
