<svg width="16" height="16" viewBox="0 0 16 16" fill="none" xmlns="http://www.w3.org/2000/svg">
<g clip-path="url(#clip0)">
<path d="M15.7849 4.78646C15.7483 3.95757 15.6143 3.38771 15.4223 2.89393C15.2242 2.36979 14.9194 1.90052 14.5202 1.51042C14.1301 1.11425 13.6577 0.806411 13.1396 0.611421C12.643 0.419406 12.0761 0.285365 11.2472 0.248819C10.4122 0.209178 10.1471 0.200012 8.02906 0.200012C5.91107 0.200012 5.64596 0.209178 4.81398 0.245724C3.98509 0.28227 3.41524 0.41643 2.92157 0.608326C2.39731 0.806411 1.92805 1.11116 1.53795 1.51042C1.14178 1.90052 0.834057 2.37288 0.638947 2.89095C0.446933 3.38771 0.312892 3.95447 0.276346 4.78336C0.236705 5.61844 0.227539 5.88354 0.227539 8.00154C0.227539 10.1195 0.236705 10.3846 0.273251 11.2166C0.309797 12.0455 0.443957 12.6154 0.635971 13.1091C0.834057 13.6333 1.14178 14.1025 1.53795 14.4926C1.92805 14.8888 2.40041 15.1967 2.91848 15.3917C3.41524 15.5837 3.982 15.7177 4.811 15.7543C5.64287 15.7909 5.90809 15.8 8.02608 15.8C10.1441 15.8 10.4092 15.7909 11.2412 15.7543C12.0701 15.7177 12.6399 15.5837 13.1336 15.3917C14.182 14.9863 15.0109 14.1574 15.4162 13.1091C15.6081 12.6124 15.7423 12.0455 15.7788 11.2166C15.8153 10.3846 15.8245 10.1195 15.8245 8.00154C15.8245 5.88354 15.8214 5.61844 15.7849 4.78646ZM14.3801 11.1557C14.3465 11.9175 14.2185 12.3289 14.1119 12.6032C13.8497 13.2828 13.3103 13.8222 12.6307 14.0843C12.3565 14.191 11.9421 14.319 11.1832 14.3524C10.3604 14.3891 10.1136 14.3981 8.03216 14.3981C5.95071 14.3981 5.70084 14.3891 4.881 14.3524C4.11913 14.319 3.70773 14.191 3.43345 14.0843C3.09526 13.9593 2.78741 13.7613 2.53754 13.5022C2.27851 13.2493 2.08042 12.9445 1.95543 12.6063C1.84877 12.332 1.7208 11.9175 1.68735 11.1588C1.65068 10.3359 1.64164 10.0891 1.64164 8.00761C1.64164 5.92616 1.65068 5.67629 1.68735 4.85657C1.7208 4.0947 1.84877 3.68329 1.95543 3.40902C2.08042 3.07071 2.27851 2.76298 2.54064 2.51299C2.79348 2.25396 3.09823 2.05587 3.43655 1.931C3.71082 1.82434 4.12532 1.69637 4.8841 1.6628C5.70691 1.62625 5.95381 1.61709 8.03513 1.61709C10.1197 1.61709 10.3664 1.62625 11.1863 1.6628C11.9482 1.69637 12.3596 1.82434 12.6338 1.931C12.972 2.05587 13.2799 2.25396 13.5297 2.51299C13.7888 2.76596 13.9869 3.07071 14.1119 3.40902C14.2185 3.68329 14.3465 4.09768 14.3801 4.85657C14.4166 5.67939 14.4258 5.92616 14.4258 8.00761C14.4258 10.0891 14.4166 10.3329 14.3801 11.1557Z" fill="#42BA85"/>
<path d="M8.02927 3.99414C5.81688 3.99414 4.02185 5.78905 4.02185 8.00156C4.02185 10.2141 5.81688 12.009 8.02927 12.009C10.2418 12.009 12.0367 10.2141 12.0367 8.00156C12.0367 5.78905 10.2418 3.99414 8.02927 3.99414ZM8.02927 10.6011C6.59399 10.6011 5.42976 9.43697 5.42976 8.00156C5.42976 6.56616 6.59399 5.40205 8.02927 5.40205C9.46468 5.40205 10.6288 6.56616 10.6288 8.00156C10.6288 9.43697 9.46468 10.6011 8.02927 10.6011Z" fill="#42BA85"/>
<path d="M13.1306 3.83564C13.1306 4.35228 12.7117 4.77119 12.195 4.77119C11.6783 4.77119 11.2594 4.35228 11.2594 3.83564C11.2594 3.31887 11.6783 2.90009 12.195 2.90009C12.7117 2.90009 13.1306 3.31887 13.1306 3.83564Z" fill="#42BA85"/>
</g>
<defs>
<clipPath id="clip0">
<rect width="15.6" height="15.6" fill="white" transform="translate(0.200195 0.200012)"/>
</clipPath>
</defs>
</svg>
