<svg width="18" height="18" viewBox="0 0 18 18" fill="none" xmlns="http://www.w3.org/2000/svg">
<path fill-rule="evenodd" clip-rule="evenodd" d="M11.2917 0.75V1.66667C11.2917 2.26525 11.6744 2.77492 12.2083 2.96375V3.5H11.75C11.6284 3.5 11.5119 3.54829 11.4259 3.63424C11.34 3.7202 11.2917 3.83678 11.2917 3.95833V6.70833C11.2917 6.82989 11.34 6.94647 11.4259 7.03242C11.5119 7.11838 11.6284 7.16667 11.75 7.16667H13.5833C13.7049 7.16667 13.8215 7.11838 13.9074 7.03242C13.9934 6.94647 14.0417 6.82989 14.0417 6.70833V3.95833C14.0417 3.83678 13.9934 3.7202 13.9074 3.63424C13.8215 3.54829 13.7049 3.5 13.5833 3.5H13.125V3.04167H15.4167V8.57192H7.21708C7.19853 8.57197 7.18015 8.56835 7.163 8.56127C7.14586 8.55419 7.13028 8.54379 7.11717 8.53067L6.94942 8.36108L7.11854 8.19287C7.27912 8.03244 7.40652 7.84194 7.49345 7.63226C7.58038 7.42257 7.62515 7.19781 7.62519 6.97082C7.62523 6.74383 7.58055 6.51906 7.4937 6.30934C7.40684 6.09963 7.27952 5.90908 7.119 5.74858L6.294 4.92358C6.1336 4.763 5.94313 4.63558 5.73349 4.5486C5.52384 4.46163 5.29911 4.41679 5.07214 4.41667C4.84517 4.41654 4.62039 4.46112 4.41064 4.54786C4.2009 4.6346 4.01029 4.7618 3.84971 4.92221L3.52704 5.24487C3.21504 5.15603 2.88491 5.15259 2.57113 5.23491C2.25735 5.31722 1.97142 5.48228 1.74321 5.71283C1.40051 6.05902 1.20827 6.52646 1.20827 7.01358C1.20827 7.50071 1.40051 7.96815 1.74321 8.31433L2.125 8.69887V13.5833H0.75V14.5H2.14792C1.9203 14.723 1.76426 15.0088 1.6997 15.3208C1.63514 15.6329 1.66499 15.9571 1.78544 16.2521C1.90588 16.5472 2.11147 16.7997 2.37598 16.9774C2.64049 17.1551 2.95194 17.25 3.2706 17.25C3.58927 17.25 3.90072 17.1551 4.16523 16.9774C4.42974 16.7997 4.63533 16.5472 4.75577 16.2521C4.87622 15.9571 4.90606 15.6329 4.84151 15.3208C4.77695 15.0088 4.62091 14.723 4.39329 14.5H13.6067C13.3791 14.723 13.223 15.0088 13.1585 15.3208C13.0939 15.6329 13.1238 15.9571 13.2442 16.2521C13.3647 16.5472 13.5703 16.7997 13.8348 16.9774C14.0993 17.1551 14.4107 17.25 14.7294 17.25C15.0481 17.25 15.3595 17.1551 15.624 16.9774C15.8885 16.7997 16.0941 16.5472 16.2146 16.2521C16.335 15.9571 16.3649 15.6329 16.3003 15.3208C16.2357 15.0088 16.0797 14.723 15.8521 14.5H17.25V13.5833H15.4167V12.2083H15.4469C16.4433 12.2083 17.25 11.3943 17.25 10.3901C17.2506 10.0687 17.1661 9.75293 17.0051 9.47479C16.8441 9.19665 16.6123 8.9661 16.3333 8.80658V3.04167C16.3333 2.79855 16.2368 2.56539 16.0648 2.39349C15.8929 2.22158 15.6598 2.125 15.4167 2.125H12.6667C12.5451 2.125 12.4285 2.07671 12.3426 1.99076C12.2566 1.9048 12.2083 1.78822 12.2083 1.66667V0.75H11.2917ZM4.33692 5.73117L6.30317 7.71117L6.47046 7.54433C6.54585 7.46899 6.60565 7.37954 6.64645 7.28108C6.68726 7.18262 6.70826 7.07708 6.70826 6.9705C6.70826 6.86392 6.68726 6.75838 6.64645 6.65992C6.60565 6.56146 6.54585 6.472 6.47046 6.39667L5.64546 5.57167C5.49337 5.4194 5.28703 5.33377 5.07181 5.3336C4.8566 5.33342 4.65013 5.41873 4.49779 5.57075L4.33737 5.73117H4.33692ZM14.5 13.5833H3.04167V9.6215L5.45937 12.0557C5.55654 12.1533 5.68762 12.2083 5.82467 12.2083H14.5V13.5833Z" fill="#18406D"/>
</svg>
