<svg width="132" height="132" viewBox="0 0 132 132" fill="none" xmlns="http://www.w3.org/2000/svg">
<rect width="132" height="132" rx="7.48571" fill="#FFECE9"/>
<path d="M96.8872 89.9178L44.8765 108.831C43.4178 109.36 41.7997 108.611 41.2697 107.149L18.1699 43.7361C17.6399 42.2787 18.3904 40.662 19.8538 40.1325L33.859 35.0387C34.4922 34.809 35.1817 34.8137 35.8102 35.048L41.9544 37.3583C42.5829 37.5926 43.2771 37.5973 43.9056 37.3677L73.7781 26.5052C75.2368 25.9757 76.8549 26.7255 77.3849 28.1876L98.5616 86.3141C99.101 87.7715 98.3459 89.3835 96.8872 89.9178Z" fill="white"/>
<path opacity="0.2" d="M98.5662 86.3139L77.3942 28.1874C77.1456 27.5079 76.6578 26.983 76.0669 26.6691L74.3549 26.3691C74.1673 26.3973 73.975 26.4441 73.7874 26.5097L58.9942 31.8847L49.0038 88.5164C48.5536 91.0656 50.2561 93.4977 52.8077 93.9429L75.0397 97.8605L96.8871 89.9175C98.3458 89.3833 99.1009 87.7713 98.5662 86.3139Z" fill="#BCEBFF"/>
<path d="M36.5511 94.1925L22.3442 55.1899" stroke="#30446D" strokeWidth="1.5899" stroke-linecap="round" stroke-linejoin="round"/>
<path d="M38.3381 99.0975L37.8878 97.8604" stroke="#30446D" strokeWidth="1.87612" stroke-linecap="round" stroke-linejoin="round"/>
<path d="M19.4738 47.3116L18.1699 43.7361C17.6399 42.2787 18.3904 40.662 19.8538 40.1325L33.859 35.0387C34.4922 34.809 35.1817 34.8137 35.8102 35.048L41.9544 37.3583C42.5829 37.5926 43.2771 37.5973 43.9056 37.3677L73.7781 26.5052C75.2368 25.9757 76.8549 26.7255 77.3849 28.1876L98.5616 86.3141C99.0916 87.7715 98.3412 89.3882 96.8778 89.9178L44.8765 108.831C43.4178 109.36 41.7997 108.611 41.2697 107.149" stroke="#30446D" strokeWidth="1.5899" stroke-linecap="round" stroke-linejoin="round"/>
<path d="M53.2852 40.9427L76.0284 32.6717C77.4871 32.1422 79.1052 32.892 79.6352 34.3541" stroke="#30446D" strokeWidth="1.87612" stroke-linecap="round" stroke-linejoin="round"/>
<path d="M22.3448 55.1899C21.8147 53.7326 22.5652 52.1159 24.0286 51.5863L46.814 43.3013" stroke="#30446D" strokeWidth="1.5899" stroke-linecap="round" stroke-linejoin="round"/>
<path opacity="0.6" d="M95.714 97.3968L49.524 89.2617C46.9725 88.8119 45.2699 86.3798 45.7201 83.8352L56.3061 23.8389C56.7564 21.2896 59.1907 19.5886 61.7375 20.0384L107.928 28.1735C110.479 28.6234 112.182 31.0555 111.731 33.6001L101.145 93.5964C100.695 96.1456 98.2655 97.8467 95.714 97.3968Z" fill="#42BA85" stroke="#00664C" strokeWidth="1.5899" stroke-linecap="round" stroke-linejoin="round"/>
<path d="M82.0146 54.1821L81.7425 64.4869" stroke="white" strokeWidth="1.87612" stroke-linecap="round" stroke-linejoin="round"/>
<path d="M86.4943 47.8931L83.394 50.9859" stroke="white" strokeWidth="1.87612" stroke-linecap="round" stroke-linejoin="round"/>
<path d="M92.4113 48.0466L89.7754 47.0391" stroke="white" strokeWidth="1.87612" stroke-linecap="round" stroke-linejoin="round"/>
<path d="M90.5076 63.6948L85.6484 66.4596" stroke="white" strokeWidth="1.87612" stroke-linecap="round" stroke-linejoin="round"/>
<path d="M94.8377 58.1694L92.9053 61.1451" stroke="white" strokeWidth="1.87612" stroke-linecap="round" stroke-linejoin="round"/>
<path d="M95.551 52.457L95.8184 54.9641" stroke="white" strokeWidth="1.87612" stroke-linecap="round" stroke-linejoin="round"/>
<path d="M75.856 53.3047L78.1214 63.5485" stroke="white" strokeWidth="1.87612" stroke-linecap="round" stroke-linejoin="round"/>
<path d="M76.2303 42.2607L75.7895 49.946" stroke="white" strokeWidth="1.87612" stroke-linecap="round" stroke-linejoin="round"/>
<path d="M79.4067 33.9419L77.418 38.5062" stroke="white" strokeWidth="1.87612" stroke-linecap="round" stroke-linejoin="round"/>
<path d="M70.9077 54.5977L74.6084 63.4029" stroke="white" strokeWidth="1.87612" stroke-linecap="round" stroke-linejoin="round"/>
<path d="M70.5791 43.2964L70.6682 51.2581" stroke="white" strokeWidth="1.87612" stroke-linecap="round" stroke-linejoin="round"/>
<path d="M72.0812 34.7866L70.7632 39.6274" stroke="white" strokeWidth="1.87612" stroke-linecap="round" stroke-linejoin="round"/>
<path d="M66.3955 56.6084L70.9357 64.378" stroke="white" strokeWidth="1.87612" stroke-linecap="round" stroke-linejoin="round"/>
<path d="M64.5435 48.061L65.3596 53.4501" stroke="white" strokeWidth="1.87612" stroke-linecap="round" stroke-linejoin="round"/>
<path d="M65.3831 41.2529L64.7827 44.641" stroke="white" strokeWidth="1.87612" stroke-linecap="round" stroke-linejoin="round"/>
<path d="M83.9803 70.0376C84.2758 68.363 81.7979 66.527 78.4459 65.9366C75.0939 65.3463 72.137 66.2251 71.8416 67.8997C71.5461 69.5742 74.024 71.4102 77.376 72.0006C80.728 72.591 83.6849 71.7121 83.9803 70.0376Z" fill="white"/>
<path d="M72.4551 73.3101L70.9917 81.6185" stroke="white" strokeWidth="1.87612" stroke-linecap="round" stroke-linejoin="round"/>
<path d="M75.8745 82.4817L80.4945 83.2971L81.9953 74.8012C80.5367 74.9043 78.9373 74.834 77.2722 74.5669L75.8745 82.4817Z" fill="white" stroke="white" strokeWidth="1.87612" stroke-linecap="round" stroke-linejoin="round"/>
<path d="M97.3415 88.1655L96.5254 92.7814L91.9102 91.9707" stroke="white" strokeWidth="1.87612" stroke-linecap="round" stroke-linejoin="round"/>
<path d="M60.1108 29.2647L60.927 24.6489L65.5469 25.4643" stroke="white" strokeWidth="1.87612" stroke-linecap="round" stroke-linejoin="round"/>
<path d="M102.496 31.9746L107.116 32.79L106.3 37.4011" stroke="white" strokeWidth="1.87612" stroke-linecap="round" stroke-linejoin="round"/>
<path d="M54.9554 85.4568L50.3354 84.6461L51.1516 80.0303" stroke="white" strokeWidth="1.87612" stroke-linecap="round" stroke-linejoin="round"/>
</svg>
