<svg width="374" height="374" viewBox="0 0 374 374" fill="none" xmlns="http://www.w3.org/2000/svg">
<path d="M374 286.035H0V286.222H374V286.035Z" fill="#EBEBEB"/>
<path d="M332.03 296.816H287.232V297.003H332.03V296.816Z" fill="#EBEBEB"/>
<path d="M253.497 292.77H214.175V292.957H253.497V292.77Z" fill="#EBEBEB"/>
<path d="M283.185 296.727H270.956V296.914H283.185V296.727Z" fill="#EBEBEB"/>
<path d="M78.3754 292.68H41.9702V292.867H78.3754V292.68Z" fill="#EBEBEB"/>
<path d="M89.4979 292.68H81.6963V292.867H89.4979V292.68Z" fill="#EBEBEB"/>
<path d="M151.343 294.285H126.173V294.472H151.343V294.285Z" fill="#EBEBEB"/>
<path d="M177.276 252.675H32.8447C31.7132 252.673 30.6287 252.222 29.8294 251.421C29.03 250.621 28.5811 249.535 28.5811 248.404V45.3743C28.5909 44.2493 29.0442 43.1737 29.8425 42.381C30.6408 41.5883 31.7196 41.1426 32.8447 41.1406H177.276C178.409 41.1406 179.495 41.5906 180.296 42.3916C181.097 43.1926 181.547 44.2789 181.547 45.4117V248.404C181.547 249.537 181.097 250.623 180.296 251.424C179.495 252.225 178.409 252.675 177.276 252.675ZM32.8447 41.2902C31.7628 41.2922 30.7259 41.7234 29.9616 42.4891C29.1973 43.2548 28.7681 44.2924 28.7681 45.3743V248.404C28.7681 249.486 29.1973 250.523 29.9616 251.289C30.7259 252.055 31.7628 252.486 32.8447 252.488H177.276C178.359 252.486 179.396 252.055 180.162 251.29C180.927 250.524 181.358 249.487 181.36 248.404V45.3743C181.358 44.2917 180.927 43.2541 180.162 42.4886C179.396 41.7231 178.359 41.2922 177.276 41.2902H32.8447Z" fill="#EBEBEB"/>
<path d="M339.076 252.675H194.637C193.505 252.673 192.42 252.222 191.619 251.422C190.819 250.621 190.368 249.536 190.366 248.404V45.3743C190.378 44.2486 190.833 43.173 191.632 42.3805C192.432 41.588 193.512 41.1425 194.637 41.1406H339.076C340.2 41.1445 341.277 41.5911 342.073 42.3836C342.87 43.1761 343.322 44.2506 343.332 45.3743V248.404C343.332 249.534 342.884 250.618 342.087 251.419C341.289 252.219 340.206 252.671 339.076 252.675ZM194.637 41.2902C193.555 41.2922 192.517 41.7231 191.752 42.4886C190.986 43.2541 190.555 44.2917 190.553 45.3743V248.404C190.555 249.487 190.986 250.524 191.752 251.29C192.517 252.055 193.555 252.486 194.637 252.488H339.076C340.159 252.486 341.196 252.055 341.962 251.29C342.727 250.524 343.158 249.487 343.16 248.404V45.3743C343.158 44.2917 342.727 43.2541 341.962 42.4886C341.196 41.7231 340.159 41.2922 339.076 41.2902H194.637Z" fill="#EBEBEB"/>
<path d="M338.926 211.16H35.0737V216.411H338.926V211.16Z" fill="#EBEBEB"/>
<path d="M84.2848 184.48L289.708 184.48V60.5518L84.2848 60.5518L84.2848 184.48Z" fill="#F0F0F0"/>
<path d="M284.158 178.93V66.1016L89.8348 66.1016V178.93H284.158Z" fill="#FAFAFA"/>
<path d="M252.689 178.93L217.279 66.1016H182.213L217.623 178.93H252.689Z" fill="white"/>
<path d="M206.755 178.93L171.344 66.1016H157.671L193.081 178.93H206.755Z" fill="white"/>
<path d="M90.5454 178.93V66.1016H89.8423V178.93H90.5454Z" fill="#E6E6E6"/>
<path d="M336.346 216.41H37.647V286.034H336.346V216.41Z" fill="#F5F5F5"/>
<path d="M213.793 216.41H193.68L160.207 286.034H180.32L213.793 216.41Z" fill="#FAFAFA"/>
<path d="M305.992 216.41H285.878L252.405 286.034H272.519L305.992 216.41Z" fill="#FAFAFA"/>
<path d="M186.125 216.41H166.011L132.546 286.034H152.66L186.125 216.41Z" fill="#FAFAFA"/>
<path d="M65.3901 206.447L59.092 199.154V185.989C59.2143 185.985 59.3304 185.934 59.4156 185.846C59.5007 185.758 59.5483 185.64 59.5483 185.518C59.5483 185.391 59.4978 185.269 59.408 185.179C59.3183 185.09 59.1965 185.039 59.0695 185.039H52.36C52.233 185.039 52.1112 185.09 52.0215 185.179C51.9317 185.269 51.8813 185.391 51.8813 185.518C51.8812 185.64 51.9288 185.758 52.0139 185.846C52.0991 185.934 52.2152 185.985 52.3375 185.989V199.154L46.0618 206.447C45.7057 206.858 45.4756 207.364 45.3989 207.902C45.3222 208.441 45.4022 208.991 45.6294 209.485C45.8565 209.98 46.2212 210.398 46.6799 210.691C47.1386 210.984 47.6719 211.139 48.216 211.137H63.2359C63.7801 211.139 64.3134 210.984 64.772 210.691C65.2307 210.398 65.5954 209.98 65.8226 209.485C66.0497 208.991 66.1297 208.441 66.053 207.902C65.9764 207.364 65.7462 206.858 65.3901 206.447Z" fill="#F5F5F5"/>
<path d="M225.791 206.449L219.493 199.133V171.457C219.62 171.457 219.742 171.407 219.832 171.317C219.921 171.227 219.972 171.106 219.972 170.979C219.972 170.852 219.921 170.73 219.832 170.64C219.742 170.55 219.62 170.5 219.493 170.5H212.814C212.687 170.5 212.565 170.55 212.475 170.64C212.385 170.73 212.335 170.852 212.335 170.979C212.335 171.106 212.385 171.227 212.475 171.317C212.565 171.407 212.687 171.457 212.814 171.457V199.133L206.448 206.449C206.092 206.86 205.862 207.366 205.785 207.904C205.708 208.443 205.788 208.993 206.016 209.487C206.243 209.982 206.607 210.4 207.066 210.693C207.525 210.986 208.058 211.141 208.602 211.139H223.652C224.195 211.138 224.726 210.981 225.183 210.687C225.639 210.393 226.002 209.974 226.227 209.48C226.452 208.986 226.531 208.438 226.454 207.901C226.377 207.363 226.147 206.859 225.791 206.449Z" fill="#F5F5F5"/>
<path d="M159.332 211.124H107.211L111.325 158.996H159.332V211.124Z" fill="#E0E0E0"/>
<path d="M182.273 197.144H130.152L125.425 158.996H177.545L182.273 197.144Z" fill="#F0F0F0"/>
<path d="M182.272 197.145H130.152L146.428 211.162H198.549L182.272 197.145Z" fill="#F0F0F0"/>
<path d="M132.456 191.607L129.105 164.56C129.053 164.239 129.072 163.911 129.162 163.599C129.252 163.287 129.41 162.998 129.624 162.754C129.839 162.51 130.105 162.317 130.403 162.188C130.701 162.059 131.024 161.998 131.349 162.009H172.391C173.092 162.031 173.763 162.299 174.286 162.765C174.81 163.231 175.153 163.866 175.256 164.56L178.607 191.63C178.658 191.95 178.638 192.277 178.547 192.588C178.457 192.9 178.299 193.187 178.084 193.43C177.87 193.673 177.605 193.866 177.307 193.994C177.009 194.123 176.687 194.184 176.363 194.173H135.321C134.618 194.15 133.945 193.881 133.421 193.411C132.897 192.942 132.556 192.304 132.456 191.607Z" fill="#E0E0E0"/>
<path d="M269.908 211.125H312.971L309.575 168.07H269.908V211.125Z" fill="#E0E0E0"/>
<path d="M250.961 199.584H294.016L297.928 168.07H254.866L250.961 199.584Z" fill="#F0F0F0"/>
<path d="M250.961 199.582H294.016L280.575 211.161H237.512L250.961 199.582Z" fill="#F0F0F0"/>
<path d="M292.116 195.01L294.891 172.638C294.933 172.374 294.916 172.104 294.842 171.847C294.768 171.591 294.638 171.353 294.461 171.153C294.285 170.952 294.066 170.793 293.821 170.686C293.576 170.579 293.311 170.528 293.044 170.536H259.137C258.558 170.551 258.004 170.77 257.571 171.155C257.138 171.54 256.856 172.065 256.773 172.638L253.998 195.01C253.956 195.274 253.973 195.543 254.047 195.799C254.121 196.055 254.25 196.292 254.426 196.493C254.601 196.693 254.819 196.853 255.063 196.96C255.307 197.067 255.572 197.119 255.838 197.112H289.752C290.331 197.097 290.886 196.878 291.318 196.493C291.751 196.109 292.033 195.583 292.116 195.01Z" fill="#E0E0E0"/>
<path d="M187 319.814C267.098 319.814 332.03 316.023 332.03 311.346C332.03 306.67 267.098 302.879 187 302.879C106.902 302.879 41.9702 306.67 41.9702 311.346C41.9702 316.023 106.902 319.814 187 319.814Z" fill="#F5F5F5"/>
<path opacity="0.2" d="M65.0762 93.7388L105.214 247.079C106.448 251.741 109.477 255.726 113.64 258.162C117.802 260.598 122.76 261.287 127.429 260.079C132.092 258.845 136.077 255.816 138.513 251.653C140.949 247.49 141.638 242.533 140.43 237.863L100.292 84.5234L65.0762 93.7388Z" fill="#005D8D"/>
<path d="M126.292 255.74C122.774 256.656 119.037 256.14 115.899 254.304C112.761 252.469 110.478 249.464 109.552 245.949L79.2881 130.233C79.2881 130.233 85.4142 126.052 92.5576 126.762C97.1983 127.094 101.853 126.347 106.156 124.578L136.076 239.022C136.988 242.536 136.47 246.268 134.636 249.401C132.803 252.534 129.803 254.814 126.292 255.74Z" fill="#005D8D"/>
<path opacity="0.2" d="M107.353 196.064C107.353 196.699 107.165 197.319 106.812 197.847C106.459 198.375 105.958 198.786 105.372 199.029C104.786 199.272 104.14 199.335 103.518 199.212C102.895 199.088 102.324 198.782 101.875 198.333C101.426 197.885 101.121 197.313 100.997 196.69C100.873 196.068 100.936 195.423 101.179 194.836C101.422 194.25 101.833 193.749 102.361 193.396C102.889 193.044 103.509 192.855 104.144 192.855C104.994 192.857 105.809 193.196 106.411 193.798C107.012 194.399 107.351 195.214 107.353 196.064Z" fill="black"/>
<path d="M105.58 196.065C105.582 196.35 105.499 196.628 105.342 196.865C105.185 197.102 104.961 197.288 104.699 197.398C104.437 197.507 104.148 197.537 103.869 197.482C103.589 197.428 103.333 197.292 103.131 197.091C102.93 196.89 102.792 196.635 102.736 196.356C102.68 196.077 102.708 195.788 102.817 195.525C102.925 195.262 103.109 195.037 103.345 194.879C103.582 194.721 103.86 194.637 104.144 194.637C104.524 194.637 104.888 194.787 105.157 195.055C105.426 195.322 105.578 195.686 105.58 196.065Z" fill="#005D8D"/>
<path opacity="0.2" d="M108.191 161.814C108.192 162.192 108.081 162.562 107.872 162.877C107.663 163.191 107.366 163.437 107.017 163.582C106.668 163.728 106.284 163.766 105.913 163.693C105.542 163.619 105.202 163.437 104.935 163.17C104.667 162.903 104.486 162.562 104.412 162.192C104.339 161.821 104.377 161.437 104.523 161.088C104.668 160.739 104.914 160.441 105.228 160.232C105.543 160.023 105.913 159.913 106.291 159.914C106.794 159.916 107.276 160.117 107.632 160.473C107.988 160.829 108.189 161.311 108.191 161.814Z" fill="black"/>
<path d="M107.136 161.814C107.138 161.983 107.089 162.149 106.995 162.291C106.902 162.432 106.769 162.542 106.613 162.608C106.457 162.673 106.285 162.691 106.119 162.658C105.953 162.626 105.8 162.544 105.68 162.424C105.561 162.305 105.479 162.152 105.447 161.986C105.414 161.82 105.432 161.648 105.497 161.492C105.562 161.336 105.673 161.203 105.814 161.109C105.956 161.016 106.122 160.967 106.291 160.969C106.514 160.971 106.728 161.06 106.886 161.219C107.044 161.377 107.134 161.59 107.136 161.814Z" fill="#005D8D"/>
<path opacity="0.2" d="M115.753 235.748C118.025 235.748 119.867 233.906 119.867 231.634C119.867 229.361 118.025 227.52 115.753 227.52C113.481 227.52 111.639 229.361 111.639 231.634C111.639 233.906 113.481 235.748 115.753 235.748Z" fill="black"/>
<path d="M115.753 233.473C116.769 233.473 117.593 232.649 117.593 231.633C117.593 230.617 116.769 229.793 115.753 229.793C114.737 229.793 113.913 230.617 113.913 231.633C113.913 232.649 114.737 233.473 115.753 233.473Z" fill="#005D8D"/>
<path opacity="0.2" d="M119.792 215.706C121.085 215.706 122.133 214.658 122.133 213.365C122.133 212.072 121.085 211.023 119.792 211.023C118.499 211.023 117.451 212.072 117.451 213.365C117.451 214.658 118.499 215.706 119.792 215.706Z" fill="black"/>
<path d="M120.832 213.368C120.832 213.575 120.77 213.778 120.655 213.95C120.539 214.122 120.375 214.257 120.184 214.336C119.992 214.415 119.781 214.435 119.577 214.394C119.374 214.353 119.188 214.253 119.041 214.105C118.895 213.958 118.796 213.771 118.757 213.567C118.717 213.364 118.739 213.153 118.819 212.962C118.9 212.77 119.035 212.607 119.208 212.493C119.381 212.379 119.585 212.319 119.792 212.32C120.068 212.322 120.333 212.434 120.528 212.63C120.722 212.826 120.832 213.091 120.832 213.368Z" fill="#005D8D"/>
<path opacity="0.2" d="M126.778 245.85C128.294 245.85 129.524 244.621 129.524 243.105C129.524 241.588 128.294 240.359 126.778 240.359C125.262 240.359 124.033 241.588 124.033 243.105C124.033 244.621 125.262 245.85 126.778 245.85Z" fill="black"/>
<path d="M128.005 243.098C128.005 243.34 127.933 243.578 127.798 243.779C127.664 243.981 127.472 244.138 127.248 244.231C127.024 244.324 126.777 244.348 126.539 244.301C126.301 244.254 126.083 244.137 125.911 243.965C125.739 243.794 125.623 243.575 125.575 243.337C125.528 243.099 125.552 242.853 125.645 242.628C125.738 242.404 125.895 242.213 126.097 242.078C126.299 241.943 126.536 241.871 126.778 241.871C127.104 241.871 127.416 242 127.646 242.23C127.876 242.46 128.005 242.772 128.005 243.098Z" fill="#005D8D"/>
<path opacity="0.2" d="M109.133 177.924C109.133 178.558 108.945 179.179 108.592 179.707C108.24 180.234 107.739 180.646 107.152 180.888C106.566 181.131 105.921 181.195 105.298 181.071C104.676 180.947 104.104 180.642 103.655 180.193C103.206 179.744 102.901 179.172 102.777 178.55C102.653 177.927 102.717 177.282 102.96 176.696C103.202 176.109 103.614 175.608 104.141 175.256C104.669 174.903 105.29 174.715 105.924 174.715C106.775 174.715 107.592 175.053 108.193 175.655C108.795 176.257 109.133 177.073 109.133 177.924Z" fill="black"/>
<path d="M108.191 177.924C108.191 178.368 108.059 178.801 107.812 179.17C107.566 179.539 107.215 179.827 106.805 179.997C106.395 180.167 105.944 180.211 105.509 180.125C105.074 180.038 104.674 179.824 104.36 179.51C104.046 179.197 103.832 178.797 103.746 178.361C103.659 177.926 103.704 177.475 103.873 177.065C104.043 176.655 104.331 176.304 104.7 176.058C105.069 175.811 105.503 175.68 105.947 175.68C106.542 175.68 107.113 175.916 107.533 176.337C107.954 176.758 108.191 177.329 108.191 177.924Z" fill="#005D8D"/>
<path opacity="0.2" d="M116.419 190.822C116.419 191.266 116.287 191.7 116.04 192.069C115.794 192.438 115.443 192.725 115.033 192.895C114.623 193.065 114.172 193.11 113.737 193.023C113.302 192.936 112.902 192.723 112.588 192.409C112.274 192.095 112.06 191.695 111.974 191.26C111.887 190.825 111.932 190.373 112.101 189.963C112.271 189.553 112.559 189.203 112.928 188.956C113.297 188.71 113.731 188.578 114.175 188.578C114.77 188.578 115.341 188.815 115.761 189.235C116.182 189.656 116.419 190.227 116.419 190.822Z" fill="black"/>
<path d="M115.753 190.82C115.759 191.14 115.669 191.454 115.496 191.722C115.323 191.99 115.074 192.201 114.781 192.327C114.488 192.454 114.163 192.49 113.85 192.431C113.536 192.373 113.246 192.222 113.018 191.998C112.79 191.775 112.634 191.488 112.57 191.175C112.505 190.863 112.535 190.538 112.656 190.242C112.777 189.946 112.983 189.694 113.248 189.515C113.513 189.337 113.825 189.242 114.145 189.242C114.566 189.242 114.971 189.407 115.271 189.703C115.572 189.998 115.745 190.399 115.753 190.82Z" fill="#005D8D"/>
<path d="M93.4796 102.803L79.9697 106.34L92.0934 152.651L105.603 149.115L93.4796 102.803Z" fill="white"/>
<path d="M98.4062 59.0996L97.6826 59.2891L99.1185 64.7741L99.8421 64.5846L98.4062 59.0996Z" fill="#005D8D"/>
<path d="M96.7611 55.7546L93.7243 44.168C93.5259 43.4082 93.0814 42.7356 92.4602 42.2552C91.839 41.7747 91.0762 41.5136 90.2909 41.5126C89.9852 41.5114 89.6808 41.5517 89.3859 41.6323L82.5566 43.42L82.3696 42.672L89.1989 40.8843C89.555 40.7888 89.9222 40.741 90.2909 40.7422C91.2423 40.7429 92.1665 41.059 92.9191 41.641C93.6716 42.223 94.2099 43.038 94.4498 43.9586L97.4418 55.5451L96.7611 55.7546Z" fill="#005D8D"/>
<path d="M54.0425 52.8143L89.8614 43.4374C90.291 43.3311 90.7451 43.3982 91.1255 43.6242C91.5059 43.8502 91.7821 44.217 91.8941 44.645L101.697 82.0921L62.6219 92.3215L52.8188 54.8744C52.7624 54.6587 52.7493 54.434 52.7804 54.2133C52.8115 53.9925 52.8861 53.7802 52.9999 53.5885C53.1138 53.3969 53.2646 53.2297 53.4435 53.0968C53.6225 52.9639 53.8261 52.8679 54.0425 52.8143Z" fill="#005D8D"/>
<path opacity="0.2" d="M72.9213 47.8614L70.9893 48.3672L81.2186 87.4424L83.1506 86.9366L72.9213 47.8614Z" fill="black"/>
<path opacity="0.2" d="M80.2312 46.3679L78.2939 46.8672L88.3919 86.0474L90.3292 85.5481L80.2312 46.3679Z" fill="black"/>
<path opacity="0.2" d="M87.3866 44.0841L85.4546 44.5898L95.6839 83.6651L97.616 83.1593L87.3866 44.0841Z" fill="black"/>
<path opacity="0.2" d="M65.6782 49.7637L63.7461 50.2695L73.9754 89.3448L75.9075 88.839L65.6782 49.7637Z" fill="black"/>
<path opacity="0.2" d="M58.4516 51.6583L56.5195 52.1641L66.7489 91.2393L68.6809 90.7335L58.4516 51.6583Z" fill="black"/>
<path d="M101.033 79.427L61.9502 89.6583C60.6194 90.0066 59.823 91.3679 60.1713 92.6987L61.5296 97.887C61.878 99.2178 63.2392 100.014 64.57 99.6659L103.652 89.4346C104.983 89.0862 105.78 87.725 105.431 86.3942L104.073 81.2059C103.725 79.8751 102.363 79.0786 101.033 79.427Z" fill="#005D8D"/>
<path d="M329.794 137.152L329.385 142.207L330.131 142.267L330.539 137.212L329.794 137.152Z" fill="#005D8D"/>
<path d="M331.484 116.636L330.271 131.645L331.017 131.705L332.23 116.696L331.484 116.636Z" fill="#005D8D"/>
<path d="M209.552 54.9922L196.32 218.647L294.667 226.591L322.627 202.819L333.765 65.0304L209.552 54.9922Z" fill="white"/>
<path d="M294.667 227.279H294.607L196.268 219.328C196.177 219.321 196.088 219.296 196.007 219.255C195.926 219.214 195.854 219.156 195.795 219.087C195.737 219.017 195.693 218.936 195.666 218.849C195.639 218.762 195.63 218.67 195.639 218.58L208.864 54.9397C208.871 54.8492 208.897 54.7611 208.939 54.6805C208.98 54.5998 209.038 54.5282 209.107 54.4698C209.177 54.4114 209.257 54.3674 209.344 54.3402C209.43 54.313 209.521 54.3032 209.612 54.3114L333.817 64.3271C333.908 64.3337 333.997 64.3584 334.078 64.3998C334.159 64.4412 334.231 64.4985 334.29 64.5682C334.348 64.638 334.392 64.7188 334.419 64.8059C334.446 64.8929 334.455 64.9845 334.446 65.0751L323.308 202.857C323.302 202.946 323.277 203.034 323.236 203.113C323.195 203.193 323.138 203.264 323.069 203.32L295.108 227.099C294.988 227.211 294.831 227.275 294.667 227.279ZM197.06 218.019L294.435 225.895L321.969 202.483L333.024 65.6586L210.188 55.7326L197.06 218.019Z" fill="#005D8D"/>
<path opacity="0.2" d="M291.884 202.273L294.667 226.591L322.627 202.819L291.884 202.273Z" fill="#005D8D"/>
<path d="M296.754 200.727L294.667 226.592L322.627 202.821L296.754 200.727Z" fill="white"/>
<path d="M294.667 227.277C294.557 227.278 294.45 227.252 294.353 227.202C294.231 227.141 294.131 227.045 294.065 226.926C293.998 226.808 293.968 226.672 293.979 226.537L296.073 200.671C296.079 200.58 296.103 200.492 296.144 200.411C296.186 200.33 296.243 200.258 296.312 200.2C296.381 200.141 296.461 200.097 296.547 200.07C296.633 200.043 296.724 200.033 296.813 200.043L322.679 202.129C322.814 202.14 322.943 202.191 323.05 202.275C323.156 202.359 323.235 202.472 323.278 202.601C323.321 202.732 323.324 202.873 323.287 203.007C323.25 203.14 323.174 203.259 323.068 203.349L295.108 227.128C294.984 227.23 294.827 227.284 294.667 227.277ZM297.382 201.464L295.46 224.996L320.892 203.364L297.382 201.464Z" fill="#005D8D"/>
<path d="M269.983 83.3871H269.766C269.133 83.3356 268.545 83.035 268.133 82.5513C267.721 82.0675 267.517 81.4401 267.567 80.8065L268.076 74.5308C268.101 74.2164 268.187 73.9101 268.331 73.6293C268.474 73.3485 268.672 73.0986 268.911 72.8941C269.151 72.6895 269.429 72.5343 269.729 72.4371C270.029 72.34 270.346 72.3029 270.66 72.3279C270.974 72.3529 271.281 72.4397 271.561 72.5831C271.842 72.7265 272.092 72.9239 272.297 73.1638C272.501 73.4038 272.656 73.6817 272.754 73.9817C272.851 74.2817 272.888 74.5979 272.863 74.9122L272.354 81.188C272.304 81.784 272.033 82.3398 271.594 82.7466C271.156 83.1533 270.581 83.3817 269.983 83.3871Z" fill="#005D8D"/>
<path d="M273.626 77.3648H273.416L267.141 76.8561C266.814 76.848 266.493 76.7735 266.196 76.6371C265.9 76.5007 265.634 76.3053 265.416 76.0627C265.197 75.8202 265.031 75.5357 264.926 75.2265C264.821 74.9174 264.78 74.5901 264.806 74.2647C264.832 73.9394 264.924 73.6227 265.077 73.3341C265.229 73.0455 265.439 72.791 265.693 72.5862C265.947 72.3814 266.241 72.2305 266.555 72.1429C266.87 72.0552 267.199 72.0326 267.522 72.0764L273.768 72.5551C274.372 72.6195 274.929 72.9106 275.327 73.3697C275.725 73.8288 275.935 74.4217 275.913 75.0289C275.891 75.6361 275.64 76.2125 275.21 76.6418C274.78 77.0711 274.203 77.3214 273.596 77.3423L273.626 77.3648Z" fill="#005D8D"/>
<path d="M264.538 150.706H264.328C264.014 150.681 263.708 150.595 263.427 150.452C263.147 150.309 262.897 150.112 262.693 149.872C262.489 149.632 262.334 149.355 262.237 149.055C262.14 148.755 262.103 148.439 262.129 148.125L262.638 141.85C262.646 141.523 262.72 141.202 262.857 140.905C262.993 140.609 263.188 140.343 263.431 140.125C263.674 139.906 263.958 139.74 264.267 139.635C264.576 139.53 264.904 139.489 265.229 139.515C265.554 139.541 265.871 139.633 266.16 139.786C266.448 139.938 266.703 140.148 266.908 140.402C267.112 140.656 267.263 140.95 267.351 141.264C267.439 141.579 267.461 141.908 267.417 142.231L266.909 148.507C266.86 149.103 266.59 149.66 266.151 150.067C265.712 150.474 265.136 150.702 264.538 150.706Z" fill="#005D8D"/>
<path d="M267.679 150.962H267.462L261.186 150.454C260.861 150.444 260.54 150.369 260.244 150.231C259.949 150.094 259.684 149.898 259.467 149.656C259.249 149.413 259.083 149.128 258.979 148.819C258.875 148.51 258.835 148.184 258.862 147.859C258.888 147.534 258.981 147.218 259.133 146.93C259.286 146.642 259.495 146.388 259.749 146.183C260.003 145.979 260.296 145.828 260.61 145.741C260.924 145.653 261.252 145.63 261.575 145.674L267.851 146.182C268.455 146.247 269.013 146.538 269.411 146.997C269.809 147.456 270.018 148.049 269.996 148.656C269.974 149.263 269.723 149.84 269.293 150.269C268.863 150.698 268.286 150.949 267.679 150.97V150.962Z" fill="#005D8D"/>
<path d="M304.308 116.89H304.099L297.823 116.381C297.188 116.329 296.6 116.028 296.188 115.542C295.775 115.057 295.573 114.428 295.624 113.793C295.676 113.158 295.977 112.57 296.463 112.157C296.948 111.745 297.577 111.542 298.212 111.594L304.488 112.102C305.106 112.151 305.68 112.437 306.092 112.9C306.504 113.363 306.721 113.967 306.698 114.586C306.675 115.205 306.413 115.791 305.968 116.222C305.523 116.653 304.928 116.895 304.308 116.897V116.89Z" fill="#005D8D"/>
<path d="M304.062 120.023H303.845C303.53 119.997 303.224 119.91 302.943 119.766C302.663 119.622 302.413 119.425 302.209 119.184C302.005 118.944 301.85 118.666 301.753 118.365C301.657 118.065 301.62 117.749 301.646 117.435L302.154 111.159C302.236 110.549 302.549 109.995 303.028 109.609C303.507 109.223 304.116 109.036 304.729 109.086C305.342 109.136 305.912 109.419 306.322 109.877C306.733 110.335 306.952 110.933 306.934 111.548L306.433 117.824C306.383 118.42 306.112 118.975 305.673 119.382C305.234 119.789 304.66 120.017 304.062 120.023Z" fill="#005D8D"/>
<path d="M236.988 111.45H236.779L230.503 110.942C230.177 110.932 229.857 110.857 229.561 110.72C229.266 110.583 229.001 110.387 228.784 110.144C228.566 109.901 228.4 109.617 228.296 109.308C228.192 108.999 228.152 108.672 228.179 108.347C228.205 108.022 228.298 107.706 228.45 107.418C228.603 107.13 228.812 106.876 229.066 106.672C229.32 106.467 229.613 106.317 229.927 106.229C230.241 106.141 230.569 106.119 230.892 106.162L237.168 106.671C237.772 106.736 238.33 107.027 238.728 107.487C239.125 107.947 239.334 108.541 239.311 109.148C239.288 109.756 239.036 110.332 238.605 110.761C238.174 111.189 237.596 111.438 236.988 111.458V111.45Z" fill="#005D8D"/>
<path d="M230.466 114.075H230.249C229.935 114.05 229.628 113.962 229.348 113.819C229.067 113.675 228.818 113.477 228.613 113.237C228.409 112.996 228.254 112.718 228.158 112.418C228.061 112.118 228.024 111.801 228.05 111.487L228.559 105.211C228.568 104.886 228.643 104.565 228.781 104.269C228.918 103.974 229.114 103.709 229.357 103.492C229.599 103.274 229.884 103.108 230.193 103.004C230.502 102.9 230.829 102.86 231.153 102.887C231.478 102.913 231.794 103.006 232.082 103.158C232.37 103.311 232.624 103.52 232.829 103.774C233.033 104.028 233.184 104.321 233.271 104.635C233.359 104.949 233.382 105.277 233.338 105.6L232.837 111.876C232.787 112.472 232.516 113.028 232.077 113.435C231.639 113.841 231.064 114.07 230.466 114.075Z" fill="#005D8D"/>
<path d="M247.678 90.5813C247.326 90.5866 246.978 90.5135 246.659 90.3673C246.339 90.2211 246.056 90.0054 245.83 89.736L241.746 84.9413C241.333 84.4563 241.13 83.8272 241.182 83.1924C241.233 82.5577 241.534 81.9693 242.019 81.5566C242.504 81.144 243.133 80.941 243.768 80.9922C244.403 81.0434 244.991 81.3446 245.404 81.8297L249.488 86.6318C249.899 87.1171 250.101 87.7457 250.049 88.3795C249.997 89.0134 249.696 89.6008 249.211 90.0128C248.784 90.3787 248.24 90.5803 247.678 90.5813Z" fill="#005D8D"/>
<path d="M241.2 87.8306C240.708 87.8343 240.226 87.6866 239.82 87.4074C239.415 87.1281 239.105 86.7309 238.932 86.2696C238.76 85.8083 238.734 85.3052 238.857 84.8284C238.981 84.3517 239.247 83.9244 239.622 83.6044L244.424 79.5203C244.662 79.2997 244.942 79.1295 245.247 79.0199C245.552 78.9104 245.876 78.8639 246.2 78.8831C246.524 78.9024 246.84 78.987 247.13 79.132C247.421 79.2769 247.678 79.4791 247.888 79.7263C248.098 79.9736 248.256 80.2608 248.352 80.5707C248.447 80.8805 248.479 81.2066 248.446 81.5291C248.412 81.8517 248.313 82.1641 248.156 82.4475C247.998 82.7309 247.785 82.9794 247.528 83.1781L242.733 87.2547C242.305 87.6193 241.763 87.823 241.2 87.8306Z" fill="#005D8D"/>
<path d="M291.428 142.038C291.077 142.039 290.73 141.965 290.411 141.819C290.092 141.673 289.809 141.459 289.581 141.193L285.504 136.398C285.3 136.158 285.145 135.88 285.048 135.58C284.951 135.28 284.914 134.964 284.939 134.649C284.965 134.335 285.052 134.029 285.195 133.748C285.339 133.468 285.537 133.218 285.777 133.014C286.017 132.809 286.295 132.654 286.595 132.557C286.895 132.461 287.212 132.424 287.526 132.449C287.84 132.475 288.146 132.562 288.427 132.705C288.708 132.849 288.957 133.047 289.162 133.287L293.216 138.081C293.509 138.43 293.697 138.855 293.758 139.307C293.819 139.758 293.751 140.218 293.561 140.632C293.372 141.046 293.069 141.398 292.687 141.647C292.306 141.896 291.861 142.032 291.406 142.038H291.428Z" fill="#005D8D"/>
<path d="M289.034 144.07C288.683 144.076 288.335 144.003 288.015 143.856C287.696 143.71 287.413 143.495 287.187 143.225C286.982 142.986 286.826 142.708 286.729 142.409C286.632 142.109 286.594 141.793 286.619 141.479C286.644 141.165 286.731 140.859 286.875 140.578C287.018 140.298 287.216 140.048 287.456 139.844L292.251 135.768C292.736 135.355 293.365 135.152 294 135.203C294.634 135.254 295.223 135.556 295.636 136.041C296.048 136.526 296.251 137.155 296.2 137.789C296.149 138.424 295.848 139.013 295.363 139.425L290.568 143.502C290.141 143.868 289.597 144.069 289.034 144.07Z" fill="#005D8D"/>
<path d="M290.838 94.0739C290.346 94.0761 289.865 93.9273 289.461 93.6474C289.056 93.3676 288.748 92.9704 288.576 92.5094C288.405 92.0484 288.379 91.546 288.503 91.0699C288.626 90.5939 288.893 90.1673 289.267 89.8478L294.061 85.7637C294.546 85.351 295.176 85.148 295.81 85.1992C296.445 85.2504 297.033 85.5516 297.446 86.0367C297.859 86.5217 298.062 87.1508 298.011 87.7856C297.959 88.4203 297.658 89.0088 297.173 89.4214L292.378 93.498C291.948 93.8643 291.403 94.0681 290.838 94.0739Z" fill="#005D8D"/>
<path d="M297.704 92.3905C297.354 92.3937 297.007 92.3196 296.689 92.1735C296.371 92.0274 296.089 91.8129 295.864 91.5453L291.72 86.7655C291.515 86.5254 291.36 86.2473 291.264 85.9472C291.167 85.6472 291.13 85.331 291.155 85.0167C291.181 84.7024 291.268 84.3961 291.411 84.1155C291.555 83.8348 291.753 83.5852 291.993 83.3808C292.233 83.1765 292.511 83.0215 292.811 82.9247C293.111 82.8278 293.427 82.791 293.742 82.8164C294.056 82.8417 294.362 82.9287 294.643 83.0724C294.924 83.2161 295.173 83.4137 295.377 83.6539L299.454 88.4485C299.753 88.7955 299.947 89.2211 300.011 89.6747C300.076 90.1283 300.009 90.591 299.818 91.0076C299.628 91.4243 299.321 91.7775 298.936 92.0253C298.551 92.2731 298.102 92.405 297.644 92.4055L297.704 92.3905Z" fill="#005D8D"/>
<path d="M239.36 137.827C239.008 137.832 238.66 137.759 238.341 137.613C238.021 137.467 237.738 137.251 237.512 136.982C237.308 136.742 237.153 136.464 237.056 136.164C236.959 135.864 236.923 135.548 236.948 135.234C236.974 134.92 237.062 134.614 237.206 134.333C237.35 134.053 237.548 133.804 237.789 133.601L242.584 129.524C242.821 129.304 243.101 129.133 243.407 129.024C243.712 128.914 244.036 128.868 244.36 128.887C244.684 128.906 245 128.991 245.29 129.136C245.581 129.281 245.838 129.483 246.048 129.73C246.258 129.978 246.416 130.265 246.511 130.575C246.607 130.884 246.639 131.21 246.606 131.533C246.572 131.856 246.473 132.168 246.316 132.451C246.158 132.735 245.944 132.983 245.688 133.182L240.893 137.259C240.467 137.627 239.923 137.829 239.36 137.827Z" fill="#005D8D"/>
<path d="M241.432 140.226C241.081 140.229 240.733 140.155 240.414 140.009C240.094 139.863 239.811 139.648 239.584 139.381L235.5 134.586C235.087 134.101 234.884 133.472 234.936 132.837C234.987 132.202 235.288 131.614 235.773 131.201C236.258 130.789 236.887 130.585 237.522 130.637C238.157 130.688 238.745 130.989 239.158 131.474L243.234 136.269C243.439 136.509 243.595 136.787 243.693 137.087C243.79 137.388 243.827 137.704 243.802 138.019C243.777 138.334 243.691 138.64 243.547 138.922C243.403 139.203 243.206 139.453 242.965 139.657C242.534 140.017 241.993 140.218 241.432 140.226Z" fill="#005D8D"/>
<path d="M287.329 134.835C300.212 123.879 301.774 104.552 290.817 91.6685C279.86 78.785 260.534 77.2233 247.65 88.1802C234.767 99.1372 233.205 118.464 244.162 131.347C255.119 144.231 274.445 145.792 287.329 134.835Z" fill="white"/>
<path d="M267.784 143.505C266.834 143.505 265.884 143.505 264.927 143.4C258.619 142.891 252.605 140.523 247.643 136.596C242.682 132.668 238.996 127.358 237.053 121.336C235.11 115.314 234.996 108.851 236.727 102.764C238.457 96.6772 241.953 91.2404 246.773 87.1409C251.594 83.0415 257.522 80.4636 263.807 79.7333C270.093 79.003 276.454 80.1531 282.085 83.0381C287.717 85.9232 292.367 90.4135 295.447 95.9413C298.526 101.469 299.898 107.786 299.387 114.093L298.026 113.981L299.387 114.093C298.743 122.056 295.143 129.49 289.294 134.933C283.446 140.376 275.773 143.433 267.784 143.505ZM267.268 82.2808C259.643 82.3532 252.35 85.4082 246.95 90.7915C241.549 96.1748 238.472 103.458 238.375 111.083C238.279 118.707 241.172 126.067 246.434 131.585C251.697 137.103 258.91 140.341 266.531 140.606C274.151 140.871 281.573 138.142 287.206 133.003C292.839 127.864 296.236 120.723 296.67 113.111C297.103 105.498 294.539 98.0179 289.526 92.2724C284.513 86.5269 277.45 82.9726 269.848 82.3705C268.971 82.3107 268.111 82.2808 267.268 82.2808Z" fill="#005D8D"/>
<path opacity="0.2" d="M278.51 115.67C278.211 115.67 277.912 115.67 277.62 115.67C274.977 115.458 272.528 114.204 270.809 112.186C269.091 110.167 268.245 107.549 268.457 104.906C268.669 102.264 269.922 99.8137 271.941 98.0953C273.96 96.3769 276.578 95.5308 279.221 95.7431C281.788 95.9423 284.18 97.1275 285.893 99.0504C287.607 100.973 288.51 103.485 288.413 106.058C288.316 108.632 287.227 111.069 285.374 112.857C283.522 114.646 281.048 115.649 278.473 115.655L278.51 115.67ZM278.368 99.4307C277.15 99.4398 275.961 99.8036 274.947 100.478C273.932 101.152 273.136 102.106 272.655 103.226C272.175 104.345 272.031 105.58 272.241 106.779C272.451 107.979 273.006 109.092 273.838 109.981C274.67 110.871 275.743 111.498 276.926 111.788C278.109 112.077 279.351 112.015 280.5 111.61C281.648 111.205 282.654 110.474 283.394 109.507C284.134 108.539 284.576 107.377 284.666 106.163C284.796 104.508 284.264 102.87 283.187 101.608C282.11 100.345 280.576 99.5624 278.921 99.4307C278.742 99.4382 278.555 99.4307 278.368 99.4307Z" fill="#005D8D"/>
<path opacity="0.4" d="M255.928 109.096C255.845 110.197 255.436 111.249 254.754 112.118C254.072 112.988 253.148 113.635 252.098 113.978C251.047 114.321 249.919 114.345 248.856 114.046C247.792 113.747 246.841 113.14 246.123 112.3C245.405 111.46 244.953 110.427 244.823 109.329C244.693 108.232 244.892 107.121 245.394 106.137C245.896 105.153 246.679 104.341 247.644 103.802C248.608 103.263 249.711 103.023 250.812 103.112C252.283 103.23 253.647 103.926 254.605 105.048C255.564 106.169 256.04 107.625 255.928 109.096Z" fill="#005D8D"/>
<path opacity="0.2" d="M270.993 127.015C270.93 127.792 270.638 128.533 270.154 129.144C269.67 129.755 269.015 130.209 268.273 130.448C267.531 130.687 266.735 130.701 265.985 130.487C265.236 130.274 264.566 129.843 264.061 129.249C263.556 128.656 263.238 127.925 263.148 127.151C263.058 126.377 263.2 125.593 263.555 124.899C263.91 124.206 264.463 123.633 265.144 123.253C265.825 122.873 266.603 122.704 267.38 122.767C268.422 122.852 269.387 123.348 270.065 124.144C270.742 124.941 271.076 125.973 270.993 127.015Z" fill="#005D8D"/>
<path opacity="0.2" d="M235.103 178.773H234.984L218.049 177.404C217.868 177.39 217.691 177.34 217.529 177.257C217.367 177.173 217.224 177.059 217.107 176.92C216.99 176.78 216.902 176.619 216.848 176.445C216.794 176.272 216.775 176.089 216.792 175.908L218.161 158.973C218.176 158.792 218.227 158.616 218.311 158.455C218.394 158.293 218.509 158.15 218.648 158.033C218.787 157.917 218.948 157.828 219.121 157.774C219.294 157.72 219.476 157.7 219.657 157.717L236.585 159.085C236.766 159.1 236.942 159.151 237.103 159.235C237.264 159.318 237.408 159.433 237.524 159.572C237.641 159.711 237.729 159.872 237.784 160.045C237.838 160.218 237.858 160.401 237.841 160.581L236.472 177.509C236.458 177.688 236.409 177.864 236.327 178.024C236.245 178.185 236.131 178.327 235.994 178.444C235.745 178.654 235.43 178.771 235.103 178.773ZM219.635 174.771L233.847 175.923L234.991 161.711L220.779 160.559L219.635 174.771Z" fill="#263238"/>
<path d="M299.761 172.039H299.641L244.334 167.551C243.972 167.521 243.637 167.349 243.402 167.072C243.167 166.795 243.052 166.436 243.081 166.074C243.111 165.712 243.283 165.376 243.56 165.141C243.837 164.907 244.197 164.791 244.559 164.821L299.858 169.309C300.038 169.315 300.215 169.357 300.378 169.432C300.542 169.507 300.689 169.613 300.812 169.744C300.934 169.876 301.03 170.03 301.093 170.199C301.156 170.367 301.185 170.547 301.178 170.726C301.172 170.906 301.13 171.083 301.056 171.247C300.981 171.41 300.875 171.558 300.743 171.68C300.611 171.803 300.457 171.898 300.288 171.961C300.12 172.024 299.941 172.053 299.761 172.047V172.039Z" fill="#E0E0E0"/>
<path d="M261.628 175.853H261.508L243.781 174.424C243.592 174.421 243.407 174.379 243.235 174.302C243.064 174.224 242.91 174.112 242.784 173.972C242.658 173.833 242.561 173.669 242.501 173.49C242.44 173.312 242.417 173.123 242.432 172.936C242.448 172.748 242.501 172.566 242.59 172.4C242.679 172.234 242.801 172.088 242.948 171.97C243.095 171.853 243.265 171.768 243.447 171.719C243.629 171.67 243.819 171.659 244.005 171.687L261.733 173.123C262.096 173.137 262.438 173.294 262.685 173.561C262.932 173.827 263.063 174.181 263.049 174.544C263.035 174.907 262.878 175.25 262.611 175.497C262.345 175.743 261.991 175.874 261.628 175.86V175.853Z" fill="#E0E0E0"/>
<path d="M287.726 177.965H287.606L272.272 176.723C271.91 176.693 271.575 176.521 271.34 176.244C271.105 175.967 270.989 175.608 271.019 175.246C271.049 174.884 271.221 174.548 271.498 174.313C271.775 174.078 272.134 173.963 272.497 173.993L287.793 175.227C288.156 175.24 288.499 175.397 288.747 175.662C288.994 175.928 289.126 176.282 289.113 176.645C289.1 177.008 288.944 177.351 288.678 177.598C288.412 177.846 288.059 177.978 287.696 177.965H287.726Z" fill="#E0E0E0"/>
<path opacity="0.2" d="M232.673 208.871H232.553L215.618 207.502C215.437 207.488 215.26 207.438 215.099 207.355C214.937 207.271 214.793 207.157 214.676 207.018C214.559 206.878 214.471 206.717 214.417 206.543C214.363 206.37 214.344 206.187 214.362 206.006L215.731 189.079C215.746 188.898 215.796 188.721 215.88 188.56C215.963 188.399 216.078 188.256 216.217 188.139C216.356 188.022 216.517 187.934 216.69 187.88C216.863 187.825 217.046 187.806 217.227 187.822L234.124 189.243C234.305 189.257 234.482 189.307 234.644 189.391C234.806 189.474 234.949 189.588 235.066 189.728C235.183 189.867 235.271 190.028 235.325 190.202C235.379 190.375 235.398 190.558 235.381 190.739L234.012 207.674C233.98 208.036 233.809 208.372 233.533 208.609C233.285 208.792 232.981 208.885 232.673 208.871ZM217.204 204.876L231.416 206.028L232.561 191.816L218.349 190.664L217.204 204.876Z" fill="#263238"/>
<path d="M287.404 201.337H287.284L241.903 197.665C241.541 197.635 241.206 197.462 240.971 197.185C240.736 196.908 240.62 196.549 240.65 196.187C240.68 195.825 240.852 195.49 241.129 195.255C241.406 195.02 241.765 194.905 242.127 194.934L287.509 198.6C287.872 198.613 288.214 198.771 288.461 199.037C288.708 199.304 288.839 199.658 288.825 200.021C288.811 200.384 288.654 200.726 288.387 200.973C288.121 201.22 287.767 201.351 287.404 201.337Z" fill="#E0E0E0"/>
<path d="M269.22 206.746H269.1L241.35 204.502C241.161 204.499 240.976 204.457 240.804 204.38C240.633 204.302 240.479 204.19 240.353 204.05C240.226 203.911 240.13 203.747 240.07 203.569C240.009 203.39 239.986 203.202 240.001 203.014C240.017 202.826 240.07 202.644 240.159 202.478C240.248 202.312 240.37 202.166 240.517 202.049C240.664 201.931 240.834 201.846 241.016 201.797C241.198 201.748 241.388 201.737 241.574 201.765L269.317 204.009C269.68 204.022 270.023 204.178 270.271 204.444C270.519 204.71 270.65 205.063 270.637 205.426C270.625 205.789 270.468 206.132 270.202 206.38C269.936 206.627 269.583 206.759 269.22 206.746Z" fill="#E0E0E0"/>
<path opacity="0.3" d="M134.233 166.886C140.045 149.764 128.333 130.309 108.074 123.432C87.8142 116.555 66.6789 124.86 60.8667 141.982C55.0545 159.104 66.7663 178.559 87.0258 185.437C107.285 192.314 128.421 184.009 134.233 166.886Z" fill="#005D8D"/>
<path opacity="0.3" d="M119.376 130.98L111.248 122.566L64.8315 167.406L72.9596 175.82L119.376 130.98Z" fill="white"/>
<path opacity="0.3" d="M129.973 139.619L123.628 133.051L76.1354 178.93L82.481 185.498L129.973 139.619Z" fill="white"/>
<path d="M101.466 190.5C96.2662 190.483 91.1044 189.616 86.1842 187.935C75.8019 184.404 67.1924 177.65 61.934 168.913C56.5858 160.034 55.3292 150.213 58.396 141.155C61.4628 132.096 68.4566 125.073 78.1058 121.28C87.5979 117.54 98.5411 117.436 108.923 120.966C119.306 124.497 127.923 131.244 133.181 139.98C138.522 148.859 139.778 158.718 136.719 167.746C133.66 176.774 126.651 183.828 117.009 187.613C112.055 189.541 106.782 190.521 101.466 190.5ZM93.6417 123.637C88.9893 123.618 84.3744 124.47 80.0356 126.15C71.8076 129.404 65.9134 135.298 63.3552 142.868C60.797 150.437 61.8592 158.71 66.4145 166.243C71.0372 173.925 78.6593 179.879 87.8672 183.005C97.075 186.132 106.754 186.05 115.094 182.773C123.277 179.557 129.202 173.633 131.76 166.093C134.318 158.553 133.256 150.25 128.693 142.711C124.07 135.029 116.456 129.082 107.24 125.955C102.865 124.445 98.2708 123.661 93.6417 123.637Z" fill="#263238"/>
<path d="M137.041 163.371C142.143 163.96 147.211 164.811 152.225 165.922C157.207 166.984 162.144 168.21 167.028 169.557C171.913 170.903 176.752 172.377 181.584 173.948C183.971 174.793 186.461 175.354 188.676 176.693C189.834 177.377 190.902 178.204 191.855 179.154C192.377 179.67 192.86 180.225 193.298 180.814C193.797 181.469 194.228 182.174 194.585 182.916C195.277 184.344 195.379 185.988 194.869 187.491C194.36 188.994 193.28 190.236 191.862 190.95C191.123 191.32 190.349 191.616 189.551 191.832C188.847 192.031 188.129 192.176 187.404 192.266C186.068 192.438 184.716 192.438 183.38 192.266C180.807 191.982 178.495 190.912 176.087 190.134C171.307 188.451 166.565 186.671 161.875 184.749C157.185 182.826 152.517 180.814 147.91 178.623C143.259 176.448 138.722 174.036 134.318 171.397C133.476 170.881 132.835 170.094 132.499 169.165C132.164 168.236 132.154 167.221 132.471 166.286C132.789 165.351 133.415 164.551 134.247 164.019C135.078 163.486 136.066 163.253 137.049 163.356L137.041 163.371Z" fill="#263238"/>
<path opacity="0.1" d="M182.512 110.381C183.05 113.441 181.801 115.722 179.722 115.475C177.642 115.228 175.525 112.558 174.994 109.491C174.463 106.424 175.742 104.15 177.784 104.397C179.826 104.644 181.958 107.322 182.512 110.381Z" fill="#005D8D"/>
<path d="M193.732 308.174C199.918 307.695 203.06 303.731 202.573 299.273C202.304 296.812 210.18 296.012 210.18 296.012C209.021 303.783 210.719 305.033 211.011 307.03C211.302 309.027 211.138 311.196 209.515 311.234C207.555 311.286 206.672 310.912 204.234 311.009C201.384 311.114 199.462 311.226 194.405 311.234C192.393 311.248 191.002 308.399 193.732 308.174Z" fill="#263238"/>
<path d="M249.248 303.689C252.906 297.428 249.899 293.314 247.259 289.91C245.695 287.898 253.198 285.348 253.198 285.348C255.068 290.053 256.938 289.993 258.808 291.032C260.678 292.072 261.747 293.8 260.723 295.064C259.489 296.56 258.396 296.448 256.945 298.378C255.247 300.622 253.437 303.546 251.059 305.97C249.645 307.429 247.872 306.022 249.248 303.689Z" fill="#263238"/>
<path d="M177.38 177.072C177.38 177.072 178.42 208.488 186.095 234.668C189.438 257.302 202.491 300.073 202.491 300.073C205.198 300.719 208.023 300.694 210.719 299.998C210.719 299.998 214.9 266.981 206.119 231.182C211.826 192.997 207.944 173.504 207.944 173.504L177.38 177.072Z" fill="#005D8D"/>
<path d="M189.446 175.631C189.446 175.631 202.558 218.843 212.634 238.83C223.225 259.819 246.047 289.694 247.102 291.018C250.004 289.634 252.54 288.063 254.058 285.946C254.058 285.946 245.336 252.81 232.448 230.235C222.313 180.493 215.558 172.52 215.558 172.52L189.446 175.631Z" fill="#005D8D"/>
<path d="M197.098 113.117C196.544 117.553 196.35 124.696 198.482 128.234C198.482 128.234 192.827 129.199 185.474 136.657C180.986 131.488 184.606 129.925 184.606 129.925C187.89 128.728 187.935 124.562 187.546 121.353L197.098 113.117Z" fill="#FFC3BD"/>
<path d="M173.349 142.357C172.504 137.188 175.555 132.977 181.966 130.763C187.875 128.729 196.357 127.24 202.214 128.078C208.071 128.916 210.218 131.818 209.829 136.231C208.153 155.38 215.476 166.66 215.573 172.516C201.795 176.032 180.769 178.987 177.381 177.072C174.905 174.461 175.383 158.177 176.154 155.694C170.043 152.485 173.82 145.237 173.349 142.357Z" fill="#005D8D"/>
<path d="M179.168 110.252C179.258 110.828 179.026 111.352 178.645 111.412C178.263 111.472 177.897 111.053 177.785 110.469C177.672 109.886 177.927 109.362 178.308 109.302C178.69 109.243 179.071 109.669 179.168 110.252Z" fill="#263238"/>
<path d="M178.48 109.312L176.984 109.133C176.984 109.133 177.912 110.113 178.48 109.312Z" fill="#263238"/>
<path d="M179.146 111.449C178.833 112.86 178.33 114.221 177.65 115.496C177.979 115.662 178.341 115.753 178.709 115.763C179.078 115.773 179.444 115.703 179.782 115.556L179.146 111.449Z" fill="#ED847E"/>
<path d="M177.313 107.164C177.255 107.129 177.209 107.077 177.18 107.016C177.151 106.954 177.142 106.885 177.152 106.818C177.162 106.751 177.193 106.688 177.239 106.638C177.285 106.588 177.344 106.552 177.411 106.536C177.94 106.386 178.498 106.366 179.036 106.476C179.575 106.587 180.08 106.826 180.507 107.172C180.572 107.236 180.608 107.324 180.608 107.415C180.608 107.506 180.572 107.594 180.507 107.658C180.476 107.691 180.438 107.717 180.396 107.735C180.355 107.753 180.31 107.762 180.264 107.762C180.219 107.762 180.174 107.753 180.132 107.735C180.09 107.717 180.052 107.691 180.021 107.658C179.679 107.391 179.278 107.208 178.852 107.125C178.425 107.042 177.985 107.061 177.568 107.179C177.484 107.208 177.393 107.203 177.313 107.164Z" fill="#263238"/>
<path d="M198.1 106.258C198.803 113.476 199.252 116.521 196.29 120.754C191.839 127.12 182.983 126.364 180.178 119.49C177.657 113.304 176.932 102.54 183.342 98.606C189.752 94.6715 197.397 99.0398 198.1 106.258Z" fill="#FFC3BD"/>
<path d="M183.26 110.787C180.634 111.168 179.52 107.159 180.417 105.394C177.321 105.297 176.782 102.499 177.784 100.442C178.787 98.385 181.292 93.8222 190.313 95.206C199.334 96.5898 202.281 104.436 201.496 107.735C200.711 111.034 202.326 120.309 193.896 121.835C185.466 123.361 180.335 115.006 183.26 110.787Z" fill="#263238"/>
<path d="M213.591 128.656C208.984 124.168 191.548 126.412 178.862 130.451C166.176 134.49 169.34 147.221 170.439 156.092C171.539 164.964 178.174 227.571 185.788 250.34C204.279 250.572 232.516 244.356 240.355 240.31C237.281 232.156 220.787 168.733 218.079 152.046C216.763 143.907 218.453 133.368 213.591 128.656Z" fill="#005D8D"/>
<path opacity="0.6" d="M213.591 128.656C208.984 124.168 191.548 126.412 178.862 130.451C166.176 134.49 169.34 147.221 170.439 156.092C171.539 164.964 178.174 227.571 185.788 250.34C204.279 250.572 232.516 244.356 240.355 240.31C237.281 232.156 220.787 168.733 218.079 152.046C216.763 143.907 218.453 133.368 213.591 128.656Z" fill="white"/>
<path opacity="0.5" d="M171.546 165.511C174.09 162.22 176.281 159.033 176.969 157.066C179.423 150.027 176.109 169.243 173.192 179.236C172.541 174.015 171.988 169.333 171.546 165.511Z" fill="#005D8D"/>
<path d="M150.49 169.684L153.153 172.376C154.582 176.311 148.987 178.48 148.987 178.48L146.473 180.604C146.097 180.957 145.601 181.154 145.086 181.154C144.57 181.154 144.074 180.957 143.698 180.604L141.828 178.734C141.412 178.287 141.181 177.699 141.181 177.089C141.181 176.478 141.412 175.89 141.828 175.443L143.773 173.289C144.319 172.672 144.99 172.177 145.74 171.838L150.49 169.684Z" fill="#005D8D"/>
<path d="M151.567 169.397C148.575 168.088 145.837 170.4 143.339 171.589C142.913 171.791 142.771 173.018 143.519 173.152C144.001 173.268 144.501 173.286 144.99 173.207C145.479 173.127 145.948 172.951 146.368 172.689C146.997 173.496 149.607 174.865 152.21 172.502C152.412 171.423 152.181 170.307 151.567 169.397Z" fill="#005D8D"/>
<path d="M186.955 142.164L186.589 143.9L186.192 145.538C185.923 146.622 185.639 147.699 185.354 148.769C184.756 150.916 184.105 153.055 183.38 155.179C182.654 157.304 181.884 159.421 180.994 161.537C180.567 162.6 180.088 163.662 179.61 164.716L178.862 166.302L178.405 167.222C178.203 167.634 177.979 168.023 177.747 168.412C175.853 171.536 173.036 173.996 169.684 175.45L169.37 175.585L169.138 175.675L168.689 175.839L167.784 176.161L166.019 176.714L164.298 177.193L162.6 177.605C160.356 178.113 158.112 178.502 155.913 178.809C154.806 178.958 153.706 179.086 152.599 179.205C151.492 179.325 150.415 179.415 149.218 179.482L147.356 168.569L150.198 167.671C151.163 167.364 152.121 167.035 153.071 166.706C154.971 166.063 156.811 165.39 158.628 164.672L159.945 164.126L161.216 163.572L162.413 162.989L162.959 162.689L163.243 162.547L163.371 162.48L163.416 162.443C163.895 162.054 164.251 161.534 164.44 160.947C164.44 160.872 164.485 160.804 164.5 160.73V160.677L164.552 160.528L164.665 160.199L165.128 158.867C165.42 157.955 165.727 157.064 166.004 156.129C166.565 154.282 167.081 152.389 167.574 150.46C168.068 148.53 168.532 146.607 168.966 144.655C169.19 143.683 169.407 142.71 169.609 141.738L170.185 138.918L186.955 142.164Z" fill="#005D8D"/>
<g opacity="0.6">
<path d="M186.955 142.164L186.589 143.9L186.192 145.538C185.923 146.622 185.639 147.699 185.354 148.769C184.756 150.916 184.105 153.055 183.38 155.179C182.654 157.304 181.884 159.421 180.994 161.537C180.567 162.6 180.088 163.662 179.61 164.716L178.862 166.302L178.405 167.222C178.203 167.634 177.979 168.023 177.747 168.412C175.853 171.536 173.036 173.996 169.684 175.45L169.37 175.585L169.138 175.675L168.689 175.839L167.784 176.161L166.019 176.714L164.298 177.193L162.6 177.605C160.356 178.113 158.112 178.502 155.913 178.809C154.806 178.958 153.706 179.086 152.599 179.205C151.492 179.325 150.415 179.415 149.218 179.482L147.356 168.569L150.198 167.671C151.163 167.364 152.121 167.035 153.071 166.706C154.971 166.063 156.811 165.39 158.628 164.672L159.945 164.126L161.216 163.572L162.413 162.989L162.959 162.689L163.243 162.547L163.371 162.48L163.416 162.443C163.895 162.054 164.251 161.534 164.44 160.947C164.44 160.872 164.485 160.804 164.5 160.73V160.677L164.552 160.528L164.665 160.199L165.128 158.867C165.42 157.955 165.727 157.064 166.004 156.129C166.565 154.282 167.081 152.389 167.574 150.46C168.068 148.53 168.532 146.607 168.966 144.655C169.19 143.683 169.407 142.71 169.609 141.738L170.185 138.918L186.955 142.164Z" fill="white"/>
</g>
<path opacity="0.5" d="M199.095 172.583C199.095 172.583 211.407 170.856 215.028 168.484C210.644 172.322 204.713 173.137 199.095 172.583Z" fill="#005D8D"/>
<path opacity="0.5" d="M200.464 173.97C200.464 173.97 209.507 174.038 212.357 172.691C208.804 175.033 204.443 174.988 200.464 173.97Z" fill="#005D8D"/>
<path d="M178.48 112.507C177.605 114.856 176.64 117.429 177.291 120.279C177.942 123.129 180.837 124.625 185.31 124.587C184.831 122.725 182.804 121.595 181.196 118.73C179.587 115.866 181.196 109.373 181.196 109.373L180.635 108.887C179.972 110.519 179.444 112.202 179.056 113.921C178.308 112.799 178.48 112.507 178.48 112.507Z" fill="#005D8D"/>
<path opacity="0.3" d="M178.48 112.507C177.605 114.856 176.64 117.429 177.291 120.279C177.942 123.129 180.837 124.625 185.31 124.587C184.831 122.725 182.804 121.595 181.196 118.73C179.587 115.866 181.196 109.373 181.196 109.373L180.635 108.887C179.972 110.519 179.444 112.202 179.056 113.921C178.308 112.799 178.48 112.507 178.48 112.507Z" fill="white"/>
<path d="M185.249 112.701C185.158 113.39 184.916 114.051 184.54 114.635C184.163 115.22 183.662 115.714 183.073 116.082C181.577 116.882 180.372 115.065 180.38 112.985C180.38 111.108 181.128 108.437 182.833 108.497C184.539 108.557 185.593 110.801 185.249 112.701Z" fill="#FFC3BD"/>
<path d="M177.403 101.42C177.919 104.801 181.712 114.413 187.486 118.235C192.722 121.721 198.175 122.14 199.94 118.363C199.94 118.363 206.403 120.554 207.944 108.145C209.268 97.5383 201.578 90.0059 193.231 88.6969C185.639 87.5151 170.716 90.9933 177.403 101.42Z" fill="#005D8D"/>
<path opacity="0.2" d="M178.069 101.727C178.069 101.727 183.926 112.655 199.297 117.853C190.321 117.061 183.095 110.164 178.069 101.727Z" fill="black"/>
</svg>
