<svg width="18" height="19" viewBox="0 0 18 19" fill="none" xmlns="http://www.w3.org/2000/svg">
<path d="M11.8942 6.7511C13.0332 6.7511 14.1255 7.21537 14.9309 8.04177C15.7363 8.86818 16.1888 9.98902 16.1888 11.1577V16.2988H13.3257V11.1577C13.3257 10.7682 13.1749 10.3945 12.9064 10.1191C12.6379 9.84361 12.2738 9.68886 11.8942 9.68886C11.5145 9.68886 11.1504 9.84361 10.8819 10.1191C10.6135 10.3945 10.4626 10.7682 10.4626 11.1577V16.2988H7.59956V11.1577C7.59956 9.98902 8.05203 8.86818 8.85742 8.04177C9.66282 7.21537 10.7552 6.7511 11.8942 6.7511Z" fill="#42BA85"/>
<path d="M4.7365 7.48547H1.87343V16.2987H4.7365V7.48547Z" fill="#42BA85"/>
<path d="M3.30496 5.28218C4.09558 5.28218 4.7365 4.62454 4.7365 3.8133C4.7365 3.00206 4.09558 2.34442 3.30496 2.34442C2.51435 2.34442 1.87343 3.00206 1.87343 3.8133C1.87343 4.62454 2.51435 5.28218 3.30496 5.28218Z" fill="#42BA85"/>
</svg>
