<svg xmlns="http://www.w3.org/2000/svg" width="95" height="32" fill="none" viewBox="0 0 95 32">
    <rect width="95" height="32" fill="#42BA85" rx="16"/>
    <path fill="#fff" d="M9.47 11.2h1.4v8.582h5.306V21H9.47v-9.8zm10.699 9.884c-.738 0-1.4-.163-1.988-.49-.588-.327-1.05-.775-1.386-1.344-.327-.579-.49-1.232-.49-1.96s.163-1.377.49-1.946c.336-.579.798-1.027 1.386-1.344.588-.327 1.25-.49 1.988-.49.737 0 1.395.163 1.974.49.588.317 1.045.765 1.372 1.344.336.57.504 1.218.504 1.946s-.168 1.381-.504 1.96c-.327.57-.784 1.017-1.372 1.344-.579.327-1.237.49-1.974.49zm0-1.176c.476 0 .9-.107 1.274-.322.383-.224.681-.532.896-.924.215-.401.322-.859.322-1.372 0-.513-.108-.966-.322-1.358-.215-.401-.513-.71-.896-.924-.373-.215-.798-.322-1.274-.322s-.905.107-1.288.322c-.373.215-.672.523-.896.924-.215.392-.322.845-.322 1.358 0 .513.107.97.322 1.372.224.392.523.7.896.924.383.215.812.322 1.288.322zm8.442 1.176c-.756 0-1.432-.163-2.03-.49-.587-.327-1.05-.775-1.386-1.344-.335-.579-.503-1.232-.503-1.96s.168-1.377.503-1.946c.337-.579.799-1.027 1.386-1.344.598-.327 1.274-.49 2.03-.49.672 0 1.27.135 1.793.406.532.27.942.663 1.232 1.176l-1.023.658c-.233-.355-.522-.62-.867-.798-.346-.177-.729-.266-1.148-.266-.486 0-.924.107-1.316.322-.383.215-.686.523-.91.924-.215.392-.323.845-.323 1.358 0 .523.108.985.323 1.386.224.392.527.695.91.91.392.215.83.322 1.316.322.42 0 .802-.089 1.148-.266.345-.177.634-.443.867-.798l1.023.644c-.29.513-.7.91-1.232 1.19-.523.27-1.12.406-1.793.406zm6.967-7.574c1.026 0 1.81.252 2.352.756.55.504.826 1.255.826 2.254V21h-1.274v-.98c-.224.345-.546.611-.966.798-.411.177-.901.266-1.47.266-.831 0-1.498-.2-2.002-.602-.495-.401-.742-.929-.742-1.582s.238-1.176.714-1.568c.476-.401 1.232-.602 2.268-.602h2.128v-.266c0-.579-.168-1.022-.504-1.33-.336-.308-.831-.462-1.484-.462-.44 0-.868.075-1.288.224-.42.14-.775.331-1.064.574l-.56-1.008c.382-.308.84-.541 1.372-.7.532-.168 1.096-.252 1.694-.252zm-.308 6.538c.513 0 .956-.112 1.33-.336.373-.233.644-.56.812-.98v-1.036H35.34c-1.14 0-1.708.383-1.708 1.148 0 .373.144.667.434.882.289.215.69.322 1.204.322zm9.645.518c-.196.168-.439.299-.728.392-.29.084-.588.126-.896.126-.747 0-1.326-.2-1.736-.602-.41-.401-.616-.975-.616-1.722v-4.074h-1.26V13.58h1.26v-1.624h1.344v1.624h2.128v1.106h-2.128v4.018c0 .401.098.71.294.924.205.215.494.322.868.322.41 0 .76-.117 1.05-.35l.42.966zm1.125-6.986h1.344V21H46.04v-7.42zm.672-1.428c-.262 0-.481-.084-.658-.252-.168-.168-.252-.373-.252-.616s.084-.448.252-.616c.177-.177.396-.266.658-.266.261 0 .476.084.644.252.177.159.266.36.266.602 0 .252-.089.467-.266.644-.168.168-.383.252-.644.252zm5.916 8.932c-.738 0-1.4-.163-1.988-.49-.588-.327-1.05-.775-1.386-1.344-.327-.579-.49-1.232-.49-1.96s.163-1.377.49-1.946c.336-.579.798-1.027 1.386-1.344.588-.327 1.25-.49 1.988-.49.737 0 1.395.163 1.974.49.588.317 1.045.765 1.372 1.344.336.57.504 1.218.504 1.946s-.168 1.381-.504 1.96c-.327.57-.784 1.017-1.372 1.344-.579.327-1.237.49-1.974.49zm0-1.176c.476 0 .9-.107 1.274-.322.382-.224.681-.532.896-.924.214-.401.322-.859.322-1.372 0-.513-.108-.966-.322-1.358-.215-.401-.514-.71-.896-.924-.374-.215-.798-.322-1.274-.322s-.906.107-1.288.322c-.374.215-.672.523-.896.924-.215.392-.322.845-.322 1.358 0 .513.107.97.322 1.372.224.392.522.7.896.924.382.215.812.322 1.288.322zm9.17-6.398c.943 0 1.69.275 2.24.826.56.541.84 1.34.84 2.394V21h-1.343v-4.116c0-.719-.173-1.26-.518-1.624-.346-.364-.84-.546-1.485-.546-.727 0-1.301.215-1.721.644-.42.42-.63 1.027-.63 1.82V21h-1.344v-7.42h1.287v1.12c.271-.383.635-.677 1.093-.882.466-.205.994-.308 1.581-.308z"/>
    <path stroke="#fff" stroke-linecap="round" stroke-linejoin="round" d="M73.334 10.333L84 21M73.334 21L84 10.333"/>
</svg>
