<svg width="12" height="16" viewBox="0 0 12 16" fill="none" xmlns="http://www.w3.org/2000/svg">
<path d="M5.79461 0C2.59944 0 0 2.59944 0 5.79457C0 9.75982 5.1856 15.581 5.40639 15.8269C5.61376 16.0579 5.97582 16.0575 6.18283 15.8269C6.40361 15.581 11.5892 9.75982 11.5892 5.79457C11.5891 2.59944 8.98974 0 5.79461 0ZM5.79461 14.679C4.04938 12.606 1.0435 8.51601 1.0435 5.79463C1.0435 3.17482 3.17482 1.0435 5.79461 1.0435C8.41439 1.0435 10.5457 3.17482 10.5457 5.7946C10.5457 8.5161 7.54027 12.6053 5.79461 14.679Z" fill="#8E9AAB"/>
<path d="M5.7938 2.87988C4.18623 2.87988 2.87842 4.18773 2.87842 5.79529C2.87842 7.40286 4.18626 8.7107 5.7938 8.7107C7.40133 8.7107 8.70914 7.40286 8.70914 5.79529C8.70914 4.18773 7.40133 2.87988 5.7938 2.87988ZM5.7938 7.6672C4.76161 7.6672 3.92192 6.82748 3.92192 5.79529C3.92192 4.7631 4.76164 3.92338 5.7938 3.92338C6.82595 3.92338 7.66567 4.7631 7.66567 5.79529C7.66567 6.82748 6.82595 7.6672 5.7938 7.6672Z" fill="#8E9AAB"/>
</svg>
