<svg xmlns="http://www.w3.org/2000/svg" width="24" height="24" fill="none" viewBox="0 0 24 24">
    <path stroke="#004171" stroke-linecap="round" stroke-linejoin="round" d="M13.279 18.357c-.259.497-.616.935-1.051 1.288-.435.354-.937.614-1.476.766v0c-1.05.297-2.174.165-3.126-.368-.953-.532-1.654-1.42-1.951-2.47l-2.52-8.9c-.147-.52-.19-1.064-.128-1.601.063-.537.231-1.056.495-1.528.263-.472.617-.888 1.041-1.223.425-.335.91-.583 1.43-.73v0c1.05-.297 2.175-.165 3.127.367.953.533 1.655 1.421 1.952 2.47l.139.5M4.416 13.12l4.455-1.26"/>
    <path stroke="#004171" stroke-linecap="round" stroke-linejoin="round" d="M12.266 15.7c.804.786 1.844 1.286 2.96 1.425 1.115.138 2.246-.093 3.218-.658.972-.565 1.731-1.433 2.163-2.471.431-1.039.51-2.19.225-3.277-.075-.288-.175-.568-.3-.838"/>
    <path stroke="#004171" stroke-linecap="round" stroke-linejoin="round" d="M19.452 8.342c-.483-.471-1.055-.843-1.681-1.094-.627-.252-1.297-.377-1.973-.369-.675.008-1.342.15-1.963.415-.62.266-1.183.65-1.655 1.134-.471.483-.844 1.054-1.095 1.681-.25.627-.376 1.297-.368 1.972.016 1.364.573 2.666 1.549 3.619l7.186-7.358z"/>
</svg>
