<svg xmlns="http://www.w3.org/2000/svg" width="24" height="24" fill="none" viewBox="0 0 24 24">
    <path stroke="#42BA85" stroke-linecap="round" stroke-linejoin="round" d="M12.557 2.7h2c.265 0 .52.105.707.292.187.188.293.442.293.707v2.743c0 3.934-3 7.252-6 7.252s-6-3.318-6-7.252V3.7c0-.265.105-.52.293-.707.187-.187.441-.293.707-.293h2M9.571 13.701c-5.015 6 1.985 10 5.985 6M17.942 18.69c1.381 0 2.5-1.12 2.5-2.5 0-1.381-1.119-2.5-2.5-2.5-1.38 0-2.5 1.119-2.5 2.5 0 1.38 1.12 2.5 2.5 2.5z"/>
    <path stroke="#42BA85" stroke-linecap="round" stroke-linejoin="round" d="M18.194 16.19c0-.067-.026-.13-.073-.177-.047-.047-.11-.074-.177-.074"/>
    <path stroke="#42BA85" stroke-linecap="round" stroke-linejoin="round" d="M17.692 16.188c0 .066.027.13.074.176.047.047.11.073.176.073.067 0 .13-.026.177-.073.047-.047.073-.11.073-.177"/>
    <path stroke="#42BA85" stroke-linecap="round" stroke-linejoin="round" d="M17.942 15.94c-.066 0-.13.026-.176.073-.047.047-.074.11-.074.176"/>
</svg>
