<svg width="466" height="312" viewBox="0 0 466 312" fill="none" xmlns="http://www.w3.org/2000/svg">
<path d="M136.621 76.291L66.9065 123.125L135.575 226.219L205.289 179.384L136.621 76.291Z" fill="#F5F5F5"/>
<path d="M169.263 174.508L168.474 179.425L133.816 174.408L134.606 169.491L169.263 174.508Z" fill="#E0E0E0"/>
<path d="M151.81 156.967L156.781 157.685L151.27 191.955L146.293 191.231L151.81 156.967Z" fill="#E0E0E0"/>
<path d="M119.917 113.412C119.967 113.481 112.983 118.267 104.316 124.082C95.648 129.898 88.5834 134.566 88.5337 134.491C88.484 134.416 95.4678 129.636 104.135 123.814C112.803 117.992 119.836 113.337 119.917 113.412Z" fill="#E0E0E0"/>
<path d="M145.528 106.947C145.578 107.022 133.959 114.91 119.582 124.569C105.204 134.229 93.4856 141.997 93.4483 141.929C93.4111 141.86 105.005 133.96 119.401 124.301C133.798 114.641 145.479 106.872 145.528 106.947Z" fill="#E0E0E0"/>
<path d="M150.667 114.66C150.717 114.735 139.098 122.629 124.72 132.288C110.343 141.948 98.6243 149.717 98.587 149.642C98.5497 149.567 110.156 141.679 124.54 132.014C138.924 122.348 150.617 114.585 150.667 114.66Z" fill="#E0E0E0"/>
<path d="M155.806 122.379C155.855 122.454 144.236 130.347 129.859 140.001C115.481 149.654 103.763 157.435 103.763 157.36C103.763 157.286 115.326 149.392 129.71 139.732C144.093 130.073 155.756 122.304 155.806 122.379Z" fill="#E0E0E0"/>
<path d="M160.925 130.098C160.975 130.173 149.356 138.06 134.978 147.719C120.601 157.379 108.882 165.148 108.851 165.073C108.82 164.998 120.433 157.111 134.829 147.451C149.226 137.792 160.925 130.023 160.925 130.098Z" fill="#E0E0E0"/>
<path d="M369.736 145.37L311.188 184.704L368.856 271.283L427.405 231.949L369.736 145.37Z" fill="#F5F5F5"/>
<path d="M397.156 227.872L396.491 232.003L367.382 227.791L368.053 223.66L397.156 227.872Z" fill="#E0E0E0"/>
<path d="M382.499 213.14L386.674 213.745L382.045 242.524L377.864 241.919L382.499 213.14Z" fill="#E0E0E0"/>
<path d="M355.688 176.592C355.738 176.667 349.879 180.692 342.597 185.578C335.315 190.463 329.375 194.37 329.325 194.314C329.276 194.257 335.141 190.22 342.417 185.328C349.693 180.436 355.639 176.486 355.688 176.592Z" fill="#E0E0E0"/>
<path d="M377.217 171.132C377.267 171.207 367.518 177.846 355.471 185.952C343.423 194.058 333.563 200.585 333.513 200.51C333.463 200.435 343.212 193.796 355.26 185.684C367.307 177.572 377.149 171.057 377.217 171.132Z" fill="#E0E0E0"/>
<path d="M381.536 177.609C381.586 177.684 371.837 184.323 359.789 192.435C347.742 200.547 337.881 207.062 337.831 206.987C337.782 206.912 347.499 200.304 359.578 192.192C371.657 184.08 381.499 177.54 381.536 177.609Z" fill="#E0E0E0"/>
<path d="M385.848 184.08C385.898 184.155 376.143 190.794 364.101 198.906C352.06 207.018 342.193 213.533 342.143 213.458C342.094 213.383 351.842 206.75 363.89 198.632C375.938 190.513 385.804 184.018 385.848 184.08Z" fill="#E0E0E0"/>
<path d="M390.197 190.576C390.247 190.651 380.498 197.284 368.451 205.396C356.403 213.508 346.542 220.022 346.493 219.954C346.443 219.885 356.192 213.24 368.239 205.128C380.287 197.016 390.116 190.501 390.197 190.576Z" fill="#E0E0E0"/>
<path d="M277.109 80.0839L213.225 45.769L162.914 140.24L226.798 174.555L277.109 80.0839Z" fill="#F5F5F5"/>
<path d="M215.864 144.999L211.812 146.39L201.523 117.83L205.58 116.432L215.864 144.999Z" fill="#E0E0E0"/>
<path d="M222.077 124.507L223.556 128.607L195.31 138.322L193.831 134.223L222.077 124.507Z" fill="#E0E0E0"/>
<path d="M242.146 82.3678C242.096 82.4614 235.622 79.0793 227.675 74.8174C219.728 70.5555 213.335 67.0174 213.384 66.9238C213.434 66.8302 219.915 70.2123 227.861 74.4742C235.808 78.7361 242.196 82.2679 242.146 82.3678Z" fill="#E0E0E0"/>
<path d="M257.481 99.3597C257.431 99.4533 246.707 93.7874 233.528 86.7112C220.35 79.635 209.712 73.8194 209.762 73.7258C209.812 73.6322 220.53 79.2918 233.708 86.3742C246.887 93.4566 257.53 99.2661 257.481 99.3597Z" fill="#E0E0E0"/>
<path d="M253.715 106.429C253.665 106.523 242.941 100.863 229.763 93.781C216.584 86.6986 205.947 80.8892 205.997 80.7956C206.046 80.702 216.764 86.3679 229.943 93.4441C243.121 100.52 253.765 106.336 253.715 106.429Z" fill="#E0E0E0"/>
<path d="M249.95 113.499C249.9 113.593 239.176 107.933 225.998 100.857C212.819 93.781 202.182 87.9841 202.232 87.8718C202.281 87.7594 212.999 93.4378 226.178 100.514C239.356 107.59 250 113.406 249.95 113.499Z" fill="#E0E0E0"/>
<path d="M246.185 120.569C246.135 120.663 235.411 115.003 222.232 107.927C209.054 100.851 198.41 95.0352 198.466 94.9416C198.522 94.848 209.234 100.508 222.412 107.584C235.591 114.66 246.234 120.476 246.185 120.569Z" fill="#E0E0E0"/>
<path opacity="0.2" d="M246.514 0H244.911V27.4435H246.514V0Z" fill="black"/>
<path d="M208.29 60.6466H283.135C283.135 60.6466 276.226 27.4561 245.147 27.4561C217.504 27.4561 208.29 60.6466 208.29 60.6466Z" fill="#004171"/>
<path d="M246.514 0H244.911V27.4435H246.514V0Z" fill="#004171"/>
<path d="M412.36 274.454C412.36 274.541 332.053 274.616 233.006 274.616C133.959 274.616 53.6396 274.56 53.6396 274.454C53.6396 274.348 133.935 274.292 233.006 274.292C332.078 274.292 412.36 274.36 412.36 274.454Z" fill="#263238"/>
<path d="M73.4974 235.373C74.5479 235.449 75.5723 235.737 76.5096 236.219C77.4469 236.702 78.2778 237.369 78.9527 238.181C80.2947 239.815 81.2449 241.736 81.73 243.797C82.7801 247.741 82.1339 252.402 81.0155 256.327C76.7656 254.798 74.1374 250.243 72.9382 247.847C71.0742 244.065 69.962 236.078 73.4787 235.367" fill="#004171"/>
<path d="M87.1356 261.113C86.4974 260.119 86.1325 258.973 86.078 257.792C86.0234 256.61 86.2811 255.435 86.825 254.386C87.3859 253.347 88.1473 252.431 89.0647 251.691C89.9822 250.95 91.0373 250.401 92.1684 250.075C93.2061 249.75 94.4115 249.619 95.3124 250.224C95.7185 250.533 96.0348 250.945 96.2282 251.418C96.4217 251.891 96.4852 252.408 96.4121 252.914C96.2491 253.928 95.8202 254.88 95.1695 255.672C93.1004 258.486 90.5903 260.826 87.0921 261.113" fill="#004171"/>
<path d="M87.6079 274.298C87.5157 274.033 87.4512 273.759 87.4153 273.481C87.3035 272.894 87.1544 272.139 86.9742 271.234C86.4164 268.757 86.2612 266.205 86.5144 263.678C86.8073 261.138 87.7705 258.723 89.3042 256.683C89.7728 256.073 90.3131 255.522 90.9134 255.042C91.0765 254.912 91.2466 254.791 91.4229 254.68C91.479 254.633 91.5418 254.595 91.6093 254.567C90.8234 255.242 90.1054 255.992 89.4657 256.808C88.0129 258.85 87.0981 261.228 86.8064 263.721C86.4088 266.629 86.8996 269.294 87.1854 271.209C87.3345 272.164 87.4588 272.938 87.5271 273.475C87.5761 273.747 87.6031 274.022 87.6079 274.298Z" fill="#263238"/>
<path d="M74.8643 241.382C74.9352 241.48 74.9936 241.587 75.0382 241.7C75.1501 241.95 75.2992 242.262 75.4732 242.655C75.8522 243.485 76.3803 244.689 77.0203 246.18C78.3002 249.169 80.0151 253.325 81.8046 257.955C83.594 262.585 85.1163 266.81 86.1539 269.886C86.6882 271.421 87.1045 272.669 87.3966 273.537C87.527 273.948 87.6264 274.279 87.7072 274.535C87.7516 274.65 87.7828 274.769 87.8004 274.891C87.7374 274.785 87.6873 274.672 87.6513 274.554C87.5581 274.304 87.44 273.98 87.2847 273.574L85.9737 269.955C84.8615 266.903 83.3082 262.685 81.525 258.061C79.7417 253.438 78.0517 249.269 76.8215 246.262C76.2001 244.783 75.7217 243.578 75.3675 242.698C75.206 242.299 75.0755 241.981 74.9761 241.725C74.9294 241.614 74.892 241.499 74.8643 241.382Z" fill="#263238"/>
<path d="M82.5565 265.574C81.278 263.437 79.5112 261.635 77.4023 260.319C75.2933 259.003 72.9027 258.21 70.428 258.005C69.1854 257.918 67.6569 258.13 67.0977 259.253C66.5385 260.377 67.2841 261.749 68.1415 262.66C69.9633 264.574 72.3085 265.904 74.8816 266.481C77.4546 267.059 80.1402 266.858 82.6 265.905" fill="#004171"/>
<path d="M72.3418 261.387C72.6053 261.374 72.8693 261.385 73.1309 261.419C73.4372 261.435 73.7423 261.471 74.0443 261.525C74.3984 261.593 74.8147 261.631 75.2497 261.755C75.7358 261.859 76.2152 261.992 76.6849 262.155C77.2292 262.33 77.7625 262.539 78.2818 262.779C79.4762 263.316 80.606 263.988 81.6494 264.782C82.6807 265.594 83.6148 266.524 84.433 267.552C84.7863 268 85.1121 268.469 85.4085 268.956C85.6764 269.377 85.9211 269.813 86.1416 270.261C86.3283 270.625 86.4943 271 86.6387 271.384C86.7633 271.668 86.8691 271.96 86.9556 272.257C87.0476 272.506 87.1163 272.763 87.1606 273.025C87.0923 273.025 86.794 271.952 85.9552 270.354C85.7268 269.925 85.4759 269.509 85.2034 269.106C84.9006 268.633 84.5729 268.177 84.2217 267.74C82.5966 265.723 80.5241 264.116 78.1699 263.047C77.6294 262.81 77.1137 262.585 76.6104 262.423C76.1483 262.254 75.6775 262.11 75.2 261.993C73.4602 261.512 72.3356 261.456 72.3418 261.387Z" fill="#263238"/>
<path d="M354.384 65.8199C352.557 66.238 351.668 68.3533 351.494 70.2253C351.32 72.0973 351.557 74.0817 350.774 75.7914C349.891 77.7133 347.785 79.1361 347.717 81.2514C347.673 82.5431 348.437 83.7474 348.4 85.0516C348.338 87.1732 346.188 88.7956 346.07 90.8922C345.989 92.421 347.002 93.8812 346.76 95.3912C346.574 96.5644 345.66 97.4879 345.275 98.6111C344.511 100.857 346.045 103.322 348.04 104.583C349.157 105.288 350.414 105.74 351.724 105.907C353.033 106.074 354.363 105.952 355.62 105.549C356.878 105.146 358.032 104.472 359.004 103.574C359.975 102.677 360.739 101.577 361.243 100.352C362.349 97.6564 362.107 94.6175 361.865 91.7159C361.119 82.6637 360.564 73.5991 360.199 64.522" fill="#263238"/>
<path d="M349.077 97.7558C349.453 97.5212 349.747 97.1742 349.916 96.7636C350.095 96.2753 350.168 95.7537 350.127 95.2348C350.059 94.5468 349.907 93.8698 349.674 93.2193C349.377 92.4016 349.266 91.5272 349.351 90.6609C349.506 89.6875 350.202 88.8887 350.83 88.1025C351.167 87.7177 351.45 87.2871 351.668 86.8233C351.887 86.3543 351.923 85.8198 351.768 85.3257C351.445 84.3086 350.451 83.5598 349.997 82.3804C349.784 81.7966 349.749 81.1621 349.898 80.5583C350.038 79.9923 350.247 79.4454 350.519 78.9297C351.043 78.0009 351.46 77.0148 351.762 75.9907C352.196 74.0126 351.991 72.1219 352.29 70.5681C352.455 69.3237 353.005 68.1627 353.862 67.2484C354.104 67.0022 354.38 66.792 354.682 66.6244C354.786 66.57 354.896 66.5301 355.011 66.5059C354.622 66.7212 354.264 66.99 353.949 67.3046C353.155 68.228 352.655 69.3691 352.513 70.5806C352.404 71.4082 352.346 72.2418 352.339 73.0766C352.337 74.059 352.242 75.039 352.054 76.0031C351.757 77.0508 351.34 78.0602 350.811 79.0108C350.345 79.9905 349.916 81.1387 350.326 82.2119C350.736 83.2852 351.724 84.0278 352.103 85.1759C352.274 85.7432 352.232 86.3537 351.985 86.8919C351.743 87.4023 351.429 87.8752 351.053 88.2959C350.432 89.0822 349.755 89.831 349.606 90.7046C349.518 91.5332 349.616 92.3709 349.891 93.1569C350.113 93.8276 350.251 94.5236 350.301 95.2286C350.332 95.7715 350.236 96.3142 350.022 96.8135C349.888 97.1266 349.674 97.398 349.4 97.5998C349.303 97.6713 349.194 97.7241 349.077 97.7558Z" fill="#455A64"/>
<path d="M344.219 112.551L338.627 128.775L315.24 130.023L311.338 138.759L335.756 141.255C336.91 141.73 338.147 141.966 339.394 141.948C340.641 141.93 341.872 141.658 343.011 141.149C344.151 140.64 345.175 139.904 346.024 138.986C346.872 138.068 347.526 136.986 347.947 135.807L354.464 117.537L344.219 112.551Z" fill="#B78876"/>
<path d="M392.565 265.637C392.565 265.637 375.428 210.962 375.062 209.19C374.732 207.58 381.275 168.237 382.108 158.022L358.951 158.889V159.12L349.109 159.669L357.919 271.44H368.575L367.519 234.343C374.092 252.059 383.512 270.117 383.512 270.117L392.565 265.637Z" fill="#B78876"/>
<path d="M367.954 247.653C367.954 247.316 367.823 235.223 367.823 235.223C367.693 235.947 363.741 224.728 363.834 224.047C363.884 223.692 367.954 247.653 367.954 247.653Z" fill="#A36957"/>
<path d="M363.387 218.731C363.332 218.953 363.309 219.182 363.318 219.411C363.284 220.035 363.284 220.66 363.318 221.283C363.318 221.676 363.374 222.101 363.424 222.562C363.474 223.024 363.542 223.511 363.648 224.016C363.869 225.12 364.161 226.208 364.524 227.274C365.294 229.539 366.152 231.517 366.754 232.952C367.04 233.576 367.289 234.169 367.5 234.643C367.576 234.864 367.681 235.073 367.811 235.267C367.778 235.051 367.715 234.841 367.624 234.643C367.481 234.231 367.264 233.638 367.003 232.908C366.456 231.448 365.636 229.451 364.872 227.211C364.51 226.161 364.214 225.09 363.983 224.004C363.871 223.505 363.797 223.024 363.729 222.575C363.66 222.126 363.611 221.701 363.579 221.327C363.505 220.553 363.474 219.929 363.455 219.492C363.467 219.237 363.444 218.98 363.387 218.731Z" fill="#A36957"/>
<path d="M357.72 272.008V271.003L368.637 270.523L368.668 274.673L367.997 274.716C364.996 274.891 352.743 275.403 350.743 274.797C348.5 274.123 357.72 272.008 357.72 272.008Z" fill="#455A64"/>
<path d="M368.811 274.423C368.749 274.427 368.687 274.427 368.625 274.423L368.09 274.46L366.114 274.548C364.449 274.616 362.144 274.679 359.603 274.691C357.062 274.704 354.75 274.66 353.079 274.61L351.109 274.529H350.569H350.382C350.444 274.524 350.507 274.524 350.569 274.529H351.109L353.085 274.566C354.75 274.566 357.055 274.616 359.597 274.604C362.138 274.591 364.449 274.548 366.114 274.504L368.09 274.454H368.811V274.423Z" fill="#263238"/>
<path d="M354.16 274.772C354.069 274.446 353.944 274.13 353.787 273.83C353.591 273.554 353.363 273.3 353.11 273.075C353.449 273.197 353.731 273.442 353.899 273.762C354.104 274.056 354.197 274.415 354.16 274.772Z" fill="#263238"/>
<path d="M357.379 273.131C357.379 273.131 357.198 272.963 357.037 272.713C356.875 272.464 356.776 272.245 356.807 272.226C356.838 272.208 356.987 272.389 357.149 272.638C357.31 272.888 357.41 273.112 357.379 273.131Z" fill="#263238"/>
<path d="M358.261 272.688C358.261 272.72 358.062 272.601 357.876 272.432C357.689 272.264 357.553 272.108 357.577 272.083C357.602 272.058 357.776 272.17 357.963 272.339C358.149 272.507 358.286 272.632 358.261 272.688Z" fill="#263238"/>
<path d="M358.814 271.627C358.631 271.694 358.436 271.72 358.242 271.702C358.052 271.727 357.858 271.708 357.677 271.646C357.857 271.579 358.051 271.553 358.242 271.571C358.434 271.545 358.63 271.564 358.814 271.627Z" fill="#263238"/>
<path d="M359 270.903C358.815 271.024 358.6 271.089 358.379 271.09C358.168 271.119 357.953 271.088 357.758 271.003C357.963 270.968 358.171 270.952 358.379 270.953C358.584 270.916 358.792 270.9 359 270.903Z" fill="#263238"/>
<path d="M357.012 272.176C356.78 272.22 356.542 272.22 356.31 272.176C356.059 272.146 355.811 272.091 355.571 272.014C355.421 271.973 355.278 271.914 355.142 271.839C355.059 271.791 354.997 271.713 354.968 271.621C354.956 271.569 354.96 271.515 354.979 271.465C354.998 271.415 355.031 271.372 355.073 271.34C355.246 271.257 355.434 271.212 355.625 271.211C355.816 271.209 356.006 271.25 356.179 271.33C356.353 271.411 356.506 271.529 356.629 271.677C356.751 271.824 356.84 271.997 356.888 272.183C356.9 272.244 356.9 272.308 356.888 272.37C356.817 272.144 356.708 271.933 356.565 271.746C356.399 271.559 356.184 271.424 355.943 271.359C355.668 271.27 355.37 271.292 355.111 271.421C355.005 271.502 355.049 271.633 355.167 271.708C355.294 271.777 355.427 271.834 355.564 271.877C355.798 271.954 356.037 272.014 356.279 272.058C356.745 272.158 357.012 272.158 357.012 272.176Z" fill="#263238"/>
<path d="M356.832 272.214C356.741 272.069 356.71 271.895 356.745 271.727C356.768 271.544 356.834 271.368 356.937 271.215C356.996 271.111 357.079 271.023 357.18 270.96C357.281 270.897 357.396 270.86 357.515 270.854C357.586 270.87 357.647 270.913 357.688 270.973C357.728 271.033 357.744 271.106 357.733 271.178C357.717 271.29 357.677 271.396 357.615 271.49C357.52 271.645 357.41 271.789 357.285 271.921C357.177 272.045 357.041 272.141 356.888 272.201C356.888 272.201 357.024 272.077 357.217 271.852C357.329 271.723 357.427 271.583 357.509 271.434C357.602 271.284 357.671 271.016 357.509 270.985C357.348 270.953 357.161 271.147 357.055 271.284C356.957 271.419 356.889 271.575 356.857 271.74C356.831 271.896 356.823 272.055 356.832 272.214Z" fill="#263238"/>
<path d="M368.581 271.44C368.581 271.44 368.27 271.44 367.78 271.471C367.14 271.548 366.536 271.803 366.034 272.208C365.532 272.613 365.153 273.151 364.94 273.761C364.779 274.229 364.766 274.548 364.741 274.541C364.716 274.535 364.741 274.46 364.741 274.323C364.757 274.122 364.795 273.923 364.853 273.73C365.051 273.091 365.431 272.525 365.947 272.102C366.469 271.686 367.103 271.436 367.767 271.384C367.974 271.359 368.182 271.359 368.388 271.384C368.455 271.394 368.52 271.413 368.581 271.44Z" fill="#263238"/>
<path d="M363.356 273.549C362.835 273.671 362.3 273.723 361.765 273.705C361.233 273.732 360.7 273.686 360.181 273.568C360.181 273.53 360.889 273.568 361.765 273.568C362.641 273.568 363.349 273.512 363.356 273.549Z" fill="#263238"/>
<path d="M365.481 273.53C365.481 273.53 365.425 273.68 365.35 273.842C365.276 274.005 365.238 274.154 365.201 274.148C365.164 274.142 365.145 273.98 365.232 273.786C365.319 273.593 365.456 273.499 365.481 273.53Z" fill="#263238"/>
<path d="M366.282 272.526C366.282 272.526 366.239 272.663 366.127 272.776C366.015 272.888 365.903 272.963 365.872 272.938C365.841 272.913 365.916 272.801 366.027 272.682C366.139 272.564 366.251 272.495 366.282 272.526Z" fill="#263238"/>
<path d="M367.425 272.064C367.425 272.101 367.276 272.101 367.115 272.157C366.953 272.214 366.841 272.301 366.81 272.276C366.779 272.251 366.872 272.101 367.071 272.033C367.27 271.964 367.438 272.026 367.425 272.064Z" fill="#263238"/>
<path d="M368.239 271.839C368.239 271.877 368.196 271.933 368.103 271.964C368.01 271.995 367.929 272.002 367.916 271.964C367.904 271.927 367.966 271.871 368.053 271.839C368.14 271.808 368.227 271.808 368.239 271.839Z" fill="#263238"/>
<path d="M383.294 271.041L382.884 270.124L392.646 265.2L394.367 268.944L393.745 269.262C391.08 270.654 380.113 276.158 378.038 276.432C375.745 276.763 383.294 271.041 383.294 271.041Z" fill="#455A64"/>
<path d="M394.404 268.676L394.242 268.776L393.764 269.025L391.999 269.924C390.508 270.666 388.433 271.671 386.115 272.732C383.798 273.793 381.673 274.697 380.132 275.34L378.299 276.083L377.802 276.276C377.744 276.303 377.684 276.322 377.622 276.332L377.789 276.251L378.28 276.033L380.094 275.253C381.629 274.591 383.742 273.668 386.059 272.607C388.377 271.546 390.458 270.56 391.962 269.836L393.739 268.982L394.23 268.751L394.404 268.676Z" fill="#263238"/>
<path d="M381.2 275.022C380.985 274.758 380.741 274.52 380.473 274.31C380.182 274.137 379.871 273.999 379.548 273.899C379.904 273.894 380.254 273.999 380.55 274.2C380.845 274.4 381.072 274.687 381.2 275.022Z" fill="#263238"/>
<path d="M383.443 272.201C383.443 272.201 383.207 272.126 382.959 271.964C382.71 271.802 382.53 271.646 382.549 271.615C382.567 271.584 382.785 271.69 383.033 271.852C383.282 272.014 383.462 272.17 383.443 272.201Z" fill="#263238"/>
<path d="M384.052 271.44C384.052 271.471 383.841 271.44 383.599 271.365C383.356 271.29 383.176 271.197 383.183 271.159C383.34 271.145 383.498 271.17 383.642 271.234C383.878 271.29 384.065 271.378 384.052 271.44Z" fill="#263238"/>
<path d="M384.139 270.242C384.139 270.28 383.934 270.411 383.648 270.548C383.484 270.647 383.299 270.709 383.108 270.729C383.108 270.691 383.313 270.56 383.593 270.423C383.76 270.324 383.946 270.262 384.139 270.242Z" fill="#263238"/>
<path d="M384.015 269.506C384.015 269.506 383.835 269.755 383.512 269.936C383.329 270.061 383.112 270.126 382.89 270.123C383.068 270.003 383.258 269.901 383.456 269.818C383.76 269.649 383.984 269.474 384.015 269.506Z" fill="#263238"/>
<path d="M382.741 271.49C382.552 271.621 382.342 271.718 382.12 271.777C381.876 271.848 381.627 271.901 381.374 271.933C381.222 271.952 381.067 271.952 380.915 271.933C380.819 271.926 380.729 271.881 380.666 271.808C380.637 271.764 380.622 271.712 380.622 271.658C380.622 271.605 380.637 271.553 380.666 271.509C380.855 271.279 381.117 271.122 381.409 271.065C381.7 271.008 382.002 271.055 382.263 271.197C382.417 271.278 382.553 271.39 382.661 271.527C382.735 271.627 382.766 271.69 382.76 271.696C382.607 271.524 382.424 271.383 382.219 271.278C382.001 271.175 381.757 271.138 381.517 271.172C381.375 271.187 381.237 271.229 381.111 271.298C380.985 271.367 380.874 271.459 380.784 271.571C380.716 271.69 380.784 271.79 380.952 271.808C381.095 271.821 381.238 271.821 381.381 271.808C381.628 271.783 381.873 271.739 382.114 271.677C382.468 271.577 382.741 271.471 382.741 271.49Z" fill="#263238"/>
<path d="M382.567 271.596C382.429 271.497 382.331 271.351 382.294 271.184C382.239 271.009 382.227 270.823 382.257 270.641C382.267 270.522 382.308 270.407 382.376 270.307C382.443 270.208 382.535 270.127 382.642 270.074C382.797 270.024 383.158 270.342 383.182 270.461C383.207 270.579 383.002 270.517 382.99 270.617C382.97 270.794 382.928 270.968 382.866 271.134C382.82 271.295 382.735 271.441 382.617 271.559C382.617 271.559 382.692 271.39 382.779 271.109C382.823 270.944 382.854 270.775 382.872 270.604C382.872 270.429 382.872 270.161 382.673 270.205C382.474 270.248 382.418 270.492 382.375 270.666C382.337 270.829 382.337 270.997 382.375 271.159C382.426 271.31 382.49 271.457 382.567 271.596Z" fill="#263238"/>
<path d="M392.975 266.049C392.975 266.049 392.677 266.155 392.254 266.411C391.701 266.742 391.252 267.222 390.955 267.796C390.668 268.375 390.545 269.023 390.601 269.668C390.639 270.167 390.757 270.454 390.732 270.467C390.692 270.405 390.66 270.338 390.639 270.267C390.577 270.076 390.533 269.88 390.508 269.681C390.419 269.016 390.534 268.34 390.837 267.743C391.14 267.145 391.617 266.654 392.204 266.336C392.38 266.238 392.565 266.159 392.757 266.099C392.827 266.072 392.9 266.055 392.975 266.049Z" fill="#263238"/>
<path d="M389.066 270.13C388.19 270.742 387.212 271.19 386.177 271.453C386.177 271.415 386.83 271.166 387.625 270.829C388.42 270.492 389.048 270.098 389.066 270.13Z" fill="#263238"/>
<path d="M390.999 269.237C391.03 269.237 390.999 269.393 390.999 269.574C390.999 269.755 390.999 269.905 390.999 269.918C390.999 269.93 390.875 269.78 390.875 269.574C390.875 269.368 390.968 269.219 390.999 269.237Z" fill="#263238"/>
<path d="M391.316 267.989C391.347 267.989 391.316 268.133 391.279 268.283C391.241 268.432 391.148 268.545 391.117 268.532C391.086 268.52 391.117 268.389 391.154 268.239C391.192 268.089 391.279 267.977 391.316 267.989Z" fill="#263238"/>
<path d="M392.173 267.072C392.173 267.11 392.049 267.166 391.925 267.284C391.8 267.403 391.732 267.528 391.701 267.515C391.67 267.503 391.701 267.328 391.838 267.185C391.974 267.041 392.167 267.072 392.173 267.072Z" fill="#263238"/>
<path d="M392.826 266.56C392.826 266.56 392.826 266.66 392.751 266.729C392.676 266.798 392.608 266.835 392.583 266.81C392.558 266.785 392.583 266.71 392.658 266.642C392.732 266.573 392.801 266.536 392.826 266.56Z" fill="#263238"/>
<path d="M380.604 139.552L378.79 117.275L388.11 117.443C388.11 117.443 388.538 114.155 387.165 106.954C386.32 102.536 383.394 99.8277 380.107 98.2178V98.1554L379.821 98.0805C377.115 96.8605 374.226 96.1034 371.271 95.8403L359.808 95.9714C359.808 95.9714 351.053 94.8482 346.226 101.144C344.362 103.559 338.577 120.089 338.577 120.089L352.339 126.741L351.053 117.574C351.053 117.574 351.314 124.22 352.159 126.31C352.625 127.483 354.023 131.128 354.023 131.128L353.843 142.122L380.604 139.552Z" fill="#004171"/>
<path d="M374.285 114.042L372.583 121.318H388.632L387.575 109.113L374.285 114.042Z" fill="#004171"/>
<path d="M388.631 121.318C387.93 121.189 387.219 121.118 386.507 121.106C385.189 121.031 383.4 120.963 381.362 120.975C379.324 120.988 377.528 121.075 376.211 121.175C375.498 121.2 374.79 121.287 374.092 121.437C374.804 121.494 375.518 121.494 376.23 121.437C377.541 121.393 379.336 121.343 381.362 121.337C383.387 121.331 385.183 121.337 386.5 121.368C387.211 121.408 387.924 121.392 388.631 121.318Z" fill="#263238"/>
<path d="M373.589 109.057C373.513 109.678 373.496 110.304 373.539 110.929C373.539 112.071 373.589 113.643 373.658 115.384C373.726 117.125 373.807 118.704 373.881 119.839C373.884 120.469 373.951 121.096 374.08 121.711C374.156 121.09 374.173 120.464 374.13 119.839C374.13 118.697 374.08 117.119 374.012 115.378C373.943 113.637 373.863 112.064 373.788 110.922C373.785 110.295 373.719 109.67 373.589 109.057Z" fill="#263238"/>
<g opacity="0.3">
<path d="M358.988 115.359C358.988 115.359 362.554 141.923 372.583 141.217C372.583 141.217 377.1 141.168 378.547 138.154V136.968L358.988 115.359Z" fill="black"/>
</g>
<g opacity="0.3">
<path d="M373.589 110.623L371.669 123.646L372.912 125.93L374.962 121.462L374.092 121.437L373.589 110.623Z" fill="black"/>
</g>
<path d="M353.967 131.14C353.848 130.945 353.756 130.735 353.694 130.516C353.539 130.11 353.334 129.517 353.073 128.775C352.45 126.84 351.938 124.871 351.538 122.878C351.139 120.884 350.886 118.863 350.78 116.832C350.743 116.052 350.73 115.421 350.743 114.96C350.727 114.734 350.741 114.507 350.786 114.286C350.836 114.286 350.873 115.247 351.004 116.782C351.178 118.795 351.463 120.796 351.855 122.778C352.315 125.1 352.868 127.177 353.29 128.669C353.489 129.361 353.657 129.954 353.793 130.441C353.879 130.666 353.937 130.901 353.967 131.14Z" fill="#263238"/>
<path d="M358.018 138.772C357.931 138.772 357.683 138.229 357.465 137.524C357.278 137.092 357.195 136.621 357.223 136.151C357.497 136.532 357.686 136.969 357.776 137.43C357.954 137.854 358.037 138.312 358.018 138.772Z" fill="#263238"/>
<path d="M359.404 138.672C358.934 137.42 358.914 136.043 359.348 134.778C359.397 135.426 359.397 136.077 359.348 136.725C359.416 137.371 359.434 138.022 359.404 138.672Z" fill="#263238"/>
<path d="M352.619 127.046C352.576 127.121 349.376 125.599 345.467 123.639C341.559 121.68 338.422 120.02 338.459 119.939C338.496 119.858 341.702 121.387 345.61 123.346C349.519 125.306 352.656 126.965 352.619 127.046Z" fill="#263238"/>
<path d="M358.261 98.1242C358.329 94.9668 358.348 91.6471 358.348 91.6471C358.348 91.6471 354.315 90.8671 353.613 85.5382C352.942 80.4588 354.819 68.5342 354.819 68.5342C360.709 66.3002 366.829 68.3282 370.861 73.1206L369.861 98.7482C369.743 101.725 367.102 103.996 363.934 103.846C360.727 103.69 358.192 101.132 358.261 98.1242Z" fill="#B78876"/>
<path d="M354.508 78.0623C354.502 78.2373 354.564 78.4077 354.679 78.5387C354.795 78.6698 354.956 78.7516 355.129 78.7674C355.217 78.776 355.306 78.7664 355.391 78.7393C355.475 78.7122 355.553 78.6681 355.62 78.6097C355.687 78.5513 355.741 78.4799 355.78 78.3997C355.818 78.3195 355.84 78.2323 355.844 78.1434C355.849 77.9692 355.788 77.7995 355.672 77.6694C355.556 77.5394 355.395 77.4589 355.222 77.4446C355.134 77.4311 355.044 77.437 354.957 77.4618C354.871 77.4867 354.792 77.5299 354.724 77.5886C354.656 77.6473 354.602 77.72 354.564 77.8017C354.527 77.8835 354.508 77.9724 354.508 78.0623Z" fill="#263238"/>
<path d="M354.259 77.1702C354.34 77.2576 354.881 76.8894 355.595 76.9144C356.31 76.9393 356.838 77.3137 356.925 77.2264C357.012 77.139 356.888 77.0267 356.658 76.8457C356.346 76.6194 355.973 76.4951 355.589 76.49C355.211 76.4756 354.838 76.5851 354.527 76.802C354.297 76.9705 354.216 77.1265 354.259 77.1702Z" fill="#263238"/>
<path d="M361.908 78.5242C361.901 78.6996 361.962 78.8708 362.078 79.0022C362.193 79.1336 362.355 79.215 362.529 79.2294C362.618 79.2429 362.709 79.2369 362.796 79.2117C362.882 79.1865 362.962 79.1427 363.03 79.0833C363.098 79.0239 363.153 78.9505 363.189 78.8679C363.226 78.7854 363.245 78.6958 363.244 78.6054C363.251 78.4307 363.19 78.2601 363.074 78.1297C362.958 77.9993 362.796 77.9193 362.623 77.9065C362.534 77.893 362.444 77.8989 362.358 77.9237C362.272 77.9486 362.192 77.9918 362.124 78.0505C362.056 78.1092 362.002 78.1819 361.964 78.2637C361.927 78.3454 361.908 78.4343 361.908 78.5242Z" fill="#263238"/>
<path d="M361.858 77.6321C361.939 77.7257 362.48 77.3576 363.194 77.3763C363.909 77.395 364.437 77.7757 364.53 77.6883C364.623 77.6009 364.487 77.4886 364.257 77.3139C363.951 77.0816 363.578 76.9547 363.194 76.952C362.814 76.9406 362.44 77.0497 362.126 77.264C361.902 77.4325 361.821 77.5885 361.858 77.6321Z" fill="#263238"/>
<path d="M359.075 82.9921C358.693 82.8604 358.297 82.7786 357.894 82.7487C357.708 82.7487 357.534 82.6801 357.509 82.5553C357.494 82.3602 357.542 82.1655 357.646 81.9999L358.23 80.5959C358.773 79.4027 359.22 78.1673 359.566 76.9019C358.929 78.0484 358.385 79.244 357.938 80.4774C357.745 80.9703 357.553 81.4446 357.372 81.8939C357.252 82.1168 357.212 82.3749 357.261 82.6239C357.285 82.6916 357.325 82.7527 357.376 82.8025C357.428 82.8522 357.49 82.8894 357.559 82.911C357.662 82.941 357.768 82.9577 357.876 82.9609C358.272 83.0222 358.675 83.0327 359.075 82.9921Z" fill="#263238"/>
<path d="M358.348 91.6472C360.833 91.7471 363.298 91.1531 365.468 89.9312C365.468 89.9312 363.66 93.5316 358.385 92.9014L358.348 91.6472Z" fill="#A36957"/>
<path d="M364.195 75.5041C364.045 75.7349 363.486 75.6351 362.865 75.5041C362.244 75.373 361.697 75.267 361.622 74.9986C361.548 74.7303 362.2 74.3746 363.033 74.5431C363.865 74.7116 364.344 75.3044 364.195 75.5041Z" fill="#263238"/>
<path d="M356.943 74.4435C356.888 74.7118 356.291 74.8117 355.608 74.8429C354.924 74.8741 354.321 74.8429 354.241 74.5683C354.16 74.2938 354.738 73.9069 355.564 73.8694C356.39 73.832 356.999 74.1877 356.943 74.4435Z" fill="#263238"/>
<path d="M359.087 84.7453C359.009 84.7267 358.926 84.735 358.853 84.7689C358.78 84.8028 358.72 84.8605 358.683 84.9325C358.648 84.9962 358.63 85.068 358.631 85.1409C358.631 85.2137 358.651 85.2851 358.688 85.348C358.725 85.4108 358.777 85.463 358.84 85.4992C358.903 85.5354 358.974 85.5544 359.047 85.5544C359.119 85.5544 359.191 85.5354 359.254 85.4992C359.317 85.463 359.369 85.4108 359.406 85.348C359.443 85.2851 359.462 85.2137 359.463 85.1409C359.464 85.068 359.446 84.9962 359.41 84.9325C359.366 84.8487 359.294 84.7827 359.207 84.7452C359.12 84.7078 359.023 84.7012 358.932 84.7266" fill="#A36957"/>
<path d="M359.255 84.8206C359.255 84.7894 359.137 84.6084 358.82 84.677C358.725 84.7019 358.639 84.7512 358.569 84.8202C358.499 84.8892 358.448 84.9754 358.422 85.0702C358.389 85.1896 358.392 85.3164 358.431 85.4342C358.469 85.552 358.542 85.6556 358.64 85.7316C358.743 85.8027 358.865 85.8407 358.991 85.8407C359.116 85.8407 359.238 85.8027 359.342 85.7316C359.424 85.6757 359.489 85.5972 359.529 85.5055C359.569 85.4137 359.581 85.3124 359.565 85.2137C359.503 84.883 359.261 84.833 359.249 84.8767C359.236 84.9204 359.336 85.0327 359.317 85.2262C359.313 85.274 359.297 85.32 359.271 85.3603C359.245 85.4005 359.21 85.4337 359.168 85.457C359.12 85.485 359.065 85.4997 359.009 85.4997C358.954 85.4997 358.899 85.485 358.851 85.457C358.808 85.4201 358.775 85.3725 358.755 85.3189C358.735 85.2654 358.73 85.2076 358.739 85.1513C358.746 85.102 358.765 85.0552 358.794 85.0149C358.824 84.9747 358.862 84.9422 358.907 84.9204C359.081 84.8143 359.236 84.8642 359.255 84.8206Z" fill="#263238"/>
<path d="M368.451 79.3792C367.829 80.8394 366.288 81.9688 366.5 83.5475C366.636 84.5646 367.289 85.5131 367.164 86.5365C367.003 87.7845 365.679 88.708 365.487 89.9872C365.257 91.5534 366.779 92.7702 367.382 94.2304C368.27 96.3645 367.14 98.7606 367.109 101.094C367.145 102.866 367.82 104.565 369.008 105.875C370.196 107.185 371.817 108.019 373.57 108.22C374.987 108.339 376.584 107.908 377.298 106.685C377.92 105.675 377.783 104.389 378.143 103.272C378.69 101.6 380.275 100.377 380.629 98.6546C381.25 95.5346 377.46 92.9138 377.708 89.7189C377.814 88.3523 378.653 87.1667 379.007 85.8438C379.233 84.9745 379.25 84.0638 379.058 83.1864C378.865 82.309 378.469 81.4897 377.901 80.7957C376.963 79.6787 375.608 78.9237 374.794 77.7256C373.894 76.3466 373.862 74.6056 373.552 72.977C373.135 70.9974 372.224 69.1563 370.906 67.6259C369.588 66.0955 367.906 64.9256 366.015 64.2257C364.125 63.5257 362.089 63.3186 360.097 63.6235C358.105 63.9285 356.223 64.7356 354.626 65.9694C354.626 65.9694 353.725 70.0816 357.931 70.7742C362.138 71.4669 364.083 70.6682 364.555 72.3592C364.444 73.0558 364.498 73.769 364.714 74.4404C364.93 75.1118 365.301 75.7222 365.798 76.2218C367.512 78.0813 369.147 77.6819 368.451 79.3792Z" fill="#263238"/>
<path d="M375.13 107.902C375 107.906 374.871 107.894 374.745 107.865C374.38 107.8 374.023 107.702 373.676 107.571C372.393 107.077 371.268 106.243 370.42 105.156C369.826 104.407 369.36 103.563 369.041 102.66C368.678 101.632 368.487 100.55 368.475 99.4593C368.463 98.2567 368.613 97.058 368.923 95.8962C369.092 95.2827 369.3 94.6804 369.544 94.0929C369.801 93.5081 370.027 92.9103 370.221 92.302C370.392 91.7025 370.392 91.0669 370.221 90.4674C370.04 89.8773 369.805 89.305 369.519 88.7577C369.231 88.2149 368.988 87.6494 368.792 87.0666C368.601 86.4899 368.556 85.8743 368.662 85.2758C368.91 84.1026 369.619 83.229 370.041 82.3367C370.444 81.5107 370.636 80.5974 370.6 79.6785C370.544 78.3338 370.058 77.043 369.215 75.9969C368.888 75.6304 368.537 75.2865 368.165 74.9673C368.6 75.2131 368.99 75.5342 369.314 75.9158C370.219 76.9603 370.753 78.2774 370.83 79.6598C370.882 80.6187 370.694 81.5753 370.284 82.4428C369.855 83.3663 369.165 84.2462 368.954 85.3194C368.743 86.3927 369.246 87.5222 369.799 88.6079C370.101 89.1709 370.346 89.7624 370.532 90.3738C370.716 91.0267 370.716 91.7178 370.532 92.3706C370.325 93.0002 370.087 93.6187 369.818 94.2239C369.573 94.7987 369.366 95.3885 369.196 95.9898C368.888 97.1222 368.735 98.2916 368.743 99.4655C368.723 101.465 369.366 103.414 370.569 105.007C371.374 106.079 372.445 106.921 373.676 107.446C374.602 107.808 375.136 107.865 375.13 107.902Z" fill="#455A64"/>
<path d="M374.509 76.4153C374.206 76.494 373.895 76.5401 373.583 76.5526C372.73 76.6442 371.869 76.6211 371.023 76.4839C370.381 76.3885 369.765 76.1655 369.21 75.828C368.656 75.4905 368.173 75.0453 367.792 74.5183C367.437 73.8517 367.153 73.1488 366.947 72.4217C366.682 71.6954 366.183 71.0785 365.53 70.6683C364.17 69.8009 362.573 69.6948 361.181 69.5263C359.897 69.4621 358.651 69.0713 357.559 68.3907C356.827 67.9039 356.299 67.1646 356.074 66.3127C356.019 66.0819 356.005 65.8434 356.03 65.6076C356.03 65.4454 356.067 65.3643 356.08 65.3643C356.087 65.6733 356.127 65.9808 356.198 66.2815C356.455 67.078 356.983 67.7583 357.689 68.2035C358.761 68.8316 359.972 69.1832 361.212 69.2268C362.604 69.3891 364.257 69.4702 365.711 70.3937C366.422 70.8424 366.964 71.5165 367.251 72.3094C367.446 73.0181 367.715 73.7041 368.053 74.3561C368.777 75.3531 369.861 76.0253 371.073 76.2281C371.892 76.381 372.726 76.4376 373.558 76.3966C373.875 76.3787 374.193 76.3849 374.509 76.4153Z" fill="#455A64"/>
<path d="M372.968 71.3358C372.734 71.4144 372.487 71.4503 372.241 71.4418C371.083 71.4497 369.967 71.0017 369.134 70.1938C368.754 69.8111 368.43 69.3762 368.171 68.9022C367.612 67.9537 367.071 66.7868 365.909 66.3001C364.79 65.9229 363.597 65.8181 362.43 65.9943C361.445 66.1333 360.445 66.1333 359.46 65.9943C358.775 65.8988 358.129 65.6136 357.596 65.1707C357.458 65.05 357.337 64.9115 357.236 64.7588C357.161 64.6506 357.13 64.5945 357.142 64.5903C357.142 64.5903 357.316 64.79 357.677 65.0708C358.208 65.4503 358.825 65.6905 359.472 65.7697C360.44 65.8792 361.417 65.8625 362.38 65.7198C363.599 65.5199 364.848 65.6271 366.015 66.0318C366.615 66.3026 367.129 66.7344 367.5 67.2798C367.827 67.7662 368.128 68.2703 368.401 68.7898C368.646 69.2434 368.949 69.6629 369.302 70.0378C369.614 70.3549 369.972 70.6221 370.364 70.8303C370.942 71.1334 371.577 71.3099 372.228 71.3482C372.707 71.342 372.961 71.3046 372.968 71.3358Z" fill="#455A64"/>
<path d="M376.982 106.554C376.951 106.554 377.149 106.142 377.379 105.369C377.69 104.282 377.829 103.154 377.789 102.024C377.744 100.352 377.29 98.7167 376.466 97.2629C376.012 96.4454 375.323 95.7154 374.757 94.8168C374.458 94.3591 374.247 93.8489 374.136 93.313C374.038 92.7488 374.085 92.1689 374.273 91.6282C374.621 90.5486 375.242 89.6439 375.379 88.6517C375.515 87.6595 375.043 86.7797 374.571 85.9498C374.327 85.5459 374.105 85.1293 373.906 84.7018C373.724 84.2871 373.605 83.8476 373.552 83.3976C373.493 82.6047 373.518 81.8078 373.626 81.0202C373.825 79.9068 373.722 78.7602 373.328 77.7005C373.152 77.3293 372.903 76.998 372.595 76.7271C372.595 76.7271 372.626 76.727 372.67 76.7645C372.743 76.8012 372.81 76.8497 372.868 76.908C373.111 77.1113 373.309 77.3645 373.446 77.6506C373.896 78.7194 374.036 79.8938 373.85 81.0389C373.764 81.8119 373.754 82.5914 373.819 83.3664C373.972 84.2382 374.316 85.0651 374.826 85.7875C375.091 86.2092 375.317 86.6541 375.503 87.1167C375.699 87.616 375.763 88.1576 375.689 88.6891C375.54 89.7811 374.9 90.7047 374.577 91.7218C374.407 92.2125 374.363 92.738 374.447 93.2506C374.555 93.7463 374.753 94.218 375.031 94.6421C375.559 95.5095 376.273 96.252 376.727 97.1069C377.559 98.6098 378.004 100.298 378.019 102.018C378.039 103.169 377.862 104.315 377.497 105.406C377.398 105.701 377.277 105.989 377.137 106.267C377.099 106.37 377.047 106.466 376.982 106.554Z" fill="#455A64"/>
<path d="M351.675 222.824C351.675 222.824 347.487 182.988 347.245 168.268C347.002 153.548 353.837 139.021 353.837 139.021L380.604 137.904C380.604 137.904 385.898 152.837 385.991 159.12C386.177 171.313 382.766 183.35 383.158 193.022L384.052 222.849" fill="#263238"/>
<path d="M384.953 173.847C384.814 173.968 384.666 174.081 384.512 174.184L384.27 174.352L384.009 174.608C383.779 174.808 383.571 175.032 383.387 175.276C382.524 176.336 381.896 178.24 381.294 180.605C380.986 181.916 380.531 183.189 379.939 184.399C379.759 184.73 379.551 185.045 379.318 185.341C379.206 185.491 379.1 185.653 378.97 185.796L378.56 186.208C377.972 186.759 377.29 187.199 376.547 187.506C375.049 188.167 373.353 188.479 371.812 189.259C370.233 190.112 369.014 191.508 368.376 193.191C367.618 194.882 367.133 196.654 366.512 198.314C365.891 199.974 365.052 201.559 363.716 202.569C362.439 203.461 360.922 203.942 359.367 203.948C357.925 204.036 356.589 203.992 355.39 204.173C354.311 204.286 353.279 204.677 352.395 205.309C351.75 205.816 351.266 206.501 351.004 207.281C350.837 207.772 350.801 208.299 350.898 208.809C350.973 209.159 351.066 209.327 351.047 209.334C350.947 209.177 350.876 209.004 350.836 208.822C350.705 208.301 350.722 207.754 350.886 207.243C351.132 206.425 351.62 205.701 352.284 205.165C353.19 204.479 354.262 204.048 355.39 203.917C356.633 203.718 357.956 203.743 359.379 203.649C360.889 203.639 362.36 203.169 363.598 202.301C364.854 201.199 365.781 199.769 366.276 198.17C366.897 196.529 367.351 194.751 368.14 193.028C368.809 191.277 370.084 189.826 371.731 188.941C373.334 188.143 375.031 187.837 376.491 187.2C377.206 186.903 377.862 186.481 378.429 185.952L378.821 185.559C378.945 185.422 379.051 185.266 379.162 185.122C379.382 184.839 379.575 184.536 379.74 184.218C380.336 183.025 380.796 181.769 381.113 180.474C381.735 178.115 382.412 176.187 383.325 175.12C383.507 174.877 383.716 174.655 383.947 174.458C384.046 174.371 384.133 174.283 384.22 174.215L384.475 174.053C384.63 173.974 384.79 173.906 384.953 173.847Z" fill="#FAFAFA"/>
<path d="M385.115 155.414C385.143 155.589 385.156 155.766 385.152 155.944C385.15 156.459 385.088 156.972 384.966 157.473C384.431 159.298 383.38 160.928 381.94 162.165C380.99 163.043 379.948 163.815 378.833 164.468C377.634 165.179 376.311 165.859 374.95 166.633C373.521 167.403 372.19 168.343 370.986 169.435C369.751 170.665 368.734 172.098 367.978 173.672C367.217 175.267 366.347 176.808 365.375 178.283C364.881 178.971 364.31 179.599 363.673 180.155C363.044 180.692 362.354 181.151 361.616 181.522C360.281 182.18 358.89 182.717 357.459 183.125C356.13 183.537 354.887 183.905 353.806 184.373C352.825 184.765 351.891 185.268 351.022 185.871C350.369 186.326 349.781 186.87 349.276 187.487C348.854 188.022 348.501 188.609 348.226 189.234C348.271 189.061 348.329 188.892 348.4 188.729C348.604 188.258 348.865 187.813 349.177 187.406C349.673 186.763 350.259 186.195 350.917 185.721C351.789 185.097 352.729 184.573 353.719 184.161C354.916 183.671 356.137 183.244 357.379 182.882C358.789 182.464 360.161 181.926 361.479 181.272C362.179 180.906 362.835 180.462 363.437 179.949C364.05 179.401 364.6 178.786 365.077 178.115C366.035 176.646 366.897 175.116 367.655 173.535C368.435 171.926 369.486 170.465 370.762 169.216C371.987 168.109 373.344 167.157 374.801 166.384C376.168 165.616 377.491 164.948 378.69 164.243C379.802 163.612 380.844 162.863 381.797 162.009C383.224 160.809 384.284 159.228 384.854 157.448C385.013 156.781 385.101 156.099 385.115 155.414Z" fill="#FAFAFA"/>
<path d="M347.381 170.352C347.357 170.314 347.338 170.272 347.325 170.227C347.279 170.107 347.239 169.984 347.207 169.859C347.101 169.363 347.122 168.847 347.269 168.362C347.617 167.114 348.991 165.51 351.203 164.717C352.308 164.337 353.557 164.094 354.862 163.769C355.946 163.589 356.971 163.151 357.852 162.492C358.732 161.833 359.444 160.972 359.926 159.981C360.279 159.254 360.589 158.506 360.852 157.741C361.338 156.08 361.998 154.476 362.821 152.955C363.765 151.46 365.198 150.342 366.873 149.791C368.396 149.295 369.951 148.899 371.526 148.606C372.932 148.335 374.293 147.869 375.571 147.221C376.653 146.6 377.587 145.748 378.305 144.725C379.366 143.248 379.971 141.49 380.045 139.67C380.048 139.002 380.004 138.335 379.914 137.673C380.102 138.322 380.188 138.995 380.169 139.67C380.145 141.529 379.56 143.337 378.491 144.856C377.764 145.912 376.811 146.793 375.702 147.433C374.407 148.105 373.024 148.59 371.595 148.874C370.034 149.172 368.494 149.57 366.984 150.066C365.376 150.595 364.001 151.669 363.095 153.105C362.284 154.605 361.633 156.186 361.15 157.822C360.882 158.601 360.564 159.362 360.199 160.1C359.831 160.809 359.363 161.461 358.808 162.034C357.716 163.034 356.373 163.714 354.924 164C353.607 164.337 352.364 164.549 351.277 164.911C349.121 165.647 347.754 167.164 347.388 168.374C347.237 168.841 347.196 169.337 347.269 169.822C347.322 169.995 347.359 170.172 347.381 170.352Z" fill="#FAFAFA"/>
<path d="M382.816 204.048C382.841 204.178 382.856 204.309 382.859 204.441C382.871 204.82 382.832 205.197 382.741 205.565C382.351 206.918 381.525 208.103 380.393 208.934C379.637 209.539 378.8 210.035 377.907 210.407C376.957 210.813 375.907 211.137 374.801 211.48C373.653 211.817 372.529 212.234 371.439 212.728C370.307 213.272 369.292 214.033 368.451 214.968C367.544 215.917 366.761 216.959 365.891 217.882C365.059 218.777 364.092 219.535 363.026 220.129C361.213 221.123 359.184 221.654 357.118 221.676C355.734 221.691 354.358 221.461 353.054 220.996C352.7 220.874 352.355 220.726 352.023 220.553C351.901 220.503 351.787 220.438 351.681 220.36C351.806 220.394 351.929 220.438 352.047 220.491C352.389 220.637 352.737 220.766 353.091 220.878C354.393 221.288 355.754 221.479 357.118 221.445C359.138 221.393 361.116 220.851 362.884 219.867C363.916 219.279 364.853 218.537 365.661 217.664C366.512 216.753 367.289 215.717 368.215 214.744C369.105 213.773 370.178 212.988 371.371 212.435C372.477 211.939 373.617 211.522 374.782 211.187C375.876 210.85 376.919 210.563 377.889 210.151C378.756 209.795 379.571 209.322 380.312 208.747C381.425 207.957 382.255 206.828 382.679 205.527C382.771 205.04 382.817 204.545 382.816 204.048Z" fill="#FAFAFA"/>
<path d="M379.765 121.343L374.583 121.468C374.384 122.517 373.987 123.519 373.415 124.419C369.066 116.869 365.729 106.76 364.897 102.698C365.021 102.292 365.164 101.843 365.344 101.344C365.473 100.586 365.45 99.809 365.276 99.0599C365.126 98.1551 364.878 96.9383 364.803 96.3767C364.573 94.6545 364.294 94.3861 363.697 94.5796C362.89 94.8479 364.033 99.4031 363.368 99.5029C363.008 99.5529 362.573 97.9929 362.449 96.7137C362.324 95.4345 361.74 91.4908 361.324 91.2287C360.703 90.8418 360.162 91.4533 360.324 92.7263C360.485 93.9993 360.678 97.8681 360.007 97.9242C359.336 97.9804 358.764 91.4409 358.764 91.4409C358.764 91.4409 358.87 90.0181 358.087 90.0493C356.683 90.1117 357.782 97.0007 357.9 97.6559C357.987 98.1052 357.279 98.1925 357.192 97.6996C357.105 97.2066 356.782 91.1663 355.328 91.2162C354.222 91.2162 356.179 96.8884 355.558 98.1988C354.937 99.5092 354.514 93.7559 353.464 93.8308C353.073 93.862 352.781 93.9369 353.501 97.1879C354.192 99.771 355.021 102.314 355.987 104.807C357.652 113.824 364.959 142.671 376.41 137.392C382.822 134.434 385.419 121.343 385.419 121.343H379.765Z" fill="#B78876"/>
<path d="M357.677 98.0931C357.726 98.1055 357.777 98.1055 357.826 98.0931C357.901 98.0701 357.965 98.021 358.007 97.9547C358.049 97.8883 358.067 97.8091 358.056 97.7312C358.056 97.3443 357.981 96.7827 357.894 96.0526C357.749 95.1727 357.653 94.2852 357.608 93.3944C357.608 92.8702 357.608 92.3086 357.639 91.7158C357.649 91.4144 357.68 91.1141 357.733 90.8172C357.782 90.5364 357.969 90.1932 358.186 90.2494H358.223C358.441 90.2494 358.615 90.4116 358.683 90.6737C358.76 90.9453 358.79 91.2282 358.77 91.5099C358.898 93.2574 359.12 94.9968 359.435 96.7203C359.485 96.9512 359.535 97.1883 359.609 97.4254C359.642 97.5467 359.684 97.6656 359.733 97.7811C359.765 97.8453 359.8 97.9078 359.839 97.9683C359.867 98.0139 359.905 98.0523 359.95 98.0805C359.996 98.1086 360.047 98.1258 360.1 98.1305C360.19 98.1205 360.276 98.0838 360.346 98.0249C360.415 97.966 360.466 97.8877 360.491 97.7998C360.545 97.6777 360.584 97.5501 360.609 97.4192C360.658 97.1676 360.691 96.9134 360.709 96.6579C360.765 95.6181 360.751 94.5756 360.665 93.5379C360.587 93.0197 360.566 92.4944 360.603 91.9716C360.626 91.7458 360.735 91.5377 360.908 91.3913C360.947 91.3675 360.992 91.3525 361.038 91.3471C361.084 91.3417 361.131 91.3461 361.175 91.3601C361.228 91.3728 361.278 91.3939 361.324 91.4225C361.355 91.4462 361.379 91.4788 361.392 91.5161C361.588 92.0221 361.732 92.547 361.821 93.0824C361.933 93.6315 362.026 94.1993 362.113 94.7672C362.2 95.335 362.281 95.9091 362.349 96.4894C362.402 97.0882 362.498 97.6825 362.635 98.2678C362.708 98.567 362.802 98.861 362.915 99.1476C362.978 99.3081 363.066 99.4576 363.176 99.5907C363.217 99.646 363.274 99.6882 363.339 99.7125C363.404 99.7368 363.474 99.7422 363.542 99.728C363.605 99.7071 363.662 99.6703 363.706 99.6211C363.751 99.5719 363.782 99.512 363.797 99.4472C363.87 99.1283 363.893 98.7998 363.865 98.4737C363.865 98.1617 363.828 97.8497 363.797 97.5502C363.753 97.026 363.704 96.5081 363.685 95.9964C363.669 95.745 363.669 95.4928 363.685 95.2414C363.697 95.1301 363.724 95.0209 363.766 94.9169C363.779 94.8826 363.798 94.8509 363.822 94.8233H363.902C364.313 94.6548 364.449 95.2289 364.561 95.6907C364.673 96.1524 364.716 96.6766 364.816 97.1696C364.977 98.1492 365.189 99.1289 365.294 100.065C365.366 100.513 365.349 100.971 365.245 101.413C365.095 101.862 364.946 102.305 364.803 102.748V102.792V102.829C365.531 105.895 366.459 108.909 367.581 111.852C368.562 114.517 369.55 116.844 370.414 118.716C371.278 120.588 372.061 122.055 372.595 123.041L373.216 124.158C373.284 124.291 373.365 124.416 373.459 124.532C373.406 124.393 373.342 124.26 373.266 124.133L372.645 122.991C372.135 121.986 371.402 120.495 370.557 118.623C369.712 116.751 368.755 114.423 367.798 111.759C366.703 108.82 365.794 105.815 365.077 102.761V102.848C365.22 102.411 365.363 101.968 365.512 101.525C365.641 101.039 365.666 100.531 365.586 100.034C365.474 99.054 365.269 98.1056 365.108 97.1196C365.015 96.6329 364.953 96.1337 364.853 95.622C364.847 95.3592 364.803 95.0986 364.723 94.8483C364.652 94.696 364.531 94.5727 364.381 94.4988C364.221 94.4464 364.049 94.4464 363.89 94.4988H363.791C363.738 94.5158 363.689 94.5434 363.648 94.58C363.579 94.6387 363.525 94.7138 363.492 94.7984C363.435 94.9334 363.4 95.0766 363.387 95.2227C363.368 95.4928 363.368 95.7638 363.387 96.0339C363.387 96.558 363.461 97.0822 363.505 97.6064C363.505 97.9121 363.555 98.2304 363.567 98.5112C363.592 98.7926 363.577 99.0762 363.523 99.3536C363.523 99.416 363.474 99.4035 363.523 99.4347L363.486 99.3972C363.407 99.2953 363.344 99.1816 363.3 99.0603C363.191 98.7904 363.102 98.513 363.033 98.2304C362.896 97.6621 362.803 97.0843 362.753 96.5019C362.687 95.9153 362.606 95.335 362.511 94.7609C362.424 94.1868 362.324 93.6252 362.212 93.0636C362.119 92.492 361.96 91.933 361.74 91.3976C361.698 91.3081 361.631 91.2324 361.548 91.1792C361.475 91.137 361.398 91.1035 361.318 91.0793C361.229 91.056 361.137 91.0506 361.046 91.0634C360.956 91.0763 360.868 91.1071 360.79 91.1542C360.661 91.2504 360.555 91.372 360.475 91.5116C360.396 91.6512 360.347 91.8057 360.33 91.9654C360.29 92.2489 360.29 92.5368 360.33 92.8203C360.33 93.0886 360.392 93.3507 360.411 93.6128C360.497 94.6337 360.516 95.6594 360.467 96.6828C360.452 96.926 360.421 97.1678 360.373 97.4067C360.355 97.5182 360.324 97.6272 360.28 97.7312C360.264 97.7723 360.241 97.8103 360.212 97.8435C360.212 97.8996 360.168 97.8435 360.174 97.9184C360.174 97.856 360.174 97.9184 360.174 97.8372C360.147 97.7951 360.122 97.7513 360.1 97.7062C360.056 97.6064 360.019 97.494 359.982 97.388C359.914 97.1633 359.864 96.9324 359.814 96.7078C359.49 94.9991 359.256 93.2745 359.112 91.5411C359.131 91.2274 359.095 90.9128 359.006 90.6113C358.965 90.4541 358.881 90.3114 358.764 90.1995C358.703 90.1405 358.631 90.0945 358.552 90.0645C358.473 90.0345 358.389 90.0209 358.304 90.0248H358.342C358.236 90.0093 358.129 90.0253 358.033 90.0708C357.937 90.1163 357.856 90.1893 357.801 90.2806C357.709 90.4295 357.645 90.5947 357.615 90.7673C357.562 91.0767 357.533 91.3896 357.528 91.7033C357.528 92.3273 357.528 92.8702 357.528 93.4006C357.587 94.2971 357.701 95.189 357.869 96.0713C357.975 96.7952 358.056 97.3568 358.093 97.7374C358.105 97.8041 358.093 97.8728 358.061 97.9319C358.028 97.9911 357.976 98.037 357.913 98.0619C357.726 98.0806 357.67 98.0868 357.677 98.0931Z" fill="#A36957"/>
<path d="M317.209 129.936C315.997 129.91 314.786 130.05 313.612 130.354C310.4 131.202 304.863 134.572 304.634 138.734H308.66C308.66 138.734 306.404 143.551 307.063 143.102C308.784 141.941 312.201 138.453 312.201 138.453L317.209 129.936Z" fill="#B78876"/>
<path d="M372.092 57.4081C371.999 57.4081 371.638 54.076 371.278 49.9201C370.917 45.7643 370.694 42.4321 370.781 42.4321C370.868 42.4321 371.234 45.7643 371.595 49.9201C371.955 54.076 372.179 57.4081 372.092 57.4081Z" fill="#263238"/>
<path d="M389.744 42.688C389.812 42.7379 387.097 46.7003 383.673 51.5363C380.25 56.3723 377.41 60.2723 377.336 60.1974C377.261 60.1225 379.983 56.1851 383.406 51.3491C386.83 46.5131 389.669 42.6381 389.744 42.688Z" fill="#263238"/>
<path d="M397.075 60.6468C397.075 60.7342 393.919 61.4642 389.992 62.2754C386.065 63.0866 382.859 63.6732 382.841 63.5858C382.822 63.4985 385.991 62.7684 389.924 61.9572C393.857 61.146 397.032 60.5594 397.075 60.6468Z" fill="#263238"/>
<path d="M185.779 146.353L163.783 259.796L160.925 274.647L307.56 273.936C314.146 273.905 319.987 268.033 322.093 259.309L348.102 152.212C349.711 145.592 346.182 138.703 341.187 138.709L192.738 138.865C189.507 138.859 186.611 141.929 185.779 146.353Z" fill="#004171"/>
<g opacity="0.5">
<path d="M185.779 146.353L163.783 259.796L160.925 274.647L307.56 273.936C314.146 273.905 319.987 268.033 322.093 259.309L348.102 152.212C349.711 145.592 346.182 138.703 341.187 138.709L192.738 138.865C189.507 138.859 186.611 141.929 185.779 146.353Z" fill="black"/>
</g>
<path d="M293.512 252.096L277.978 126.416C277.357 121.268 273.262 117.424 268.435 117.443L234.386 117.549C233.12 117.563 231.871 117.836 230.714 118.351C229.557 118.866 228.517 119.612 227.656 120.544L211.502 137.81L116.811 138.322C111.026 138.353 106.577 143.857 107.341 150.034L121.763 266.192C122.384 271.334 126.479 275.171 131.294 275.165L296.351 274.834C314.73 275.215 316.489 269.768 316.489 269.768C295.388 274.454 293.512 252.127 293.512 252.096Z" fill="#004171"/>
<g opacity="0.5">
<path d="M222.338 226.961L216.771 232.964L173.899 194.226L179.466 188.223L222.338 226.961Z" fill="white"/>
<path d="M214.441 186.894L220.592 192.454L181.802 234.293L175.645 228.733L214.441 186.894Z" fill="white"/>
</g>
<path d="M317.079 64.7586C316.878 64.6735 316.705 64.5327 316.581 64.3526C316.456 64.1724 316.386 63.9605 316.377 63.7415L316.128 57.9508C316.119 57.7709 316.153 57.5914 316.225 57.4265C316.297 57.2616 316.407 57.1159 316.545 57.0008C316.683 56.8858 316.845 56.8046 317.02 56.7637C317.195 56.7228 317.377 56.7233 317.551 56.7652C318.032 56.8694 318.529 56.874 319.012 56.7785C319.495 56.683 319.954 56.4895 320.36 56.2098C320.733 55.9723 321.054 55.6604 321.303 55.2933C321.552 54.9263 321.724 54.5119 321.807 54.0758C321.864 53.6341 321.831 53.1856 321.711 52.7569C321.592 52.3281 321.388 51.9278 321.111 51.5798C320.82 51.1837 320.454 50.8492 320.034 50.5955C319.614 50.3417 319.148 50.1736 318.663 50.1009C317.686 50.0463 316.718 50.3246 315.918 50.8908C315.117 51.4571 314.53 52.278 314.252 53.2209C314.159 53.5066 313.96 53.7453 313.696 53.8873C313.433 54.0293 313.125 54.0637 312.836 53.9832C312.548 53.9028 312.302 53.7138 312.149 53.4555C311.996 53.1973 311.948 52.8897 312.015 52.5969C312.438 51.1139 313.356 49.8223 314.615 48.9393C315.875 48.0563 317.399 47.6358 318.93 47.7484C319.728 47.8551 320.496 48.1216 321.188 48.5322C321.881 48.9427 322.485 49.4889 322.963 50.1383C323.428 50.7402 323.769 51.4297 323.964 52.166C324.159 52.9024 324.206 53.6706 324.1 54.4252C323.959 55.1787 323.665 55.8952 323.238 56.5305C322.81 57.1658 322.258 57.7065 321.615 58.1193C320.682 58.7495 319.594 59.1061 318.471 59.1489L318.663 63.6167C318.67 63.813 318.628 64.008 318.54 64.1835C318.453 64.359 318.322 64.5095 318.161 64.6208C318 64.7322 317.813 64.801 317.619 64.8207C317.424 64.8404 317.228 64.8105 317.048 64.7337L317.079 64.7586Z" fill="#004171"/>
<path d="M318.781 67.1299C318.794 67.3184 318.752 67.5065 318.658 67.6704C318.565 67.8344 318.425 67.9669 318.257 68.051C318.088 68.1352 317.899 68.1673 317.712 68.1433C317.526 68.1193 317.35 68.0403 317.209 67.9162C317.067 67.7921 316.965 67.6286 316.915 67.4463C316.866 67.264 316.872 67.0711 316.932 66.892C316.992 66.713 317.103 66.5558 317.252 66.4405C317.401 66.3251 317.581 66.2566 317.769 66.2438C317.893 66.2345 318.018 66.2501 318.137 66.2897C318.255 66.3293 318.365 66.3921 318.459 66.4745C318.553 66.5569 318.63 66.6573 318.686 66.7698C318.741 66.8823 318.773 67.0047 318.781 67.1299Z" fill="#004171"/>
<path d="M297.115 56.5904C297.142 56.4669 297.161 56.3419 297.171 56.216C297.171 55.9414 297.24 55.592 297.289 55.099C297.35 54.4938 297.452 53.8934 297.594 53.3019C297.675 52.9525 297.718 52.5656 297.842 52.1725C297.967 51.7794 298.091 51.355 298.228 50.9245C298.947 48.7912 299.995 46.7845 301.334 44.9778C303.089 42.6382 305.314 40.695 307.864 39.2744C309.316 38.4524 310.862 37.8112 312.468 37.365C314.202 36.9035 315.988 36.6686 317.781 36.6661C318.726 36.6508 319.67 36.7009 320.608 36.8158C321.086 36.8658 321.559 36.9906 322.037 37.0717C322.521 37.1549 322.998 37.2717 323.466 37.4211C325.424 37.9708 327.287 38.8189 328.99 39.9358C332.775 42.4014 335.658 46.0374 337.204 50.2942C338.036 52.5745 338.457 54.9855 338.446 57.4141C338.472 59.916 338.032 62.4006 337.148 64.7398L336.868 65.4512L336.831 65.5448L336.868 65.6384C338.428 69.2389 339.975 72.777 341.435 76.2027L341.696 75.9032L332.376 72.3152L332.264 72.2715L332.171 72.3589C329.705 74.758 326.687 76.5073 323.385 77.4507C320.564 78.2308 317.61 78.4011 314.718 77.9504C311.826 77.4997 309.063 76.4383 306.609 74.8362C304.6 73.5128 302.829 71.8565 301.371 69.9378C299.259 67.1371 297.891 63.8433 297.395 60.3656C297.32 59.7416 297.258 59.2174 297.202 58.7432C297.146 58.269 297.202 57.8821 297.171 57.5514C297.14 57.2206 297.171 57.0022 297.171 56.8213C297.202 56.8166 297.23 56.8003 297.25 56.7756C297.269 56.751 297.279 56.7199 297.277 56.6885C297.274 56.6571 297.26 56.6278 297.237 56.6064C297.214 56.585 297.184 56.5731 297.153 56.5731C297.121 56.5731 297.091 56.585 297.068 56.6064C297.045 56.6278 297.031 56.6571 297.029 56.6885C297.026 56.7199 297.036 56.751 297.055 56.7756C297.075 56.8003 297.103 56.8166 297.134 56.8213C297.134 57.0022 297.134 57.2456 297.134 57.5514C297.134 57.8571 297.134 58.2814 297.134 58.7557C297.134 59.2299 297.24 59.7728 297.302 60.3906C297.506 61.8914 297.862 63.3675 298.364 64.796C299.075 66.6824 300.032 68.4659 301.21 70.1C302.673 72.0529 304.457 73.7411 306.485 75.092C308.969 76.7342 311.771 77.8271 314.708 78.2983C317.644 78.7695 320.646 78.6082 323.516 77.8251C326.857 76.872 329.913 75.1059 332.413 72.6834L332.208 72.727L341.528 76.3338L341.994 76.5147L341.789 76.0342C340.31 72.6085 338.782 69.0766 337.229 65.4699V65.6509L337.514 64.9208C338.421 62.5306 338.872 59.9904 338.844 57.4328C338.864 54.9526 338.443 52.4888 337.601 50.157C336.023 45.8153 333.075 42.1102 329.207 39.6051C327.462 38.4621 325.55 37.5989 323.541 37.0467C323.065 36.8956 322.579 36.7809 322.087 36.7035C321.602 36.6162 321.124 36.4914 320.639 36.4477C319.689 36.3292 318.732 36.275 317.775 36.2854C315.953 36.2932 314.139 36.5407 312.381 37.0218C310.754 37.4859 309.187 38.1437 307.715 38.9811C305.139 40.4366 302.901 42.4254 301.148 44.8155C299.813 46.6522 298.779 48.6914 298.085 50.8558C297.954 51.3051 297.83 51.7357 297.718 52.1038C297.619 52.48 297.54 52.8612 297.482 53.2458C297.349 53.8413 297.261 54.4463 297.221 55.0554C297.184 55.5358 297.159 55.904 297.14 56.1786C297.114 56.3142 297.106 56.4526 297.115 56.5904Z" fill="#263238"/>
</svg>
