<svg width="24" height="24" viewBox="0 0 24 24" fill="none" xmlns="http://www.w3.org/2000/svg">
<path d="M19 15C18.9966 14.4126 18.9194 13.828 18.77 13.26C18.7527 13.1826 18.7162 13.1108 18.6637 13.0514C18.6113 12.992 18.5446 12.9467 18.47 12.92C18.3915 12.8912 18.3068 12.8835 18.2244 12.8975C18.1419 12.9115 18.0646 12.9469 18 13C16.5609 13.9304 14.8122 14.2539 13.1354 13.8998C11.4587 13.5457 9.99007 12.5428 9.05 11.11C8.99687 11.0313 8.92287 10.9691 8.8363 10.9302C8.74974 10.8914 8.65405 10.8774 8.56 10.89C8.46547 10.9044 8.37723 10.9462 8.30615 11.0101C8.23508 11.0741 8.18427 11.1575 8.16 11.25C7.68934 12.9155 6.65785 14.3674 5.24 15.36C5.16566 15.4119 5.10685 15.4831 5.06986 15.5659C5.03287 15.6487 5.01909 15.74 5.03 15.83C5.18845 17.646 6.04911 19.3286 7.42894 20.52C8.80877 21.7113 10.5989 22.3173 12.4187 22.2092C14.2384 22.1011 15.9442 21.2873 17.1733 19.941C18.4023 18.5947 19.0577 16.822 19 15ZM12 21C10.5814 21.0009 9.20836 20.4992 8.12459 19.5838C7.04082 18.6685 6.31643 17.3987 6.08 16C7.30501 15.0728 8.25263 13.8277 8.82 12.4C9.9204 13.6767 11.4193 14.545 13.0742 14.8643C14.7292 15.1837 16.4435 14.9356 17.94 14.16C18.0602 15.0103 17.9965 15.8766 17.7531 16.7002C17.5098 17.5239 17.0924 18.2856 16.5293 18.9341C15.9662 19.5825 15.2704 20.1025 14.489 20.4589C13.7076 20.8153 12.8588 20.9998 12 21Z" fill="black"/>
<path d="M9.5 17C9.77614 17 10 16.7761 10 16.5C10 16.2239 9.77614 16 9.5 16C9.22386 16 9 16.2239 9 16.5C9 16.7761 9.22386 17 9.5 17Z" fill="black"/>
<path d="M14.5 17C14.7761 17 15 16.7761 15 16.5C15 16.2239 14.7761 16 14.5 16C14.2239 16 14 16.2239 14 16.5C14 16.7761 14.2239 17 14.5 17Z" fill="black"/>
<path d="M21.86 5.15004C20.5771 3.83409 19.0438 2.78825 17.3504 2.07416C15.657 1.36007 13.8378 0.992187 12 0.992188C10.1622 0.992187 8.34298 1.36007 6.64959 2.07416C4.95619 2.78825 3.42287 3.83409 2.13999 5.15004C2.05983 5.24129 2.01562 5.35859 2.01562 5.48004C2.01562 5.6015 2.05983 5.7188 2.13999 5.81004C3.17356 7.26659 4.08659 8.80503 4.86999 10.41C4.09814 11.4129 3.49366 12.5341 3.07999 13.73C2.85793 14.4706 2.70725 15.2308 2.62999 16C2.62999 16.22 2.62999 16.45 2.54999 16.67L2.48999 17.08C2.31475 17.9018 2.2843 18.7478 2.39999 19.58C2.5154 20.1322 2.74035 20.6557 3.06155 21.1194C3.38274 21.5832 3.79365 21.9778 4.26999 22.28C5.19752 22.8236 6.26751 23.0745 7.33999 23H7.49999C7.6326 23 7.75978 22.9474 7.85355 22.8536C7.94731 22.7598 7.99999 22.6327 7.99999 22.5C7.99999 22.3674 7.94731 22.2403 7.85355 22.1465C7.75978 22.0527 7.6326 22 7.49999 22C6.56618 22.0888 5.62757 21.8899 4.80999 21.43C4.44889 21.1999 4.1373 20.9001 3.89348 20.5481C3.64966 20.1961 3.47849 19.799 3.38999 19.38C3.29166 18.6571 3.32213 17.9224 3.47999 17.21L3.53999 16.8C3.53999 16.57 3.59999 16.34 3.61999 16.11C3.68027 15.3964 3.8075 14.6899 3.99999 14C4.39634 12.8657 4.97751 11.8048 5.71999 10.86C9.82228 9.72017 14.1577 9.72017 18.26 10.86C19.0095 11.8033 19.5975 12.8644 20 14C20.194 14.6798 20.3246 15.3761 20.39 16.08C20.39 16.31 20.44 16.54 20.47 16.77L20.53 17.18C20.6879 17.8924 20.7183 18.6271 20.62 19.35C20.5315 19.769 20.3603 20.1661 20.1165 20.5181C19.8727 20.8701 19.5611 21.1699 19.2 21.4C18.4364 21.8391 17.5582 22.0377 16.68 21.97C16.6234 21.9652 16.5666 21.9652 16.51 21.97C16.3774 21.97 16.2502 22.0227 16.1564 22.1165C16.0627 22.2103 16.01 22.3374 16.01 22.47C16.01 22.6027 16.0627 22.7298 16.1564 22.8236C16.2502 22.9174 16.3774 22.97 16.51 22.97H16.67C17.7435 23.0415 18.8136 22.7871 19.74 22.24C20.2163 21.9378 20.6272 21.5432 20.9484 21.0794C21.2696 20.6157 21.4946 20.0922 21.61 19.54C21.7257 18.7078 21.6952 17.8618 21.52 17.04L21.46 16.63C21.46 16.41 21.41 16.18 21.38 15.96C21.3231 15.2065 21.1959 14.4599 21 13.73C20.5863 12.5341 19.9818 11.4129 19.21 10.41C19.9895 8.80294 20.9027 7.26419 21.94 5.81004C22.0099 5.70935 22.0403 5.5865 22.0256 5.46482C22.0108 5.34315 21.9519 5.23113 21.86 5.15004ZM18.31 9.86004C14.1765 8.75005 9.82344 8.75005 5.68999 9.86004C4.94089 8.3701 4.09578 6.9304 3.15999 5.55004C5.53658 3.26688 8.70438 1.99178 12 1.99178C15.2956 1.99178 18.4634 3.26688 20.84 5.55004C19.9005 6.92805 19.0552 8.368 18.31 9.86004Z" fill="black"/>
<path d="M11.5 4V5H10.5C10.3674 5 10.2402 5.05268 10.1464 5.14645C10.0527 5.24021 10 5.36739 10 5.5C10 5.63261 10.0527 5.75979 10.1464 5.85355C10.2402 5.94732 10.3674 6 10.5 6H11.5V7C11.5 7.13261 11.5527 7.25979 11.6464 7.35355C11.7402 7.44732 11.8674 7.5 12 7.5C12.1326 7.5 12.2598 7.44732 12.3536 7.35355C12.4473 7.25979 12.5 7.13261 12.5 7V6H13.5C13.6326 6 13.7598 5.94732 13.8536 5.85355C13.9473 5.75979 14 5.63261 14 5.5C14 5.36739 13.9473 5.24021 13.8536 5.14645C13.7598 5.05268 13.6326 5 13.5 5H12.5V4C12.5 3.86739 12.4473 3.74021 12.3536 3.64645C12.2598 3.55268 12.1326 3.5 12 3.5C11.8674 3.5 11.7402 3.55268 11.6464 3.64645C11.5527 3.74021 11.5 3.86739 11.5 4Z" fill="black"/>
</svg>
