<svg xmlns="http://www.w3.org/2000/svg" width="48" height="48" fill="none" viewBox="0 0 48 48">
    <circle cx="24" cy="24" r="24" fill="#C8FBFF"/>
    <path fill="#004171" d="M31 27c-.003-.587-.08-1.172-.23-1.74-.017-.077-.054-.15-.106-.209-.053-.059-.12-.104-.194-.131-.078-.029-.163-.037-.246-.023-.082.015-.16.05-.224.103-1.44.93-3.188 1.254-4.865.9-1.676-.354-3.145-1.357-4.085-2.79-.053-.079-.127-.14-.214-.18-.086-.039-.182-.053-.276-.04-.095.014-.183.056-.254.12-.07.064-.122.147-.146.24-.47 1.666-1.502 3.117-2.92 4.11-.074.052-.133.123-.17.206-.037.083-.05.174-.04.264.158 1.816 1.02 3.499 2.399 4.69 1.38 1.191 3.17 1.797 4.99 1.69 1.82-.109 3.525-.923 4.754-2.269C30.403 30.595 31.058 28.822 31 27zm-7 6c-1.419 0-2.792-.5-3.875-1.416-1.084-.915-1.809-2.185-2.045-3.584 1.225-.927 2.173-2.172 2.74-3.6 1.1 1.277 2.6 2.145 4.254 2.464 1.655.32 3.37.072 4.866-.704.12.85.056 1.717-.187 2.54-.243.824-.66 1.586-1.224 2.234-.563.648-1.259 1.168-2.04 1.525-.781.356-1.63.54-2.489.541z"/>
    <path fill="#004171" d="M21.5 29c.276 0 .5-.224.5-.5s-.224-.5-.5-.5-.5.224-.5.5.224.5.5.5zM26.5 29c.276 0 .5-.224.5-.5s-.224-.5-.5-.5-.5.224-.5.5.224.5.5.5z"/>
    <path fill="#004171" d="M33.86 17.15c-1.283-1.316-2.816-2.362-4.51-3.076-1.693-.714-3.512-1.082-5.35-1.082-1.838 0-3.657.368-5.35 1.082-1.694.714-3.227 1.76-4.51 3.076-.08.091-.124.209-.124.33 0 .122.044.239.124.33 1.034 1.457 1.947 2.995 2.73 4.6-.772 1.003-1.376 2.124-1.79 3.32-.222.74-.373 1.5-.45 2.27 0 .22 0 .45-.08.67l-.06.41c-.175.822-.206 1.668-.09 2.5.115.552.34 1.076.662 1.54.32.463.732.858 1.208 1.16.928.544 1.997.794 3.07.72h.16c.133 0 .26-.053.354-.146.093-.094.146-.221.146-.354 0-.133-.053-.26-.146-.353-.094-.094-.221-.147-.354-.147-.934.089-1.872-.11-2.69-.57-.361-.23-.673-.53-.916-.882-.244-.352-.415-.749-.504-1.168-.098-.723-.068-1.458.09-2.17l.06-.41c0-.23.06-.46.08-.69.06-.714.188-1.42.38-2.11.396-1.134.977-2.195 1.72-3.14 4.102-1.14 8.438-1.14 12.54 0 .75.943 1.337 2.004 1.74 3.14.194.68.325 1.376.39 2.08 0 .23.05.46.08.69l.06.41c.158.712.188 1.447.09 2.17-.088.419-.26.816-.503 1.168-.244.352-.556.652-.917.882-.764.44-1.642.638-2.52.57-.057-.005-.113-.005-.17 0-.133 0-.26.053-.354.147-.093.093-.146.22-.146.353 0 .133.053.26.146.354.094.093.221.146.354.146h.16c1.073.072 2.144-.183 3.07-.73.476-.302.887-.697 1.208-1.16.322-.464.547-.988.662-1.54.116-.832.085-1.678-.09-2.5l-.06-.41c0-.22-.05-.45-.08-.67-.057-.754-.184-1.5-.38-2.23-.414-1.196-1.018-2.317-1.79-3.32.78-1.607 1.693-3.146 2.73-4.6.07-.1.1-.223.086-.345-.015-.122-.074-.234-.166-.315zm-3.55 4.71c-4.133-1.11-8.487-1.11-12.62 0-.75-1.49-1.594-2.93-2.53-4.31 2.377-2.283 5.544-3.558 8.84-3.558 3.296 0 6.463 1.275 8.84 3.558-.94 1.378-1.785 2.818-2.53 4.31z"/>
    <path fill="#004171" d="M23.5 16v1h-1c-.133 0-.26.053-.354.146-.093.094-.146.221-.146.354 0 .133.053.26.146.354.094.093.221.146.354.146h1v1c0 .133.053.26.146.354.094.093.221.146.354.146.133 0 .26-.053.354-.146.093-.094.146-.221.146-.354v-1h1c.133 0 .26-.053.354-.146.093-.094.146-.221.146-.354 0-.133-.053-.26-.146-.354-.094-.093-.221-.146-.354-.146h-1v-1c0-.133-.053-.26-.146-.354-.094-.093-.221-.146-.354-.146-.133 0-.26.053-.354.146-.093.094-.146.221-.146.354z"/>
</svg>
