<svg width="21" height="24" viewBox="0 0 21 24" fill="none" xmlns="http://www.w3.org/2000/svg">
<path d="M19.86 5.15C18.5771 3.83404 17.0438 2.7882 15.3504 2.07411C13.657 1.36003 11.8378 0.992142 9.99999 0.992142C8.16219 0.992142 6.34298 1.36003 4.64959 2.07411C2.95619 2.7882 1.42287 3.83404 0.139992 5.15C0.0598326 5.24124 0.015625 5.35854 0.015625 5.48C0.015625 5.60145 0.0598326 5.71875 0.139992 5.81C1.17356 7.26655 2.08659 8.80498 2.86999 10.41C2.09814 11.4129 1.49366 12.534 1.07999 13.73C0.857932 14.4706 0.707245 15.2307 0.629992 16C0.629992 16.22 0.629992 16.45 0.549992 16.67L0.489992 17.08C0.314752 17.9017 0.284295 18.7478 0.399992 19.58C0.515403 20.1322 0.740354 20.6556 1.06155 21.1194C1.38274 21.5831 1.79365 21.9778 2.26999 22.28C3.19752 22.8236 4.26751 23.0745 5.33999 23H5.49999C5.6326 23 5.75978 22.9473 5.85355 22.8536C5.94731 22.7598 5.99999 22.6326 5.99999 22.5C5.99999 22.3674 5.94731 22.2402 5.85355 22.1464C5.75978 22.0527 5.6326 22 5.49999 22C4.56618 22.0887 3.62757 21.8898 2.80999 21.43C2.44889 21.1999 2.1373 20.9 1.89348 20.548C1.64966 20.196 1.47849 19.799 1.38999 19.38C1.29166 18.657 1.32213 17.9223 1.47999 17.21L1.53999 16.8C1.53999 16.57 1.59999 16.34 1.61999 16.11C1.68027 15.3963 1.8075 14.6899 1.99999 14C2.39634 12.8657 2.97751 11.8047 3.71999 10.86C7.82228 9.72012 12.1577 9.72012 16.26 10.86C17.0095 11.8033 17.5975 12.8644 18 14C18.194 14.6798 18.3246 15.3761 18.39 16.08C18.39 16.31 18.44 16.54 18.47 16.77L18.53 17.18C18.6879 17.8923 18.7183 18.627 18.62 19.35C18.5315 19.769 18.3603 20.166 18.1165 20.518C17.8727 20.87 17.5611 21.1699 17.2 21.4C16.4364 21.8391 15.5582 22.0377 14.68 21.97C14.6234 21.9652 14.5666 21.9652 14.51 21.97C14.3774 21.97 14.2502 22.0227 14.1564 22.1164C14.0627 22.2102 14.01 22.3374 14.01 22.47C14.01 22.6026 14.0627 22.7298 14.1564 22.8236C14.2502 22.9173 14.3774 22.97 14.51 22.97H14.67C15.7435 23.0415 16.8136 22.787 17.74 22.24C18.2163 21.9378 18.6272 21.5431 18.9484 21.0794C19.2696 20.6156 19.4946 20.0922 19.61 19.54C19.7257 18.7078 19.6952 17.8617 19.52 17.04L19.46 16.63C19.46 16.41 19.41 16.18 19.38 15.96C19.3231 15.2064 19.1959 14.4599 19 13.73C18.5863 12.534 17.9818 11.4129 17.21 10.41C17.9895 8.80289 18.9027 7.26415 19.94 5.81C20.0099 5.7093 20.0403 5.58645 20.0256 5.46478C20.0108 5.3431 19.9519 5.23108 19.86 5.15ZM16.31 9.86C12.1765 8.75001 7.82344 8.75001 3.68999 9.86C2.94089 8.37005 2.09578 6.93035 1.15999 5.55C3.53658 3.26683 6.70438 1.99174 9.99999 1.99174C13.2956 1.99174 16.4634 3.26683 18.84 5.55C17.9005 6.928 17.0552 8.36795 16.31 9.86Z" fill="#004171"/>
</svg>
