<svg xmlns="http://www.w3.org/2000/svg" width="81" height="32" fill="none" viewBox="0 0 81 32">
    <rect width="81" height="32" fill="#42BA85" rx="16"/>
    <path fill="#fff" d="M13.894 21.112c-.99 0-1.88-.215-2.674-.644-.793-.439-1.419-1.04-1.876-1.806-.448-.765-.672-1.62-.672-2.562 0-.943.224-1.797.672-2.562.457-.765 1.083-1.363 1.876-1.792.793-.439 1.685-.658 2.674-.658.98 0 1.867.22 2.66.658.793.43 1.414 1.027 1.862 1.792.448.756.672 1.61.672 2.562 0 .952-.224 1.81-.672 2.576-.448.756-1.069 1.353-1.862 1.792-.793.43-1.68.644-2.66.644zm0-1.246c.719 0 1.363-.163 1.932-.49.579-.327 1.031-.775 1.358-1.344.336-.579.504-1.223.504-1.932 0-.71-.168-1.349-.504-1.918-.327-.579-.78-1.031-1.358-1.358-.57-.327-1.213-.49-1.932-.49-.719 0-1.372.163-1.96.49-.579.327-1.036.78-1.372 1.358-.327.57-.49 1.209-.49 1.918 0 .71.163 1.353.49 1.932.336.57.793 1.017 1.372 1.344.588.327 1.241.49 1.96.49zm10.6-6.356c.942 0 1.69.275 2.24.826.56.541.84 1.34.84 2.394V21H26.23v-4.116c0-.719-.173-1.26-.518-1.624-.346-.364-.84-.546-1.484-.546-.728 0-1.302.215-1.722.644-.42.42-.63 1.027-.63 1.82V21h-1.344v-7.42h1.288v1.12c.27-.383.634-.677 1.092-.882.466-.205.994-.308 1.582-.308zm5.067-2.898h1.344V21h-1.344V10.612zm3.41 2.968h1.344V21h-1.344v-7.42zm.672-1.428c-.261 0-.48-.084-.658-.252-.168-.168-.252-.373-.252-.616s.084-.448.252-.616c.178-.177.397-.266.658-.266.262 0 .476.084.644.252.178.159.266.36.266.602 0 .252-.088.467-.266.644-.168.168-.382.252-.644.252zm6.7 1.358c.943 0 1.69.275 2.24.826.56.541.84 1.34.84 2.394V21H42.08v-4.116c0-.719-.172-1.26-.518-1.624-.345-.364-.84-.546-1.484-.546-.728 0-1.302.215-1.722.644-.42.42-.63 1.027-.63 1.82V21h-1.344v-7.42h1.288v1.12c.271-.383.635-.677 1.092-.882.467-.205.994-.308 1.582-.308zm11.815 3.822c0 .103-.01.238-.028.406h-6.02c.084.653.368 1.18.854 1.582.494.392 1.106.588 1.834.588.886 0 1.6-.299 2.142-.896l.742.868c-.336.392-.756.69-1.26.896-.495.205-1.05.308-1.666.308-.784 0-1.48-.159-2.086-.476-.607-.327-1.078-.78-1.414-1.358-.327-.579-.49-1.232-.49-1.96 0-.719.158-1.367.476-1.946.326-.579.77-1.027 1.33-1.344.57-.327 1.208-.49 1.918-.49s1.34.163 1.89.49c.56.317.994.765 1.302 1.344.317.579.476 1.241.476 1.988zm-3.668-2.688c-.644 0-1.186.196-1.624.588-.43.392-.682.905-.756 1.54h4.76c-.075-.625-.332-1.134-.77-1.526-.43-.401-.966-.602-1.61-.602z"/>
    <path stroke="#fff" stroke-linecap="round" stroke-linejoin="round" d="M59.334 10.333L70 21M59.334 21L70 10.333"/>
</svg>
