<svg width="81" height="77" viewBox="0 0 81 77" fill="none" xmlns="http://www.w3.org/2000/svg">
<path d="M67.3931 59.9251L23.6198 75.857C22.3922 76.303 21.0303 75.6714 20.5842 74.4398L1.14303 21.0229C0.696969 19.7953 1.32856 18.4334 2.56016 17.9874L14.3472 13.6965C14.8802 13.5031 15.4604 13.507 15.9894 13.7044L21.1605 15.6505C21.6895 15.8478 22.2737 15.8518 22.8027 15.6584L47.944 6.50817C49.1716 6.06211 50.5335 6.6937 50.9796 7.92531L68.8023 56.8895C69.2563 58.1171 68.6207 59.475 67.3931 59.9251Z" fill="white"/>
<path d="M68.8072 56.8895L50.9884 7.92536C50.7792 7.35298 50.3686 6.91087 49.8712 6.64639L48.4304 6.39375C48.2725 6.41744 48.1107 6.45691 47.9528 6.51218L35.5025 11.0399L27.0945 58.7448C26.7155 60.8922 28.1484 62.941 30.2958 63.316L49.0067 66.616L67.394 59.9251C68.6216 59.4751 69.2572 58.1172 68.8072 56.8895Z" fill="#BCEBFF"/>
<path d="M16.6128 63.5251L4.65601 30.6705" stroke="#30446D" strokeWidth="2" stroke-linecap="round" stroke-linejoin="round"/>
<path d="M18.117 67.6581L17.738 66.616" stroke="#30446D" strokeWidth="2" stroke-linecap="round" stroke-linejoin="round"/>
<path d="M2.24042 24.0348L1.14303 21.0229C0.696969 19.7953 1.32856 18.4334 2.56016 17.9874L14.3472 13.6965C14.8802 13.5031 15.4604 13.507 15.9894 13.7044L21.1605 15.6505C21.6895 15.8478 22.2737 15.8518 22.8027 15.6584L47.944 6.50817C49.1717 6.06211 50.5335 6.6937 50.9796 7.92531L68.8023 56.8895C69.2484 58.1171 68.6168 59.479 67.3852 59.9251L23.6198 75.857C22.3922 76.303 21.0303 75.6714 20.5842 74.4398" stroke="#30446D" strokeWidth="2" stroke-linecap="round" stroke-linejoin="round"/>
<path d="M30.6981 18.6704L49.8393 11.7032C51.067 11.2571 52.4288 11.8887 52.8749 13.1203" stroke="#30446D" strokeWidth="2" stroke-linecap="round" stroke-linejoin="round"/>
<path d="M4.65621 30.6705C4.21015 29.4429 4.84174 28.081 6.07335 27.635L25.2501 20.6559" stroke="#30446D" strokeWidth="2" stroke-linecap="round" stroke-linejoin="round"/>
<path opacity="0.75" d="M66.4068 66.2253L27.5323 59.3725C25.3849 58.9935 23.9519 56.9448 24.3309 54.8013L33.2403 4.26214C33.6193 2.11473 35.668 0.681808 37.8114 1.06076L76.6859 7.91353C78.8333 8.29249 80.2663 10.3412 79.8873 12.4847L70.9779 63.0239C70.599 65.1713 68.5542 66.6042 66.4068 66.2253Z" fill="#42BA85" stroke="#42BA85" strokeWidth="2" stroke-linecap="round" stroke-linejoin="round"/>
<path d="M54.8759 29.8219L54.647 38.5023" stroke="white" strokeWidth="2" stroke-linecap="round" stroke-linejoin="round"/>
<path d="M58.6456 24.5245L56.0364 27.1298" stroke="white" strokeWidth="2" stroke-linecap="round" stroke-linejoin="round"/>
<path d="M63.6279 24.6547L61.4094 23.806" stroke="white" strokeWidth="2" stroke-linecap="round" stroke-linejoin="round"/>
<path d="M62.024 37.8352L57.9344 40.1642" stroke="white" strokeWidth="2" stroke-linecap="round" stroke-linejoin="round"/>
<path d="M65.6688 33.1812L64.0425 35.6878" stroke="white" strokeWidth="2" stroke-linecap="round" stroke-linejoin="round"/>
<path d="M66.268 28.3692L66.493 30.4811" stroke="white" strokeWidth="2" stroke-linecap="round" stroke-linejoin="round"/>
<path d="M49.6919 29.0838L51.5985 37.7129" stroke="white" strokeWidth="2" stroke-linecap="round" stroke-linejoin="round"/>
<path d="M50.0084 19.7796L49.6373 26.2534" stroke="white" strokeWidth="2" stroke-linecap="round" stroke-linejoin="round"/>
<path d="M52.6803 12.7729L51.0066 16.6177" stroke="white" strokeWidth="2" stroke-linecap="round" stroke-linejoin="round"/>
<path d="M45.5288 30.1732L48.6433 37.5905" stroke="white" strokeWidth="2" stroke-linecap="round" stroke-linejoin="round"/>
<path d="M45.2517 20.652L45.3267 27.3587" stroke="white" strokeWidth="2" stroke-linecap="round" stroke-linejoin="round"/>
<path d="M46.515 13.4835L45.4058 17.5612" stroke="white" strokeWidth="2" stroke-linecap="round" stroke-linejoin="round"/>
<path d="M41.7301 31.8667L45.5512 38.4116" stroke="white" strokeWidth="2" stroke-linecap="round" stroke-linejoin="round"/>
<path d="M40.1716 24.6665L40.8585 29.2061" stroke="white" strokeWidth="2" stroke-linecap="round" stroke-linejoin="round"/>
<path d="M40.8776 18.9308L40.3723 21.7848" stroke="white" strokeWidth="2" stroke-linecap="round" stroke-linejoin="round"/>
<path d="M56.5289 43.1788C56.7775 41.7683 54.6921 40.2216 51.871 39.7243C49.0499 39.227 46.5613 39.9674 46.3127 41.3779C46.064 42.7885 48.1494 44.3351 50.9705 44.8324C53.7917 45.3297 56.2802 44.5894 56.5289 43.1788Z" fill="white"/>
<path d="M46.8306 45.9354L45.599 52.9342" stroke="white" strokeWidth="2" stroke-linecap="round" stroke-linejoin="round"/>
<path d="M49.7092 53.6605L53.5975 54.3473L54.8607 47.1906C53.633 47.2774 52.2869 47.2182 50.8856 46.9932L49.7092 53.6605Z" fill="white" stroke="white" strokeWidth="2" stroke-linecap="round" stroke-linejoin="round"/>
<path d="M67.7754 58.4489L67.0885 62.3371L63.2042 61.6542" stroke="white" strokeWidth="2" stroke-linecap="round" stroke-linejoin="round"/>
<path d="M36.4419 8.83332L37.1288 4.94508L41.017 5.63194" stroke="white" strokeWidth="2" stroke-linecap="round" stroke-linejoin="round"/>
<path d="M72.1139 11.115L76.0021 11.8018L75.3153 15.6861" stroke="white" strokeWidth="2" stroke-linecap="round" stroke-linejoin="round"/>
<path d="M32.1023 56.1671L28.2141 55.4842L28.901 51.5959" stroke="white" strokeWidth="2" stroke-linecap="round" stroke-linejoin="round"/>
</svg>
