<svg width="68" height="77" viewBox="0 0 68 77" fill="none" xmlns="http://www.w3.org/2000/svg">
<path d="M61.5769 11H48.0935C46.0137 5.175 40.4053 1 33.8125 1C27.2197 1 21.6113 5.175 19.5315 11H6.04808C3.26154 11 1 13.24 1 16V71C1 73.76 3.26154 76 6.04808 76H61.5769C64.3635 76 66.625 73.76 66.625 71V16C66.625 13.24 64.3635 11 61.5769 11Z" fill="white"/>
<path d="M54.1769 33.745L49.0077 29.545C47.2206 28.095 44.5149 29.08 44.106 31.33L38.861 60.115C38.4319 62.465 39.7596 64.85 42.1019 65.695C44.5552 66.58 47.2509 65.46 48.3665 63.185L56.8574 45.84C58.8968 41.68 57.7863 36.68 54.1769 33.745Z" fill="#BCEBFF"/>
<path d="M13.4497 33.745L18.6189 29.545C20.406 28.095 23.1117 29.08 23.5206 31.33L28.7706 60.11C29.1997 62.46 27.8721 64.845 25.5298 65.69C23.0764 66.575 20.3807 65.455 19.2651 63.18L10.7742 45.835C8.72975 41.68 9.84033 36.68 13.4497 33.745Z" fill="#BCEBFF"/>
<path d="M13.9432 52.335L10.7629 45.84C8.72855 41.68 9.83407 36.68 13.4434 33.745L18.6127 29.545C20.3997 28.095 23.1055 29.08 23.5144 31.33" stroke="#30446D" strokeWidth="2" stroke-linecap="round" stroke-linejoin="round"/>
<path d="M11.9341 11H6.04808C3.26154 11 1 13.24 1 16V71C1 73.76 3.26154 76 6.04808 76H61.5769C64.3635 76 66.625 73.76 66.625 71V16C66.625 13.24 64.3635 11 61.5769 11H48.0935C46.0137 5.175 40.4053 1 33.8125 1C27.2197 1 21.6113 5.175 19.5315 11" stroke="#30446D" strokeWidth="2" stroke-linecap="round" stroke-linejoin="round"/>
<path d="M39.8656 54.61L38.861 60.115C38.4319 62.465 39.7596 64.85 42.1019 65.695C44.5552 66.58 47.2509 65.46 48.3665 63.185L56.8574 45.84C58.8918 41.68 57.7863 36.68 54.1769 33.745" stroke="#30446D" strokeWidth="2" stroke-linecap="round" stroke-linejoin="round"/>
<path d="M33.8125 5.99994C28.2343 5.99994 23.7163 10.4749 23.7163 15.9999C23.7163 17.8249 24.2161 19.5299 25.0793 20.9999H42.5507C43.4139 19.5299 43.9137 17.8249 43.9137 15.9999C43.9086 10.4749 39.3906 5.99994 33.8125 5.99994Z" fill="#42BA85"/>
<path d="M33.8123 18C34.9275 18 35.8316 17.1046 35.8316 16C35.8316 14.8954 34.9275 14 33.8123 14C32.6971 14 31.7931 14.8954 31.7931 16C31.7931 17.1046 32.6971 18 33.8123 18Z" fill="#30446D"/>
<path d="M33.8118 16.0002L30.2125 12.4352" stroke="#30446D" strokeWidth="2" stroke-linecap="round" stroke-linejoin="round"/>
<path d="M42.2629 10.5249C40.4608 7.79994 37.3461 5.99994 33.8125 5.99994C28.2343 5.99994 23.7163 10.4749 23.7163 15.9999C23.7163 17.8249 24.2161 19.5299 25.0793 20.9999H29.7992" stroke="#30446D" strokeWidth="2" stroke-linecap="round" stroke-linejoin="round"/>
</svg>
