<svg width="24" height="24" viewBox="0 0 24 24" fill="none" xmlns="http://www.w3.org/2000/svg">
<path d="M11.06 14.36C11.0401 14.2274 10.9684 14.1081 10.8605 14.0284C10.7527 13.9487 10.6176 13.9151 10.485 13.935C10.3524 13.9549 10.2331 14.0266 10.1534 14.1345C10.0737 14.2423 10.0401 14.3774 10.06 14.51C10.1748 15.2084 10.2482 15.9129 10.28 16.62C10.3819 17.3717 10.2853 18.1371 10 18.84C9.87542 19.1373 9.66546 19.391 9.39668 19.569C9.1279 19.747 8.81238 19.8413 8.49001 19.84C8.12534 19.8515 7.77433 19.9813 7.49001 20.21C6.12001 21.53 4.77001 22.11 3.69001 21.84C2.45001 21.54 2.15001 19.84 2.08001 19.17C1.79001 16.37 2.85001 13.27 3.82001 11.1C4.35224 9.89899 5.02349 8.76458 5.82001 7.71998C6.29001 7.08998 7.12001 5.99998 7.93001 6.07998C9.36001 6.23998 9.51001 7.99998 9.56001 10.23V10.51C9.56001 10.6426 9.61269 10.7698 9.70646 10.8635C9.80023 10.9573 9.9274 11.01 10.06 11.01C10.1926 11.01 10.3198 10.9573 10.4136 10.8635C10.5073 10.7698 10.56 10.6426 10.56 10.51V10.23C10.56 8.17998 10.46 5.36998 8.04001 5.10998C6.68001 4.95998 5.62001 6.34998 5.04001 7.10998C4.18509 8.21652 3.46033 9.41775 2.88001 10.69C1.88001 12.93 0.740012 16.23 1.05001 19.29C1.25001 21.22 2.12001 22.5 3.42001 22.82C3.68206 22.8833 3.95043 22.9169 4.22001 22.92C5.74166 22.7848 7.15272 22.0685 8.16001 20.92C8.30009 20.8624 8.4488 20.8286 8.60001 20.82C9.08164 20.8054 9.54956 20.6562 9.95076 20.3893C10.352 20.1224 10.6704 19.7485 10.87 19.31C11.2607 18.4529 11.4128 17.5063 11.31 16.57C11.268 15.8292 11.1846 15.0914 11.06 14.36Z" fill="#005D8D"/>
<path d="M21.14 10.7V10.63C20.5654 9.36529 19.8473 8.17079 19 7.07003C18.39 6.27003 17.34 4.95003 16 5.07003C13.56 5.34003 13.51 8.15003 13.47 10.21V10.47C13.4699 10.6019 13.5209 10.7287 13.6122 10.8238C13.7036 10.9188 13.8282 10.9749 13.96 10.98C14.0263 10.9842 14.0929 10.9745 14.1553 10.9517C14.2177 10.9288 14.2747 10.8932 14.3227 10.8471C14.3706 10.801 14.4085 10.7455 14.4338 10.684C14.4592 10.6226 14.4715 10.5565 14.47 10.49V10.23C14.47 7.96003 14.66 6.23003 16.1 6.06003C16.88 5.98003 17.74 7.06003 18.19 7.66003C18.9862 8.70483 19.6574 9.83921 20.19 11.04C21.4695 13.5575 22.0921 16.3575 22 19.18C21.93 19.88 21.62 21.55 20.39 21.85C18.85 22.23 17.23 20.85 16.6 20.22C16.3146 19.9933 15.9642 19.8636 15.6 19.85C15.2776 19.8513 14.9621 19.757 14.6933 19.579C14.4245 19.401 14.2146 19.1473 14.09 18.85C13.8014 18.1549 13.6914 17.3986 13.77 16.65C13.8021 15.9534 13.8722 15.259 13.98 14.57C13.9986 14.4374 13.9637 14.3029 13.883 14.196C13.8024 14.0891 13.6826 14.0186 13.55 14C13.4174 13.9815 13.2828 14.0163 13.1759 14.097C13.069 14.1776 12.9986 14.2974 12.98 14.43C12.8639 15.1517 12.7905 15.8797 12.76 16.61C12.6628 17.5397 12.8147 18.4784 13.2 19.33C13.4013 19.7694 13.7215 20.1436 14.1244 20.4105C14.5274 20.6773 14.9969 20.8261 15.48 20.84C15.6314 20.8472 15.7803 20.8811 15.92 20.94C16.9396 22.0725 18.344 22.7854 19.86 22.94C20.1265 22.9407 20.392 22.9071 20.65 22.84C21.95 22.52 22.82 21.24 23.02 19.31C23.1245 16.3279 22.478 13.3672 21.14 10.7Z" fill="#005D8D"/>
<path d="M14 13H15.5C15.6326 13 15.7598 12.9473 15.8536 12.8536C15.9473 12.7598 16 12.6326 16 12.5C16 12.3674 15.9473 12.2402 15.8536 12.1465C15.7598 12.0527 15.6326 12 15.5 12H14C13.6174 11.998 13.25 11.8499 12.973 11.5859C12.696 11.3219 12.5304 10.9621 12.51 10.58C12.51 10.58 12.51 10.53 12.51 10.5V1.58002C12.51 1.44741 12.4573 1.32023 12.3636 1.22646C12.2698 1.1327 12.1426 1.08002 12.01 1.08002C11.8782 1.08258 11.7525 1.13608 11.6593 1.2293C11.5661 1.32252 11.5126 1.44821 11.51 1.58002V10.5C11.51 10.5 11.51 10.56 11.51 10.58C11.4919 10.9664 11.3242 11.3306 11.0424 11.5956C10.7606 11.8606 10.3868 12.0056 10 12H8.48001C8.3474 12 8.22023 12.0527 8.12646 12.1465C8.03269 12.2402 7.98001 12.3674 7.98001 12.5C7.98001 12.6326 8.03269 12.7598 8.12646 12.8536C8.22023 12.9473 8.3474 13 8.48001 13H10C10.3881 13 10.7709 12.9097 11.118 12.7361C11.4652 12.5625 11.7671 12.3105 12 12C12.2334 12.3099 12.5355 12.5615 12.8825 12.735C13.2295 12.9085 13.612 12.9992 14 13Z" fill="#005D8D"/>
</svg>
