<svg width="180" height="143" viewBox="0 0 180 143" fill="none" xmlns="http://www.w3.org/2000/svg">
<path d="M120.479 44.3088H111.852C110.8 44.3088 109.947 45.2467 109.947 46.4035C109.947 47.5603 110.8 48.4982 111.852 48.4982H120.479C123.629 48.4982 126.191 51.3172 126.191 54.7824V138.671C126.191 138.748 126.135 138.811 126.064 138.811H104.868V130.432H114.596C116.756 130.432 118.522 128.498 118.532 126.122L118.574 115.808C118.594 113.441 116.784 111.447 114.639 111.459H104.868V103.201H114.596C116.756 103.201 118.522 101.268 118.532 98.892L118.574 88.5773C118.594 86.2103 116.784 84.2172 114.639 84.2287H104.868V75.8498H114.596C116.756 75.8498 118.522 73.9165 118.532 71.5402L118.574 61.2255C118.594 58.8587 116.784 56.8654 114.639 56.8769H104.868V35.1914C104.868 29.4161 100.597 24.7178 95.3469 24.7178H89.3009C88.3264 10.9085 77.7997 0 65 0C52.2003 0 41.6736 10.9085 40.6991 24.7178H34.5313C29.281 24.7178 25.0098 29.4161 25.0098 35.1914V44.3088H9.52148C4.27121 44.3088 0 49.0071 0 54.7824V138.671C0 141.058 1.76541 143 3.93555 143H126.064C128.235 143 130 141.058 130 138.671V54.7824C130 49.0071 125.729 44.3088 120.479 44.3088ZM104.868 61.0666H114.639C114.652 61.0666 114.691 61.0666 114.729 61.1076C114.766 61.1487 114.766 61.1923 114.766 61.2065L114.723 71.521C114.723 71.5978 114.666 71.66 114.596 71.66H104.868V61.0666ZM104.868 88.4181H114.639C114.652 88.4181 114.691 88.4181 114.729 88.4592C114.766 88.5002 114.766 88.5441 114.766 88.5583L114.723 98.8728C114.723 98.9493 114.666 99.0119 114.596 99.0119H104.868V88.4181ZM104.868 115.648H114.639C114.652 115.648 114.691 115.648 114.729 115.69C114.766 115.731 114.766 115.774 114.766 115.789L114.723 126.103C114.723 126.18 114.666 126.242 114.596 126.242H104.868V115.648ZM25.0098 126.242H15.4045C15.3337 126.242 15.2778 126.182 15.2775 126.104L15.2344 115.79C15.2344 115.775 15.2341 115.731 15.2714 115.69C15.3085 115.648 15.3484 115.648 15.3613 115.648H25.0098V126.242ZM25.0098 99.0107H15.4045C15.3337 99.0107 15.2778 98.9501 15.2775 98.8725L15.2344 88.5583C15.2344 88.5438 15.2341 88.5002 15.272 88.4583C15.3093 88.417 15.3484 88.417 15.3613 88.417H25.0098V99.0107ZM25.0098 71.6592H15.4045C15.3337 71.6592 15.2778 71.5986 15.2775 71.521L15.2344 61.2068C15.2344 61.1923 15.2341 61.1487 15.272 61.1068C15.3093 61.0655 15.3484 61.0655 15.3613 61.0655H25.0098V71.6592ZM25.0098 56.876H15.3613C13.2079 56.8629 11.4067 58.8618 11.4258 61.2261L11.4689 71.5402C11.4788 73.9159 13.2443 75.8487 15.4045 75.8487H25.0098V84.2276H15.3613C13.2079 84.2144 11.4067 86.2136 11.4258 88.5776L11.4689 98.892C11.4788 101.268 13.2443 103.2 15.4045 103.2H25.0098V111.459H15.3613C13.2067 111.446 11.4067 113.444 11.4258 115.809L11.4689 126.124C11.4786 128.499 13.2443 130.432 15.4045 130.432H25.0098V138.811H3.93555C3.86547 138.811 3.80859 138.748 3.80859 138.671V54.7824C3.80859 51.3172 6.37127 48.4982 9.52148 48.4982H25.0098V56.876ZM65 4.18945C76.3405 4.18945 85.5664 14.338 85.5664 26.8125C85.5664 39.287 76.3405 49.4355 65 49.4355C53.6595 49.4355 44.4336 39.287 44.4336 26.8125C44.4336 14.338 53.6595 4.18945 65 4.18945ZM82.0178 138.811H66.9043V101.923H82.0178V138.811ZM44.1736 97.7332V93.5438H85.8267V97.7332H44.1736ZM101.06 138.811H85.8264V101.923C87.8142 102.049 89.6477 100.45 89.635 98.1522V93.1248C89.635 91.0458 88.0973 89.3543 86.2073 89.3543H43.7927C41.9027 89.3543 40.365 91.0458 40.365 93.1248V98.1522C40.3515 100.354 42.1522 102.152 44.1736 101.923V116.756C44.1736 117.913 45.0262 118.851 46.0779 118.851C47.1296 118.851 47.9822 117.913 47.9822 116.756V101.923H63.0957V138.811H47.9822V126.531C47.9822 125.374 47.1296 124.437 46.0779 124.437C45.0262 124.437 44.1736 125.374 44.1736 126.531V138.811H28.8184V35.1914C28.8184 31.7262 31.381 28.9072 34.5313 28.9072H40.6991C41.6736 42.7165 52.2003 53.625 65 53.625C77.7997 53.625 88.3264 42.7165 89.3009 28.9072H95.3469C98.4971 28.9072 101.06 31.7262 101.06 35.1914V138.811ZM59.2871 33.0967V41.4756C59.2871 43.5547 60.8248 45.2461 62.7148 45.2461H67.2852C69.1752 45.2461 70.7129 43.5547 70.7129 41.4756V33.0967H78.3301C80.2202 33.0967 81.7578 31.4053 81.7578 29.3262V24.2988C81.7578 22.2197 80.2202 20.5283 78.3301 20.5283H70.7129V12.1494C70.7129 10.0703 69.1752 8.37891 67.2852 8.37891H62.7148C60.8248 8.37891 59.2871 10.0703 59.2871 12.1494V20.5283H51.6699C49.7798 20.5283 48.2422 22.2197 48.2422 24.2988V29.3262C48.2422 31.4053 49.7798 33.0967 51.6699 33.0967H59.2871ZM52.0508 24.7178H60.4297C61.8998 24.7178 63.0957 23.4023 63.0957 21.7852V12.5684H66.9043V21.7852C66.9043 23.4023 68.1002 24.7178 69.5703 24.7178H77.9492V28.9072H69.5703C68.1002 28.9072 66.9043 30.2227 66.9043 31.8398V41.0566H63.0957V31.8398C63.0957 30.2227 61.8998 28.9072 60.4297 28.9072H52.0508V24.7178ZM57.3828 124.605C58.4345 124.605 59.2871 123.667 59.2871 122.51V118.223C59.2871 117.066 58.4345 116.128 57.3828 116.128C56.3311 116.128 55.4785 117.066 55.4785 118.223V122.51C55.4785 123.667 56.3311 124.605 57.3828 124.605ZM57.2559 62.0039H40.4229C38.2624 62.0039 36.497 63.9372 36.4873 66.3135L36.4449 76.6276C36.4221 78.9826 38.2304 80.99 40.3805 80.9765H57.2559C59.426 80.9765 61.1914 79.0346 61.1914 76.6474V66.333C61.1914 63.9459 59.426 62.0039 57.2559 62.0039ZM57.3828 76.6474C57.3828 76.7245 57.3259 76.7871 57.2559 76.7871H40.3802C40.3297 76.7944 40.2464 76.7025 40.2533 76.6469L40.2957 66.3322C40.2959 66.2556 40.3528 66.1934 40.4226 66.1934H57.2559C57.3259 66.1934 57.3828 66.2559 57.3828 66.333V76.6474ZM72.6172 124.605C73.6689 124.605 74.5215 123.667 74.5215 122.51V118.223C74.5215 117.066 73.6689 116.128 72.6172 116.128C71.5655 116.128 70.7129 117.066 70.7129 118.223V122.51C70.7129 123.667 71.5655 124.605 72.6172 124.605ZM89.5588 62.0039H72.7441C70.574 62.0039 68.8086 63.9459 68.8086 66.333V76.6474C68.8086 79.0346 70.574 80.9765 72.7441 80.9765H89.5162C91.6764 80.9765 93.4418 79.0433 93.4517 76.667L93.4941 66.3523C93.5144 63.9858 91.7041 61.9925 89.5588 62.0039ZM89.6431 76.648C89.6429 76.7245 89.5857 76.7871 89.5162 76.7871H72.7441C72.6741 76.7871 72.6172 76.7245 72.6172 76.6474V66.333C72.6172 66.2559 72.6741 66.1934 72.7441 66.1934H89.5588C89.5718 66.1934 89.6116 66.1934 89.6487 66.2344C89.6858 66.2755 89.6858 66.319 89.6858 66.3333L89.6431 76.648Z" fill="#004171"/>
<path d="M164 107C164.414 107 164.812 106.835 165.105 106.542C165.398 106.249 165.562 105.852 165.562 105.438V76.5625C165.562 76.1481 165.398 75.7507 165.105 75.4576C164.812 75.1646 164.414 75 164 75C163.586 75 163.188 75.1646 162.895 75.4576C162.602 75.7507 162.438 76.1481 162.438 76.5625V105.438C162.438 105.852 162.602 106.249 162.895 106.542C163.188 106.835 163.586 107 164 107Z" fill="#004171"/>
<path d="M149.562 92.5625H178.438C178.852 92.5625 179.249 92.3979 179.542 92.1049C179.835 91.8118 180 91.4144 180 91C180 90.5856 179.835 90.1882 179.542 89.8951C179.249 89.6021 178.852 89.4375 178.438 89.4375H149.562C149.148 89.4375 148.751 89.6021 148.458 89.8951C148.165 90.1882 148 90.5856 148 91C148 91.4144 148.165 91.8118 148.458 92.1049C148.751 92.3979 149.148 92.5625 149.562 92.5625Z" fill="#004171"/>
</svg>
