<svg width="42" height="55" viewBox="0 0 42 55" fill="none" xmlns="http://www.w3.org/2000/svg">
<path d="M41.9864 39.649C41.9124 39.1042 41.4539 38.695 40.9017 38.6752C38.6188 38.5963 32.7342 37.8962 28.918 32.9435C16.88 17.3284 15.603 9.63672 10.0191 0.55957L0.72998 7.86419C0.72998 7.86419 11.1556 29.142 31.0652 51.8571C31.4178 52.2614 32.0292 52.3131 32.4482 51.9779C32.8673 51.6426 32.9462 51.0361 32.6307 50.6047H32.6405L34.5437 53.1686C34.8593 53.5926 35.4362 53.7208 35.9021 53.4669C36.4543 53.1661 36.6269 52.4561 36.2719 51.936L37.3344 53.4891C37.7067 54.0339 38.4438 54.1868 39.0034 53.8367C39.5951 53.4669 39.7578 52.678 39.3658 52.1036L38.3353 50.5924C38.715 51.1495 39.4768 51.2901 40.0314 50.9055C40.5763 50.5258 40.7143 49.7788 40.3421 49.2291L34.0975 40.0311C34.0975 40.0311 37.1126 41.1331 40.9387 40.9334C41.5895 40.8964 42.0752 40.3023 41.9864 39.649Z" fill="white"/>
</svg>
