<svg width="32" height="44" viewBox="0 0 32 44" fill="none" xmlns="http://www.w3.org/2000/svg">
<path d="M30.6356 42.9783C29.0934 43.0743 27.5083 43.2199 25.9364 43.3688C18.4011 44.0704 10.6109 44.7951 5.97129 40.1753C1.47064 35.6912 2.12588 27.9507 2.76127 20.4651C3.32385 13.8365 3.90298 6.97966 0.696257 3.78617C-0.167472 2.92575 -0.170781 1.52923 0.689639 0.665496C1.55006 -0.198234 2.94659 -0.201543 3.81032 0.658877C8.47313 5.30184 7.80465 13.2012 7.15934 20.8357C6.60999 27.3154 6.0441 34.0167 9.08866 37.048C12.2656 40.2117 19.01 39.583 25.5326 38.9774C27.6208 38.7821 29.7288 38.5869 31.7839 38.5041" fill="#BCEBFF"/>
</svg>
