<svg width="25" height="29" viewBox="0 0 25 29" fill="none" xmlns="http://www.w3.org/2000/svg">
<path d="M21.6027 6.88854C20.8878 6.88854 20.2419 7.2041 19.7833 7.71195L19.697 4.58104H10.7333L9.56229 0.365417L8.56138 4.58104H4.75253L4.6835 7.1967C4.2792 6.89101 3.79354 6.71351 3.2709 6.71351C1.87555 6.71351 0.743988 7.98313 0.743988 9.54858C0.743988 11.114 1.87555 12.3836 3.2709 12.3836C3.68753 12.3836 4.07951 12.2702 4.42465 12.0706C4.39753 12.8225 4.42465 13.5374 4.42465 14.5506C4.42465 17.361 6.38947 19.7425 8.79066 21.0491L7.74291 25.9303C8.51208 27.126 10.154 28.8271 13.2701 28.8271C16.0386 28.8271 17.5695 27.3282 18.3411 26.1572L16.9211 20.842C19.098 19.5009 20.7941 17.2181 20.7941 14.5482C20.7941 13.567 20.7374 12.7386 20.6486 12.004C20.9494 12.1396 21.26 12.2037 21.6052 12.2037C22.9931 12.2037 24.1198 11.013 24.1198 9.54365C24.1173 8.07927 22.9931 6.88854 21.6027 6.88854Z" fill="white"/>
</svg>
