<svg width="43" height="59" viewBox="0 0 43 59" fill="none" xmlns="http://www.w3.org/2000/svg">
<path d="M32.4021 0.512695C26.7542 10.5636 25.1517 21.2334 13.7449 37.3193C10.1283 42.42 4.27575 43.3568 2.0003 43.5269C1.45055 43.5688 1.00926 43.9953 0.955026 44.5426C0.890929 45.1983 1.40124 45.7727 2.05947 45.7801C5.89051 45.827 8.85871 44.6042 8.85871 44.6042L3.01846 53.9944C2.65607 54.5762 2.85822 55.3405 3.45728 55.6684C4.01197 55.9716 4.70718 55.7892 5.04246 55.2517L4.31027 56.4326C3.93308 57.0415 4.1303 57.8427 4.74909 58.2051C5.34075 58.5527 6.10006 58.3703 6.46739 57.7934L8.07228 55.2838L7.33516 56.4351C7.01221 56.9404 7.17985 57.6135 7.70249 57.9068C8.17582 58.1731 8.77489 58.0301 9.08058 57.5789L10.8038 55.0225L10.7446 55.1112C10.4463 55.5574 10.5499 56.1589 10.9813 56.477C11.4127 56.795 12.0217 56.7186 12.3569 56.3019C31.342 32.8103 42.9362 7.01363 42.9362 7.01363L32.4021 0.512695Z" fill="white"/>
</svg>
