<svg width="45" height="36" viewBox="0 0 45 36" fill="none" xmlns="http://www.w3.org/2000/svg">
<path d="M39.0077 35.0368C38.9348 32.1246 39.2161 29.0304 39.4941 25.9759C40.0865 19.4532 40.702 12.7055 37.5317 9.53523C34.4938 6.49728 27.7957 7.07972 21.3161 7.6423C13.6815 8.30417 5.78551 8.98919 1.13262 4.33631C0.2722 3.47589 0.2722 2.07936 1.13262 1.21563C1.99304 0.355208 3.38957 0.355208 4.2533 1.21563C7.4534 4.41573 14.307 3.82005 20.9355 3.24423C28.4212 2.59561 36.1616 1.92051 40.6524 6.41455C45.2821 11.0443 44.5739 18.8377 43.8889 26.373C43.6837 28.6332 43.4752 30.9233 43.4223 33.081" fill="#42BA85"/>
</svg>
