<svg width="70" height="51" viewBox="0 0 70 51" fill="none" xmlns="http://www.w3.org/2000/svg">
<path d="M8.96258 6.72776C4.16022 10.3936 0.0727844 18.9876 0.0727844 18.9876C0.0727844 18.9876 3.56855 25.3505 11.7434 26.1073L14.3936 22.6239L19.3093 46.5543C19.3093 46.5543 25.3789 50.0723 34.7888 50.0723C46.0231 50.0723 53.1897 45.5115 53.1897 45.5115L55.3936 23.5607L58.421 27.5027C66.6377 23.7111 69.5098 18.8619 69.5098 18.8619C69.5098 18.8619 64.8332 9.76005 59.5254 5.96845C54.2177 2.17685 41.0284 0.786438 41.0284 0.786438C41.0284 0.786438 39.8254 4.83196 35.2745 4.83196C30.4721 4.83196 29.1705 0.786438 29.1705 0.786438C29.1705 0.786438 13.7649 3.06189 8.96258 6.72776Z" fill="#BCEBFF"/>
</svg>
