<svg width="70" height="51" viewBox="0 0 70 51" fill="none" xmlns="http://www.w3.org/2000/svg">
<path d="M8.96255 6.72843C4.16018 10.3943 0.0727539 18.9883 0.0727539 18.9883C0.0727539 18.9883 3.56852 25.3511 11.7434 26.108L14.3936 22.6245L19.3093 46.555C19.3093 46.555 25.3788 50.0729 34.7888 50.0729C46.0231 50.0729 53.1896 45.5122 53.1896 45.5122L55.3936 23.5613L58.4209 27.5033C66.6377 23.7117 69.5098 18.8625 69.5098 18.8625C69.5098 18.8625 64.8331 9.76072 59.5254 5.96912C54.2176 2.17753 41.0284 0.787109 41.0284 0.787109C41.0284 0.787109 39.8254 4.83263 35.2745 4.83263C30.4721 4.83263 29.1704 0.787109 29.1704 0.787109C29.1704 0.787109 13.7649 3.06256 8.96255 6.72843Z" fill="#BCEBFF"/>
</svg>
