<svg width="25" height="29" viewBox="0 0 25 29" fill="none" xmlns="http://www.w3.org/2000/svg">
<path d="M21.6027 6.88854C20.8877 6.88854 20.2418 7.2041 19.7833 7.71195L19.697 4.58104H10.7333L9.56226 0.365417L8.56135 4.58104H4.7525L4.68347 7.1967C4.27917 6.89101 3.79351 6.71351 3.27087 6.71351C1.87552 6.71351 0.743958 7.98313 0.743958 9.54858C0.743958 11.114 1.87552 12.3836 3.27087 12.3836C3.6875 12.3836 4.07948 12.2702 4.42462 12.0706C4.3975 12.8225 4.42462 13.5374 4.42462 14.5506C4.42462 17.361 6.38944 19.7425 8.79062 21.0491L7.74288 25.9303C8.51205 27.126 10.1539 28.8271 13.27 28.8271C16.0385 28.8271 17.5695 27.3282 18.3411 26.1572L16.9211 20.842C19.098 19.5009 20.7941 17.2181 20.7941 14.5482C20.7941 13.567 20.7374 12.7386 20.6486 12.004C20.9494 12.1396 21.26 12.2037 21.6051 12.2037C22.9931 12.2037 24.1197 11.013 24.1197 9.54365C24.1173 8.07927 22.9931 6.88854 21.6027 6.88854Z" fill="white"/>
</svg>
