<svg width="42" height="55" viewBox="0 0 42 55" fill="none" xmlns="http://www.w3.org/2000/svg">
<path d="M41.9865 39.6488C41.9125 39.1039 41.454 38.6947 40.9018 38.675C38.6189 38.5961 32.7343 37.896 28.9181 32.9432C16.8801 17.3281 15.6031 9.63648 10.0192 0.559326L0.730072 7.86394C0.730072 7.86394 11.1557 29.1418 31.0653 51.8568C31.4179 52.2611 32.0292 52.3129 32.4483 51.9776C32.8674 51.6423 32.9463 51.0359 32.6308 50.6045H32.6406L34.5438 53.1684C34.8594 53.5924 35.4363 53.7206 35.9022 53.4667C36.4544 53.1659 36.627 52.4559 36.272 51.9357L37.3345 53.4888C37.7068 54.0337 38.4439 54.1865 39.0035 53.8364C39.5952 53.4667 39.7579 52.6778 39.3659 52.1034L38.3354 50.5921C38.7151 51.1493 39.4768 51.2898 40.0315 50.9052C40.5764 50.5256 40.7144 49.7786 40.3422 49.2288L34.0976 40.0309C34.0976 40.0309 37.1126 41.1329 40.9388 40.9332C41.5896 40.8962 42.0752 40.3021 41.9865 39.6488Z" fill="white"/>
</svg>
