<svg width="132" height="132" viewBox="0 0 132 132" fill="none" xmlns="http://www.w3.org/2000/svg">
<rect width="132" height="132" rx="7.48571" fill="#FFFADD"/>
<path d="M70.797 91.1814C69.8273 93.1621 68.4862 94.9106 66.8564 96.319C65.2266 97.7274 63.3426 98.7658 61.3207 99.3703V99.3703C57.3848 100.554 53.1678 100.027 49.5974 97.9048C46.027 95.7829 43.3956 92.2402 42.282 88.0558L32.8357 52.5733C32.2822 50.5001 32.1185 48.3311 32.3539 46.1906C32.5892 44.05 33.2191 41.9797 34.2075 40.0981C35.1959 38.2164 36.5234 36.5603 38.1141 35.2244C39.7048 33.8885 41.5276 32.899 43.4782 32.3124V32.3124C47.4147 31.1288 51.6322 31.6559 55.2032 33.7777C58.7742 35.8995 61.4063 39.4423 62.5207 43.627L63.042 45.6204" stroke="#004171" strokeWidth="1.5" stroke-linecap="round" stroke-linejoin="round"/>
<path d="M37.5591 70.3062L54.2653 65.2788" stroke="#004171" strokeWidth="1.5" stroke-linecap="round" stroke-linejoin="round"/>
<path d="M66.9976 80.5922C70.0129 83.7251 73.9112 85.7207 78.0952 86.2733C82.2792 86.8259 86.5182 85.9051 90.163 83.6519C93.8077 81.3987 96.6572 77.9373 98.275 73.798C99.8928 69.6587 100.19 65.0698 99.1201 60.734C98.8384 59.5873 98.4619 58.4693 97.9951 57.3931" stroke="#004171" strokeWidth="1.5" stroke-linecap="round" stroke-linejoin="round"/>
<path d="M93.9446 51.2613C92.133 49.3801 89.9908 47.8968 87.64 46.8958C85.2893 45.8949 82.7762 45.396 80.2441 45.4277C77.712 45.4593 75.2106 46.0209 72.8826 47.0803C70.5547 48.1397 68.4458 49.6762 66.6764 51.6021C64.907 53.528 63.5118 55.8056 62.5703 58.3047C61.6288 60.8039 61.1595 63.4757 61.1893 66.1677C61.2495 71.6044 63.3386 76.793 66.997 80.5921L93.9446 51.2613Z" stroke="#004171" strokeWidth="1.5" stroke-linecap="round" stroke-linejoin="round"/>
</svg>
