<svg width="75" height="75" viewBox="0 0 75 75" fill="none" xmlns="http://www.w3.org/2000/svg">
<rect width="75" height="75" rx="8" fill="#FFECE9"/>
<path d="M39.1317 51.6618C38.7008 52.5421 38.1047 53.3192 37.3803 53.9452C36.656 54.5711 35.8187 55.0326 34.9201 55.3013V55.3013C33.1707 55.8273 31.2965 55.593 29.7097 54.65C28.1228 53.7069 26.9533 52.1323 26.4584 50.2726L22.2601 34.5026C22.0141 33.5812 21.9413 32.6172 22.0459 31.6659C22.1505 30.7145 22.4304 29.7944 22.8697 28.9581C23.309 28.1218 23.899 27.3857 24.606 26.792C25.313 26.1983 26.1231 25.7585 26.9901 25.4978V25.4978C28.7396 24.9718 30.614 25.206 32.2011 26.149C33.7882 27.092 34.9581 28.6666 35.4534 30.5265L35.6851 31.4124" stroke="#004171" strokeWidth="1.5" stroke-linecap="round" stroke-linejoin="round"/>
<path d="M24.3599 42.3838L31.7849 40.1494" stroke="#004171" strokeWidth="1.5" stroke-linecap="round" stroke-linejoin="round"/>
<path d="M37.4434 46.9553C38.7835 48.3476 40.5161 49.2346 42.3756 49.4802C44.2352 49.7258 46.1192 49.3165 47.7391 48.3151C49.359 47.3137 50.6254 45.7753 51.3445 43.9356C52.0635 42.0959 52.1954 40.0564 51.72 38.1294C51.5948 37.6197 51.4275 37.1229 51.22 36.6445" stroke="#004171" strokeWidth="1.5" stroke-linecap="round" stroke-linejoin="round"/>
<path d="M49.4198 33.9195C48.6147 33.0834 47.6626 32.4242 46.6178 31.9793C45.573 31.5345 44.4561 31.3127 43.3307 31.3268C42.2053 31.3409 41.0936 31.5905 40.059 32.0613C39.0243 32.5322 38.087 33.2151 37.3006 34.071C36.5142 34.927 35.8941 35.9392 35.4757 37.0499C35.0572 38.1607 34.8487 39.3482 34.8619 40.5446C34.8886 42.9609 35.8171 45.2669 37.4431 46.9554L49.4198 33.9195Z" stroke="#004171" strokeWidth="1.5" stroke-linecap="round" stroke-linejoin="round"/>
</svg>
