<svg width="40" height="40" viewBox="0 0 40 40" fill="none" xmlns="http://www.w3.org/2000/svg">
<path d="M22.1315 30.5934C21.7006 31.4214 21.1045 32.1524 20.3802 32.7412C19.6558 33.3299 18.8185 33.7641 17.9199 34.0167V34.0167C16.1705 34.5115 14.2963 34.2911 12.7095 33.4041C11.1226 32.5171 9.95313 31.036 9.4582 29.2867L5.25987 14.4534C5.01387 13.5867 4.94109 12.68 5.04571 11.7851C5.15032 10.8903 5.43026 10.0248 5.86954 9.23817C6.30882 8.45155 6.89881 7.75922 7.60581 7.20075C8.3128 6.64228 9.12292 6.22862 9.98987 5.98342V5.98342C11.7394 5.48862 13.6138 5.70895 15.201 6.59596C16.7881 7.48296 17.9579 8.96402 18.4532 10.7134L18.6849 11.5467" stroke="#004171" stroke-width="1.5" stroke-linecap="round" stroke-linejoin="round"/>
<path d="M7.35999 21.8663L14.785 19.7646" stroke="#004171" stroke-width="1.5" stroke-linecap="round" stroke-linejoin="round"/>
<path d="M20.4453 26.1661C21.7855 27.4758 23.518 28.31 25.3776 28.5411C27.2371 28.7721 29.1212 28.3871 30.7411 27.4452C32.3609 26.5032 33.6274 25.0562 34.3464 23.3258C35.0654 21.5954 35.1973 19.677 34.722 17.8644C34.5968 17.3851 34.4295 16.9177 34.222 16.4678" stroke="#004171" stroke-width="1.5" stroke-linecap="round" stroke-linejoin="round"/>
<path d="M32.4218 13.9051C31.6166 13.1187 30.6645 12.4986 29.6198 12.0802C28.575 11.6617 27.458 11.4532 26.3327 11.4664C25.2073 11.4796 24.0955 11.7144 23.0609 12.1573C22.0263 12.6002 21.089 13.2425 20.3026 14.0476C19.5162 14.8527 18.8961 15.8049 18.4776 16.8496C18.0592 17.8944 17.8506 19.0114 17.8639 20.1367C17.8906 22.4095 18.8191 24.5786 20.4451 26.1668L32.4218 13.9051Z" stroke="#004171" stroke-width="1.5" stroke-linecap="round" stroke-linejoin="round"/>
</svg>
