<svg width="130" height="143" viewBox="0 0 130 143" fill="none" xmlns="http://www.w3.org/2000/svg">
<path d="M111.052 33.9223H75.2765L77.3375 29.8479C78.9435 26.6628 79.7407 22.911 79.6374 19.1757C79.363 9.25144 72.7831 1.12278 64.6579 0.670041C55.8126 0.177082 48.2008 9.02437 48.2008 19.8365C48.2008 23.2719 48.9602 26.765 50.4364 29.7007L52.5716 33.9223H18.1303C11.4414 33.9223 6 40.5628 6 48.725V68.1948C6 69.7374 7.0249 70.9878 8.28874 70.9878C9.55257 70.9878 10.5774 69.7374 10.5774 68.1948V48.725C10.5774 43.6429 13.9657 39.5082 18.1303 39.5082H55.3961L58.9418 46.5169C61.2008 50.982 66.6397 50.941 68.9056 46.5166L72.4508 39.5082H111.052C115.217 39.5082 118.605 43.6429 118.605 48.725V112.597C118.605 117.903 115.068 122.219 110.721 122.219H77.1406C73.1106 122.219 69.3001 124.824 67.1966 129.017L64.5913 134.209L61.9838 129.013C59.879 124.822 56.0706 122.219 52.0445 122.219H18.4621C14.1145 122.219 10.5774 117.903 10.5774 112.597V68.5681C10.5774 67.0255 9.55257 68.0095 8.28874 68.0095C7.0249 68.0095 6.0079 66.8859 6.0079 68.4284L6 112.597C6 120.983 11.5907 127.805 18.4621 127.805H52.0447C54.4898 127.805 56.8027 129.387 58.0805 131.931L62.6397 141.016C63.0556 141.845 63.7951 142.351 64.5915 142.351C65.3882 142.351 66.1275 141.845 66.5434 141.016L71.1002 131.934C72.378 129.387 74.6924 127.805 77.1406 127.805H110.721C117.592 127.805 123.183 120.983 123.183 112.597V48.725C123.183 40.5628 117.741 33.9223 111.052 33.9223ZM56.226 10.0005C58.4479 7.41031 61.3697 6.07555 64.4492 6.25039C70.206 6.57103 74.8679 12.3312 75.0627 19.3639C75.1357 22.0133 74.5862 24.6033 73.4732 26.8533L65.0101 43.5826C64.5169 44.5571 63.3311 44.5579 62.8379 43.5815L54.376 26.8552C53.3653 24.6971 52.7782 22.3351 52.7782 19.8362C52.7782 16.0856 54.0025 12.5927 56.226 10.0005Z" fill="#004171"/>
<path d="M64.06 29.825C67.8323 29.825 70.9017 26.0796 70.9017 21.476C70.9017 16.8723 67.8325 13.127 64.06 13.127C60.2875 13.127 57.2183 16.8723 57.2183 21.476C57.2183 26.0796 60.2877 29.825 64.06 29.825ZM64.06 18.7132C65.3085 18.7132 66.3242 19.9527 66.3242 21.4763C66.3242 22.9998 65.3085 24.2393 64.06 24.2393C62.8115 24.2393 61.7957 22.9998 61.7957 21.4763C61.7957 19.9527 62.8115 18.7132 64.06 18.7132Z" fill="#004171"/>
<path d="M45.5361 56.584C48.2998 56.584 50.3164 57.1797 51.5859 58.3711C52.8555 59.5527 53.4902 61.1836 53.4902 63.2637C53.4902 64.2012 53.3486 65.0996 53.0654 65.959C52.7822 66.8086 52.3184 67.5654 51.6738 68.2295C51.0391 68.8936 50.1895 69.4209 49.125 69.8115C48.0605 70.1924 46.7471 70.3828 45.1846 70.3828H43.2363V78H38.6953V56.584H45.5361ZM45.3018 60.3047H43.2363V66.6621H44.7305C45.5801 66.6621 46.3174 66.5498 46.9424 66.3252C47.5674 66.1006 48.0508 65.749 48.3926 65.2705C48.7344 64.792 48.9053 64.1768 48.9053 63.4248C48.9053 62.3701 48.6123 61.5889 48.0264 61.0811C47.4404 60.5635 46.5322 60.3047 45.3018 60.3047ZM57.5332 78V56.584H62.0742V78H57.5332ZM86.4639 78H80.6924L71.376 61.7988H71.2441C71.2832 62.4727 71.3174 63.1514 71.3467 63.835C71.376 64.5186 71.4053 65.2021 71.4346 65.8857C71.4639 66.5596 71.4932 67.2383 71.5225 67.9219V78H67.4648V56.584H73.1924L82.4941 72.624H82.5967C82.5771 71.96 82.5527 71.3008 82.5234 70.6465C82.4941 69.9922 82.4648 69.3379 82.4355 68.6836C82.416 68.0293 82.3965 67.375 82.377 66.7207V56.584H86.4639V78Z" fill="#004171"/>
<path d="M34.792 92.0557C33.9229 92.0557 33.1514 92.2266 32.4775 92.5684C31.8135 92.9004 31.252 93.3838 30.793 94.0186C30.3438 94.6533 30.002 95.4199 29.7676 96.3184C29.5332 97.2168 29.416 98.2275 29.416 99.3506C29.416 100.864 29.6016 102.158 29.9727 103.232C30.3535 104.297 30.9395 105.112 31.7305 105.679C32.5215 106.235 33.542 106.514 34.792 106.514C35.6611 106.514 36.5303 106.416 37.3994 106.221C38.2783 106.025 39.2305 105.747 40.2559 105.386V109.194C39.3086 109.585 38.376 109.863 37.458 110.029C36.54 110.205 35.5098 110.293 34.3672 110.293C32.1602 110.293 30.3438 109.839 28.918 108.931C27.502 108.013 26.4521 106.733 25.7686 105.093C25.085 103.442 24.7432 101.519 24.7432 99.3213C24.7432 97.7002 24.9629 96.2158 25.4023 94.8682C25.8418 93.5205 26.4863 92.3535 27.3359 91.3672C28.1855 90.3809 29.2354 89.6191 30.4854 89.082C31.7354 88.5449 33.1709 88.2764 34.792 88.2764C35.8564 88.2764 36.9209 88.4131 37.9854 88.6865C39.0596 88.9502 40.085 89.3164 41.0615 89.7852L39.5967 93.4766C38.7959 93.0957 37.9902 92.7637 37.1797 92.4805C36.3691 92.1973 35.5732 92.0557 34.792 92.0557ZM64.2646 99.2627C64.2646 100.913 64.0596 102.417 63.6494 103.774C63.2393 105.122 62.6143 106.284 61.7744 107.261C60.9443 108.237 59.8896 108.989 58.6104 109.517C57.3311 110.034 55.8174 110.293 54.0693 110.293C52.3213 110.293 50.8076 110.034 49.5283 109.517C48.249 108.989 47.1895 108.237 46.3496 107.261C45.5195 106.284 44.8994 105.117 44.4893 103.76C44.0791 102.402 43.874 100.894 43.874 99.2334C43.874 97.0166 44.2354 95.0879 44.958 93.4473C45.6904 91.7969 46.8135 90.5176 48.3271 89.6094C49.8408 88.7012 51.7646 88.2471 54.0986 88.2471C56.4229 88.2471 58.332 88.7012 59.8262 89.6094C61.3301 90.5176 62.4434 91.7969 63.166 93.4473C63.8984 95.0977 64.2646 97.0361 64.2646 99.2627ZM48.6348 99.2627C48.6348 100.757 48.8203 102.046 49.1914 103.13C49.5723 104.204 50.1631 105.034 50.9639 105.62C51.7646 106.196 52.7998 106.484 54.0693 106.484C55.3584 106.484 56.4033 106.196 57.2041 105.62C58.0049 105.034 58.5859 104.204 58.9473 103.13C59.3184 102.046 59.5039 100.757 59.5039 99.2627C59.5039 97.0166 59.084 95.249 58.2441 93.96C57.4043 92.6709 56.0225 92.0264 54.0986 92.0264C52.8193 92.0264 51.7744 92.3193 50.9639 92.9053C50.1631 93.4814 49.5723 94.3115 49.1914 95.3955C48.8203 96.4697 48.6348 97.7588 48.6348 99.2627ZM86.4717 99.0869C86.4717 101.499 86.0078 103.516 85.0801 105.137C84.1621 106.748 82.8291 107.964 81.0811 108.784C79.333 109.595 77.2285 110 74.7676 110H68.7031V88.584H75.4268C77.6729 88.584 79.6211 88.9844 81.2715 89.7852C82.9219 90.5762 84.2012 91.7529 85.1094 93.3154C86.0176 94.8682 86.4717 96.792 86.4717 99.0869ZM81.7549 99.2041C81.7549 97.6221 81.5205 96.3232 81.0518 95.3076C80.5928 94.2822 79.9092 93.5254 79.001 93.0371C78.1025 92.5488 76.9893 92.3047 75.6611 92.3047H73.2441V106.25H75.1924C77.4092 106.25 79.0547 105.659 80.1289 104.478C81.2129 103.296 81.7549 101.538 81.7549 99.2041ZM103.244 110H90.9102V88.584H103.244V92.3047H95.4512V97.0068H102.702V100.728H95.4512V106.25H103.244V110Z" fill="#004171"/>
</svg>
