<svg width="43" height="53" viewBox="0 0 43 53" fill="none" xmlns="http://www.w3.org/2000/svg">
<path d="M30.4335 18.6548L16.899 31.9907C13.8683 34.977 10.5896 34.2604 6.88407 37.9115C6.55977 38.2311 5.69896 37.9021 4.96215 37.1738C4.22534 36.4454 3.88912 35.5996 4.21341 35.2801C7.91894 31.6289 7.19167 28.3983 10.2224 25.4121L23.7593 12.0762L30.4335 18.6548Z" fill="white"/>
<path d="M21.7924 19.3008C18.6186 19.3008 15.9718 19.7448 15.3733 20.3369L10.2227 25.4119C7.19441 28.3981 7.92168 31.6287 4.21377 35.2799C3.88947 35.5994 4.22331 36.4476 4.9625 37.1736C5.69932 37.8996 6.56013 38.2309 6.88442 37.9114C10.59 34.2602 13.8687 34.9768 16.8994 31.9906L28.2115 20.8444C28.2949 20.7622 28.3379 20.6776 28.3379 20.5907C28.3379 19.8788 25.4073 19.3008 21.7924 19.3008Z" fill="#42BA85"/>
<path d="M8.04584 49.0927C8.04584 50.9206 6.5436 52.4008 4.68845 52.4008C2.8333 52.4008 1.33105 50.9206 1.33105 49.0927C1.33105 46.1981 4.68845 41.6494 4.68845 41.6494C4.68845 41.6494 8.04584 46.1981 8.04584 49.0927Z" fill="#42BA85"/>
<path d="M9.33057 36.0137C8.53415 36.4859 7.72103 37.0874 6.88407 37.9121C6.55977 38.2316 5.69896 37.9027 4.96215 37.1743C4.22534 36.446 3.88912 35.6001 4.21341 35.2806C7.91894 31.6295 7.19167 28.3989 10.2224 25.4126L22.0472 13.7637" stroke="#30446D" strokeWidth="1.13972" stroke-linecap="round" stroke-linejoin="round"/>
<path d="M30.4343 18.6543L20.2739 28.6656" stroke="#30446D" strokeWidth="1.13972" stroke-linecap="round" stroke-linejoin="round"/>
<path d="M40.6158 2.04378C38.7726 0.227595 35.7824 0.227595 33.9392 2.04378L28.0947 7.80246C26.6783 6.79217 25.5958 6.31756 25.2572 6.65119L22.5865 9.28266C21.9975 9.86299 23.9099 12.6918 26.8596 15.5982C29.8092 18.5045 32.6802 20.3912 33.2691 19.8085L35.9398 17.1771C36.276 16.8458 35.7943 15.7767 34.7714 14.3811L40.6158 8.62244C42.4614 6.80626 42.4614 3.85996 40.6158 2.04378Z" fill="#30446D"/>
<path d="M6.39576 51.9402C5.89501 52.2316 5.3108 52.4007 4.68845 52.4007C2.8333 52.4007 1.33105 50.9205 1.33105 49.0926C1.33105 47.6805 2.13225 45.8714 2.95014 44.3936" stroke="#30446D" strokeWidth="1.13972" stroke-linecap="round" stroke-linejoin="round"/>
<path d="M18.7885 21.7372C16.683 21.5234 15.2451 21.0888 15.2451 20.5907C15.2451 19.8788 18.1757 19.3008 21.793 19.3008C25.4079 19.3008 28.3409 19.8788 28.3409 20.5907C28.3409 21.3026 25.4103 21.8806 21.793 21.8806" stroke="#30446D" strokeWidth="1.13972" stroke-linecap="round" stroke-linejoin="round"/>
<path d="M34.8558 14.4915C35.8239 15.8331 36.2722 16.8528 35.9431 17.1747C35.3542 17.755 32.4832 15.8707 29.5336 12.9644C26.5839 10.058 24.6692 7.22917 25.2605 6.64883C25.5967 6.31755 26.6817 6.78981 28.0981 7.8001" stroke="#30446D" strokeWidth="1.13972" stroke-linecap="round" stroke-linejoin="round"/>
<path d="M27.2632 8.62244L33.9398 2.04378C35.783 0.227595 38.7732 0.227595 40.6164 2.04378C42.4597 3.85996 42.4597 6.80626 40.6164 8.62244L33.9398 15.2011" stroke="#30446D" strokeWidth="1.13972" stroke-linecap="round" stroke-linejoin="round"/>
<path d="M25.2591 6.64844L22.5885 9.2799C21.9995 9.86024 23.9119 12.6891 26.8615 15.5954C29.8112 18.5018 32.6821 20.3885 33.2711 19.8058L35.9417 17.1743" stroke="#30446D" strokeWidth="1.13972" stroke-linecap="round" stroke-linejoin="round"/>
</svg>
