<svg width="74" height="75" viewBox="0 0 74 75" fill="none" xmlns="http://www.w3.org/2000/svg">
<path d="M53.0333 61.7765H20.9667C20.3125 61.7765 19.6851 61.5127 19.2225 61.0432C18.7599 60.5736 18.5 59.9368 18.5 59.2728V16.7089C18.5 16.0449 18.7599 15.408 19.2225 14.9385C19.6851 14.4689 20.3125 14.2051 20.9667 14.2051H43.2234C45.3424 14.1981 47.4069 14.8866 49.1088 16.1681C50.7934 17.4599 52.2934 18.9824 53.5661 20.6924C54.8285 22.4199 55.5069 24.5154 55.4999 26.6663V59.2728C55.4999 59.9368 55.2401 60.5736 54.7775 61.0432C54.3149 61.5127 53.6875 61.7765 53.0333 61.7765Z" stroke="#004171" strokeWidth="2" stroke-linecap="round" stroke-linejoin="round"/>
<path d="M46.25 19.4912V24.2484H50.875C52.1016 24.2484 53.278 24.7496 54.1454 25.6417C55.0127 26.5338 55.5 27.7438 55.5 29.0055V31.3841" stroke="#004171" strokeWidth="2" stroke-linecap="round" stroke-linejoin="round"/>
<path d="M27.75 47.2412V28.7412H33.0357C37.5352 28.7412 38.3214 30.8126 38.3214 33.3669C38.3214 35.9211 37.5352 37.9899 33.0357 37.9899H27.75" stroke="#004171" strokeWidth="2" stroke-linecap="round" stroke-linejoin="round"/>
<path d="M34.3569 37.9912L43.6069 49.8841" stroke="#004171" strokeWidth="2" stroke-linecap="round" stroke-linejoin="round"/>
<path d="M43.6069 39.3125L34.3569 49.8839" stroke="#004171" strokeWidth="2" stroke-linecap="round" stroke-linejoin="round"/>
</svg>
