<svg width="130" height="143" viewBox="0 0 130 143" fill="none" xmlns="http://www.w3.org/2000/svg">
<path d="M115.781 20.1094H105.625V24.5781H115.781C117.397 24.5781 118.947 25.2843 120.09 26.5414C121.233 27.7985 121.875 29.5035 121.875 31.2812V93.8438H103.594V25.8875L86.1534 6.70312H26.4062V93.8438H8.125V29.0469C8.125 27.9409 8.125 24.5781 14.2188 24.5781H22.3438V20.1094H14.2188C7.85891 20.1094 4.0625 23.4609 4.0625 29.0469V105.016C4.06573 107.978 5.13679 110.817 7.04076 112.911C8.94473 115.006 11.5261 116.184 14.2188 116.188H48.75V125.125H38.5938C36.9776 125.125 35.4276 125.831 34.2848 127.088C33.142 128.345 32.5 130.05 32.5 131.828V134.062H28.4375V138.531H101.562V134.062H97.5V131.828C97.5 130.05 96.858 128.345 95.7152 127.088C94.5724 125.831 93.0224 125.125 91.4062 125.125H81.25V116.188H115.781C118.474 116.184 121.055 115.006 122.959 112.911C124.863 110.817 125.934 107.978 125.938 105.016V31.2812C125.934 28.3194 124.863 25.4798 122.959 23.3855C121.055 21.2911 118.474 20.1129 115.781 20.1094V20.1094ZM87.3438 14.3313L96.6591 24.5781H87.3438V14.3313ZM30.4688 11.1719H83.2812V29.0469H99.5312V93.8438H30.4688V11.1719ZM91.4062 129.594C91.945 129.594 92.4616 129.829 92.8426 130.248C93.2235 130.667 93.4375 131.236 93.4375 131.828V134.062H36.5625V131.828C36.5625 131.236 36.7765 130.667 37.1574 130.248C37.5384 129.829 38.055 129.594 38.5938 129.594H91.4062ZM52.8125 125.125V116.188H77.1875V125.125H52.8125ZM121.875 105.016C121.875 106.793 121.233 108.498 120.09 109.755C118.947 111.013 117.397 111.719 115.781 111.719H14.2188C12.6026 111.719 11.0526 111.013 9.90982 109.755C8.76702 108.498 8.125 106.793 8.125 105.016V98.3125H121.875V105.016Z" fill="#004171"/>
<path d="M71.0938 105.016C71.0938 103.69 70.7364 102.394 70.0668 101.292C69.3972 100.189 68.4455 99.3301 67.332 98.8228C66.2185 98.3154 64.9932 98.1827 63.8112 98.4413C62.6291 98.6999 61.5433 99.3384 60.6911 100.276C59.8388 101.213 59.2585 102.408 59.0233 103.708C58.7882 105.008 58.9089 106.356 59.3701 107.581C59.8313 108.806 60.6124 109.853 61.6145 110.589C62.6166 111.326 63.7948 111.719 65 111.719C66.6162 111.719 68.1661 111.013 69.3089 109.755C70.4517 108.498 71.0938 106.793 71.0938 105.016V105.016ZM65 107.25C64.5983 107.25 64.2055 107.119 63.8715 106.873C63.5375 106.628 63.2771 106.279 63.1234 105.871C62.9696 105.462 62.9294 105.013 63.0078 104.58C63.0862 104.146 63.2796 103.748 63.5637 103.436C63.8478 103.123 64.2097 102.91 64.6037 102.824C64.9977 102.738 65.4062 102.782 65.7773 102.951C66.1485 103.12 66.4657 103.407 66.6889 103.774C66.9121 104.142 67.0313 104.574 67.0313 105.016C67.0313 105.608 66.8172 106.177 66.4363 106.596C66.0554 107.015 65.5387 107.25 65 107.25Z" fill="#004171"/>
<path d="M67.0312 58.0938H91.4062V62.5625H67.0312V58.0938Z" fill="#004171"/>
<path d="M58.9062 67.0312H91.4062V71.5H58.9062V67.0312Z" fill="#004171"/>
<path d="M67.0312 75.9688H91.4062V80.4375H67.0312V75.9688Z" fill="#004171"/>
<path d="M58.9062 84.9062H91.4062V89.375H58.9062V84.9062Z" fill="#004171"/>
<path d="M46.7188 20.1094H38.5938V44.6875H42.6562V35.3031L49.0912 45.9209L52.4713 43.4407L46.4506 33.5156H46.7188C48.3349 33.5156 49.8849 32.8094 51.0277 31.5523C52.1705 30.2952 52.8125 28.5903 52.8125 26.8125C52.8125 25.0347 52.1705 23.3298 51.0277 22.0727C49.8849 20.8156 48.3349 20.1094 46.7188 20.1094V20.1094ZM46.7188 29.0469H42.6562V24.5781H46.7188C47.2575 24.5781 47.7741 24.8135 48.1551 25.2326C48.536 25.6516 48.75 26.2199 48.75 26.8125C48.75 27.4051 48.536 27.9734 48.1551 28.3924C47.7741 28.8115 47.2575 29.0469 46.7188 29.0469Z" fill="#004171"/>
<path d="M67.3481 45.888L70.7769 43.4883L64.3622 32.3991L70.7769 21.3099L67.3481 18.9102L61.9531 28.2364L56.5581 18.9102L53.1294 21.3099L59.5441 32.3991L53.1294 43.4883L56.5581 45.888L61.9531 36.5617L67.3481 45.888Z" fill="#004171"/>
<path d="M40.625 71.5H52.8125V58.0938H40.625V71.5ZM44.6875 62.5625H48.75V67.0312H44.6875V62.5625Z" fill="#004171"/>
<path d="M40.625 89.375H52.8125V75.9688H40.625V89.375ZM44.6875 80.4375H48.75V84.9062H44.6875V80.4375Z" fill="#004171"/>
<path d="M58.9062 58.0938H62.9688V62.5625H58.9062V58.0938Z" fill="#004171"/>
<path d="M58.9062 75.9688H62.9688V80.4375H58.9062V75.9688Z" fill="#004171"/>
</svg>
