<svg width="24" height="24" viewBox="0 0 24 24" fill="none" xmlns="http://www.w3.org/2000/svg">
<path d="M17.2 19.7146H6.8C6.58783 19.7146 6.38434 19.629 6.23431 19.4767C6.08429 19.3245 6 19.1179 6 18.9026V5.09806C6 4.88269 6.08429 4.67615 6.23431 4.52387C6.38434 4.37158 6.58783 4.28603 6.8 4.28603H14.0184C14.7056 4.28374 15.3752 4.50706 15.9272 4.92266C16.4735 5.34161 16.96 5.83543 17.3728 6.39C17.7822 6.95027 18.0022 7.62991 18 8.3275V18.9026C18 19.1179 17.9157 19.3245 17.7657 19.4767C17.6156 19.629 17.4122 19.7146 17.2 19.7146Z" stroke="#005D8D" stroke-linecap="round" stroke-linejoin="round"/>
<path d="M15 6V7.54286H16.5C16.8978 7.54286 17.2794 7.70541 17.5607 7.99475C17.842 8.28409 18 8.67652 18 9.08571V9.85714" stroke="#005D8D" stroke-linecap="round" stroke-linejoin="round"/>
<path d="M9 15V9H10.7143C12.1736 9 12.4286 9.6718 12.4286 10.5002C12.4286 11.3286 12.1736 11.9996 10.7143 11.9996H9" stroke="#005D8D" stroke-linecap="round" stroke-linejoin="round"/>
<path d="M11.1426 12L14.1426 15.8571" stroke="#005D8D" stroke-linecap="round" stroke-linejoin="round"/>
<path d="M14.1426 12.4287L11.1426 15.8573" stroke="#005D8D" stroke-linecap="round" stroke-linejoin="round"/>
</svg>
