<svg width="121" height="135" viewBox="0 0 121 135" fill="none" xmlns="http://www.w3.org/2000/svg">
<path d="M110.357 1.3877H38.4568C32.0186 1.3877 26.7989 6.5308 26.7989 12.8745V35.2937H7.53922C3.99345 35.2937 1.12012 38.1249 1.12012 41.6186V121.535H75.8722V68.187H93.7059C96.4624 68.187 98.6991 65.9855 98.6991 63.2671V17.9283H112.222C116.342 17.9283 119.683 14.6367 119.683 10.5767C119.683 5.50171 115.508 1.3877 110.357 1.3877Z" fill="white"/>
<path d="M98.6982 12.8745C98.6982 6.5308 103.918 1.3877 110.356 1.3877C115.507 1.3877 119.682 5.50171 119.682 10.5767C119.682 14.6367 116.341 17.9283 112.221 17.9283H98.6982V12.8745Z" fill="#BCEBFF"/>
<path d="M75.874 41.6189C75.874 38.1251 78.7474 35.2939 82.2931 35.2939C85.8389 35.2939 88.7122 38.1251 88.7122 41.6189V63.265C88.7122 65.9811 90.9465 68.1849 93.7054 68.1849H75.874V41.6189Z" fill="#BCEBFF"/>
<path d="M118.744 14.1456C117.471 16.4012 115.027 17.9284 112.22 17.9284C108.925 17.9284 106.252 15.2945 106.252 12.0475C106.252 9.44892 108.391 7.34375 111.026 7.34375" stroke="#30446D" strokeWidth="1.13972" stroke-linecap="round" stroke-linejoin="round"/>
<path d="M119.681 10.5771C119.681 11.1716 119.609 11.7496 119.474 12.3017" stroke="#30446D" strokeWidth="1.13972" stroke-linecap="round" stroke-linejoin="round"/>
<path d="M88.7124 57.156V63.2671C88.7124 65.9832 90.9467 68.187 93.7056 68.187V68.187C96.4621 68.187 98.6987 65.9855 98.6987 63.2671V12.8745C98.6987 6.5308 103.918 1.3877 110.357 1.3877C113.802 1.3877 116.811 3.22972 118.426 5.96692" stroke="#30446D" strokeWidth="1.13972" stroke-linecap="round" stroke-linejoin="round"/>
<path d="M75.874 102.739V41.6189C75.874 38.1251 78.7474 35.2939 82.2931 35.2939V35.2939C85.8389 35.2939 88.7122 38.1251 88.7122 41.6189" stroke="#30446D" strokeWidth="1.13972" stroke-linecap="round" stroke-linejoin="round"/>
<path d="M1.12207 99.3916V121.536H75.8741" stroke="#30446D" strokeWidth="1.13972" stroke-linecap="round" stroke-linejoin="round"/>
<path d="M42.3121 35.2939H7.54117C3.99541 35.2939 1.12207 38.1251 1.12207 41.6189V96.1819" stroke="#30446D" strokeWidth="1.13972" stroke-linecap="round" stroke-linejoin="round"/>
<path d="M82.2925 35.2942H63.9961" stroke="#30446D" strokeWidth="1.13972" stroke-linecap="round" stroke-linejoin="round"/>
<path d="M93.7059 68.1878H80.6436" stroke="#30446D" strokeWidth="1.13972" stroke-linecap="round" stroke-linejoin="round"/>
<path d="M15.1086 52.7559C15.8812 52.7559 16.5083 53.3738 16.5083 54.135C16.5083 56.9357 19.8085 59.6447 22.999 62.2644C26.6854 65.2906 30.4959 68.4201 30.4959 72.513C30.4959 76.4814 26.7236 79.6039 23.0753 82.6254C19.8467 85.2991 16.506 88.0645 16.506 90.891C16.506 91.6522 15.8788 92.2702 15.1063 92.2702C14.3337 92.2702 13.7065 91.6522 13.7065 90.891C13.7065 86.7793 17.5528 83.5934 21.275 80.5131C24.4321 77.9005 27.6965 75.1962 27.6965 72.513C27.6965 69.7124 24.3963 67.0034 21.2058 64.3837C17.5194 61.3575 13.7089 58.2279 13.7089 54.135C13.7113 53.3714 14.3361 52.7559 15.1086 52.7559Z" fill="#42BA85"/>
<path d="M29.1001 52.7559C29.8727 52.7559 30.4999 53.3738 30.4999 54.135C30.4999 58.2256 26.687 61.3575 23.0029 64.3837C19.8125 67.0034 16.5123 69.7124 16.5123 72.513C16.5123 75.1985 19.7767 77.9005 22.9338 80.5131C26.6536 83.5934 30.5022 86.777 30.5022 90.891C30.5022 91.6522 29.8751 92.2702 29.1025 92.2702C28.3299 92.2702 27.7028 91.6522 27.7028 90.891C27.7028 88.0622 24.3621 85.2991 21.1335 82.6254C17.4852 79.6062 13.7129 76.4837 13.7129 72.513C13.7129 68.4225 17.5257 65.2906 21.2098 62.2644C24.4003 59.6447 27.7004 56.9357 27.7004 54.135C27.7004 53.3714 28.3276 52.7559 29.1001 52.7559Z" fill="#BCEBFF"/>
<path d="M23.7001 84.8052C22.8798 84.0721 21.9999 83.3438 21.1296 82.6225C17.4813 79.6033 13.709 76.4808 13.709 72.5101C13.709 70.3274 14.7939 68.4172 16.3677 66.6504" stroke="#30446D" strokeWidth="1.13972" stroke-linecap="round" stroke-linejoin="round"/>
<path d="M27.6835 60.1641C26.3339 61.6419 24.6528 63.0211 22.998 64.3815C19.8075 67.0012 16.5073 69.7102 16.5073 72.5108C16.5073 75.1963 19.7717 77.8983 22.9288 80.5109C26.6487 83.5912 30.4973 86.7748 30.4973 90.8888C30.4973 91.65 29.8701 92.268 29.0975 92.268C28.325 92.268 27.6978 91.65 27.6978 90.8888C27.6978 89.465 26.8513 88.0553 25.5971 86.6667" stroke="#30446D" strokeWidth="1.13972" stroke-linecap="round" stroke-linejoin="round"/>
<path d="M23.6865 60.1781C25.9065 58.2116 27.6997 56.198 27.6997 54.1328" stroke="#30446D" strokeWidth="1.13972" stroke-linecap="round" stroke-linejoin="round"/>
<path d="M27.7004 72.5111C27.7004 69.7104 24.4003 67.0014 21.2098 64.3817C17.5233 61.3555 13.7129 58.2259 13.7129 54.1331C13.7129 53.3718 14.34 52.7539 15.1126 52.7539C15.8852 52.7539 16.5123 53.3718 16.5123 54.1331C16.5123 56.9337 19.8125 59.6427 23.0029 62.2624C26.6894 65.2886 30.4999 68.4182 30.4999 72.5111H27.7004Z" fill="#42BA85"/>
<path d="M26.8008 35.2937V12.8745C26.8008 6.5308 32.0205 1.3877 38.4587 1.3877H103.441" stroke="#30446D" strokeWidth="1.13972" stroke-linecap="round" stroke-linejoin="round"/>
<path d="M111.027 7.34404H102.583" stroke="#30446D" strokeWidth="1.13972" stroke-linecap="round" stroke-linejoin="round"/>
<path d="M35.2203 100.939V95.7705" stroke="#30446D" strokeWidth="1.13972" stroke-linecap="round" stroke-linejoin="round"/>
<path d="M35.2203 49.25V44.0811" stroke="#30446D" strokeWidth="1.13972" stroke-linecap="round" stroke-linejoin="round"/>
<path d="M8.99081 49.25V44.0811" stroke="#30446D" strokeWidth="1.13972" stroke-linecap="round" stroke-linejoin="round"/>
<path d="M8.99081 100.939V95.7705" stroke="#30446D" strokeWidth="1.13972" stroke-linecap="round" stroke-linejoin="round"/>
<path d="M29.9746 100.94H35.2205" stroke="#30446D" strokeWidth="1.13972" stroke-linecap="round" stroke-linejoin="round"/>
<path d="M29.9746 44.0813H35.2205" stroke="#30446D" strokeWidth="1.13972" stroke-linecap="round" stroke-linejoin="round"/>
<path d="M8.98926 100.94H14.2352" stroke="#30446D" strokeWidth="1.13972" stroke-linecap="round" stroke-linejoin="round"/>
<path d="M8.98926 44.0813H14.2352" stroke="#30446D" strokeWidth="1.13972" stroke-linecap="round" stroke-linejoin="round"/>
<rect x="42.8252" y="54.4189" width="1.57378" height="10.3379" fill="#30446D" stroke="#30446D" strokeWidth="1.13972" stroke-linecap="round" stroke-linejoin="round"/>
<rect x="47.5444" y="46.666" width="1.57378" height="18.0913" fill="#30446D" stroke="#30446D" strokeWidth="1.13972" stroke-linecap="round" stroke-linejoin="round"/>
<rect x="52.2676" y="44.0811" width="1.57378" height="20.6758" fill="#30446D" stroke="#30446D" strokeWidth="1.13972" stroke-linecap="round" stroke-linejoin="round"/>
<rect x="56.9888" y="54.4189" width="1.57378" height="10.3379" fill="#30446D" stroke="#30446D" strokeWidth="1.13972" stroke-linecap="round" stroke-linejoin="round"/>
<rect x="61.7104" y="49.25" width="1.57378" height="15.5069" fill="#30446D" stroke="#30446D" strokeWidth="1.13972" stroke-linecap="round" stroke-linejoin="round"/>
<rect x="66.4316" y="59.5879" width="1.57378" height="5.16895" fill="#30446D" stroke="#30446D" strokeWidth="1.13972" stroke-linecap="round" stroke-linejoin="round"/>
<path d="M8.98926 106.109H35.2189" stroke="#30446D" strokeWidth="1.13972" stroke-linecap="round" stroke-linejoin="round"/>
<path d="M8.98926 109.209H35.2189" stroke="#30446D" strokeWidth="1.13972" stroke-linecap="round" stroke-linejoin="round"/>
<path d="M8.98926 112.311H19.4811" stroke="#30446D" strokeWidth="1.13972" stroke-linecap="round" stroke-linejoin="round"/>
<path d="M37.9004 14.8274H56.2611" stroke="#30446D" strokeWidth="1.13972" stroke-linecap="round" stroke-linejoin="round"/>
<path d="M37.9004 19.4788H51.0152" stroke="#30446D" strokeWidth="1.13972" stroke-linecap="round" stroke-linejoin="round"/>
<path d="M90.83 18.4452H84.0103V11.7256H77.7152V18.4452H70.8955V24.648H77.7152V31.3676H84.0103V24.648H90.83V18.4452Z" fill="#42BA85"/>
<path d="M73.2788 24.6484H77.714V31.3681H84.0091" stroke="#30446D" strokeWidth="1.13972" stroke-linecap="round" stroke-linejoin="round"/>
<path d="M70.5102 130.067L65.1236 129.691L61.9522 134L52.1519 113.286L60.7099 109.355L70.5102 130.067Z" fill="#BCEBFF"/>
<path d="M64.022 116.353L67.5224 123.749" stroke="#30446D" strokeWidth="1.13972" stroke-linecap="round" stroke-linejoin="round"/>
<path d="M67.3932 129.848L65.1231 129.691L61.9517 134L57.6978 125.011" stroke="#30446D" strokeWidth="1.13972" stroke-linecap="round" stroke-linejoin="round"/>
<path d="M41.6611 130.067L47.0477 129.691L50.2191 134L60.0219 113.286L51.4639 109.355L41.6611 130.067Z" fill="#BCEBFF"/>
<path d="M57.2129 119.219L50.2191 134L47.0477 129.691L41.6611 130.067L42.7175 127.834" stroke="#30446D" strokeWidth="1.13972" stroke-linecap="round" stroke-linejoin="round"/>
<path d="M56.0869 119.479C54.8136 119.479 53.7358 118.363 52.5864 117.997C51.3966 117.616 49.8609 117.879 48.869 117.17C47.8675 116.451 47.6529 114.926 46.9232 113.939C46.2007 112.962 44.7915 112.292 44.4052 111.12C44.0332 109.987 44.7605 108.634 44.7605 107.379C44.7605 106.125 44.0308 104.771 44.4052 103.639C44.7915 102.466 46.2007 101.797 46.9232 100.819C47.6529 99.8327 47.8675 98.3078 48.869 97.5889C49.8609 96.877 51.3966 97.1425 52.5864 96.7618C53.7358 96.3953 54.8136 95.2793 56.0869 95.2793C57.3602 95.2793 58.438 96.3953 59.5874 96.7618C60.7772 97.1425 62.3129 96.8793 63.3048 97.5889C64.3063 98.3078 64.5209 99.8327 65.2506 100.819C65.9731 101.797 67.3823 102.466 67.7686 103.639C68.1406 104.771 67.4133 106.125 67.4133 107.379C67.4133 108.634 68.143 109.987 67.7686 111.12C67.3823 112.292 65.9731 112.962 65.2506 113.939C64.5209 114.926 64.3063 116.451 63.3048 117.17C62.3129 117.882 60.7772 117.616 59.5874 117.997C58.438 118.366 57.3602 119.479 56.0869 119.479Z" fill="#BCEBFF"/>
<path d="M66.9031 102.403C67.2846 102.769 67.6113 103.162 67.7686 103.641C68.1406 104.773 67.4133 106.127 67.4133 107.381C67.4133 108.636 68.143 109.989 67.7686 111.122C67.3823 112.294 65.9731 112.964 65.2506 113.941C64.5209 114.928 64.3063 116.453 63.3048 117.172C62.3129 117.884 60.7772 117.618 59.5874 117.999C58.438 118.365 57.3602 119.481 56.0869 119.481C54.8136 119.481 53.7358 118.365 52.5864 117.999C51.3966 117.618 49.8609 117.881 48.869 117.172C47.8675 116.453 47.6529 114.928 46.9232 113.941C46.2007 112.964 44.7915 112.294 44.4052 111.122C44.0332 109.989 44.7605 108.636 44.7605 107.381C44.7605 106.127 44.0308 104.773 44.4052 103.641C44.7915 102.468 46.2007 101.799 46.9232 100.821C47.6529 99.8346 47.8675 98.3098 48.869 97.5908C49.8609 96.8789 51.3966 97.1444 52.5864 96.7638C53.7358 96.3973 54.8136 95.2812 56.0869 95.2812C57.3602 95.2812 58.438 96.3973 59.5874 96.7638C60.7772 97.1444 62.3129 96.8813 63.3048 97.5908C63.9701 98.0678 64.2896 98.9019 64.6402 99.696" stroke="#30446D" strokeWidth="1.13972" stroke-linecap="round" stroke-linejoin="round"/>
<path d="M42.8252 82.2472C49.1227 80.2454 51.4857 85.2875 55.4774 84.0234C59.5621 82.7312 60.6971 74.8486 68.1296 73.8477V90.6021H42.8252V82.2472Z" fill="#42BA85"/>
<path d="M60.9141 78.3587C62.5761 76.27 64.6721 74.3152 68.1296 73.8477" stroke="#30446D" strokeWidth="1.13972" stroke-linecap="round" stroke-linejoin="round"/>
<path d="M42.8252 82.247C44.9903 81.5586 46.6905 81.7019 48.1522 82.1365" stroke="#30446D" strokeWidth="1.13972" stroke-linecap="round" stroke-linejoin="round"/>
<path d="M42.8252 84.5074C42.8252 84.5074 45.0905 86.7535 48.0163 85.9617C51.7767 84.942 51.5573 78.4973 54.7263 77.6797C57.4494 76.9771 59.1949 82.8275 62.8956 82.8275C66.0241 82.8275 68.1296 78.8215 68.1296 78.8215V90.602H42.8252V84.5074Z" fill="#BCEBFF"/>
<path d="M42.8243 72.5107V90.6021" stroke="#30446D" strokeWidth="1.13972" stroke-linecap="round" stroke-linejoin="round"/>
<path d="M45.2085 90.6019H68.1284" stroke="#30446D" strokeWidth="1.13972" stroke-linecap="round" stroke-linejoin="round"/>
<path d="M61.6147 82.5872C62.0153 82.7399 62.4398 82.8292 62.8952 82.8292C66.0237 82.8292 68.1292 78.8232 68.1292 78.8232" stroke="#30446D" strokeWidth="1.13972" stroke-linecap="round" stroke-linejoin="round"/>
<path d="M56.4082 78.0342C57.5695 78.786 58.6544 80.4095 59.9826 81.5585" stroke="#30446D" strokeWidth="1.13972" stroke-linecap="round" stroke-linejoin="round"/>
<path d="M45.5679 85.989C46.2928 86.1629 47.1226 86.2028 48.0144 85.9608C50.5825 85.2654 51.2931 82.0395 52.4973 79.8027" stroke="#30446D" strokeWidth="1.13972" stroke-linecap="round" stroke-linejoin="round"/>
<path d="M24.5958 67.2998C23.5633 66.3154 22.3806 65.3427 21.2098 64.3817C17.5233 61.3555 13.7129 58.2259 13.7129 54.1331C13.7129 53.3718 14.34 52.7539 15.1126 52.7539" stroke="#30446D" strokeWidth="1.13972" stroke-linecap="round" stroke-linejoin="round"/>
<path d="M16.5073 72.5101H26.6773" stroke="#30446D" strokeWidth="1.13972" stroke-linecap="round" stroke-linejoin="round"/>
<path d="M27.699 54.1321H17.7651" stroke="#30446D" strokeWidth="1.13972" stroke-linecap="round" stroke-linejoin="round"/>
<path d="M17.5156 69.6907H22.7329" stroke="#30446D" strokeWidth="1.13972" stroke-linecap="round" stroke-linejoin="round"/>
<path d="M23.814 78.3576C24.9037 77.3826 25.8813 76.4005 26.5848 75.416" stroke="#30446D" strokeWidth="1.13972" stroke-linecap="round" stroke-linejoin="round"/>
<path d="M22.0739 83.457C19.191 85.87 16.5084 88.3558 16.5084 90.8886C16.5084 91.6498 15.8813 92.2677 15.1087 92.2677C14.3361 92.2677 13.709 91.6498 13.709 90.8886C13.709 90.2401 13.8044 89.6175 13.9784 89.0113" stroke="#30446D" strokeWidth="1.13972" stroke-linecap="round" stroke-linejoin="round"/>
<path d="M20.2485 59.9307C21.1189 60.7154 22.0631 61.4931 23.0003 62.2614C26.6867 65.2876 30.4972 68.4171 30.4972 72.51C30.4972 76.046 27.5046 78.9101 24.2712 81.6285" stroke="#30446D" strokeWidth="1.13972" stroke-linecap="round" stroke-linejoin="round"/>
<path d="M17.5635 75.3294H26.5865" stroke="#30446D" strokeWidth="1.13972" stroke-linecap="round" stroke-linejoin="round"/>
<path d="M16.5073 90.888H27.6978" stroke="#30446D" strokeWidth="1.13972" stroke-linecap="round" stroke-linejoin="round"/>
<path d="M17.5635 88.0686H26.7057" stroke="#30446D" strokeWidth="1.13972" stroke-linecap="round" stroke-linejoin="round"/>
<path d="M26.6928 56.9515H18.9932" stroke="#30446D" strokeWidth="1.13972" stroke-linecap="round" stroke-linejoin="round"/>
<path d="M46.8957 119.005L44.6519 123.749" stroke="#30446D" strokeWidth="1.13972" stroke-linecap="round" stroke-linejoin="round"/>
<path d="M77.7148 11.7256H84.01V18.4452H90.8297V21.5466" stroke="#30446D" strokeWidth="1.13972" stroke-linecap="round" stroke-linejoin="round"/>
<path d="M88.712 54.5158V48.252" stroke="#30446D" strokeWidth="1.13972" stroke-linecap="round" stroke-linejoin="round"/>
<path d="M75.8736 105.732V108.547" stroke="#30446D" strokeWidth="1.13972" stroke-linecap="round" stroke-linejoin="round"/>
<path d="M45.6377 35.2942H51.8255" stroke="#30446D" strokeWidth="1.13972" stroke-linecap="round" stroke-linejoin="round"/>
<path d="M56.0873 111.285L51.9597 113.423L52.749 108.895L49.4106 105.688L54.0223 105.028L56.0873 100.909L58.1499 105.028L62.7639 105.688L59.4256 108.895L60.2125 113.423L56.0873 111.285Z" fill="white"/>
<path d="M59.9454 111.893L60.2125 113.422L56.0873 111.284L51.9597 113.422L52.749 108.895L49.4106 105.688" stroke="#30446D" strokeWidth="1.13972" stroke-linecap="round" stroke-linejoin="round"/>
</svg>
