<svg xmlns="http://www.w3.org/2000/svg" width="117" height="32" fill="none" viewBox="0 0 117 32">
    <rect width="117" height="32" fill="#42BA85" rx="16"/>
    <path fill="#fff" d="M17.38 11.998h-2.506c.41.29.705.672.882 1.148h1.624v.798h-1.442c.019.093.028.233.028.42 0 .737-.196 1.363-.588 1.876-.383.513-.929.887-1.638 1.12L16.148 21h-1.526l-2.226-3.388c-.112.01-.28.014-.504.014H9.47v-1.204h2.38c.915 0 1.596-.187 2.044-.56.448-.383.672-.891.672-1.526 0-.093-.01-.224-.028-.392H8.406v-.798h5.88c-.43-.775-1.279-1.157-2.548-1.148H8.406V11.2h8.974v.798zm3.668 3.108c1.4 0 2.427.266 3.08.798.663.523.994 1.241.994 2.156 0 .579-.14 1.101-.42 1.568-.27.457-.686.821-1.246 1.092-.55.261-1.232.392-2.044.392-.69 0-1.358-.103-2.002-.308-.644-.215-1.176-.509-1.596-.882l.644-1.106c.336.317.766.574 1.288.77.523.187 1.074.28 1.652.28.738 0 1.307-.154 1.708-.462.41-.317.616-.747.616-1.288 0-.588-.224-1.031-.672-1.33-.448-.308-1.213-.462-2.296-.462h-2.226l.518-5.124h5.53v1.218h-4.354l-.266 2.688h1.092zm8.743 6.006c-.774 0-1.465-.196-2.072-.588-.597-.401-1.068-.98-1.414-1.736-.345-.756-.518-1.652-.518-2.688 0-1.036.173-1.932.518-2.688.346-.756.817-1.33 1.414-1.722.607-.401 1.298-.602 2.072-.602.766 0 1.447.2 2.044.602.607.392 1.083.966 1.428 1.722.346.756.518 1.652.518 2.688 0 1.036-.172 1.932-.518 2.688-.345.756-.821 1.335-1.428 1.736-.597.392-1.278.588-2.044.588zm0-1.246c.784 0 1.41-.322 1.876-.966.476-.644.714-1.577.714-2.8 0-1.223-.238-2.156-.714-2.8-.466-.644-1.092-.966-1.876-.966-.793 0-1.428.322-1.904.966-.466.644-.7 1.577-.7 2.8 0 1.223.234 2.156.7 2.8.476.644 1.11.966 1.904.966zm8.838 1.246c-.774 0-1.465-.196-2.072-.588-.597-.401-1.069-.98-1.414-1.736s-.518-1.652-.518-2.688c0-1.036.173-1.932.518-2.688.346-.756.817-1.33 1.414-1.722.607-.401 1.297-.602 2.072-.602.766 0 1.447.2 2.044.602.607.392 1.083.966 1.428 1.722.346.756.518 1.652.518 2.688 0 1.036-.172 1.932-.518 2.688-.345.756-.821 1.335-1.428 1.736-.597.392-1.279.588-2.044.588zm0-1.246c.784 0 1.41-.322 1.876-.966.476-.644.714-1.577.714-2.8 0-1.223-.238-2.156-.714-2.8-.467-.644-1.092-.966-1.876-.966-.793 0-1.428.322-1.904.966-.467.644-.7 1.577-.7 2.8 0 1.223.233 2.156.7 2.8.476.644 1.11.966 1.904.966zm8.22-3.29h3.766v1.162h-3.766v-1.162zm16.7-4.578h-2.505c.41.29.705.672.882 1.148h1.624v.798h-1.442c.019.093.028.233.028.42 0 .737-.196 1.363-.588 1.876-.383.513-.929.887-1.638 1.12L62.318 21h-1.526l-2.226-3.388c-.112.01-.28.014-.504.014H55.64v-1.204h2.38c.915 0 1.596-.187 2.044-.56.448-.383.672-.891.672-1.526 0-.093-.01-.224-.028-.392h-6.132v-.798h5.88c-.43-.775-1.279-1.157-2.548-1.148h-3.332V11.2h8.974v.798zm8.105-.798v.952L67.692 21h-1.484l3.878-8.582h-4.48v1.75h-1.344V11.2h7.392zm3.28 3.906c1.4 0 2.428.266 3.08.798.664.523.995 1.241.995 2.156 0 .579-.14 1.101-.42 1.568-.27.457-.686.821-1.246 1.092-.55.261-1.232.392-2.044.392-.69 0-1.358-.103-2.002-.308-.644-.215-1.176-.509-1.596-.882l.644-1.106c.336.317.765.574 1.288.77.523.187 1.073.28 1.652.28.737 0 1.307-.154 1.708-.462.41-.317.616-.747.616-1.288 0-.588-.224-1.031-.672-1.33-.448-.308-1.213-.462-2.296-.462h-2.226l.518-5.124h5.53v1.218h-4.354l-.266 2.688h1.092zm8.744 6.006c-.775 0-1.465-.196-2.072-.588-.597-.401-1.069-.98-1.414-1.736s-.518-1.652-.518-2.688c0-1.036.173-1.932.518-2.688.345-.756.817-1.33 1.414-1.722.607-.401 1.297-.602 2.072-.602.765 0 1.447.2 2.044.602.607.392 1.083.966 1.428 1.722s.518 1.652.518 2.688c0 1.036-.173 1.932-.518 2.688-.345.756-.821 1.335-1.428 1.736-.597.392-1.279.588-2.044.588zm0-1.246c.784 0 1.41-.322 1.876-.966.476-.644.714-1.577.714-2.8 0-1.223-.238-2.156-.714-2.8-.467-.644-1.092-.966-1.876-.966-.793 0-1.428.322-1.904.966-.467.644-.7 1.577-.7 2.8 0 1.223.233 2.156.7 2.8.476.644 1.11.966 1.904.966z"/>
    <path stroke="#fff" stroke-linecap="round" stroke-linejoin="round" d="M95.334 10.333L106 21M95.334 21L106 10.333"/>
</svg>
