<svg width="69" height="77" viewBox="0 0 69 77" fill="none" xmlns="http://www.w3.org/2000/svg">
<path fill-rule="evenodd" clip-rule="evenodd" d="M57.0457 6.60563V2.89549V2.89178H67.8013V13.6512H64.0912V9.75183L59.5166 14.3264C63.2267 19.5392 62.7481 26.837 58.0771 31.5081C52.8717 36.7171 44.3978 36.7171 39.1888 31.5081C33.9797 26.3027 33.9797 17.8288 39.1888 12.6198C43.8598 7.9487 51.1577 7.47009 56.3704 11.1802L60.945 6.60563H57.0457ZM42.339 28.3618C45.8116 31.8345 51.4585 31.8345 54.9312 28.3618C58.4039 24.8891 58.4039 19.2423 54.9312 15.7696C51.4585 12.2969 45.8116 12.2969 42.339 15.7696C38.8663 19.2423 38.8663 24.8891 42.339 28.3618Z" fill="#BCEBFF"/>
<path fill-rule="evenodd" clip-rule="evenodd" d="M21.4107 35.9305C28.7753 35.9305 34.7672 41.9223 34.7672 49.2869C34.7672 55.8947 29.9477 61.3931 23.6368 62.4542V67.4666H27.7179V71.9188H23.6368V75.9999H19.1846V71.9188H15.1035V67.4666H19.1846V62.4542C12.8774 61.3894 8.0542 55.8947 8.0542 49.2869C8.0542 41.9223 14.0461 35.9305 21.4107 35.9305ZM12.5065 49.287C12.5065 54.1955 16.5023 58.1913 21.4108 58.1913C26.323 58.1913 30.3151 54.1955 30.3151 49.287C30.3151 44.3785 26.3193 40.3826 21.4108 40.3826C16.5023 40.3826 12.5065 44.3785 12.5065 49.287Z" fill="#42BA85"/>
<path d="M19.1853 75.9999H23.6375V71.9188H27.7186V67.4666" stroke="#30446D" strokeWidth="2" stroke-linecap="round" stroke-linejoin="round"/>
<path d="M8.0542 49.287C8.0542 55.8948 12.8774 61.3895 19.1846 62.4543V67.4667" stroke="#30446D" strokeWidth="2" stroke-linecap="round" stroke-linejoin="round"/>
<path d="M23.6379 62.458C27.8675 61.7456 31.4255 59.0409 33.314 55.3456" stroke="#30446D" strokeWidth="2" stroke-linecap="round" stroke-linejoin="round"/>
<path d="M25.4438 57.2266C24.2306 57.8462 22.8616 58.195 21.4109 58.195C16.5024 58.195 12.5066 54.1992 12.5066 49.2907C12.5066 45.1502 15.3486 41.6589 19.1848 40.6683" stroke="#30446D" strokeWidth="2" stroke-linecap="round" stroke-linejoin="round"/>
<path d="M66.805 13.651C66.805 14.2033 67.2527 14.651 67.805 14.651C68.3572 14.651 68.805 14.2033 68.805 13.651H66.805ZM67.805 2.8916H68.805C68.805 2.33932 68.3572 1.8916 67.805 1.8916V2.8916ZM57.0456 2.8916V1.8916C56.4933 1.8916 56.0456 2.33932 56.0456 2.8916H57.0456ZM56.0456 6.60174C56.0456 7.15402 56.4933 7.60174 57.0456 7.60174C57.5978 7.60174 58.0456 7.15402 58.0456 6.60174H56.0456ZM48.6348 9.71644C49.1871 9.71644 49.6348 9.26873 49.6348 8.71644C49.6348 8.16416 49.1871 7.71644 48.6348 7.71644V9.71644ZM58.0771 31.5078L57.37 30.8007L57.3697 30.801L58.0771 31.5078ZM59.5166 14.3262L58.8095 13.6191C58.4643 13.9643 58.4188 14.5083 58.7019 14.906L59.5166 14.3262ZM64.7983 10.4587C65.1888 10.0682 65.1888 9.43499 64.7983 9.04447C64.4078 8.65394 63.7746 8.65394 63.3841 9.04447L64.7983 10.4587ZM41.6325 15.0587C41.2419 15.4493 41.2419 16.0824 41.6325 16.4729C42.023 16.8635 42.6562 16.8635 43.0467 16.4729L41.6325 15.0587ZM41.1667 19.4785C41.3464 18.9563 41.0687 18.3873 40.5464 18.2076C40.0242 18.0279 39.4552 18.3056 39.2755 18.8279L41.1667 19.4785ZM68.805 13.651V2.8916H66.805V13.651H68.805ZM67.805 1.8916H57.0456V3.8916H67.805V1.8916ZM56.0456 2.8916V6.60174H58.0456V2.8916H56.0456ZM48.6348 7.71644C44.9612 7.71644 41.2823 9.11174 38.4817 11.9124L39.8959 13.3266C42.3042 10.9182 45.4668 9.71644 48.6348 9.71644V7.71644ZM38.4817 11.9124C32.8822 17.5118 32.8819 26.6191 38.4819 32.2152L39.8956 30.8005C35.0776 25.9859 35.0772 18.1453 39.8959 13.3266L38.4817 11.9124ZM38.4819 32.2152C44.0809 37.8102 53.1881 37.815 58.7844 32.2147L57.3697 30.801C52.5554 35.6187 44.7146 35.616 39.8956 30.8005L38.4819 32.2152ZM58.7842 32.2149C63.8069 27.1922 64.3192 19.3493 60.3313 13.7463L58.7019 14.906C62.1342 19.7285 61.6894 26.4813 57.37 30.8007L58.7842 32.2149ZM60.2237 15.0333L64.7983 10.4587L63.3841 9.04447L58.8095 13.6191L60.2237 15.0333ZM43.0467 16.4729C46.1288 13.3908 51.1425 13.3908 54.2247 16.4729L55.6389 15.0587C51.7757 11.1955 45.4957 11.1955 41.6325 15.0587L43.0467 16.4729ZM54.2247 16.4729C57.3068 19.5551 57.3068 24.5688 54.2247 27.6509L55.6389 29.0652C59.5021 25.2019 59.5021 18.9219 55.6389 15.0587L54.2247 16.4729ZM54.2247 27.6509C51.1425 30.7331 46.1288 30.7331 43.0467 27.6509L41.6325 29.0652C45.4957 32.9284 51.7757 32.9284 55.6389 29.0652L54.2247 27.6509ZM43.0467 27.6509C40.8422 25.4465 40.2136 22.2486 41.1667 19.4785L39.2755 18.8279C38.0841 22.2908 38.8653 26.298 41.6325 29.0652L43.0467 27.6509Z" fill="#30446D"/>
<path d="M64.7522 51.6356L56.5454 43.4287C55.6958 42.5791 55.3211 41.3696 55.514 40.1824C56.4341 34.4984 54.7052 28.4732 50.3235 24.0915C45.9419 19.7098 39.9129 17.9809 34.2327 18.901C33.0454 19.094 31.8359 18.7192 30.9863 17.8696L21.4624 8.34569C20.0117 6.89502 17.6632 6.89502 16.2162 8.34569L8.34703 16.2186C6.89637 17.6693 6.89637 20.0178 8.34703 21.4647L17.8672 30.9849C18.7169 31.8346 19.0916 33.0441 18.8987 34.2313C17.9785 39.9152 19.7075 45.9405 24.0891 50.3222C28.4708 54.7039 34.4998 56.4328 40.18 55.5127C41.3673 55.3197 42.5768 55.6945 43.4264 56.5441L51.6332 64.7509C55.2543 68.372 61.1274 68.372 64.7522 64.7509C68.3733 61.1298 68.3733 55.2567 64.7522 51.6356Z" fill="#BCEBFF"/>
<path d="M35.8919 43.7626L30.6457 38.5165C28.4716 36.3424 28.4716 32.8177 30.6457 30.6473C32.8199 28.4732 36.3445 28.4732 38.5149 30.6473L43.7611 35.8934C45.9352 38.0676 45.9352 41.5922 43.7611 43.7626C41.5906 45.9368 38.066 45.9368 35.8919 43.7626Z" fill="white"/>
<rect x="1" y="7.82094" width="9.64626" height="11.1303" transform="rotate(-45 1 7.82094)" fill="white"/>
<path d="M8.87016 15.6918L8.34703 16.2149C6.89637 17.6656 6.89637 20.0141 8.34703 21.4611L17.8672 30.9813C18.7169 31.8309 19.0916 33.0404 18.8987 34.2276C17.9785 39.9116 19.7075 45.9368 24.0891 50.3185C28.4708 54.7002 34.4998 56.4291 40.18 55.509C41.3673 55.3161 42.5768 55.6908 43.4264 56.5404L47.3777 60.4917" stroke="#30446D" strokeWidth="2" stroke-linecap="round" stroke-linejoin="round"/>
<path d="M58.1934 67.4667C60.5679 67.4667 62.9423 66.5615 64.7529 64.7509V64.7509C68.374 61.1298 68.374 55.2567 64.7529 51.6319L56.5461 43.425C55.6964 42.5754 55.3217 41.3659 55.5146 40.1787C56.4348 34.4947 54.7058 28.4695 50.3242 24.0878C45.9425 19.7061 39.9135 17.9772 34.2333 18.8973C33.0461 19.0902 31.8365 18.7155 30.9869 17.8659L21.463 8.34569C20.0123 6.89502 17.6638 6.89502 16.2169 8.34569L12.0244 12.5381" stroke="#30446D" strokeWidth="2" stroke-linecap="round" stroke-linejoin="round"/>
<path d="M13.5929 6.77305L7.81996 1.00378L1.00073 7.82302L8.86993 15.6922" stroke="#30446D" strokeWidth="2" stroke-linecap="round" stroke-linejoin="round"/>
<path d="M39.0418 31.1703L31.1726 39.0432" stroke="#42BA85" strokeWidth="2" stroke-linecap="round"/>
<path d="M43.237 35.3703L37.5493 41.0579" stroke="#42BA85" strokeWidth="2" stroke-linecap="round"/>
<path d="M35.8919 43.7626L30.6457 38.5165C28.4716 36.3424 28.4716 32.8177 30.6457 30.6473V30.6473C32.8199 28.4732 36.3445 28.4732 38.5149 30.6473L43.7611 35.8934C45.9352 38.0676 45.9352 41.5922 43.7611 43.7626V43.7626" stroke="#30446D" strokeWidth="2" stroke-linecap="round" stroke-linejoin="round"/>
</svg>
