<svg width="101" height="43" viewBox="0 0 101 43" fill="none" xmlns="http://www.w3.org/2000/svg">
<path fill-rule="evenodd" clip-rule="evenodd" d="M67.1832 0.511963C67.1832 0.511963 98.9114 12.8285 100.186 24.2945C101.83 39.0837 44.1921 42.6238 44.1896 42.6238L43.8469 41.2408C29.4497 40.1931 -0.957047 36.6406 0.300245 25.3373C1.57479 13.8713 33.3029 1.55478 33.3029 1.55478C33.3029 1.55478 39.3724 5.07273 48.7824 5.07273C60.0167 5.07273 67.1832 0.511963 67.1832 0.511963ZM37.6231 23.8969L51.2043 25.5314L65.5473 23.1228C65.5473 23.1228 58.7283 20.2508 50.3858 20.2508C42.0458 20.2508 37.6231 23.8969 37.6231 23.8969Z" fill="#42BA85"/>
</svg>
