<svg width="31" height="37" viewBox="0 0 31 37" fill="none" xmlns="http://www.w3.org/2000/svg">
<path d="M15.4529 35.8378C24.18 30.6434 30.0498 20.9352 30.0498 9.81677C30.0498 8.80354 30.0005 7.80017 29.9043 6.81159C29.9043 6.81159 22.3088 5.98079 15.4529 0.803711C8.59693 5.98079 1.00141 6.81159 1.00141 6.81159C0.905263 7.80017 0.855957 8.80107 0.855957 9.81677C0.855957 20.9352 6.72578 30.6434 15.4529 35.8378Z" fill="#BCEBFF"/>
<path d="M29.734 14.242C29.835 13.5344 29.9139 12.8171 29.9657 12.0947" stroke="#30446D" strokeWidth="0.986111" stroke-linecap="round" stroke-linejoin="round"/>
<path d="M12.5345 2.74414C6.60794 6.20046 1.0019 6.81185 1.0019 6.81185C0.905751 7.80043 0.856445 8.80133 0.856445 9.81702C0.856445 20.9354 6.72874 30.6437 15.4534 35.838V35.838C22.2822 31.7728 27.3631 24.944 29.2491 16.8381" stroke="#30446D" strokeWidth="0.986111" stroke-linecap="round" stroke-linejoin="round"/>
<path d="M29.904 6.81159C29.904 6.81159 22.3085 5.9808 15.4526 0.803711C14.4862 1.53343 13.505 2.17687 12.5337 2.74388" stroke="#30446D" strokeWidth="0.986111" stroke-linecap="round" stroke-linejoin="round"/>
<path d="M13.9725 23.324L8.19385 17.5454L10.669 15.0678L13.9725 18.3713L21.4053 10.9385L23.8829 13.4161L13.9725 23.324Z" fill="white"/>
<path d="M9.83398 19.1872L13.9707 23.324L23.8811 13.416" stroke="#30446D" strokeWidth="0.986111" stroke-linecap="round" stroke-linejoin="round"/>
</svg>
