<svg width="14" height="14" viewBox="0 0 14 14" fill="none" xmlns="http://www.w3.org/2000/svg">
<path d="M12.8546 5.44273L8.90216 4.86205L7.1353 1.24105C7.08704 1.14191 7.00765 1.06166 6.90957 1.01287C6.66361 0.890129 6.36472 0.992417 6.24174 1.24105L4.47488 4.86205L0.522394 5.44273C0.413424 5.45847 0.313795 5.5104 0.237516 5.58908C0.145299 5.68489 0.0944838 5.8138 0.0962352 5.94747C0.0979866 6.08114 0.152162 6.20864 0.246857 6.30195L3.10653 9.12037L2.43092 13.1002C2.41508 13.1927 2.42521 13.288 2.46017 13.375C2.49514 13.4621 2.55353 13.5375 2.62873 13.5927C2.70393 13.6479 2.79293 13.6807 2.88563 13.6874C2.97834 13.6941 3.07104 13.6744 3.15323 13.6305L6.68852 11.7515L10.2238 13.6305C10.3203 13.6824 10.4324 13.6997 10.5398 13.6808C10.8107 13.6336 10.9928 13.374 10.9461 13.1002L10.2705 9.12037L13.1302 6.30195C13.208 6.22484 13.2594 6.12412 13.275 6.01397C13.317 5.73858 13.1271 5.48364 12.8546 5.44273Z" fill="#FFD211"/>
</svg>
