<svg width="40" height="40" viewBox="0 0 40 40" fill="none" xmlns="http://www.w3.org/2000/svg">
<path d="M2.00005 0.799988C1.68179 0.799988 1.37656 0.926416 1.15152 1.15146C0.926477 1.3765 0.800049 1.68173 0.800049 1.99999V14C0.799539 16.6569 1.77843 19.2208 3.54951 21.2013C5.3206 23.1818 7.75959 24.44 10.4 24.7352V27.2C10.4 30.3826 11.6643 33.4348 13.9148 35.6853C16.1652 37.9357 19.2174 39.2 22.4 39.2C25.5826 39.2 28.6349 37.9357 30.8853 35.6853C33.1358 33.4348 34.4 30.3826 34.4 27.2V24.68C35.8569 24.3826 37.1514 23.5549 38.0327 22.3573C38.9139 21.1597 39.3191 19.6775 39.1697 18.1982C39.0202 16.7188 38.3268 15.3476 37.2238 14.3505C36.1209 13.3533 34.6869 12.8012 33.2 12.8012C31.7132 12.8012 30.2792 13.3533 29.1763 14.3505C28.0733 15.3476 27.3799 16.7188 27.2304 18.1982C27.081 19.6775 27.4862 21.1597 28.3674 22.3573C29.2487 23.5549 30.5432 24.3826 32 24.68V27.2C32 29.7461 30.9886 32.1879 29.1883 33.9882C27.3879 35.7886 24.9461 36.8 22.4 36.8C19.854 36.8 17.4122 35.7886 15.6118 33.9882C13.8115 32.1879 12.8 29.7461 12.8 27.2V24.7352C15.4405 24.44 17.8795 23.1818 19.6506 21.2013C21.4217 19.2208 22.4006 16.6569 22.4 14V1.99999C22.4 1.68173 22.2736 1.3765 22.0486 1.15146C21.8235 0.926416 21.5183 0.799988 21.2 0.799988H16.4C16.0818 0.799988 15.7766 0.926416 15.5515 1.15146C15.3265 1.3765 15.2 1.68173 15.2 1.99999C15.2 2.31825 15.3265 2.62347 15.5515 2.84852C15.7766 3.07356 16.0818 3.19999 16.4 3.19999H20V14C20 16.2278 19.115 18.3644 17.5397 19.9397C15.9644 21.515 13.8279 22.4 11.6 22.4C9.37223 22.4 7.23566 21.515 5.66035 19.9397C4.08505 18.3644 3.20005 16.2278 3.20005 14V3.19999H6.80005C7.11831 3.19999 7.42353 3.07356 7.64858 2.84852C7.87362 2.62347 8.00005 2.31825 8.00005 1.99999C8.00005 1.68173 7.87362 1.3765 7.64858 1.15146C7.42353 0.926416 7.11831 0.799988 6.80005 0.799988H2.00005ZM33.2 15.2C34.1548 15.2 35.0705 15.5793 35.7456 16.2544C36.4208 16.9295 36.8 17.8452 36.8 18.8C36.8 19.7548 36.4208 20.6704 35.7456 21.3456C35.0705 22.0207 34.1548 22.4 33.2 22.4C32.2453 22.4 31.3296 22.0207 30.6545 21.3456C29.9793 20.6704 29.6 19.7548 29.6 18.8C29.6 17.8452 29.9793 16.9295 30.6545 16.2544C31.3296 15.5793 32.2453 15.2 33.2 15.2Z" fill="#845EF7"/>
</svg>
