<svg width="74" height="74" viewBox="0 0 74 74" fill="none" xmlns="http://www.w3.org/2000/svg">
<path d="M38.7176 8.32526H44.8843C45.7021 8.32526 46.4863 8.65011 47.0646 9.22835C47.6428 9.80658 47.9676 10.5908 47.9676 11.4086V19.8662C47.9676 31.996 38.7176 42.2265 29.4676 42.2265C20.2176 42.2265 10.9677 31.996 10.9677 19.8662V11.4086C10.9677 10.5908 11.2925 9.80658 11.8707 9.22835C12.449 8.65011 13.2332 8.32526 14.051 8.32526H20.2177" stroke="#004171" strokeWidth="3" stroke-linecap="round" stroke-linejoin="round"/>
<path d="M29.5135 42.242C14.0506 60.742 35.6339 73.0754 47.9673 60.742" stroke="#004171" strokeWidth="3" stroke-linecap="round" stroke-linejoin="round"/>
<path d="M55.3241 57.6243C59.5813 57.6243 63.0324 54.1732 63.0324 49.916C63.0324 45.6588 59.5813 42.2077 55.3241 42.2077C51.0669 42.2077 47.6158 45.6588 47.6158 49.916C47.6158 54.1732 51.0669 57.6243 55.3241 57.6243Z" stroke="#004171" strokeWidth="3" stroke-linecap="round" stroke-linejoin="round"/>
<path d="M56.095 49.916C56.095 49.7116 56.0138 49.5155 55.8692 49.371C55.7247 49.2264 55.5286 49.1452 55.3242 49.1452" stroke="#004171" strokeWidth="2" stroke-linecap="round" stroke-linejoin="round"/>
<path d="M54.5533 49.9163C54.5533 50.1207 54.6345 50.3168 54.779 50.4613C54.9236 50.6059 55.1197 50.6871 55.3241 50.6871C55.5285 50.6871 55.7246 50.6059 55.8691 50.4613C56.0137 50.3168 56.0949 50.1207 56.0949 49.9163" stroke="#004171" strokeWidth="2" stroke-linecap="round" stroke-linejoin="round"/>
<path d="M55.3241 49.1452C55.1197 49.1452 54.9236 49.2264 54.779 49.371C54.6345 49.5155 54.5533 49.7116 54.5533 49.916" stroke="#004171" strokeWidth="3" stroke-linecap="round" stroke-linejoin="round"/>
</svg>
