<svg width="74" height="74" viewBox="0 0 74 74" fill="none" xmlns="http://www.w3.org/2000/svg">
<path d="M29.3256 38.1284V41.2118" stroke="#004171" strokeWidth="3" stroke-miterlimit="10" stroke-linecap="round"/>
<path d="M44.7422 38.1284V41.2118" stroke="#004171" strokeWidth="3" stroke-miterlimit="10" stroke-linecap="round"/>
<path d="M29.3256 38.1284V41.2118" stroke="#004171" strokeWidth="3" stroke-miterlimit="10" stroke-linecap="round"/>
<path d="M44.7422 38.1284V41.2118" stroke="#004171" strokeWidth="3" stroke-miterlimit="10" stroke-linecap="round"/>
<path d="M58.0715 39.2107C57.8835 16.6869 52.5215 6.61986 37.034 6.61986C21.5464 6.61986 16.1752 16.69 15.9995 39.2261" stroke="#004171" strokeWidth="3" stroke-linecap="round" stroke-linejoin="round"/>
<path d="M56.7549 46.9037C59.1506 48.6366 62.16 46.5769 62.16 43.3425C62.2125 42.7902 62.1431 42.233 61.9567 41.7105C61.7703 41.1879 61.4714 40.7126 61.0811 40.3183C60.6909 39.9239 60.2188 39.62 59.6982 39.4281C59.1776 39.2362 58.6212 39.161 58.0684 39.2077" stroke="#004171" strokeWidth="3" stroke-linecap="round" stroke-linejoin="round"/>
<path d="M18.0436 50.7855C21.5186 60.7169 28.7151 67.38 37.0339 67.38C45.3527 67.38 52.5461 60.7138 56.0211 50.7855" stroke="#004171" strokeWidth="3" stroke-linecap="round" stroke-linejoin="round"/>
<path d="M16.0148 39.1583C15.4556 39.0957 14.8895 39.159 14.358 39.3435C13.8264 39.528 13.3428 39.829 12.9426 40.2244C12.5424 40.6199 12.2356 41.0999 12.0448 41.6293C11.8541 42.1586 11.7841 42.7239 11.84 43.2838C11.84 46.4966 14.8308 48.5933 17.245 46.8481" stroke="#004171" strokeWidth="3" stroke-linecap="round" stroke-linejoin="round"/>
<path d="M18.5339 50.616L30.5959 45.8122C32.6254 44.9577 34.7984 44.4952 37 44.4494H37.0771C39.2766 44.496 41.4474 44.9584 43.475 45.8122L55.5401 50.616" stroke="#004171" strokeWidth="3" stroke-linecap="round" stroke-linejoin="round"/>
<path d="M28.6442 29.7944C25.6826 30.2399 22.7694 30.9625 19.943 31.9528L16.1783 33.4174" stroke="#004171" strokeWidth="3" stroke-linecap="round" stroke-linejoin="round"/>
<path d="M57.9142 33.8949C53.9905 31.8849 49.7774 30.4993 45.4267 29.7878" stroke="#004171" strokeWidth="3" stroke-linecap="round" stroke-linejoin="round"/>
<path d="M37.0339 35.1994C42.1425 35.1994 46.2839 31.058 46.2839 25.9494C46.2839 20.8407 42.1425 16.6994 37.0339 16.6994C31.9253 16.6994 27.7839 20.8407 27.7839 25.9494C27.7839 31.058 31.9253 35.1994 37.0339 35.1994Z" stroke="#004171" strokeWidth="3" stroke-linecap="round" stroke-linejoin="round"/>
</svg>
