<svg width="24" height="24" viewBox="0 0 24 24" fill="none" xmlns="http://www.w3.org/2000/svg">
<path d="M13.5 4H12.19L12.75 2.32C12.801 2.17039 12.8158 2.01081 12.7932 1.85437C12.7706 1.69792 12.7113 1.54906 12.62 1.42C12.528 1.29076 12.4065 1.18527 12.2657 1.11223C12.1248 1.0392 11.9687 1.00073 11.81 1H6.19C6.03135 1.00073 5.87515 1.0392 5.73431 1.11223C5.59346 1.18527 5.47202 1.29076 5.38 1.42C5.28874 1.54906 5.22938 1.69792 5.20678 1.85437C5.18419 2.01081 5.199 2.17039 5.25 2.32L5.81 4H4.5C4.36739 4 4.24021 4.05268 4.14645 4.14645C4.05268 4.24021 4 4.36739 4 4.5C4 4.63261 4.05268 4.75979 4.14645 4.85355C4.24021 4.94732 4.36739 5 4.5 5H5V19C5 20.0609 5.42143 21.0783 6.17157 21.8284C6.92172 22.5786 7.93913 23 9 23C10.0609 23 11.0783 22.5786 11.8284 21.8284C12.5786 21.0783 13 20.0609 13 19V5H13.5C13.6326 5 13.7598 4.94732 13.8536 4.85355C13.9473 4.75979 14 4.63261 14 4.5C14 4.36739 13.9473 4.24021 13.8536 4.14645C13.7598 4.05268 13.6326 4 13.5 4ZM6.19 2H11.81L11.14 4H6.86L6.19 2ZM9 22C8.20435 22 7.44129 21.6839 6.87868 21.1213C6.31607 20.5587 6 19.7956 6 19V10H12V19C12 19.7956 11.6839 20.5587 11.1213 21.1213C10.5587 21.6839 9.79565 22 9 22ZM12 9H6V5H12V9Z" fill="#8E9AAB"/>
<path d="M15.63 15.17C15.36 15.47 14 17 14 18C14 18.5304 14.2107 19.0391 14.5858 19.4142C14.9609 19.7893 15.4696 20 16 20C16.5304 20 17.0391 19.7893 17.4142 19.4142C17.7893 19.0391 18 18.5304 18 18C18 17 16.64 15.47 16.37 15.17C16.3224 15.1198 16.265 15.0798 16.2014 15.0524C16.1377 15.0251 16.0692 15.011 16 15.011C15.9308 15.011 15.8623 15.0251 15.7986 15.0524C15.735 15.0798 15.6777 15.1198 15.63 15.17ZM16 19C15.7348 19 15.4804 18.8946 15.2929 18.7071C15.1054 18.5196 15 18.2652 15 18C15.2007 17.3562 15.5423 16.7652 16 16.27C16.4558 16.7666 16.7972 17.3571 17 18C17 18.2652 16.8946 18.5196 16.7071 18.7071C16.5196 18.8946 16.2652 19 16 19Z" fill="#8E9AAB"/>
<path d="M17.39 5.19003C17.3421 5.13322 17.2824 5.08755 17.2151 5.05623C17.1477 5.0249 17.0743 5.00867 17 5.00867C16.9257 5.00867 16.8523 5.0249 16.7849 5.05623C16.7176 5.08755 16.6579 5.13322 16.61 5.19003C16.34 5.52003 14 8.49003 14 10C14 10.7957 14.3161 11.5587 14.8787 12.1214C15.4413 12.684 16.2044 13 17 13C17.7956 13 18.5587 12.684 19.1213 12.1214C19.6839 11.5587 20 10.7957 20 10C20 8.49003 17.66 5.52003 17.39 5.19003ZM17 12C16.4696 12 15.9609 11.7893 15.5858 11.4142C15.2107 11.0392 15 10.5305 15 10C15 9.24003 16.1 7.51003 17 6.32003C17.9 7.51003 19 9.24003 19 10C19 10.5305 18.7893 11.0392 18.4142 11.4142C18.0391 11.7893 17.5304 12 17 12Z" fill="#8E9AAB"/>
</svg>
