<svg width="32" height="49" viewBox="0 0 32 49" fill="none" xmlns="http://www.w3.org/2000/svg">
<path d="M11.4669 6.40478C11.1236 5.81975 8.44338 6.71492 5.47704 8.40188C2.51071 10.0888 0.383728 11.9309 0.727097 12.5159C0.789095 12.6216 0.929781 12.678 1.13485 12.6921C1.79536 13.0163 3.13784 13.8551 4.20133 15.6713L21.4819 45.1602C22.8053 47.4181 25.7359 48.1934 28.0274 46.8894C30.3189 45.5854 31.1058 42.6979 29.7824 40.44L12.5018 10.9511C11.4383 9.13493 11.3739 7.57015 11.4169 6.84414C11.5075 6.65853 11.5289 6.51051 11.4669 6.40478Z" fill="white"/>
<path d="M28.0266 46.8871C30.3181 45.5831 31.105 42.6955 29.7816 40.4376L22.2227 27.5388L22.1869 27.5599C22.1869 26.9631 19.7309 26.4791 16.7026 26.4791C13.6742 26.4791 11.2182 26.9631 11.2182 27.5599L11.1753 27.5693L21.4811 45.1578C22.8021 47.4157 25.7327 48.1911 28.0266 46.8871Z" fill="#42BA85"/>
<path d="M9.1325 6.66331C10.3891 6.2075 11.2786 6.08297 11.4669 6.40486C11.8103 6.98989 9.68332 8.83192 6.71699 10.5189C3.75066 12.2058 1.06808 13.101 0.727097 12.516C0.383728 11.9309 2.51071 10.0889 5.47704 8.40195" stroke="#30446D" strokeWidth="1.13972" stroke-linecap="round" stroke-linejoin="round"/>
<path d="M15.5561 16.16L12.5016 10.9464C11.0327 8.43715 11.4667 6.40247 11.4667 6.40247" stroke="#30446D" strokeWidth="1.13972" stroke-linecap="round" stroke-linejoin="round"/>
<path d="M0.724075 12.5135C0.724075 12.5135 2.72945 13.1597 4.20069 15.669L21.4812 45.1578C22.8047 47.4157 25.7352 48.1911 28.0267 46.8871V46.8871" stroke="#30446D" strokeWidth="1.13972" stroke-linecap="round" stroke-linejoin="round"/>
<path d="M18.9901 28.5421C18.2938 28.6055 17.5188 28.6408 16.701 28.6408C14.1686 28.6408 12.0345 28.3024 11.405 27.8419" stroke="#30446D" strokeWidth="1.13972" stroke-linecap="round" stroke-linejoin="round"/>
<path d="M30.8535 3.66521C30.9728 3.0003 28.3355 1.98765 24.9614 1.40027C21.5873 0.815241 18.7569 0.878678 18.6377 1.54359C18.6162 1.66577 18.6878 1.79734 18.8356 1.93596C19.1313 2.60323 19.6129 4.09518 19.2433 6.16041L13.2415 39.6952C12.7813 42.2632 14.522 44.7114 17.1283 45.1649C19.7346 45.6183 22.2192 43.9032 22.6794 41.3351L28.6812 7.80038C29.0508 5.73514 30.0213 4.49695 30.5292 3.9683C30.7176 3.88607 30.8297 3.78504 30.8535 3.66521Z" fill="white"/>
<path d="M21.573 19.3954C18.9381 19.3954 16.804 19.816 16.804 20.3352L16.7086 20.3234L13.2415 39.6953C12.7813 42.2633 14.522 44.7115 17.1283 45.165C19.7346 45.6184 22.2192 43.9033 22.6794 41.3352L26.4398 20.3258L26.342 20.3352C26.342 19.816 24.2079 19.3954 21.573 19.3954Z" fill="#42BA85"/>
<path d="M20.798 2.89457C19.4174 2.42701 18.5685 1.92657 18.6376 1.54359C18.7569 0.878678 21.5873 0.815241 24.9613 1.40027C28.3354 1.9853 30.9727 3.0003 30.8535 3.66521C30.7343 4.33013 27.9038 4.39357 24.5298 3.80853" stroke="#30446D" strokeWidth="1.13972" stroke-linecap="round" stroke-linejoin="round"/>
<path d="M13.8923 43.0081C14.5862 44.1076 15.7331 44.9206 17.1304 45.1649V45.1649C19.7367 45.6184 22.2214 43.9032 22.6816 41.3352L28.6834 7.80045C29.1937 4.94812 30.8557 3.66528 30.8557 3.66528" stroke="#30446D" strokeWidth="1.13972" stroke-linecap="round" stroke-linejoin="round"/>
<path d="M18.6366 1.54382C18.6366 1.54382 19.7526 3.30832 19.2423 6.16064L14.1299 34.7238" stroke="#30446D" strokeWidth="1.13972" stroke-linecap="round" stroke-linejoin="round"/>
<path d="M21.572 21.275C18.9371 21.275 16.803 20.8544 16.803 20.3352C16.803 19.816 18.9371 19.3954 21.572 19.3954C24.2069 19.3954 26.3411 19.816 26.3411 20.3352" stroke="#30446D" strokeWidth="1.13972" stroke-linecap="round" stroke-linejoin="round"/>
</svg>
