<svg width="19" height="18" viewBox="0 0 19 18" fill="none" xmlns="http://www.w3.org/2000/svg">
<path d="M16.8137 1.5556C16.1283 2.0517 15.3693 2.43114 14.5662 2.6793C14.1351 2.1707 13.5622 1.81023 12.9249 1.64662C12.2877 1.48301 11.6168 1.52417 11.0031 1.76452C10.3894 2.00487 9.86247 2.43282 9.49352 2.99049C9.12457 3.54816 8.93144 4.20864 8.94024 4.88261V5.61705C7.68238 5.65052 6.43597 5.36427 5.31202 4.78379C4.18808 4.20332 3.22149 3.34663 2.49834 2.29004C2.49834 2.29004 -0.364731 8.9 6.07717 11.8378C4.60307 12.8645 2.84703 13.3793 1.0668 13.3066C7.50871 16.9788 15.3821 13.3066 15.3821 4.86058C15.3815 4.656 15.3623 4.45193 15.3249 4.251C16.0554 3.51178 16.5709 2.57847 16.8137 1.5556Z" fill="#42BA85"/>
</svg>
