<svg width="30" height="30" viewBox="0 0 30 30" fill="none" xmlns="http://www.w3.org/2000/svg">
<path fill-rule="evenodd" clip-rule="evenodd" d="M22 25.9564C19.9794 27.25 17.5773 28 15 28C12.4227 28 10.0206 27.25 8 25.9564V23.3077C8 21.2928 9.31514 20 10.5556 20H19.4444C20.6849 20 22 21.2928 22 23.3077V25.9564ZM24 24.3809V23.3077C24 20.5644 22.1314 18 19.4444 18H10.5556C7.86862 18 6 20.5644 6 23.3077V24.3809C3.53466 22.015 2 18.6867 2 15C2 7.8203 7.8203 2 15 2C22.1797 2 28 7.8203 28 15C28 18.6867 26.4653 22.015 24 24.3809ZM30 15C30 23.2843 23.2843 30 15 30C6.71573 30 0 23.2843 0 15C0 6.71573 6.71573 0 15 0C23.2843 0 30 6.71573 30 15Z" fill="#004171"/>
</svg>
