<svg width="58" height="58" viewBox="0 0 58 58" fill="none" xmlns="http://www.w3.org/2000/svg">
<path d="M56.75 27.4584C56.7606 31.528 55.8098 35.5426 53.975 39.1751C51.7995 43.528 48.4551 47.1892 44.3163 49.7487C40.1775 52.3082 35.4079 53.6649 30.5417 53.6668C26.4721 53.6774 22.4575 52.7266 18.825 50.8918L1.25 56.7501L7.10833 39.1751C5.27354 35.5426 4.32272 31.528 4.33333 27.4584C4.33522 22.5922 5.69189 17.8225 8.25138 13.6838C10.8109 9.54502 14.4721 6.20059 18.825 4.02509C22.4575 2.19029 26.4721 1.23948 30.5417 1.25009H32.0833C38.5101 1.60465 44.5802 4.31727 49.1315 8.86857C53.6828 13.4199 56.3954 19.49 56.75 25.9168V27.4584Z" stroke="#004171" strokeWidth="2" stroke-linecap="round" stroke-linejoin="round"/>
</svg>
