<svg width="20" height="15" viewBox="0 0 20 15" fill="none" xmlns="http://www.w3.org/2000/svg">
<path d="M15.9039 2.70784C15.9029 2.35205 15.8318 1.99993 15.6946 1.67165C15.5574 1.34337 15.3569 1.04532 15.1045 0.794574C14.8521 0.54383 14.5527 0.345285 14.2235 0.210285C13.8943 0.075284 13.5417 0.00651562 13.1859 0.00783102H2.71594C2.36032 0.00677889 2.00803 0.0757764 1.67908 0.210895C1.35012 0.346014 1.05091 0.544588 0.798706 0.795307C0.546502 1.04603 0.346166 1.34399 0.209106 1.67214C0.0720467 2.00029 0.00104902 2.35222 0 2.70784V11.7858C0.00104902 12.1415 0.0720467 12.4933 0.209106 12.8215C0.346166 13.1496 0.546502 13.4476 0.798706 13.6983C1.05091 13.949 1.35012 14.1476 1.67908 14.2827C2.00803 14.4179 2.36032 14.4868 2.71594 14.4858H13.1859C13.9043 14.4879 14.5942 14.2047 15.1039 13.6984C15.6135 13.1922 15.9013 12.5042 15.9039 11.7858C15.9039 11.7058 15.9358 11.6289 15.9924 11.5723C16.0491 11.5156 16.1258 11.4838 16.2059 11.4838C16.235 11.4836 16.2641 11.4876 16.292 11.4958L18.5859 12.1798C18.8655 12.263 19.1667 12.2318 19.4232 12.093C19.6798 11.9543 19.8707 11.7193 19.954 11.4398C19.9846 11.338 20.0001 11.2322 20 11.1258V3.32582C20 3.03409 19.884 2.75428 19.6777 2.54799C19.4714 2.3417 19.1916 2.22585 18.8999 2.22585C18.7935 2.22567 18.6878 2.24113 18.5859 2.27181L16.252 2.96779C16.2179 2.97793 16.1823 2.98128 16.147 2.97762C16.1117 2.97396 16.0775 2.96339 16.0463 2.94649C16.0151 2.92959 15.9874 2.90668 15.9651 2.87911C15.9427 2.85154 15.926 2.81987 15.9159 2.78585C15.9083 2.76053 15.9043 2.73428 15.9039 2.70784ZM5.77393 9.64785V4.93782C5.77386 4.74094 5.82664 4.54766 5.92676 4.37813C6.02688 4.2086 6.17069 4.06903 6.34314 3.97402C6.51558 3.87901 6.71043 3.83203 6.90723 3.83797C7.10402 3.84392 7.29552 3.90259 7.46191 4.00783L11.1799 6.36184C11.3365 6.46109 11.4655 6.59829 11.5548 6.7607C11.6441 6.92311 11.6909 7.10543 11.6909 7.29079C11.6909 7.47615 11.6441 7.65853 11.5548 7.82094C11.4655 7.98335 11.3365 8.12055 11.1799 8.21981L7.46191 10.5738C7.29579 10.6797 7.10434 10.7389 6.90747 10.7453C6.7106 10.7516 6.51563 10.7049 6.34302 10.61C6.17041 10.5151 6.02651 10.3755 5.92639 10.2059C5.82628 10.0363 5.77357 9.84281 5.77393 9.64583V9.64785Z" fill="#0065FF"/>
</svg>
