<svg width="48" height="24" viewBox="0 0 48 24" fill="none" xmlns="http://www.w3.org/2000/svg">
<path d="M4 0.5H23.5V23.5H4C2.067 23.5 0.5 21.933 0.5 20V4C0.5 2.067 2.067 0.5 4 0.5Z" stroke="#D2E7FF"/>
<path d="M8.19922 12.3516C8.36328 12.5156 8.66406 12.5156 8.82812 12.3516L10.25 10.9297L12.5469 13.2539C12.7109 13.418 13.0117 13.418 13.1758 13.2539L16.1836 10.2461L17.0039 11.0391C17.4141 11.4766 18.125 11.1758 18.125 10.5742V7.8125C18.125 7.59375 17.9062 7.375 17.6875 7.375H14.9258C14.3242 7.375 14.0234 8.08594 14.4609 8.49609L15.2539 9.31641L12.875 11.7227L10.5508 9.39844C10.3867 9.23438 10.0859 9.23438 9.92188 9.39844L7.89844 11.4219C7.73438 11.5859 7.73438 11.8867 7.89844 12.0508L8.19922 12.3516ZM18.5625 15.6875H6.3125V6.9375C6.3125 6.71875 6.09375 6.5 5.875 6.5H5.4375C5.19141 6.5 5 6.71875 5 6.9375V16.125C5 16.6172 5.38281 17 5.875 17H18.5625C18.7812 17 19 16.8086 19 16.5625V16.125C19 15.9062 18.7812 15.6875 18.5625 15.6875Z" fill="#005D8D" fill-opacity="0.5"/>
<path d="M24.5 0.5H44C45.933 0.5 47.5 2.067 47.5 4V20C47.5 21.933 45.933 23.5 44 23.5H24.5V0.5Z" fill="#D2E7FF" stroke="#D2E7FF"/>
<path d="M32.0439 16.4541C31.9599 16.4541 31.8852 16.4261 31.8199 16.3701C31.7639 16.3047 31.7405 16.2301 31.7499 16.1461L31.9459 14.8021H30.9519C30.8585 14.8021 30.7792 14.7694 30.7139 14.7041C30.6579 14.6387 30.6299 14.5594 30.6299 14.4661V13.3741C30.6299 13.2714 30.6579 13.1921 30.7139 13.1361C30.7792 13.0707 30.8585 13.0381 30.9519 13.0381H32.2119L32.4779 11.2461H31.3159C31.2225 11.2461 31.1432 11.2134 31.0779 11.1481C31.0219 11.0827 30.9939 11.0034 30.9939 10.9101V9.81808C30.9939 9.71541 31.0219 9.63608 31.0779 9.58008C31.1432 9.51475 31.2225 9.48208 31.3159 9.48208H32.7439L32.9539 8.12408C32.9725 8.04941 33.0052 7.98408 33.0519 7.92808C33.1079 7.86274 33.1825 7.83008 33.2759 7.83008H34.3819C34.4659 7.83008 34.5359 7.86274 34.5919 7.92808C34.6572 7.98408 34.6899 8.05408 34.6899 8.13808L34.4799 9.48208H35.9219L36.1319 8.12408C36.1505 8.04941 36.1832 7.98408 36.2299 7.92808C36.2859 7.86274 36.3605 7.83008 36.4539 7.83008H37.5599C37.6439 7.83008 37.7139 7.86274 37.7699 7.92808C37.8352 7.98408 37.8679 8.05408 37.8679 8.13808L37.6579 9.48208H38.6519C38.7452 9.48208 38.8245 9.51475 38.8899 9.58008C38.9552 9.63608 38.9879 9.71541 38.9879 9.81808V10.9101C38.9879 11.0034 38.9552 11.0827 38.8899 11.1481C38.8245 11.2134 38.7452 11.2461 38.6519 11.2461H37.4059L37.1399 13.0381H38.2879C38.3812 13.0381 38.4606 13.0707 38.5259 13.1361C38.5912 13.1921 38.6239 13.2714 38.6239 13.3741V14.4661C38.6239 14.5594 38.5912 14.6387 38.5259 14.7041C38.4606 14.7694 38.3812 14.8021 38.2879 14.8021H36.8739L36.6779 16.1601C36.6499 16.3561 36.5332 16.4541 36.3279 16.4541H35.2219C35.1379 16.4541 35.0679 16.4261 35.0119 16.3701C34.9559 16.3047 34.9279 16.2301 34.9279 16.1461L35.1239 14.8021H33.6959L33.4999 16.1601C33.4719 16.3561 33.3552 16.4541 33.1499 16.4541H32.0439ZM33.9619 13.0381H35.3899L35.6559 11.2461H34.2279L33.9619 13.0381Z" fill="#005D8D"/>
</svg>
