<svg width="24" height="24" viewBox="0 0 24 24" fill="none" xmlns="http://www.w3.org/2000/svg">
<path d="M18.4258 6.77344L16.9492 5.29688C16.2383 4.58594 15.0625 4.58594 14.3516 5.29688L5.65625 13.9375L5 18.0117C4.91797 18.4492 5.30078 18.832 5.73828 18.75L9.8125 18.0938L18.4531 9.39844C19.1641 8.6875 19.1641 7.51172 18.4258 6.77344ZM10.4688 13.2812C10.5781 13.3906 10.7422 13.4453 10.9062 13.4453C11.043 13.4453 11.207 13.3906 11.3164 13.2812L14.5703 10.0273L15.3633 10.8203L10.7422 15.4688V14.3203H9.42969V13.0078H8.28125L12.9297 8.38672L13.7227 9.17969L10.4688 12.4336C10.2227 12.6797 10.2227 13.0352 10.4688 13.2812ZM7.24219 17.3008L6.44922 16.5078L6.80469 14.5117L7.29688 13.9922H8.44531V15.3047H9.75781V16.4531L9.23828 16.9453L7.24219 17.3008ZM17.6055 8.55078L16.2656 9.89062L13.8594 7.48438L15.1992 6.14453C15.4453 5.89844 15.8555 5.89844 16.1016 6.14453L17.5781 7.62109C17.8516 7.89453 17.8516 8.30469 17.6055 8.55078Z" fill="#005D8D"/>
</svg>
