<svg width="130" height="143" viewBox="0 0 130 143" fill="none" xmlns="http://www.w3.org/2000/svg">
<path d="M111.003 33.9223H75.2272L77.2882 29.8479C78.8942 26.6628 79.6914 22.911 79.5881 19.1757C79.3137 9.25144 72.7338 1.12278 64.6086 0.670041C55.7633 0.177082 48.1515 9.02437 48.1515 19.8365C48.1515 23.2719 48.9109 26.765 50.3871 29.7007L52.5223 33.9223H18.081C11.3921 33.9223 5.95068 40.5628 5.95068 48.725V68.1948C5.95068 69.7374 6.97558 70.9878 8.23942 70.9878C9.50325 70.9878 10.5281 69.7374 10.5281 68.1948V48.725C10.5281 43.6429 13.9164 39.5082 18.081 39.5082H55.3468L58.8925 46.5169C61.1515 50.982 66.5904 50.941 68.8563 46.5166L72.4015 39.5082H111.003C115.168 39.5082 118.556 43.6429 118.556 48.725V112.597C118.556 117.903 115.019 122.219 110.672 122.219H77.0913C73.0613 122.219 69.2508 124.824 67.1473 129.017L64.542 134.209L61.9345 129.013C59.8297 124.822 56.0213 122.219 51.9952 122.219H18.4128C14.0652 122.219 10.5281 117.903 10.5281 112.597V68.5681C10.5281 67.0255 9.50325 68.0095 8.23942 68.0095C6.97558 68.0095 5.95858 66.8859 5.95858 68.4284L5.95068 112.597C5.95068 120.983 11.5414 127.805 18.4128 127.805H51.9954C54.4405 127.805 56.7534 129.387 58.0312 131.931L62.5904 141.016C63.0063 141.845 63.7458 142.351 64.5422 142.351C65.3389 142.351 66.0782 141.845 66.4941 141.016L71.0509 131.934C72.3287 129.387 74.6431 127.805 77.0913 127.805H110.672C117.543 127.805 123.134 120.983 123.134 112.597V48.725C123.134 40.5628 117.692 33.9223 111.003 33.9223ZM56.1767 10.0005C58.3986 7.41031 61.3204 6.07555 64.3999 6.25039C70.1567 6.57103 74.8186 12.3312 75.0134 19.3639C75.0864 22.0133 74.5369 24.6033 73.4239 26.8533L64.9608 43.5826C64.4676 44.5571 63.2818 44.5579 62.7886 43.5815L54.3267 26.8552C53.316 24.6971 52.7289 22.3351 52.7289 19.8362C52.7289 16.0856 53.9532 12.5927 56.1767 10.0005Z" fill="#004171"/>
<path d="M64.012 75.4045V57.5723C64.012 56.0297 62.9871 54.7793 61.7233 54.7793C60.4595 54.7793 59.4346 56.0297 59.4346 57.5723V75.4045C59.4346 76.9471 60.4595 78.1975 61.7233 78.1975C62.9871 78.1975 64.012 76.9471 64.012 75.4045Z" fill="#004171"/>
<path d="M40.5583 76.7354C40.9584 77.6364 41.7308 78.1975 42.5705 78.1975H52.3189C53.5828 78.1975 54.6077 76.9471 54.6077 75.4045C54.6077 73.862 53.5828 72.6116 52.3189 72.6116H46.7935L54.0094 59.0969C54.4678 58.2384 54.504 57.1424 54.1039 56.2414C53.7038 55.3404 52.9314 54.7793 52.0917 54.7793H42.8699C41.6061 54.7793 40.5812 56.0297 40.5812 57.5723C40.5812 59.1148 41.6061 60.3652 42.8699 60.3652H47.8687L40.6528 73.8799C40.1944 74.7384 40.1582 75.8344 40.5583 76.7354Z" fill="#004171"/>
<path d="M73.8739 75.4048V70.437C74.5527 70.433 75.2297 70.43 75.654 70.43C79.2345 70.43 82.1472 66.9195 82.1472 62.6046C82.1472 58.2898 79.2343 54.7793 75.654 54.7793H71.5851C70.3396 54.7793 69.2964 56.0521 69.2964 57.5723V75.4045C69.2964 76.9471 70.3213 78.1975 71.5851 78.1975C72.849 78.1975 73.8739 76.9474 73.8739 75.4048V75.4048ZM75.654 60.3655C76.6924 60.3655 77.5697 61.3908 77.5697 62.6049C77.5697 63.819 76.6924 64.8443 75.654 64.8443C75.2324 64.8443 74.5637 64.8474 73.8899 64.8513C73.8867 63.9936 73.8825 61.2671 73.8805 60.3658H75.654V60.3655Z" fill="#004171"/>
<path d="M92.2917 91.7305C93.5555 91.7305 94.5804 90.4801 94.5804 88.9375C94.5804 87.3949 93.5555 86.1445 92.2917 86.1445H86.1908C84.927 86.1445 83.9021 87.3949 83.9021 88.9375V106.607C83.9021 108.149 84.927 109.4 86.1908 109.4H92.2917C93.5555 109.4 94.5804 108.149 94.5804 106.607C94.5804 105.064 93.5555 103.814 92.2917 103.814H88.4796V100.565H91.8419C93.1058 100.565 94.1307 99.3148 94.1307 97.7722C94.1307 96.2297 93.1058 94.9793 91.8419 94.9793H88.4796V91.7305H92.2917Z" fill="#004171"/>
<path d="M65.2622 106.143C65.2622 107.769 66.1932 109.217 67.5882 109.217C67.7095 109.217 70.5771 109.203 71.7247 109.179C76.2779 109.081 79.5823 104.284 79.5823 97.7715C79.5823 90.9256 76.3614 86.3262 71.567 86.3262H67.5507C66.2928 86.3262 65.262 87.6095 65.262 89.137V106.143H65.2622ZM71.5672 91.9124C74.7572 91.9124 75.0051 96.3973 75.0051 97.7718C75.0051 100.634 73.966 103.544 71.6448 103.594C71.2237 103.603 70.5446 103.61 69.8607 103.616C69.8557 101.632 69.8465 93.982 69.8438 91.9127H71.5672V91.9124Z" fill="#004171"/>
<path d="M32.1976 86.0625C26.907 86.0625 22.6025 91.3152 22.6025 97.7717C22.6025 104.228 26.907 109.481 32.1976 109.481C34.6385 109.481 36.9739 108.262 38.5536 105.967C39.3666 104.785 39.2407 103.024 38.2726 102.032C37.3047 101.04 35.8607 101.193 35.048 102.375C34.3334 103.412 33.2932 103.895 32.1976 103.895C29.431 103.895 27.18 101.148 27.18 97.7717C27.18 94.3953 29.431 91.6484 32.1976 91.6484C33.2035 91.6484 34.173 92.0093 35.0013 92.6925C36.0488 93.5563 37.4713 93.22 38.1792 91.942C38.8869 90.6639 38.6115 88.9278 37.564 88.0642C35.9761 86.7546 34.1201 86.0625 32.1976 86.0625V86.0625Z" fill="#004171"/>
<path d="M41.927 97.7715C41.927 104.228 46.2314 109.481 51.5221 109.481C56.8129 109.481 61.1173 104.228 61.1173 97.7715C61.1173 91.315 56.8129 86.0625 51.5221 86.0625C46.2314 86.0622 41.927 91.315 41.927 97.7715ZM56.5399 97.7715C56.5399 101.148 54.2889 103.895 51.5221 103.895C48.7554 103.895 46.5045 101.148 46.5045 97.7715C46.5045 94.3953 48.7554 91.6484 51.5221 91.6484C54.2889 91.6482 56.5399 94.395 56.5399 97.7715Z" fill="#004171"/>
<path d="M64.06 29.825C67.8323 29.825 70.9017 26.0796 70.9017 21.476C70.9017 16.8723 67.8325 13.127 64.06 13.127C60.2875 13.127 57.2183 16.8723 57.2183 21.476C57.2183 26.0796 60.2877 29.825 64.06 29.825ZM64.06 18.7132C65.3085 18.7132 66.3242 19.9527 66.3242 21.4763C66.3242 22.9998 65.3085 24.2393 64.06 24.2393C62.8115 24.2393 61.7957 22.9998 61.7957 21.4763C61.7957 19.9527 62.8115 18.7132 64.06 18.7132Z" fill="#004171"/>
</svg>
