<svg width="50" height="50" viewBox="0 0 50 50" fill="none" xmlns="http://www.w3.org/2000/svg">
<g clip-path="url(#clip0_1050_21657)">
<path d="M21.2885 15.4746C16.0353 15.4746 11.7617 19.7482 11.7617 25.0011C11.7617 30.2543 16.0353 34.5279 21.2885 34.5279C26.5414 34.5279 30.815 30.2543 30.815 25.0011C30.815 19.7482 26.5414 15.4746 21.2885 15.4746ZM26.9446 23.207L20.1197 30.0319C19.8332 30.3184 19.4575 30.4618 19.0821 30.4618C18.7068 30.4618 18.3314 30.3187 18.0449 30.0319L15.4368 27.4238C14.8638 26.8512 14.8638 25.9223 15.4368 25.3493C16.0094 24.7764 16.9383 24.7764 17.5112 25.3493L19.0821 26.9202L24.8702 21.1326C25.4427 20.5596 26.3716 20.5596 26.9446 21.1326C27.5176 21.7052 27.5176 22.634 26.9446 23.207Z" fill="#4FAFD9"/>
<path d="M42.528 13.5663L42.5265 13.5274C42.5047 13.0471 42.4902 12.539 42.4815 11.9736C42.4407 9.21676 40.2491 6.93634 37.4919 6.78223C31.7431 6.46141 27.296 4.58687 23.4962 0.883195L23.4637 0.852296C22.2243 -0.284099 20.3548 -0.284099 19.115 0.852296L19.0826 0.883195C15.2828 4.58687 10.8356 6.46141 5.08687 6.78261C2.32999 6.93634 0.138074 9.21676 0.0972567 11.974C0.0888644 12.5355 0.0739871 13.0437 0.0522434 13.5274L0.0499546 13.6178C-0.0618157 19.4798 -0.20067 26.7754 2.23997 33.3973C3.58197 37.0388 5.61444 40.2042 8.28052 42.8062C11.317 45.7695 15.2942 48.122 20.1015 49.7982C20.2579 49.8527 20.4204 49.897 20.5859 49.9301C20.8194 49.9767 21.0544 50 21.2894 50C21.5244 50 21.7597 49.9767 21.9928 49.9301C22.1584 49.897 22.322 49.8523 22.4792 49.7974C27.2807 48.1182 31.2537 45.7645 34.2875 42.8016C36.9525 40.1989 38.9849 37.0327 40.3281 33.3904C42.7779 26.7487 42.6394 19.4394 42.528 13.5663ZM21.2886 37.4615C14.4176 37.4615 8.82793 31.8718 8.82793 25.0008C8.82793 18.1298 14.4176 12.5401 21.2886 12.5401C28.1592 12.5401 33.7493 18.1298 33.7493 25.0008C33.7493 31.8718 28.1592 37.4615 21.2886 37.4615Z" fill="#4FAFD9"/>
</g>
<defs>
<clipPath id="clip0_1050_21657">
<rect width="50" height="50" fill="white"/>
</clipPath>
</defs>
</svg>
