<svg width="50" height="50" viewBox="0 0 50 50" fill="none" xmlns="http://www.w3.org/2000/svg">
<path d="M44.326 24.8039H36.1768V11.7764L38.6282 11.7764C40.319 11.7764 40.9586 13.3399 41.3022 14.18L45.1244 23.5233C45.4192 24.1787 44.9402 24.804 44.326 24.804L44.326 24.8039Z" fill="#4FAFD9"/>
<path d="M49.107 36.3379H44.0046C43.5135 36.3379 43.1154 35.9399 43.1154 35.4488C43.1154 34.9576 43.5135 34.5596 44.0046 34.5596L48.2179 34.5596V27.189L43.8803 24.6847C43.455 24.4392 43.3094 23.8953 43.5549 23.4701C43.8004 23.0449 44.344 22.8991 44.7695 23.1446L49.5516 25.9056C49.8267 26.0644 49.9962 26.3579 49.9962 26.6756V35.4488C49.9962 35.9398 49.5982 36.3379 49.107 36.3379L49.107 36.3379ZM35.105 36.3379H17.4987C17.0076 36.3379 16.6096 35.9399 16.6096 35.4488C16.6096 34.9576 17.0076 34.5596 17.4987 34.5596L35.105 34.5596C35.5961 34.5596 35.9942 34.9577 35.9942 35.4488C35.9942 35.9399 35.5961 36.3379 35.105 36.3379V36.3379ZM8.59903 36.3379H7.01711C6.526 36.3379 6.12793 35.9399 6.12793 35.4488C6.12793 34.9576 6.52597 34.5596 7.01711 34.5596L8.59903 34.5596C9.09014 34.5596 9.48823 34.9577 9.48823 35.4488C9.48823 35.9399 9.09017 36.3379 8.59903 36.3379V36.3379Z" fill="#4FAFD9"/>
<path d="M33.53 27.6787H7.87065C7.37954 27.6787 6.98145 27.2806 6.98145 26.7895C6.98145 26.7743 7.28102 26.1888 7.77268 25.2429H14.564C16.0253 25.2429 17.2111 24.0573 17.2111 22.596C17.2111 21.1362 16.0277 19.9514 14.5684 19.949C15.054 19.1239 15.0539 18.0943 14.5684 17.2691H16.5572C18.0185 17.2691 19.2042 16.0835 19.2042 14.6222C19.2042 13.1609 18.0185 11.9752 16.5572 11.9752H14.8633C15.7892 10.3188 16.4487 9.2124 16.5571 9.2124L33.5299 9.21246C34.0211 9.21246 34.4191 9.6105 34.4191 10.1016V26.7895C34.4192 27.2806 34.0212 27.6787 33.5301 27.6787L33.53 27.6787ZM24.8714 22.5292C24.3803 22.5292 23.9822 22.1312 23.9822 21.64V19.3347H21.677C21.1859 19.3347 20.7878 18.9367 20.7878 18.4456C20.7878 17.9544 21.1858 17.5564 21.677 17.5564L23.9822 17.5564V15.2512C23.9822 14.7601 24.3802 14.362 24.8714 14.362C25.3625 14.362 25.7605 14.76 25.7605 15.2512V17.5564L28.0657 17.5564C28.5569 17.5564 28.9549 17.9545 28.9549 18.4456C28.9549 18.9367 28.5568 19.3347 28.0657 19.3347H25.7605V21.64C25.7605 22.1311 25.3624 22.5292 24.8714 22.5292V22.5292Z" fill="#4FAFD9"/>
<path d="M13.048 40.7878C10.1041 40.7878 7.70898 38.3928 7.70898 35.4488C7.70898 32.5049 10.1041 30.1099 13.048 30.1099C15.9919 30.1099 18.387 32.5049 18.387 35.4488C18.387 38.3928 15.9919 40.7878 13.048 40.7878Z" fill="#4FAFD9"/>
<path d="M39.5548 40.7878C36.6108 40.7878 34.2158 38.3928 34.2158 35.4488C34.2158 32.5049 36.6108 30.1099 39.5548 30.1099C42.4987 30.1099 44.8938 32.5049 44.8938 35.4488C44.8938 38.3928 42.4987 40.7878 39.5548 40.7878Z" fill="#4FAFD9"/>
<path d="M16.5572 15.5113H5.16554C4.67446 15.5113 4.27637 15.1132 4.27637 14.6221C4.27637 14.131 4.67441 13.7329 5.16554 13.7329L16.5572 13.7329C17.0484 13.7329 17.4464 14.131 17.4464 14.6221C17.4464 15.1133 17.0484 15.5113 16.5572 15.5113V15.5113Z" fill="#4FAFD9"/>
<path d="M12.2859 19.4981H0.89406C0.40298 19.4981 0.00488281 19.1001 0.00488281 18.6089C0.00488281 18.1178 0.402924 17.7197 0.89406 17.7197L12.2858 17.7198C12.7769 17.7198 13.175 18.1178 13.175 18.609C13.175 19.1001 12.7769 19.4981 12.2859 19.4981H12.2859Z" fill="#4FAFD9"/>
<path d="M14.5641 23.4854H3.17238C2.6813 23.4854 2.2832 23.0873 2.2832 22.5962C2.2832 22.1051 2.68124 21.707 3.17238 21.707L14.5642 21.7071C15.0553 21.7071 15.4534 22.1051 15.4534 22.5962C15.4534 23.0874 15.0552 23.4854 14.5641 23.4854H14.5641Z" fill="#4FAFD9"/>
</svg>
