<svg width="50" height="50" viewBox="0 0 50 50" fill="none" xmlns="http://www.w3.org/2000/svg">
<g clip-path="url(#clip0_1050_21649)">
<path d="M48.154 29.3014C48.0594 29.2809 47.9616 29.2793 47.8664 29.2967C47.7711 29.3141 47.6802 29.3501 47.5989 29.4027C47.5176 29.4553 47.4475 29.5235 47.3926 29.6032C47.3377 29.683 47.2991 29.7729 47.279 29.8676C46.1504 35.0478 43.2541 39.6737 39.0871 42.9516C34.9201 46.2295 29.7422 47.955 24.4419 47.832C19.1416 47.7091 14.0493 45.7453 10.0388 42.2776C6.02833 38.81 3.3497 34.0547 2.46253 28.8277C1.57536 23.6007 2.53496 18.2279 5.17669 13.6312C7.81842 9.03452 11.9776 5.50049 16.9405 3.63555C21.9034 1.7706 27.3606 1.69101 32.3758 3.41042C37.391 5.12984 41.6514 8.54106 44.4261 13.0588H37.4482C37.2531 13.0588 37.0661 13.1362 36.9282 13.2741C36.7903 13.412 36.7129 13.5991 36.7129 13.7941C36.7129 13.9891 36.7903 14.1761 36.9282 14.314C37.0661 14.4519 37.2531 14.5294 37.4482 14.5294H45.7496C45.7839 14.5328 45.8183 14.5328 45.8526 14.5294C45.9108 14.5191 45.9676 14.5018 46.0217 14.4779L46.1026 14.4044C46.1393 14.3837 46.1717 14.3563 46.1982 14.3235C46.2481 14.2602 46.2901 14.1911 46.3232 14.1176V14.0661C46.3582 13.9821 46.3781 13.8924 46.382 13.8014V5.55142C46.382 5.35641 46.3045 5.16938 46.1666 5.03149C46.0287 4.89359 45.8417 4.81613 45.6467 4.81613C45.4517 4.81613 45.2647 4.89359 45.1268 5.03149C44.9889 5.16938 44.9114 5.35641 44.9114 5.55142V11.1985C41.7267 6.61829 37.061 3.27535 31.7 1.73254C26.339 0.189731 20.6101 0.541284 15.478 2.72801C10.3458 4.91473 6.12389 8.80306 3.52306 13.7383C0.922239 18.6735 0.101378 24.3541 1.19869 29.8238C2.29601 35.2934 5.24448 40.2178 9.54764 43.7679C13.8508 47.3181 19.2458 49.277 24.8243 49.315C30.4027 49.3529 35.8239 47.4676 40.175 43.9763C44.526 40.4851 47.5412 35.6012 48.7129 30.147C48.746 29.9613 48.7064 29.7699 48.6024 29.6125C48.4984 29.4552 48.3379 29.3438 48.154 29.3014V29.3014Z" fill="#4FAFD9"/>
<path d="M24.7053 12C22.1731 11.9985 19.6974 12.7481 17.5912 14.1539C15.485 15.5596 13.8431 17.5584 12.8731 19.8975C11.903 22.2365 11.6485 24.8107 12.1416 27.2944C12.6347 29.7781 13.8533 32.0598 15.6434 33.8509C17.4334 35.6419 19.7144 36.8619 22.1978 37.3564C24.6813 37.851 27.2556 37.5979 29.5952 36.6292C31.9348 35.6605 33.9345 34.0197 35.3415 31.9144C36.7485 29.809 37.4994 27.3337 37.4994 24.8015C37.4955 21.4088 36.1466 18.156 33.7483 15.7564C31.35 13.3567 28.098 12.0058 24.7053 12V12ZM32.7935 32.7279C32.5501 31.5105 32.0357 30.3634 31.2885 29.3719C30.5413 28.3803 29.5805 27.5696 28.4774 27C27.3703 27.7669 26.0557 28.1777 24.709 28.1777C23.3623 28.1777 22.0476 27.7669 20.9406 27C19.8388 27.5677 18.8788 28.376 18.1317 29.3649C17.3845 30.3539 16.8694 31.4982 16.6244 32.7132C15.0614 31.1201 14.0037 29.1009 13.584 26.9089C13.1642 24.7169 13.4012 22.4497 14.2651 20.3919C15.129 18.334 16.5814 16.5771 18.4401 15.3416C20.2987 14.1061 22.4808 13.447 24.7127 13.447C26.9445 13.447 29.1266 14.1061 30.9853 15.3416C32.8439 16.5771 34.2963 18.334 35.1602 20.3919C36.0241 22.4497 36.2611 24.7169 35.8414 26.9089C35.4216 29.1009 34.3639 31.1201 32.8009 32.7132L32.7935 32.7279Z" fill="#4FAFD9"/>
<path d="M24.7058 18.5C23.9786 18.5 23.2678 18.7156 22.6632 19.1196C22.0586 19.5236 21.5874 20.0978 21.3092 20.7695C21.0309 21.4413 20.9581 22.1805 21.0999 22.8937C21.2418 23.6069 21.5919 24.262 22.1061 24.7761C22.6203 25.2903 23.2754 25.6404 23.9885 25.7823C24.7017 25.9242 25.4409 25.8513 26.1127 25.5731C26.7845 25.2948 27.3587 24.8236 27.7626 24.219C28.1666 23.6144 28.3822 22.9036 28.3822 22.1765C28.3822 21.2014 27.9949 20.2663 27.3054 19.5768C26.616 18.8873 25.6808 18.5 24.7058 18.5Z" fill="#4FAFD9"/>
<path d="M47.1103 19.2426C47.2804 19.2426 47.4468 19.1921 47.5882 19.0976C47.7297 19.003 47.84 18.8687 47.9051 18.7115C47.9702 18.5543 47.9873 18.3813 47.9541 18.2144C47.9209 18.0476 47.8389 17.8943 47.7186 17.7739C47.5983 17.6536 47.445 17.5717 47.2781 17.5385C47.1112 17.5053 46.9383 17.5223 46.7811 17.5875C46.6239 17.6526 46.4895 17.7628 46.395 17.9043C46.3005 18.0458 46.25 18.2121 46.25 18.3823C46.25 18.6104 46.3406 18.8292 46.502 18.9906C46.6633 19.1519 46.8821 19.2426 47.1103 19.2426Z" fill="#4FAFD9"/>
<path d="M47.1104 22.1249C47.1104 22.2951 47.1608 22.4614 47.2553 22.6029C47.3499 22.7444 47.4842 22.8546 47.6414 22.9198C47.7986 22.9849 47.9716 23.0019 48.1385 22.9687C48.3054 22.9355 48.4587 22.8536 48.579 22.7333C48.6993 22.6129 48.7812 22.4597 48.8144 22.2928C48.8476 22.1259 48.8306 21.9529 48.7655 21.7957C48.7003 21.6385 48.5901 21.5042 48.4486 21.4096C48.3071 21.3151 48.1408 21.2646 47.9706 21.2646C47.7425 21.2646 47.5237 21.3553 47.3623 21.5166C47.201 21.678 47.1104 21.8968 47.1104 22.1249V22.1249Z" fill="#4FAFD9"/>
<path d="M48.4633 26.0732C48.2914 26.0732 48.1234 26.1243 47.9805 26.22C47.8377 26.3157 47.7265 26.4516 47.661 26.6106C47.5956 26.7695 47.5788 26.9444 47.6129 27.1129C47.647 27.2814 47.7304 27.436 47.8524 27.557C47.9745 27.6781 48.1298 27.7601 48.2986 27.7928C48.4674 27.8254 48.6421 27.8072 48.8005 27.7404C48.9589 27.6736 49.0939 27.5612 49.1883 27.4176C49.2828 27.2739 49.3324 27.1054 49.331 26.9335C49.329 26.7047 49.2368 26.4859 49.0743 26.3248C48.9117 26.1636 48.6922 26.0732 48.4633 26.0732V26.0732Z" fill="#4FAFD9"/>
</g>
<defs>
<clipPath id="clip0_1050_21649">
<rect width="50" height="50" fill="white"/>
</clipPath>
</defs>
</svg>
