<svg width="50" height="50" viewBox="0 0 50 50" fill="none" xmlns="http://www.w3.org/2000/svg">
<path d="M29.8162 9.618C29.8162 9.25064 29.6762 8.89702 29.4241 8.62923L21.7298 0.453949C21.4571 0.164413 21.0768 0 20.6793 0H20.1982V10.099H29.8162V9.618Z" fill="#4FAFD9"/>
<path d="M28.3592 28.3733C28.8532 28.3733 29.34 28.4191 29.8161 28.5046V12.9845H18.7553C17.9585 12.9845 17.3126 12.3386 17.3126 11.5417V0H1.44272C0.645828 0 0 0.645828 0 1.44272V38.4724C0 39.2693 0.645828 39.9151 1.44272 39.9151H13.5769C13.8268 39.5702 14.1064 39.2399 14.4169 38.9294L22.5784 30.7682C24.1226 29.224 26.1757 28.3733 28.3592 28.3733V28.3733ZM12.0228 16.8316H13.4655V15.3889C13.4655 14.5924 14.1113 13.9462 14.9082 13.9462C15.7051 13.9462 16.3509 14.5924 16.3509 15.3889V16.8316H17.7937C18.5902 16.8316 19.2364 17.4778 19.2364 18.2743C19.2364 19.0712 18.5902 19.717 17.7937 19.717H16.3509V21.1597C16.3509 21.9566 15.7051 22.6025 14.9082 22.6025C14.1113 22.6025 13.4655 21.9566 13.4655 21.1597V19.717H12.0228C11.2259 19.717 10.5801 19.0712 10.5801 18.2743C10.5801 17.4778 11.2259 16.8316 12.0228 16.8316ZM7.21359 25.4879H22.6025C23.3994 25.4879 24.0452 26.1341 24.0452 26.9306C24.0452 27.7275 23.3994 28.3733 22.6025 28.3733H7.21359C6.41708 28.3733 5.77087 27.7275 5.77087 26.9306C5.77087 26.1341 6.41708 25.4879 7.21359 25.4879ZM16.8316 34.1442H7.21359C6.41708 34.1442 5.77087 33.4984 5.77087 32.7015C5.77087 31.9046 6.41708 31.2588 7.21359 31.2588H16.8316C17.6285 31.2588 18.2743 31.9046 18.2743 32.7015C18.2743 33.4984 17.6285 34.1442 16.8316 34.1442Z" fill="#4FAFD9"/>
<path d="M16.4571 40.9697C14.3945 43.0323 14.3945 46.3881 16.4571 48.4507C17.4562 49.4502 18.7848 50.0002 20.1978 50.0002C21.6108 50.0002 22.939 49.4502 23.9385 48.4507L26.9986 45.3906L19.5176 37.9092L16.4571 40.9697Z" fill="#4FAFD9"/>
<path d="M32.1001 32.8083C31.1011 31.8092 29.7724 31.2588 28.3594 31.2588C26.9465 31.2588 25.6182 31.8092 24.6191 32.8083L21.5586 35.8689L29.0396 43.3499L32.1001 40.2893C34.1627 38.2267 34.1627 34.8709 32.1001 32.8083V32.8083Z" fill="#4FAFD9"/>
</svg>
