<svg width="50" height="50" viewBox="0 0 50 50" fill="none" xmlns="http://www.w3.org/2000/svg">
<g clip-path="url(#clip0_1050_21710)">
<path d="M36.314 31.8967C36.314 32.3728 35.928 32.7588 35.4519 32.7588C34.9758 32.7588 34.5898 32.3728 34.5898 31.8967C34.5898 31.4207 34.9758 31.0347 35.4519 31.0347C35.928 31.0347 36.314 31.4207 36.314 31.8967Z" fill="#4FAFD9"/>
<path d="M0.107422 42.2415C0.107422 43.6672 1.26793 44.8277 2.69363 44.8277H40.6247C42.0504 44.8277 43.2109 43.6672 43.2109 42.2415V41.3794H0.107422V42.2415Z" fill="#4FAFD9"/>
<path d="M32.0041 46.5518H11.3145V48.2759H7.86621V50H35.4524V48.2759H32.0041V46.5518Z" fill="#4FAFD9"/>
<path d="M29.4175 31.8967C29.4175 31.6038 29.4461 31.3175 29.4865 31.0347H27.6934V32.7588H29.4865C29.4461 32.4759 29.4175 32.1897 29.4175 31.8967Z" fill="#4FAFD9"/>
<path d="M35.4519 36.2071C37.8285 36.2071 39.7623 34.2734 39.7623 31.8968C39.7623 29.5202 37.8285 27.5864 35.4519 27.5864C33.0754 27.5864 31.1416 29.5202 31.1416 31.8968C31.1416 34.2734 33.0754 36.2071 35.4519 36.2071ZM35.4519 29.3106C36.8776 29.3106 38.0382 30.4711 38.0382 31.8968C38.0382 33.3225 36.8776 34.483 35.4519 34.483C34.0262 34.483 32.8657 33.3225 32.8657 31.8968C32.8657 30.4711 34.0262 29.3106 35.4519 29.3106Z" fill="#4FAFD9"/>
<path d="M19.2425 17.2059C19.6091 16.223 20.5495 15.5171 21.659 15.5171C22.7686 15.5171 23.709 16.223 24.0756 17.2059C27.1425 16.9327 29.6942 14.8672 30.6893 12.0688H12.6279C13.623 14.8672 16.1755 16.9336 19.2425 17.2059V17.2059Z" fill="#4FAFD9"/>
<path d="M22.521 18.1033C22.521 18.5794 22.135 18.9653 21.6589 18.9653C21.1829 18.9653 20.7969 18.5794 20.7969 18.1033C20.7969 17.6272 21.1829 17.2412 21.6589 17.2412C22.135 17.2412 22.521 17.6272 22.521 18.1033Z" fill="#4FAFD9"/>
<path d="M40.6247 12.0688H32.5024C31.4349 15.8198 28.1125 18.6274 24.098 18.9292C23.8438 19.6768 23.2633 20.2661 22.5212 20.5308V24.1378C22.5212 25.5635 21.3607 26.724 19.935 26.724H5.71087C4.52216 26.724 3.5557 27.6913 3.5557 28.8792C3.5557 30.0671 4.52216 31.0344 5.71087 31.0344H25.9695V29.3102H30.0083C30.979 27.275 33.0513 25.862 35.4522 25.862C38.7789 25.862 41.4867 28.569 41.4867 31.8964C41.4867 35.2239 38.7789 37.9309 35.4522 37.9309C33.0513 37.9309 30.9798 36.5178 30.0083 34.4826H25.9695V32.7585H5.71087C3.57211 32.7585 1.83156 31.0179 1.83156 28.8792C1.83156 26.7404 3.57211 24.9999 5.71087 24.9999H19.935C20.4107 24.9999 20.7971 24.6126 20.7971 24.1378V20.5308C20.055 20.2661 19.4745 19.6768 19.2203 18.9292C15.2058 18.6274 11.8826 15.8198 10.8159 12.0688H2.69363C1.26793 12.0688 0.107422 13.2294 0.107422 14.6551V39.6551H43.2109V14.6551C43.2109 13.2294 42.0504 12.0688 40.6247 12.0688Z" fill="#4FAFD9"/>
<path d="M12.1763 9.48276V4.31034C12.1763 3.83553 12.5627 3.44828 13.0384 3.44828H15.6246V5.17241H18.2108C19.6365 5.17241 20.797 4.0119 20.797 2.58621C20.797 1.16051 19.6365 0 18.2108 0H15.6246V1.72414H13.0384C11.6127 1.72414 10.4521 2.88465 10.4521 4.31034V9.48276C10.4521 10.3802 10.5814 11.2465 10.8158 12.069H12.6288C12.34 11.2587 12.1763 10.3907 12.1763 9.48276Z" fill="#4FAFD9"/>
<path d="M32.8663 9.48276V4.31034C32.8663 2.88465 31.7058 1.72414 30.2801 1.72414H27.6939V0H25.1077C23.682 0 22.5215 1.16051 22.5215 2.58621C22.5215 4.0119 23.682 5.17241 25.1077 5.17241H27.6939V3.44828H30.2801C30.7558 3.44828 31.1422 3.83553 31.1422 4.31034V9.48276C31.1422 10.3907 30.9784 11.2587 30.6905 12.069H32.5035C32.7371 11.2465 32.8663 10.3802 32.8663 9.48276Z" fill="#4FAFD9"/>
<path d="M7.00391 6.89648H8.72804V8.62062H7.00391V6.89648Z" fill="#4FAFD9"/>
<path d="M3.55566 6.89648H5.2798V8.62062H3.55566V6.89648Z" fill="#4FAFD9"/>
<path d="M0.107422 6.89648H1.83156V8.62062H0.107422V6.89648Z" fill="#4FAFD9"/>
<path d="M34.5898 6.89648H36.314V8.62062H34.5898V6.89648Z" fill="#4FAFD9"/>
<path d="M38.0381 6.89648H39.7622V8.62062H38.0381V6.89648Z" fill="#4FAFD9"/>
<path d="M41.4863 6.89648H43.2105V8.62062H41.4863V6.89648Z" fill="#4FAFD9"/>
</g>
<defs>
<clipPath id="clip0_1050_21710">
<rect width="50" height="50" fill="white"/>
</clipPath>
</defs>
</svg>
