<svg width="50" height="50" viewBox="0 0 50 50" fill="none" xmlns="http://www.w3.org/2000/svg">
<g clip-path="url(#clip0_1050_21751)">
<path d="M7.74092 17.2593H1.46484C0.655859 17.2593 0 17.9151 0 18.7241V34.4143C0 35.2232 0.655859 35.8791 1.46484 35.8791H7.74092C8.5499 35.8791 9.20576 35.2232 9.20576 34.4143V18.7241C9.20576 17.9151 8.5499 17.2593 7.74092 17.2593V17.2593Z" fill="#4FAFD9"/>
<path d="M35.1986 34.2056C36.0076 34.2056 36.6635 33.5498 36.6635 32.7408V29.4986H36.7676C37.5766 29.4986 38.2324 28.8428 38.2324 28.0338C38.2324 27.2248 37.5766 26.5689 36.7676 26.5689H36.6635V18.6197C36.6635 18.0273 36.3066 17.4931 35.7593 17.2664C35.2121 17.0396 34.582 17.1648 34.163 17.5838C34.1629 17.5838 29.5895 22.1557 27.4211 24.3225C26.4472 25.3017 25.8887 26.6545 25.8887 28.0338C25.8887 28.8428 26.5445 29.4986 27.3535 29.4986H33.7338V32.7408C33.7338 33.5498 34.3895 34.2056 35.1986 34.2056ZM29.3364 26.5689C29.3862 26.5072 29.4392 26.448 29.4951 26.3917C30.5923 25.2953 32.3082 23.5803 33.7337 22.1553V26.5689H29.3364Z" fill="#4FAFD9"/>
<path d="M23.3264 32.7407C23.3264 31.9317 22.6705 31.2759 21.8615 31.2759H15.9995C16.0492 31.2142 16.1021 31.1549 16.1581 31.0986C18.3234 28.9349 22.8972 24.3626 22.8972 24.3626C23.172 24.0879 23.3265 23.7152 23.3265 23.3267V22.5422C23.3265 19.5716 20.9098 17.1548 17.9392 17.1548C14.9403 17.1548 12.5518 19.5839 12.5518 22.5405V22.5421C12.5518 23.3511 13.2076 24.0062 14.0166 24.0062C14.8256 24.0062 15.4814 23.3495 15.4814 22.5405C15.4814 21.1967 16.5635 20.0845 17.9392 20.0845C19.2943 20.0845 20.3968 21.187 20.3968 22.5422V22.7197C19.209 23.9071 15.8495 27.2653 14.0841 29.0296C13.1102 30.0088 12.5518 31.3615 12.5518 32.7407C12.5518 33.5497 13.2076 34.2056 14.0166 34.2056H21.8616C22.6705 34.2056 23.3264 33.5497 23.3264 32.7407V32.7407Z" fill="#4FAFD9"/>
<path d="M24.9996 2.92969C32.3518 2.92969 38.5467 7.9793 40.2985 14.7925C40.8891 14.4968 41.5546 14.3294 42.2588 14.3294H43.2015C41.2188 6.11836 33.8108 0 24.9996 0C16.1884 0 8.78037 6.11836 6.79785 14.3294H7.74053C8.44473 14.3294 9.11016 14.4968 9.70078 14.7925C11.4525 7.9793 17.6475 2.92969 24.9996 2.92969Z" fill="#4FAFD9"/>
<path d="M40.0131 38.189C38.5488 41.5646 35.1841 43.9321 31.2764 43.9321H29.3629C28.7495 42.1104 27.0263 40.7941 25.0004 40.7941C22.4624 40.7941 20.3975 42.859 20.3975 45.397C20.3975 47.935 22.4623 49.9998 25.0003 49.9998C27.0262 49.9998 28.7494 48.6836 29.3628 46.8618H31.2763C36.5937 46.8618 41.1424 43.51 42.9224 38.8084H42.2594C41.4391 38.8084 40.6709 38.5818 40.0131 38.189V38.189Z" fill="#4FAFD9"/>
<path d="M48.5349 17.2593H42.2588C41.4498 17.2593 40.7939 17.9151 40.7939 18.7241V34.4143C40.7939 35.2232 41.4498 35.8791 42.2588 35.8791H48.5349C49.3438 35.8791 49.9997 35.2232 49.9997 34.4143V18.7241C49.9997 17.9151 49.3438 17.2593 48.5349 17.2593V17.2593Z" fill="#4FAFD9"/>
</g>
<defs>
<clipPath id="clip0_1050_21751">
<rect width="50" height="50" fill="white"/>
</clipPath>
</defs>
</svg>
