<svg width="58" height="72" viewBox="0 0 58 72" fill="none" xmlns="http://www.w3.org/2000/svg">
<path d="M50.8059 10.4745C54.5329 15.0163 56.6937 20.7249 56.9446 26.6922V26.7363C57.0403 28.3065 57.012 29.8823 56.8599 31.4477C56.716 32.9512 56.4721 34.4425 56.1297 35.9109C54.627 42.4949 51.5619 47.8523 50.0841 50.3345C49.7701 50.874 49.1495 51.6609 48.7766 52.1554C47.749 53.5086 47.8595 56.7345 47.8761 57.1495M39.2431 2.3609C40.5777 2.82642 41.8753 3.39968 43.1241 4.07544M13.1904 61.8877C6.71111 61.7727 5.44692 56.2755 5.2508 55.0995C5.23378 54.9886 5.22515 54.8764 5.22502 54.7641V47.1891C5.22272 46.5967 4.99725 46.0289 4.59707 45.6078C4.39793 45.3996 4.16114 45.2346 3.90038 45.1222C3.63961 45.0099 3.36005 44.9524 3.07783 44.9532C1.89651 44.8027 1.36983 44.0523 1.13228 43.415C0.952783 42.9249 0.95607 42.3827 1.14149 41.895L5.04732 31.3595C5.18267 30.9886 5.21673 30.935 5.27658 30.5372C5.28487 30.4587 5.32722 30.29 5.32722 30.2114C5.353 29.4591 5.23423 28.6991 5.23423 27.94C5.23423 13.0641 16.8164 1 31.1156 1C32.9838 1 34.8005 1.20318 36.5582 1.6009M20.9598 71V64.1323C20.9601 63.8385 20.9048 63.5476 20.797 63.2762C20.6891 63.0047 20.5309 62.7581 20.3314 62.5504C20.1318 62.3427 19.8949 62.178 19.6341 62.0658C19.3733 61.9536 19.0938 61.896 18.8116 61.8964H15.984" stroke="#30446D" stroke-width="1.61" stroke-linecap="round" stroke-linejoin="round"/>
<path d="M7.65369 38.351C8.73915 38.351 9.78015 37.9022 10.5477 37.1033C11.3152 36.3044 11.7464 35.2209 11.7464 34.091C11.7464 32.9612 11.3152 31.8777 10.5477 31.0788C9.78015 30.2799 8.73915 29.8311 7.65369 29.8311C6.56822 29.8311 5.52722 30.2799 4.75968 31.0788C3.99214 31.8777 3.56094 32.9612 3.56094 34.091C3.56094 35.2209 3.99214 36.3044 4.75968 37.1033C5.52722 37.9022 6.56822 38.351 7.65369 38.351V38.351Z" fill="#42BA85"/>
</svg>
