<svg width="72" height="71" viewBox="0 0 72 71" fill="none" xmlns="http://www.w3.org/2000/svg">
<path d="M18.3095 14.2158C18.3095 14.2158 19.7432 17.2201 13.7692 20.5951C13.7692 20.5951 19.466 23.258 13.7692 29.8518C13.7692 29.8518 18.1279 35.0508 15.1552 39.8498C15.1552 39.8498 20.1542 43.2541 20.1829 49.8674C20.1829 49.8674 24.4173 55.0371 32.5802 55.6614C32.5802 55.6614 35.2087 50.3941 42.0908 51.8475C42.0908 51.8475 45.8759 46.7168 52.4426 50.5697C52.4426 50.5697 52.2705 47.6825 56.2851 45.8389C56.2851 45.8389 54.966 41.5373 56.5814 36.5724C56.5814 36.5724 53.3889 29.9006 58.0725 25.2088C58.0725 25.2088 54.3925 20.7024 55.7498 15.162C55.7498 15.162 52.6242 18.2541 46.6024 14.2158C46.6024 14.2158 43.6775 18.4199 37.0631 14.4792C37.0631 14.4792 33.4787 17.7663 27.5333 14.5767C27.5238 14.5865 23.2416 16.6739 18.3095 14.2158V14.2158Z" fill="#42BA85"/>
<path d="M36.9771 69.4928C36.9771 69.4928 30.0377 63.533 32.2265 56.5782C32.2265 56.5782 33.689 50.4916 42.0813 51.8572C42.0813 51.8572 46.7075 46.6387 52.4235 50.6184C52.4235 50.6184 52.9109 46.8923 56.5623 46.5217C56.5623 46.5217 53.7616 41.0593 56.5623 36.5821C56.5623 36.5821 52.9109 29.8713 58.3879 25.5306C58.3879 25.5306 53.5227 21.6777 56.8012 14.2255C56.8012 14.2255 52.2992 19.444 46.5737 14.2255C46.5737 14.2255 42.4349 19.3172 36.719 14.2255C36.719 14.2255 31.9685 17.9516 26.979 14.2255C26.979 14.2255 21.2535 16.586 18.2139 13.4842C18.2139 13.4842 19.3131 19.2002 13.3487 20.3121C13.3487 20.3121 20.2881 24.7796 13.3487 29.5006C13.3487 29.5006 19.0742 33.968 14.9354 40.1814C14.9354 40.1814 19.9249 42.1713 20.1734 49.8673C20.1734 49.8673 19.5616 56.0808 13.3582 56.6953C13.3582 56.6953 8.78931 57.3488 4.73654 53.2521C1.90725 50.3843 0.549953 46.229 1.41021 42.2591C1.83078 40.3082 2.7675 38.3086 4.71742 37.0698C4.71742 37.0698 -3.31165 30.1151 4.22994 24.1553C4.22994 24.1553 -1.37128 20.1853 4.84168 12.8502C4.84168 12.8502 4.40199 11.3578 4.29685 9.36794C3.8476 1.25245 13.7023 -3.2735 18.9786 2.81312C19.1411 2.99845 19.3036 3.19353 19.4565 3.40813C19.4565 3.40813 23.9585 -1.81037 29.0723 3.53493C29.0723 3.53493 36.2506 -0.317977 40.3894 4.03239C40.3894 4.03239 45.3789 -2.42488 51.9551 3.16427C51.9551 3.16427 56.9446 -1.68356 61.6951 4.286C61.6951 4.286 65.0023 2.52049 68.0132 5.07609C69.9249 6.70504 70.68 9.33867 70.2404 11.8357C69.881 13.8815 69.0378 15.8067 67.7838 17.4444C67.7838 17.4444 75.335 21.0437 67.2964 31.4807C67.2964 31.4807 71.4352 36.2017 67.1721 41.0496C67.1721 41.0496 70.9955 48.2579 68.6345 55.0858C68.6345 55.0858 68.2713 59.5533 60.118 60.9286C60.118 60.9286 56.8299 67.5127 49.8905 64.4109C49.8905 64.4109 47.7016 62.1771 47.0899 66.5178V70" fill="#BCEBFF"/>
<path d="M60.1103 60.9189C60.1103 60.9189 56.8222 67.5029 49.8828 64.4011C49.8828 64.4011 47.6939 62.1674 47.0822 66.508V69.9903M68.8257 29.2665C68.3956 29.9688 67.8794 30.7004 67.2868 31.4807C67.2868 31.4807 71.4256 36.2017 67.1625 41.0496C67.1625 41.0496 68.4434 43.4589 69.0647 46.8045M27.648 2.29616C28.1164 2.62781 28.5848 3.02773 29.0627 3.53495C29.0627 3.53495 36.2411 -0.317962 40.3798 4.03241C40.3798 4.03241 45.3693 -2.42487 51.9455 3.16429C51.9455 3.16429 56.935 -1.68355 61.6856 4.28602C61.6856 4.28602 64.9928 2.52051 68.0037 5.07611C69.9154 6.70506 70.6705 9.33869 70.2308 11.8358C69.8715 13.8815 69.0282 15.8068 67.7743 17.4444C67.7743 17.4444 72.0373 19.4831 70.7469 24.9259M19.4565 3.40814C19.4565 3.40814 20.8425 1.7987 22.9549 1.28173M4.72792 37.0699C4.72792 37.0699 -3.30115 30.1151 4.24044 24.1553C4.24044 24.1553 -1.36079 20.1854 4.85218 12.8502C4.85218 12.8502 4.41249 11.3578 4.30735 9.36795C4.10662 5.81743 5.88449 2.95945 8.38879 1.36951" stroke="#30446D" stroke-width="1.5" stroke-linecap="round" stroke-linejoin="round"/>
<path d="M36.9761 69.4928C36.9761 69.4928 30.0367 63.533 32.2255 56.5783C32.2255 56.5783 33.688 50.4917 42.0803 51.8573C42.0803 51.8573 46.7065 46.6388 52.4225 50.6185C52.4225 50.6185 52.9099 46.8924 56.5613 46.5217C56.5613 46.5217 53.7606 41.0594 56.5613 36.5822C56.5613 36.5822 52.9099 29.8713 58.3869 25.5307C58.3869 25.5307 53.5217 21.6778 56.8002 14.2256C56.8002 14.2256 52.2982 19.4441 46.5727 14.2256C46.5727 14.2256 42.4339 19.3173 36.718 14.2256C36.718 14.2256 31.9675 17.9517 26.978 14.2256C26.978 14.2256 21.2525 16.5861 18.2129 13.4843C18.2129 13.4843 19.3121 19.2002 13.3477 20.3122C13.3477 20.3122 20.2871 24.7796 13.3477 29.5006C13.3477 29.5006 19.0732 33.9681 14.9344 40.1815C14.9344 40.1815 19.9239 42.1713 20.1724 49.8674C20.1724 49.8674 19.5606 56.0808 13.3572 56.6953C13.3572 56.6953 8.78831 57.3489 4.73555 53.2521C1.90625 50.3844 0.548957 46.2291 1.40921 42.2591" stroke="#30446D" stroke-width="1.5" stroke-linecap="round" stroke-linejoin="round"/>
<path d="M12.3947 56.7343C12.3947 56.7343 11.0565 63.4062 16.4093 65.7667M26.9981 14.2158C26.9981 14.2158 25.7841 18.4687 22.9549 19.5904M43.7616 16.908C43.7616 16.908 42.5477 21.1608 39.7184 22.2825M16.4054 25.5307C16.4054 25.5307 26.2793 30.9638 32.9606 15.7765M31.3959 30.2517C34.4546 31.5685 39.272 30.798 46.6033 23.3165" stroke="#30446D" stroke-width="1.5" stroke-linecap="round" stroke-linejoin="round"/>
<path d="M26.673 24.4089C26.673 24.4089 26.998 25.5892 27.8105 26.9353M15.7965 32.7C15.7965 32.7 19.7633 36.4554 31.8069 36.6407M39.7107 28.9446C39.7107 28.9446 43.8591 36.5236 55.4056 31.1296" stroke="#30446D" stroke-width="1.5" stroke-linecap="round" stroke-linejoin="round"/>
<path d="M18.5484 43.6344C18.5484 43.6344 41.0585 49.2918 44.2414 32.4854M20.1829 49.8673C20.1829 49.8673 24.2357 54.5688 32.5802 55.6613" stroke="#30446D" stroke-width="1.5" stroke-linecap="round" stroke-linejoin="round"/>
<path d="M39.0426 41.2056C39.0426 41.2056 44.0704 43.8978 44.2424 49.8674M48.601 41.8592C48.601 41.8592 54.2787 41.2056 56.2765 37.1089" stroke="#30446D" stroke-width="1.5" stroke-linecap="round" stroke-linejoin="round"/>
</svg>
