<svg width="58" height="72" viewBox="0 0 58 72" fill="none" xmlns="http://www.w3.org/2000/svg">
<path d="M39.1611 71V64.4143C39.1611 63.2247 40.021 62.2635 41.0853 62.2635H46.1003C51.8901 62.1493 53.014 56.8865 53.1928 55.754C53.2098 55.6493 53.2184 55.5351 53.2184 55.4304V48.169C53.2184 47.579 53.4397 47.0365 53.7803 46.6558C54.1294 46.2656 54.6062 46.0277 55.1426 46.0277C56.1899 45.885 56.6667 45.1617 56.8796 44.5526C57.0498 44.0863 57.0328 43.5628 56.871 43.0965L53.3801 32.9991C53.2609 32.647 53.2269 32.5899 53.1758 32.2092C53.1673 32.1331 53.1332 31.9713 53.1332 31.8951C53.1077 31.1719 53.2098 30.4486 53.2098 29.7158C53.2098 15.45 42.8648 3.88696 30.1017 3.88696C17.6962 3.88696 7.57258 14.8123 7.01914 28.5262V28.5642C6.43164 38.6807 11.2508 47.7788 13.1495 51.1859C13.4305 51.6998 13.9839 52.4611 14.316 52.9275C15.227 54.2217 15.1334 57.3147 15.1163 57.7144V70.9905" fill="#BDE3F8"/>
<path d="M12.5101 12.9756C9.18472 17.3324 7.25506 22.805 7.02679 28.5262V28.5642C6.94165 30.0965 6.97571 31.6096 7.10342 33.0848C7.23114 34.5599 7.46103 35.9874 7.75052 37.3674C9.0958 43.6866 11.8289 48.8162 13.1487 51.1954C13.4296 51.7093 13.9831 52.4706 14.3151 52.937C15.2262 54.2313 15.1325 57.3243 15.1155 57.724M23.2135 5.04802C21.8768 5.51435 20.5911 6.11391 19.365 6.83719M27.1387 4.09634C26.5427 4.18199 25.9637 4.28667 25.3847 4.42942M46.0909 62.2635C51.8807 62.1493 53.0046 56.8865 53.1834 55.754C53.2005 55.6493 53.209 55.5351 53.209 55.4304V48.169C53.209 47.579 53.4304 47.0365 53.7709 46.6558C54.12 46.2656 54.5968 46.0277 55.1332 46.0277C56.1805 45.885 56.6573 45.1617 56.8702 44.5526C57.0405 44.0863 57.0234 43.5628 56.8617 43.0965L53.3708 32.9991C53.2516 32.647 53.2175 32.5899 53.1664 32.2092C53.1579 32.1331 53.1238 31.9713 53.1238 31.8951C53.0983 31.1719 53.2005 30.4486 53.2005 29.7158C53.2005 15.45 42.8554 3.88696 30.0923 3.88696M39.161 71V64.4143C39.161 63.2247 40.021 62.2635 41.0853 62.2635H42.4391" stroke="#30446D" stroke-width="1.5" stroke-linecap="round" stroke-linejoin="round"/>
<path d="M17.3633 11.7669C26.7206 15.4119 39.8754 19.3138 53.6347 19.4661C54.4521 19.4756 55.2695 19.3043 55.9762 18.9046C57.381 18.1052 58.3517 16.4016 51.6083 13.3372M20.3757 2.70685C20.3757 2.70685 9.16222 0.622657 3.66191 1.06043C3.66191 1.06043 -1.41268 1.47917 3.3639 5.21931C3.56825 5.37158 3.78111 5.51434 4.00249 5.63805C5.17747 6.2852 9.31548 8.50264 15.3777 10.977" stroke="#30446D" stroke-width="1.5" stroke-linecap="round" stroke-linejoin="round"/>
<path d="M40.8461 11.9763C31.4121 15.431 18.1296 19.0759 4.31923 18.9427C3.50185 18.9332 2.68447 18.7428 1.98628 18.3336C0.598435 17.5056 -0.338147 15.7831 6.47338 12.8614M49.7266 8.35039C48.0322 9.12126 45.9292 10.0254 43.5026 10.9771M37.9171 2.89722C37.9171 2.89722 49.1732 1.05095 54.665 1.61244C54.665 1.61244 59.731 2.14539 54.8693 5.77132" stroke="#30446D" stroke-width="1.5" stroke-linecap="round" stroke-linejoin="round"/>
</svg>
