<svg width="71" height="72" viewBox="0 0 71 72" fill="none" xmlns="http://www.w3.org/2000/svg">
<path d="M8.53192 21.3592L13.186 29.5221L14.7407 27.2093L19.8967 31.3782L14.5046 21.9423L13.2254 25.324L8.53192 21.3592V21.3592ZM0 37.4128L11.286 40.1144L10.4792 36.8006L18.5673 35.722L5.51017 32.6123L7.50762 36.5771L0 37.4128V37.4128ZM7.07566 50.5123L16.561 50.2499L15.213 47.8108L21.3529 45.255L10.3916 45.5563L12.822 48.2578L7.07566 50.5123V50.5123Z" fill="#42BA85"/>
<path d="M24.5501 60.0941C24.5501 63.2232 25.6325 65.5457 27.0789 67.2463C30.936 71.8039 38.0009 72.2412 42.5763 68.393C45.3215 66.0802 46.4039 63.3786 46.4039 63.3786C48.7752 55.4004 57.3258 48.598 57.3258 48.598C75.1355 32.1751 68.9661 15.7619 68.9661 15.7619C65.6403 2.15708 51.8649 1.22419 51.8649 1.22419C30.4933 -1.11778 27.4036 15.7619 27.4036 15.7619L27.6988 49.0062C27.6988 49.0062 27.6103 54.8951 26.1835 56.5665C26.1835 56.5762 24.5206 59.2098 24.5501 60.0941V60.0941Z" fill="#BDE3F8"/>
<path d="M27.4025 15.7623C27.4025 15.7623 30.4921 -1.12706 51.8647 1.22462C51.8647 1.22462 65.6402 2.16724 68.9659 15.7623C68.9659 15.7623 74.6336 30.8442 59.4314 46.548C58.5163 47.4906 57.5412 48.3847 56.5474 49.2495C54.5008 51.0376 48.9414 56.2852 46.7275 62.3782C46.3536 63.418 45.9108 64.4383 45.2909 65.3615C44.6808 66.2653 43.7854 67.3634 42.5752 68.3837C38.0785 72.1639 30.866 71.7072 27.0778 67.237C25.6314 65.5364 24.549 63.2139 24.549 60.0848" stroke="#30446D" stroke-width="1.637" stroke-linecap="round" stroke-linejoin="round"/>
<path d="M30.011 46.9559C30.011 46.9559 29.4501 56.7125 36.1017 53.6611C36.1017 53.6611 38.8076 52.7671 39.8309 49.0452C40.0375 48.2872 40.2835 47.5293 40.7066 46.8587C41.6414 45.4011 43.6388 43.302 47.6632 42.5052C49.1195 42.2234 50.4675 41.5723 51.5203 40.5422C53.9015 38.21 57.1191 33.5358 54.61 26.6362C54.2361 25.6158 53.626 24.7024 52.8388 23.9541C49.6508 20.8833 40.7755 17.0837 35.6983 24.5566" stroke="#30446D" stroke-width="1.637" stroke-linecap="round" stroke-linejoin="round"/>
<path d="M36.4244 32.1754C36.4244 32.1754 31.7014 19.7173 42.6823 12.9441C42.6823 12.9441 55.1885 5.67524 60.1772 24.6734" stroke="#30446D" stroke-width="1.637" stroke-linecap="round" stroke-linejoin="round"/>
</svg>
