<svg width="58" height="72" viewBox="0 0 58 72" fill="none" xmlns="http://www.w3.org/2000/svg">
<path d="M7.19657 10.4851C3.47447 15.0302 1.31389 20.7376 1.05654 26.7046V26.7425C0.956335 28.3455 0.992771 29.9201 1.13853 31.4566C1.28429 32.9932 1.53936 34.4824 1.86732 35.9146C3.37044 42.4973 6.43134 47.8564 7.91625 50.332C8.23509 50.8726 8.85456 51.6599 9.22807 52.1531C10.2484 53.5 10.1482 56.7344 10.1299 57.1518M18.1102 2.5935C16.9896 3.01084 15.9147 3.51355 14.8671 4.08266M44.7938 61.8943C51.2709 61.7805 52.5371 56.2886 52.7376 55.103C52.7558 54.9892 52.7649 54.8753 52.7649 54.7615V47.1829C52.7649 46.5664 53.0109 46.0068 53.3935 45.6084C53.593 45.4002 53.8302 45.2352 54.0913 45.1228C54.3524 45.0105 54.6323 44.9531 54.9148 44.9539C56.09 44.8022 56.6275 44.0528 56.8643 43.4173C57.0556 42.9241 57.0374 42.3835 56.8552 41.8997L52.9471 31.3713C52.8104 31.0014 52.774 30.9444 52.7193 30.5461C52.7102 30.4607 52.6738 30.2995 52.6738 30.2141C52.6464 29.4648 52.7649 28.706 52.7649 27.9377C52.7649 13.065 41.1863 1 26.8929 1C24.8615 1 22.8937 1.24661 20.9989 1.7019M37.0295 71V64.1328C37.0295 62.8997 37.9951 61.8943 39.1794 61.8943H41.0651" stroke="#30446D" stroke-width="1.5" stroke-linecap="round" stroke-linejoin="round"/>
<path d="M32.1083 20.397C32.1083 22.1897 30.7145 23.6504 28.9927 23.6504C27.271 23.6504 25.8772 22.1897 25.8772 20.397C25.8772 20.397 25.8772 20.3022 25.8954 20.1409C25.8954 20.103 25.9045 20.0556 25.9045 20.0082C25.9045 19.9607 25.9136 19.9038 25.9227 19.8469C26.0594 18.3577 27.4805 14.3076 28.9927 12.5718C28.9927 12.5718 31.2611 15.1708 32.081 19.9892C32.0992 20.122 32.0992 20.2548 32.1083 20.397V20.397Z" fill="#42BA85"/>
<path d="M32.1083 20.397C32.1083 22.1897 30.7145 23.6504 28.9927 23.6504C27.271 23.6504 25.8772 22.1897 25.8772 20.397C25.8772 20.397 25.8772 20.3022 25.8954 20.1409C25.8954 20.103 25.9045 20.0556 25.9045 20.0082C25.9045 19.9607 25.9136 19.9038 25.9227 19.8469C26.0594 18.3577 27.4805 14.3076 28.9927 12.5718" stroke="#30446D" stroke-width="1.5" stroke-linecap="round" stroke-linejoin="round"/>
<path d="M38.8441 30.6789C38.8441 32.0258 37.7965 33.126 36.5029 33.126C35.2093 33.126 34.1617 32.0258 34.1617 30.6789C34.1617 30.6789 34.1617 30.603 34.1799 30.4892C34.1799 30.4607 34.189 30.4228 34.189 30.3848C34.189 30.3469 34.1981 30.309 34.2072 30.2615C34.3074 29.1423 35.3824 26.0976 36.512 24.7886C36.512 24.7886 38.2155 26.7426 38.835 30.3659C38.835 30.4702 38.835 30.5745 38.8441 30.6789V30.6789Z" fill="#42BA85"/>
<path d="M38.8441 30.6789C38.8441 32.0258 37.7965 33.126 36.5029 33.126C35.2093 33.126 34.1617 32.0258 34.1617 30.6789C34.1617 30.6789 34.1617 30.603 34.1799 30.4892C34.1799 30.4607 34.189 30.4228 34.189 30.3848C34.189 30.3469 34.1981 30.309 34.2072 30.2615C34.3074 29.1423 35.3824 26.0976 36.512 24.7886" stroke="#30446D" stroke-width="1.5" stroke-linecap="round" stroke-linejoin="round"/>
<path d="M29.1768 33.0407C29.1768 34.0176 28.4116 34.8144 27.4733 34.8144C26.5349 34.8144 25.7697 34.0176 25.7697 33.0407C25.7697 33.0407 25.7697 32.9932 25.7788 32.8984C25.7788 32.8794 25.7879 32.851 25.7879 32.8225C25.7879 32.794 25.797 32.7656 25.797 32.7371C25.8699 31.9214 26.6534 29.7114 27.4733 28.7629C27.4733 28.7629 28.7122 30.1856 29.1586 32.813C29.1768 32.8889 29.1768 32.9648 29.1768 33.0407V33.0407Z" fill="#42BA85"/>
<path d="M29.1768 33.0407C29.1768 34.0176 28.4116 34.8144 27.4733 34.8144C26.5349 34.8144 25.7697 34.0176 25.7697 33.0407C25.7697 33.0407 25.7697 32.9932 25.7788 32.8984C25.7788 32.8794 25.7879 32.851 25.7879 32.8225C25.7879 32.794 25.797 32.7656 25.797 32.7371C25.8699 31.9214 26.6534 29.7114 27.4733 28.7629" stroke="#30446D" stroke-width="1.5" stroke-linecap="round" stroke-linejoin="round"/>
</svg>
