<svg width="72" height="72" viewBox="0 0 72 72" fill="none" xmlns="http://www.w3.org/2000/svg">
<path d="M37.2329 50.0547C45.2462 50.0547 51.7432 42.6638 51.7432 33.5461C51.7432 24.4284 45.2462 17.0375 37.2329 17.0375C29.2187 17.0375 22.7226 24.4294 22.7226 33.5461C22.7226 42.6638 29.2187 50.0547 37.2329 50.0547Z" fill="#BDE3F8"/>
<path d="M33.6029 52.8141H16.2898V44.2089M38.9847 52.8141H36.7269M37.2329 50.0547C45.2462 50.0547 51.7432 42.6638 51.7432 33.5461C51.7432 24.4284 45.2462 17.0375 37.2329 17.0375C29.2187 17.0375 22.7226 24.4294 22.7226 33.5461C22.7226 42.6638 29.2187 50.0547 37.2329 50.0547Z" stroke="#30446D" stroke-width="1.5" stroke-linecap="round" stroke-linejoin="round"/>
<path d="M12.9411 25.5658C7.80262 27.556 1.72989 32.8153 1 46.4587V65.5248C1 65.5248 1.85641 72.7263 10.6443 70.611L39.1589 63.4096C39.1589 63.4096 46.0199 61.7174 51.1681 62.9865C51.1681 62.9865 65.4643 65.9479 67.1771 55.785C67.1771 55.785 66.8948 51.8334 62.3208 52.8237H50.6231M20.2896 24.4408C20.2896 24.4408 18.6352 24.2485 16.2898 24.6524M56.0233 44.2088V52.8141M70.884 64.2557C70.884 64.2557 72.0226 70.1217 67.1664 70.9966H26.2923M54.1645 24.3928C54.1645 24.3928 70.0275 25.0081 70.884 42.5166V58.9579M41.1636 1H48.6475L41.1636 10.3167H48.6475M52.2756 7.72073H59.7691L52.2756 17.0375H59.7691" stroke="#30446D" stroke-width="1.5" stroke-linecap="round" stroke-linejoin="round"/>
</svg>
