<svg width="70" height="72" viewBox="0 0 70 72" fill="none" xmlns="http://www.w3.org/2000/svg">
<path d="M10.6765 1L4.32024 6.76772L10.8142 12.6604C11.7464 13.5064 12.6787 14.3331 13.6745 15.1117C15.0517 16.1883 17.9967 19.1395 17.2975 24.3881C17.0539 26.2338 16.556 28.3102 19.7129 31.492C22.8274 34.6451 28.2832 35.1545 31.8745 32.4533C33.1669 31.4824 34.2898 30.0693 34.8195 28.0314C34.9784 27.4354 35.5293 26.9836 36.1967 26.8682C37.8705 26.5895 40.9109 25.657 42.4682 22.4944C43.8453 19.7067 43.3792 16.3902 41.2923 13.9966C39.682 12.1509 36.8429 9.77655 32.7008 10.9109C30.7197 11.4588 29.8405 12.2086 25.0097 8.15198L17.4882 2.14393M32.3406 64.1758L33.2304 71L45.9323 69.8657L45.0424 55.4079C45.0424 55.4079 44.9047 50.9187 48.0087 48.2079C49.46 46.9486 50.6465 45.4201 50.9855 43.6225C51.3563 41.6327 51.0385 39.0756 48.4324 36.5475C48.0298 36.1533 47.3201 36.1245 46.9281 36.5282C45.7416 37.7683 42.7118 39.8158 36.9488 37.3742C36.3662 37.1242 35.6882 37.2204 35.2433 37.6337C34.0144 38.7584 31.0376 40.5752 25.8255 38.4796C25.1898 38.2201 24.4483 38.47 24.0987 39.0084C24.0245 39.1237 23.9504 39.2487 23.8656 39.3736C21.7998 42.767 22.8168 46.9678 26.0585 49.5056C27.8912 50.9379 30.3384 53.5334 31.0905 57.5228" fill="#BCEBFF"/>
<path d="M10.6765 1L4.32024 6.76772L10.8142 12.6604C11.7464 13.5064 12.6787 14.3331 13.6745 15.1117C15.0517 16.1883 17.9967 19.1395 17.2975 24.3881C17.0539 26.2338 16.556 28.3102 19.7129 31.492C22.8274 34.6451 28.2832 35.1545 31.8745 32.4533C33.1669 31.4824 34.2898 30.0693 34.8195 28.0314C34.9784 27.4354 35.5293 26.9836 36.1967 26.8682C37.8705 26.5895 40.9109 25.657 42.4682 22.4944C43.8453 19.7067 43.3792 16.3902 41.2923 13.9966C39.682 12.1509 36.8429 9.77655 32.7008 10.9109C30.7197 11.4588 29.8405 12.2086 25.0097 8.15198L17.4882 2.14393M32.3406 64.1758L33.2304 71L45.9323 69.8657L45.0424 55.4079C45.0424 55.4079 44.9047 50.9187 48.0087 48.2079C49.46 46.9486 50.6465 45.4201 50.9855 43.6225C51.3563 41.6327 51.0385 39.0756 48.4324 36.5475C48.0298 36.1533 47.3201 36.1245 46.9281 36.5282C45.7416 37.7683 42.7118 39.8158 36.9488 37.3742C36.3662 37.1242 35.6882 37.2204 35.2433 37.6337C34.0144 38.7584 31.0376 40.5752 25.8255 38.4796C25.1898 38.2201 24.4483 38.47 24.0987 39.0084C24.0245 39.1237 23.9504 39.2487 23.8656 39.3736C21.7998 42.767 22.8168 46.9678 26.0585 49.5056C27.8912 50.9379 30.3384 53.5334 31.0905 57.5228" stroke="#30446D" stroke-width="1.5" stroke-linecap="round" stroke-linejoin="round"/>
<path d="M0 31.8479L8.61268 36.8274L8.90931 34.0877L15.9435 35.347L5.97485 29.6081L6.49394 33.1456L0 31.8479V31.8479ZM0.15679 49.7846L12.2548 46.9392L9.78647 44.4206L16.9054 39.7583L2.92175 43.0652L6.85201 45.5934L0.15679 49.7846ZM59.6934 15.9771L55.2758 24.3306L53.4325 22.1389L48.1886 26.5801L53.316 16.9287L54.9368 20.1875L59.6934 15.9771V15.9771ZM70 31.2807L58.0609 34.6645L58.6859 31.3384L49.9355 30.7905L63.7391 26.8973L61.864 30.9251L70 31.2807V31.2807Z" fill="#42BA85"/>
</svg>
