<svg width="50" height="50" viewBox="0 0 50 50" fill="none" xmlns="http://www.w3.org/2000/svg">
<g clip-path="url(#clip0_1050_21495)">
<path d="M4.38582 18.3332C3.5788 18.3332 2.92383 17.5865 2.92383 16.6665V15.8332C2.92383 14.9132 3.5788 14.1665 4.38582 14.1665H18.2747C19.0817 14.1665 19.7367 14.9132 19.7367 15.8332V16.6665C19.7367 17.5865 19.0817 18.3332 18.2747 18.3332H4.38582Z" fill="#4FAFD9"/>
<path d="M1.46191 42.5V45.8333C1.46191 47.2142 2.44437 48.3333 3.6549 48.3333H19.0058C20.2163 48.3333 21.1988 47.2142 21.1988 45.8333V42.5H1.46191Z" fill="#4FAFD9"/>
<path d="M21.1871 28.3333C21.1593 27.7375 20.9985 27.1592 20.7076 26.66L18.2748 22.5V20H4.38591V22.5L1.95316 26.66C1.6615 27.1592 1.50141 27.7375 1.47363 28.3333H21.1871Z" fill="#4FAFD9"/>
<path d="M1.46191 30.8335V40.0002H21.1988V30.8335H1.46191ZM14.2543 36.6668H8.40636C7.8011 36.6668 7.30987 36.1068 7.30987 35.4168C7.30987 34.7268 7.8011 34.1668 8.40636 34.1668H14.2543C14.8596 34.1668 15.3508 34.7268 15.3508 35.4168C15.3508 36.1068 14.8596 36.6668 14.2543 36.6668Z" fill="#4FAFD9"/>
<path d="M30.9455 2C25.5961 2 21.0486 5.86167 19.2979 11.2667C20.9397 11.6758 22.1736 13.3408 22.1736 15.3333V16.1667C22.1736 17.5225 21.5939 18.7175 20.7116 19.4792V21.2433L22.7759 24.7733C23.2598 25.5983 23.5442 26.5692 23.6085 27.5825C25.6663 29.305 28.197 30.3333 30.9455 30.3333C37.8088 30.3333 43.3724 23.9908 43.3724 16.1667C43.3724 8.3425 37.8088 2 30.9455 2Z" fill="#4FAFD9"/>
</g>
<path d="M34.3113 11H28.0703V12.4135H30.2712C31.0794 12.4135 31.7688 13.0044 32.0247 13.827H28.0703V15.2405H32.0247C31.7688 16.0632 31.0794 16.654 30.2712 16.654H28.0703V18.0675L31.7041 22.2101L32.5809 21.2106L29.8238 18.0676H30.2712C31.7681 18.0676 33.0207 16.8516 33.3086 15.2405H34.3113V13.827H33.3086C33.2153 13.3051 33.0208 12.8246 32.7495 12.4135H34.3113V11Z" fill="white"/>
<defs>
<clipPath id="clip0_1050_21495">
<rect width="43.8596" height="50" fill="white"/>
</clipPath>
</defs>
</svg>
