<svg width="50" height="50" viewBox="0 0 50 50" fill="none" xmlns="http://www.w3.org/2000/svg">
<path d="M25 2.3999C20.5994 2.3999 16.2976 3.70484 12.6386 6.1497C8.97958 8.59456 6.12774 12.0695 4.44369 16.1352C2.75964 20.2009 2.31902 24.6746 3.17754 28.9907C4.03606 33.3067 6.15517 37.2713 9.26688 40.383C12.3786 43.4947 16.3432 45.6139 20.6593 46.4724C24.9753 47.3309 29.4491 46.8903 33.5147 45.2062C37.5804 43.5222 41.0553 40.6703 43.5002 37.0113C45.9451 33.3523 47.25 29.0505 47.25 24.6499C47.25 18.7488 44.9058 13.0895 40.7331 8.91678C36.5605 4.74409 30.9011 2.3999 25 2.3999V2.3999ZM27.028 33.5999C27.0281 33.8777 26.9734 34.1528 26.8672 34.4094C26.7609 34.6661 26.6051 34.8993 26.4087 35.0958C26.2123 35.2922 25.9791 35.448 25.7225 35.5544C25.4659 35.6607 25.1908 35.7154 24.913 35.7154H24.786C24.2249 35.7154 23.6869 35.4925 23.2901 35.0958C22.8934 34.6991 22.6705 34.161 22.6705 33.5999V24.3749C22.6705 24.0971 22.7252 23.822 22.8316 23.5654C22.9379 23.3088 23.0937 23.0756 23.2902 22.8792C23.4866 22.6828 23.7198 22.527 23.9765 22.4208C24.2331 22.3145 24.5082 22.2598 24.786 22.2599H24.913C25.4739 22.2599 26.0119 22.4827 26.4085 22.8794C26.8052 23.276 27.028 23.814 27.028 24.3749V33.5999ZM25 17.8419C24.5748 17.8419 24.1591 17.7158 23.8055 17.4796C23.452 17.2433 23.1764 16.9075 23.0137 16.5147C22.8509 16.1218 22.8084 15.6895 22.8913 15.2725C22.9743 14.8554 23.179 14.4723 23.4797 14.1716C23.7804 13.8709 24.1635 13.6662 24.5806 13.5832C24.9976 13.5003 25.4299 13.5428 25.8228 13.7056C26.2156 13.8683 26.5514 14.1439 26.7877 14.4974C27.0239 14.851 27.15 15.2667 27.15 15.6919C27.15 15.9742 27.0944 16.2538 26.9864 16.5147C26.8783 16.7755 26.7199 17.0125 26.5203 17.2122C26.3206 17.4118 26.0836 17.5702 25.8228 17.6782C25.5619 17.7863 25.2824 17.8419 25 17.8419V17.8419Z" fill="#4FAFD9"/>
</svg>
