<svg width="58" height="58" viewBox="0 0 58 58" fill="none" xmlns="http://www.w3.org/2000/svg">
<path d="M56.75 27.4584L55.75 27.4584L55.75 27.461L56.75 27.4584ZM53.975 39.1751L53.0824 38.7242L53.0805 38.728L53.975 39.1751ZM30.5417 53.6668L30.5413 52.6668L30.5391 52.6668L30.5417 53.6668ZM18.825 50.8918L19.2759 49.9992C19.0379 49.8789 18.7617 49.8588 18.5088 49.9431L18.825 50.8918ZM1.25 56.7501L0.301317 56.4339C0.181538 56.7932 0.275061 57.1894 0.542893 57.4572C0.810726 57.725 1.20689 57.8186 1.56623 57.6988L1.25 56.7501ZM7.10833 39.1751L8.05702 39.4913C8.14133 39.2384 8.12114 38.9622 8.00093 38.7242L7.10833 39.1751ZM4.33333 27.4584L5.33333 27.461L5.33333 27.4588L4.33333 27.4584ZM18.825 4.02509L19.2721 4.9196L19.2759 4.91769L18.825 4.02509ZM30.5417 1.25009L30.5391 2.25009H30.5417V1.25009ZM32.0833 1.25009L32.1384 0.251606C32.1201 0.250594 32.1017 0.250088 32.0833 0.250088V1.25009ZM56.75 25.9168H57.75C57.75 25.8984 57.7495 25.88 57.7485 25.8617L56.75 25.9168ZM15 19C14.4477 19 14 19.4477 14 20C14 20.5523 14.4477 21 15 21V19ZM18 21C18.5523 21 19 20.5523 19 20C19 19.4477 18.5523 19 18 19V21ZM24 19C23.4477 19 23 19.4477 23 20C23 20.5523 23.4477 21 24 21V19ZM46 21C46.5523 21 47 20.5523 47 20C47 19.4477 46.5523 19 46 19V21ZM15 27C14.4477 27 14 27.4477 14 28C14 28.5523 14.4477 29 15 29V27ZM18 29C18.5523 29 19 28.5523 19 28C19 27.4477 18.5523 27 18 27V29ZM24 27C23.4477 27 23 27.4477 23 28C23 28.5523 23.4477 29 24 29V27ZM42 29C42.5523 29 43 28.5523 43 28C43 27.4477 42.5523 27 42 27V29ZM15 35C14.4477 35 14 35.4477 14 36C14 36.5523 14.4477 37 15 37V35ZM18 37C18.5523 37 19 36.5523 19 36C19 35.4477 18.5523 35 18 35V37ZM24 35C23.4477 35 23 35.4477 23 36C23 36.5523 23.4477 37 24 37V35ZM46 37C46.5523 37 47 36.5523 47 36C47 35.4477 46.5523 35 46 35V37ZM55.75 27.461C55.7602 31.3731 54.8462 35.2323 53.0824 38.7242L54.8676 39.6259C56.7734 35.8528 57.761 31.6829 57.75 27.4558L55.75 27.461ZM53.0805 38.728C50.988 42.9148 47.7712 46.4364 43.7903 48.8982L44.8423 50.5992C49.139 47.9421 52.611 44.1411 54.8695 39.6221L53.0805 38.728ZM43.7903 48.8982C39.8095 51.36 35.2219 52.6649 30.5413 52.6668L30.5421 54.6668C35.594 54.6648 40.5456 53.2564 44.8423 50.5992L43.7903 48.8982ZM30.5391 52.6668C26.627 52.677 22.7678 51.7629 19.2759 49.9992L18.3741 51.7844C22.1473 53.6902 26.3172 54.6778 30.5443 54.6668L30.5391 52.6668ZM18.5088 49.9431L0.933772 55.8014L1.56623 57.6988L19.1412 51.8404L18.5088 49.9431ZM2.19868 57.0663L8.05702 39.4913L6.15965 38.8589L0.301317 56.4339L2.19868 57.0663ZM8.00093 38.7242C6.23715 35.2323 5.32313 31.3731 5.33333 27.461L3.33334 27.4558C3.32232 31.6829 4.30993 35.8528 6.21574 39.6259L8.00093 38.7242ZM5.33333 27.4588C5.33514 22.7782 6.64005 18.1906 9.10189 14.2098L7.40088 13.1578C4.74372 17.4545 3.33529 22.4061 3.33333 27.458L5.33333 27.4588ZM9.10189 14.2098C11.5637 10.2289 15.0853 7.01208 19.2721 4.91959L18.3779 3.13058C13.859 5.38909 10.058 8.86114 7.40088 13.1578L9.10189 14.2098ZM19.2759 4.91769C22.7678 3.1539 26.627 2.23988 30.5391 2.25008L30.5443 0.250091C26.3172 0.23907 22.1473 1.22668 18.3741 3.13249L19.2759 4.91769ZM30.5417 2.25009H32.0833V0.250088H30.5417V2.25009ZM32.0283 2.24857C38.2092 2.58957 44.0472 5.19844 48.4244 9.57568L49.8386 8.16146C45.1133 3.43609 38.811 0.619725 32.1384 0.251606L32.0283 2.24857ZM48.4244 9.57568C52.8016 13.9529 55.4105 19.7909 55.7515 25.9718L57.7485 25.8617C57.3804 19.1891 54.564 12.8868 49.8386 8.16146L48.4244 9.57568ZM55.75 25.9168V27.4584H57.75V25.9168H55.75ZM15 21H18V19H15V21ZM24 21H46V19H24V21ZM15 29H18V27H15V29ZM24 29H42V27H24V29ZM15 37H18V35H15V37ZM24 37H46V35H24V37Z" fill="#004171"/>
</svg>
