<svg width="204" height="185" fill="none" xmlns="http://www.w3.org/2000/svg">
    <rect width="204" height="185" rx="16" fill="#fff"/>
    <path d="M140 30H65v75h75V30z" fill="#fff"/>
    <path d="M97.642 55.91c.93.31 1.91.57 2.93.77.33.06.53.4.4.71-.59 1.44-1.68 5.31 1.19 9.55.23.33.1.79-.27.96-1.73.8-5.92 3.16-6.18 7.49-.03.43-.41.75-.83.67-1.72-.33-5.7-.65-7.96 2.63-.24.35-.72.46-1.08.22-1.7-1.17-6.57-3.82-12.27-.71 0 0-7.47 3.6-7.56 11.25v8.95M80.863 38.53s2.77 8.08 9.78 13.58" stroke="#30446D" stroke-width="1.485" stroke-linecap="round" stroke-linejoin="round"/>
    <path d="M91.902 89.52c-1-.52-1.97-1.13-2.85-1.84a1.81 1.81 0 0 0-1.63-.33c-1.59.46-4.98 1.15-7.76-.21 0 0-5.68-3.06-7.15 3.88-.17.81-.23 1.64-.23 2.47v4.9M128.332 49.52c1.41 2.51 2.71 5.88 3.22 10.18 1.16 9.82-2.31 19.72-9.72 26.28-4.4 3.89-10.66 7.07-19.19 6.53 0 0-2.52-.18-5.65-1.04M89.812 36.6s2.32 7.12 8.67 9.12c.63.2 1.33.01 1.79-.47 1.88-1.94 7.47-6.82 15.04-5.44 1.26.23 2.58.63 3.94 1.25 1.36.62 2.78 1.46 4.23 2.55" stroke="#30446D" stroke-width="1.485" stroke-linecap="round" stroke-linejoin="round"/>
    <path d="m91.142 61.56 3.24 2.85.32-1.25 2.85 1.04-3.76-3.29-.03 1.67-2.62-1.02zM89.942 69.83l5.25-.54-.85-1.32 3.3-1.69-6.07.63 1.46 1.42-3.09 1.5zM133.983 84.84l-1.01-4.19-.97.83-1.73-2.48 1.17 4.84.99-1.34 1.55 2.34zM139.732 78.79l-4.59-2.6-.07 1.57-3.67-.52 5.32 2.99-.38-2 3.39.56z" fill="#42BA85"/>
    <path d="M105.56 61.73c-.38 1.13-.76 3.29.71 5.6.37.59.12 1.36-.53 1.62-2.35.93-6.82 3.34-6.75 8.06.01.61-.43 1.11-1.04 1.15-1.37.09-3.86.68-6.77 3.32-.38.35-.6.85-.59 1.36.03 1.47 1.09 4.33 8.34 5.75 0 0 21.4 4.44 28.43-21.05l.03-.11c.09-.39.61-2.83.44-5.22-.08-1.17-1.22-1.97-2.34-1.63-2.89.86-9.09 2.03-18.75.46-.52-.07-1.02.21-1.18.69z" fill="#BCEBFF"/>
    <path d="M90.652 83.4c.29 1.55 1.85 3.94 8.29 5.2 0 0 21.4 4.44 28.42-21.03.01-.05.02-.08.03-.13.09-.39.52-2.44.47-4.6a2.258 2.258 0 0 0-2.84-2.11" stroke="#30446D" stroke-width="1.485" stroke-linecap="round" stroke-linejoin="round"/>
    <path d="M36.095 148.6h-5.2l-.992 2.4h-2.656l4.992-11.2h2.56l5.008 11.2h-2.72l-.992-2.4zm-.816-1.968-1.776-4.288-1.776 4.288h3.552zm11.852-4.368c.8 0 1.525.187 2.176.56.661.363 1.178.88 1.552 1.552.373.661.56 1.435.56 2.32 0 .885-.187 1.664-.56 2.336a4.018 4.018 0 0 1-1.552 1.552c-.651.363-1.376.544-2.176.544-1.184 0-2.086-.373-2.704-1.12V151h-2.384v-11.872h2.496v4.176c.629-.693 1.493-1.04 2.592-1.04zm-.432 6.816c.64 0 1.162-.213 1.568-.64.416-.437.624-1.019.624-1.744 0-.725-.208-1.301-.624-1.728-.406-.437-.928-.656-1.568-.656s-1.168.219-1.584.656c-.406.427-.608 1.003-.608 1.728 0 .725.202 1.307.608 1.744.416.427.944.64 1.584.64zm16.409-9.952V151h-2.384v-.992c-.62.747-1.515 1.12-2.688 1.12-.811 0-1.547-.181-2.209-.544a3.912 3.912 0 0 1-1.535-1.552c-.374-.672-.56-1.451-.56-2.336 0-.885.186-1.664.56-2.336a3.912 3.912 0 0 1 1.535-1.552c.662-.363 1.398-.544 2.209-.544 1.098 0 1.957.347 2.575 1.04v-4.176h2.497zm-4.64 9.952c.629 0 1.151-.213 1.567-.64.417-.437.625-1.019.625-1.744 0-.725-.208-1.301-.624-1.728-.416-.437-.94-.656-1.569-.656-.64 0-1.167.219-1.584.656-.416.427-.623 1.003-.623 1.728 0 .725.208 1.307.623 1.744.416.427.944.64 1.584.64zm12.296 2.048c-.907 0-1.723-.187-2.448-.56a4.293 4.293 0 0 1-1.68-1.584c-.406-.672-.608-1.435-.608-2.288 0-.853.202-1.616.608-2.288a4.178 4.178 0 0 1 1.68-1.568c.725-.384 1.541-.576 2.448-.576.906 0 1.717.192 2.432.576a4.177 4.177 0 0 1 1.68 1.568c.405.672.608 1.435.608 2.288 0 .853-.203 1.616-.608 2.288a4.292 4.292 0 0 1-1.68 1.584c-.715.373-1.526.56-2.432.56zm0-2.048c.64 0 1.162-.213 1.568-.64.416-.437.624-1.019.624-1.744 0-.725-.208-1.301-.624-1.728-.406-.437-.928-.656-1.568-.656s-1.168.219-1.584.656c-.416.427-.624 1.003-.624 1.728 0 .725.208 1.307.624 1.744.416.427.944.64 1.584.64zm18.662-6.816c1.077 0 1.93.32 2.56.96.64.629.96 1.579.96 2.848V151H90.45v-4.544c0-.683-.144-1.189-.432-1.52-.277-.341-.677-.512-1.2-.512-.587 0-1.05.192-1.392.576-.341.373-.512.933-.512 1.68V151h-2.496v-4.544c0-1.355-.544-2.032-1.632-2.032-.576 0-1.035.192-1.376.576-.341.373-.512.933-.512 1.68V151h-2.496v-8.608h2.384v.992c.32-.363.71-.64 1.168-.832.47-.192.981-.288 1.536-.288.608 0 1.157.123 1.648.368.49.235.885.581 1.184 1.04a3.543 3.543 0 0 1 1.328-1.04 4.275 4.275 0 0 1 1.776-.368zm7.007.128h2.496V151h-2.496v-8.608zm1.248-1.2c-.458 0-.832-.133-1.12-.4a1.297 1.297 0 0 1-.432-.992c0-.395.144-.725.432-.992.288-.267.662-.4 1.12-.4.459 0 .832.128 1.12.384.288.256.432.576.432.96 0 .416-.144.763-.432 1.04-.288.267-.661.4-1.12.4zm10.047 1.072c1.066 0 1.925.32 2.576.96.661.64.992 1.589.992 2.848V151H108.8v-4.544c0-.683-.15-1.189-.448-1.52-.299-.341-.731-.512-1.296-.512-.63 0-1.131.197-1.504.592-.374.384-.56.96-.56 1.728V151h-2.496v-8.608h2.384v1.008a3.22 3.22 0 0 1 1.232-.832 4.183 4.183 0 0 1 1.616-.304zm10.552 0c1.334 0 2.358.32 3.072.96.715.629 1.072 1.584 1.072 2.864V151h-2.336v-1.072c-.469.8-1.344 1.2-2.624 1.2-.661 0-1.237-.112-1.728-.336-.48-.224-.848-.533-1.104-.928a2.417 2.417 0 0 1-.384-1.344c0-.8.299-1.429.896-1.888.608-.459 1.542-.688 2.8-.688h1.984c0-.544-.165-.96-.496-1.248-.33-.299-.826-.448-1.488-.448-.458 0-.912.075-1.36.224-.437.139-.81.331-1.12.576l-.896-1.744c.47-.331 1.03-.587 1.68-.768a7.669 7.669 0 0 1 2.032-.272zm-.192 7.184c.427 0 .806-.096 1.136-.288.331-.203.566-.496.704-.88v-.88h-1.712c-1.024 0-1.536.336-1.536 1.008 0 .32.123.576.368.768.256.181.603.272 1.04.272zm7.845-10.32h2.496V151h-2.496v-11.872zm16.868.672c.992 0 1.851.165 2.576.496.736.331 1.301.8 1.696 1.408.395.608.592 1.328.592 2.16 0 .821-.197 1.541-.592 2.16-.395.608-.96 1.077-1.696 1.408-.725.32-1.584.48-2.576.48h-2.256V151h-2.592v-11.2h4.848zm-.144 6c.779 0 1.371-.165 1.776-.496.405-.341.608-.821.608-1.44 0-.629-.203-1.109-.608-1.44-.405-.341-.997-.512-1.776-.512h-2.112v3.888h2.112zm11.326-3.536c1.334 0 2.358.32 3.072.96.715.629 1.072 1.584 1.072 2.864V151h-2.336v-1.072c-.469.8-1.344 1.2-2.624 1.2-.661 0-1.237-.112-1.728-.336-.48-.224-.848-.533-1.104-.928a2.417 2.417 0 0 1-.384-1.344c0-.8.299-1.429.896-1.888.608-.459 1.542-.688 2.8-.688h1.984c0-.544-.165-.96-.496-1.248-.33-.299-.826-.448-1.488-.448-.458 0-.912.075-1.36.224-.437.139-.81.331-1.12.576l-.896-1.744c.47-.331 1.03-.587 1.68-.768a7.669 7.669 0 0 1 2.032-.272zm-.192 7.184c.427 0 .806-.096 1.136-.288.331-.203.566-.496.704-.88v-.88h-1.712c-1.024 0-1.536.336-1.536 1.008 0 .32.123.576.368.768.256.181.603.272 1.04.272zm7.845-7.056h2.496V151h-2.496v-8.608zm1.248-1.2c-.458 0-.832-.133-1.12-.4a1.297 1.297 0 0 1-.432-.992c0-.395.144-.725.432-.992.288-.267.662-.4 1.12-.4.459 0 .832.128 1.12.384.288.256.432.576.432.96 0 .416-.144.763-.432 1.04-.288.267-.661.4-1.12.4zm10.047 1.072c1.067 0 1.925.32 2.576.96.661.64.992 1.589.992 2.848V151h-2.496v-4.544c0-.683-.149-1.189-.448-1.52-.299-.341-.731-.512-1.296-.512-.629 0-1.131.197-1.504.592-.373.384-.56.96-.56 1.728V151h-2.496v-8.608h2.384v1.008c.331-.363.741-.64 1.232-.832a4.187 4.187 0 0 1 1.616-.304z" fill="#005D8D"/>
</svg>
