<svg width="72" height="72" viewBox="0 0 72 72" fill="none" xmlns="http://www.w3.org/2000/svg">
<path d="M31.2685 22.8721C32.1516 23.2232 33.0821 23.5177 34.0507 23.7442C34.364 23.8122 34.5539 24.1973 34.4305 24.5484C33.8702 26.1795 32.8352 30.563 35.5604 35.3656C35.7788 35.7394 35.6554 36.2604 35.3041 36.453C33.6613 37.3592 29.6827 40.0323 29.4359 44.9368C29.4074 45.4239 29.0466 45.7864 28.6478 45.6957C27.0145 45.322 23.2353 44.9595 21.0894 48.6747C20.8615 49.0712 20.4057 49.1958 20.0639 48.9239C18.4496 47.5987 13.8253 44.597 8.41294 48.1197C8.41294 48.1197 1.31983 52.1974 1.23438 60.8624V71M15.3361 3.18591C15.3361 3.18591 17.9663 12.338 24.6226 18.5678" stroke="#30446D" stroke-width="1.485" stroke-linecap="round" stroke-linejoin="round"/>
<path d="M25.8183 60.9419C24.8687 60.3529 23.9477 59.662 23.1121 58.8578C22.8979 58.6524 22.6456 58.5113 22.3763 58.4463C22.107 58.3812 21.8285 58.3942 21.5643 58.484C20.0545 59.005 16.8356 59.7866 14.1958 58.2461C14.1958 58.2461 8.8024 54.7801 7.40657 62.641C7.24515 63.5584 7.18817 64.4986 7.18817 65.4387V70.9889M60.4102 15.6343C61.7491 18.4774 62.9835 22.2946 63.4677 27.1651C64.5692 38.2881 61.2743 49.5018 54.2382 56.9322C50.0602 61.3384 44.116 64.9403 36.0164 64.3287C36.0164 64.3287 33.6235 64.1248 30.6514 63.1507M23.8337 1C23.8337 1 26.0367 9.06475 32.0663 11.3301C32.6645 11.5567 33.3292 11.3415 33.766 10.7978C35.5511 8.60035 40.8591 3.07282 48.0471 4.63594C49.2435 4.89645 50.4969 5.34953 51.7883 6.0518C53.0797 6.75407 54.4281 7.70552 55.8049 8.94015" stroke="#30446D" stroke-width="1.485" stroke-linecap="round" stroke-linejoin="round"/>
<path d="M25.096 29.2721L28.1725 32.5003L28.4764 31.0844L31.1826 32.2624L27.6123 28.5359L27.5838 30.4275L25.096 29.2721V29.2721ZM23.9565 38.6395L28.9417 38.0278L28.1345 36.5327L31.268 34.6184L25.5043 35.332L26.8906 36.9404L23.9565 38.6395ZM65.7755 55.6411L64.8164 50.8952L63.8954 51.8353L62.2527 49.0262L63.3636 54.5085L64.3037 52.9907L65.7755 55.6411V55.6411ZM71.2344 48.7884L66.876 45.8434L66.8095 47.6217L63.3247 47.0327L68.3763 50.4195L68.0154 48.1541L71.2344 48.7884Z" fill="#42BA85"/>
<path d="M38.7872 29.4641C38.4263 30.744 38.0655 33.1906 39.4613 35.8071C39.8127 36.4754 39.5753 37.3476 38.9581 37.6421C36.7266 38.6955 32.4822 41.4253 32.5486 46.7716C32.5581 47.4625 32.1403 48.0289 31.5611 48.0742C30.2602 48.1761 27.8959 48.8444 25.1327 51.8347C24.7719 52.2311 24.563 52.7975 24.5725 53.3751C24.6009 55.0402 25.6075 58.2797 32.4917 59.8881C32.4917 59.8881 52.8119 64.9173 59.4872 36.045L59.5157 35.9204C59.6012 35.4787 60.095 32.7149 59.9335 30.0078C59.8576 28.6825 58.7751 27.7764 57.7116 28.1615C54.9674 29.1356 49.0802 30.4608 39.9076 28.6825C39.4139 28.6032 38.9391 28.9204 38.7872 29.4641V29.4641Z" fill="#BCEBFF"/>
</svg>
