<svg width="32" height="32" viewBox="0 0 32 32" fill="none" xmlns="http://www.w3.org/2000/svg">
<path d="M29.6175 23.9225H26.3638C26.0759 23.9225 25.8327 23.7047 25.7968 23.4143C25.6114 21.9117 24.3438 20.7788 22.8473 20.7788C21.3517 20.7788 20.0838 21.9117 19.8987 23.4143C19.8632 23.7047 19.6197 23.9225 19.3317 23.9225H11.8571C11.5692 23.9225 11.326 23.7047 11.2902 23.4143C11.1048 21.9117 9.83714 20.7788 8.34063 20.7788C6.84508 20.7788 5.57714 21.9117 5.39206 23.4143C5.35651 23.7047 5.11302 23.9225 4.82508 23.9225H1.57143C1.25587 23.9225 1 23.6624 1 23.3417V7.58543C1 7.26471 1.25587 7.00464 1.57143 7.00464H23.6943C23.8819 7.00464 24.0575 7.09853 24.1644 7.25502L30.0879 15.9602C30.1533 16.0576 30.1892 16.1728 30.1892 16.2906V23.3417C30.1889 23.6624 29.933 23.9225 29.6175 23.9225ZM26.8362 22.7609H29.046V16.4719L23.3943 8.16623H2.14286V22.7609H4.3527C4.80952 20.9369 6.44286 19.6172 8.34095 19.6172C10.2397 19.6172 11.873 20.9369 12.3298 22.7609H18.8597C19.3165 20.9369 20.9498 19.6172 22.8476 19.6172C24.7463 19.6172 26.3794 20.9369 26.8362 22.7609Z" fill="#004171" stroke="#004171" strokeWidth="1.2"/>
<path d="M28.054 16.0431H21.5861C20.1286 16.0431 18.9432 14.8383 18.9432 13.357V7.58226C18.9432 7.26153 19.1991 7.00146 19.5147 7.00146C19.8302 7.00146 20.0861 7.26153 20.0861 7.58226V13.357C20.0861 14.1978 20.7588 14.8815 21.5861 14.8815H28.054C28.3696 14.8815 28.6255 15.1416 28.6255 15.4623C28.6255 15.7831 28.3696 16.0431 28.054 16.0431Z" fill="#004171" stroke="#004171" strokeWidth="1.2"/>
<path d="M14.4452 15.2401H10.0703C9.75477 15.2401 9.4989 14.98 9.4989 14.6593C9.4989 14.3386 9.75477 14.0785 10.0703 14.0785H14.4452C14.7608 14.0785 15.0167 14.3386 15.0167 14.6593C15.0167 14.98 14.7608 15.2401 14.4452 15.2401Z" fill="#004171" stroke="#004171" strokeWidth="1.2"/>
<path d="M12.2582 17.4635C11.9426 17.4635 11.6868 17.2034 11.6868 16.8827V12.4358C11.6868 12.115 11.9426 11.855 12.2582 11.855C12.5738 11.855 12.8296 12.115 12.8296 12.4358V16.8824C12.8296 17.2031 12.5738 17.4635 12.2582 17.4635Z" fill="#004171" stroke="#004171" strokeWidth="1.2"/>
<path d="M15.8306 7.163C15.515 7.163 15.2592 6.90293 15.2592 6.5822V5.57421C15.2592 4.7953 14.6357 4.16159 13.87 4.16159H11.4509C10.6846 4.16159 10.0611 4.7953 10.0611 5.57421V6.5822C10.0611 6.90293 9.8052 7.163 9.48964 7.163C9.17409 7.163 8.91821 6.90293 8.91821 6.5822V5.57421C8.91853 4.15481 10.0544 3 11.4512 3H13.8703C15.2661 3 16.4023 4.15481 16.4023 5.57421V6.5822C16.402 6.90293 16.1461 7.163 15.8306 7.163Z" fill="#004171" stroke="#004171" strokeWidth="1.2"/>
<path d="M8.34078 28C6.06713 28 4.21729 26.1192 4.21729 23.8083C4.21729 23.5708 4.23221 23.3907 4.26554 23.2252C4.51475 21.1873 6.26998 19.6172 8.34078 19.6172C10.4116 19.6172 12.1674 21.1873 12.424 23.2691C12.45 23.3907 12.4649 23.5708 12.4649 23.8083C12.4652 26.1192 10.6147 28 8.34078 28ZM8.34078 20.7788C6.84522 20.7788 5.57729 21.9116 5.39221 23.4143C5.36237 23.5692 5.36014 23.6918 5.36014 23.8083C5.36014 25.4787 6.69729 26.8384 8.34078 26.8384C9.98427 26.8384 11.3221 25.4787 11.3221 23.8083C11.3221 23.6918 11.3198 23.5692 11.2976 23.4582C11.1049 21.9116 9.83729 20.7788 8.34078 20.7788Z" fill="#004171" stroke="#004171" strokeWidth="1.2"/>
<path d="M22.8483 28C20.5747 28 18.7249 26.1192 18.7249 23.8083C18.7249 23.5776 18.7398 23.394 18.7725 23.2281C19.0226 21.1869 20.7776 19.6172 22.8483 19.6172C24.9191 19.6172 26.675 21.1873 26.9315 23.2691C26.9575 23.394 26.9725 23.5776 26.9725 23.8083C26.9725 26.1192 25.122 28 22.8483 28ZM22.8483 20.7788C21.3528 20.7788 20.0849 21.9116 19.8998 23.4143C19.8715 23.5669 19.8677 23.6911 19.8677 23.8083C19.8677 25.4787 21.2049 26.8384 22.8483 26.8384C24.4918 26.8384 25.8296 25.4787 25.8296 23.8083C25.8296 23.6911 25.8258 23.5669 25.8042 23.4549C25.6125 21.9116 24.3445 20.7788 22.8483 20.7788Z" fill="#004171" stroke="#004171" strokeWidth="1.2"/>
</svg>
