<svg width="58" height="72" viewBox="0 0 58 72" fill="none" xmlns="http://www.w3.org/2000/svg">
<path d="M17.6827 63.0026L20.4101 62.0555L20.3245 62.8208H22.3781L19.2229 63.921L19.5865 62.9643L17.6827 63.0026V63.0026ZM18.8164 58.0472L22.0465 59.4248L21.2016 60.0083L22.9129 61.6537L19.1801 60.0466L20.4422 59.5396L18.8164 58.0472V58.0472ZM19.8432 66.9439L22.485 65.8151L21.7898 65.3463L23.2016 64.0071L20.1427 65.3081L21.1695 65.729L19.8432 66.9439V66.9439ZM24.6563 69.6033L25.7365 66.5421L24.6883 66.7048L24.5279 64.4567L23.2872 67.9866L24.56 67.5179L24.6563 69.6033V69.6033Z" fill="#42BA85"/>
<path d="M57 71L54.3368 61.2424C54.3368 61.2424 53.0961 58.3247 53.3421 56.6219L50.7323 35.0594C50.7323 35.0594 50.112 30.8406 49.2456 29.7309C49.2456 29.7309 49.0317 28.2864 49.2456 26.1244C49.2456 26.1244 48.9034 20.796 40.165 20.9682C40.165 20.9682 27.7901 20.5568 19.2336 27.8751C19.2336 27.8751 2.10982 41.6027 1.04025 49.1697C1.04025 49.1697 0.066943 50.7481 7.69296 52.25C7.69296 52.25 23.1375 54.479 25.1804 54.986C25.1804 54.986 27.1377 54.9956 28.9987 57.8272L30.4854 60.5727C30.4854 60.5727 31.7903 62.6486 30.7635 64.7341L28.6244 71H57Z" fill="#BDE3F8"/>
<path d="M57 71L54.3368 61.2424C54.3368 61.2424 53.0961 58.3247 53.3421 56.6219L50.7323 35.0594C50.7323 35.0594 50.112 30.8406 49.2456 29.7309C49.2456 29.7309 49.0317 28.2864 49.2456 26.1244C49.2456 26.1244 48.9034 20.796 40.165 20.9682C40.165 20.9682 27.7901 20.5568 19.2336 27.8751C19.2336 27.8751 2.10982 41.6027 1.04025 49.1697C1.04025 49.1697 0.066943 50.7481 7.69296 52.25C7.69296 52.25 23.1375 54.479 25.1804 54.986C25.1804 54.986 27.1377 54.9956 28.9987 57.8272L30.4854 60.5727C30.4854 60.5727 31.7903 62.6486 30.7635 64.7341L28.6244 71" stroke="#30446D" stroke-width="1.573" stroke-linecap="round" stroke-linejoin="round"/>
<path d="M12.7199 45.9841C12.7199 45.9841 18.1105 44.6831 18.9555 42.435L26.1216 50.4803L12.7199 45.9841Z" fill="white"/>
<path d="M25.159 50.1646C25.159 50.1646 28.8918 51.5326 30.7528 52.7858C31.4266 53.2449 31.8438 53.9815 31.7368 54.7373C31.5978 55.713 30.5282 56.6505 26.1216 55.2156M12.7199 45.9841C12.7199 45.9841 18.1105 44.6831 18.9555 42.435L26.1216 50.4803L12.7199 45.9841Z" stroke="#30446D" stroke-width="1.573" stroke-linecap="round" stroke-linejoin="round"/>
<path d="M38.1114 16.4433L39.8655 15.5728C41.8656 14.5396 41.3522 12.8751 41.2132 12.5307C41.2025 12.502 41.1811 12.4637 41.1704 12.435L39.9083 10.407C39.859 10.3293 39.8278 10.2434 39.8168 10.1546C39.8058 10.0658 39.8151 9.97589 39.8441 9.8904C39.8976 9.71821 40.026 9.57471 40.2078 9.47905C40.5501 9.25902 40.5928 8.97203 40.5607 8.76158C40.5501 8.68268 40.5219 8.60649 40.4778 8.53749C40.4337 8.46849 40.3746 8.40807 40.3041 8.35979L37.3414 6.14041C37.2344 6.06388 37.213 6.05431 37.1381 5.95864C37.1167 5.93951 37.0847 5.90125 37.0633 5.88212C36.9349 5.68122 36.8387 5.4612 36.7103 5.2603C36.1242 4.31091 35.3345 3.47425 34.3864 2.79822C33.4383 2.12218 32.3504 1.62006 31.185 1.3206C30.0196 1.02114 28.7997 0.930231 27.5949 1.05307C26.3902 1.1759 25.2244 1.51008 24.1643 2.03646C19.8325 4.17931 18.1961 8.99117 20.378 12.9134L20.3887 12.9229C21.9396 15.8502 25.1911 17.553 26.4425 18.1844C26.635 18.2801 26.9559 18.3949 27.1484 18.4714C27.1484 18.4618 30.9453 20.6716 38.1114 16.4433V16.4433Z" fill="#BDE3F8"/>
<path d="M19.5972 7.61362C19.2015 9.35469 19.4368 11.2106 20.378 12.9038L20.3887 12.9134C20.624 13.3534 20.9021 13.7743 21.2016 14.157C21.5011 14.5492 21.8326 14.9032 22.1642 15.238C23.7258 16.7686 25.5761 17.7348 26.4425 18.1653C26.635 18.2609 26.9559 18.3757 27.1484 18.4523C27.1484 18.4523 30.1646 20.0116 34.7423 18.0696M22.2712 3.27051C22.0786 3.39487 21.8968 3.5288 21.715 3.66273M39.8655 15.5728C41.8656 14.5396 41.3522 12.8751 41.2132 12.5307C41.2025 12.502 41.1811 12.4637 41.1704 12.435L39.9083 10.407C39.859 10.3293 39.8278 10.2434 39.8168 10.1546C39.8058 10.0658 39.8151 9.97589 39.8442 9.8904C39.8976 9.71821 40.026 9.57471 40.2078 9.47905C40.5501 9.25902 40.5928 8.97203 40.5608 8.76158C40.5501 8.68268 40.5219 8.60649 40.4778 8.53749C40.4337 8.46849 40.3746 8.40807 40.3041 8.35979L37.3414 6.14041C37.2344 6.06388 37.213 6.05431 37.1381 5.95864C37.1168 5.93951 37.0847 5.90125 37.0633 5.88212C36.9349 5.68122 36.8387 5.4612 36.7103 5.2603C36.1242 4.31091 35.3345 3.47425 34.3864 2.79822C33.4383 2.12218 32.3504 1.62006 31.185 1.3206C30.0196 1.02114 28.7997 0.930231 27.5949 1.05307C26.3902 1.1759 25.2244 1.51008 24.1643 2.03646M37.4911 16.8929L37.9617 16.6538" stroke="#30446D" stroke-width="1.573" stroke-linecap="round" stroke-linejoin="round"/>
</svg>
