<svg xmlns="http://www.w3.org/2000/svg" width="48" height="48" fill="none" viewBox="0 0 48 48">
    <rect width="48" height="48" fill="#FFECE9" rx="24"/>
    <path fill="#005D8D" d="M25.5 16h-1.31l.56-1.68c.051-.15.066-.31.043-.466-.022-.156-.082-.305-.173-.434-.092-.13-.213-.235-.354-.308-.141-.073-.297-.111-.456-.112h-5.62c-.159 0-.315.04-.456.112-.14.073-.262.179-.354.308-.091.13-.15.278-.173.434-.023.157-.008.316.043.466l.56 1.68H16.5c-.133 0-.26.053-.354.146-.093.094-.146.221-.146.354 0 .133.053.26.146.354.094.093.221.146.354.146h.5v14c0 1.06.421 2.078 1.172 2.828.75.75 1.767 1.172 2.828 1.172 1.06 0 2.078-.421 2.828-1.172C24.578 33.078 25 32.061 25 31V17h.5c.133 0 .26-.053.354-.146.093-.094.146-.221.146-.354 0-.133-.053-.26-.146-.354-.094-.093-.221-.146-.354-.146zm-7.31-2h5.62l-.67 2h-4.28l-.67-2zM21 34c-.796 0-1.559-.316-2.121-.879C18.316 32.56 18 31.796 18 31v-9h6v9c0 .796-.316 1.559-.879 2.121-.562.563-1.325.879-2.121.879zm3-13h-6v-4h6v4zM27.63 27.17C27.36 27.47 26 29 26 30c0 .53.21 1.04.586 1.414.375.375.884.586 1.414.586.53 0 1.04-.21 1.414-.586C29.79 31.04 30 30.53 30 30c0-1-1.36-2.53-1.63-2.83-.048-.05-.105-.09-.169-.118-.063-.027-.132-.041-.201-.041-.07 0-.138.014-.201.041-.064.028-.121.068-.169.118zM28 31c-.265 0-.52-.105-.707-.293C27.105 30.52 27 30.265 27 30c.2-.644.542-1.235 1-1.73.456.497.797 1.087 1 1.73 0 .265-.105.52-.293.707-.187.188-.442.293-.707.293zM29.39 17.19c-.048-.057-.108-.103-.175-.134-.067-.031-.14-.047-.215-.047-.074 0-.148.016-.215.047s-.127.077-.175.134c-.27.33-2.61 3.3-2.61 4.81 0 .796.316 1.559.879 2.121.562.563 1.325.879 2.121.879s1.559-.316 2.121-.879C31.684 23.56 32 22.796 32 22c0-1.51-2.34-4.48-2.61-4.81zM29 24c-.53 0-1.04-.21-1.414-.586C27.21 23.04 27 22.53 27 22c0-.76 1.1-2.49 2-3.68.9 1.19 2 2.92 2 3.68 0 .53-.21 1.04-.586 1.414C30.04 23.79 29.53 24 29 24z"/>
</svg>
