<svg width="58" height="72" viewBox="0 0 58 72" fill="none" xmlns="http://www.w3.org/2000/svg">
<path d="M20.9655 71V64.1328C20.9655 62.8997 19.9999 61.8943 18.8158 61.8943H13.2048C6.72846 61.7805 5.46234 56.2886 5.26195 55.103C5.24373 54.9892 5.23463 51.3374 5.23463 51.2236L10.8001 50.2276L5.23463 47.1829C5.23463 46.5664 4.98869 46.0068 4.60612 45.6084C4.40658 45.4002 4.16944 45.2352 3.90836 45.1228C3.64729 45.0105 3.36744 44.9531 3.08496 44.9539C1.90993 44.8022 1.37251 44.0528 1.13568 43.4173C0.944398 42.9241 0.962611 42.3835 1.14479 41.8997L5.05245 31.3713C5.18908 31.0014 5.22551 30.9444 5.28017 30.5461C5.28928 30.4607 5.32571 30.2995 5.32571 30.2141C5.35304 29.4648 5.23463 28.706 5.23463 27.9377C5.23463 13.065 16.8119 1 31.1035 1C44.9944 1 56.3166 12.3916 56.9451 26.6951V26.7331C57.6009 37.2805 52.2085 46.7656 50.0862 50.3225C49.7674 50.8631 49.148 51.6504 48.7745 52.1436C47.7543 53.4905 47.8545 56.7249 47.8728 57.1423V70.981" fill="#BDE3F8"/>
<path d="M50.7967 10.4851C54.5183 15.0302 56.6787 20.7376 56.936 26.7046V26.7426C57.0362 28.3456 56.9997 29.9201 56.854 31.4567C56.7083 32.9933 56.4532 34.4824 56.1253 35.9147C54.6223 42.4973 51.5618 47.8564 50.0771 50.332C49.7583 50.8727 49.1389 51.6599 48.7654 52.1532C47.7452 53.5 47.8454 56.7345 47.8636 57.1518M38.0444 1.98649C39.8206 2.49868 41.5239 3.21007 43.118 4.08269M33.4354 1.11386C33.9181 1.16128 34.4009 1.21819 34.8837 1.29408M5.23463 47.183C5.23463 46.5664 4.98869 46.0068 4.60612 45.6084C4.40658 45.4002 4.16944 45.2352 3.90836 45.1229C3.64729 45.0105 3.36744 44.9531 3.08496 44.954C1.90993 44.8022 1.37251 44.0529 1.13568 43.4174C0.944398 42.9242 0.962611 42.3835 1.14479 41.8998L5.05245 31.3713C5.18908 31.0014 5.22551 30.9445 5.28017 30.5461C5.28928 30.4607 5.32571 30.2995 5.32571 30.2141C5.35304 29.4648 5.23463 28.706 5.23463 27.9377C5.23463 14.042 15.3362 2.60302 28.3162 1.16128C29.2271 1.05695 30.1562 1.00952 31.1035 1.00952M20.9655 71V64.1328C20.9655 62.8998 19.9999 61.8943 18.8158 61.8943H13.2048C6.72846 61.7805 5.46234 56.2887 5.26195 55.103C5.24373 54.9892 5.23463 54.8754 5.23463 54.7616V51.8307L11.9022 50.4174M20.5018 41.0271C20.5018 41.0271 39.2386 39.3578 39.2386 62.0746" stroke="#30446D" stroke-width="1.5" stroke-linecap="round" stroke-linejoin="round"/>
<path d="M21.594 38.5705V43.6355C21.594 44.0244 21.2023 44.271 20.8653 44.1003L16.1287 41.5678C16.0464 41.5241 15.9773 41.4576 15.9291 41.3755C15.8808 41.2935 15.8553 41.1992 15.8553 41.103C15.8553 41.0068 15.8808 40.9125 15.9291 40.8305C15.9773 40.7485 16.0464 40.6819 16.1287 40.6382L20.8653 38.1057C21.2023 37.9255 21.594 38.1816 21.594 38.5705V38.5705Z" fill="#30446D"/>
<path d="M15.8554 45.7697C15.8554 45.7697 31.3768 44.3849 34.1641 61.2683" stroke="#30446D" stroke-width="1.5" stroke-linecap="round" stroke-linejoin="round"/>
<path d="M31.0215 58.5271H35.8856C36.2591 58.5271 36.4959 58.935 36.3319 59.2859L33.8999 64.2182C33.7177 64.5976 33.1985 64.5976 33.0072 64.2182L30.5752 59.2859C30.4112 58.9444 30.6481 58.5271 31.0215 58.5271V58.5271Z" fill="#30446D"/>
</svg>
