<svg width="32" height="32" fill="none" xmlns="http://www.w3.org/2000/svg">
    <path d="M20.733 17.333c1 0 1.88-.547 2.334-1.374l4.773-8.653c.493-.88-.147-1.973-1.16-1.973H6.947L5.693 2.666h-4.36v2.667H4l4.8 10.12L7 18.706c-.973 1.787.307 3.96 2.333 3.96h16v-2.667h-16l1.467-2.666h9.933zM8.213 7.999h16.2l-3.68 6.667h-9.36l-3.16-6.667zm1.12 16a2.663 2.663 0 0 0-2.653 2.667 2.663 2.663 0 0 0 2.653 2.667c1.467 0 2.667-1.2 2.667-2.667 0-1.467-1.2-2.667-2.667-2.667zm13.334 0a2.663 2.663 0 0 0-2.654 2.667 2.663 2.663 0 0 0 2.654 2.667c1.466 0 2.666-1.2 2.666-2.667 0-1.467-1.2-2.667-2.666-2.667z" fill="#004171"/>
    <circle cx="28" cy="6" r="3" fill="#FF3A56"/>
</svg>
