<svg width="20" height="20" viewBox="0 0 20 20" fill="none" xmlns="http://www.w3.org/2000/svg">
<path d="M9.99994 0.999129C7.48299 0.8769 5.01977 1.75419 3.14673 3.43992C1.27369 5.12566 0.142657 7.48325 0 9.99913C0.00268511 11.8545 0.626482 13.6556 1.77197 15.1151C1.78247 15.1277 1.78934 15.1429 1.79181 15.1592C1.79428 15.1754 1.79228 15.192 1.78601 15.2071L0.528015 18.2231C0.487486 18.3218 0.477401 18.4304 0.499146 18.5348C0.52089 18.6393 0.573417 18.7348 0.649963 18.8091C0.776043 18.936 0.947142 19.0078 1.12598 19.0091C1.17981 19.0089 1.23349 19.0029 1.28601 18.9911L5.41602 18.0311C5.43556 18.0251 5.45647 18.0251 5.47601 18.0311C6.89756 18.6737 8.43992 19.0051 9.99994 19.0031C11.2615 19.1363 12.5371 19.0027 13.7437 18.6111C14.9504 18.2195 16.0611 17.5786 17.0041 16.7299C17.947 15.8813 18.7011 14.8439 19.2172 13.685C19.7333 12.5261 19.9999 11.2717 19.9999 10.0031C19.9999 8.73453 19.7333 7.48011 19.2172 6.32124C18.7011 5.16238 17.947 4.12497 17.0041 3.27632C16.0611 2.42767 14.9504 1.78674 13.7437 1.39512C12.5371 1.00351 11.2615 0.869959 9.99994 1.00313V0.999129ZM5.90802 10.9991C5.71024 10.9991 5.51687 10.9405 5.35242 10.8306C5.18797 10.7207 5.05982 10.5645 4.98413 10.3818C4.90844 10.1991 4.8886 9.99801 4.92719 9.80403C4.96577 9.61005 5.06101 9.43186 5.20087 9.29201C5.34072 9.15215 5.51891 9.05691 5.71289 9.01832C5.90687 8.97974 6.10792 8.99955 6.29065 9.07524C6.47338 9.15093 6.62956 9.27911 6.73944 9.44356C6.84932 9.608 6.90802 9.80135 6.90802 9.99913C6.90828 10.1308 6.88254 10.2612 6.83228 10.3829C6.78201 10.5046 6.70821 10.6151 6.61511 10.7082C6.52202 10.8013 6.41142 10.8751 6.28973 10.9254C6.16805 10.9757 6.03766 11.0014 5.90601 11.0011L5.90802 10.9991ZM9.99994 10.9991C9.80216 10.9991 9.60885 10.9405 9.4444 10.8306C9.27995 10.7207 9.1518 10.5645 9.07611 10.3818C9.00042 10.1991 8.98064 9.99801 9.01923 9.80403C9.05781 9.61005 9.15306 9.43186 9.29291 9.29201C9.43276 9.15215 9.61089 9.05691 9.80487 9.01832C9.99885 8.97974 10.1999 8.99955 10.3826 9.07524C10.5654 9.15093 10.7216 9.27911 10.8315 9.44356C10.9414 9.608 10.9999 9.80135 10.9999 9.99913C11.0002 10.1306 10.9746 10.2609 10.9245 10.3824C10.8744 10.504 10.8007 10.6145 10.7078 10.7075C10.6149 10.8006 10.5046 10.8744 10.3831 10.9248C10.2617 10.9752 10.1314 11.0011 9.99994 11.0011V10.9991ZM14.09 10.9991C13.8922 10.9991 13.6988 10.9405 13.5344 10.8306C13.3699 10.7207 13.2418 10.5645 13.1661 10.3818C13.0904 10.1991 13.0706 9.99801 13.1092 9.80403C13.1478 9.61005 13.243 9.43186 13.3829 9.29201C13.5227 9.15215 13.701 9.05691 13.895 9.01832C14.0889 8.97974 14.29 8.99955 14.4727 9.07524C14.6554 9.15093 14.8116 9.27911 14.9214 9.44356C15.0313 9.608 15.09 9.80135 15.09 9.99913C15.0903 10.1306 15.0646 10.2609 15.0145 10.3824C14.9643 10.504 14.8907 10.6145 14.7978 10.7075C14.7049 10.8006 14.5945 10.8744 14.4731 10.9248C14.3516 10.9752 14.2215 11.0011 14.09 11.0011V10.9991Z" fill="#2EC28B"/>
</svg>
