<svg width="72" height="72" viewBox="0 0 72 72" fill="none" xmlns="http://www.w3.org/2000/svg">
<path d="M29.6385 37.6539L30.0664 41.9151L31.3734 41.2478L32.9812 43.9456L32.4723 39.0171L31.0612 40.1802L29.6385 37.6539ZM21.6808 42.7159L26.6775 45.9571L27.0476 44.4318L31.3156 45.4995L25.5324 41.7531L25.6134 43.7741L21.6808 42.7159V42.7159ZM38.3364 37.6444L38.3943 41.9151L37.0179 41.3527L35.734 44.1744L35.6646 39.2269L37.2145 40.266L38.3364 37.6444ZM46.8378 42.0486L42.2459 45.6711L41.7023 44.184L37.5731 45.5853L42.8936 41.4004L43.044 43.4213L46.8378 42.0486Z" fill="#42BA85"/>
<path d="M71 68.6645V48.6073C71 39.103 61.6543 31.4004 50.1226 31.4004H21.8774C10.3457 31.4004 1 39.103 1 48.6073V68.674M35.0978 65.347L30.957 68.6645" stroke="#30446D" stroke-width="1.5" stroke-linecap="round" stroke-linejoin="round"/>
<path d="M17.8407 50.7331V60.714L30.425 50.7426C31.5238 49.8751 32.8539 49.1983 34.3229 48.8646C35.8381 48.531 37.7812 48.4547 39.7706 49.3222C41.5287 50.0849 42.8589 51.4195 43.5066 52.9733C43.5182 53.0019 43.5297 53.0305 43.5413 53.0496C43.6685 53.3737 43.7726 53.6978 43.842 54.0219" stroke="#30446D" stroke-width="1.5" stroke-linecap="round" stroke-linejoin="round"/>
<path d="M55.2697 53.0877V63.0591L42.6854 53.0877C41.5866 52.2202 40.2565 51.5434 38.7875 51.2097C37.2723 50.8761 35.3292 50.7998 33.3397 51.6673C31.5816 52.4299 30.2515 53.7645 29.6038 55.3184C29.5922 55.347 29.5807 55.3756 29.5691 55.3947C28.5281 57.959 29.465 60.7998 31.813 62.6873L42.1534 71M35.6646 28.4357C44.8564 28.4357 52.3087 22.2936 52.3087 14.7178C52.3087 7.14204 44.8564 1 35.6646 1C26.4728 1 19.0205 7.14204 19.0205 14.7178C19.0205 22.2936 26.4728 28.4357 35.6646 28.4357Z" stroke="#30446D" stroke-width="1.5" stroke-linecap="round" stroke-linejoin="round"/>
</svg>
