<svg width="49" height="72" viewBox="0 0 49 72" fill="none" xmlns="http://www.w3.org/2000/svg">
<path d="M11.8904 6.136C11.8904 3.37462 14.7486 1.14282 18.2851 1.14282C21.8216 1.14282 24.6798 3.37462 24.6798 6.136V44.9088M11.8904 44.9088V12.6895M34.1726 62.7915C33.458 64.0966 32.5013 65.2881 31.3265 66.3473C28.1533 69.1938 23.4905 71 18.2706 71C8.72695 71 1 64.9571 1 57.5147C1 51.8311 5.50536 46.9704 11.8759 44.9844M24.6774 44.975C31.0479 46.9609 35.5533 51.8217 35.5533 57.5052" stroke="#30446D" stroke-width="1.5" stroke-linecap="round" stroke-linejoin="round"/>
<path d="M20.7134 50.6774V18.4014H15.8326V50.6774C12.066 51.5096 9.29256 54.2048 9.29256 57.4201C9.29256 61.2879 13.3135 64.4276 18.267 64.4276C23.2204 64.4276 27.2414 61.2879 27.2414 57.4201C27.2535 54.2142 24.48 51.5096 20.7134 50.6774V50.6774Z" fill="#42BA85"/>
<path d="M15.8326 27.5083V50.6774C12.066 51.5096 9.29256 54.2048 9.29256 57.4201C9.29256 61.2879 13.3135 64.4276 18.267 64.4276C23.2205 64.4276 27.2414 61.2879 27.2414 57.4201M24.9293 11.8574H31.8448M24.6738 18.8081H29.5909M24.9293 25.7494H31.8448M24.6738 32.7001H29.5909M24.9293 39.6508H31.8448" stroke="#30446D" stroke-width="1.5" stroke-linecap="round" stroke-linejoin="round"/>
<path d="M34.4379 3.70558C34.8973 3.70558 35.338 3.56306 35.6629 3.30936C35.9878 3.05566 36.1704 2.71157 36.1704 2.35279C36.1704 1.99401 35.9878 1.64992 35.6629 1.39622C35.338 1.14253 34.8973 1 34.4379 1C33.9785 1 33.538 1.14248 33.2132 1.39608C32.8884 1.64969 32.706 1.99366 32.706 2.35232C32.706 2.71098 32.8884 3.05494 33.2132 3.30855C33.538 3.56216 33.9785 3.70464 34.4379 3.70464V3.70558ZM48 8.11244C48 8.4056 47.891 8.70822 47.673 9.0392C47.455 9.37019 47.1159 9.68227 46.6557 9.97543C46.2075 10.2686 45.6262 10.5145 44.9359 10.6941C44.2455 10.8738 43.4704 10.9684 42.6105 10.9684C40.7696 10.9684 39.3405 10.5523 38.311 9.71064C37.2816 8.87844 36.7608 7.75308 36.7608 6.34402C36.7608 5.38889 36.9909 4.54724 37.4632 3.81907C37.9356 3.09089 38.6138 2.52349 39.51 2.1263C40.4063 1.72912 41.4721 1.53052 42.7074 1.53052C43.4825 1.53052 44.185 1.61564 44.8269 1.79531C45.4688 1.97499 46.0138 2.20196 46.4619 2.4762C46.91 2.75045 47.2491 3.05306 47.4792 3.36514C47.7093 3.67721 47.8304 3.97037 47.8304 4.24462C47.8304 4.51886 47.6972 4.75528 47.4308 4.95388C47.1643 5.14301 46.8494 5.24704 46.4619 5.24704C46.2196 5.24704 46.0138 5.19975 45.8442 5.09573C45.6746 5.00116 45.493 4.8404 45.2992 4.61344C44.9359 4.17842 44.5604 3.85689 44.1607 3.63938C43.7611 3.42188 43.2645 3.31785 42.6468 3.31785C41.7627 3.31785 41.0603 3.58265 40.5274 4.12168C39.9945 4.66072 39.7159 5.38889 39.7159 6.31565C39.7159 6.75067 39.7886 7.15731 39.9218 7.51666C40.055 7.88548 40.2609 8.19755 40.5153 8.45288C40.7696 8.70822 41.0966 8.90681 41.4599 9.0392C41.8354 9.1716 42.2351 9.2378 42.6832 9.2378C43.2766 9.2378 43.7853 9.13377 44.2092 8.91627C44.6331 8.69876 45.0085 8.36777 45.3355 7.93276C45.5172 7.66797 45.711 7.46938 45.929 7.31807C46.1349 7.16676 46.4013 7.10056 46.7041 7.10056C47.0674 7.10056 47.3702 7.20459 47.6124 7.42209C47.8789 7.6396 48 7.87602 48 8.11244V8.11244Z" fill="#BCEBFF"/>
<path d="M45.3089 4.61343C44.9455 4.17842 44.5701 3.85688 44.1704 3.63938C43.7707 3.42187 43.2742 3.31785 42.6565 3.31785C41.7724 3.31785 41.0699 3.58264 40.5371 4.12168C40.0042 4.66071 39.7256 5.38888 39.7256 6.31565C39.7256 6.75066 39.7983 7.1573 39.9315 7.51666C40.0647 7.88547 40.2706 8.19754 40.5249 8.45288C40.7793 8.70821 41.1063 8.9068 41.4696 9.0392C41.8451 9.17159 42.2447 9.23779 42.6928 9.23779C43.2863 9.23779 43.795 9.13377 44.2189 8.91626C44.6428 8.69875 45.0182 8.36777 45.3452 7.93275C45.5269 7.66797 45.7207 7.46937 45.9387 7.31806C46.1445 7.16675 46.411 7.10056 46.7138 7.10056C47.0771 7.10056 47.3799 7.20458 47.6221 7.42209C47.8643 7.63959 47.9855 7.86656 47.9855 8.11243C47.9855 8.40559 47.8764 8.70821 47.6584 9.0392C47.4404 9.37018 47.1013 9.68226 46.6411 9.97542C46.193 10.2686 45.6117 10.5145 44.9213 10.6941C44.231 10.8738 43.4559 10.9684 42.596 10.9684C40.7551 10.9684 39.3259 10.5523 38.2965 9.71063C37.267 8.87843 36.7463 7.75308 36.7463 6.34402C36.7463 5.38888 36.9764 4.54723 37.4487 3.81906C37.921 3.09089 38.5993 2.52348 39.4955 2.1263C40.3917 1.72911 41.4575 1.53052 42.6928 1.53052" stroke="#30446D" stroke-width="1.5" stroke-linecap="round" stroke-linejoin="round"/>
</svg>
