<svg width="204" height="185" fill="none" xmlns="http://www.w3.org/2000/svg">
    <rect width="204" height="185" rx="16" fill="#fff"/>
    <path d="M139 30H64v75h75V30z" fill="#fff"/>
    <path d="M91.375 35.85c0-2.92 2.36-5.28 5.28-5.28 2.92 0 5.28 2.36 5.28 5.28v41M91.375 76.85V42.78M109.773 95.76c-.59 1.38-1.38 2.64-2.35 3.76-2.62 3.01-6.47 4.92-10.78 4.92-7.88 0-14.26-6.39-14.26-14.26 0-6.01 3.72-11.15 8.98-13.25M101.933 76.92c5.26 2.1 8.98 7.24 8.98 13.25" stroke="#30446D" stroke-width="1.5" stroke-linecap="round" stroke-linejoin="round"/>
    <path d="M98.66 82.95V48.82h-4.03v34.13c-3.11.88-5.4 3.73-5.4 7.13 0 4.09 3.32 7.41 7.41 7.41s7.41-3.32 7.41-7.41c.01-3.39-2.28-6.25-5.39-7.13z" fill="#42BA85"/>
    <path d="M94.63 58.45v24.5c-3.11.88-5.4 3.73-5.4 7.13 0 4.09 3.32 7.41 7.41 7.41s7.41-3.32 7.41-7.41M102.141 41.9h5.71M101.93 49.25h4.06M102.141 56.59h5.71M101.93 63.94h4.06M102.141 71.29h5.71" stroke="#30446D" stroke-width="1.5" stroke-linecap="round" stroke-linejoin="round"/>
    <path d="M109.992 33.28a1.43 1.43 0 1 0 0-2.861 1.43 1.43 0 0 0 0 2.86zM121.19 37.94c0 .31-.09.63-.27.98-.18.35-.46.68-.84.99-.37.31-.85.57-1.42.76-.57.19-1.21.29-1.92.29-1.52 0-2.7-.44-3.55-1.33-.85-.88-1.28-2.07-1.28-3.56 0-1.01.19-1.9.58-2.67.39-.77.95-1.37 1.69-1.79.74-.42 1.62-.63 2.64-.63.64 0 1.22.09 1.75.28.53.19.98.43 1.35.72.37.29.65.61.84.94.19.33.29.64.29.93 0 .29-.11.54-.33.75-.22.2-.48.31-.8.31-.2 0-.37-.05-.51-.16-.14-.1-.29-.27-.45-.51-.3-.46-.61-.8-.94-1.03-.33-.23-.74-.34-1.25-.34-.73 0-1.31.28-1.75.85-.44.57-.67 1.34-.67 2.32 0 .46.06.89.17 1.27.11.39.28.72.49.99.21.27.48.48.78.62.31.14.64.21 1.01.21.49 0 .91-.11 1.26-.34.35-.23.66-.58.93-1.04.15-.28.31-.49.49-.65.17-.16.39-.23.64-.23.3 0 .55.11.75.34.22.23.32.48.32.73z" fill="#BCEBFF"/>
    <path d="M118.968 34.24c-.3-.46-.61-.8-.94-1.03-.33-.23-.74-.34-1.25-.34-.73 0-1.31.28-1.75.85-.44.57-.67 1.34-.67 2.32 0 .46.06.89.17 1.27.11.39.28.72.49.99.21.27.48.48.78.62.31.14.64.21 1.01.21.49 0 .91-.11 1.26-.34.35-.23.66-.58.93-1.04.15-.28.31-.49.49-.65.17-.16.39-.23.64-.23.3 0 .55.11.75.34.2.23.3.47.3.73 0 .31-.09.63-.27.98-.18.35-.46.68-.84.99-.37.31-.85.57-1.42.76-.57.19-1.21.29-1.92.29-1.52 0-2.7-.44-3.55-1.33-.85-.88-1.28-2.07-1.28-3.56 0-1.01.19-1.9.58-2.67.39-.77.95-1.37 1.69-1.79.74-.42 1.62-.63 2.64-.63" stroke="#30446D" stroke-width="1.5" stroke-linecap="round" stroke-linejoin="round"/>
    <path d="M49.93 151.192c-1.141 0-2.176-.245-3.104-.736a5.698 5.698 0 0 1-2.176-2.064c-.523-.885-.784-1.883-.784-2.992s.261-2.101.784-2.976a5.553 5.553 0 0 1 2.176-2.064c.928-.501 1.968-.752 3.12-.752.97 0 1.846.171 2.624.512.79.341 1.45.832 1.984 1.472l-1.664 1.536c-.757-.875-1.696-1.312-2.816-1.312-.693 0-1.312.155-1.856.464-.544.299-.97.72-1.28 1.264-.299.544-.448 1.163-.448 1.856 0 .693.15 1.312.448 1.856.31.544.736.971 1.28 1.28.544.299 1.163.448 1.856.448 1.12 0 2.059-.443 2.816-1.328l1.664 1.536a5.18 5.18 0 0 1-1.984 1.488c-.79.341-1.67.512-2.64.512zm11.248-.064c-.907 0-1.723-.187-2.448-.56a4.292 4.292 0 0 1-1.68-1.584c-.406-.672-.608-1.435-.608-2.288 0-.853.202-1.616.608-2.288a4.177 4.177 0 0 1 1.68-1.568c.725-.384 1.541-.576 2.448-.576.906 0 1.717.192 2.432.576a4.177 4.177 0 0 1 1.68 1.568c.405.672.608 1.435.608 2.288 0 .853-.203 1.616-.608 2.288a4.292 4.292 0 0 1-1.68 1.584c-.715.373-1.526.56-2.432.56zm0-2.048c.64 0 1.162-.213 1.568-.64.416-.437.624-1.019.624-1.744 0-.725-.208-1.301-.624-1.728-.406-.437-.928-.656-1.568-.656s-1.168.219-1.584.656c-.416.427-.624 1.003-.624 1.728 0 .725.208 1.307.624 1.744.416.427.944.64 1.584.64zm7.638-9.952h2.496V151h-2.496v-11.872zm14.83 0V151h-2.383v-.992c-.62.747-1.515 1.12-2.688 1.12-.811 0-1.547-.181-2.208-.544a3.912 3.912 0 0 1-1.536-1.552c-.374-.672-.56-1.451-.56-2.336 0-.885.186-1.664.56-2.336a3.912 3.912 0 0 1 1.536-1.552c.66-.363 1.397-.544 2.208-.544 1.098 0 1.957.347 2.576 1.04v-4.176h2.496zm-4.64 9.952c.63 0 1.153-.213 1.569-.64.416-.437.624-1.019.624-1.744 0-.725-.208-1.301-.624-1.728-.416-.437-.94-.656-1.568-.656-.64 0-1.168.219-1.584.656-.416.427-.624 1.003-.624 1.728 0 .725.208 1.307.624 1.744.416.427.944.64 1.584.64zm22.766 2.112-1.344-1.248c-1.067.832-2.315 1.248-3.744 1.248-.81 0-1.541-.128-2.192-.384-.65-.267-1.163-.635-1.536-1.104a2.524 2.524 0 0 1-.544-1.584c0-.693.192-1.301.576-1.824.395-.533 1.024-1.04 1.888-1.52-.405-.416-.699-.811-.88-1.184a2.746 2.746 0 0 1-.272-1.184c0-.544.144-1.024.432-1.44.288-.416.693-.736 1.216-.96.533-.235 1.147-.352 1.84-.352.97 0 1.75.235 2.336.704.587.459.88 1.083.88 1.872 0 .576-.176 1.088-.528 1.536-.341.448-.896.88-1.664 1.296l2.048 1.904a7.285 7.285 0 0 0 .56-1.744l2 .624c-.213.992-.555 1.84-1.024 2.544l1.312 1.216-1.36 1.584zm-4.56-9.84c-.373 0-.672.096-.896.288a.946.946 0 0 0-.32.736c0 .224.059.437.176.64.117.192.347.453.688.784.544-.288.923-.544 1.136-.768.213-.235.32-.485.32-.752a.857.857 0 0 0-.288-.672c-.192-.171-.464-.256-.816-.256zm-.352 7.888c.779 0 1.477-.219 2.096-.656l-2.704-2.528c-.501.288-.859.571-1.072.848-.213.277-.32.592-.32.944 0 .416.181.752.544 1.008.363.256.848.384 1.456.384zm17.568-7.36v2.96h5.184v2.08h-5.184V151h-2.592v-11.2h8.464v2.08h-5.872zm16.914 4.848c0 .032-.016.256-.048.672h-6.512c.117.533.394.955.832 1.264.437.309.981.464 1.632.464.448 0 .842-.064 1.184-.192.352-.139.677-.352.976-.64l1.328 1.44c-.811.928-1.995 1.392-3.552 1.392-.971 0-1.83-.187-2.576-.56-.747-.384-1.323-.912-1.728-1.584-.406-.672-.608-1.435-.608-2.288 0-.843.197-1.6.592-2.272a4.19 4.19 0 0 1 1.648-1.584c.704-.384 1.488-.576 2.352-.576.842 0 1.605.181 2.288.544a3.909 3.909 0 0 1 1.6 1.568c.394.672.592 1.456.592 2.352zm-4.464-2.576c-.566 0-1.04.16-1.424.48-.384.32-.619.757-.704 1.312h4.24c-.086-.544-.32-.976-.704-1.296-.384-.331-.854-.496-1.408-.496zm15.763-1.76L139.009 151h-2.576l-3.616-8.608h2.576l2.384 5.856 2.464-5.856h2.4zm10.466 4.336c0 .032-.016.256-.048.672h-6.512c.118.533.395.955.832 1.264.438.309.982.464 1.632.464a3.36 3.36 0 0 0 1.184-.192c.352-.139.678-.352.976-.64l1.328 1.44c-.81.928-1.994 1.392-3.552 1.392-.97 0-1.829-.187-2.576-.56-.746-.384-1.322-.912-1.728-1.584-.405-.672-.608-1.435-.608-2.288 0-.843.198-1.6.592-2.272a4.203 4.203 0 0 1 1.648-1.584c.704-.384 1.488-.576 2.352-.576.843 0 1.606.181 2.288.544a3.903 3.903 0 0 1 1.6 1.568c.395.672.592 1.456.592 2.352zm-4.464-2.576c-.565 0-1.04.16-1.424.48-.384.32-.618.757-.704 1.312h4.24c-.085-.544-.32-.976-.704-1.296-.384-.331-.853-.496-1.408-.496zm9.76-.624a2.784 2.784 0 0 1 1.2-.944c.512-.213 1.099-.32 1.76-.32v2.304a9.276 9.276 0 0 0-.56-.032c-.714 0-1.274.203-1.68.608-.405.395-.608.992-.608 1.792V151h-2.496v-8.608h2.384v1.136z" fill="#005D8D"/>
</svg>
