<svg width="74" height="74" viewBox="0 0 74 74" fill="none" xmlns="http://www.w3.org/2000/svg">
<path d="M29.3254 38.1284V41.2118" stroke="#004171" stroke-width="3" stroke-miterlimit="10" stroke-linecap="round"/>
<path d="M44.7422 38.1284V41.2118" stroke="#004171" stroke-width="3" stroke-miterlimit="10" stroke-linecap="round"/>
<path d="M29.3254 38.1284V41.2118" stroke="#004171" stroke-width="3" stroke-miterlimit="10" stroke-linecap="round"/>
<path d="M44.7422 38.1284V41.2118" stroke="#004171" stroke-width="3" stroke-miterlimit="10" stroke-linecap="round"/>
<path d="M58.0716 39.2107C57.8835 16.687 52.5216 6.61987 37.034 6.61987C21.5464 6.61987 16.1753 16.69 15.9995 39.2261" stroke="#004171" stroke-width="3" stroke-linecap="round" stroke-linejoin="round"/>
<path d="M56.7549 46.9038C59.1506 48.6366 62.16 46.577 62.16 43.3426C62.2125 42.7902 62.1431 42.2331 61.9567 41.7105C61.7703 41.188 61.4714 40.7127 61.0811 40.3183C60.6909 39.924 60.2188 39.6201 59.6982 39.4282C59.1776 39.2363 58.6212 39.1611 58.0684 39.2078" stroke="#004171" stroke-width="3" stroke-linecap="round" stroke-linejoin="round"/>
<path d="M18.0437 50.7855C21.5186 60.7169 28.7151 67.38 37.034 67.38C45.3528 67.38 52.5462 60.7139 56.0211 50.7855" stroke="#004171" stroke-width="3" stroke-linecap="round" stroke-linejoin="round"/>
<path d="M16.0148 39.1583C15.4556 39.0957 14.8895 39.159 14.358 39.3435C13.8264 39.528 13.3428 39.829 12.9426 40.2245C12.5424 40.6199 12.2356 41.0999 12.0448 41.6293C11.8541 42.1586 11.7841 42.7239 11.84 43.2838C11.84 46.4966 14.8308 48.5933 17.245 46.8481" stroke="#004171" stroke-width="3" stroke-linecap="round" stroke-linejoin="round"/>
<path d="M18.5339 50.616L30.5959 45.8122C32.6254 44.9576 34.7984 44.4952 37 44.4493H37.0771C39.2766 44.496 41.4474 44.9584 43.475 45.8122L55.5401 50.616" stroke="#004171" stroke-width="3" stroke-linecap="round" stroke-linejoin="round"/>
<path d="M28.6441 29.7944C25.6826 30.2399 22.7694 30.9625 19.943 31.9528L16.1782 33.4174" stroke="#004171" stroke-width="3" stroke-linecap="round" stroke-linejoin="round"/>
<path d="M57.9143 33.8948C53.9906 31.8849 49.7775 30.4993 45.4268 29.7878" stroke="#004171" stroke-width="3" stroke-linecap="round" stroke-linejoin="round"/>
<path d="M37.0339 35.1993C42.1426 35.1993 46.2839 31.058 46.2839 25.9493C46.2839 20.8407 42.1426 16.6993 37.0339 16.6993C31.9253 16.6993 27.7839 20.8407 27.7839 25.9493C27.7839 31.058 31.9253 35.1993 37.0339 35.1993Z" stroke="#004171" stroke-width="3" stroke-linecap="round" stroke-linejoin="round"/>
</svg>
