<svg width="74" height="74" viewBox="0 0 74 74" fill="none" xmlns="http://www.w3.org/2000/svg">
<path d="M38.7176 8.32532H44.8843C45.7021 8.32532 46.4863 8.65017 47.0646 9.2284C47.6428 9.80664 47.9676 10.5909 47.9676 11.4087V19.8662C47.9676 31.9961 38.7176 42.2266 29.4676 42.2266C20.2176 42.2266 10.9677 31.9961 10.9677 19.8662V11.4087C10.9677 10.5909 11.2925 9.80664 11.8707 9.2284C12.449 8.65017 13.2332 8.32532 14.051 8.32532H20.2177" stroke="#004171" stroke-width="3" stroke-linecap="round" stroke-linejoin="round"/>
<path d="M29.5135 42.2419C14.0506 60.742 35.6339 73.0753 47.9673 60.742" stroke="#004171" stroke-width="3" stroke-linecap="round" stroke-linejoin="round"/>
<path d="M55.3241 57.6243C59.5813 57.6243 63.0324 54.1732 63.0324 49.916C63.0324 45.6588 59.5813 42.2076 55.3241 42.2076C51.0669 42.2076 47.6157 45.6588 47.6157 49.916C47.6157 54.1732 51.0669 57.6243 55.3241 57.6243Z" stroke="#004171" stroke-width="3" stroke-linecap="round" stroke-linejoin="round"/>
<path d="M56.0949 49.916C56.0949 49.7115 56.0137 49.5155 55.8692 49.3709C55.7246 49.2264 55.5285 49.1451 55.3241 49.1451" stroke="#004171" stroke-width="2" stroke-linecap="round" stroke-linejoin="round"/>
<path d="M54.5532 49.9163C54.5532 50.1207 54.6344 50.3168 54.779 50.4613C54.9236 50.6059 55.1196 50.6871 55.3241 50.6871C55.5285 50.6871 55.7246 50.6059 55.8691 50.4613C56.0137 50.3168 56.0949 50.1207 56.0949 49.9163" stroke="#004171" stroke-width="2" stroke-linecap="round" stroke-linejoin="round"/>
<path d="M55.3241 49.1451C55.1196 49.1451 54.9236 49.2264 54.779 49.3709C54.6344 49.5155 54.5532 49.7115 54.5532 49.916" stroke="#004171" stroke-width="3" stroke-linecap="round" stroke-linejoin="round"/>
</svg>
