<svg width="46" height="29" viewBox="0 0 46 29" fill="none" xmlns="http://www.w3.org/2000/svg">
<g clip-path="url(#clip0_882_21423)">
<path d="M42.5617 27.0071C43.4157 26.1642 43.8904 25.0391 43.8982 23.8392L44.0248 4.43317C44.041 1.95605 42.0389 -0.0722398 39.562 -0.0883503L33.7605 -0.126233C33.2644 -0.129473 32.8595 0.270164 32.8562 0.766324C32.8529 1.26255 33.2524 1.66731 33.7489 1.67068L39.5503 1.70856C41.0365 1.71827 42.2377 2.93524 42.228 4.42143L42.2033 8.19479L18.1958 8.03802C17.6431 7.58664 16.9825 7.3026 16.276 7.21095L16.3129 1.55676L25.6457 1.6177C26.1419 1.62094 26.5467 1.2213 26.55 0.725145C26.5532 0.228921 26.1537 -0.175842 25.6574 -0.17921L6.62161 -0.303512C5.42168 -0.311347 4.29055 0.148541 3.43652 0.991491C2.58255 1.83438 2.10787 2.95947 2.10009 4.15934L1.97338 23.5655C1.96529 24.804 2.46174 25.9304 3.26979 26.749C4.07783 27.5677 5.19761 28.0788 6.43616 28.0869L39.3766 28.3021C40.5766 28.3099 41.7077 27.85 42.5617 27.0071ZM42.1705 13.226L19.0087 13.0747C19.3854 12.4858 19.6066 11.7882 19.6115 11.039C19.6141 10.6268 19.5511 10.2246 19.4293 9.84306L42.1917 9.9917L42.1705 13.226ZM17.0496 20.2805L17.0395 21.833C15.1133 19.9978 13.9254 17.5131 13.7203 14.8415L14.5754 14.851C15.6516 16.5889 17.1266 18.0315 18.8649 19.0639L17.6836 19.4277C17.3089 19.5431 17.0522 19.8883 17.0496 20.2805ZM11.1198 26.3206L11.1516 21.4424C11.8089 20.5708 12.3487 19.6179 12.7594 18.6085C13.1681 19.6516 13.7145 20.6364 14.3853 21.5366L14.3539 26.3417L11.1198 26.3206ZM3.87927 18.2801C3.85374 18.2889 3.82896 18.299 3.80462 18.3099L3.82772 14.7726L8.80265 14.8051C7.52803 16.3996 5.82396 17.6105 3.87927 18.2801ZM3.86063 9.74134L6.26049 9.75701C6.13362 10.137 6.06543 10.5384 6.06268 10.9506C6.05779 11.6997 6.26992 12.4002 6.63878 12.9939L3.83945 12.9756L3.86063 9.74134ZM11.9334 11.7855L11.6882 11.537C11.3397 11.1839 10.7708 11.1801 10.4176 11.5287C10.0644 11.8773 10.0608 12.4462 10.4093 12.7993L10.6272 13.02L9.8858 13.0152C9.34104 13.0117 8.83026 12.7962 8.44753 12.4084C8.06481 12.0207 7.85597 11.5071 7.85959 10.9623C7.86315 10.4175 8.07861 9.90681 8.46637 9.52408C8.85412 9.14136 9.36761 8.93258 9.91243 8.93614C10.4748 8.93981 10.9831 9.17178 11.3501 9.54355C11.7169 9.91519 11.9424 10.4267 11.9387 10.9889L11.9334 11.7855ZM10.9935 14.8275L11.8485 14.8293C11.6085 17.498 10.3889 19.9667 8.43833 21.7768L8.44846 20.2243C8.45006 19.9801 8.35294 19.7529 8.18929 19.5871C8.09013 19.4867 7.9665 19.4087 7.82563 19.3633L6.64928 18.9842C8.40096 17.9744 9.89473 16.5512 10.9935 14.8275ZM17.2267 9.58122C17.6093 9.96891 17.8182 10.4825 17.8146 11.0273C17.8073 12.1519 16.8865 13.0608 15.7618 13.0535L14.9652 13.0483L15.1859 12.8305C15.5391 12.4819 15.5427 11.913 15.1942 11.5599C14.8457 11.2068 14.2768 11.203 13.9236 11.5516L13.7307 11.742L13.7356 11.0007C13.7391 10.4558 13.9546 9.94511 14.3423 9.56239C14.7301 9.17967 15.2436 8.97089 15.7884 8.97444C16.3332 8.97806 16.844 9.19353 17.2267 9.58122ZM14.4777 7.40339C13.8424 7.63241 13.2845 8.02507 12.8544 8.53001C12.7832 8.44435 12.7087 8.36082 12.6296 8.28064C12.2313 7.87715 11.7592 7.57344 11.2435 7.38088L11.2817 1.52391L14.516 1.54503L14.4777 7.40339ZM4.6988 2.27036C5.21118 1.76463 5.88984 1.48864 6.60981 1.4934L9.48481 1.51211L9.44789 7.16629C8.74031 7.24865 8.076 7.5241 7.51752 7.96816L3.87237 7.94436L3.89694 4.17107C3.90158 3.4511 4.18642 2.77609 4.6988 2.27036ZM6.44789 26.2901C4.9617 26.2804 3.76052 25.0634 3.77022 23.5772L3.79395 19.944C3.82701 19.9593 3.86084 19.9734 3.89616 19.9847L6.64712 20.8714L6.62915 23.6246C6.62757 23.8664 6.72328 24.0946 6.8882 24.2617C6.94954 24.3239 7.02041 24.3775 7.09942 24.4203C7.39101 24.5784 7.746 24.5631 8.02273 24.3802C8.48769 24.0731 8.92742 23.7377 9.34183 23.3784L9.3227 26.3087L6.44789 26.2901ZM39.3884 26.5052L16.151 26.3534L16.1698 23.4721C16.5634 23.8183 16.9807 24.1425 17.4209 24.4415C17.6952 24.6279 18.0501 24.6481 18.3436 24.4938C18.6373 24.3395 18.822 24.036 18.8243 23.7043L18.8422 20.9511L21.6045 20.1002C21.9742 19.9864 22.2295 19.6489 22.2383 19.2623C22.2471 18.8756 22.0077 18.5268 21.6437 18.396C19.708 17.701 18.0199 16.4681 16.7662 14.857L42.1586 15.0229L42.1011 23.8274C42.0965 24.5474 41.8116 25.2224 41.2993 25.7281C40.7869 26.2339 40.1084 26.5099 39.3884 26.5052Z" fill="#004171"/>
<path d="M29.5374 1.61557C29.8721 1.98187 30.4403 2.00749 30.8066 1.67278C31.173 1.33807 31.1986 0.769788 30.8639 0.403485C30.5291 0.0371818 29.9609 0.011569 29.5946 0.346277C29.2283 0.680986 29.2026 1.24927 29.5374 1.61557Z" fill="#004171"/>
</g>
<defs>
<clipPath id="clip0_882_21423">
<rect width="46" height="29" fill="white"/>
</clipPath>
</defs>
</svg>
