<svg width="75" height="75" fill="none" xmlns="http://www.w3.org/2000/svg">
    <path d="M58.074 6.25c-4.284 0-6.85 2.044-9.581 3.787-2.732-1.743-5.298-3.787-9.581-3.787-6.89 0-12.478 5.724-12.478 12.787 0 7.845 5.996 11.614 5.996 23.702 0 13.827 4.394 18.654 7.394 18.654 6.731 0 2.46-17.933 8.669-17.933 6.21 0 1.937 17.937 8.669 17.937 3 0 7.393-4.827 7.393-18.654 0-12.092 5.996-15.857 5.996-23.703 0-7.066-5.588-12.79-12.477-12.79z" fill="#fff"/>
    <path d="M44.018 32.772s-1.17-.129-3.063-.573c0 0-5.478-.6-11.886-3.717 1.61 3.628 3.36 7.731 3.36 14.26 0 9.214 1.953 14.427 4.14 16.883 4.783-6.386 7.629-14.386 7.629-23.07a37.84 37.84 0 0 0-.18-3.783z" fill="#BCEBFF"/>
    <path d="M43.143 58.596c-.643 1.68-1.64 2.801-3.32 2.801-3 0-7.393-4.827-7.393-18.654 0-12.092-5.996-15.857-5.996-23.703 0-7.066 5.588-12.79 12.478-12.79 7.46 0 9.713 6.21 16.706 6.21" stroke="#30446D" stroke-width="2" stroke-linecap="round" stroke-linejoin="round"/>
    <path d="M51.4 8.184c1.846-1.077 3.898-1.934 6.67-1.934 6.893 0 12.481 5.724 12.481 12.787 0 7.845-5.996 11.614-5.996 23.702 0 13.827-4.393 18.654-7.393 18.654-6.732 0-2.46-17.933-8.67-17.933-3.782 0-3.676 6.654-4.536 11.856" stroke="#30446D" stroke-width="2" stroke-linecap="round" stroke-linejoin="round"/>
    <path d="M22.757 68.75c10.989-6.54 18.382-18.765 18.382-32.768 0-1.276-.062-2.54-.184-3.783 0 0-9.566-1.045-18.198-7.567C14.124 31.154 4.558 32.2 4.558 32.2a38.963 38.963 0 0 0-.183 3.783c0 14.003 7.393 26.227 18.382 32.768z" fill="#fff"/>
    <path d="M40.121 44.853a38.922 38.922 0 0 0 1.018-8.871c0-1.276-.062-2.54-.183-3.783 0 0-9.567-1.045-18.199-7.567v20.22h17.364zM5.393 44.853c2.382 10.195 8.775 18.783 17.364 23.897V44.853H5.392z" fill="#BCEBFF"/>
    <path d="M22.758 24.632V58.86M29.562 44.853H5.392M40.12 44.853h-3.485M17.154 64.654a36.84 36.84 0 0 0 5.603 4.096v0c10.989-6.54 18.382-18.765 18.382-32.768 0-1.276-.062-2.54-.184-3.783 0 0-1.61-.177-4.106-.835M31.948 29.75c-2.86-1.136-6.085-2.772-9.191-5.118C14.124 31.154 4.558 32.2 4.558 32.2a38.963 38.963 0 0 0-.183 3.783c0 7.522 2.132 14.533 5.812 20.422" stroke="#30446D" stroke-width="2" stroke-linecap="round" stroke-linejoin="round"/>
</svg>
