<svg width="26" height="33" viewBox="0 0 26 33" fill="none" xmlns="http://www.w3.org/2000/svg">
<path d="M7.98206 5.125H4.73206C3.8701 5.125 3.04345 5.46741 2.43396 6.0769C1.82447 6.6864 1.48206 7.51305 1.48206 8.375V27.875C1.48206 28.737 1.82447 29.5636 2.43396 30.1731C3.04345 30.7826 3.8701 31.125 4.73206 31.125H20.9821C21.844 31.125 22.6707 30.7826 23.2802 30.1731C23.8896 29.5636 24.2321 28.737 24.2321 27.875V8.375C24.2321 7.51305 23.8896 6.6864 23.2802 6.0769C22.6707 5.46741 21.844 5.125 20.9821 5.125H17.7321" stroke="#FABE41" stroke-width="2" stroke-linecap="round" stroke-linejoin="round"/>
<path d="M14.4821 1.875H11.2321C9.43713 1.875 7.98206 3.33007 7.98206 5.125C7.98206 6.91993 9.43713 8.375 11.2321 8.375H14.4821C16.277 8.375 17.7321 6.91993 17.7321 5.125C17.7321 3.33007 16.277 1.875 14.4821 1.875Z" stroke="#FABE41" stroke-width="2" stroke-linecap="round" stroke-linejoin="round"/>
<path d="M9.60706 19.75H16.1071M12.8571 16.5V23" stroke="#FABE41" stroke-width="2" stroke-linecap="round" stroke-linejoin="round"/>
</svg>
