<svg width="40" height="40" viewBox="0 0 40 40" fill="none" xmlns="http://www.w3.org/2000/svg">
<path d="M22.5 6.66699H20.3166L21.25 3.86699C21.335 3.61764 21.3596 3.35168 21.322 3.09094C21.2843 2.8302 21.1854 2.5821 21.0333 2.36699C20.8799 2.15159 20.6775 1.97577 20.4428 1.85405C20.208 1.73233 19.9477 1.66821 19.6833 1.66699H10.3166C10.0522 1.66821 9.79188 1.73233 9.55714 1.85405C9.3224 1.97577 9.11999 2.15159 8.96663 2.36699C8.81453 2.5821 8.71559 2.8302 8.67793 3.09094C8.64027 3.35168 8.66495 3.61764 8.74996 3.86699L9.68329 6.66699H7.49996C7.27895 6.66699 7.06698 6.75479 6.9107 6.91107C6.75442 7.06735 6.66663 7.27931 6.66663 7.50033C6.66663 7.72134 6.75442 7.9333 6.9107 8.08958C7.06698 8.24586 7.27895 8.33366 7.49996 8.33366H8.33329V31.667C8.33329 33.4351 9.03567 35.1308 10.2859 36.381C11.5362 37.6313 13.2318 38.3337 15 38.3337C16.7681 38.3337 18.4638 37.6313 19.714 36.381C20.9642 35.1308 21.6666 33.4351 21.6666 31.667V8.33366H22.5C22.721 8.33366 22.9329 8.24586 23.0892 8.08958C23.2455 7.9333 23.3333 7.72134 23.3333 7.50033C23.3333 7.27931 23.2455 7.06735 23.0892 6.91107C22.9329 6.75479 22.721 6.66699 22.5 6.66699ZM10.3166 3.33366H19.6833L18.5666 6.66699H11.4333L10.3166 3.33366ZM15 36.667C13.6739 36.667 12.4021 36.1402 11.4644 35.2025C10.5267 34.2648 9.99996 32.9931 9.99996 31.667V16.667H20V31.667C20 32.9931 19.4732 34.2648 18.5355 35.2025C17.5978 36.1402 16.326 36.667 15 36.667ZM20 15.0003H9.99996V8.33366H20V15.0003Z" fill="#005D8D"/>
<path d="M26.05 25.2836C25.6 25.7836 23.3334 28.3336 23.3334 30.0002C23.3334 30.8843 23.6846 31.7321 24.3097 32.3572C24.9348 32.9824 25.7827 33.3336 26.6667 33.3336C27.5508 33.3336 28.3986 32.9824 29.0237 32.3572C29.6489 31.7321 30 30.8843 30 30.0002C30 28.3336 27.7334 25.7836 27.2834 25.2836C27.204 25.1998 27.1083 25.1332 27.0023 25.0876C26.8963 25.0421 26.7821 25.0186 26.6667 25.0186C26.5513 25.0186 26.4371 25.0421 26.3311 25.0876C26.2251 25.1332 26.1295 25.1998 26.05 25.2836ZM26.6667 31.6669C26.2247 31.6669 25.8008 31.4913 25.4882 31.1787C25.1756 30.8662 25 30.4423 25 30.0002C25.3346 28.9273 25.9039 27.9423 26.6667 27.1169C27.4264 27.9446 27.9953 28.9288 28.3334 30.0002C28.3334 30.4423 28.1578 30.8662 27.8452 31.1787C27.5327 31.4913 27.1087 31.6669 26.6667 31.6669Z" fill="#005D8D"/>
<path d="M28.9834 8.64993C28.9036 8.55525 28.8041 8.47913 28.6918 8.42692C28.5795 8.37471 28.4572 8.34766 28.3334 8.34766C28.2096 8.34766 28.0872 8.37471 27.9749 8.42692C27.8627 8.47913 27.7632 8.55525 27.6834 8.64993C27.2334 9.19993 23.3334 14.1499 23.3334 16.6666C23.3334 17.9927 23.8602 19.2645 24.7978 20.2021C25.7355 21.1398 27.0073 21.6666 28.3334 21.6666C29.6595 21.6666 30.9312 21.1398 31.8689 20.2021C32.8066 19.2645 33.3334 17.9927 33.3334 16.6666C33.3334 14.1499 29.4334 9.19993 28.9834 8.64993ZM28.3334 19.9999C27.4493 19.9999 26.6015 19.6487 25.9764 19.0236C25.3512 18.3985 25 17.5507 25 16.6666C25 15.3999 26.8334 12.5166 28.3334 10.5333C29.8334 12.5166 31.6667 15.3999 31.6667 16.6666C31.6667 17.5507 31.3155 18.3985 30.6904 19.0236C30.0653 19.6487 29.2174 19.9999 28.3334 19.9999Z" fill="#005D8D"/>
</svg>
