<svg width="142" height="142" viewBox="0 0 142 142" fill="none" xmlns="http://www.w3.org/2000/svg">
<g clip-path="url(#clip0_386_2)">
<path d="M121.725 107.158L121.218 107.011C113.878 105.035 111.395 103.146 108.127 101.898C105.614 100.944 103.508 100.043 101.735 99.2108C106.312 98.4309 110.48 97.4513 114.216 96.2815C122.592 93.6381 125.708 90.9079 126.037 90.6044L128.499 88.3249L125.929 86.1669C119.62 80.8629 118.398 68.5794 117.098 55.5791C115.815 42.7218 114.489 29.4266 108.435 18.7487C101.31 6.17958 89.068 0.0477038 70.9932 0C52.9357 0.0477038 40.6933 6.17958 33.5649 18.7468C27.511 29.4246 26.185 42.7218 24.9022 55.5793C23.6065 68.58 22.38 80.8632 16.0707 86.1672L13.5052 88.3252L15.9667 90.6047C16.2917 90.9081 19.4119 93.6384 27.7886 96.2818C31.5242 97.4519 35.6886 98.4312 40.269 99.2111C38.4964 100.043 36.3861 100.945 33.8728 101.898C30.6053 103.146 28.1222 105.035 20.7811 107.011L20.2786 107.159C13.5964 109.36 9.09814 115.557 9.09814 122.551V142H71.0021H132.902V122.551C132.901 115.557 128.408 109.36 121.725 107.158ZM111.212 56.1684C112.456 68.6405 113.639 80.5076 119.399 87.857C117.752 88.7063 115.26 89.7899 111.689 90.8646C106.212 92.5201 100.071 93.612 93.9304 94.3143C93.3064 93.6988 92.9511 93.1877 92.7473 92.7974C92.7212 92.7453 92.6996 92.6848 92.6735 92.6327L92.6474 89.1312C101.726 80.1437 109.15 66.8765 109.15 52.9834C109.15 49.8632 108.877 46.8776 108.361 44.0392C108.859 44.1041 109.362 44.1626 109.865 44.2125C110.411 48.1603 110.814 52.186 111.212 56.1684ZM91.0746 82.18C87.6771 86.0454 83.8727 89.2868 80.0678 91.5402C76.6747 93.5596 73.4547 94.669 71.0018 94.669C68.5493 94.669 65.3293 93.5596 61.9362 91.5402C58.1315 89.2873 54.3269 86.0457 50.9294 82.1803C43.2244 73.3984 38.7998 62.7987 38.7693 53.0829C43.9305 51.9672 49.1352 50.0887 54.331 47.458C61.399 43.8786 68.4713 38.9038 75.3529 32.6721C76.1111 31.9873 76.8436 31.3048 77.5631 30.6222C82.1523 34.078 91.1265 39.976 102.056 42.8103C102.836 46.0214 103.235 49.4253 103.235 52.9831C103.235 62.7294 98.8015 73.3679 91.0746 82.18ZM103.286 21.6653C106.038 26.5189 107.72 32.1609 108.873 38.1369C97.2195 36.5422 86.9968 30.159 81.8187 26.3891C88.6475 19.2776 92.9728 13.2173 94.0558 11.6486C97.8435 14.1273 100.881 17.4205 103.286 21.6653ZM38.713 21.6653C41.5473 16.6686 45.2476 12.9854 50.028 10.4047C55.5009 7.44928 62.5605 5.93884 70.9932 5.91721C77.8662 5.9344 83.8206 6.93785 88.7515 8.90313C86.7885 11.6483 80.4794 20.0683 71.2836 28.3779C64.8006 34.2322 58.179 38.8866 51.5922 42.2126C44.8666 45.6101 38.1714 47.6142 31.6324 48.1972C32.7548 38.5854 34.4535 29.1817 38.713 21.6653ZM30.315 90.8646C26.7441 89.7899 24.248 88.7066 22.6014 87.857C28.3608 80.5076 29.5481 68.6402 30.7917 56.1643C30.8566 55.5056 30.9218 54.8469 30.9911 54.1837C31.6152 54.1405 32.2392 54.0883 32.8677 54.0234C33.2229 67.5352 40.4989 80.3689 49.3524 89.1312L49.3307 92.6327C49.3047 92.6848 49.283 92.7453 49.257 92.7974C49.0534 93.1874 48.6978 93.6988 48.0738 94.3143C41.933 93.612 35.7881 92.5201 30.315 90.8646ZM126.986 136.08H71.0021H15.0176V122.551C15.0176 118.148 17.8343 114.239 22.042 112.801L22.3714 112.705C27.9054 111.215 30.9562 109.759 33.4132 108.58C34.3623 108.129 35.1813 107.731 35.9831 107.427C42.6048 104.905 51.7267 100.927 54.5133 95.5102C54.6217 95.2936 54.6996 95.1202 54.7429 95.0162L55.1503 94.1148C60.6496 98.1885 66.3005 100.58 71.0021 100.58C75.6998 100.58 81.355 98.1882 86.8536 94.1148L87.2611 95.0162C87.3002 95.1116 87.3781 95.2936 87.4821 95.5016C90.2642 100.918 99.395 104.905 106.025 107.427C106.818 107.731 107.637 108.129 108.586 108.58C111.043 109.759 114.099 111.215 119.633 112.705L119.961 112.801C124.165 114.24 126.986 118.148 126.986 122.551V136.08H126.986Z" fill="#3A3A3A"/>
</g>
<defs>
<clipPath id="clip0_386_2">
<rect width="142" height="142" fill="white"/>
</clipPath>
</defs>
</svg>
