<svg width="16" height="16" viewBox="0 0 16 16" fill="none" xmlns="http://www.w3.org/2000/svg">
<path d="M6.00006 9L6.39469 8.69298L6.39458 8.69283L6.39411 8.69222L6.39224 8.68982L6.38482 8.68029L6.35564 8.64277L6.24281 8.49771L5.82253 7.95739L4.3897 6.11548C3.2424 4.64075 1.80518 2.7936 0.645237 1.30368C0.390796 0.973465 0.624253 0.5 1.04006 0.5H14.9501C15.3806 0.5 15.6064 0.977188 15.3549 1.30366C14.1949 2.79359 12.7577 4.64074 11.6104 6.11548L10.1776 7.95739L9.7573 8.49771L9.64447 8.64277L9.61529 8.68029L9.60788 8.68982L9.60601 8.69222L9.60554 8.69283L9.60542 8.69298L10.0001 9L9.60538 8.69303L9.50006 8.82845V9V14C9.50006 14.8239 8.82391 15.5 8.00006 15.5C7.1762 15.5 6.50006 14.8239 6.50006 14V9V8.82845L6.39473 8.69303L6.00006 9Z" stroke="#005D8D"/>
</svg>
