<svg width="72" height="72" viewBox="0 0 72 72" fill="none" xmlns="http://www.w3.org/2000/svg">
<path d="M34.6224 22.4823C35.6166 22.8325 36.6491 23.1227 37.739 23.3328C38.0927 23.4028 38.2934 23.783 38.1596 24.1232C37.5382 25.7242 36.3719 30.0266 39.4215 34.7393C39.6605 35.1095 39.5267 35.6198 39.1347 35.8099C37.2992 36.6904 32.8443 39.3219 32.567 44.1447C32.5383 44.625 32.1273 44.9852 31.6779 44.8951C29.852 44.5349 25.6265 44.1747 23.2174 47.8168C22.9592 48.207 22.4526 48.3271 22.0702 48.0569C20.2633 46.7562 15.0914 43.8145 9.03993 47.2665C9.03993 47.2665 1.10516 51.2688 1 59.7836V69.7303M16.7931 3.16125C16.7931 3.16125 19.7375 12.1464 27.1848 18.2599" stroke="#30446D" stroke-width="1.5" stroke-linecap="round" stroke-linejoin="round"/>
<path d="M28.5251 59.8536C27.4639 59.2733 26.4314 58.6029 25.5041 57.8125C25.0165 57.4022 24.3665 57.2722 23.7738 57.4523C22.0816 57.9626 18.4871 58.733 15.5235 57.2221C15.5235 57.2221 9.49116 53.8202 7.93289 61.5446C7.75125 62.4451 7.68433 63.3757 7.68433 64.2962V69.7403M67.2219 15.3782C68.7228 18.1698 70.0994 21.912 70.6348 26.6947C71.868 37.6209 68.1779 48.6272 60.31 55.9114C55.6352 60.2339 48.991 63.7659 39.9186 63.1755C39.9186 63.1755 37.2418 62.9754 33.915 62.0149M26.2957 1C26.2957 1 28.7526 8.91453 35.5115 11.1458C36.1807 11.3659 36.9168 11.1558 37.4139 10.6255C39.4024 8.47428 45.3487 3.04117 53.3886 4.57204C54.727 4.82219 56.1323 5.27245 57.5759 5.96284C59.029 6.65324 60.5204 7.58377 62.0691 8.79446" stroke="#30446D" stroke-width="1.5" stroke-linecap="round" stroke-linejoin="round"/>
<path d="M27.7125 28.7659L31.1636 31.9277L31.4982 30.5469L34.5192 31.6876L30.5327 28.0455L30.4944 29.8965L27.7125 28.7659V28.7659ZM26.4314 37.9611L32.0144 37.3608L31.1158 35.9L34.6243 34.0189L28.1713 34.7093L29.7201 36.2902L26.4314 37.9611V37.9611Z" fill="#42BA85"/>
<path d="M66.046 33.6587C66.046 31.3173 63.9906 29.4263 61.4572 29.4263C60.5968 29.4263 59.7938 29.6564 59.1055 30.0366C58.2929 28.8359 56.8684 28.0355 55.2241 28.0355C52.8724 28.0355 50.9508 29.6764 50.6927 31.7876C50.0617 31.5575 49.383 31.4174 48.666 31.4174C45.6259 31.4174 43.169 33.6887 43.169 36.4903C43.169 37.4508 43.4749 38.3414 43.9816 39.1018C43.8478 39.2619 43.7426 39.452 43.6661 39.6521C43.3273 39.3939 42.9491 39.1977 42.5476 39.0718C40.779 38.5315 38.9722 39.412 38.5133 41.0429C38.2647 41.9434 38.4846 42.8739 39.02 43.6244C38.2361 44.5049 37.7485 45.6055 37.7485 46.8362C37.7485 47.7968 38.0544 48.6873 38.5611 49.4477C38.4273 49.6078 38.3221 49.7979 38.2456 49.998C37.9068 49.7398 37.5286 49.5436 37.1271 49.4177C35.3585 48.8774 33.5517 49.7579 33.0928 51.3888C32.6339 53.0197 33.6951 54.7808 35.4637 55.3311C36.3814 55.6112 37.3088 55.5012 38.0449 55.1109C38.2648 56.2916 39.1729 57.3422 40.4731 57.7424C42.2417 58.2828 44.0485 57.4022 44.5074 55.7713C44.5265 55.7113 44.5265 55.6513 44.5361 55.5912C45.6355 55.5412 46.5915 54.8708 46.8878 53.8202C47.1555 52.8597 46.7827 51.8491 46.0274 51.1787C46.4768 50.9386 46.8878 50.6484 47.2416 50.2982C48.102 52.0492 50.0139 53.2799 52.2414 53.2799C55.2815 53.2799 57.7384 51.0086 57.7384 48.207C57.7384 48.1069 57.7097 48.0069 57.7097 47.9068C59.421 47.2965 60.6351 45.7656 60.6351 43.9746C60.6351 43.3842 60.5012 42.8139 60.2622 42.3036C61.9926 41.4531 63.178 39.7822 63.178 37.8511C63.178 37.751 63.1493 37.651 63.1493 37.5509C64.8319 36.9806 66.046 35.4497 66.046 33.6587V33.6587Z" fill="#BDE3F8"/>
<path d="M71 59.0132C71 65.637 65.8758 71 59.5471 71C53.2184 71 48.0943 65.637 48.0943 59.0132C48.0943 55.9714 49.1841 53.1899 50.9623 51.0787C51.0009 51.86 51.3297 52.5946 51.8785 53.1257C52.4274 53.6568 53.1529 53.9424 53.9001 53.9215C54.6473 53.9006 55.3572 53.5749 55.8782 53.0139C56.3992 52.4528 56.69 51.7009 56.6887 50.9186C56.6887 47.7167 55.4459 46.2759 56.1151 42.884C56.7939 39.462 60.6943 38.0312 60.6943 38.0312C60.6943 47.6767 71 48.3271 71 59.0132V59.0132Z" fill="#42BA85"/>
<path d="M57.7786 70.86C54.6047 70.3397 51.861 68.4686 50.1115 65.8071M50.9623 51.0787C51.0009 51.86 51.3297 52.5946 51.8786 53.1257C52.4274 53.6568 53.1529 53.9424 53.9001 53.9215C54.6474 53.9006 55.3572 53.5749 55.8782 53.0139C56.3992 52.4528 56.6901 51.7009 56.6887 50.9186C56.6887 47.7167 55.4459 46.2759 56.1151 42.884C56.7939 39.472 60.6944 38.0312 60.6944 38.0312C60.6944 39.2319 60.8569 40.3025 61.1341 41.263" stroke="#30446D" stroke-width="1.5" stroke-linecap="round" stroke-linejoin="round"/>
</svg>
