<svg width="82" height="82" viewBox="0 0 82 82" fill="none" xmlns="http://www.w3.org/2000/svg">
<path d="M45.0185 72.4292L22.2812 51.8584C20.5846 50.3232 20.3641 47.5946 21.7879 45.7654L51.1792 8.00108C52.603 6.17189 55.1338 5.93405 56.8304 7.46918L79.5677 28.04C81.2643 29.5751 81.4849 32.3038 80.0611 34.133L50.6698 71.8973C49.2459 73.7265 46.7151 73.9643 45.0185 72.4292Z" fill="white"/>
<path d="M46.3181 25.0388C47.6055 24.4334 48.3275 23.7631 48.3275 23.0539V11.668L21.7879 45.7696C20.3641 47.5988 20.5846 50.3274 22.2812 51.8626L45.0185 72.4334C45.4156 72.7923 45.8608 73.0518 46.3261 73.2204V25.0388H46.3181Z" fill="#BCEBFF"/>
<path fill-rule="evenodd" clip-rule="evenodd" d="M67.383 37.8819C70.2627 37.8819 72.5971 35.365 72.5971 32.2603C72.5971 29.1556 70.2627 26.6387 67.383 26.6387C64.5034 26.6387 62.1689 29.1556 62.1689 32.2603C62.1689 35.365 64.5034 37.8819 67.383 37.8819Z" stroke="#30446D" strokeWidth="1.32" stroke-linecap="round" stroke-linejoin="round"/>
<path fill-rule="evenodd" clip-rule="evenodd" d="M44.778 40.0138C47.6577 40.0138 49.9921 37.4969 49.9921 34.3921C49.9921 31.2874 47.6577 28.7705 44.778 28.7705C41.8984 28.7705 39.564 31.2874 39.564 34.3921C39.564 37.4969 41.8984 40.0138 44.778 40.0138Z" stroke="#30446D" strokeWidth="1.32" stroke-linecap="round" stroke-linejoin="round"/>
<path d="M53.7184 49.817C51.5124 47.8192 51.2237 44.2775 53.0767 41.8992C54.9297 39.5208 58.2145 39.2094 60.4205 41.2073C62.6264 43.2051 62.9152 46.7467 61.0622 49.1251C60.0314 50.4484 58.5554 51.1316 57.0674 51.1316" stroke="#30446D" strokeWidth="1.32" stroke-linecap="round" stroke-linejoin="round"/>
<path fill-rule="evenodd" clip-rule="evenodd" d="M34.466 53.2638C37.3457 53.2638 39.6801 50.7469 39.6801 47.6421C39.6801 44.5374 37.3457 42.0205 34.466 42.0205C31.5864 42.0205 29.252 44.5374 29.252 47.6421C29.252 50.7469 31.5864 53.2638 34.466 53.2638Z" stroke="#30446D" strokeWidth="4" stroke-linecap="round" stroke-linejoin="round"/>
<path fill-rule="evenodd" clip-rule="evenodd" d="M46.7556 64.3819C49.6352 64.3819 51.9696 61.865 51.9696 58.7603C51.9696 55.6556 49.6352 53.1387 46.7556 53.1387C43.8759 53.1387 41.5415 55.6556 41.5415 58.7603C41.5415 61.865 43.8759 64.3819 46.7556 64.3819Z" stroke="#30446D" strokeWidth="1.32" stroke-linecap="round" stroke-linejoin="round"/>
<path d="M75.5811 39.8887L50.6699 71.8973" stroke="#30446D" strokeWidth="1.32" stroke-linecap="round" stroke-linejoin="round"/>
<path d="M37.2937 65.445L22.2812 51.8623C20.5846 50.3271 20.3641 47.5985 21.7879 45.7693L51.1792 8.00498C52.603 6.17579 55.1338 5.93795 56.8304 7.47309L79.5677 28.0439C81.2643 29.579 81.4849 32.3077 80.0611 34.1369" stroke="#30446D" strokeWidth="1.32" stroke-linecap="round" stroke-linejoin="round"/>
<path d="M50.6698 71.8975C49.246 73.7267 46.7151 73.9645 45.0186 72.4294" stroke="#30446D" strokeWidth="1.32" stroke-linecap="round" stroke-linejoin="round"/>
<path fill-rule="evenodd" clip-rule="evenodd" d="M55.09 26.7647C57.9697 26.7647 60.3041 24.2478 60.3041 21.1431C60.3041 18.0384 57.9697 15.5215 55.09 15.5215C52.2104 15.5215 49.876 18.0384 49.876 21.1431C49.876 24.2478 52.2104 26.7647 55.09 26.7647Z" stroke="#30446D" strokeWidth="1.32" stroke-linecap="round" stroke-linejoin="round"/>
<path d="M23.0595 1C10.8746 1 1 3.12757 1 5.75676V23.0541C1 23.7632 1.72195 24.4335 3.00942 25.0389H3.00541V76.6757C3.00541 79.0627 11.9856 81 23.0595 81C34.1334 81 43.1136 79.0627 43.1136 76.6757V25.0389H43.1096C44.397 24.4335 45.119 23.7632 45.119 23.0541V5.75676C45.119 3.12757 35.2444 1 23.0595 1Z" fill="white"/>
<path d="M43.1135 27.2015C39.6241 28.836 31.9595 29.9733 23.0595 29.9733C14.1595 29.9733 6.49077 28.836 3.00537 27.2015V23.2188H43.1135V27.2015Z" fill="#BCEBFF"/>
<path d="M23.0595 35.5948C11.9856 35.5948 3.00537 33.6575 3.00537 31.2705V66.2975C3.00537 68.6846 11.9856 70.6219 23.0595 70.6219C23.8255 70.6219 24.5796 70.6132 25.3216 70.5959V35.5689C24.5796 35.5819 23.8255 35.5948 23.0595 35.5948Z" fill="#BCEBFF"/>
<path d="M19.0486 49.3458C16.582 49.2377 14.2798 49.0302 12.2303 48.7491V41.3977C9.39059 41.0042 7.04426 40.4593 5.42389 39.8193V47.1707C3.88374 46.5566 3.00537 45.8561 3.00537 45.1123V52.4637C3.00537 53.2074 3.88374 53.9123 5.42389 54.522V61.8734C7.04025 62.5134 9.39059 63.0583 12.2303 63.4518V56.1004C14.2798 56.3858 16.582 56.5891 19.0486 56.6972V49.3458Z" fill="#42BA85"/>
<path d="M23.0595 1C10.8746 1 1 3.12757 1 5.75676V23.0541C1 25.6832 10.8746 27.8108 23.0595 27.8108C35.2444 27.8108 45.119 25.6832 45.119 23.0541V5.75676C45.119 3.12757 35.2444 1 23.0595 1Z" fill="#BCEBFF"/>
<path d="M43.1136 66.5872V25.0391" stroke="#30446D" strokeWidth="1.32" stroke-linecap="round" stroke-linejoin="round"/>
<path d="M3.00537 25.0391V76.6758C3.00537 79.0628 11.9856 81.0001 23.0595 81.0001C32.7496 81.0001 40.8354 79.5169 42.7044 77.5493" stroke="#30446D" strokeWidth="1.32" stroke-linecap="round" stroke-linejoin="round"/>
<path d="M40.4263 2.8252C43.3662 3.63384 45.1189 4.65006 45.1189 5.75709" stroke="#30446D" stroke-linecap="round" stroke-linejoin="round"/>
<path d="M45.119 5.75676C45.119 8.38595 35.2444 10.5135 23.0595 10.5135C10.8746 10.5135 1 8.38595 1 5.75676C1 3.12757 10.8746 1 23.0595 1" stroke="#30446D" strokeWidth="1.32" stroke-linecap="round" stroke-linejoin="round"/>
<path d="M45.119 5.75684V23.0541C45.119 25.6833 35.2444 27.8109 23.0595 27.8109C10.8746 27.8109 1 25.6833 1 23.0541V5.75684" stroke="#30446D" strokeWidth="1.32" stroke-linecap="round" stroke-linejoin="round"/>
<path d="M10.3973 34.6221C13.8506 35.2275 18.2585 35.595 23.0595 35.595C24.4713 35.595 25.847 35.5648 27.1746 35.5042C29.4487 35.4004 31.3378 37.3723 31.3378 39.8242V66.194C31.3378 68.4988 29.6613 70.4102 27.5275 70.514C26.0916 70.5832 24.5956 70.6221 23.0595 70.6221C11.9856 70.6221 3.00537 68.6848 3.00537 66.2977" stroke="#30446D" strokeWidth="1.32" stroke-linecap="round" stroke-linejoin="round"/>
<path d="M25.3255 35.5684V63.0192" stroke="#30446D" strokeWidth="1.32" stroke-linecap="round" stroke-linejoin="round"/>
<path d="M12.2302 63.4518V56.1004C14.2797 56.3858 16.5819 56.5891 19.0486 56.6972V49.3458C16.5819 49.2377 14.2797 49.0301 12.2302 48.7491V41.3977C9.39053 41.0042 7.0442 40.4593 5.42383 39.8193" stroke="#30446D" strokeWidth="1.32" stroke-linecap="round" stroke-linejoin="round"/>
<path d="M63.0913 68.9092H57.0991C57.5283 69.0043 57.8692 70.8984 57.8692 73.2249C57.8692 75.5513 57.5283 77.4454 57.0991 77.5405H63.0913C65.3012 77.5405 67.0941 75.6076 67.0941 73.2249C67.0941 70.8422 65.3053 68.9092 63.0913 68.9092Z" fill="#42BA85"/>
<path d="M57.8693 73.2249C57.8693 70.8984 57.5284 69.0043 57.0993 68.9092H51.8451C49.6351 68.9092 47.8423 70.8422 47.8423 73.2249C47.8423 75.6076 49.6351 77.5405 51.8451 77.5405H57.0993C57.5284 77.4454 57.8693 75.5513 57.8693 73.2249Z" fill="#BCEBFF"/>
<path fill-rule="evenodd" clip-rule="evenodd" d="M63.0914 77.5405H51.8451C49.6351 77.5405 47.8423 75.6076 47.8423 73.2249V73.2249C47.8423 70.8422 49.6351 68.9092 51.8451 68.9092H63.0914C65.3014 68.9092 67.0942 70.8422 67.0942 73.2249V73.2249C67.0942 75.6076 65.3054 77.5405 63.0914 77.5405Z" stroke="#30446D" strokeWidth="1.32" stroke-linecap="round" stroke-linejoin="round"/>
<path d="M57.0674 68.9004C57.5086 68.9004 57.8695 70.8377 57.8695 73.2247C57.8695 75.6117 57.5086 77.549 57.0674 77.549" stroke="#30446D" strokeWidth="1.32" stroke-linecap="round" stroke-linejoin="round"/>
<path d="M77.2575 70.172L73.0221 65.6055C73.2627 65.999 72.264 67.599 70.7359 69.2422C69.2078 70.8898 67.7278 71.9666 67.3628 71.7071L71.5982 76.2736C73.1624 77.9601 75.6973 77.9601 77.2575 76.2736C78.8217 74.5914 78.8217 71.8584 77.2575 70.172Z" fill="#42BA85"/>
<path d="M70.736 69.2423C72.2641 67.5947 73.2628 65.9991 73.0221 65.6055L69.3041 61.5969C67.7399 59.9104 65.2051 59.9104 63.6448 61.5969C62.0806 63.2834 62.0806 66.0164 63.6448 67.6985L67.3629 71.7072C67.7279 71.9666 69.2078 70.8899 70.736 69.2423Z" fill="#BCEBFF"/>
<path fill-rule="evenodd" clip-rule="evenodd" d="M71.5983 76.2776L63.6448 67.7024C62.0806 66.0159 62.0806 63.283 63.6448 61.6008V61.6008C65.2091 59.9143 67.7439 59.9143 69.3041 61.6008L77.2576 70.1759C78.8218 71.8624 78.8218 74.5954 77.2576 76.2776V76.2776C75.6933 77.9597 73.1625 77.9597 71.5983 76.2776Z" stroke="#30446D" strokeWidth="1.32" stroke-linecap="round" stroke-linejoin="round"/>
<path d="M73.0064 65.5752C73.3192 65.9125 72.3045 67.5557 70.7362 69.2465C69.168 70.9374 67.6479 72.0314 67.3311 71.6941" stroke="#30446D" strokeWidth="1.32" stroke-linecap="round" stroke-linejoin="round"/>
</svg>
