<svg width="14" height="14" viewBox="0 0 14 14" fill="none" xmlns="http://www.w3.org/2000/svg">
<path d="M12.8059 4.93501L8.83873 4.34939L7.06529 0.697543C7.01685 0.597558 6.93716 0.516617 6.83873 0.467418C6.59185 0.343627 6.29185 0.446786 6.16841 0.697543L4.39498 4.34939L0.427788 4.93501C0.318413 4.95088 0.218413 5.00326 0.141851 5.08261C0.0492908 5.17924 -0.00171392 5.30924 4.3978e-05 5.44405C0.00180188 5.57886 0.0561785 5.70745 0.151226 5.80155L3.02154 8.64399L2.34341 12.6577C2.32751 12.7511 2.33768 12.8471 2.37278 12.9349C2.40787 13.0227 2.46648 13.0987 2.54196 13.1544C2.61744 13.2101 2.70677 13.2432 2.79982 13.2499C2.89287 13.2566 2.98592 13.2368 3.06841 13.1925L6.61685 11.2976L10.1653 13.1925C10.2622 13.2449 10.3747 13.2624 10.4825 13.2433C10.7544 13.1957 10.9372 12.9338 10.8903 12.6577L10.2122 8.64399L13.0825 5.80155C13.1606 5.72379 13.2122 5.62221 13.2278 5.51112C13.27 5.23338 13.0794 4.97628 12.8059 4.93501Z" fill="#42BA85"/>
</svg>
