<svg width="8" height="11" viewBox="0 0 8 11" fill="none" xmlns="http://www.w3.org/2000/svg">
<path d="M3.58333 10.0451C3.77083 10.3183 4.20833 10.3183 4.39583 10.0451C7.4375 5.94756 8 5.51829 8 3.99634C8 1.92805 6.20833 0.25 4 0.25C1.77083 0.25 0 1.92805 0 3.99634C0 5.51829 0.541667 5.94756 3.58333 10.0451ZM4 5.55732C3.0625 5.55732 2.33333 4.87439 2.33333 3.99634C2.33333 3.1378 3.0625 2.43537 4 2.43537C4.91667 2.43537 5.66667 3.1378 5.66667 3.99634C5.66667 4.87439 4.91667 5.55732 4 5.55732Z" fill="#2EC28B"/>
</svg>
