<svg width="14" height="8" viewBox="0 0 14 8" fill="none" xmlns="http://www.w3.org/2000/svg">
<path d="M13.1484 2.25781L7.69922 0.578125C7.40625 0.480469 7.07422 0.480469 6.78125 0.578125L1.33203 2.25781C0.882812 2.39453 0.882812 3 1.33203 3.13672L2.28906 3.42969C2.07422 3.68359 1.95703 4.01562 1.9375 4.34766C1.74219 4.46484 1.625 4.66016 1.625 4.875C1.625 5.08984 1.72266 5.26562 1.87891 5.38281L1.39062 7.62891C1.35156 7.82422 1.48828 8 1.68359 8H2.79688C2.99219 8 3.12891 7.82422 3.08984 7.62891L2.60156 5.38281C2.75781 5.26562 2.875 5.08984 2.875 4.875C2.875 4.66016 2.73828 4.46484 2.5625 4.36719C2.58203 4.07422 2.71875 3.80078 2.97266 3.64453L6.78125 4.81641C6.95703 4.875 7.30859 4.93359 7.69922 4.81641L13.1484 3.13672C13.5977 3 13.5977 2.39453 13.1484 2.25781ZM7.875 5.42188C7.32812 5.57812 6.83984 5.5 6.60547 5.42188L3.77344 4.54297L3.5 6.75C3.5 7.45312 5.16016 8 7.25 8C9.32031 8 11 7.45312 11 6.75L10.707 4.54297L7.875 5.42188Z" fill="#2EC28B"/>
</svg>
