<svg width="71" height="55" viewBox="0 0 71 55" fill="none" xmlns="http://www.w3.org/2000/svg">
<path d="M13.7413 0C6.1345 0 0 6.25719 0 13.7413V41.2238C0 48.8306 6.1345 54.9651 13.7413 54.9651C21.2254 54.9651 27.4825 48.8306 27.4825 41.2238V13.7413C27.4825 6.25719 21.2254 0 13.7413 0ZM19.6304 27.4825H7.85216V13.7413C7.85216 10.5513 10.4286 7.85216 13.7413 7.85216C16.9312 7.85216 19.6304 10.5513 19.6304 13.7413V27.4825ZM36.6843 23.9245C36.3162 23.4338 35.5801 23.5565 35.212 24.0472C29.691 31.654 30.3044 42.4507 37.1751 49.3214C44.0457 56.192 54.8424 56.8055 62.4492 51.2844C62.9399 50.9163 63.0626 50.1802 62.5719 49.8121L36.6843 23.9245ZM64.903 21.5934C58.0323 14.6001 47.2356 14.1093 39.6289 19.6304C39.1381 19.9985 39.0154 20.7346 39.5062 21.1027L65.3937 46.9903C65.7618 47.3583 66.498 47.3583 66.866 46.8676C72.3871 39.2608 71.7736 28.4641 64.903 21.5934Z" fill="#42BA85"/>
</svg>
