<svg width="60" height="60" viewBox="0 0 60 60" fill="none" xmlns="http://www.w3.org/2000/svg">
<path d="M52.3828 13.0864C48.2812 13.2037 45 16.4877 45 20.4753C44.8828 23.2901 46.4062 25.8704 48.75 27.1605V40.2963C48.75 47.0988 42.7734 52.4938 35.625 52.4938C28.5938 52.4938 22.7344 47.3333 22.5 40.8827C31.0547 39.1235 37.5 31.6173 37.5 22.4692V4.29015C37.5 3.00003 36.4453 1.82719 35.1562 1.59262L27.7734 0.0679299C26.25 -0.283922 24.8438 0.771633 24.4922 2.29632L24.1406 4.05558C23.7891 5.58027 24.8438 7.10496 26.3672 7.45682L29.8828 8.16052V22.3519C29.8828 28.5679 24.9609 33.7284 18.75 33.7284C12.5391 33.8457 7.38281 28.8025 7.38281 22.4692V8.16052L11.0156 7.45682C12.5391 7.10496 13.5938 5.69756 13.2422 4.17287L12.8906 2.29632C12.5391 0.771633 11.1328 -0.283922 9.60938 0.0679299L2.22656 1.47534C0.9375 1.82719 0 3.00003 0 4.29015V22.4692C0 31.6173 6.44531 39.1235 15 40.8827C15.2344 51.5556 24.375 60 35.625 60C46.9922 60 56.25 51.2037 56.25 40.2963V27.1605C58.4766 25.8704 60 23.4074 60 20.5926C60 16.4877 56.4844 13.0864 52.3828 13.0864ZM52.5 22.4692C51.4453 22.4692 50.625 21.6482 50.625 20.5926C50.625 19.6543 51.4453 18.7161 52.5 18.7161C53.4375 18.7161 54.375 19.6543 54.375 20.5926C54.375 21.6482 53.4375 22.4692 52.5 22.4692Z" fill="#42BA85"/>
</svg>
