<svg width="56" height="72" viewBox="0 0 56 72" fill="none" xmlns="http://www.w3.org/2000/svg">
<path d="M0.784506 20.7489C-0.607212 17.1128 -0.0926307 13.3517 1.89554 10.2159C3.8954 7.08005 7.31037 4.56946 11.7428 3.42478L18.5611 1.65486C27.4026 -0.64412 36.8405 3.39592 39.6356 10.668C40.2438 12.2455 40.4894 13.8423 40.4075 15.4006C40.4075 15.4102 40.3958 15.4295 40.4075 15.4391C41.5536 28.9059 51.7401 45.6721 52.5938 47.0572L52.6055 47.0957C53.7282 48.3077 54.6171 49.7121 55.2135 51.2608C56.6169 54.9065 56.079 58.6483 54.1025 61.7938C53.0858 63.4034 51.6925 64.832 50.0026 65.9974C48.3127 67.1628 46.3595 68.0422 44.2552 68.5849L37.437 70.3548C28.5955 72.6538 19.1575 68.6137 16.3624 61.3417C15.7776 59.8218 15.532 58.2635 15.5788 56.763C14.4561 38.5347 6.67884 28.5115 4.12931 25.6835C4.12465 25.6712 4.11708 25.6597 4.10704 25.6498C4.09701 25.6399 4.08471 25.6318 4.07083 25.6258" fill="#BDE3F8"/>
<path d="M1.89554 10.2063C3.8954 7.07041 7.31037 4.55981 11.7428 3.41514L18.5611 1.64521C27.4026 -0.653764 36.8405 3.38628 39.6356 10.6584C40.2438 12.2359 40.4894 13.8327 40.4075 15.391C40.4075 15.4006 40.3958 15.4198 40.4075 15.4295C41.5536 28.8963 51.7401 45.6624 52.5938 47.0476L52.6055 47.0861C53.7282 48.2981 54.6171 49.7025 55.2135 51.2512M54.113 61.7841C53.0964 63.3938 51.7031 64.8223 50.0132 65.9878C48.3232 67.1532 46.37 68.0325 44.2657 68.5752L37.4475 70.3452C28.606 72.6441 19.168 68.6041 16.3729 61.332C15.7882 59.8122 15.5426 58.2539 15.5893 56.7533C14.4666 38.525 6.68936 28.5019 4.13983 25.6738C4.13517 25.6615 4.12761 25.6501 4.11757 25.6402C4.10754 25.6303 4.09524 25.6221 4.08136 25.6161C3.60186 25.0871 3.32117 24.8274 3.32117 24.8274" stroke="#30446D" stroke-width="1.5" stroke-linecap="round" stroke-linejoin="round"/>
<path d="M4.09069 25.6257C3.8334 25.366 3.5761 25.0967 3.33051 24.837C3.33051 24.837 3.59949 25.0967 4.09069 25.6257Z" fill="black"/>
<path d="M41.6004 22.0186C45.1908 21.0855 49.0268 22.7208 50.1613 25.6835L52.8745 32.7439M14.6689 49.9141C11.0786 50.8471 7.24256 49.2119 6.10813 46.2492L2.92707 37.9575C1.79265 35.0044 3.78081 31.8493 7.3829 30.9163" stroke="#30446D" stroke-width="1.5" stroke-linecap="round" stroke-linejoin="round"/>
<path d="M36.0078 36.2838C36.2887 37.0114 36.3923 37.7774 36.3127 38.538C36.233 39.2985 35.9716 40.0387 35.5436 40.716C35.1155 41.3933 34.5292 41.9945 33.8181 42.4852C33.1071 42.9758 32.2853 43.3462 31.3999 43.5751C27.6809 44.5371 23.7046 42.8537 22.535 39.7852C22.535 39.7852 22.5 39.6986 22.4415 39.4966C22.3947 39.3331 22.3479 39.1022 22.2894 38.8233C22.2778 38.7367 22.2544 38.6501 22.2427 38.5539C21.9503 36.659 21.8216 32.5516 24.2425 26.1356C24.2425 26.1356 32.7566 30.4258 35.6219 35.4662C35.7388 35.7355 35.8792 36.0145 36.0078 36.2838Z" fill="#42BA85"/>
</svg>
