<svg width="35" height="34" viewBox="0 0 35 34" fill="none" xmlns="http://www.w3.org/2000/svg">
<path fill-rule="evenodd" clip-rule="evenodd" d="M20.9121 0L17.9059 2.99307L19.409 4.4928L1.27789 22.2485C-0.300026 23.8165 -0.163187 26.5067 1.58364 28.2453L5.92612 32.5654C7.67081 34.3019 10.3028 34.5067 11.8807 32.9344L30.0845 15.1147L31.547 16.5739L34.5574 13.5787L20.9121 0ZM7.29236 30.6304L3.50579 26.8523C2.43246 25.7835 2.24217 24.224 3.08886 23.3899L20.942 5.8432L28.6178 13.5061L10.7625 31.0464C9.91795 31.8891 8.36141 31.6971 7.29236 30.6304Z" fill="black"/>
<path fill-rule="evenodd" clip-rule="evenodd" d="M11.3934 27.1791C10.6665 27.8959 9.46059 27.8532 8.38727 26.7865L7.58334 25.9823C6.50788 24.9071 6.22351 23.4564 6.94619 22.7439L15.195 14.5134L22.0433 16.4526L11.3934 27.1791Z" fill="#ED0909"/>
</svg>
