<svg xmlns="http://www.w3.org/2000/svg" width="30" height="30" fill="none" viewBox="0 0 30 30">
    <circle cx="15" cy="15" r="15" fill="#fff"/>
    <path fill="#42BA85" d="M17.893 11.751c1.14 0 2.232.464 3.037 1.29.805.827 1.258 1.948 1.258 3.117v5.14h-2.863v-5.14c0-.39-.151-.764-.42-1.039-.268-.275-.632-.43-1.012-.43s-.744.155-1.012.43-.42.649-.42 1.039v5.14H13.6v-5.14c0-1.17.452-2.29 1.258-3.116.805-.827 1.897-1.291 3.036-1.291zM10.736 12.486H7.873V21.3h2.863v-8.814zM9.305 10.283c.79 0 1.431-.658 1.431-1.47 0-.81-.64-1.468-1.431-1.468s-1.432.657-1.432 1.469c0 .81.641 1.469 1.432 1.469z"/>
</svg>
