<svg width="10" height="14" viewBox="0 0 10 14" fill="none" xmlns="http://www.w3.org/2000/svg">
<path d="M5.71152 12.937C5.79573 12.8432 6.81297 11.7016 7.80976 10.2097C8.30815 9.46372 8.80277 8.62818 9.17309 7.79074C9.54286 6.95453 9.79191 6.10932 9.79191 5.34593C9.79186 2.89435 7.79753 0.9 5.34595 0.9C2.89435 0.9 0.9 2.89435 0.9 5.34593C0.9 6.10932 1.14905 6.95453 1.51882 7.79074C1.88914 8.62818 2.38376 9.46372 2.88215 10.2097C3.87894 11.7016 4.89618 12.8432 4.98038 12.937C5.17569 13.1545 5.51658 13.1541 5.71152 12.937ZM5.71152 12.937L5.63712 12.8702L5.71153 12.937C5.71153 12.937 5.71153 12.937 5.71152 12.937ZM7.53275 8.80849C6.83712 9.972 5.99015 11.0809 5.34595 11.8536C4.7019 11.0811 3.85493 9.97221 3.15928 8.80865C2.43297 7.59383 1.88263 6.33712 1.88263 5.34597C1.88263 3.43634 3.43634 1.88263 5.34595 1.88263C7.25557 1.88263 8.80928 3.43634 8.80928 5.34595C8.80927 6.33715 8.259 7.59374 7.53275 8.80849Z" fill="#35364F" stroke="#35364F" strokeWidth="0.2"/>
<path d="M5.34522 3.10918C4.11194 3.10918 3.10869 4.11245 3.10869 5.34574C3.10869 6.57902 4.11196 7.58229 5.34522 7.58229C6.57849 7.58229 7.58173 6.57902 7.58173 5.34574C7.58173 4.11245 6.57849 3.10918 5.34522 3.10918ZM5.34522 6.69967C4.5987 6.69967 3.99132 6.09226 3.99132 5.34574C3.99132 4.59921 4.59872 3.99181 5.34522 3.99181C6.09173 3.99181 6.69913 4.59921 6.69913 5.34574C6.69913 6.09226 6.09173 6.69967 5.34522 6.69967Z" fill="#35364F" stroke="#35364F" strokeWidth="0.1"/>
</svg>
