<svg xmlns="http://www.w3.org/2000/svg" width="24" height="24" fill="none" viewBox="0 0 24 24">
    <path fill="#004171" stroke="#004171" d="M18.5 15.002h0c0-.05-.001-.099-.003-.149.015.671-.073 1.342-.264 1.988-.264.892-.716 1.718-1.326 2.42-.61.703-1.364 1.266-2.21 1.652-.847.386-1.766.586-2.697.586 0 0 0 0 0 0V21c-1.419.001-2.792-.5-3.875-1.416C7.04 18.668 6.316 17.398 6.08 16l12.42-.997zm0 0v.013c.054 1.692-.555 3.338-1.696 4.588s-2.725 2.006-4.415 2.106c-1.69.1-3.352-.462-4.633-1.568-1.282-1.106-2.08-2.669-2.228-4.355v-.009l-.002-.008h0c1.21-.847 2.156-2.007 2.743-3.346l10.23 2.58zm-9.84-3.554l-.225.565c.076-.203.144-.41.204-.62l.091.136-.07-.081zm9.633 1.965l-.063.033.041-.027.02-.013.002.007z"/>
    <mask id="pqkm588zoa" fill="#fff">
        <path d="M9.5 17c.276 0 .5-.224.5-.5s-.224-.5-.5-.5-.5.224-.5.5.224.5.5.5z"/>
    </mask>
    <path fill="#004171" d="M9.5 17c.276 0 .5-.224.5-.5s-.224-.5-.5-.5-.5.224-.5.5.224.5.5.5z"/>
    <path fill="#004171" d="M9 16.5c0-.276.224-.5.5-.5v2c.828 0 1.5-.672 1.5-1.5H9zm.5-.5c.276 0 .5.224.5.5H8c0 .828.672 1.5 1.5 1.5v-2zm.5.5c0 .276-.224.5-.5.5v-2c-.828 0-1.5.672-1.5 1.5h2zm-.5.5c-.276 0-.5-.224-.5-.5h2c0-.828-.672-1.5-1.5-1.5v2z" mask="url(#pqkm588zoa)"/>
    <mask id="euezslrm2b" fill="#fff">
        <path d="M14.5 17c.276 0 .5-.224.5-.5s-.224-.5-.5-.5-.5.224-.5.5.224.5.5.5z"/>
    </mask>
    <path fill="#004171" d="M14.5 17c.276 0 .5-.224.5-.5s-.224-.5-.5-.5-.5.224-.5.5.224.5.5.5z"/>
    <path fill="#004171" d="M14 16.5c0-.276.224-.5.5-.5v2c.828 0 1.5-.672 1.5-1.5h-2zm.5-.5c.276 0 .5.224.5.5h-2c0 .828.672 1.5 1.5 1.5v-2zm.5.5c0 .276-.224.5-.5.5v-2c-.828 0-1.5.672-1.5 1.5h2zm-.5.5c-.276 0-.5-.224-.5-.5h2c0-.828-.672-1.5-1.5-1.5v2z" mask="url(#euezslrm2b)"/>
    <path fill="#004171" stroke="#004171" d="M21.502 5.5l.013.013.014.012C20.477 7 19.551 8.561 18.76 10.192l-.135.278.189.245c.735.955 1.312 2.023 1.708 3.162.172.646.288 1.306.347 1.972-.073-.672-.203-1.336-.388-1.986l-.005-.015-.005-.015c-.42-1.188-1.036-2.297-1.82-3.284l-.08-.101h.004l.182-.364c.735-1.472 1.57-2.893 2.496-4.252l.236-.346.013.013zm-.612 10.58v-.013c.01.073.02.137.03.196.023.141.04.249.04.367v.032c-.01-.078-.021-.145-.03-.206-.023-.143-.04-.252-.04-.376zm.225 3.337c.067-.49.079-.986.036-1.478.046.504.035 1.012-.034 1.515-.103.48-.3.936-.58 1.34-.203.295-.448.557-.725.78.273-.221.514-.48.715-.771.282-.407.48-.866.582-1.35l.004-.017.002-.019zm-4.473 3.052l.02.001h-.13l.02-.002c.029-.002.057-.002.085 0h.005zM2.814 5.189l-.191.184c1.21-1.21 2.643-2.173 4.22-2.838.465-.196.939-.364 1.42-.506-2.027.596-3.9 1.672-5.45 3.16zm18.372 0c-1.55-1.488-3.422-2.564-5.449-3.16.481.142.955.31 1.42.506 1.576.665 3.01 1.629 4.22 2.838l-.19-.184zM2.893 19.494c-.061-.45-.077-.904-.047-1.355-.027.436-.01.874.049 1.308l.002.018.004.018c.102.484.3.943.581 1.35.282.407.642.753 1.06 1.019l.01.007.013.007c.615.346 1.292.559 1.987.629-.71-.062-1.4-.28-2.022-.642-.416-.266-.776-.612-1.057-1.018-.28-.405-.477-.86-.58-1.34z"/>
    <mask id="xmac5e4nrc" fill="#fff">
        <path d="M11.5 4v1h-1c-.133 0-.26.053-.354.146-.093.094-.146.221-.146.354 0 .133.053.26.146.354.094.093.221.146.354.146h1v1c0 .133.053.26.146.354.094.093.221.146.354.146.133 0 .26-.053.354-.146.093-.094.146-.221.146-.354V6h1c.133 0 .26-.053.354-.146.093-.094.146-.221.146-.354 0-.133-.053-.26-.146-.354C13.76 5.053 13.633 5 13.5 5h-1V4c0-.133-.053-.26-.146-.354-.094-.093-.221-.146-.354-.146-.133 0-.26.053-.354.146-.093.094-.146.221-.146.354z"/>
    </mask>
    <path fill="#004171" d="M11.5 4v1h-1c-.133 0-.26.053-.354.146-.093.094-.146.221-.146.354 0 .133.053.26.146.354.094.093.221.146.354.146h1v1c0 .133.053.26.146.354.094.093.221.146.354.146.133 0 .26-.053.354-.146.093-.094.146-.221.146-.354V6h1c.133 0 .26-.053.354-.146.093-.094.146-.221.146-.354 0-.133-.053-.26-.146-.354C13.76 5.053 13.633 5 13.5 5h-1V4c0-.133-.053-.26-.146-.354-.094-.093-.221-.146-.354-.146-.133 0-.26.053-.354.146-.093.094-.146.221-.146.354z"/>
    <path fill="#004171" d="M11.5 5v1h1V5h-1zm0 1h1V5h-1v1zm1 0V5h-1v1h1zm0-1h-1v1h1V5zm-2-1v1h2V4h-2zm1 0h-1v2h1V4zm-1 0c-.398 0-.78.158-1.06.44l1.414 1.414c-.094.093-.221.146-.354.146V4zm-1.06.44C9.157 4.72 9 5.101 9 5.5h2c0 .133-.053.26-.146.354L9.439 4.439zM9 5.5c0 .398.158.78.44 1.06l1.414-1.414c.093.094.146.221.146.354H9zm.44 1.06c.28.282.662.44 1.06.44V5c.133 0 .26.053.354.146L9.439 6.561zM10.5 7h1V5h-1v2zm0-1v1h2V6h-2zm0 1c0 .398.158.78.44 1.06l1.414-1.414c.093.094.146.221.146.354h-2zm.44 1.06c.28.282.662.44 1.06.44v-2c.133 0 .26.053.354.146l-1.415 1.415zM12 8.5c.398 0 .78-.158 1.06-.44l-1.414-1.414c.094-.093.221-.146.354-.146v2zm1.06-.44c.282-.28.44-.662.44-1.06h-2c0-.133.053-.26.146-.354l1.415 1.415zM13.5 7V6h-2v1h2zm-1 0h1V5h-1v2zm1 0c.398 0 .78-.158 1.06-.44l-1.414-1.414c.094-.093.221-.146.354-.146v2zm1.06-.44c.282-.28.44-.662.44-1.06h-2c0-.133.053-.26.146-.354l1.415 1.415zM15 5.5c0-.398-.158-.78-.44-1.06l-1.414 1.414C13.053 5.76 13 5.633 13 5.5h2zm-.44-1.06c-.28-.282-.662-.44-1.06-.44v2c-.133 0-.26-.053-.354-.146l1.415-1.415zM13.5 4h-1v2h1V4zm0 1V4h-2v1h2zm0-1c0-.398-.158-.78-.44-1.06l-1.414 1.414C11.553 4.26 11.5 4.133 11.5 4h2zm-.44-1.06c-.28-.282-.662-.44-1.06-.44v2c-.133 0-.26-.053-.354-.146l1.415-1.415zM12 2.5c-.398 0-.78.158-1.06.44l1.414 1.414c-.094.093-.221.146-.354.146v-2zm-1.06.44c-.282.28-.44.662-.44 1.06h2c0 .133-.053.26-.146.354l-1.415-1.415z" mask="url(#xmac5e4nrc)"/>
</svg>
