<svg xmlns="http://www.w3.org/2000/svg" width="24" height="24" fill="none" viewBox="0 0 24 24">
    <path fill="#004171" d="M13.5 4h-1.31l.56-1.68c.051-.15.066-.31.043-.466-.022-.156-.082-.305-.173-.434-.092-.13-.213-.235-.354-.308-.141-.073-.297-.111-.456-.112H6.19c-.159 0-.315.04-.456.112-.14.073-.262.179-.354.308-.091.13-.15.278-.173.434-.023.157-.008.316.043.466L5.81 4H4.5c-.133 0-.26.053-.354.146C4.053 4.24 4 4.367 4 4.5c0 .133.053.26.146.354.094.093.221.146.354.146H5v14c0 1.06.421 2.078 1.172 2.828C6.922 22.578 7.939 23 9 23c1.06 0 2.078-.421 2.828-1.172C12.578 21.078 13 20.061 13 19V5h.5c.133 0 .26-.053.354-.146.093-.094.146-.221.146-.354 0-.133-.053-.26-.146-.354C13.76 4.053 13.633 4 13.5 4zM6.19 2h5.62l-.67 2H6.86l-.67-2zM9 22c-.796 0-1.559-.316-2.121-.879C6.316 20.56 6 19.796 6 19v-9h6v9c0 .796-.316 1.559-.879 2.121C10.56 21.684 9.796 22 9 22zm3-13H6V5h6v4zM15.63 15.17C15.36 15.47 14 17 14 18c0 .531.21 1.04.586 1.415.375.375.884.586 1.414.586.53 0 1.04-.211 1.414-.586C17.79 19.04 18 18.53 18 18c0-1-1.36-2.53-1.63-2.83-.048-.05-.105-.09-.169-.118-.063-.027-.132-.041-.201-.041-.07 0-.138.014-.201.041-.064.027-.121.067-.169.118zM16 19c-.265 0-.52-.105-.707-.292C15.105 18.52 15 18.266 15 18c.2-.644.542-1.235 1-1.73.456.496.797 1.087 1 1.73 0 .265-.105.52-.293.707-.187.187-.442.293-.707.293zM17.39 5.19c-.048-.058-.108-.103-.175-.135-.067-.031-.14-.047-.215-.047-.074 0-.148.016-.215.047-.067.032-.127.077-.175.134C16.34 5.52 14 8.49 14 10c0 .796.316 1.559.879 2.121.562.563 1.325.88 2.121.88s1.559-.317 2.121-.88c.563-.562.879-1.325.879-2.12 0-1.51-2.34-4.48-2.61-4.81zM17 12c-.53 0-1.04-.211-1.414-.587C15.21 11.038 15 10.53 15 10c0-.76 1.1-2.49 2-3.68.9 1.19 2 2.92 2 3.68 0 .53-.21 1.04-.586 1.414C18.04 11.79 17.53 12 17 12z"/>
</svg>
