<svg width="142" height="142" viewBox="0 0 142 142" fill="none" xmlns="http://www.w3.org/2000/svg">
<path d="M127.638 107.154L127.135 107.011C119.794 105.035 117.307 103.146 114.039 101.902C102.452 97.486 99.4357 94.301 98.6641 92.7973C98.6339 92.7451 98.612 92.6847 98.5862 92.6325L98.5168 82.5009C104.718 74.2 109.151 63.8409 109.151 53.1088C109.151 53.1088 113.338 35.2701 103.327 18.4819L103.318 18.4062C103.31 18.4084 103.301 18.4084 103.284 18.4106C101.113 14.7858 98.283 11.2127 94.5996 7.87795C90.7512 4.39202 81.2436 0 69.7835 0C61.9332 0 53.1667 2.05845 44.6708 7.87823C28.1841 19.1692 29.8482 47.6424 29.8482 47.6424C29.8482 47.6424 31.003 47.935 33.0787 48.2079C32.9292 49.8026 32.849 51.4365 32.849 53.1091C32.849 63.8409 37.2802 74.2003 43.4813 82.5012L43.41 92.6328C43.3862 92.685 43.3645 92.7454 43.3362 92.7976C42.5649 94.3013 39.5488 97.4863 27.9567 101.902C24.6893 103.146 22.2062 105.035 14.863 107.011L14.3605 107.155C7.67815 109.365 3.18213 115.561 3.18213 122.556V142H70.9991H138.818V122.556C138.818 115.561 134.32 109.364 127.638 107.154ZM100.48 25.8471C102.109 29.5543 103.201 33.578 103.734 37.8161C103.817 38.477 103.881 39.1249 103.934 39.7575C102.98 37.9745 101.94 36.4535 100.766 35.1272C99.4701 33.6582 98.014 32.4556 96.4367 31.5282C97.6285 28.6291 99.1408 26.889 100.48 25.8471ZM36.888 33.1143C37.7372 28.7051 39.0113 24.8092 40.6754 21.5352C42.6124 17.7217 45.0805 14.7686 48.0142 12.7598C54.6444 8.21825 61.9679 5.91713 69.7835 5.91713C79.8655 5.91713 87.917 9.81076 90.6297 12.2636C93.386 14.7597 95.7434 17.5462 97.6759 20.5861C95.3271 22.1592 92.7228 24.8633 90.868 29.5044C89.8928 29.3374 88.8963 29.2531 87.8735 29.2531C83.4532 29.2531 78.6951 30.7461 73.3215 33.8162C60.3773 41.2113 48.4061 42.765 40.6405 42.765C38.7792 42.765 37.1454 42.6741 35.7847 42.5526C35.8998 40.0351 36.1924 36.7178 36.888 33.1143ZM38.7662 53.1094C38.7664 51.5968 38.8402 50.1127 38.9833 48.6586C39.5164 48.6738 40.0688 48.6802 40.641 48.6802C49.2994 48.6802 62.276 46.9424 76.2603 38.9538C80.9665 36.2649 84.7714 35.1686 87.874 35.1686C95.3191 35.1686 98.699 41.489 100.727 47.2114C101.421 49.17 102.287 50.5201 103.202 51.4431C103.223 51.9934 103.232 52.5503 103.232 53.1094C103.232 62.8533 98.7989 73.4942 91.0721 82.302C87.6746 86.1763 83.8697 89.4134 80.0649 91.671C76.6718 93.6817 73.4519 94.7911 70.9991 94.7911C68.5462 94.7911 65.3265 93.6817 61.9332 91.671C58.1284 89.4131 54.3235 86.1763 50.926 82.302C43.1995 73.4942 38.7662 62.8533 38.7662 53.1094ZM70.9991 136.08H9.09732V122.555C9.09732 118.144 11.9162 114.24 16.1219 112.805L16.4533 112.706C21.9871 111.219 25.0401 109.759 27.4949 108.58C28.444 108.129 29.2652 107.731 30.0626 107.427C36.6886 104.905 45.8171 100.923 48.5969 95.5061C48.7031 95.2981 48.781 95.1203 48.8243 95.0163L49.3183 93.9241L49.3269 92.6716L49.3507 89.2526C56.4729 96.2987 64.6154 100.71 70.9988 100.71C77.3821 100.71 85.5247 96.2987 92.6488 89.2526L92.6704 92.6716L92.679 93.9241L93.173 95.0163C93.2121 95.1117 93.29 95.2936 93.394 95.4972C96.1805 100.923 105.311 104.905 111.941 107.432C112.73 107.731 113.553 108.129 114.502 108.58C116.959 109.759 120.01 111.219 125.544 112.706L125.878 112.805C130.081 114.24 132.898 118.144 132.898 122.555V136.08H70.9991Z" fill="#3A3A3A"/>
</svg>
