<svg width="24" height="24" viewBox="0 0 24 24" fill="none" xmlns="http://www.w3.org/2000/svg">
<path d="M11.06 14.3608C11.0401 14.2282 10.9684 14.1089 10.8605 14.0292C10.7527 13.9495 10.6176 13.9159 10.485 13.9358C10.3524 13.9557 10.2331 14.0275 10.1534 14.1353C10.0737 14.2431 10.0401 14.3782 10.06 14.5108C10.1748 15.2092 10.2482 15.9138 10.28 16.6208C10.3819 17.3726 10.2853 18.1379 10 18.8408C9.87542 19.1382 9.66546 19.3919 9.39668 19.5699C9.1279 19.7478 8.81238 19.8421 8.49001 19.8408C8.12534 19.8523 7.77433 19.9822 7.49001 20.2108C6.12001 21.5308 4.77001 22.1108 3.69001 21.8408C2.45001 21.5408 2.15001 19.8408 2.08001 19.1708C1.79001 16.3708 2.85001 13.2708 3.82001 11.1008C4.35224 9.89985 5.02349 8.76543 5.82001 7.72083C6.29001 7.09083 7.12001 6.00083 7.93001 6.08083C9.36001 6.24083 9.51001 8.00083 9.56001 10.2308V10.5108C9.56001 10.6434 9.61269 10.7706 9.70646 10.8644C9.80023 10.9582 9.9274 11.0108 10.06 11.0108C10.1926 11.0108 10.3198 10.9582 10.4136 10.8644C10.5073 10.7706 10.56 10.6434 10.56 10.5108V10.2308C10.56 8.18083 10.46 5.37083 8.04001 5.11083C6.68001 4.96083 5.62001 6.35083 5.04001 7.11083C4.18509 8.21737 3.46033 9.41861 2.88001 10.6908C1.88001 12.9308 0.740012 16.2308 1.05001 19.2908C1.25001 21.2208 2.12001 22.5008 3.42001 22.8208C3.68206 22.8842 3.95043 22.9177 4.22001 22.9208C5.74166 22.7856 7.15272 22.0693 8.16001 20.9208C8.30009 20.8632 8.4488 20.8294 8.60001 20.8208C9.08164 20.8062 9.54956 20.657 9.95076 20.3902C10.352 20.1233 10.6704 19.7494 10.87 19.3108C11.2607 18.4538 11.4128 17.5071 11.31 16.5708C11.268 15.8301 11.1846 15.0922 11.06 14.3608Z" fill="#005D8D"/>
<path d="M21.14 10.7001V10.6301C20.5654 9.36542 19.8473 8.17091 19 7.07015C18.39 6.27015 17.34 4.95015 16 5.07015C13.56 5.34015 13.51 8.15015 13.47 10.2101V10.4701C13.4699 10.602 13.5209 10.7288 13.6122 10.8239C13.7036 10.919 13.8282 10.975 13.96 10.9801C14.0263 10.9843 14.0929 10.9747 14.1553 10.9518C14.2177 10.9289 14.2747 10.8933 14.3227 10.8472C14.3706 10.8012 14.4085 10.7456 14.4338 10.6842C14.4592 10.6227 14.4715 10.5566 14.47 10.4901V10.2301C14.47 7.96015 14.66 6.23015 16.1 6.06015C16.88 5.98015 17.74 7.06015 18.19 7.66015C18.9862 8.70495 19.6574 9.83933 20.19 11.0401C21.4695 13.5577 22.0921 16.3577 22 19.1801C21.93 19.8801 21.62 21.5501 20.39 21.8501C18.85 22.2301 17.23 20.8501 16.6 20.2201C16.3146 19.9934 15.9642 19.8637 15.6 19.8501C15.2776 19.8515 14.9621 19.7572 14.6933 19.5792C14.4245 19.4012 14.2146 19.1475 14.09 18.8501C13.8014 18.155 13.6914 17.3987 13.77 16.6501C13.8021 15.9535 13.8722 15.2591 13.98 14.5701C13.9986 14.4375 13.9637 14.303 13.883 14.1961C13.8024 14.0892 13.6826 14.0187 13.55 14.0001C13.4174 13.9816 13.2828 14.0165 13.1759 14.0971C13.069 14.1777 12.9986 14.2975 12.98 14.4301C12.8639 15.1519 12.7905 15.8798 12.76 16.6101C12.6628 17.5398 12.8147 18.4785 13.2 19.3301C13.4013 19.7695 13.7215 20.1437 14.1244 20.4106C14.5274 20.6774 14.9969 20.8262 15.48 20.8401C15.6314 20.8474 15.7803 20.8812 15.92 20.9401C16.9396 22.0726 18.344 22.7855 19.86 22.9401C20.1265 22.9408 20.392 22.9072 20.65 22.8401C21.95 22.5201 22.82 21.2401 23.02 19.3101C23.1245 16.328 22.478 13.3673 21.14 10.7001Z" fill="#005D8D"/>
<path d="M14 13.0001H15.5C15.6326 13.0001 15.7598 12.9474 15.8535 12.8536C15.9473 12.7599 16 12.6327 16 12.5001C16 12.3675 15.9473 12.2403 15.8535 12.1465C15.7598 12.0528 15.6326 12.0001 15.5 12.0001H14C13.6174 11.9981 13.25 11.8499 12.973 11.586C12.696 11.322 12.5304 10.9622 12.51 10.5801C12.51 10.5801 12.51 10.5301 12.51 10.5001V1.58008C12.51 1.44747 12.4573 1.32029 12.3635 1.22652C12.2698 1.13276 12.1426 1.08008 12.01 1.08008C11.8782 1.08264 11.7525 1.13614 11.6593 1.22936C11.566 1.32258 11.5125 1.44827 11.51 1.58008V10.5001C11.51 10.5001 11.51 10.5601 11.51 10.5801C11.4918 10.9665 11.3242 11.3307 11.0424 11.5957C10.7606 11.8607 10.3868 12.0057 9.99998 12.0001H8.47998C8.34737 12.0001 8.2202 12.0528 8.12643 12.1465C8.03266 12.2403 7.97998 12.3675 7.97998 12.5001C7.97998 12.6327 8.03266 12.7599 8.12643 12.8536C8.2202 12.9474 8.34737 13.0001 8.47998 13.0001H9.99998C10.3881 13.0001 10.7709 12.9097 11.118 12.7361C11.4652 12.5626 11.7671 12.3106 12 12.0001C12.2334 12.31 12.5355 12.5616 12.8825 12.7351C13.2295 12.9086 13.612 12.9993 14 13.0001Z" fill="#005D8D"/>
</svg>
