<svg width="24" height="24" fill="none" xmlns="http://www.w3.org/2000/svg">
    <path d="M11.06 14.36a.506.506 0 0 0-1 .15c.115.698.188 1.403.22 2.11a4.35 4.35 0 0 1-.28 2.22 1.63 1.63 0 0 1-1.51 1 1.68 1.68 0 0 0-1 .37c-1.37 1.32-2.72 1.9-3.8 1.63-1.24-.3-1.54-2-1.61-2.67-.29-2.8.77-5.9 1.74-8.07a16.8 16.8 0 0 1 2-3.38c.47-.63 1.3-1.72 2.11-1.64 1.43.16 1.58 1.92 1.63 4.15v.28a.5.5 0 0 0 1 0v-.28c0-2.05-.1-4.86-2.52-5.12-1.36-.15-2.42 1.24-3 2a18.23 18.23 0 0 0-2.16 3.58c-1 2.24-2.14 5.54-1.83 8.6.2 1.93 1.07 3.21 2.37 3.53.262.063.53.097.8.1a5.94 5.94 0 0 0 3.94-2 1.36 1.36 0 0 1 .44-.1 2.58 2.58 0 0 0 2.27-1.51 5.23 5.23 0 0 0 .44-2.74 19.873 19.873 0 0 0-.25-2.21zM21.14 10.7v-.07A18.134 18.134 0 0 0 19 7.07c-.61-.8-1.66-2.12-3-2-2.44.27-2.49 3.08-2.53 5.14v.26a.51.51 0 0 0 .853.377.48.48 0 0 0 .147-.357v-.26c0-2.27.19-4 1.63-4.17.78-.08 1.64 1 2.09 1.6a16.843 16.843 0 0 1 2 3.38A16.76 16.76 0 0 1 22 19.18c-.07.7-.38 2.37-1.61 2.67-1.54.38-3.16-1-3.79-1.63a1.71 1.71 0 0 0-1-.37 1.63 1.63 0 0 1-1.51-1 4.51 4.51 0 0 1-.32-2.2c.032-.697.102-1.391.21-2.08a.505.505 0 1 0-1-.14c-.116.722-.19 1.45-.22 2.18a5.27 5.27 0 0 0 .44 2.72 2.59 2.59 0 0 0 2.28 1.51c.151.007.3.041.44.1a6.14 6.14 0 0 0 3.94 2c.267 0 .532-.033.79-.1 1.3-.32 2.17-1.6 2.37-3.53a17.81 17.81 0 0 0-1.88-8.61z" fill="#3A3A3A"/>
    <path d="M14 13h1.5a.5.5 0 0 0 0-1H14a1.5 1.5 0 0 1-1.49-1.42v-9a.5.5 0 0 0-.5-.5.51.51 0 0 0-.5.5v9A1.49 1.49 0 0 1 10 12H8.48a.5.5 0 0 0 0 1H10a2.5 2.5 0 0 0 2-1 2.51 2.51 0 0 0 2 1z" fill="#3A3A3A"/>
</svg>
