<svg width="75" height="76" fill="none" xmlns="http://www.w3.org/2000/svg">
    <path d="M75 1H0v75h75V1z" fill="#fff"/>
    <path d="m42.67 18.2-22.55.01c.35-2.97 2.34-5.53 5.19-7.06.01 0 .01-.01.01-.01.17-.07.31-.14.41-.21.01-.01.01-.01.02-.01.44-.29.41-.57.37-.67-.01-.03-.02-.05-.02-.05-.32-.75-.5-1.59-.5-2.46 0-3.35 2.59-6.06 5.79-6.06 3.19 0 5.78 2.71 5.78 6.06 0 .88-.18 1.71-.5 2.46 0 0-.01.02-.02.06-.04.11-.05.37.35.65.12.08.27.16.47.24 2.85 1.52 4.83 4.09 5.2 7.05z" fill="#BDE3F8"/>
    <path d="M17.85 18.2h27.08a2.3 2.3 0 0 1 2.3 2.3v5.37a2.3 2.3 0 0 1-2.3 2.3H17.85a2.3 2.3 0 0 1-2.3-2.3V20.5c.01-1.27 1.04-2.3 2.3-2.3z" fill="#42BA85"/>
    <path d="M18.11 28.17c-1.41 0-2.55-1.14-2.55-2.55v-4.85c0-1.41 1.14-2.55 2.55-2.55h26.57c1.41 0 2.55 1.14 2.55 2.55v4.85c0 1.41-1.14 2.55-2.55 2.55M25.32 10.81c.14-.08.28-.14.41-.21-.1.07-.23.14-.41.21zM37.47 11.15c-.2-.08-.35-.16-.47-.24.17.08.32.16.47.24z" stroke="#30446D" stroke-width="1.5" stroke-linecap="round" stroke-linejoin="round"/>
    <path d="M20.12 18.21c.35-2.97 2.34-5.53 5.19-7.06.01 0 .01-.01.01-.01.17-.07.31-.14.41-.21.01-.01.01-.01.02-.01.44-.29.41-.57.37-.67-.01-.03-.02-.05-.02-.05-.32-.75-.5-1.59-.5-2.46 0-3.35 2.59-6.06 5.79-6.06 3.19 0 5.78 2.71 5.78 6.06 0 .88-.18 1.71-.5 2.46 0 0-.01.02-.02.06-.04.11-.05.37.35.65.12.08.27.16.47.24 2.85 1.52 4.83 4.08 5.19 7.05M49.32 43.58v23.97a7.35 7.35 0 0 1-7.35 7.35H20.81a7.35 7.35 0 0 1-7.35-7.35V35.17a7.35 7.35 0 0 1 7.35-7.35h21.17a7.35 7.35 0 0 1 7.35 7.35" stroke="#30446D" stroke-width="1.5" stroke-linecap="round" stroke-linejoin="round"/>
    <path d="M37.47 11.15c-.2-.08-.35-.16-.47-.24.17.08.32.16.47.24zM13.46 39.59h7.18M13.46 51.24h7.18M13.46 62.89h7.18M13.46 45.41h4.79M13.46 57.07h4.79" stroke="#30446D" stroke-width="1.5" stroke-linecap="round" stroke-linejoin="round"/>
    <path d="M71.15 50H42.67v8.14h28.48V50z" fill="#BDE3F8"/>
    <path d="M60.972 68.316v-28.48h-8.14v28.48h8.14z" fill="#BDE3F8"/>
    <path d="M71.14 58.14H60.97V68.3h-8.13V58.14H42.67V50h10.17V39.84" stroke="#30446D" stroke-width="1.5" stroke-linecap="round" stroke-linejoin="round"/>
</svg>
