<svg width="204" height="185" fill="none" xmlns="http://www.w3.org/2000/svg">
    <rect width="204" height="185" rx="16" fill="#fff"/>
    <path d="M139 30H64v75h75V30z" fill="#fff"/>
    <path d="M78.12 51.68c-1.19-3.78-.75-7.69.95-10.95 1.71-3.26 4.63-5.87 8.42-7.06l5.83-1.84c7.56-2.39 15.63 1.81 18.02 9.37.52 1.64.73 3.3.66 4.92 0 .01-.01.03 0 .04.98 14 9.69 31.43 10.42 32.87l.01.04c.96 1.26 1.72 2.72 2.23 4.33 1.2 3.79.74 7.68-.95 10.95a14.315 14.315 0 0 1-8.42 7.06l-5.83 1.84c-7.56 2.39-15.63-1.81-18.02-9.37-.5-1.58-.71-3.2-.67-4.76-.96-18.95-7.61-29.37-9.79-32.31a.102.102 0 0 0-.05-.06" fill="#BDE3F8"/>
    <path d="M79.07 40.72c1.71-3.26 4.63-5.87 8.42-7.06l5.83-1.84c7.56-2.39 15.63 1.81 18.02 9.37.52 1.64.73 3.3.66 4.92 0 .01-.01.03 0 .04.98 14 9.69 31.43 10.42 32.87l.01.04c.96 1.26 1.72 2.72 2.23 4.33M123.719 94.34a14.315 14.315 0 0 1-8.42 7.06l-5.83 1.84c-7.56 2.39-15.63-1.81-18.02-9.37-.5-1.58-.71-3.2-.67-4.76-.96-18.95-7.61-29.37-9.79-32.31a.102.102 0 0 0-.05-.06c-.41-.55-.65-.82-.65-.82" stroke="#30446D" stroke-width="1.5" stroke-linecap="round" stroke-linejoin="round"/>
    <path d="M80.947 56.75c-.22-.27-.44-.55-.65-.82 0 0 .23.27.65.82z" fill="#000"/>
    <path d="M113.02 53c3.07-.97 6.35.73 7.32 3.81l2.32 7.34M89.992 82c-3.07.97-6.35-.73-7.32-3.81l-2.72-8.62c-.97-3.07.73-6.35 3.81-7.32" stroke="#30446D" stroke-width="1.5" stroke-linecap="round" stroke-linejoin="round"/>
    <path d="M108.238 67.83a6.032 6.032 0 0 1-3.94 7.58c-3.18 1-6.58-.75-7.58-3.94 0 0-.03-.09-.08-.3-.04-.17-.08-.41-.13-.7-.01-.09-.03-.18-.04-.28-.25-1.97-.36-6.24 1.71-12.91 0 0 7.28 4.46 9.73 9.7.1.28.22.57.33.85z" fill="#42BA85"/>
    <path d="M23.547 139.8h2.592V151h-2.592v-11.2zm8.708 3.728a2.78 2.78 0 0 1 1.2-.944c.512-.213 1.098-.32 1.76-.32v2.304a9.293 9.293 0 0 0-.56-.032c-.715 0-1.275.203-1.68.608-.406.395-.608.992-.608 1.792V151H29.87v-8.608h2.384v1.136zm8.078 0a2.78 2.78 0 0 1 1.2-.944c.512-.213 1.099-.32 1.76-.32v2.304a9.293 9.293 0 0 0-.56-.032c-.715 0-1.275.203-1.68.608-.405.395-.608.992-.608 1.792V151h-2.496v-8.608h2.384v1.136zm14.048 3.2c0 .032-.016.256-.048.672H47.82c.117.533.395.955.832 1.264.437.309.981.464 1.632.464.448 0 .843-.064 1.184-.192.352-.139.677-.352.976-.64l1.328 1.44c-.81.928-1.995 1.392-3.552 1.392-.97 0-1.83-.187-2.576-.56-.747-.384-1.323-.912-1.728-1.584-.406-.672-.608-1.435-.608-2.288 0-.843.197-1.6.592-2.272a4.195 4.195 0 0 1 1.648-1.584c.704-.384 1.488-.576 2.352-.576.842 0 1.605.181 2.288.544a3.905 3.905 0 0 1 1.6 1.568c.395.672.592 1.456.592 2.352zm-4.464-2.576c-.566 0-1.04.16-1.424.48-.384.32-.619.757-.704 1.312h4.24c-.086-.544-.32-.976-.704-1.296-.384-.331-.854-.496-1.408-.496zm16.256-1.76v7.168c0 1.579-.411 2.752-1.232 3.52-.822.768-2.022 1.152-3.6 1.152a8.99 8.99 0 0 1-2.368-.304c-.747-.203-1.366-.496-1.856-.88l.992-1.792c.362.299.821.533 1.376.704.554.181 1.109.272 1.664.272.864 0 1.498-.197 1.904-.592.416-.384.624-.971.624-1.76v-.368c-.651.715-1.558 1.072-2.72 1.072-.79 0-1.515-.171-2.176-.512a4.04 4.04 0 0 1-1.552-1.472c-.384-.629-.576-1.355-.576-2.176 0-.821.192-1.547.576-2.176a3.92 3.92 0 0 1 1.552-1.456 4.559 4.559 0 0 1 2.176-.528c1.248 0 2.197.411 2.848 1.232v-1.104h2.368zm-4.72 6.144c.661 0 1.2-.192 1.616-.576.426-.395.64-.907.64-1.536s-.214-1.136-.64-1.52c-.416-.395-.955-.592-1.616-.592-.662 0-1.206.197-1.632.592-.427.384-.64.891-.64 1.52s.213 1.141.64 1.536c.426.384.97.576 1.632.576zm16.965-6.144V151H76.05v-1.024c-.33.373-.726.661-1.184.864a3.815 3.815 0 0 1-1.488.288c-1.13 0-2.027-.325-2.688-.976-.662-.651-.992-1.616-.992-2.896v-4.864h2.496v4.496c0 1.387.581 2.08 1.744 2.08.597 0 1.077-.192 1.44-.576.362-.395.544-.976.544-1.744v-4.256h2.496zm3.562-3.264h2.496V151H81.98v-11.872zm9.535 3.136c1.333 0 2.357.32 3.072.96.714.629 1.072 1.584 1.072 2.864V151h-2.336v-1.072c-.47.8-1.344 1.2-2.624 1.2-.662 0-1.238-.112-1.728-.336-.48-.224-.848-.533-1.104-.928a2.417 2.417 0 0 1-.384-1.344c0-.8.298-1.429.896-1.888.608-.459 1.541-.688 2.8-.688h1.984c0-.544-.166-.96-.496-1.248-.331-.299-.827-.448-1.488-.448-.459 0-.912.075-1.36.224-.438.139-.811.331-1.12.576l-.896-1.744c.469-.331 1.029-.587 1.68-.768a7.664 7.664 0 0 1 2.032-.272zm-.192 7.184a2.22 2.22 0 0 0 1.136-.288c.33-.203.565-.496.704-.88v-.88H91.45c-1.024 0-1.536.336-1.536 1.008 0 .32.122.576.368.768.256.181.602.272 1.04.272zm10.229-5.92a2.773 2.773 0 0 1 1.2-.944c.512-.213 1.098-.32 1.76-.32v2.304a9.32 9.32 0 0 0-.56-.032c-.715 0-1.275.203-1.68.608-.406.395-.608.992-.608 1.792V151h-2.496v-8.608h2.384v1.136zm16.562-3.728c.992 0 1.85.165 2.576.496.736.331 1.301.8 1.696 1.408.394.608.592 1.328.592 2.16 0 .821-.198 1.541-.592 2.16-.395.608-.96 1.077-1.696 1.408-.726.32-1.584.48-2.576.48h-2.256V151h-2.592v-11.2h4.848zm-.144 6c.778 0 1.37-.165 1.776-.496.405-.341.608-.821.608-1.44 0-.629-.203-1.109-.608-1.44-.406-.341-.998-.512-1.776-.512h-2.112v3.888h2.112zm16.348.928c0 .032-.016.256-.048.672h-6.512c.118.533.395.955.832 1.264.438.309.982.464 1.632.464a3.36 3.36 0 0 0 1.184-.192c.352-.139.678-.352.976-.64l1.328 1.44c-.81.928-1.994 1.392-3.552 1.392-.97 0-1.829-.187-2.576-.56-.746-.384-1.322-.912-1.728-1.584-.405-.672-.608-1.435-.608-2.288 0-.843.198-1.6.592-2.272a4.203 4.203 0 0 1 1.648-1.584c.704-.384 1.488-.576 2.352-.576.843 0 1.606.181 2.288.544a3.903 3.903 0 0 1 1.6 1.568c.395.672.592 1.456.592 2.352zm-4.464-2.576c-.565 0-1.04.16-1.424.48-.384.32-.618.757-.704 1.312h4.24c-.085-.544-.32-.976-.704-1.296-.384-.331-.853-.496-1.408-.496zm9.76-.624a2.784 2.784 0 0 1 1.2-.944c.512-.213 1.099-.32 1.76-.32v2.304a9.276 9.276 0 0 0-.56-.032c-.715 0-1.275.203-1.68.608-.405.395-.608.992-.608 1.792V151h-2.496v-8.608h2.384v1.136zm5.694-1.136h2.496V151h-2.496v-8.608zm1.248-1.2c-.458 0-.832-.133-1.12-.4a1.297 1.297 0 0 1-.432-.992c0-.395.144-.725.432-.992.288-.267.662-.4 1.12-.4.459 0 .832.128 1.12.384.288.256.432.576.432.96 0 .416-.144.763-.432 1.04-.288.267-.661.4-1.12.4zm8.911 9.936c-.907 0-1.723-.187-2.448-.56a4.288 4.288 0 0 1-1.68-1.584c-.406-.672-.608-1.435-.608-2.288 0-.853.202-1.616.608-2.288a4.173 4.173 0 0 1 1.68-1.568c.725-.384 1.541-.576 2.448-.576.906 0 1.717.192 2.432.576a4.186 4.186 0 0 1 1.68 1.568c.405.672.608 1.435.608 2.288 0 .853-.203 1.616-.608 2.288a4.301 4.301 0 0 1-1.68 1.584c-.715.373-1.526.56-2.432.56zm0-2.048c.64 0 1.162-.213 1.568-.64.416-.437.624-1.019.624-1.744 0-.725-.208-1.301-.624-1.728-.406-.437-.928-.656-1.568-.656s-1.168.219-1.584.656c-.416.427-.624 1.003-.624 1.728 0 .725.208 1.307.624 1.744.416.427.944.64 1.584.64zm16.406-9.952V151h-2.384v-.992c-.619.747-1.515 1.12-2.688 1.12-.811 0-1.547-.181-2.208-.544a3.908 3.908 0 0 1-1.536-1.552c-.373-.672-.56-1.451-.56-2.336 0-.885.187-1.664.56-2.336a3.908 3.908 0 0 1 1.536-1.552c.661-.363 1.397-.544 2.208-.544 1.099 0 1.957.347 2.576 1.04v-4.176h2.496zm-4.64 9.952c.629 0 1.152-.213 1.568-.64.416-.437.624-1.019.624-1.744 0-.725-.208-1.301-.624-1.728-.416-.437-.939-.656-1.568-.656-.64 0-1.168.219-1.584.656-.416.427-.624 1.003-.624 1.728 0 .725.208 1.307.624 1.744.416.427.944.64 1.584.64zm11.096 2.048a8.599 8.599 0 0 1-2.096-.256c-.682-.181-1.226-.405-1.632-.672l.832-1.792c.384.245.848.448 1.392.608a6.046 6.046 0 0 0 1.6.224c1.056 0 1.584-.261 1.584-.784 0-.245-.144-.421-.432-.528-.288-.107-.73-.197-1.328-.272a12.822 12.822 0 0 1-1.744-.368 2.772 2.772 0 0 1-1.2-.736c-.33-.352-.496-.853-.496-1.504 0-.544.155-1.024.464-1.44.32-.427.779-.757 1.376-.992.608-.235 1.323-.352 2.144-.352a7.95 7.95 0 0 1 1.808.208c.608.128 1.11.309 1.504.544l-.832 1.776a4.963 4.963 0 0 0-2.48-.64c-.533 0-.933.075-1.2.224-.266.149-.4.341-.4.576 0 .267.144.453.432.56.288.107.747.208 1.376.304.704.117 1.28.245 1.728.384.448.128.838.368 1.168.72.331.352.496.843.496 1.472 0 .533-.16 1.008-.48 1.424-.32.416-.789.741-1.408.976-.608.224-1.333.336-2.176.336z" fill="#005D8D"/>
</svg>
