<svg width="50" height="50" viewBox="0 0 50 50" fill="none" xmlns="http://www.w3.org/2000/svg">
<g clip-path="url(#clip0_1050_21459)">
<path d="M15.4034 6.49294L22.9371 1.96618L22.1826 0.710519C21.7662 0.0175498 20.8659 -0.207353 20.1725 0.209347L15.15 3.22712C14.4569 3.64353 14.2322 4.54382 14.6488 5.23718L15.4034 6.49294Z" fill="#4FAFD9"/>
<path d="M45.7109 34.1865C45.291 33.4951 44.3896 33.2744 43.6982 33.6943L35.5234 38.6601C35.9121 39.5927 36.165 40.5937 36.2598 41.6406L45.2188 36.1982C45.911 35.7783 46.1308 34.8779 45.7109 34.1865V34.1865Z" fill="#4FAFD9"/>
<path d="M37.7676 47.0703H33.373V42.5781C33.373 38.5396 30.0874 35.2539 26.0488 35.2539C22.0103 35.2539 18.7246 38.5396 18.7246 42.5781V47.0703H14.3301C13.5211 47.0703 12.8652 47.7262 12.8652 48.5352C12.8652 49.3441 13.5211 50 14.3301 50H37.7676C38.5766 50 39.2324 49.3441 39.2324 48.5352C39.2324 47.7262 38.5766 47.0703 37.7676 47.0703ZM26.0488 44.043C25.2398 44.043 24.584 43.3871 24.584 42.5781C24.584 41.7691 25.2398 41.1133 26.0488 41.1133C26.8578 41.1133 27.5137 41.7691 27.5137 42.5781C27.5137 43.3871 26.8578 44.043 26.0488 44.043Z" fill="#4FAFD9"/>
<path d="M15.1557 11.7686L16.7011 14.3404L19.8255 12.4511C23.5291 10.2118 28.3039 11.4597 30.5015 15.0519C32.7634 18.7495 31.5778 23.5731 27.8588 25.8003L24.7173 27.6817L25.7181 29.3473C26.1365 30.0435 27.0407 30.2648 27.7325 29.8459C27.7787 29.8181 28.269 29.5235 29.0094 29.0786L31.2567 32.8188C31.674 33.5134 32.5754 33.7356 33.2668 33.32L38.2892 30.3022C38.9827 29.8855 39.207 28.9857 38.7904 28.2922L36.5431 24.5519C37.2929 24.1014 37.7731 23.8129 37.7731 23.8129C38.4666 23.3962 38.6909 22.4963 38.2743 21.8028C38.2393 21.7445 27.7023 4.20514 27.6639 4.14918C27.2254 3.5109 26.3658 3.32418 25.702 3.72311L15.6569 9.75856C14.9635 10.1753 14.739 11.0752 15.1557 11.7686V11.7686Z" fill="#4FAFD9"/>
<path d="M15.7949 42.5783C15.7949 39.7117 16.9778 37.1167 18.8805 35.2541H17.2598C14.8366 35.2541 12.8652 33.2827 12.8652 30.8596C12.8652 28.4364 14.8366 26.465 17.2592 26.465C17.2599 26.465 20.6396 26.4665 20.6395 26.4665C20.9046 26.4664 21.1646 26.3945 21.3921 26.2583L26.3537 23.2868C28.6738 21.8974 29.4139 18.8878 28.0026 16.5809C26.6111 14.3063 23.6229 13.5787 21.3416 14.9581L16.8393 17.6807C9.76357 17.9028 4.07617 23.7293 4.07617 30.8596C4.07617 37.6339 9.2123 43.2303 15.7949 43.9613V42.5783Z" fill="#4FAFD9"/>
</g>
<defs>
<clipPath id="clip0_1050_21459">
<rect width="50" height="50" fill="white"/>
</clipPath>
</defs>
</svg>
