<svg width="50" height="50" viewBox="0 0 50 50" fill="none" xmlns="http://www.w3.org/2000/svg">
<path d="M37.0592 11.7646C35.5886 11.7646 34.4121 12.9411 34.4121 14.4117C34.4121 15.8823 35.5886 17.0588 37.0592 17.0588C38.5298 17.0588 39.7062 15.8823 39.7062 14.4117C39.7062 12.9411 38.4562 11.7646 37.0592 11.7646Z" fill="#4FAFD9"/>
<path d="M42.7941 7.86778L35.4411 5.36778C34.7058 5.14719 33.9705 5.51484 33.7499 6.25013C32.3529 11.1031 31.1764 15.4413 29.7058 20.3678C29.4852 21.0295 29.9264 21.7648 30.5882 21.9854L38.5293 24.2648C39.2646 24.4854 39.9999 24.0442 40.147 23.309L43.6029 9.41189C43.8235 8.75013 43.4558 8.08836 42.7941 7.86778V7.86778ZM37.0588 18.1619C34.9999 18.1619 33.3088 16.4707 33.3088 14.4119C33.3088 12.3531 34.9999 10.6619 37.0588 10.6619C39.1176 10.6619 40.8088 12.3531 40.8088 14.4119C40.8088 16.4707 39.1176 18.1619 37.0588 18.1619V18.1619Z" fill="#4FAFD9"/>
<path d="M23.5299 12.0589C23.5299 11.7648 23.3093 11.4707 22.9416 11.4707H8.97105C8.67693 11.4707 8.38281 11.6913 8.38281 12.0589V40.3678C8.38281 44.4854 11.7652 47.8678 15.8828 47.8678C17.3534 47.8678 18.824 47.4266 20.074 46.5442L20.2946 46.3236C18.971 44.8531 18.0887 42.9413 18.0887 40.7354C18.0887 37.7942 21.2505 33.0883 23.3828 30.2207V12.0589H23.5299ZM22.4269 26.5442H9.63281V12.5736H22.5005C22.4269 12.5736 22.4269 26.5442 22.4269 26.5442Z" fill="#4FAFD9"/>
<path d="M17.6473 12.4264V2.13232H14.9268V12.4264H17.6473Z" fill="#4FAFD9"/>
<path d="M13.8234 12.4264V2.13232H11.0293V12.4264H13.8234Z" fill="#4FAFD9"/>
<path d="M24.7056 2.13232H22.5732V12.4264H24.7056C25.5144 12.4264 26.2497 11.7647 26.2497 10.8823V3.60291C26.1762 2.79409 25.5144 2.13232 24.7056 2.13232V2.13232Z" fill="#4FAFD9"/>
<path d="M9.92647 12.4264V2.13232H7.79412C6.98529 2.13232 6.25 2.79409 6.25 3.67644V10.8823C6.25 11.6911 6.91176 12.4264 7.79412 12.4264H9.92647Z" fill="#4FAFD9"/>
<path d="M21.4706 12.4264V2.13232H18.75V12.4264H21.4706Z" fill="#4FAFD9"/>
<path d="M33.4555 40.8086C33.4555 44.7056 30.2938 47.8674 26.3967 47.8674C22.4997 47.8674 19.3379 44.7056 19.3379 40.8086C19.3379 37.0586 25.7349 29.338 25.9555 29.0439C26.1761 28.8233 26.6173 28.8233 26.8379 29.0439C27.0585 29.338 33.4555 37.0586 33.4555 40.8086V40.8086Z" fill="#4FAFD9"/>
</svg>
