<svg width="50" height="50" viewBox="0 0 50 50" fill="none" xmlns="http://www.w3.org/2000/svg">
<path d="M35.7216 22.7809V11.177C35.7216 10.7986 35.6471 10.424 35.5023 10.0744C35.3575 9.72486 35.1453 9.40726 34.8778 9.13972C34.6102 8.87219 34.2926 8.65997 33.9431 8.51519C33.5935 8.37041 33.2189 8.29589 32.8405 8.2959H8.3498C7.5857 8.2959 6.85289 8.59944 6.31259 9.13974C5.77229 9.68004 5.46875 10.4128 5.46875 11.177V26.9209C5.46872 27.2993 5.54322 27.6739 5.688 28.0235C5.83277 28.373 6.04497 28.6906 6.3125 28.9582C6.58003 29.2257 6.89763 29.4379 7.24717 29.5827C7.59672 29.7275 7.97136 29.802 8.34971 29.802H12.0617V34.1738C12.0617 34.3733 12.1209 34.5683 12.2317 34.7342C12.3425 34.9001 12.5001 35.0294 12.6844 35.1057C12.8687 35.182 13.0715 35.202 13.2672 35.1631C13.4629 35.1241 13.6426 35.0281 13.7836 34.887L18.8686 29.802H23.5328V26.9008C23.534 25.8084 23.9685 24.7611 24.741 23.9887C25.5134 23.2164 26.5608 22.782 27.6531 22.7809H35.7216ZM27.1431 20.6473C27.1431 20.8363 27.068 21.0176 26.9343 21.1513C26.8006 21.2849 26.6194 21.36 26.4303 21.3601H22.9061V24.8841C22.9061 25.0731 22.831 25.2544 22.6974 25.3881C22.5637 25.5217 22.3825 25.5969 22.1934 25.5969H18.9968C18.9032 25.5969 18.8105 25.5784 18.724 25.5426C18.6376 25.5068 18.559 25.4543 18.4928 25.3881C18.4266 25.3219 18.3741 25.2433 18.3383 25.1569C18.3025 25.0704 18.284 24.9777 18.284 24.8841V21.3601H14.7598C14.5708 21.36 14.3896 21.2849 14.2559 21.1512C14.1223 21.0176 14.0472 20.8363 14.0471 20.6473V17.4506C14.0472 17.2616 14.1223 17.0803 14.2559 16.9466C14.3896 16.813 14.5708 16.7379 14.7598 16.7378H18.284V13.2138C18.284 13.1202 18.3025 13.0275 18.3383 12.941C18.3741 12.8545 18.4266 12.776 18.4928 12.7098C18.559 12.6436 18.6376 12.5911 18.724 12.5553C18.8105 12.5194 18.9032 12.501 18.9968 12.501H22.1934C22.287 12.501 22.3797 12.5195 22.4662 12.5553C22.5526 12.5911 22.6312 12.6436 22.6974 12.7098C22.7636 12.776 22.8161 12.8546 22.8519 12.941C22.8877 13.0275 22.9061 13.1202 22.9061 13.2138V16.7378H26.4303C26.6194 16.7378 26.8006 16.8129 26.9343 16.9466C27.068 17.0803 27.1431 17.2616 27.1431 17.4506V20.6473Z" fill="#4FAFD9"/>
<path d="M42.755 25.1245H27.6535C27.1823 25.1245 26.7304 25.3117 26.3973 25.6448C26.0641 25.978 25.877 26.4299 25.877 26.901V36.609C25.877 37.0802 26.0642 37.5321 26.3973 37.8652C26.7305 38.1984 27.1824 38.3856 27.6536 38.3855H36.2689L39.4044 41.5212C39.4914 41.6082 39.6023 41.6674 39.7229 41.6914C39.8435 41.7154 39.9686 41.7031 40.0822 41.656C40.1959 41.6089 40.293 41.5292 40.3614 41.4269C40.4297 41.3247 40.4662 41.2044 40.4662 41.0814V38.3855H42.7552C43.2263 38.3855 43.6782 38.1984 44.0113 37.8653C44.3445 37.5322 44.5316 37.0803 44.5317 36.6092V26.901C44.5317 26.6677 44.4857 26.4367 44.3964 26.2211C44.3071 26.0056 44.1762 25.8098 44.0113 25.6448C43.8463 25.4798 43.6504 25.349 43.4349 25.2597C43.2193 25.1704 42.9883 25.1245 42.755 25.1245ZM40.1784 35.2544H30.1978C29.887 35.2544 29.5889 35.131 29.3691 34.9112C29.1494 34.6914 29.0259 34.3934 29.0259 34.0826C29.0259 33.7718 29.1494 33.4737 29.3691 33.2539C29.5889 33.0342 29.887 32.9107 30.1978 32.9107H40.1784C40.4892 32.9107 40.7872 33.0342 41.007 33.2539C41.2268 33.4737 41.3502 33.7718 41.3502 34.0826C41.3502 34.3934 41.2268 34.6914 41.007 34.9112C40.7872 35.131 40.4892 35.2544 40.1784 35.2544V35.2544ZM40.1784 30.5669H30.1978C29.887 30.5669 29.5889 30.4435 29.3691 30.2237C29.1494 30.0039 29.0259 29.7059 29.0259 29.3951C29.0259 29.0843 29.1494 28.7862 29.3691 28.5664C29.5889 28.3467 29.887 28.2232 30.1978 28.2232H40.1784C40.4892 28.2232 40.7872 28.3467 41.007 28.5664C41.2268 28.7862 41.3502 29.0843 41.3502 29.3951C41.3502 29.7059 41.2268 30.0039 41.007 30.2237C40.7872 30.4435 40.4892 30.5669 40.1784 30.5669V30.5669Z" fill="#4FAFD9"/>
</svg>
