<svg width="50" height="50" viewBox="0 0 50 50" fill="none" xmlns="http://www.w3.org/2000/svg">
<path d="M16.0039 47.5C16.6974 47.5 17.4074 47.496 18.1329 47.496H31.8664C32.5909 47.496 33.3009 47.5 33.9944 47.5C40.3489 47.5 45.2044 47.175 45.2044 40.532C45.2044 33.579 39.8869 27.871 33.0959 27.2505C33.0419 29.683 25.0019 35.686 25.0019 35.686C25.0019 35.686 16.9599 29.6835 16.9054 27.251C10.1154 27.871 4.79688 33.579 4.79688 40.532C4.79688 47.175 9.65037 47.5 16.0039 47.5V47.5ZM31.0004 38.4285C31.0004 38.2305 31.1789 38.071 31.4009 38.071H33.5729V35.9C33.5729 35.68 33.7314 35.4995 33.9294 35.4995H36.0729C36.2699 35.4995 36.4294 35.6785 36.4294 35.9V38.0715H38.6004C38.8204 38.0715 39.0004 38.231 39.0004 38.429V40.5715C39.0004 40.7695 38.8219 40.929 38.6004 40.929H36.4289V43.1C36.4289 43.321 36.2689 43.5 36.0714 43.5H33.9289C33.7309 43.5 33.5714 43.3215 33.5714 43.1V40.9285H31.4004C31.1794 40.9285 30.9999 40.769 30.9999 40.571L31.0004 38.4285Z" fill="#4FAFD9"/>
<path d="M25.0043 28.996C31.1463 28.996 36.1248 19.7605 36.1248 13.619C36.1248 7.4785 31.1463 2.5 25.0043 2.5C18.8633 2.5 13.8848 7.4785 13.8848 13.619C13.8848 19.7605 18.8633 28.996 25.0043 28.996V28.996Z" fill="#4FAFD9"/>
</svg>
