<svg width="84" height="84" viewBox="0 0 84 84" fill="none" xmlns="http://www.w3.org/2000/svg">
<circle cx="42" cy="42" r="42" fill="#BCEBFF"/>
<path d="M55 61.2858H29C28.4696 61.2858 27.9609 61.0719 27.5858 60.6912C27.2107 60.3105 27 59.7941 27 59.2557V24.7445C27 24.2061 27.2107 23.6897 27.5858 23.309C27.9609 22.9283 28.4696 22.7144 29 22.7144H47.046C48.7641 22.7087 50.438 23.267 51.818 24.306C53.1839 25.3534 54.4001 26.5879 55.432 27.9743C56.4556 29.375 57.0056 31.0741 57 32.8181V59.2557C57 59.7941 56.7892 60.3105 56.4142 60.6912C56.0391 61.0719 55.5304 61.2858 55 61.2858Z" stroke="#004171" strokeWidth="1.62162" stroke-linecap="round" stroke-linejoin="round"/>
<path d="M49.5 27V30.8571H53.25C54.2446 30.8571 55.1984 31.2635 55.9016 31.9869C56.6049 32.7102 57 33.6913 57 34.7143V36.6429" stroke="#004171" strokeWidth="1.62162" stroke-linecap="round" stroke-linejoin="round"/>
<path d="M34.5 49.5V34.5H38.7857C42.434 34.5 43.0714 36.1795 43.0714 38.2505C43.0714 40.3216 42.434 41.9989 38.7857 41.9989H34.5" stroke="#004171" strokeWidth="1.62162" stroke-linecap="round" stroke-linejoin="round"/>
<path d="M39.8569 42L47.3569 51.6429" stroke="#004171" strokeWidth="1.62162" stroke-linecap="round" stroke-linejoin="round"/>
<path d="M47.3569 43.0715L39.8569 51.643" stroke="#004171" strokeWidth="1.62162" stroke-linecap="round" stroke-linejoin="round"/>
</svg>
