<svg width="12" height="12" viewBox="0 0 12 12" fill="none" xmlns="http://www.w3.org/2000/svg">
<path fill-rule="evenodd" clip-rule="evenodd" d="M6 0C4.64256 0 4.51423 2.36435 3.70608 3.19972C2.89792 4.03508 0.385466 3.07995 0.0363912 4.56269C-0.31195 6.04618 1.94824 6.54953 2.22691 7.82229C2.50705 9.09505 1.12615 10.8833 2.30611 11.7732C3.48607 12.6624 4.75623 10.6498 6 10.6498C7.24376 10.6498 8.51392 12.6624 9.69388 11.7732C10.8738 10.8833 9.49368 9.09505 9.77308 7.82229C10.0525 6.54953 12.3119 6.04618 11.9636 4.56269C11.6153 3.07995 9.10207 4.03508 8.29465 3.19972C7.4865 2.36435 7.35743 0 6 0Z" fill="#005D8D"/>
</svg>
