<svg width="21" height="20" viewBox="0 0 21 20" fill="none" xmlns="http://www.w3.org/2000/svg">
<path d="M19.0346 7.64918C18.9823 7.4949 18.8858 7.35934 18.7573 7.25923C18.6288 7.15912 18.4737 7.09884 18.3113 7.08585L13.5605 6.70835L11.5046 2.15751C11.4392 2.01094 11.3327 1.88645 11.198 1.79906C11.0633 1.71167 10.9063 1.66513 10.7457 1.66504C10.5852 1.66495 10.4281 1.71132 10.2933 1.79856C10.1586 1.8858 10.0519 2.01018 9.9863 2.15668L7.93046 6.70835L3.17963 7.08585C3.02001 7.09849 2.86741 7.15685 2.74009 7.25395C2.61277 7.35105 2.51613 7.48278 2.46171 7.63337C2.40729 7.78396 2.39741 7.94704 2.43325 8.1031C2.46909 8.25916 2.54913 8.40159 2.6638 8.51335L6.17463 11.9358L4.93297 17.3125C4.89526 17.4753 4.90735 17.6456 4.96765 17.8014C5.02795 17.9572 5.13368 18.0913 5.27113 18.1862C5.40858 18.2812 5.5714 18.3326 5.73845 18.3339C5.90551 18.3352 6.06909 18.2862 6.20796 18.1933L10.7455 15.1683L15.283 18.1933C15.4249 18.2876 15.5923 18.3361 15.7627 18.3324C15.933 18.3286 16.0981 18.2728 16.2358 18.1725C16.3735 18.0721 16.4771 17.9319 16.5328 17.7709C16.5884 17.6099 16.5934 17.4356 16.5471 17.2717L15.023 11.9383L18.803 8.53668C19.0505 8.31335 19.1413 7.96501 19.0346 7.64918Z" fill="#005D8D"/>
</svg>
