<svg width="48" height="48" viewBox="0 0 48 48" fill="none" xmlns="http://www.w3.org/2000/svg">
<circle cx="24" cy="24" r="24" fill="#BCEBFF"/>
<path d="M24.5566 14.6997H26.5566C26.8219 14.6997 27.0762 14.8051 27.2637 14.9926C27.4513 15.1801 27.5566 15.4345 27.5566 15.6997V18.4427C27.5566 22.3767 24.5566 25.6947 21.5566 25.6947C18.5566 25.6947 15.5566 22.3767 15.5566 18.4427V15.6997C15.5566 15.4345 15.662 15.1801 15.8495 14.9926C16.0371 14.8051 16.2914 14.6997 16.5566 14.6997H18.5566" stroke="#004171" stroke-linecap="round" stroke-linejoin="round"/>
<path d="M21.5714 25.7007C16.5564 31.7007 23.5564 35.7007 27.5564 31.7007" stroke="#004171" stroke-linecap="round" stroke-linejoin="round"/>
<path d="M29.9424 30.689C31.3231 30.689 32.4424 29.5697 32.4424 28.189C32.4424 26.8083 31.3231 25.689 29.9424 25.689C28.5617 25.689 27.4424 26.8083 27.4424 28.189C27.4424 29.5697 28.5617 30.689 29.9424 30.689Z" stroke="#004171" stroke-linecap="round" stroke-linejoin="round"/>
<path d="M30.1943 28.189C30.1943 28.1227 30.168 28.0591 30.1211 28.0122C30.0742 27.9653 30.0106 27.939 29.9443 27.939" stroke="#004171" stroke-linecap="round" stroke-linejoin="round"/>
<path d="M29.6924 28.188C29.6924 28.2543 29.7187 28.3179 29.7656 28.3648C29.8125 28.4116 29.8761 28.438 29.9424 28.438C30.0087 28.438 30.0723 28.4116 30.1192 28.3648C30.166 28.3179 30.1924 28.2543 30.1924 28.188" stroke="#004171" stroke-linecap="round" stroke-linejoin="round"/>
<path d="M29.9424 27.939C29.8761 27.939 29.8125 27.9653 29.7656 28.0122C29.7187 28.0591 29.6924 28.1227 29.6924 28.189" stroke="#004171" stroke-linecap="round" stroke-linejoin="round"/>
</svg>
