<svg width="204" height="185" fill="none" xmlns="http://www.w3.org/2000/svg">
    <rect width="204" height="185" rx="16" fill="#fff"/>
    <path d="M139 30H64v75h75V30z" fill="#fff"/>
    <path d="M77.572 40.55a28.313 28.313 0 0 0-6.74 17.1v.04c-.11 1.69-.07 3.35.09 4.97.16 1.62.44 3.19.8 4.7 1.65 6.94 5.01 12.59 6.64 15.2.35.57 1.03 1.4 1.44 1.92 1.12 1.42 1.01 4.83.99 5.27M89.552 32.23c-1.23.44-2.41.97-3.56 1.57M118.843 94.75c7.11-.12 8.5-5.91 8.72-7.16.02-.12.03-.24.03-.36v-7.99c0-.65.27-1.24.69-1.66a2.35 2.35 0 0 1 1.67-.69c1.29-.16 1.88-.95 2.14-1.62.21-.52.19-1.09-.01-1.6l-4.29-11.1c-.15-.39-.19-.45-.25-.87-.01-.09-.05-.26-.05-.35-.03-.79.1-1.59.1-2.4 0-15.68-12.71-28.4-28.4-28.4-2.23 0-4.39.26-6.47.74M110.32 104.35v-7.24c0-1.3 1.06-2.36 2.36-2.36h2.07" stroke="#30446D" stroke-width="1.5" stroke-linecap="round" stroke-linejoin="round"/>
    <path d="M104.918 51c0 1.89-1.53 3.43-3.42 3.43s-3.42-1.54-3.42-3.43c0 0 0-.1.02-.27 0-.04.01-.09.01-.14 0-.05.01-.11.02-.17.15-1.57 1.71-5.84 3.37-7.67 0 0 2.49 2.74 3.39 7.82.02.14.02.28.03.43z" fill="#42BA85"/>
    <path d="M104.918 51c0 1.89-1.53 3.43-3.42 3.43s-3.42-1.54-3.42-3.43c0 0 0-.1.02-.27 0-.04.01-.09.01-.14 0-.05.01-.11.02-.17.15-1.57 1.71-5.84 3.37-7.67" stroke="#30446D" stroke-width="1.5" stroke-linecap="round" stroke-linejoin="round"/>
    <path d="M112.312 61.84c0 1.42-1.15 2.58-2.57 2.58s-2.57-1.16-2.57-2.58c0 0 0-.08.02-.2 0-.03.01-.07.01-.11 0-.04.01-.08.02-.13.11-1.18 1.29-4.39 2.53-5.77 0 0 1.87 2.06 2.55 5.88 0 .11 0 .22.01.33z" fill="#42BA85"/>
    <path d="M112.312 61.84c0 1.42-1.15 2.58-2.57 2.58s-2.57-1.16-2.57-2.58c0 0 0-.08.02-.2 0-.03.01-.07.01-.11 0-.04.01-.08.02-.13.11-1.18 1.29-4.39 2.53-5.77" stroke="#30446D" stroke-width="1.5" stroke-linecap="round" stroke-linejoin="round"/>
    <path d="M101.7 64.33c0 1.03-.84 1.87-1.87 1.87-1.03 0-1.87-.84-1.87-1.87 0 0 0-.05.01-.15 0-.02.01-.05.01-.08s.01-.06.01-.09c.08-.86.94-3.19 1.84-4.19 0 0 1.36 1.5 1.85 4.27.02.08.02.16.02.24z" fill="#42BA85"/>
    <path d="M101.7 64.33c0 1.03-.84 1.87-1.87 1.87-1.03 0-1.87-.84-1.87-1.87 0 0 0-.05.01-.15 0-.02.01-.05.01-.08s.01-.06.01-.09c.08-.86.94-3.19 1.84-4.19" stroke="#30446D" stroke-width="1.5" stroke-linecap="round" stroke-linejoin="round"/>
    <path d="M20.008 148.92V151h-8.672v-11.2H19.8v2.08h-5.888v2.432h5.2v2.016h-5.2v2.592h6.096zm8.499 2.08-1.888-2.64-1.952 2.64h-2.72l3.312-4.336-3.2-4.272h2.8l1.824 2.512 1.872-2.512h2.656l-3.2 4.208 3.328 4.4h-2.832zm9.188.128c-.917 0-1.744-.187-2.48-.56a4.381 4.381 0 0 1-1.712-1.584c-.406-.672-.608-1.435-.608-2.288 0-.853.202-1.616.608-2.288a4.264 4.264 0 0 1 1.712-1.568c.736-.384 1.563-.576 2.48-.576.907 0 1.696.192 2.368.576a3.318 3.318 0 0 1 1.488 1.616l-1.936 1.04c-.448-.789-1.093-1.184-1.936-1.184-.65 0-1.19.213-1.616.64-.427.427-.64 1.008-.64 1.744s.213 1.317.64 1.744c.426.427.965.64 1.616.64.853 0 1.498-.395 1.936-1.184l1.936 1.056c-.31.683-.806 1.216-1.488 1.6-.672.384-1.462.576-2.368.576zm14.866-4.4c0 .032-.016.256-.048.672H46c.117.533.394.955.832 1.264.437.309.98.464 1.632.464.448 0 .842-.064 1.184-.192.352-.139.677-.352.976-.64l1.328 1.44c-.811.928-1.995 1.392-3.552 1.392-.971 0-1.83-.187-2.576-.56-.747-.384-1.323-.912-1.728-1.584-.406-.672-.608-1.435-.608-2.288 0-.843.197-1.6.592-2.272a4.195 4.195 0 0 1 1.648-1.584c.704-.384 1.488-.576 2.352-.576.842 0 1.605.181 2.288.544a3.905 3.905 0 0 1 1.6 1.568c.394.672.592 1.456.592 2.352zm-4.464-2.576c-.566 0-1.04.16-1.424.48-.384.32-.62.757-.704 1.312h4.24c-.086-.544-.32-.976-.704-1.296-.384-.331-.854-.496-1.408-.496zm10.271 6.976a8.593 8.593 0 0 1-2.096-.256c-.682-.181-1.226-.405-1.632-.672l.832-1.792c.384.245.848.448 1.392.608a6.042 6.042 0 0 0 1.6.224c1.056 0 1.584-.261 1.584-.784 0-.245-.144-.421-.432-.528-.288-.107-.73-.197-1.328-.272a12.812 12.812 0 0 1-1.744-.368 2.764 2.764 0 0 1-1.2-.736c-.33-.352-.496-.853-.496-1.504 0-.544.155-1.024.464-1.44.32-.427.779-.757 1.376-.992.608-.235 1.323-.352 2.144-.352.608 0 1.211.069 1.808.208.608.128 1.11.309 1.504.544l-.832 1.776a4.963 4.963 0 0 0-2.48-.64c-.533 0-.933.075-1.2.224-.266.149-.4.341-.4.576 0 .267.144.453.432.56.288.107.747.208 1.376.304.704.117 1.28.245 1.728.384.448.128.838.368 1.168.72.331.352.496.843.496 1.472 0 .533-.16 1.008-.48 1.424-.32.416-.789.741-1.408.976-.608.224-1.333.336-2.176.336zm9.75 0a8.593 8.593 0 0 1-2.096-.256c-.682-.181-1.226-.405-1.632-.672l.832-1.792c.384.245.848.448 1.392.608a6.042 6.042 0 0 0 1.6.224c1.056 0 1.584-.261 1.584-.784 0-.245-.144-.421-.432-.528-.288-.107-.73-.197-1.328-.272a12.812 12.812 0 0 1-1.744-.368 2.764 2.764 0 0 1-1.2-.736c-.33-.352-.496-.853-.496-1.504 0-.544.155-1.024.464-1.44.32-.427.779-.757 1.376-.992.608-.235 1.323-.352 2.144-.352.608 0 1.211.069 1.808.208.608.128 1.11.309 1.504.544l-.832 1.776a4.963 4.963 0 0 0-2.48-.64c-.533 0-.933.075-1.2.224-.266.149-.4.341-.4.576 0 .267.144.453.432.56.288.107.747.208 1.376.304.704.117 1.28.245 1.728.384.448.128.838.368 1.168.72.331.352.496.843.496 1.472 0 .533-.16 1.008-.48 1.424-.32.416-.789.741-1.408.976-.608.224-1.333.336-2.176.336zm6.854-8.736h2.496V151h-2.496v-8.608zm1.248-1.2c-.458 0-.832-.133-1.12-.4a1.297 1.297 0 0 1-.432-.992c0-.395.144-.725.432-.992.288-.267.662-.4 1.12-.4.459 0 .832.128 1.12.384.288.256.432.576.432.96 0 .416-.144.763-.432 1.04-.288.267-.661.4-1.12.4zm13.359 1.2L85.947 151H83.37l-3.616-8.608h2.576l2.384 5.856 2.464-5.856h2.4zm10.466 4.336c0 .032-.016.256-.048.672h-6.512c.117.533.395.955.832 1.264.437.309.981.464 1.632.464.448 0 .843-.064 1.184-.192.352-.139.677-.352.976-.64l1.328 1.44c-.81.928-1.995 1.392-3.552 1.392-.97 0-1.83-.187-2.576-.56-.747-.384-1.323-.912-1.728-1.584s-.608-1.435-.608-2.288c0-.843.197-1.6.592-2.272a4.197 4.197 0 0 1 1.648-1.584c.704-.384 1.488-.576 2.352-.576.843 0 1.605.181 2.288.544a3.905 3.905 0 0 1 1.6 1.568c.395.672.592 1.456.592 2.352zm-4.464-2.576c-.565 0-1.04.16-1.424.48-.384.32-.619.757-.704 1.312h4.24c-.085-.544-.32-.976-.704-1.296-.384-.331-.853-.496-1.408-.496zm17.013 7.04a9.433 9.433 0 0 1-2.576-.352c-.821-.245-1.483-.56-1.984-.944l.88-1.952c.48.352 1.051.635 1.712.848a6.44 6.44 0 0 0 1.984.32c.736 0 1.28-.107 1.632-.32.352-.224.528-.517.528-.88a.804.804 0 0 0-.32-.656 2.203 2.203 0 0 0-.8-.432c-.32-.107-.757-.224-1.312-.352-.853-.203-1.552-.405-2.096-.608a3.471 3.471 0 0 1-1.408-.976c-.384-.448-.576-1.045-.576-1.792 0-.651.176-1.237.528-1.76.352-.533.88-.955 1.584-1.264.715-.309 1.584-.464 2.608-.464.715 0 1.413.085 2.096.256.683.171 1.28.416 1.792.736l-.8 1.968c-1.035-.587-2.069-.88-3.104-.88-.725 0-1.264.117-1.616.352-.341.235-.512.544-.512.928s.197.672.592.864c.405.181 1.019.363 1.84.544.853.203 1.552.405 2.096.608a3.415 3.415 0 0 1 1.392.96c.395.437.592 1.029.592 1.776a3.06 3.06 0 0 1-.544 1.76c-.352.523-.885.939-1.6 1.248-.715.309-1.584.464-2.608.464zm21.265-8.8-3.12 8.608h-2.4l-1.936-5.344-2 5.344h-2.4l-3.104-8.608h2.352l2.032 5.824 2.112-5.824h2.112l2.048 5.824 2.096-5.824h2.208zm10.608 4.336c0 .032-.016.256-.048.672h-6.512c.117.533.394.955.832 1.264.437.309.981.464 1.632.464.448 0 .842-.064 1.184-.192.352-.139.677-.352.976-.64l1.328 1.44c-.811.928-1.995 1.392-3.552 1.392-.971 0-1.83-.187-2.576-.56-.747-.384-1.323-.912-1.728-1.584-.406-.672-.608-1.435-.608-2.288 0-.843.197-1.6.592-2.272a4.19 4.19 0 0 1 1.648-1.584c.704-.384 1.488-.576 2.352-.576.842 0 1.605.181 2.288.544a3.909 3.909 0 0 1 1.6 1.568c.394.672.592 1.456.592 2.352zm-4.464-2.576c-.566 0-1.04.16-1.424.48-.384.32-.619.757-.704 1.312h4.24c-.086-.544-.32-.976-.704-1.296-.384-.331-.854-.496-1.408-.496zm10.613-1.888c1.334 0 2.358.32 3.072.96.715.629 1.072 1.584 1.072 2.864V151h-2.336v-1.072c-.469.8-1.344 1.2-2.624 1.2-.661 0-1.237-.112-1.728-.336-.48-.224-.848-.533-1.104-.928a2.417 2.417 0 0 1-.384-1.344c0-.8.299-1.429.896-1.888.608-.459 1.542-.688 2.8-.688h1.984c0-.544-.165-.96-.496-1.248-.33-.299-.826-.448-1.488-.448-.458 0-.912.075-1.36.224-.437.139-.81.331-1.12.576l-.896-1.744c.47-.331 1.03-.587 1.68-.768a7.669 7.669 0 0 1 2.032-.272zm-.192 7.184c.427 0 .806-.096 1.136-.288.331-.203.566-.496.704-.88v-.88h-1.712c-1.024 0-1.536.336-1.536 1.008 0 .32.123.576.368.768.256.181.603.272 1.04.272zm13.397 1.136c-.245.181-.549.32-.912.416a4.756 4.756 0 0 1-1.12.128c-1.024 0-1.818-.261-2.384-.784-.554-.523-.832-1.291-.832-2.304v-3.536h-1.328v-1.92h1.328v-2.096h2.496v2.096h2.144v1.92h-2.144v3.504c0 .363.091.645.272.848.192.192.459.288.8.288.395 0 .731-.107 1.008-.32l.672 1.76zm2.651-8.192h2.496V151h-2.496v-8.608zm1.248-1.2c-.458 0-.832-.133-1.12-.4a1.297 1.297 0 0 1-.432-.992c0-.395.144-.725.432-.992.288-.267.662-.4 1.12-.4.459 0 .832.128 1.12.384.288.256.432.576.432.96 0 .416-.144.763-.432 1.04-.288.267-.661.4-1.12.4zm10.047 1.072c1.066 0 1.925.32 2.576.96.661.64.992 1.589.992 2.848V151h-2.496v-4.544c0-.683-.15-1.189-.448-1.52-.299-.341-.731-.512-1.296-.512-.63 0-1.131.197-1.504.592-.374.384-.56.96-.56 1.728V151h-2.496v-8.608h2.384v1.008a3.22 3.22 0 0 1 1.232-.832 4.183 4.183 0 0 1 1.616-.304zm16.054.128v7.168c0 1.579-.411 2.752-1.232 3.52-.821.768-2.021 1.152-3.6 1.152a8.992 8.992 0 0 1-2.368-.304c-.747-.203-1.365-.496-1.856-.88l.992-1.792c.363.299.821.533 1.376.704a5.338 5.338 0 0 0 1.664.272c.864 0 1.499-.197 1.904-.592.416-.384.624-.971.624-1.76v-.368c-.651.715-1.557 1.072-2.72 1.072a4.678 4.678 0 0 1-2.176-.512 4.036 4.036 0 0 1-1.552-1.472c-.384-.629-.576-1.355-.576-2.176 0-.821.192-1.547.576-2.176a3.917 3.917 0 0 1 1.552-1.456 4.558 4.558 0 0 1 2.176-.528c1.248 0 2.197.411 2.848 1.232v-1.104h2.368zm-4.72 6.144c.661 0 1.2-.192 1.616-.576.427-.395.64-.907.64-1.536s-.213-1.136-.64-1.52c-.416-.395-.955-.592-1.616-.592-.661 0-1.205.197-1.632.592-.427.384-.64.891-.64 1.52s.213 1.141.64 1.536c.427.384.971.576 1.632.576z" fill="#005D8D"/>
</svg>
