<svg width="24" height="24" fill="none" xmlns="http://www.w3.org/2000/svg">
    <path d="M6.25 5h2a.5.5 0 0 0 0-1h-2a.5.5 0 0 0 0 1zM6.25 8h2a.5.5 0 0 0 0-1h-2a.5.5 0 0 0 0 1zM8.25 11a.5.5 0 0 0 0-1h-2a.5.5 0 0 0 0 1h2zM12.75 15.05V4.5a.5.5 0 0 0-1 0v10.55a2.5 2.5 0 1 0 1 0zm-.5 3.95a1.5 1.5 0 1 1 0-3 1.5 1.5 0 0 1 0 3z" fill="#3A3A3A"/>
    <path d="M14.75 11.55v-8a2.5 2.5 0 0 0-5 0v8.05a6 6 0 1 0 5 0v-.05zM12.25 22a5 5 0 0 1-1.82-9.65.51.51 0 0 0 .32-.47V3.5a1.5 1.5 0 1 1 3 0v8.38a.51.51 0 0 0 .32.47A5 5 0 0 1 12.25 22z" fill="#3A3A3A"/>
</svg>
