<svg width="204" height="185" fill="none" xmlns="http://www.w3.org/2000/svg">
    <rect width="204" height="185" rx="16" fill="#fff"/>
    <path d="M139 30H64v75h75V30z" fill="#fff"/>
    <path d="M124.401 54.18c0 9.27-7.08 13.71-7.08 27.99 0 16.33-5.19 22.03-8.73 22.03-7.95 0-2.9-21.18-10.24-21.18s-2.29 21.18-10.24 21.18c-3.54 0-8.73-5.7-8.73-22.03 0-14.28-7.08-18.73-7.08-27.99 0-8.34 6.6-15.1 14.74-15.1 5.06 0 8.09 2.41 11.31 4.47 1.96-1.25 3.85-2.64 6.17-3.53 0-.01 6.91 10.18 19.88 14.16z" fill="#BCEBFF"/>
    <path d="M92.03 100.89c-.76 1.98-1.94 3.31-3.92 3.31-3.54 0-8.73-5.7-8.73-22.03 0-14.28-7.08-18.73-7.08-27.99 0-8.35 6.6-15.11 14.74-15.11 8.81 0 11.47 7.33 19.731 7.33" stroke="#2F446D" stroke-width="1.604" stroke-linecap="round" stroke-linejoin="round"/>
    <path d="M124.402 54.17c0 9.27-7.08 13.72-7.08 27.99 0 16.33-5.19 22.03-8.73 22.03-7.95 0-2.9-21.18-10.24-21.18-4.47 0-4.34 7.86-5.36 14M124.4 54.17s-13.87-3.37-19.88-14.15" stroke="#2F446D" stroke-width="1.604" stroke-linecap="round" stroke-linejoin="round"/>
    <path d="M104.521 40.02s-1.13.52-2.43 1.21M110.251 36.92l1-6.12M114.829 37.82l2.37-5.73M119.102 40.01l3.75-4.94M122.782 43.35l4.95-3.73M124.762 47.73l5.94-1.76" stroke="#2F446D" stroke-width="1.604" stroke-linecap="round" stroke-linejoin="round"/>
    <path d="M52.851 141.912h-3.584V139.8h9.76v2.112h-3.584V151h-2.592v-9.088zm11.866 9.216c-.907 0-1.723-.187-2.448-.56a4.292 4.292 0 0 1-1.68-1.584c-.406-.672-.608-1.435-.608-2.288 0-.853.202-1.616.608-2.288a4.177 4.177 0 0 1 1.68-1.568c.725-.384 1.541-.576 2.448-.576.906 0 1.717.192 2.432.576a4.178 4.178 0 0 1 1.68 1.568c.405.672.608 1.435.608 2.288 0 .853-.203 1.616-.608 2.288a4.293 4.293 0 0 1-1.68 1.584c-.715.373-1.526.56-2.432.56zm0-2.048c.64 0 1.162-.213 1.568-.64.416-.437.624-1.019.624-1.744 0-.725-.208-1.301-.624-1.728-.406-.437-.928-.656-1.568-.656s-1.168.219-1.584.656c-.416.427-.624 1.003-.624 1.728 0 .725.208 1.307.624 1.744.416.427.944.64 1.584.64zm11.734 2.048c-.906 0-1.722-.187-2.448-.56a4.293 4.293 0 0 1-1.68-1.584c-.405-.672-.608-1.435-.608-2.288 0-.853.203-1.616.608-2.288a4.178 4.178 0 0 1 1.68-1.568c.725-.384 1.541-.576 2.448-.576s1.718.192 2.432.576a4.177 4.177 0 0 1 1.68 1.568c.406.672.608 1.435.608 2.288 0 .853-.203 1.616-.608 2.288a4.292 4.292 0 0 1-1.68 1.584c-.715.373-1.525.56-2.432.56zm0-2.048c.64 0 1.163-.213 1.568-.64.416-.437.624-1.019.624-1.744 0-.725-.208-1.301-.624-1.728-.405-.437-.928-.656-1.568-.656s-1.168.219-1.584.656c-.416.427-.624 1.003-.624 1.728 0 .725.208 1.307.624 1.744.416.427.944.64 1.584.64zm13.19 1.504c-.245.181-.549.32-.912.416a4.758 4.758 0 0 1-1.12.128c-1.023 0-1.818-.261-2.383-.784-.555-.523-.832-1.291-.832-2.304v-3.536h-1.329v-1.92h1.329v-2.096h2.495v2.096h2.145v1.92h-2.145v3.504c0 .363.091.645.273.848.191.192.458.288.8.288.394 0 .73-.107 1.007-.32l.672 1.76zm7.884-8.32c1.066 0 1.925.32 2.576.96.661.64.992 1.589.992 2.848V151h-2.496v-4.544c0-.683-.15-1.189-.448-1.52-.299-.341-.731-.512-1.296-.512-.63 0-1.131.197-1.504.592-.374.384-.56.96-.56 1.728V151h-2.496v-11.872h2.496v4.16c.33-.331.73-.581 1.2-.752.469-.181.981-.272 1.536-.272zm20.413 6.336h-5.2l-.992 2.4h-2.656l4.992-11.2h2.56l5.008 11.2h-2.72l-.992-2.4zm-.816-1.968-1.776-4.288-1.776 4.288h3.552zm10.846 4.496c-.917 0-1.744-.187-2.48-.56a4.383 4.383 0 0 1-1.712-1.584c-.405-.672-.608-1.435-.608-2.288 0-.853.203-1.616.608-2.288a4.266 4.266 0 0 1 1.712-1.568c.736-.384 1.563-.576 2.48-.576.907 0 1.696.192 2.368.576a3.315 3.315 0 0 1 1.488 1.616l-1.936 1.04c-.448-.789-1.093-1.184-1.936-1.184-.65 0-1.189.213-1.616.64-.426.427-.64 1.008-.64 1.744s.214 1.317.64 1.744c.427.427.966.64 1.616.64.854 0 1.499-.395 1.936-1.184l1.936 1.056c-.309.683-.805 1.216-1.488 1.6-.672.384-1.461.576-2.368.576zm11.713-8.864c1.067 0 1.925.32 2.576.96.661.64.992 1.589.992 2.848V151h-2.496v-4.544c0-.683-.149-1.189-.448-1.52-.299-.341-.731-.512-1.296-.512-.629 0-1.131.197-1.504.592-.373.384-.56.96-.56 1.728V151h-2.496v-11.872h2.496v4.16a3.239 3.239 0 0 1 1.2-.752 4.231 4.231 0 0 1 1.536-.272zm15.606 4.464c0 .032-.016.256-.048.672h-6.512c.117.533.395.955.832 1.264.437.309.981.464 1.632.464a3.36 3.36 0 0 0 1.184-.192c.352-.139.677-.352.976-.64l1.328 1.44c-.811.928-1.995 1.392-3.552 1.392-.971 0-1.829-.187-2.576-.56-.747-.384-1.323-.912-1.728-1.584s-.608-1.435-.608-2.288c0-.843.197-1.6.592-2.272a4.196 4.196 0 0 1 1.648-1.584c.704-.384 1.488-.576 2.352-.576.843 0 1.605.181 2.288.544a3.903 3.903 0 0 1 1.6 1.568c.395.672.592 1.456.592 2.352zm-4.464-2.576c-.565 0-1.04.16-1.424.48-.384.32-.619.757-.704 1.312h4.24c-.085-.544-.32-.976-.704-1.296-.384-.331-.853-.496-1.408-.496z" fill="#005D8D"/>
</svg>
