<svg width="72" height="72" viewBox="0 0 72 72" fill="none" xmlns="http://www.w3.org/2000/svg">
<path d="M63.4478 23.297C63.4478 32.1376 54.9617 36.3719 54.9617 49.9905C54.9617 65.564 48.741 71 44.498 71C34.9691 71 41.022 50.8011 32.2243 50.8011C23.4266 50.8011 29.4796 71 19.9507 71C15.7077 71 9.48697 65.564 9.48697 49.9905C9.48697 36.3719 1.00092 32.1281 1.00092 23.297C1.00092 15.3433 8.91165 8.89648 18.6682 8.89648C24.7331 8.89648 28.3649 11.1948 32.2243 13.1594C34.5736 11.9673 36.8389 10.6417 39.6197 9.79294C39.6197 9.7834 47.902 19.5014 63.4478 23.297V23.297Z" fill="#BCEBFF"/>
<path d="M24.6483 67.8435C23.7374 69.7318 22.323 71.0002 19.9498 71.0002C15.7068 71.0002 9.48605 65.5642 9.48605 49.9907C9.48605 36.3721 1 32.1283 1 23.2972C1 15.334 8.91073 8.88715 18.6673 8.88715C29.2269 8.88715 32.4152 15.8776 42.3168 15.8776" stroke="#2F446D" stroke-width="1.604" stroke-linecap="round" stroke-linejoin="round"/>
<path d="M63.4495 23.2877C63.4495 32.1283 54.9635 36.3722 54.9635 49.9812C54.9635 65.5547 48.7427 70.9907 44.4997 70.9907C34.9709 70.9907 41.0238 50.7918 32.2261 50.7918C26.8684 50.7918 27.0242 58.2877 25.8016 64.1433M63.4471 23.2877C63.4471 23.2877 46.8226 20.0739 39.619 9.79321" stroke="#2F446D" stroke-width="1.604" stroke-linecap="round" stroke-linejoin="round"/>
<path d="M39.6197 9.79315C39.6197 9.79315 38.2652 10.2891 36.7071 10.9471M46.4876 6.83675L47.6862 1.00024M51.9748 7.69506L54.8154 2.23049M57.0964 9.78361L61.5911 5.07245M61.5072 12.9689L67.4403 9.41168M63.8804 17.146L71.0001 15.4675" stroke="#2F446D" stroke-width="1.604" stroke-linecap="round" stroke-linejoin="round"/>
</svg>
