<svg width="72" height="72" viewBox="0 0 72 72" fill="none" xmlns="http://www.w3.org/2000/svg">
<path d="M71 17.3812C71 25.01 65.1633 31.4208 57.2612 33.2431H57.2479C56.2351 33.5735 55.1157 33.7624 53.9298 33.7624C53.7565 33.7624 53.5966 33.7624 53.4367 33.7435C53.1779 33.7339 52.9199 33.715 52.6638 33.6868C50.7905 33.4748 49.0853 32.7965 47.8543 31.7738C46.6234 30.7511 45.9474 29.4509 45.9476 28.1068C45.9476 26.0014 47.2935 24.7362 49.7055 23.7637C48.1464 22.5363 47.4668 20.3458 47.4668 18.5614C47.4668 16.8619 47.9065 14.492 49.3457 13.2835C45.9876 12.2072 44.0954 10.621 44.0954 7.84516C44.0954 4.33288 47.8399 1.42487 52.6638 1.04721V1C52.837 1 53.0103 0.999999 53.1835 1.01888C53.3834 1.00944 53.57 1 53.7698 1C55.3423 1 56.8081 1.26436 58.114 1.73644H58.1274C65.5764 3.82304 71 10.0451 71 17.3812V17.3812Z" fill="#BCEBFF"/>
<path d="M48.0931 14.7753H39.9111V17.3812H47.1603C47.147 17.3906 47.2669 15.5306 48.0931 14.7753Z" fill="#42BA85"/>
<path d="M53.4367 34.0551C53.1835 34.0645 52.917 34.0739 52.6638 34.0739V33.9984C52.917 34.0173 53.1835 34.0456 53.4367 34.0551Z" stroke="#30446D" stroke-width="1.5" stroke-linecap="round" stroke-linejoin="round"/>
<path d="M64.3505 5.0787C64.9102 5.49413 65.4432 5.93789 65.9362 6.40053C69.0678 9.33687 70.9867 13.3118 70.9867 17.6832C70.9867 25.3121 65.15 31.7229 57.2479 33.5451H57.2346C56.2218 33.8756 55.1024 34.0644 53.9164 34.0644C53.7432 34.0644 53.5833 34.0644 53.4234 34.0455C53.1646 34.036 52.9066 34.0171 52.6505 33.9889C50.7772 33.7769 49.072 33.0986 47.841 32.0759C46.6101 31.0532 45.934 29.753 45.9343 28.4089C45.9343 26.3034 47.2802 25.0382 49.6922 24.0658C48.1331 22.8384 47.4535 20.6479 47.4535 18.8634C47.4535 17.164 47.8932 14.7941 49.3324 13.5856C45.9743 12.5092 44.0821 10.9231 44.0821 8.14722C44.0821 4.63495 47.8266 1.72693 52.6505 1.34927V1.30206C52.8237 1.30206 52.997 1.30206 53.1702 1.32095C53.3701 1.31151 53.5567 1.30206 53.7565 1.30206C55.329 1.30206 56.7948 1.56643 58.1007 2.03851H58.114C58.9669 2.27455 59.7931 2.56724 60.5793 2.90713" stroke="#30446D" stroke-width="1.5" stroke-linecap="round" stroke-linejoin="round"/>
<path d="M49.7082 24.0752C49.7082 24.0752 50.721 25.0383 51.6138 25.6331M49.3431 13.6045C49.3431 13.6045 50.3558 12.5565 51.5951 11.9239M39.9111 14.7753H48.3996M39.9111 17.3906H47.147M47.4642 18.8729C47.4642 18.8729 42.1205 19.9493 40.788 25.1516C40.6014 25.8597 40.5614 26.5678 40.5614 27.2854V52.3151" stroke="#30446D" stroke-width="1.5" stroke-linecap="round" stroke-linejoin="round"/>
<path d="M48.397 24.689C48.397 24.689 43.6397 23.7731 40.5614 27.2854" stroke="#30446D" stroke-width="1.5" stroke-linecap="round" stroke-linejoin="round"/>
<path d="M1 17.3812C1 25.01 6.83666 31.4208 14.7388 33.2431H14.7521C15.7649 33.5735 16.8843 33.7624 18.0702 33.7624C18.2435 33.7624 18.4034 33.7624 18.5633 33.7435C18.8165 33.734 19.083 33.7152 19.3362 33.6868C21.2095 33.4748 22.9147 32.7965 24.1457 31.7738C25.3766 30.7511 26.0527 29.4509 26.0524 28.1068C26.0524 26.0014 24.7065 24.7362 22.2945 23.7637C23.8536 22.5363 24.5332 20.3458 24.5332 18.5614C24.5332 16.8619 24.0935 14.492 22.6543 13.2835C26.0124 12.2072 27.9046 10.621 27.9046 7.84516C27.9046 4.33288 24.1601 1.42487 19.3362 1.04721V1C19.163 1 18.9897 0.999999 18.8165 1.01888C18.6166 1.00944 18.43 1 18.2302 1C16.6577 1 15.1919 1.26436 13.886 1.73644H13.8727C6.42357 3.82304 1 10.0451 1 17.3812V17.3812Z" fill="#BCEBFF"/>
<path d="M23.9083 14.7753H32.0903V17.3812H24.8411C24.8544 17.3906 24.7345 15.5306 23.9083 14.7753Z" fill="#42BA85"/>
<path d="M19.3336 33.9889C21.2069 33.7769 22.9121 33.0986 24.143 32.0759C25.374 31.0532 26.05 29.753 26.0497 28.4089C26.0497 26.3034 24.7038 25.0382 22.2919 24.0658C23.851 22.8384 24.5306 20.6479 24.5306 18.8634C24.5306 17.164 24.0908 14.7941 22.6517 13.5856C26.0097 12.5092 27.902 10.9231 27.902 8.14722C27.902 4.63495 24.1575 1.72693 19.3336 1.34927V1.30206C19.1603 1.30206 18.9871 1.30206 18.8139 1.32095C18.614 1.31151 18.4274 1.30206 18.2275 1.30206C16.6551 1.30206 15.1893 1.56643 13.8833 2.03851H13.87C13.0172 2.27455 12.191 2.56724 11.4048 2.90713M7.6469 5.0787C7.08722 5.49413 6.5542 5.93789 6.06115 6.40053C2.9296 9.33687 1.0107 13.3118 1.0107 17.6832C1.0107 25.3121 6.84736 31.7229 14.7495 33.5451H14.7628" stroke="#30446D" stroke-width="1.5" stroke-linecap="round" stroke-linejoin="round"/>
<path d="M22.2918 24.0752C22.2918 24.0752 21.2791 25.0383 20.3863 25.6331M22.6516 13.6045C22.6516 13.6045 21.6389 12.5565 20.3996 11.9239M32.0862 14.7753H23.5978M32.0862 17.3906H24.8504M24.5279 18.8729C24.5279 18.8729 29.8715 19.9493 31.2041 25.1516C31.3906 25.8597 31.4306 26.5678 31.4306 27.2854V52.3151" stroke="#30446D" stroke-width="1.5" stroke-linecap="round" stroke-linejoin="round"/>
<path d="M23.5978 24.689C23.5978 24.689 28.355 23.7731 31.4333 27.2854" stroke="#30446D" stroke-width="1.5" stroke-linecap="round" stroke-linejoin="round"/>
<path d="M28.7308 59.519H43.3491C43.3491 59.519 41.3236 64.4948 36.0466 65.8449C36.0333 65.8449 29.8635 64.4948 28.7308 59.519Z" fill="#BDE3F8"/>
<path d="M46.5606 57.8856C46.5606 61.1241 43.6556 65.42 39.578 67.11C38.7784 67.5255 38.5785 67.9787 38.5386 68.092C38.5386 68.1014 38.5252 68.1014 38.5252 68.1109V68.1203L38.0588 71H33.8746L33.5148 68.1203C33.5148 68.1203 33.3948 67.5821 32.4354 67.1006C28.3977 65.4011 25.4927 61.1146 25.4927 57.895C25.4927 53.7785 30.21 52.0979 36.02 52.0979C41.8567 52.0979 46.5606 53.7691 46.5606 57.8856V57.8856Z" stroke="#30446D" stroke-width="1.179" stroke-linecap="round" stroke-linejoin="round"/>
<path d="M46.5606 57.8856C46.5606 61.1241 43.6556 65.42 39.578 67.11C38.7784 67.5255 38.5785 67.9787 38.5386 68.092C38.5386 68.1014 38.5252 68.1014 38.5252 68.1109V68.1203L38.0588 71H33.8746L33.5148 68.1203C33.5148 68.1203 33.3948 67.5821 32.4354 67.1006C28.3977 65.4011 25.4927 61.1146 25.4927 57.895C25.4927 53.7785 30.21 52.0979 36.02 52.0979C41.8567 52.0979 46.5606 53.7691 46.5606 57.8856V57.8856Z" stroke="#30446D" stroke-width="1.5" stroke-linecap="round" stroke-linejoin="round"/>
<path d="M40.6707 63.2485C39.538 64.3248 38.0189 65.335 36.0333 65.8355C36.0333 65.8355 29.8502 64.4947 28.7308 59.5096" stroke="#30446D" stroke-width="1.5" stroke-linecap="round" stroke-linejoin="round"/>
</svg>
