<svg width="204" height="185" fill="none" xmlns="http://www.w3.org/2000/svg">
    <rect width="204" height="185" rx="16" fill="#fff"/>
    <path d="M139 30H64v75h75V30z" fill="#fff"/>
    <path d="M127.74 47.63c0 8.08-4.38 14.87-10.31 16.8h-.01c-.76.35-1.6.55-2.49.55-.13 0-.25 0-.37-.02a5.7 5.7 0 0 1-.58-.06 5.984 5.984 0 0 1-5.04-5.91c0-2.23 1.01-3.57 2.82-4.6-1.17-1.3-1.68-3.62-1.68-5.51 0-1.8.33-4.31 1.41-5.59-2.52-1.14-3.94-2.82-3.94-5.76 0-3.72 2.81-6.8 6.43-7.2v-.05c.13 0 .26 0 .39.02.15-.01.29-.02.44-.02 1.18 0 2.28.28 3.26.78h.01c5.59 2.21 9.66 8.8 9.66 16.57z" fill="#BCEBFF"/>
    <path d="M110.55 44.87h-6.14v2.76h5.44c-.01.01.08-1.96.7-2.76z" fill="#42BA85"/>
    <path d="M114.56 65.29c-.19.01-.39.02-.58.02v-.08c.19.02.39.05.58.06z" stroke="#30446D" stroke-width="1.5" stroke-linecap="round" stroke-linejoin="round"/>
    <path d="M122.75 34.6c.42.44.82.91 1.19 1.4 2.35 3.11 3.79 7.32 3.79 11.95 0 8.08-4.38 14.87-10.31 16.8h-.01c-.76.35-1.6.55-2.49.55-.13 0-.25 0-.37-.02a5.7 5.7 0 0 1-.58-.06 5.984 5.984 0 0 1-5.04-5.91c0-2.23 1.01-3.57 2.82-4.6-1.17-1.3-1.68-3.62-1.68-5.51 0-1.8.33-4.31 1.41-5.59-2.52-1.14-3.94-2.82-3.94-5.76 0-3.72 2.81-6.8 6.43-7.2v-.05c.13 0 .26 0 .39.02.15-.01.29-.02.44-.02 1.18 0 2.28.28 3.26.78h.01c.64.25 1.26.56 1.85.92" stroke="#30446D" stroke-width="1.5" stroke-linecap="round" stroke-linejoin="round"/>
    <path d="M111.762 54.72s.76 1.02 1.43 1.65M111.488 43.63s.76-1.11 1.69-1.78M104.41 44.87h6.37M104.41 47.64h5.43M110.078 49.21s-4.01 1.14-5.01 6.65c-.14.75-.17 1.5-.17 2.26v26.51" stroke="#30446D" stroke-width="1.5" stroke-linecap="round" stroke-linejoin="round"/>
    <path d="M110.778 55.37s-3.57-.97-5.88 2.75" stroke="#30446D" stroke-width="1.5" stroke-linecap="round" stroke-linejoin="round"/>
    <path d="M75.21 47.63c0 8.08 4.38 14.87 10.31 16.8h.01c.76.35 1.6.55 2.49.55.13 0 .25 0 .37-.02.19-.01.39-.03.58-.06a5.984 5.984 0 0 0 5.04-5.91c0-2.23-1.01-3.57-2.82-4.6 1.17-1.3 1.68-3.62 1.68-5.51 0-1.8-.33-4.31-1.41-5.59 2.52-1.14 3.94-2.82 3.94-5.76 0-3.72-2.81-6.8-6.43-7.2v-.05c-.13 0-.26 0-.39.02-.15-.01-.29-.02-.44-.02-1.18 0-2.28.28-3.26.78h-.01c-5.59 2.21-9.66 8.8-9.66 16.57z" fill="#BCEBFF"/>
    <path d="M92.401 44.87h6.14v2.76h-5.44c.01.01-.08-1.96-.7-2.76z" fill="#42BA85"/>
    <path d="M88.968 65.22a5.984 5.984 0 0 0 5.04-5.91c0-2.23-1.01-3.57-2.82-4.6 1.17-1.3 1.68-3.62 1.68-5.51 0-1.8-.33-4.31-1.41-5.59 2.52-1.14 3.94-2.82 3.94-5.76 0-3.72-2.81-6.8-6.43-7.2v-.05c-.13 0-.26 0-.39.02-.15-.01-.29-.02-.44-.02-1.18 0-2.28.28-3.26.78h-.01c-.64.25-1.26.56-1.85.92M80.198 34.6c-.42.44-.82.91-1.19 1.4-2.35 3.11-3.79 7.32-3.79 11.95 0 8.08 4.38 14.87 10.31 16.8h.01" stroke="#30446D" stroke-width="1.5" stroke-linecap="round" stroke-linejoin="round"/>
    <path d="M91.188 54.72s-.76 1.02-1.43 1.65M91.458 43.63s-.76-1.11-1.69-1.78M98.538 44.87h-6.37M98.538 47.64h-5.43M92.866 49.21s4.01 1.14 5.01 6.65c.14.75.17 1.5.17 2.26v26.51" stroke="#30446D" stroke-width="1.5" stroke-linecap="round" stroke-linejoin="round"/>
    <path d="M92.168 55.37s3.57-.97 5.88 2.75" stroke="#30446D" stroke-width="1.5" stroke-linecap="round" stroke-linejoin="round"/>
    <path d="M96.02 92.26h10.97s-1.52 5.27-5.48 6.7c-.01 0-4.64-1.43-5.49-6.7z" fill="#BDE3F8"/>
    <path d="M109.4 90.53c0 3.43-2.18 7.98-5.24 9.77-.6.44-.75.92-.78 1.04 0 .01-.01.01-.01.02v.01l-.35 3.05h-3.14l-.27-3.05s-.09-.57-.81-1.08c-3.03-1.8-5.21-6.34-5.21-9.75 0-4.36 3.54-6.14 7.9-6.14 4.38 0 7.91 1.77 7.91 6.13z" stroke="#30446D" stroke-width="1.179" stroke-linecap="round" stroke-linejoin="round"/>
    <path d="M109.4 90.53c0 3.43-2.18 7.98-5.24 9.77-.6.44-.75.92-.78 1.04 0 .01-.01.01-.01.02v.01l-.35 3.05h-3.14l-.27-3.05s-.09-.57-.81-1.08c-3.03-1.8-5.21-6.34-5.21-9.75 0-4.36 3.54-6.14 7.9-6.14 4.38 0 7.91 1.77 7.91 6.13z" stroke="#30446D" stroke-width="1.5" stroke-linecap="round" stroke-linejoin="round"/>
    <path d="M104.98 96.21c-.85 1.14-1.99 2.21-3.48 2.74 0 0-4.64-1.42-5.48-6.7" stroke="#30446D" stroke-width="1.5" stroke-linecap="round" stroke-linejoin="round"/>
    <path d="M91.57 151.192c-1.6 0-2.848-.443-3.744-1.328-.886-.885-1.328-2.149-1.328-3.792V139.8h2.592v6.176c0 2.005.832 3.008 2.496 3.008.81 0 1.429-.24 1.856-.72.426-.491.64-1.253.64-2.288V139.8h2.56v6.272c0 1.643-.448 2.907-1.344 3.792-.886.885-2.128 1.328-3.728 1.328zm11.016-9.28h-3.585V139.8h9.761v2.112h-3.584V151h-2.592v-9.088zm8.82-2.112h2.592v9.088h5.616V151h-8.208v-11.2z" fill="#005D8D"/>
</svg>
