<svg width="204" height="185" fill="none" xmlns="http://www.w3.org/2000/svg">
    <rect width="204" height="185" rx="16" fill="#fff"/>
    <path d="M139 30H64v75h75V30z" fill="#fff"/>
    <path d="m90.92 95.73 2.55-.99-.08.8h1.92l-2.95 1.15.34-1-1.78.04zM91.98 90.55 95 91.99l-.79.61 1.6 1.72-3.49-1.68 1.18-.53-1.52-1.56zM92.94 99.85l2.47-1.18-.65-.49 1.32-1.4-2.86 1.36.96.44-1.24 1.27zM97.44 102.63l1.01-3.2-.98.17-.15-2.35-1.16 3.69 1.19-.49.09 2.18z" fill="#42BA85"/>
    <path d="m127.68 104.09-2.49-10.2s-1.16-3.05-.93-4.83l-2.44-22.54s-.58-4.41-1.39-5.57c0 0-.2-1.51 0-3.77 0 0-.32-5.57-8.49-5.39 0 0-11.57-.43-19.57 7.22 0 0-16.01 14.35-17.01 22.26 0 0-.91 1.65 6.22 3.22 0 0 14.44 2.33 16.35 2.86 0 0 1.83.01 3.57 2.97l1.39 2.87s1.22 2.17.26 4.35l-2 6.55h26.53z" fill="#BDE3F8"/>
    <path d="m127.68 104.09-2.49-10.2s-1.16-3.05-.93-4.83l-2.44-22.54s-.58-4.41-1.39-5.57c0 0-.2-1.51 0-3.77 0 0-.32-5.57-8.49-5.39 0 0-11.57-.43-19.57 7.22 0 0-16.01 14.35-17.01 22.26 0 0-.91 1.65 6.22 3.22 0 0 14.44 2.33 16.35 2.86 0 0 1.83.01 3.57 2.97l1.39 2.87s1.22 2.17.26 4.35l-2 6.55" stroke="#30446D" stroke-width="1.573" stroke-linecap="round" stroke-linejoin="round"/>
    <path d="M86.28 77.94s5.04-1.36 5.83-3.71l6.7 8.41-12.53-4.7z" fill="#fff"/>
    <path d="M86.28 77.94s5.04-1.36 5.83-3.71l6.7 8.41-12.53-4.7zM97.91 82.31s3.49 1.43 5.23 2.74c.63.48 1.02 1.25.92 2.04-.13 1.02-1.13 2-5.25.5" stroke="#30446D" stroke-width="1.573" stroke-linecap="round" stroke-linejoin="round"/>
    <path d="m110.02 47.06 1.64-.91c1.87-1.08 1.39-2.82 1.26-3.18-.01-.03-.03-.07-.04-.1l-1.18-2.12a.688.688 0 0 1-.06-.54c.05-.18.17-.33.34-.43.32-.23.36-.53.33-.75a.623.623 0 0 0-.24-.42l-2.77-2.32c-.1-.08-.12-.09-.19-.19-.02-.02-.05-.06-.07-.08-.12-.21-.21-.44-.33-.65A8.62 8.62 0 0 0 96.98 32c-4.05 2.24-5.58 7.27-3.54 11.37l.01.01c1.45 3.06 4.49 4.84 5.66 5.5.18.1.48.22.66.3 0-.01 3.55 2.3 10.25-2.12z" fill="#BDE3F8"/>
    <path d="M92.71 37.83c-.37 1.82-.15 3.76.73 5.53l.01.01c.22.46.48.9.76 1.3.28.41.59.78.9 1.13 1.46 1.6 3.19 2.61 4 3.06.18.1.48.22.66.3 0 0 2.82 1.63 7.1-.4M95.21 33.29c-.18.13-.35.27-.52.41M111.66 46.15c1.87-1.08 1.39-2.82 1.26-3.18-.01-.03-.03-.07-.04-.1l-1.18-2.12a.688.688 0 0 1-.06-.54c.05-.18.17-.33.34-.43.32-.23.36-.53.33-.75a.623.623 0 0 0-.24-.42l-2.77-2.32c-.1-.08-.12-.09-.19-.19-.02-.02-.05-.06-.07-.08-.12-.21-.21-.44-.33-.65A8.62 8.62 0 0 0 96.98 32M109.44 47.53l.44-.25" stroke="#30446D" stroke-width="1.573" stroke-linecap="round" stroke-linejoin="round"/>
    <path d="M64.591 145.176c.64.203 1.141.544 1.504 1.024.363.469.544 1.051.544 1.744 0 .981-.384 1.739-1.152 2.272-.757.523-1.867.784-3.328.784h-5.792v-11.2h5.472c1.365 0 2.41.261 3.136.784.736.523 1.104 1.232 1.104 2.128 0 .544-.133 1.029-.4 1.456a2.685 2.685 0 0 1-1.088 1.008zm-5.648-3.424v2.64h2.576c.64 0 1.125-.112 1.456-.336.33-.224.496-.555.496-.992 0-.437-.165-.763-.496-.976-.33-.224-.816-.336-1.456-.336h-2.576zm3.024 7.296c.683 0 1.195-.112 1.536-.336.352-.224.528-.571.528-1.04 0-.928-.688-1.392-2.064-1.392h-3.024v2.768h3.024zm11.18-6.784c1.334 0 2.358.32 3.072.96.715.629 1.072 1.584 1.072 2.864V151h-2.336v-1.072c-.469.8-1.344 1.2-2.624 1.2-.66 0-1.237-.112-1.728-.336-.48-.224-.848-.533-1.104-.928a2.417 2.417 0 0 1-.384-1.344c0-.8.3-1.429.896-1.888.608-.459 1.542-.688 2.8-.688h1.984c0-.544-.165-.96-.496-1.248-.33-.299-.826-.448-1.488-.448-.458 0-.912.075-1.36.224-.437.139-.81.331-1.12.576l-.896-1.744c.47-.331 1.03-.587 1.68-.768a7.664 7.664 0 0 1 2.032-.272zm-.192 7.184a2.22 2.22 0 0 0 1.136-.288c.331-.203.566-.496.704-.88v-.88h-1.712c-1.024 0-1.536.336-1.536 1.008 0 .32.123.576.368.768.256.181.603.272 1.04.272zm12.1 1.68c-.918 0-1.745-.187-2.48-.56a4.381 4.381 0 0 1-1.713-1.584c-.405-.672-.608-1.435-.608-2.288 0-.853.203-1.616.608-2.288a4.264 4.264 0 0 1 1.712-1.568c.736-.384 1.563-.576 2.48-.576.907 0 1.696.192 2.368.576a3.318 3.318 0 0 1 1.488 1.616l-1.936 1.04c-.448-.789-1.093-1.184-1.936-1.184-.65 0-1.19.213-1.616.64-.426.427-.64 1.008-.64 1.744s.214 1.317.64 1.744c.427.427.966.64 1.616.64.853 0 1.499-.395 1.936-1.184l1.936 1.056c-.31.683-.805 1.216-1.488 1.6-.672.384-1.461.576-2.368.576zm10.176-3.504-1.2 1.184V151h-2.496v-11.872h2.496v6.72l3.648-3.456h2.976l-3.584 3.648 3.904 4.96h-3.024l-2.72-3.376zm18.922-7.824c.992 0 1.85.165 2.576.496.736.331 1.301.8 1.696 1.408.394.608.592 1.328.592 2.16 0 .821-.198 1.541-.592 2.16-.395.608-.96 1.077-1.696 1.408-.726.32-1.584.48-2.576.48h-2.256V151h-2.592v-11.2h4.848zm-.144 6c.778 0 1.37-.165 1.776-.496.405-.341.608-.821.608-1.44 0-.629-.203-1.109-.608-1.44-.406-.341-.998-.512-1.776-.512h-2.112v3.888h2.112zm11.326-3.536c1.333 0 2.357.32 3.072.96.715.629 1.072 1.584 1.072 2.864V151h-2.336v-1.072c-.469.8-1.344 1.2-2.624 1.2-.661 0-1.237-.112-1.728-.336-.48-.224-.848-.533-1.104-.928a2.417 2.417 0 0 1-.384-1.344c0-.8.299-1.429.896-1.888.608-.459 1.541-.688 2.8-.688h1.984c0-.544-.165-.96-.496-1.248-.331-.299-.827-.448-1.488-.448-.459 0-.912.075-1.36.224a3.484 3.484 0 0 0-1.12.576l-.896-1.744c.469-.331 1.029-.587 1.68-.768a7.663 7.663 0 0 1 2.032-.272zm-.192 7.184a2.22 2.22 0 0 0 1.136-.288c.331-.203.565-.496.704-.88v-.88h-1.712c-1.024 0-1.536.336-1.536 1.008 0 .32.123.576.368.768.256.181.603.272 1.04.272zm7.845-7.056h2.496V151h-2.496v-8.608zm1.248-1.2c-.459 0-.832-.133-1.12-.4a1.297 1.297 0 0 1-.432-.992c0-.395.144-.725.432-.992.288-.267.661-.4 1.12-.4.459 0 .832.128 1.12.384.288.256.432.576.432.96 0 .416-.144.763-.432 1.04-.288.267-.661.4-1.12.4zm10.046 1.072c1.067 0 1.926.32 2.576.96.662.64.992 1.589.992 2.848V151h-2.496v-4.544c0-.683-.149-1.189-.448-1.52-.298-.341-.73-.512-1.296-.512-.629 0-1.13.197-1.504.592-.373.384-.56.96-.56 1.728V151h-2.496v-8.608h2.384v1.008c.331-.363.742-.64 1.232-.832a4.19 4.19 0 0 1 1.616-.304z" fill="#005D8D"/>
</svg>
