<svg width="204" height="185" fill="none" xmlns="http://www.w3.org/2000/svg">
    <rect width="204" height="185" rx="16" fill="#fff"/>
    <path d="M140 30H65v75h75V30z" fill="#fff"/>
    <path d="M93.68 104.34V97.1c0-1.3-1.06-2.36-2.36-2.36h-6.16c-7.11-.12-8.5-5.91-8.72-7.16-.02-.12-.03-3.97-.03-4.09l6.11-1.05-6.11-3.21c0-.65-.27-1.24-.69-1.66a2.35 2.35 0 0 0-1.67-.69c-1.29-.16-1.88-.95-2.14-1.62-.21-.52-.19-1.09.01-1.6l4.29-11.1c.15-.39.19-.45.25-.87.01-.09.05-.26.05-.35.03-.79-.1-1.59-.1-2.4 0-15.68 12.71-28.4 28.4-28.4 15.25 0 27.68 12.01 28.37 27.09v.04c.72 11.12-5.2 21.12-7.53 24.87-.35.57-1.03 1.4-1.44 1.92-1.12 1.42-1.01 4.83-.99 5.27v14.59" fill="#BDE3F8"/>
    <path d="M126.43 40.54a28.313 28.313 0 0 1 6.74 17.1v.04c.11 1.69.07 3.35-.09 4.97-.16 1.62-.44 3.19-.8 4.7-1.65 6.94-5.01 12.59-6.64 15.2-.35.57-1.03 1.4-1.44 1.92-1.12 1.42-1.01 4.83-.99 5.27M112.43 31.58c1.95.54 3.82 1.29 5.57 2.21M107.37 30.66c.53.05 1.06.11 1.59.19M76.41 79.23c0-.65-.27-1.24-.69-1.66a2.35 2.35 0 0 0-1.67-.69c-1.29-.16-1.88-.95-2.14-1.62-.21-.52-.19-1.09.01-1.6l4.29-11.1c.15-.39.19-.45.25-.87.01-.09.05-.26.05-.35.03-.79-.1-1.59-.1-2.4 0-14.65 11.09-26.71 25.34-28.23 1-.11 2.02-.16 3.06-.16M93.68 104.34V97.1c0-1.3-1.06-2.36-2.36-2.36h-6.16c-7.11-.12-8.5-5.91-8.72-7.16-.02-.12-.03-.24-.03-.36v-3.09l7.32-1.49M93.171 72.74s20.57-1.76 20.57 22.19" stroke="#30446D" stroke-width="1.5" stroke-linecap="round" stroke-linejoin="round"/>
    <path d="M94.37 70.15v5.34c0 .41-.43.67-.8.49l-5.2-2.67a.55.55 0 0 1 0-.98l5.2-2.67c.37-.19.8.08.8.49z" fill="#30446D"/>
    <path d="M88.07 77.74s17.04-1.46 20.1 16.34" stroke="#30446D" stroke-width="1.5" stroke-linecap="round" stroke-linejoin="round"/>
    <path d="M104.72 91.19h5.34c.41 0 .67.43.49.8l-2.67 5.2c-.2.4-.77.4-.98 0l-2.67-5.2c-.18-.36.08-.8.49-.8z" fill="#30446D"/>
    <path d="M16.716 145.176c.64.203 1.141.544 1.504 1.024.363.469.544 1.051.544 1.744 0 .981-.384 1.739-1.152 2.272-.757.523-1.867.784-3.328.784H8.492v-11.2h5.472c1.365 0 2.41.261 3.136.784.736.523 1.104 1.232 1.104 2.128 0 .544-.133 1.029-.4 1.456a2.685 2.685 0 0 1-1.088 1.008zm-5.648-3.424v2.64h2.576c.64 0 1.125-.112 1.456-.336.33-.224.496-.555.496-.992 0-.437-.165-.763-.496-.976-.33-.224-.816-.336-1.456-.336h-2.576zm3.024 7.296c.683 0 1.195-.112 1.536-.336.352-.224.528-.571.528-1.04 0-.928-.688-1.392-2.064-1.392h-3.024v2.768h3.024zm10.092-5.52a2.78 2.78 0 0 1 1.2-.944c.512-.213 1.1-.32 1.76-.32v2.304a9.289 9.289 0 0 0-.56-.032c-.714 0-1.274.203-1.68.608-.405.395-.608.992-.608 1.792V151H21.8v-8.608h2.384v1.136zm14.048 3.2c0 .032-.016.256-.048.672h-6.512c.118.533.395.955.832 1.264.438.309.982.464 1.632.464.448 0 .843-.064 1.184-.192.352-.139.678-.352.976-.64l1.328 1.44c-.81.928-1.994 1.392-3.552 1.392-.97 0-1.829-.187-2.576-.56-.746-.384-1.322-.912-1.728-1.584-.405-.672-.608-1.435-.608-2.288 0-.843.198-1.6.592-2.272a4.197 4.197 0 0 1 1.648-1.584c.704-.384 1.488-.576 2.352-.576.843 0 1.606.181 2.288.544a3.905 3.905 0 0 1 1.6 1.568c.395.672.592 1.456.592 2.352zm-4.464-2.576c-.565 0-1.04.16-1.424.48-.384.32-.618.757-.704 1.312h4.24c-.085-.544-.32-.976-.704-1.296-.384-.331-.853-.496-1.408-.496zm10.614-1.888c1.333 0 2.357.32 3.072.96.715.629 1.072 1.584 1.072 2.864V151H46.19v-1.072c-.47.8-1.344 1.2-2.624 1.2-.662 0-1.238-.112-1.728-.336-.48-.224-.848-.533-1.104-.928a2.417 2.417 0 0 1-.384-1.344c0-.8.298-1.429.896-1.888.608-.459 1.541-.688 2.8-.688h1.984c0-.544-.166-.96-.496-1.248-.33-.299-.827-.448-1.488-.448-.459 0-.912.075-1.36.224-.438.139-.81.331-1.12.576l-.896-1.744c.47-.331 1.03-.587 1.68-.768a7.663 7.663 0 0 1 2.032-.272zm-.192 7.184a2.22 2.22 0 0 0 1.136-.288c.33-.203.565-.496.704-.88v-.88h-1.712c-1.024 0-1.536.336-1.536 1.008 0 .32.123.576.368.768.256.181.602.272 1.04.272zm13.397 1.136c-.245.181-.55.32-.912.416a4.758 4.758 0 0 1-1.12.128c-1.024 0-1.819-.261-2.384-.784-.555-.523-.832-1.291-.832-2.304v-3.536H51.01v-1.92h1.328v-2.096h2.496v2.096h2.144v1.92h-2.144v3.504c0 .363.09.645.272.848.192.192.459.288.8.288.395 0 .73-.107 1.008-.32l.672 1.76zm7.883-8.32c1.067 0 1.925.32 2.576.96.661.64.992 1.589.992 2.848V151h-2.496v-4.544c0-.683-.15-1.189-.448-1.52-.299-.341-.73-.512-1.296-.512-.63 0-1.13.197-1.504.592-.373.384-.56.96-.56 1.728V151h-2.496v-11.872h2.496v4.16c.33-.331.73-.581 1.2-.752.47-.181.981-.272 1.536-.272zm7.08.128h2.496V151H72.55v-8.608zm1.248-1.2c-.458 0-.832-.133-1.12-.4a1.297 1.297 0 0 1-.432-.992c0-.395.144-.725.432-.992.288-.267.662-.4 1.12-.4.46 0 .832.128 1.12.384.288.256.432.576.432.96 0 .416-.144.763-.432 1.04-.288.267-.66.4-1.12.4zm10.047 1.072c1.067 0 1.925.32 2.576.96.661.64.992 1.589.992 2.848V151h-2.496v-4.544c0-.683-.15-1.189-.448-1.52-.299-.341-.73-.512-1.296-.512-.63 0-1.13.197-1.504.592-.373.384-.56.96-.56 1.728V151h-2.496v-8.608h2.384v1.008c.33-.363.741-.64 1.232-.832a4.187 4.187 0 0 1 1.616-.304zm16.054.128v7.168c0 1.579-.41 2.752-1.232 3.52-.821.768-2.021 1.152-3.6 1.152a8.99 8.99 0 0 1-2.368-.304c-.746-.203-1.365-.496-1.856-.88l.992-1.792c.363.299.822.533 1.376.704.555.181 1.11.272 1.664.272.864 0 1.499-.197 1.904-.592.416-.384.624-.971.624-1.76v-.368c-.65.715-1.557 1.072-2.72 1.072-.79 0-1.515-.171-2.176-.512a4.039 4.039 0 0 1-1.552-1.472c-.384-.629-.576-1.355-.576-2.176 0-.821.192-1.547.576-2.176a3.92 3.92 0 0 1 1.552-1.456 4.558 4.558 0 0 1 2.176-.528c1.248 0 2.197.411 2.848 1.232v-1.104H99.9zm-4.72 6.144c.662 0 1.2-.192 1.616-.576.427-.395.64-.907.64-1.536s-.213-1.136-.64-1.52c-.416-.395-.954-.592-1.616-.592-.661 0-1.205.197-1.632.592-.426.384-.64.891-.64 1.52s.214 1.141.64 1.536c.427.384.97.576 1.632.576zm14.251-8.736h5.088c1.216 0 2.288.235 3.216.704.938.459 1.664 1.109 2.176 1.952.522.843.784 1.824.784 2.944 0 1.12-.262 2.101-.784 2.944-.512.843-1.238 1.499-2.176 1.968-.928.459-2 .688-3.216.688h-5.088v-11.2zm4.96 9.072c1.12 0 2.01-.309 2.672-.928.672-.629 1.008-1.477 1.008-2.544s-.336-1.909-1.008-2.528c-.662-.629-1.552-.944-2.672-.944h-2.368v6.944h2.368zm9.332-6.48h2.496V151h-2.496v-8.608zm1.248-1.2c-.458 0-.832-.133-1.12-.4a1.297 1.297 0 0 1-.432-.992c0-.395.144-.725.432-.992.288-.267.662-.4 1.12-.4.459 0 .832.128 1.12.384.288.256.432.576.432.96 0 .416-.144.763-.432 1.04-.288.267-.661.4-1.12.4zm7.551 1.392h2.208v1.92h-2.144V151h-2.496v-6.496h-1.328v-1.92h1.328v-.384c0-.981.288-1.76.864-2.336.586-.576 1.408-.864 2.464-.864.373 0 .725.043 1.056.128.341.075.624.187.848.336l-.656 1.808a1.705 1.705 0 0 0-1.008-.304c-.758 0-1.136.416-1.136 1.248v.368zm7.437 0h2.208v1.92h-2.144V151h-2.496v-6.496h-1.328v-1.92h1.328v-.384c0-.981.288-1.76.864-2.336.587-.576 1.408-.864 2.464-.864.374 0 .726.043 1.056.128.342.075.624.187.848.336l-.656 1.808a1.705 1.705 0 0 0-1.008-.304c-.757 0-1.136.416-1.136 1.248v.368zm4.736-.192h2.496V151h-2.496v-8.608zm1.248-1.2c-.458 0-.832-.133-1.12-.4a1.297 1.297 0 0 1-.432-.992c0-.395.144-.725.432-.992.288-.267.662-.4 1.12-.4.459 0 .832.128 1.12.384.288.256.432.576.432.96 0 .416-.144.763-.432 1.04-.288.267-.661.4-1.12.4zm8.972 9.936c-.918 0-1.744-.187-2.48-.56a4.376 4.376 0 0 1-1.712-1.584c-.406-.672-.608-1.435-.608-2.288 0-.853.202-1.616.608-2.288a4.26 4.26 0 0 1 1.712-1.568c.736-.384 1.562-.576 2.48-.576.906 0 1.696.192 2.368.576a3.324 3.324 0 0 1 1.488 1.616l-1.936 1.04c-.448-.789-1.094-1.184-1.936-1.184-.651 0-1.19.213-1.616.64-.427.427-.64 1.008-.64 1.744s.213 1.317.64 1.744c.426.427.965.64 1.616.64.853 0 1.498-.395 1.936-1.184l1.936 1.056a3.432 3.432 0 0 1-1.488 1.6c-.672.384-1.462.576-2.368.576zm15.215-8.736V151h-2.368v-1.024a3.415 3.415 0 0 1-1.184.864 3.817 3.817 0 0 1-1.488.288c-1.131 0-2.027-.325-2.688-.976-.662-.651-.992-1.616-.992-2.896v-4.864h2.496v4.496c0 1.387.581 2.08 1.744 2.08.597 0 1.077-.192 1.44-.576.362-.395.544-.976.544-1.744v-4.256h2.496zm3.562-3.264h2.496V151h-2.496v-11.872zm12.24 11.456c-.246.181-.55.32-.912.416a4.762 4.762 0 0 1-1.12.128c-1.024 0-1.819-.261-2.384-.784-.555-.523-.832-1.291-.832-2.304v-3.536h-1.328v-1.92h1.328v-2.096h2.496v2.096h2.144v1.92h-2.144v3.504c0 .363.09.645.272.848.192.192.458.288.8.288.394 0 .73-.107 1.008-.32l.672 1.76zm11.038-8.192-3.888 9.136c-.394.992-.885 1.691-1.472 2.096-.576.405-1.274.608-2.096.608-.448 0-.89-.069-1.328-.208-.437-.139-.794-.331-1.072-.576l.912-1.776a2.165 2.165 0 0 0 1.408.544c.342 0 .619-.085.832-.256.214-.16.406-.432.576-.816l.032-.08-3.728-8.672h2.576l2.416 5.84 2.432-5.84h2.4z" fill="#005D8D"/>
</svg>
