<svg width="76" height="75" fill="none" xmlns="http://www.w3.org/2000/svg">
    <path d="M75.25 0h-75v75h75V0z" fill="#fff"/>
    <path d="M63.02 32.36c0-9.17-7.44-16.59-16.59-16.59-6.34 0-11.86 3.56-14.65 8.8-2.8-5.23-8.3-8.8-14.65-8.8C7.97 15.75.54 23.19.54 32.36c0 4.83 2.06 9.17 5.34 12.2l25.9 23.92 25.9-23.93h-.02c3.28-3.04 5.36-7.38 5.36-12.19z" fill="#BDE3F8"/>
    <path d="m12.63 50.81 19.14 17.67 25.9-23.93h-.02c3.28-3.03 5.36-7.36 5.36-12.19 0-9.17-7.44-16.59-16.59-16.59-6.34 0-11.86 3.56-14.65 8.8-2.8-5.23-8.3-8.8-14.65-8.8-4.41 0-8.41 1.72-11.37 4.5" stroke="#2F446D" stroke-width="1.541" stroke-linecap="round" stroke-linejoin="round"/>
    <path d="M23.49 36.46c-2.07 3.04-1.29 7.19 1.75 9.26 3.04 2.07 7.19 1.29 9.26-1.75 2.07-3.04 1.29-7.19-1.75-9.26a6.65 6.65 0 0 0-9.26 1.75z" fill="#42BA85"/>
    <path d="m31.75 42.09 8.75 5.96c1.62 1.1 2.81 2.6 3.54 4.28" stroke="#2F446D" stroke-width="1.5" stroke-linecap="round" stroke-linejoin="round"/>
    <path d="M26.24 38.33a3.33 3.33 0 0 0 .88 4.63 3.33 3.33 0 0 0 4.63-.88 3.33 3.33 0 0 0-.88-4.63 3.342 3.342 0 0 0-4.63.88z" fill="#fff"/>
    <path d="M26.24 38.33a3.33 3.33 0 0 0 .88 4.63 3.33 3.33 0 0 0 4.63-.88 3.33 3.33 0 0 0-.88-4.63 3.342 3.342 0 0 0-4.63.88z" stroke="#2F446D" stroke-width="1.5" stroke-linecap="round" stroke-linejoin="round"/>
    <path d="M72.71 20.27a2.23 2.23 0 0 0-2.61 1.77c-1.43 7.38-6.24 12.54-11.71 12.54-5.47 0-10.28-5.16-11.71-12.54a2.23 2.23 0 1 0-4.38.84c1.63 8.43 7.01 14.61 13.54 15.9v3.15c0 1.41 1.14 2.55 2.55 2.55s2.55-1.14 2.55-2.55v-3.15c6.52-1.29 11.91-7.47 13.54-15.9a2.24 2.24 0 0 0-1.77-2.61z" fill="#42BA85"/>
    <path d="M44.17 20.26c-.09-.84-.13-1.7-.13-2.58v-5.1c0-2.46 2-4.46 4.46-4.46M68.27 8.12c2.46 0 4.46 2 4.46 4.46v5.1" stroke="#2F446D" stroke-width="1.5" stroke-linecap="round" stroke-linejoin="round"/>
    <path d="M66.68 9.71H65.4c-.88 0-1.59-.71-1.59-1.59 0-.88.71-1.59 1.59-1.59h1.28c.88 0 1.59.71 1.59 1.59 0 .88-.71 1.59-1.59 1.59zM51.37 9.71h-1.28c-.88 0-1.59-.71-1.59-1.59 0-.88.71-1.59 1.59-1.59h1.28c.88 0 1.59.71 1.59 1.59 0 .88-.71 1.59-1.59 1.59zM58.39 47.05v3.48c0 4.4-3.57 7.97-7.97 7.97-1.91 0-3.66-.67-5.03-1.79M74.48 22.89a2.23 2.23 0 1 0-4.38-.84c-1.43 7.38-6.24 12.54-11.71 12.54-5.47 0-10.28-5.16-11.71-12.54a2.23 2.23 0 1 0-4.38.84c1.02 5.27 3.5 9.66 6.82 12.53M55.84 38.79v3.15c0 1.41 1.14 2.55 2.55 2.55s2.55-1.14 2.55-2.55v-3.15c5.06-1 9.43-4.94 11.9-10.59M28.96 46.88c-1.28 0-2.58-.38-3.72-1.16a6.658 6.658 0 0 1-1.75-9.26 6.658 6.658 0 0 1 9.26-1.75 6.658 6.658 0 0 1 1.75 9.26" stroke="#2F446D" stroke-width="1.5" stroke-linecap="round" stroke-linejoin="round"/>
</svg>
