<svg width="204" height="185" fill="none" xmlns="http://www.w3.org/2000/svg">
    <rect width="204" height="185" rx="16" fill="#fff"/>
    <g clip-path="url(#a)">
        <path d="M139 30H64v75h75V30z" fill="#fff"/>
        <path d="m96 69.45.37 4.47 1.13-.7 1.39 2.83-.44-5.17-1.22 1.22L96 69.45zM89.12 74.76l4.32 3.4.32-1.6 3.69 1.12-5-3.93.07 2.12-3.4-1.11zM103.52 69.44l.05 4.48-1.19-.59-1.11 2.96-.06-5.19 1.34 1.09.97-2.75zM110.87 74.06l-3.97 3.8-.47-1.56-3.57 1.47 4.6-4.39.13 2.12 3.28-1.44z" fill="#42BA85"/>
        <path d="M131.76 101.98V80.94c0-9.97-8.08-18.05-18.05-18.05H89.29c-9.97 0-18.05 8.08-18.05 18.05v21.05M100.72 98.5l-3.58 3.48" stroke="#30446D" stroke-width="1.5" stroke-linecap="round" stroke-linejoin="round"/>
        <path d="M85.8 83.17v10.47l10.88-10.46c.95-.91 2.1-1.62 3.37-1.97 1.31-.35 2.99-.43 4.71.48 1.52.8 2.67 2.2 3.23 3.83.01.03.02.06.03.08.11.34.2.68.26 1.02" stroke="#30446D" stroke-width="1.5" stroke-linecap="round" stroke-linejoin="round"/>
        <path d="M118.16 85.64V96.1l-10.88-10.46c-.95-.91-2.1-1.62-3.37-1.97-1.31-.35-2.99-.43-4.71.48-1.52.8-2.67 2.2-3.23 3.83-.01.03-.02.06-.03.08-.9 2.69-.09 5.67 1.94 7.65l8.94 8.72M101.21 59.78c7.947 0 14.39-6.443 14.39-14.39 0-7.947-6.443-14.39-14.39-14.39-7.947 0-14.39 6.443-14.39 14.39 0 7.947 6.443 14.39 14.39 14.39z" stroke="#30446D" stroke-width="1.5" stroke-linecap="round" stroke-linejoin="round"/>
    </g>
    <path d="M57.961 151.192c-1.14 0-2.176-.245-3.104-.736a5.699 5.699 0 0 1-2.176-2.064c-.522-.885-.784-1.883-.784-2.992s.262-2.101.784-2.976a5.554 5.554 0 0 1 2.176-2.064c.928-.501 1.968-.752 3.12-.752.971 0 1.846.171 2.624.512.79.341 1.451.832 1.984 1.472l-1.664 1.536c-.757-.875-1.696-1.312-2.816-1.312-.693 0-1.312.155-1.856.464-.544.299-.97.72-1.28 1.264-.298.544-.448 1.163-.448 1.856 0 .693.15 1.312.448 1.856.31.544.736.971 1.28 1.28.544.299 1.163.448 1.856.448 1.12 0 2.06-.443 2.816-1.328l1.664 1.536a5.18 5.18 0 0 1-1.984 1.488c-.789.341-1.669.512-2.64.512zm12.68-8.928c1.067 0 1.926.32 2.577.96.661.64.992 1.589.992 2.848V151h-2.496v-4.544c0-.683-.15-1.189-.448-1.52-.299-.341-.73-.512-1.296-.512-.63 0-1.13.197-1.504.592-.373.384-.56.96-.56 1.728V151H65.41v-11.872h2.496v4.16c.33-.331.73-.581 1.2-.752.47-.181.981-.272 1.536-.272zm15.607 4.464c0 .032-.016.256-.048.672h-6.512c.117.533.395.955.832 1.264.437.309.981.464 1.632.464.448 0 .843-.064 1.184-.192.352-.139.677-.352.976-.64l1.328 1.44c-.81.928-1.995 1.392-3.552 1.392-.97 0-1.83-.187-2.576-.56-.747-.384-1.323-.912-1.728-1.584s-.608-1.435-.608-2.288c0-.843.197-1.6.592-2.272a4.195 4.195 0 0 1 1.648-1.584c.704-.384 1.488-.576 2.352-.576.843 0 1.605.181 2.288.544a3.905 3.905 0 0 1 1.6 1.568c.395.672.592 1.456.592 2.352zm-4.464-2.576c-.565 0-1.04.16-1.424.48-.384.32-.619.757-.704 1.312h4.24c-.085-.544-.32-.976-.704-1.296-.384-.331-.853-.496-1.408-.496zm10.272 6.976a8.593 8.593 0 0 1-2.096-.256c-.683-.181-1.227-.405-1.632-.672l.832-1.792c.384.245.848.448 1.392.608a6.042 6.042 0 0 0 1.6.224c1.056 0 1.584-.261 1.584-.784 0-.245-.144-.421-.432-.528-.288-.107-.73-.197-1.328-.272a12.812 12.812 0 0 1-1.744-.368 2.764 2.764 0 0 1-1.2-.736c-.33-.352-.496-.853-.496-1.504 0-.544.154-1.024.464-1.44.32-.427.778-.757 1.376-.992.608-.235 1.322-.352 2.144-.352.608 0 1.21.069 1.808.208.608.128 1.11.309 1.504.544L95 144.792a4.963 4.963 0 0 0-2.48-.64c-.533 0-.933.075-1.2.224-.267.149-.4.341-.4.576 0 .267.144.453.432.56.288.107.746.208 1.376.304.704.117 1.28.245 1.728.384.448.128.837.368 1.168.72.33.352.496.843.496 1.472 0 .533-.16 1.008-.48 1.424-.32.416-.79.741-1.408.976-.608.224-1.334.336-2.176.336zm12.406-.544c-.246.181-.55.32-.912.416a4.762 4.762 0 0 1-1.12.128c-1.024 0-1.819-.261-2.384-.784-.555-.523-.832-1.291-.832-2.304v-3.536h-1.328v-1.92h1.328v-2.096h2.496v2.096h2.144v1.92h-2.144v3.504c0 .363.09.645.272.848.192.192.458.288.8.288.394 0 .73-.107 1.008-.32l.672 1.76zm13.456-10.784c.992 0 1.851.165 2.576.496.736.331 1.302.8 1.696 1.408.395.608.592 1.328.592 2.16 0 .821-.197 1.541-.592 2.16-.394.608-.96 1.077-1.696 1.408-.725.32-1.584.48-2.576.48h-2.256V151h-2.592v-11.2h4.848zm-.144 6c.779 0 1.371-.165 1.776-.496.406-.341.608-.821.608-1.44 0-.629-.202-1.109-.608-1.44-.405-.341-.997-.512-1.776-.512h-2.112v3.888h2.112zm11.327-3.536c1.333 0 2.357.32 3.072.96.714.629 1.072 1.584 1.072 2.864V151h-2.336v-1.072c-.47.8-1.344 1.2-2.624 1.2-.662 0-1.238-.112-1.728-.336-.48-.224-.848-.533-1.104-.928a2.417 2.417 0 0 1-.384-1.344c0-.8.298-1.429.896-1.888.608-.459 1.541-.688 2.8-.688h1.984c0-.544-.166-.96-.496-1.248-.331-.299-.827-.448-1.488-.448-.459 0-.912.075-1.36.224a3.473 3.473 0 0 0-1.12.576l-.896-1.744c.469-.331 1.029-.587 1.68-.768a7.658 7.658 0 0 1 2.032-.272zm-.192 7.184c.426 0 .805-.096 1.136-.288.33-.203.565-.496.704-.88v-.88h-1.712c-1.024 0-1.536.336-1.536 1.008 0 .32.122.576.368.768.256.181.602.272 1.04.272zm7.845-7.056h2.496V151h-2.496v-8.608zm1.248-1.2c-.459 0-.832-.133-1.12-.4a1.297 1.297 0 0 1-.432-.992c0-.395.144-.725.432-.992.288-.267.661-.4 1.12-.4.458 0 .832.128 1.12.384.288.256.432.576.432.96 0 .416-.144.763-.432 1.04-.288.267-.662.4-1.12.4zm10.046 1.072c1.067 0 1.925.32 2.576.96.661.64.992 1.589.992 2.848V151h-2.496v-4.544c0-.683-.149-1.189-.448-1.52-.299-.341-.731-.512-1.296-.512-.629 0-1.131.197-1.504.592-.373.384-.56.96-.56 1.728V151h-2.496v-8.608h2.384v1.008c.331-.363.741-.64 1.232-.832a4.187 4.187 0 0 1 1.616-.304z" fill="#005D8D"/>
    <defs>
        <clipPath id="a">
            <path fill="#fff" transform="translate(64 30)" d="M0 0h75v75.2H0z"/>
        </clipPath>
    </defs>
</svg>
