<svg width="204" height="185" fill="none" xmlns="http://www.w3.org/2000/svg">
    <rect width="204" height="185" rx="16" fill="#fff"/>
    <path d="M139 30H64v75h75V30z" fill="#fff"/>
    <path d="M125.093 40.976a27.935 27.935 0 0 1 6.667 16.922v.046a29.98 29.98 0 0 1-.092 4.916 34.053 34.053 0 0 1-.793 4.657c-1.632 6.87-4.961 12.46-6.566 15.05-.341.563-1.015 1.384-1.42 1.9-1.116 1.412-.996 4.778-.978 5.211M112.535 32.51a29.372 29.372 0 0 1 4.215 1.789M84.24 94.622c-7.037-.12-8.41-5.856-8.623-7.083a2.237 2.237 0 0 1-.028-.35v-7.904a2.36 2.36 0 0 0-.682-1.65 2.32 2.32 0 0 0-1.65-.683c-1.283-.157-1.855-.94-2.113-1.605a2.19 2.19 0 0 1 .01-1.586l4.242-10.993c.147-.387.184-.443.249-.858.009-.082.055-.258.055-.34.028-.785-.101-1.578-.101-2.37 0-15.522 12.579-28.11 28.109-28.11 2.029 0 4.002.212 5.911.627M92.678 104.13v-7.166a2.33 2.33 0 0 0-2.333-2.333h-3.071" stroke="#30446D" stroke-width="1.61" stroke-linecap="round" stroke-linejoin="round"/>
    <path d="M78.227 70.063a4.445 4.445 0 1 0 0-8.89 4.445 4.445 0 0 0 0 8.89z" fill="#42BA85"/>
    <path d="M54.97 151.192c-1.142 0-2.177-.245-3.105-.736a5.698 5.698 0 0 1-2.176-2.064c-.522-.885-.784-1.883-.784-2.992s.262-2.101.784-2.976a5.553 5.553 0 0 1 2.176-2.064c.928-.501 1.968-.752 3.12-.752.97 0 1.846.171 2.624.512.79.341 1.45.832 1.984 1.472l-1.664 1.536c-.757-.875-1.696-1.312-2.816-1.312-.693 0-1.312.155-1.856.464-.544.299-.97.72-1.28 1.264-.298.544-.448 1.163-.448 1.856 0 .693.15 1.312.448 1.856.31.544.736.971 1.28 1.28.544.299 1.163.448 1.856.448 1.12 0 2.059-.443 2.816-1.328l1.664 1.536a5.18 5.18 0 0 1-1.984 1.488c-.79.341-1.67.512-2.64.512zm11.247-.064c-.907 0-1.723-.187-2.448-.56a4.292 4.292 0 0 1-1.68-1.584c-.406-.672-.608-1.435-.608-2.288 0-.853.202-1.616.608-2.288a4.177 4.177 0 0 1 1.68-1.568c.725-.384 1.541-.576 2.448-.576.906 0 1.717.192 2.432.576a4.178 4.178 0 0 1 1.68 1.568c.405.672.608 1.435.608 2.288 0 .853-.203 1.616-.608 2.288a4.293 4.293 0 0 1-1.68 1.584c-.715.373-1.526.56-2.432.56zm0-2.048c.64 0 1.162-.213 1.568-.64.416-.437.624-1.019.624-1.744 0-.725-.208-1.301-.624-1.728-.406-.437-.928-.656-1.568-.656s-1.168.219-1.584.656c-.416.427-.624 1.003-.624 1.728 0 .725.208 1.307.624 1.744.416.427.944.64 1.584.64zm12.87-6.816c1.067 0 1.925.32 2.576.96.662.64.992 1.589.992 2.848V151H80.16v-4.544c0-.683-.15-1.189-.448-1.52-.299-.341-.73-.512-1.296-.512-.63 0-1.13.197-1.504.592-.373.384-.56.96-.56 1.728V151h-2.496v-8.608h2.384v1.008c.33-.363.742-.64 1.232-.832a4.187 4.187 0 0 1 1.616-.304zm16.054.128v7.168c0 1.579-.41 2.752-1.232 3.52-.821.768-2.021 1.152-3.6 1.152a8.99 8.99 0 0 1-2.368-.304c-.746-.203-1.365-.496-1.856-.88l.992-1.792c.363.299.822.533 1.376.704.555.181 1.11.272 1.664.272.864 0 1.499-.197 1.904-.592.416-.384.624-.971.624-1.76v-.368c-.65.715-1.557 1.072-2.72 1.072-.789 0-1.514-.171-2.176-.512a4.039 4.039 0 0 1-1.552-1.472c-.384-.629-.576-1.355-.576-2.176 0-.821.192-1.547.576-2.176a3.92 3.92 0 0 1 1.552-1.456 4.558 4.558 0 0 1 2.176-.528c1.248 0 2.198.411 2.848 1.232v-1.104h2.368zm-4.72 6.144c.662 0 1.2-.192 1.616-.576.427-.395.64-.907.64-1.536s-.213-1.136-.64-1.52c-.416-.395-.954-.592-1.616-.592-.661 0-1.205.197-1.632.592-.426.384-.64.891-.64 1.52s.214 1.141.64 1.536c.427.384.971.576 1.632.576zm16.726-1.808c0 .032-.016.256-.048.672h-6.512c.117.533.394.955.832 1.264.437.309.981.464 1.632.464.448 0 .842-.064 1.184-.192.352-.139.677-.352.976-.64l1.328 1.44c-.811.928-1.995 1.392-3.552 1.392-.971 0-1.83-.187-2.576-.56-.747-.384-1.323-.912-1.728-1.584-.406-.672-.609-1.435-.609-2.288 0-.843.198-1.6.593-2.272a4.194 4.194 0 0 1 1.648-1.584c.704-.384 1.488-.576 2.352-.576.842 0 1.605.181 2.288.544a3.909 3.909 0 0 1 1.6 1.568c.394.672.592 1.456.592 2.352zm-4.464-2.576c-.566 0-1.04.16-1.424.48-.384.32-.619.757-.704 1.312h4.24c-.086-.544-.32-.976-.704-1.296-.384-.331-.854-.496-1.408-.496zm10.271 6.976a8.599 8.599 0 0 1-2.096-.256c-.682-.181-1.226-.405-1.632-.672l.832-1.792c.384.245.848.448 1.392.608a6.046 6.046 0 0 0 1.6.224c1.056 0 1.584-.261 1.584-.784 0-.245-.144-.421-.432-.528-.288-.107-.73-.197-1.328-.272a12.822 12.822 0 0 1-1.744-.368 2.772 2.772 0 0 1-1.2-.736c-.33-.352-.496-.853-.496-1.504 0-.544.155-1.024.464-1.44.32-.427.779-.757 1.376-.992.608-.235 1.323-.352 2.144-.352a7.95 7.95 0 0 1 1.808.208c.608.128 1.11.309 1.504.544l-.832 1.776a4.963 4.963 0 0 0-2.48-.64c-.533 0-.933.075-1.2.224-.266.149-.4.341-.4.576 0 .267.144.453.432.56.288.107.747.208 1.376.304.704.117 1.28.245 1.728.384.448.128.838.368 1.168.72.331.352.496.843.496 1.472 0 .533-.16 1.008-.48 1.424-.32.416-.789.741-1.408.976-.608.224-1.333.336-2.176.336zm12.406-.544c-.245.181-.549.32-.912.416a4.756 4.756 0 0 1-1.12.128c-1.024 0-1.818-.261-2.384-.784-.554-.523-.832-1.291-.832-2.304v-3.536h-1.328v-1.92h1.328v-2.096h2.496v2.096h2.144v1.92h-2.144v3.504c0 .363.091.645.272.848.192.192.459.288.8.288.395 0 .731-.107 1.008-.32l.672 1.76zm2.651-8.192h2.496V151h-2.496v-8.608zm1.248-1.2c-.458 0-.832-.133-1.12-.4a1.297 1.297 0 0 1-.432-.992c0-.395.144-.725.432-.992.288-.267.662-.4 1.12-.4.459 0 .832.128 1.12.384.288.256.432.576.432.96 0 .416-.144.763-.432 1.04-.288.267-.661.4-1.12.4zm8.911 9.936c-.907 0-1.723-.187-2.448-.56a4.288 4.288 0 0 1-1.68-1.584c-.405-.672-.608-1.435-.608-2.288 0-.853.203-1.616.608-2.288a4.173 4.173 0 0 1 1.68-1.568c.725-.384 1.541-.576 2.448-.576s1.717.192 2.432.576a4.173 4.173 0 0 1 1.68 1.568c.405.672.608 1.435.608 2.288 0 .853-.203 1.616-.608 2.288a4.288 4.288 0 0 1-1.68 1.584c-.715.373-1.525.56-2.432.56zm0-2.048c.64 0 1.163-.213 1.568-.64.416-.437.624-1.019.624-1.744 0-.725-.208-1.301-.624-1.728-.405-.437-.928-.656-1.568-.656s-1.168.219-1.584.656c-.416.427-.624 1.003-.624 1.728 0 .725.208 1.307.624 1.744.416.427.944.64 1.584.64zm12.87-6.816c1.067 0 1.926.32 2.576.96.662.64.992 1.589.992 2.848V151h-2.496v-4.544c0-.683-.149-1.189-.448-1.52-.298-.341-.73-.512-1.296-.512-.629 0-1.13.197-1.504.592-.373.384-.56.96-.56 1.728V151h-2.496v-8.608h2.384v1.008c.331-.363.742-.64 1.232-.832a4.19 4.19 0 0 1 1.616-.304z" fill="#005D8D"/>
</svg>
