<svg width="204" height="185" fill="none" xmlns="http://www.w3.org/2000/svg">
    <rect width="204" height="185" rx="16" fill="#fff"/>
    <path d="M139 30H64v75h75V30z" fill="#fff"/>
    <path d="M83 45.76s1.5 3.08-4.75 6.54c0 0 5.96 2.73 0 9.49 0 0 4.56 5.33 1.45 10.25 0 0 5.23 3.49 5.26 10.27 0 0 4.43 5.3 12.97 5.94 0 0 2.75-5.4 9.95-3.91 0 0 3.96-5.26 10.83-1.31 0 0-.18-2.96 4.02-4.85 0 0-1.38-4.41.31-9.5 0 0-3.34-6.84 1.56-11.65 0 0-3.85-4.62-2.43-10.3 0 0-3.27 3.17-9.57-.97 0 0-3.06 4.31-9.98.27 0 0-3.75 3.37-9.97.1-.01.01-4.49 2.15-9.65-.37z" fill="#42BA85"/>
    <path d="M102.53 102.43s-7.26-6.11-4.97-13.24c0 0 1.53-6.24 10.31-4.84 0 0 4.84-5.35 10.82-1.27 0 0 .51-3.82 4.33-4.2 0 0-2.93-5.6 0-10.19 0 0-3.82-6.88 1.91-11.33 0 0-5.09-3.95-1.66-11.59 0 0-4.71 5.35-10.7 0 0 0-4.33 5.22-10.31 0 0 0-4.97 3.82-10.19 0 0 0-5.99 2.42-9.17-.76 0 0 1.15 5.86-5.09 7 0 0 7.26 4.58 0 9.42 0 0 5.99 4.58 1.66 10.95 0 0 5.22 2.04 5.48 9.93 0 0-.64 6.37-7.13 7 0 0-4.78.67-9.02-3.53-2.96-2.94-4.38-7.2-3.48-11.27.44-2 1.42-4.05 3.46-5.32 0 0-8.4-7.13-.51-13.24 0 0-5.86-4.07.64-11.59 0 0-.46-1.53-.57-3.57-.47-8.32 9.84-12.96 15.36-6.72.17.19.34.39.5.61 0 0 4.71-5.35 10.06.13 0 0 7.51-3.95 11.84.51 0 0 5.22-6.62 12.1-.89 0 0 5.22-4.97 10.19 1.15 0 0 3.46-1.81 6.61.81 2 1.67 2.79 4.37 2.33 6.93a13.09 13.09 0 0 1-2.57 5.75s7.9 3.69-.51 14.39c0 0 4.33 4.84-.13 9.81 0 0 4 7.39 1.53 14.39 0 0-.38 4.58-8.91 5.99 0 0-3.44 6.75-10.7 3.57 0 0-2.29-2.29-2.93 2.16v3.57" fill="#BCEBFF"/>
    <path d="M126.732 93.64s-3.44 6.75-10.7 3.57c0 0-2.29-2.29-2.93 2.16v3.57M135.85 61.19c-.45.72-.99 1.47-1.61 2.27 0 0 4.33 4.84-.13 9.81 0 0 1.34 2.47 1.99 5.9M92.77 33.54c.49.34.98.75 1.48 1.27 0 0 7.51-3.95 11.84.51 0 0 5.22-6.62 12.1-.89 0 0 5.22-4.97 10.19 1.15 0 0 3.46-1.81 6.61.81 2 1.67 2.79 4.37 2.33 6.93a13.09 13.09 0 0 1-2.57 5.75s4.46 2.09 3.11 7.67M84.2 34.68s1.45-1.65 3.66-2.18M68.791 69.19s-8.4-7.13-.51-13.24c0 0-5.86-4.07.64-11.59 0 0-.46-1.53-.57-3.57-.21-3.64 1.65-6.57 4.27-8.2" stroke="#30446D" stroke-width="1.5" stroke-linecap="round" stroke-linejoin="round"/>
    <path d="M102.529 102.43s-7.26-6.11-4.97-13.24c0 0 1.53-6.24 10.31-4.84 0 0 4.84-5.35 10.82-1.27 0 0 .51-3.82 4.33-4.2 0 0-2.93-5.6 0-10.19 0 0-3.82-6.88 1.91-11.33 0 0-5.09-3.95-1.66-11.59 0 0-4.71 5.35-10.7 0 0 0-4.33 5.22-10.31 0 0 0-4.97 3.82-10.19 0 0 0-5.99 2.42-9.17-.76 0 0 1.15 5.86-5.09 7 0 0 7.26 4.58 0 9.42 0 0 5.99 4.58 1.66 10.95 0 0 5.22 2.04 5.48 9.93 0 0-.64 6.37-7.13 7 0 0-4.78.67-9.02-3.53-2.96-2.94-4.38-7.2-3.48-11.27" stroke="#30446D" stroke-width="1.5" stroke-linecap="round" stroke-linejoin="round"/>
    <path d="M76.812 89.35s-1.4 6.84 4.2 9.26M92.09 45.76s-1.27 4.36-4.23 5.51M109.628 48.52s-1.27 4.36-4.23 5.51M81.008 57.36s10.33 5.57 17.32-10M96.691 62.2c3.2 1.35 8.24.56 15.91-7.11" stroke="#30446D" stroke-width="1.5" stroke-linecap="round" stroke-linejoin="round"/>
    <path d="M91.75 56.21s.34 1.21 1.19 2.59M80.371 64.71s4.15 3.85 16.75 4.04M105.39 60.86s4.34 7.77 16.42 2.24" stroke="#30446D" stroke-width="1.5" stroke-linecap="round" stroke-linejoin="round"/>
    <path d="M83.25 75.92s23.55 5.8 26.88-11.43M84.96 82.31s4.24 4.82 12.97 5.94" stroke="#30446D" stroke-width="1.5" stroke-linecap="round" stroke-linejoin="round"/>
    <path d="M104.691 73.43s5.26 2.76 5.44 8.88M114.691 74.1s5.94-.67 8.03-4.87" stroke="#30446D" stroke-width="1.5" stroke-linecap="round" stroke-linejoin="round"/>
    <path d="M62.726 139.8h5.088c1.216 0 2.288.235 3.216.704.94.459 1.664 1.109 2.176 1.952.523.843.784 1.824.784 2.944 0 1.12-.26 2.101-.784 2.944-.512.843-1.237 1.499-2.176 1.968-.928.459-2 .688-3.216.688h-5.088v-11.2zm4.96 9.072c1.12 0 2.011-.309 2.672-.928.672-.629 1.008-1.477 1.008-2.544s-.336-1.909-1.008-2.528c-.66-.629-1.552-.944-2.672-.944h-2.368v6.944h2.368zm9.333-6.48h2.496V151H77.02v-8.608zm1.248-1.2c-.459 0-.832-.133-1.12-.4a1.297 1.297 0 0 1-.432-.992c0-.395.144-.725.432-.992.288-.267.661-.4 1.12-.4.459 0 .832.128 1.12.384.288.256.432.576.432.96 0 .416-.144.763-.432 1.04-.288.267-.661.4-1.12.4zm8.287 1.072c1.333 0 2.357.32 3.072.96.714.629 1.072 1.584 1.072 2.864V151h-2.336v-1.072c-.47.8-1.344 1.2-2.624 1.2-.662 0-1.238-.112-1.728-.336-.48-.224-.848-.533-1.104-.928a2.417 2.417 0 0 1-.384-1.344c0-.8.298-1.429.896-1.888.608-.459 1.541-.688 2.8-.688h1.984c0-.544-.166-.96-.496-1.248-.331-.299-.827-.448-1.488-.448-.459 0-.912.075-1.36.224-.438.139-.811.331-1.12.576l-.896-1.744c.469-.331 1.029-.587 1.68-.768a7.663 7.663 0 0 1 2.032-.272zm-.192 7.184a2.22 2.22 0 0 0 1.136-.288c.33-.203.565-.496.704-.88v-.88H86.49c-1.024 0-1.536.336-1.536 1.008 0 .32.122.576.368.768.256.181.602.272 1.04.272zm10.229-5.92a2.78 2.78 0 0 1 1.2-.944c.512-.213 1.098-.32 1.76-.32v2.304a9.289 9.289 0 0 0-.56-.032c-.715 0-1.275.203-1.68.608-.406.395-.608.992-.608 1.792V151h-2.496v-8.608h2.384v1.136zm8.078 0a2.773 2.773 0 0 1 1.2-.944c.512-.213 1.098-.32 1.76-.32v2.304a9.32 9.32 0 0 0-.56-.032c-.715 0-1.275.203-1.68.608-.406.395-.608.992-.608 1.792V151h-2.496v-8.608h2.384v1.136zm10.926-1.264c1.067 0 1.925.32 2.576.96.661.64.992 1.589.992 2.848V151h-2.496v-4.544c0-.683-.149-1.189-.448-1.52-.299-.341-.731-.512-1.296-.512-.629 0-1.131.197-1.504.592-.373.384-.56.96-.56 1.728V151h-2.496v-11.872h2.496v4.16a3.239 3.239 0 0 1 1.2-.752 4.231 4.231 0 0 1 1.536-.272zm15.606 4.464c0 .032-.016.256-.048.672h-6.512c.118.533.395.955.832 1.264.438.309.982.464 1.632.464a3.36 3.36 0 0 0 1.184-.192c.352-.139.678-.352.976-.64l1.328 1.44c-.81.928-1.994 1.392-3.552 1.392-.97 0-1.829-.187-2.576-.56-.746-.384-1.322-.912-1.728-1.584-.405-.672-.608-1.435-.608-2.288 0-.843.198-1.6.592-2.272a4.203 4.203 0 0 1 1.648-1.584c.704-.384 1.488-.576 2.352-.576.843 0 1.606.181 2.288.544a3.903 3.903 0 0 1 1.6 1.568c.395.672.592 1.456.592 2.352zm-4.464-2.576c-.565 0-1.04.16-1.424.48-.384.32-.618.757-.704 1.312h4.24c-.085-.544-.32-.976-.704-1.296-.384-.331-.853-.496-1.408-.496zm10.614-1.888c1.333 0 2.357.32 3.072.96.714.629 1.072 1.584 1.072 2.864V151h-2.336v-1.072c-.47.8-1.344 1.2-2.624 1.2-.662 0-1.238-.112-1.728-.336-.48-.224-.848-.533-1.104-.928a2.417 2.417 0 0 1-.384-1.344c0-.8.298-1.429.896-1.888.608-.459 1.541-.688 2.8-.688h1.984c0-.544-.166-.96-.496-1.248-.331-.299-.827-.448-1.488-.448-.459 0-.912.075-1.36.224a3.473 3.473 0 0 0-1.12.576l-.896-1.744c.469-.331 1.029-.587 1.68-.768a7.658 7.658 0 0 1 2.032-.272zm-.192 7.184c.426 0 .805-.096 1.136-.288.33-.203.565-.496.704-.88v-.88h-1.712c-1.024 0-1.536.336-1.536 1.008 0 .32.122.576.368.768.256.181.602.272 1.04.272z" fill="#005D8D"/>
</svg>
