<svg width="204" height="185" fill="none" xmlns="http://www.w3.org/2000/svg">
    <rect width="204" height="185" rx="16" fill="#fff"/>
    <path d="M139 30H64v75h75V30z" fill="#fff"/>
    <path d="M113.441 104.38v-6.92c0-1.25 1.01-2.26 2.26-2.26h5.89c6.8-.12 8.12-5.65 8.33-6.84.02-.11.03-.23.03-.34v-7.63c0-.62.26-1.19.66-1.59.41-.41.97-.66 1.6-.66 1.23-.15 1.79-.91 2.04-1.55.2-.49.18-1.04-.01-1.53l-4.1-10.61c-.14-.37-.18-.43-.24-.83-.01-.08-.05-.25-.05-.33-.03-.76.09-1.52.09-2.29 0-14.99-12.15-27.14-27.14-27.14-14.57 0-26.46 11.48-27.11 25.89v.04c-.69 10.63 4.97 20.19 7.2 23.77.33.54.98 1.34 1.37 1.83 1.07 1.36.96 4.61.94 5.03v13.95" fill="#BDE3F8"/>
    <path d="M82.14 43.41a27.032 27.032 0 0 0-6.44 16.34v.04c-.1 1.61-.06 3.2.09 4.75.15 1.55.42 3.05.76 4.5 1.58 6.64 4.79 12.03 6.34 14.53.33.54.98 1.34 1.37 1.83 1.07 1.36.96 4.61.94 5.03M94.711 35.08c-1.57.49-3.08 1.12-4.52 1.88M99.321 34.08c-.7.09-1.38.2-2.06.35M121.58 95.2c6.8-.12 8.12-5.65 8.33-6.84.02-.11.03-.23.03-.34v-7.63c0-.62.26-1.19.66-1.59.41-.41.97-.66 1.6-.66 1.23-.15 1.79-.91 2.04-1.55.2-.49.18-1.04-.01-1.53l-4.1-10.61c-.14-.37-.18-.43-.24-.83-.01-.08-.05-.25-.05-.33-.03-.76.09-1.52.09-2.29 0-14.99-12.15-27.14-27.14-27.14M113.441 104.38v-6.92c0-1.25 1.01-2.26 2.26-2.26h1.59" stroke="#30446D" stroke-width="1.5" stroke-linecap="round" stroke-linejoin="round"/>
    <path d="M87.84 42.14c10.99 3.83 26.44 7.93 42.6 8.09.96.01 1.92-.17 2.75-.59 1.65-.84 2.79-2.63-5.13-5.85M91.378 32.62s-13.17-2.19-19.63-1.73c0 0-5.96.44-.35 4.37.24.16.49.31.75.44 1.38.68 6.24 3.01 13.36 5.61" stroke="#30446D" stroke-width="1.5" stroke-linecap="round" stroke-linejoin="round"/>
    <path d="M115.42 42.36c-11.08 3.63-26.68 7.46-42.9 7.32-.96-.01-1.92-.21-2.74-.64-1.63-.87-2.73-2.68 5.27-5.75M125.85 38.55c-1.99.81-4.46 1.76-7.31 2.76M111.98 32.82s13.22-1.94 19.67-1.35c0 0 5.95.56.24 4.37" stroke="#30446D" stroke-width="1.5" stroke-linecap="round" stroke-linejoin="round"/>
    <path d="M59.594 139.8h5.088c1.216 0 2.288.235 3.216.704.938.459 1.664 1.109 2.176 1.952.522.843.784 1.824.784 2.944 0 1.12-.262 2.101-.784 2.944-.512.843-1.238 1.499-2.176 1.968-.928.459-2 .688-3.216.688h-5.088v-11.2zm4.96 9.072c1.12 0 2.01-.309 2.672-.928.672-.629 1.008-1.477 1.008-2.544s-.336-1.909-1.008-2.528c-.662-.629-1.552-.944-2.672-.944h-2.368v6.944h2.368zm9.332-6.48h2.496V151h-2.496v-8.608zm1.248-1.2c-.458 0-.832-.133-1.12-.4a1.297 1.297 0 0 1-.432-.992c0-.395.144-.725.432-.992.288-.267.662-.4 1.12-.4.459 0 .832.128 1.12.384.288.256.432.576.432.96 0 .416-.144.763-.432 1.04-.288.267-.661.4-1.12.4zm11.903 7.888V151h-7.68v-1.504l4.384-5.184h-4.272v-1.92h7.424v1.504l-4.384 5.184h4.528zm9.937 0V151h-7.68v-1.504l4.384-5.184h-4.272v-1.92h7.424v1.504l-4.384 5.184h4.528zm2.85-6.688h2.496V151h-2.496v-8.608zm1.248-1.2c-.459 0-.832-.133-1.12-.4a1.297 1.297 0 0 1-.432-.992c0-.395.144-.725.432-.992.288-.267.661-.4 1.12-.4.459 0 .832.128 1.12.384.288.256.432.576.432.96 0 .416-.144.763-.432 1.04-.288.267-.661.4-1.12.4zm10.046 1.072c1.067 0 1.926.32 2.576.96.662.64.992 1.589.992 2.848V151h-2.496v-4.544c0-.683-.149-1.189-.448-1.52-.298-.341-.73-.512-1.296-.512-.629 0-1.13.197-1.504.592-.373.384-.56.96-.56 1.728V151h-2.496v-8.608h2.384v1.008c.331-.363.742-.64 1.232-.832a4.19 4.19 0 0 1 1.616-.304zm15.607 4.464c0 .032-.016.256-.048.672h-6.512c.117.533.394.955.832 1.264.437.309.981.464 1.632.464.448 0 .842-.064 1.184-.192.352-.139.677-.352.976-.64l1.328 1.44c-.811.928-1.995 1.392-3.552 1.392-.971 0-1.83-.187-2.576-.56-.747-.384-1.323-.912-1.728-1.584-.406-.672-.608-1.435-.608-2.288 0-.843.197-1.6.592-2.272a4.19 4.19 0 0 1 1.648-1.584c.704-.384 1.488-.576 2.352-.576.842 0 1.605.181 2.288.544a3.909 3.909 0 0 1 1.6 1.568c.394.672.592 1.456.592 2.352zm-4.464-2.576c-.566 0-1.04.16-1.424.48-.384.32-.619.757-.704 1.312h4.24c-.086-.544-.32-.976-.704-1.296-.384-.331-.854-.496-1.408-.496zm10.271 6.976a8.599 8.599 0 0 1-2.096-.256c-.682-.181-1.226-.405-1.632-.672l.832-1.792c.384.245.848.448 1.392.608a6.046 6.046 0 0 0 1.6.224c1.056 0 1.584-.261 1.584-.784 0-.245-.144-.421-.432-.528-.288-.107-.73-.197-1.328-.272a12.822 12.822 0 0 1-1.744-.368 2.772 2.772 0 0 1-1.2-.736c-.33-.352-.496-.853-.496-1.504 0-.544.155-1.024.464-1.44.32-.427.779-.757 1.376-.992.608-.235 1.323-.352 2.144-.352a7.95 7.95 0 0 1 1.808.208c.608.128 1.11.309 1.504.544l-.832 1.776a4.963 4.963 0 0 0-2.48-.64c-.533 0-.933.075-1.2.224-.266.149-.4.341-.4.576 0 .267.144.453.432.56.288.107.747.208 1.376.304.704.117 1.28.245 1.728.384.448.128.838.368 1.168.72.331.352.496.843.496 1.472 0 .533-.16 1.008-.48 1.424-.32.416-.789.741-1.408.976-.608.224-1.333.336-2.176.336zm9.75 0a8.599 8.599 0 0 1-2.096-.256c-.682-.181-1.226-.405-1.632-.672l.832-1.792c.384.245.848.448 1.392.608a6.046 6.046 0 0 0 1.6.224c1.056 0 1.584-.261 1.584-.784 0-.245-.144-.421-.432-.528-.288-.107-.73-.197-1.328-.272a12.822 12.822 0 0 1-1.744-.368 2.772 2.772 0 0 1-1.2-.736c-.33-.352-.496-.853-.496-1.504 0-.544.155-1.024.464-1.44.32-.427.779-.757 1.376-.992.608-.235 1.323-.352 2.144-.352a7.95 7.95 0 0 1 1.808.208c.608.128 1.11.309 1.504.544l-.832 1.776a4.963 4.963 0 0 0-2.48-.64c-.533 0-.933.075-1.2.224-.266.149-.4.341-.4.576 0 .267.144.453.432.56.288.107.747.208 1.376.304.704.117 1.28.245 1.728.384.448.128.838.368 1.168.72.331.352.496.843.496 1.472 0 .533-.16 1.008-.48 1.424-.32.416-.789.741-1.408.976-.608.224-1.333.336-2.176.336z" fill="#005D8D"/>
</svg>
