<svg width="204" height="185" fill="none" xmlns="http://www.w3.org/2000/svg">
    <rect width="204" height="185" rx="16" fill="#fff"/>
    <path d="M139 30H64v75h75V30z" fill="#fff"/>
    <path d="m73.55 52.51 4.73 8.4 1.58-2.38 5.24 4.29-5.48-9.71-1.3 3.48-4.77-4.08zM64.879 69.03l11.47 2.78-.82-3.41 8.22-1.11-13.27-3.2 2.03 4.08-7.63.86zM72.07 82.51l9.64-.27-1.37-2.51 6.24-2.63-11.14.31 2.47 2.78-5.84 2.32z" fill="#42BA85"/>
    <path d="M89.829 92.37c0 3.22 1.1 5.61 2.57 7.36 3.92 4.69 11.1 5.14 15.75 1.18 2.79-2.38 3.89-5.16 3.89-5.16 2.41-8.21 11.1-15.21 11.1-15.21 18.1-16.9 11.83-33.79 11.83-33.79-3.38-14-17.38-14.96-17.38-14.96-21.72-2.41-24.86 14.96-24.86 14.96l.3 34.21s-.09 6.06-1.54 7.78c0 .01-1.69 2.72-1.66 3.63z" fill="#BDE3F8"/>
    <path d="M92.728 46.75s3.14-17.38 24.861-14.96c0 0 14 .97 17.38 14.96 0 0 5.76 15.52-9.69 31.68-.93.97-1.921 1.89-2.931 2.78-2.08 1.84-7.73 7.24-9.98 13.51-.38 1.07-.83 2.12-1.46 3.07-.62.93-1.53 2.06-2.76 3.11-4.57 3.89-11.9 3.42-15.75-1.18-1.47-1.75-2.57-4.14-2.57-7.36" stroke="#30446D" stroke-width="1.637" stroke-linecap="round" stroke-linejoin="round"/>
    <path d="M95.379 78.85s-.57 10.04 6.19 6.9c0 0 2.75-.92 3.79-4.75.21-.78.46-1.56.89-2.25.95-1.5 2.98-3.66 7.07-4.48 1.48-.29 2.85-.96 3.92-2.02 2.42-2.4 5.69-7.21 3.14-14.31-.38-1.05-1-1.99-1.8-2.76-3.24-3.16-12.26-7.07-17.42.62" stroke="#30446D" stroke-width="1.637" stroke-linecap="round" stroke-linejoin="round"/>
    <path d="M101.897 63.64s-4.8-12.82 6.36-19.79c0 0 12.71-7.48 17.78 12.07" stroke="#30446D" stroke-width="1.637" stroke-linecap="round" stroke-linejoin="round"/>
    <path d="M73.023 148.92V151h-8.672v-11.2h8.464v2.08h-5.888v2.432h5.2v2.016h-5.2v2.592h6.096zm6.546-6.656c1.334 0 2.358.32 3.072.96.715.629 1.072 1.584 1.072 2.864V151h-2.336v-1.072c-.469.8-1.344 1.2-2.624 1.2-.661 0-1.237-.112-1.728-.336-.48-.224-.848-.533-1.104-.928a2.417 2.417 0 0 1-.384-1.344c0-.8.299-1.429.896-1.888.608-.459 1.542-.688 2.8-.688h1.984c0-.544-.165-.96-.496-1.248-.33-.299-.826-.448-1.488-.448-.458 0-.912.075-1.36.224-.437.139-.81.331-1.12.576l-.896-1.744c.47-.331 1.03-.587 1.68-.768a7.663 7.663 0 0 1 2.032-.272zm-.192 7.184a2.22 2.22 0 0 0 1.136-.288c.331-.203.566-.496.704-.88v-.88h-1.712c-1.024 0-1.536.336-1.536 1.008 0 .32.123.576.368.768.256.181.603.272 1.04.272zm10.23-5.92a2.78 2.78 0 0 1 1.2-.944c.511-.213 1.098-.32 1.76-.32v2.304a9.289 9.289 0 0 0-.56-.032c-.715 0-1.275.203-1.68.608-.406.395-.609.992-.609 1.792V151h-2.496v-8.608h2.384v1.136zm16.561-3.728c.992 0 1.851.165 2.576.496.736.331 1.302.8 1.696 1.408.395.608.592 1.328.592 2.16 0 .821-.197 1.541-.592 2.16-.394.608-.96 1.077-1.696 1.408-.725.32-1.584.48-2.576.48h-2.256V151h-2.592v-11.2h4.848zm-.144 6c.779 0 1.371-.165 1.776-.496.406-.341.608-.821.608-1.44 0-.629-.202-1.109-.608-1.44-.405-.341-.997-.512-1.776-.512h-2.112v3.888h2.112zm11.327-3.536c1.333 0 2.357.32 3.072.96.714.629 1.072 1.584 1.072 2.864V151h-2.336v-1.072c-.47.8-1.344 1.2-2.624 1.2-.662 0-1.238-.112-1.728-.336-.48-.224-.848-.533-1.104-.928a2.417 2.417 0 0 1-.384-1.344c0-.8.298-1.429.896-1.888.608-.459 1.541-.688 2.8-.688h1.984c0-.544-.166-.96-.496-1.248-.331-.299-.827-.448-1.488-.448-.459 0-.912.075-1.36.224a3.473 3.473 0 0 0-1.12.576l-.896-1.744c.469-.331 1.029-.587 1.68-.768a7.658 7.658 0 0 1 2.032-.272zm-.192 7.184c.426 0 .805-.096 1.136-.288.33-.203.565-.496.704-.88v-.88h-1.712c-1.024 0-1.536.336-1.536 1.008 0 .32.122.576.368.768.256.181.602.272 1.04.272zm7.845-7.056h2.496V151h-2.496v-8.608zm1.248-1.2c-.459 0-.832-.133-1.12-.4a1.297 1.297 0 0 1-.432-.992c0-.395.144-.725.432-.992.288-.267.661-.4 1.12-.4.458 0 .832.128 1.12.384.288.256.432.576.432.96 0 .416-.144.763-.432 1.04-.288.267-.662.4-1.12.4zm10.046 1.072c1.067 0 1.925.32 2.576.96.661.64.992 1.589.992 2.848V151h-2.496v-4.544c0-.683-.149-1.189-.448-1.52-.299-.341-.731-.512-1.296-.512-.629 0-1.131.197-1.504.592-.373.384-.56.96-.56 1.728V151h-2.496v-8.608h2.384v1.008c.331-.363.741-.64 1.232-.832a4.187 4.187 0 0 1 1.616-.304z" fill="#005D8D"/>
</svg>
