<svg width="75" height="77" fill="none" xmlns="http://www.w3.org/2000/svg">
    <path d="M75 1H0v75h75V1z" fill="#fff"/>
    <path d="M32.68 37.56h9.44s-.67-3.88 2.67-5.88c0 0-1.98-5.64 3.14-7.08 0 0 1.48-4.18 1.58-5.56 0 0 .9-3.46 3.26-.98 0 0 1.5 2.69 1.25 6.72 0 0 3.38 1.01 2.78 5.91 0 0 6.6 2.62 2.33 10.01 0 0 3.53 7.86-5.37 9.07 0 0-3.06 7.63-9.78 2.88 0 0-3.11-3.72-6.12-3.3 0 0-3.55-.6-6.5 3.04 0 0-4.2 4.04-8.01.55 0 0-1.76-1.44-1.92-3.47 0 0-8.29.45-5.53-8.76 0 0-4.34-6.25 2.33-10.01 0 0-.9-4.71 2.75-6.18 0 0-.29-4.97 1.28-6.45 0 0 2.05-2.42 2.88.18l1.95 6.36s4.57 1.14 3.14 7.08c-.02-.01 3.45 2.12 2.45 5.87z" fill="#8ADAFF"/>
    <path d="M21.66 13.1s1.41-10.66 5.49-11.51c.22-.05.46.03.61.2.23.25.45.74.21 1.64 0 0-1.34 2.49-1.68 3.9 0 0-1.14 2.96.13 3.29 0 0 .67.13 1.65-.87 0 0 1.85-2.28 4.06-1.48 0 0 1.75.67 2.15 2.89 0 0 .71 3.29 3.21 3.29 0 0 1.76.27 2.97-1.81l.81-2.22c.19-.53.46-1.03.82-1.47.39-.47.92-.94 1.53-.94 0 0 1.41-.27 2.42.93l1.21 1.41s1 1.12 2.09.66c.09-.04.18-.1.24-.18.2-.25.55-.9.15-2.16 0 0-1.21-3.83-2.22-4.9 0 0-.45-1.09-.21-1.81.1-.29.4-.47.7-.41.42.09 1.12.47 1.91 1.82 0 0 3.31 4.9 2.84 9.67M18.2 28.32c-.11.67-.12 1.45.01 2.38M30.66 40.7s5.28-4.63-.45-9.02c0 0 1.79-5.28-3.14-7.08 0 0-1.25-3.94-1.43-5.11 0 0-.99-3.94-3.4-1.43 0 0-1.7 2.51-1.25 6.72 0 0-1.31.37-2.16 1.78M15.88 40.7s-.23.49-.44 1.25c-.08.28-.15.61-.21.95-.06.34-.1.72-.11 1.11-.06 2.32.99 5.11 6.14 5.77M14.95 33.61c-.96 1.79-1.72 4.64.98 7.1" stroke="#30446D" stroke-width="1.215" stroke-linecap="round" stroke-linejoin="round"/>
    <path d="M24.12 44.58s-2.18.73-2.63 3.35c-.72 4.23 3.72 7.68 7.65 5.95.17-.08.35-.16.53-.25 0 0 1.34-.78 2.38-1.94.76-.86 1.69-1.56 2.78-1.91.71-.22 1.59-.4 2.66-.45M21.41 37.77s3.6-1.39 5.04 2.93M44.34 40.7s-5.28-4.63.45-9.02c0 0-1.79-5.28 3.14-7.08 0 0 1.25-3.94 1.43-5.11 0 0 .99-3.94 3.4-1.43 0 0 1.7 2.51 1.25 6.72 0 0 3.49.99 2.78 5.91" stroke="#30446D" stroke-width="1.215" stroke-linecap="round" stroke-linejoin="round"/>
    <path d="M51.95 31.59s6.18-2.62 8.42 2.78c0 0 1.34 2.91-1.25 6.33 0 0 3.76 7.91-5.37 9.07M50.19 53.88c-1.32.58-2.86.65-4.34 0-.17-.08-.35-.16-.53-.25 0 0-1.34-.78-2.38-1.94-.76-.86-1.69-1.56-2.78-1.91-.71-.22-1.59-.4-2.66-.45" stroke="#30446D" stroke-width="1.215" stroke-linecap="round" stroke-linejoin="round"/>
    <path d="M53.58 37.77s-3.6-1.39-5.04 2.93M30.51 28.97s1.77-.51 3.2-1.41c0 0 3.56-2.24 7.17 0 0 0 1.69.93 3.62 1.41M31.34 32.7s3.74 1.37 12.24.06M28.39 54.15v14.17s.21 6.27 6.66 7.17h4.3s6.99.09 7.35-7.17v-8.93" stroke="#30446D" stroke-width="1.215" stroke-linecap="round" stroke-linejoin="round"/>
    <path d="M29.15 53.88s7.17 3.48 16.7 0M29.15 61.42s7.17 3.48 16.7 0M29.15 68.54s7.17 3.48 16.7 0M32.88 37.56h9.24" stroke="#30446D" stroke-width="1.215" stroke-linecap="round" stroke-linejoin="round"/>
</svg>
