<svg width="75" height="77" fill="none" xmlns="http://www.w3.org/2000/svg">
    <path d="M75 1H0v75h75V1z" fill="#fff"/>
    <path d="M28.679 75.35v-7.24c0-1.3-1.06-2.36-2.36-2.36h-6.16c-7.11-.12-8.5-5.91-8.72-7.16-.02-.12-.03-.24-.03-.36v-7.99c0-.65-.27-1.24-.69-1.66a2.35 2.35 0 0 0-1.67-.69c-1.29-.16-1.88-.95-2.14-1.62-.21-.52-.19-1.09.01-1.6l4.29-11.1c.15-.39.19-.45.25-.87.01-.09.05-.26.05-.35.03-.79-.1-1.59-.1-2.4 0-15.68 12.71-28.4 28.4-28.4 15.25 0 27.68 12.01 28.37 27.09v.04c.72 11.12-5.2 21.12-7.53 24.87-.35.57-1.03 1.4-1.44 1.92-1.12 1.42-1.01 4.83-.99 5.27v14.59" fill="#BDE3F8"/>
    <path d="M61.429 11.55a28.313 28.313 0 0 1 6.74 17.1v.04c.11 1.69.07 3.35-.09 4.97-.16 1.62-.44 3.19-.8 4.7-1.65 6.94-5.01 12.59-6.64 15.2-.35.57-1.03 1.4-1.44 1.92-1.12 1.42-1.01 4.83-.99 5.27M28.679 75.35v-7.24c0-1.3-1.06-2.36-2.36-2.36h-6.16c-7.11-.12-8.5-5.91-8.72-7.16-.02-.12-.03-.24-.03-.36v-7.99c0-.65-.27-1.24-.69-1.66a2.35 2.35 0 0 0-1.67-.69c-1.29-.16-1.88-.95-2.14-1.62-.21-.52-.19-1.09.01-1.6l4.29-11.1c.15-.39.19-.45.25-.87.01-.09.05-.26.05-.35.03-.79-.1-1.59-.1-2.4 0-15.68 12.71-28.4 28.4-28.4 4.76 0 9.25 1.17 13.2 3.25" stroke="#30446D" stroke-width="1.5" stroke-linecap="round" stroke-linejoin="round"/>
    <path opacity=".78" d="M46.6 37.92s.86-1.37.91-2.71c.05-1.34 1.86-2.85 3.06-2.88 0 0 3.91-.45 6.1 2.65 0 0 2.62 4.81-1.35 8.97 0 0-2.13 1.38-2.38 3.21 0 0-.63 2.15-2.67 2.31 0 0-2.84-.02-3.18-2.66l-.49-8.89z" fill="#42BA85"/>
    <path d="M50.57 32.33c-1.67.21-2.9 1.61-3.14 3.28-.21 1.39-.83 2.31-.83 2.31M47.09 46.82c.05.2.09.38.15.55.74 2.35 3.92 2.9 5.27.84.26-.4.38-.78.44-1.04.08-.38.19-.76.37-1.1.54-1.03 1.52-1.78 1.52-1.78 1.55-.97 1.92-1.8 2.34-3.04.41-1.2.54-2.48.38-3.73-.52-3.91-3.59-4.89-5.19-5.14" stroke="#30446D" stroke-width="1.5" stroke-linecap="round" stroke-linejoin="round"/>
    <path d="M50.31 39.17s-1.58-1.83-.83-3.5c.36-.79 1.14-1.33 2.01-1.37.95-.05 2.26.44 3.07 3.13" stroke="#30446D" stroke-width="1.5" stroke-linecap="round" stroke-linejoin="round"/>
    <path d="M51.51 37.21s.54 1.3 1.52 1.97c0 0 1.44 1.27.81 2.87-.06.15-.16.28-.28.39l-.01.01c-.38.35-.86.55-1.36.69-.32.09-.81.4-1.04 1.49 0 0-.2.68-.89 1.02-.85.42-1.87-.24-1.73-1.18 0-.01 0-.02.01-.03" stroke="#30446D" stroke-width="1.5" stroke-linecap="round" stroke-linejoin="round"/>
    <path opacity=".78" d="M41.15 75.35s-.26-25.74-26.8-20.1l-.08-3.11c2.43-1.24 13.02-2.77 21.79.1 0 0 .18-7.25-4.42-11.32s-11.28-4.77-20.68 4.51c0 0-.5-1.44-1.09-1.92 0 0 5.9-10.55 15.91-10.52 4.17.01 8.07 2.43 10.95 5.46 5.18 5.44 9.52 15.68 11.86 36.9h-7.44z" fill="#42BA85"/>
</svg>
