<svg width="204" height="185" fill="none" xmlns="http://www.w3.org/2000/svg">
    <rect width="204" height="185" rx="16" fill="#fff"/>
    <path d="M139 30H64v75h75V30z" fill="#fff"/>
    <path d="M102.762 82.12c8.234 0 14.91-7.687 14.91-17.17s-6.676-17.17-14.91-17.17c-8.235 0-14.91 7.688-14.91 17.17 0 9.483 6.675 17.17 14.91 17.17z" fill="#BDE3F8"/>
    <path d="M102.762 82.12c8.234 0 14.91-7.687 14.91-17.17s-6.676-17.17-14.91-17.17c-8.235 0-14.91 7.688-14.91 17.17 0 9.483 6.675 17.17 14.91 17.17zM99.032 84.99h-17.79v-8.95M104.562 84.99h-2.32" stroke="#30446D" stroke-width="1.5" stroke-linecap="round" stroke-linejoin="round"/>
    <path d="M77.801 56.65c-5.28 2.07-11.52 7.54-12.27 21.73v19.83s.88 7.49 9.91 5.29l29.3-7.49s7.05-1.76 12.34-.44c0 0 14.69 3.08 16.45-7.49 0 0-.29-4.11-4.99-3.08h-12.02M85.352 55.48s-1.7-.2-4.11.22M122.07 76.04v8.95M137.34 96.89s1.17 6.101-3.82 7.011h-42M120.16 55.43s16.3.64 17.18 18.85v17.1M106.801 31.1h7.69l-7.69 9.69h7.69M118.219 38.09h7.7l-7.7 9.69h7.7" stroke="#30446D" stroke-width="1.5" stroke-linecap="round" stroke-linejoin="round"/>
    <path d="M70.217 141.88v2.96H75.4v2.08h-5.184V151h-2.592v-11.2h8.464v2.08h-5.872zm11.938.384c1.334 0 2.358.32 3.072.96.715.629 1.072 1.584 1.072 2.864V151h-2.336v-1.072c-.47.8-1.344 1.2-2.624 1.2-.661 0-1.237-.112-1.728-.336-.48-.224-.848-.533-1.104-.928a2.417 2.417 0 0 1-.384-1.344c0-.8.299-1.429.896-1.888.608-.459 1.542-.688 2.8-.688h1.984c0-.544-.165-.96-.496-1.248-.33-.299-.826-.448-1.488-.448-.458 0-.912.075-1.36.224-.437.139-.81.331-1.12.576l-.896-1.744c.47-.331 1.03-.587 1.68-.768a7.663 7.663 0 0 1 2.032-.272zm-.192 7.184a2.22 2.22 0 0 0 1.136-.288 1.66 1.66 0 0 0 .704-.88v-.88h-1.712c-1.024 0-1.536.336-1.536 1.008 0 .32.123.576.368.768.256.181.603.272 1.04.272zm13.397 1.136c-.245.181-.55.32-.912.416a4.759 4.759 0 0 1-1.12.128c-1.024 0-1.818-.261-2.384-.784-.554-.523-.832-1.291-.832-2.304v-3.536h-1.328v-1.92h1.328v-2.096h2.496v2.096h2.144v1.92h-2.144v3.504c0 .363.09.645.272.848.192.192.459.288.8.288.395 0 .73-.107 1.008-.32l.672 1.76zm2.651-8.192h2.496V151h-2.496v-8.608zm1.248-1.2c-.458 0-.832-.133-1.12-.4a1.297 1.297 0 0 1-.432-.992c0-.395.144-.725.432-.992.288-.267.662-.4 1.12-.4.459 0 .832.128 1.12.384.288.256.432.576.432.96 0 .416-.144.763-.432 1.04-.288.267-.661.4-1.12.4zm13.695 1.2v7.168c0 1.579-.411 2.752-1.232 3.52-.821.768-2.021 1.152-3.6 1.152a8.992 8.992 0 0 1-2.368-.304c-.747-.203-1.365-.496-1.856-.88l.992-1.792c.363.299.821.533 1.376.704a5.338 5.338 0 0 0 1.664.272c.864 0 1.499-.197 1.904-.592.416-.384.624-.971.624-1.76v-.368c-.651.715-1.557 1.072-2.72 1.072a4.678 4.678 0 0 1-2.176-.512 4.036 4.036 0 0 1-1.552-1.472c-.384-.629-.576-1.355-.576-2.176 0-.821.192-1.547.576-2.176a3.917 3.917 0 0 1 1.552-1.456 4.558 4.558 0 0 1 2.176-.528c1.248 0 2.197.411 2.848 1.232v-1.104h2.368zm-4.72 6.144c.661 0 1.2-.192 1.616-.576.427-.395.64-.907.64-1.536s-.213-1.136-.64-1.52c-.416-.395-.955-.592-1.616-.592-.661 0-1.205.197-1.632.592-.427.384-.64.891-.64 1.52s.213 1.141.64 1.536c.427.384.971.576 1.632.576zm16.965-6.144V151h-2.368v-1.024a3.405 3.405 0 0 1-1.184.864 3.817 3.817 0 0 1-1.488.288c-1.131 0-2.027-.325-2.688-.976s-.992-1.616-.992-2.896v-4.864h2.496v4.496c0 1.387.581 2.08 1.744 2.08.597 0 1.077-.192 1.44-.576.363-.395.544-.976.544-1.744v-4.256h2.496zm11.994 4.336c0 .032-.016.256-.048.672h-6.512c.118.533.395.955.832 1.264.438.309.982.464 1.632.464a3.36 3.36 0 0 0 1.184-.192c.352-.139.678-.352.976-.64l1.328 1.44c-.81.928-1.994 1.392-3.552 1.392-.97 0-1.829-.187-2.576-.56-.746-.384-1.322-.912-1.728-1.584-.405-.672-.608-1.435-.608-2.288 0-.843.198-1.6.592-2.272a4.203 4.203 0 0 1 1.648-1.584c.704-.384 1.488-.576 2.352-.576.843 0 1.606.181 2.288.544a3.903 3.903 0 0 1 1.6 1.568c.395.672.592 1.456.592 2.352zm-4.464-2.576c-.565 0-1.04.16-1.424.48-.384.32-.618.757-.704 1.312h4.24c-.085-.544-.32-.976-.704-1.296-.384-.331-.853-.496-1.408-.496z" fill="#005D8D"/>
</svg>
