<svg width="204" height="185" fill="none" xmlns="http://www.w3.org/2000/svg">
    <rect width="204" height="185" rx="16" fill="#fff"/>
    <path d="M139 30H64v75h75V30z" fill="#fff"/>
    <path d="M100.248 54.57c1.04.35 2.12.64 3.26.85.37.07.58.45.44.79-.65 1.6-1.87 5.9 1.32 10.61.25.37.11.88-.3 1.07-1.92.88-6.58 3.51-6.87 8.33-.03.48-.46.84-.93.75-1.91-.36-6.33-.72-8.85 2.92-.27.39-.8.51-1.2.24-1.89-1.3-7.3-4.24-13.63-.79 0 0-8.3 4-8.41 12.51v9.941M81.598 35.26s3.08 8.98 10.87 15.09" stroke="#30446D" stroke-width="1.5" stroke-linecap="round" stroke-linejoin="round"/>
    <path d="M93.87 91.92c-1.11-.58-2.19-1.25-3.16-2.04-.51-.41-1.19-.54-1.81-.36-1.77.51-5.53 1.28-8.63-.23 0 0-6.31-3.4-7.94 4.32-.19.9-.26 1.83-.26 2.75v5.441M134.348 47.47c1.57 2.79 3.01 6.53 3.57 11.31 1.29 10.92-2.57 21.92-10.8 29.2-4.89 4.32-11.84 7.85-21.33 7.26 0 0-2.8-.2-6.28-1.16M91.538 33.1s2.57 7.91 9.64 10.14c.7.22 1.47.01 1.99-.52 2.08-2.15 8.3-7.58 16.71-6.05 1.4.25 2.87.7 4.38 1.39 1.52.69 3.08 1.62 4.7 2.83" stroke="#30446D" stroke-width="1.5" stroke-linecap="round" stroke-linejoin="round"/>
    <path d="m93.02 60.85 3.61 3.16.35-1.38 3.16 1.14-4.17-3.64-.04 1.85-2.91-1.13zM91.68 70.04l5.84-.6-.94-1.46 3.67-1.88-6.75.69 1.62 1.58-3.44 1.67z" fill="#42BA85"/>
    <path d="M133.118 65.74c0-2.34-2.15-4.23-4.8-4.23-.9 0-1.74.23-2.46.61-.85-1.2-2.34-2-4.06-2-2.46 0-4.47 1.64-4.74 3.75-.66-.23-1.37-.37-2.12-.37-3.18 0-5.75 2.27-5.75 5.07 0 .96.32 1.85.85 2.61-.14.16-.25.35-.33.55a3.88 3.88 0 0 0-1.17-.58c-1.85-.54-3.74.34-4.22 1.97-.26.9-.03 1.83.53 2.58-.82.88-1.33 1.98-1.33 3.21 0 .96.32 1.85.85 2.61-.14.16-.25.35-.33.55a3.88 3.88 0 0 0-1.17-.58c-1.85-.54-3.74.34-4.22 1.97-.48 1.63.63 3.39 2.48 3.94.96.28 1.93.17 2.7-.22.23 1.18 1.18 2.23 2.54 2.63 1.85.54 3.74-.34 4.22-1.97.02-.06.02-.12.03-.18 1.15-.05 2.15-.72 2.46-1.77.28-.96-.11-1.97-.9-2.64.47-.24.9-.53 1.27-.88.9 1.75 2.9 2.98 5.23 2.98 3.18 0 5.75-2.27 5.75-5.07 0-.1-.03-.2-.03-.3 1.79-.61 3.06-2.14 3.06-3.93 0-.59-.14-1.16-.39-1.67 1.81-.85 3.05-2.52 3.05-4.45 0-.1-.03-.2-.03-.3 1.76-.57 3.03-2.1 3.03-3.89z" fill="#BDE3F8"/>
    <path d="M138.3 91.08c0 6.62-5.36 11.98-11.98 11.98s-11.98-5.36-11.98-11.98c0-3.04 1.14-5.82 3-7.93a2.997 2.997 0 0 0 5.99-.16c0-3.2-1.3-4.64-.6-8.03.71-3.42 4.79-4.85 4.79-4.85 0 9.64 10.78 10.29 10.78 20.97z" fill="#42BA85"/>
    <path d="M124.47 102.92c-3.32-.52-6.19-2.39-8.02-5.05M117.34 83.15a2.997 2.997 0 0 0 5.99-.16c0-3.2-1.3-4.64-.6-8.03.71-3.41 4.79-4.85 4.79-4.85 0 1.2.17 2.27.46 3.23" stroke="#30446D" stroke-width="1.5" stroke-linecap="round" stroke-linejoin="round"/>
    <path d="M71.107 145.224h2.368v4.544a6.751 6.751 0 0 1-2.112 1.056 8.21 8.21 0 0 1-2.416.368c-1.163 0-2.208-.245-3.136-.736a5.668 5.668 0 0 1-2.192-2.064c-.523-.885-.784-1.883-.784-2.992s.261-2.101.784-2.976a5.5 5.5 0 0 1 2.208-2.064c.939-.501 1.995-.752 3.168-.752.981 0 1.872.165 2.672.496.8.331 1.472.811 2.016 1.44l-1.664 1.536c-.8-.843-1.765-1.264-2.896-1.264-.715 0-1.35.149-1.904.448-.555.299-.987.72-1.296 1.264-.31.544-.464 1.168-.464 1.872 0 .693.155 1.312.464 1.856.31.544.736.971 1.28 1.28.555.299 1.184.448 1.888.448.747 0 1.419-.16 2.016-.48v-3.28zm9.322-2.96c1.333 0 2.357.32 3.072.96.714.629 1.072 1.584 1.072 2.864V151h-2.336v-1.072c-.47.8-1.344 1.2-2.624 1.2-.662 0-1.238-.112-1.728-.336-.48-.224-.848-.533-1.104-.928a2.417 2.417 0 0 1-.384-1.344c0-.8.298-1.429.896-1.888.608-.459 1.541-.688 2.8-.688h1.984c0-.544-.166-.96-.496-1.248-.331-.299-.827-.448-1.488-.448-.459 0-.912.075-1.36.224-.438.139-.811.331-1.12.576l-.896-1.744c.469-.331 1.029-.587 1.68-.768a7.663 7.663 0 0 1 2.032-.272zm-.192 7.184a2.22 2.22 0 0 0 1.136-.288c.33-.203.565-.496.704-.88v-.88h-1.712c-1.024 0-1.536.336-1.536 1.008 0 .32.122.576.368.768.256.181.602.272 1.04.272zm10.74 1.68a8.593 8.593 0 0 1-2.095-.256c-.683-.181-1.227-.405-1.632-.672l.832-1.792c.384.245.848.448 1.392.608a6.042 6.042 0 0 0 1.6.224c1.056 0 1.584-.261 1.584-.784 0-.245-.144-.421-.432-.528-.288-.107-.731-.197-1.328-.272a12.812 12.812 0 0 1-1.744-.368 2.764 2.764 0 0 1-1.2-.736c-.331-.352-.496-.853-.496-1.504 0-.544.154-1.024.464-1.44.32-.427.778-.757 1.376-.992.608-.235 1.322-.352 2.144-.352.608 0 1.21.069 1.808.208.608.128 1.109.309 1.504.544l-.832 1.776a4.963 4.963 0 0 0-2.48-.64c-.534 0-.934.075-1.2.224-.267.149-.4.341-.4.576 0 .267.144.453.432.56.288.107.746.208 1.376.304.704.117 1.28.245 1.728.384.448.128.837.368 1.168.72.33.352.496.843.496 1.472 0 .533-.16 1.008-.48 1.424-.32.416-.79.741-1.408.976-.608.224-1.334.336-2.176.336zm12.407-.544c-.246.181-.55.32-.912.416a4.762 4.762 0 0 1-1.12.128c-1.024 0-1.819-.261-2.384-.784-.555-.523-.832-1.291-.832-2.304v-3.536h-1.328v-1.92h1.328v-2.096h2.496v2.096h2.144v1.92h-2.144v3.504c0 .363.09.645.272.848.192.192.458.288.8.288.394 0 .73-.107 1.008-.32l.672 1.76zm5.035-7.056a2.773 2.773 0 0 1 1.2-.944c.512-.213 1.098-.32 1.76-.32v2.304a9.32 9.32 0 0 0-.56-.032c-.715 0-1.275.203-1.68.608-.406.395-.608.992-.608 1.792V151h-2.496v-8.608h2.384v1.136zm5.694-1.136h2.496V151h-2.496v-8.608zm1.248-1.2c-.459 0-.832-.133-1.12-.4a1.297 1.297 0 0 1-.432-.992c0-.395.144-.725.432-.992.288-.267.661-.4 1.12-.4.459 0 .832.128 1.12.384.288.256.432.576.432.96 0 .416-.144.763-.432 1.04-.288.267-.661.4-1.12.4zm10.366 9.392c-.245.181-.549.32-.912.416a4.756 4.756 0 0 1-1.12.128c-1.024 0-1.818-.261-2.384-.784-.554-.523-.832-1.291-.832-2.304v-3.536h-1.328v-1.92h1.328v-2.096h2.496v2.096h2.144v1.92h-2.144v3.504c0 .363.091.645.272.848.192.192.459.288.8.288.395 0 .731-.107 1.008-.32l.672 1.76zm2.652-8.192h2.496V151h-2.496v-8.608zm1.248-1.2c-.459 0-.832-.133-1.12-.4a1.297 1.297 0 0 1-.432-.992c0-.395.144-.725.432-.992.288-.267.661-.4 1.12-.4.458 0 .832.128 1.12.384.288.256.432.576.432.96 0 .416-.144.763-.432 1.04-.288.267-.662.4-1.12.4zm7.71 9.936a8.593 8.593 0 0 1-2.096-.256c-.683-.181-1.227-.405-1.632-.672l.832-1.792c.384.245.848.448 1.392.608a6.04 6.04 0 0 0 1.6.224c1.056 0 1.584-.261 1.584-.784 0-.245-.144-.421-.432-.528-.288-.107-.731-.197-1.328-.272a12.822 12.822 0 0 1-1.744-.368 2.761 2.761 0 0 1-1.2-.736c-.331-.352-.496-.853-.496-1.504 0-.544.155-1.024.464-1.44.32-.427.779-.757 1.376-.992.608-.235 1.323-.352 2.144-.352a7.95 7.95 0 0 1 1.808.208c.608.128 1.109.309 1.504.544l-.832 1.776a4.963 4.963 0 0 0-2.48-.64c-.533 0-.933.075-1.2.224-.267.149-.4.341-.4.576 0 .267.144.453.432.56.288.107.747.208 1.376.304.704.117 1.28.245 1.728.384.448.128.837.368 1.168.72.331.352.496.843.496 1.472 0 .533-.16 1.008-.48 1.424-.32.416-.789.741-1.408.976-.608.224-1.333.336-2.176.336z" fill="#005D8D"/>
</svg>
