<svg width="76" height="76" fill="none" xmlns="http://www.w3.org/2000/svg">
    <path d="M75.621 1h-75v75h75V1z" fill="#fff"/>
    <path d="M20.411 17.66c-1.18-2.68-2.31-6.75-3.41-13.09 1.72-3.39 4.42-3.7 7.66-1.45 0 0 2.49 18.88 9.38 12.19 3.18-3.08 8.57-8.55 17.21-3.44 6.93 3.96 13.76 11.38 8.83 30.52-2.48 9.95-13.84 27.11-38.19 15.2-3.75-1.82-12.75-4.61-9.83 14.1-1.65 3.51-4.12 4.37-7.55 1.38 0 0-4.97-23.15 7.89-23.83 6.68-.37 22.32 3.6 21.95-12.47-.14-3.33.63-10.27-7.9-13.33" stroke="#30446D" stroke-width="1.5" stroke-linecap="round" stroke-linejoin="round"/>
    <path d="M57.601 52.24c7.34 0 13.29-5.95 13.29-13.29 0-7.34-5.95-13.29-13.29-13.29-7.34 0-13.29 5.95-13.29 13.29 0 7.34 5.95 13.29 13.29 13.29z" fill="#BDE3F8"/>
    <path d="m58.401 50.95-.01 3.88 2.12.01.01-3.86" fill="#fff"/>
    <path fill-rule="evenodd" clip-rule="evenodd" d="M50.141 47.1c-5.11-5.16-5.06-13.48.1-18.58 5.16-5.11 13.48-5.06 18.58.1 5.11 5.16 5.06 13.48-.1 18.58-5.15 5.1-13.48 5.06-18.58-.1z" fill="#fff"/>
    <path d="m60.511 52.77.01-1.8-2.12-.02-.01 1.81c.71.07 1.42.07 2.12.01z" fill="#BCEBFF"/>
    <path d="M56.691 56.52c0-.94.76-1.69 1.7-1.69l2.12.01c.94 0 1.69.76 1.69 1.7l-.04 12.51c0 1.52-1.24 2.75-2.76 2.75-1.52 0-2.75-1.24-2.75-2.76l.04-12.52z" fill="#42BA85"/>
    <path d="M56.651 69.02c0 1.52 1.23 2.76 2.75 2.76s2.76-1.23 2.76-2.75l.04-12.51c0-.94-.75-1.7-1.69-1.7l-2.12-.01c-.94 0-1.7.75-1.7 1.69l-.02 6.69" stroke="#30446D" stroke-width="1.736" stroke-linecap="round" stroke-linejoin="round"/>
    <path d="m58.401 50.95-.01 3.88 2.12.01.01-3.86" stroke="#30446D" stroke-width="1.736" stroke-linecap="round" stroke-linejoin="round"/>
    <path d="M65.481 49.55c-4.97 2.55-11.21 1.73-15.35-2.45-5.11-5.16-5.06-13.48.1-18.58 5.16-5.11 13.48-5.06 18.58.1 5.11 5.16 5.06 13.48-.1 18.58" stroke="#30446D" stroke-width="1.736" stroke-linecap="round" stroke-linejoin="round"/>
    <path d="M56.781 27.63a10.6 10.6 0 0 1 10.24 2.77c4.13 4.15 4.11 10.86-.05 14.99-3.23 3.21-8 3.91-11.9 2.11" stroke="#30446D" stroke-width="1.736" stroke-linecap="round" stroke-linejoin="round"/>
    <path fill-rule="evenodd" clip-rule="evenodd" d="M49.611 52.7c-4.84 4.71-12.11 7.51-24.76 1.19-.4.37 13.5-3.4 12.8-14.65 0 0 1.08 1.1 4.57 2.13-.17-.18 1 8.04 7.39 11.33z" fill="#8ADAFF"/>
    <path clip-rule="evenodd" d="M49.611 52.7c-4.84 4.71-12.11 7.51-24.76 1.19-.4.37 13.5-3.4 12.8-14.65 0 0 1.08 1.1 4.57 2.13-.17-.18 1 8.04 7.39 11.33z" stroke="#30446D" stroke-width="1.5" stroke-linecap="round" stroke-linejoin="round"/>
</svg>
