<svg width="76" height="75" fill="none" xmlns="http://www.w3.org/2000/svg">
    <path d="M75.07 0h-75v75h75V0z" fill="#fff"/>
    <path d="M41.26 64.29 20.37 46.76a3.68 3.68 0 0 1-.45-5.19L46.93 9.38a3.68 3.68 0 0 1 5.19-.45l20.89 17.53a3.68 3.68 0 0 1 .45 5.19L46.45 63.84a3.688 3.688 0 0 1-5.19.45z" fill="#fff"/>
    <path d="M42.46 23.9c1.18-.52 1.85-1.09 1.85-1.69v-9.7L19.92 41.57a3.68 3.68 0 0 0 .45 5.19l20.89 17.53c.36.31.77.53 1.2.67V23.9z" fill="#BDE3F8"/>
    <path d="M61.81 34.84a4.79 4.79 0 0 0 4.79-4.79c0-2.64-2.15-4.79-4.79-4.79s-4.79 2.15-4.79 4.79 2.15 4.79 4.79 4.79zM41.04 36.66a4.79 4.79 0 0 0 0-9.58c-2.64 0-4.79 2.15-4.79 4.79a4.79 4.79 0 0 0 4.79 4.79zM49.26 45.02a4.789 4.789 0 0 1-.59-6.75 4.789 4.789 0 0 1 6.75-.59c2.03 1.7 2.29 4.72.59 6.75a4.771 4.771 0 0 1-3.67 1.71" stroke="#2F446D" stroke-width="1.5" stroke-linecap="round" stroke-linejoin="round"/>
    <path d="M31.57 47.95a4.79 4.79 0 0 0 4.79-4.79c0-2.64-2.15-4.79-4.79-4.79s-4.79 2.15-4.79 4.79a4.79 4.79 0 0 0 4.79 4.79z" stroke="#2F446D" stroke-width="1.474" stroke-linecap="round" stroke-linejoin="round"/>
    <path d="M42.86 57.43a4.79 4.79 0 0 0 4.79-4.79c0-2.64-2.15-4.79-4.79-4.79a4.79 4.79 0 0 0 0 9.58zM69.35 36.55 46.46 63.83" stroke="#2F446D" stroke-width="1.5" stroke-linecap="round" stroke-linejoin="round"/>
    <path d="m34.16 58.34-13.8-11.58a3.68 3.68 0 0 1-.45-5.19L46.92 9.38a3.68 3.68 0 0 1 5.19-.45L73 26.46a3.68 3.68 0 0 1 .45 5.19M46.46 63.83a3.68 3.68 0 0 1-5.19.45" stroke="#2F446D" stroke-width="1.5" stroke-linecap="round" stroke-linejoin="round"/>
    <path d="M50.52 25.37a4.79 4.79 0 0 0 0-9.58c-2.64 0-4.79 2.15-4.79 4.79a4.79 4.79 0 0 0 4.79 4.79z" stroke="#2F446D" stroke-width="1.5" stroke-linecap="round" stroke-linejoin="round"/>
    <path d="M21.08 3.41C9.88 3.41.81 5.22.81 7.46V22.2c0 .6.66 1.18 1.85 1.69V67.9c0 2.03 8.25 3.69 18.43 3.69s18.43-1.65 18.43-3.69V23.89c1.18-.52 1.85-1.09 1.85-1.69V7.46c-.01-2.24-9.09-4.05-20.29-4.05z" fill="#fff"/>
    <path d="M39.51 25.74c-3.21 1.39-10.25 2.36-18.43 2.36s-15.23-.97-18.43-2.36v-3.39h36.86v3.39zM21.08 32.89c-10.18 0-18.43-1.65-18.43-3.69v29.85c0 2.03 8.25 3.69 18.43 3.69.7 0 1.4-.01 2.08-.02V32.87c-.68.01-1.37.02-2.08.02z" fill="#BDE3F8"/>
    <path d="M17.4 44.61a73.05 73.05 0 0 1-6.27-.51v-6.27c-2.61-.34-4.77-.8-6.25-1.35v6.27c-1.42-.52-2.22-1.12-2.22-1.75v6.27c0 .63.81 1.23 2.22 1.75v6.27c1.49.55 3.65 1.01 6.25 1.35v-6.27c1.88.24 4 .42 6.27.51v-6.27z" fill="#42BA85"/>
    <path d="M21.08 3.41C9.88 3.41.81 5.22.81 7.46V22.2c0 2.24 9.07 4.05 20.27 4.05s20.27-1.81 20.27-4.05V7.46c.01-2.24-9.07-4.05-20.27-4.05z" fill="#BDE3F8"/>
    <path d="M39.51 59.31V23.9M2.66 23.9v44.01c0 2.03 8.25 3.69 18.43 3.69 8.9 0 16.33-1.26 18.05-2.94M37.04 4.96c2.7.69 4.31 1.56 4.31 2.5" stroke="#2F446D" stroke-width="1.5" stroke-linecap="round" stroke-linejoin="round"/>
    <path d="M41.36 7.46c0 2.24-9.07 4.05-20.27 4.05S.82 9.7.82 7.46c0-2.24 9.07-4.05 20.27-4.05" stroke="#2F446D" stroke-width="1.5" stroke-linecap="round" stroke-linejoin="round"/>
    <path d="M41.36 7.46V22.2c0 2.24-9.07 4.05-20.27 4.05S.82 24.44.82 22.2V7.46M9.45 32.06c3.17.52 7.22.83 11.64.83 1.3 0 2.56-.03 3.78-.08a3.68 3.68 0 0 1 3.83 3.68v22.47c0 1.96-1.54 3.59-3.5 3.68-1.32.06-2.69.09-4.11.09-10.18 0-18.43-1.65-18.43-3.69M23.17 32.87v23.4" stroke="#2F446D" stroke-width="1.5" stroke-linecap="round" stroke-linejoin="round"/>
    <path d="M11.13 56.64v-6.27c1.88.24 4 .42 6.27.51v-6.27a73.05 73.05 0 0 1-6.27-.51v-6.27c-2.61-.34-4.77-.8-6.25-1.35" stroke="#2F446D" stroke-width="1.5" stroke-linecap="round" stroke-linejoin="round"/>
    <path d="M57.87 61.29h-5.51c.39.08.71 1.7.71 3.68 0 1.98-.31 3.6-.71 3.68h5.51c2.03 0 3.68-1.65 3.68-3.68 0-2.03-1.65-3.68-3.68-3.68z" fill="#42BA85"/>
    <path d="M53.07 64.97c0-1.98-.31-3.6-.71-3.68h-4.83c-2.03 0-3.68 1.65-3.68 3.68 0 2.03 1.65 3.68 3.68 3.68h4.83c.4-.09.71-1.7.71-3.68z" fill="#BDE3F8"/>
    <path d="M57.87 68.64H47.54c-2.03 0-3.68-1.65-3.68-3.68 0-2.03 1.65-3.68 3.68-3.68h10.33c2.03 0 3.68 1.65 3.68 3.68 0 2.04-1.65 3.68-3.68 3.68z" stroke="#2F446D" stroke-width="1.5" stroke-linecap="round" stroke-linejoin="round"/>
    <path d="M52.33 61.28c.41 0 .74 1.65.74 3.69s-.33 3.69-.74 3.69" stroke="#2F446D" stroke-width="1.5" stroke-linecap="round" stroke-linejoin="round"/>
    <path d="M70.89 62.36 67 58.47c.22.34-.7 1.7-2.1 3.1-1.4 1.4-2.76 2.32-3.1 2.1l3.89 3.89a3.67 3.67 0 0 0 5.2 0 3.67 3.67 0 0 0 0-5.2z" fill="#42BA85"/>
    <path d="M64.9 61.57c1.4-1.4 2.32-2.76 2.1-3.1l-3.42-3.42a3.67 3.67 0 0 0-5.2 0 3.67 3.67 0 0 0 0 5.2l3.42 3.42c.33.22 1.69-.69 3.1-2.1z" fill="#BDE3F8"/>
    <path d="m65.69 67.57-7.31-7.31a3.67 3.67 0 0 1 0-5.2 3.67 3.67 0 0 1 5.2 0l7.31 7.31a3.67 3.67 0 0 1 0 5.2 3.688 3.688 0 0 1-5.2 0z" stroke="#2F446D" stroke-width="1.5" stroke-linecap="round" stroke-linejoin="round"/>
    <path d="M66.98 58.45c.29.29-.64 1.69-2.09 3.13-1.44 1.44-2.84 2.37-3.13 2.09" stroke="#2F446D" stroke-width="1.5" stroke-linecap="round" stroke-linejoin="round"/>
</svg>
