<svg width="75" height="75" fill="none" xmlns="http://www.w3.org/2000/svg">
    <path d="M75 0H0v75h75V0z" fill="#fff"/>
    <path d="M50.37 18.7c0 .24.03.49-.01.72-.21 1.27-1.4 4.96-1.4 4.96l-3.4 12.49c-.2.72.07 1.49.69 1.91 1.22.84 2.88 1.81 2.88 2.91 0 .24.02.48-.01.72-.97 5.76-6.59 22.44-6.59 22.44H32.48s-5.63-16.68-6.59-22.44c-.05-.24-.01-.48-.01-.72 0-1.09 1.64-2.06 2.87-2.89.62-.42.89-1.2.69-1.93l-3.49-12.44s-1.11-3.73-1.3-5.01c-.04-.23-.01-.48-.01-.72-.01-9.38 25.73-9.38 25.73 0z" fill="#BDE3F8"/>
    <path d="M37.5 41.18s-1.94-15.49-8.55-22.43c0 0 7.91 2.26 17.11 0 0 0-5.11 6.46-8.56 22.43z" fill="#42BA85"/>
    <path d="M31.93 12.28c1.92-.46 4.05-.66 6.16-.61 6.23.14 12.28 2.48 12.28 7.03 0 .24.03.49-.01.72-.21 1.27-1.4 4.96-1.4 4.96l-3.4 12.49c-.2.72.07 1.49.69 1.91 1.22.84 2.88 1.81 2.88 2.91 0 .24.02.48-.01.72-.97 5.76-6.59 22.44-6.59 22.44M32.48 64.85s-5.63-16.68-6.59-22.44c-.05-.24-.01-.48-.01-.72 0-1.09 1.64-2.06 2.87-2.89.62-.42.89-1.2.69-1.93l-3.49-12.44s-1.11-3.73-1.3-5.01c-.04-.23-.01-.48-.01-.72 0-1.76.91-3.19 2.38-4.29" stroke="#30446D" stroke-width="1.5" stroke-linecap="round" stroke-linejoin="round"/>
    <path d="M37.5 41.18s-1.94-15.49-8.55-22.43c0 0 7.91 2.26 17.11 0 0 0-2.25 2.85-4.77 9.43M50.38 18.71s.59 1.13 4.32-.7c2.36-1.15 4.41-2.82 6.23-4.71 1.27-1.31 3.47-2.92 6.74-3.15 3.16-.22 6.16 1.94 6.49 5.09.31 2.93-1.1 7.05-8.02 11.81M24.63 18.71s-.59 1.13-4.32-.7c-2.36-1.15-4.41-2.82-6.23-4.71-1.27-1.31-3.47-2.92-6.74-3.15-3.16-.22-6.16 1.94-6.49 5.09-.31 2.93 1.1 7.05 8.02 11.81" stroke="#30446D" stroke-width="1.5" stroke-linecap="round" stroke-linejoin="round"/>
    <path d="M11.51 25.26c1.25.94 2.92 3.79 1.98 5.04s-4.14.44-5.39-.5-1.03-2.37-.09-3.62c.94-1.25 2.25-1.86 3.5-.92zM63.49 25.26c-1.25.94-2.92 3.79-1.98 5.04s4.14.44 5.39-.5 1.03-2.37.09-3.62c-.94-1.25-2.24-1.86-3.5-.92z" fill="#BDE3F8"/>
    <path d="M11.51 25.26c1.25.94 2.92 3.79 1.98 5.04s-4.14.44-5.39-.5-1.03-2.37-.09-3.62c.94-1.25 2.25-1.86 3.5-.92zM63.49 25.26c-1.25.94-2.92 3.79-1.98 5.04s4.14.44 5.39-.5 1.03-2.37.09-3.62c-.94-1.25-2.24-1.86-3.5-.92z" stroke="#30446D" stroke-width="1.5" stroke-linecap="round" stroke-linejoin="round"/>
</svg>
