<svg width="204" height="185" fill="none" xmlns="http://www.w3.org/2000/svg">
    <rect width="204" height="185" rx="16" fill="#fff"/>
    <path d="M139 30H64v75h75V30z" fill="#fff"/>
    <path d="m83 31.1-6 6 6.13 6.13c.88.88 1.76 1.74 2.7 2.55 1.3 1.12 4.08 4.19 3.42 9.65-.23 1.92-.7 4.08 2.28 7.39 2.94 3.28 8.09 3.81 11.48 1 1.22-1.01 2.28-2.48 2.78-4.6.15-.62.67-1.09 1.3-1.21 1.58-.29 4.45-1.26 5.92-4.55 1.3-2.9.86-6.35-1.11-8.84-1.52-1.92-4.2-4.39-8.11-3.21-1.87.57-2.7 1.35-7.26-2.87l-7.1-6.25M103.45 96.82l.84 7.099 11.99-1.18-.84-15.04s-.13-4.67 2.8-7.49c1.37-1.31 2.49-2.9 2.81-4.77.35-2.07.05-4.73-2.41-7.36-.38-.41-1.05-.44-1.42-.02-1.12 1.29-3.98 3.42-9.42.88-.55-.26-1.19-.16-1.61.27-1.16 1.17-3.97 3.06-8.89.88-.6-.27-1.3-.01-1.63.55-.07.12-.14.25-.22.38-1.95 3.53-.99 7.9 2.07 10.54 1.73 1.49 4.04 4.19 4.75 8.34" fill="#BCEBFF"/>
    <path d="m83 31.1-6 6 6.13 6.13c.88.88 1.76 1.74 2.7 2.55 1.3 1.12 4.08 4.19 3.42 9.65-.23 1.92-.7 4.08 2.28 7.39 2.94 3.28 8.09 3.81 11.48 1 1.22-1.01 2.28-2.48 2.78-4.6.15-.62.67-1.09 1.3-1.21 1.58-.29 4.45-1.26 5.92-4.55 1.3-2.9.86-6.35-1.11-8.84-1.52-1.92-4.2-4.39-8.11-3.21-1.87.57-2.7 1.35-7.26-2.87l-7.1-6.25M103.45 96.82l.84 7.099 11.99-1.18-.84-15.04s-.13-4.67 2.8-7.49c1.37-1.31 2.49-2.9 2.81-4.77.35-2.07.05-4.73-2.41-7.36-.38-.41-1.05-.44-1.42-.02-1.12 1.29-3.98 3.42-9.42.88-.55-.26-1.19-.16-1.61.27-1.16 1.17-3.97 3.06-8.89.88-.6-.27-1.3-.01-1.63.55-.07.12-.14.25-.22.38-1.95 3.53-.99 7.9 2.07 10.54 1.73 1.49 4.04 4.19 4.75 8.34" stroke="#30446D" stroke-width="1.5" stroke-linecap="round" stroke-linejoin="round"/>
    <path d="m72.922 63.19 8.13 5.18.28-2.85 6.64 1.31-9.41-5.97.49 3.68-6.13-1.35zM73.07 81.849l11.42-2.96-2.33-2.62 6.72-4.85-13.2 3.44 3.71 2.63-6.32 4.36zM129.27 46.68l-4.17 8.69-1.74-2.28-4.95 4.62 4.84-10.04 1.53 3.39 4.49-4.38zM138.999 62.6l-11.27 3.52.59-3.46-8.26-.57 13.03-4.05-1.77 4.19 7.68.37z" fill="#42BA85"/>
    <path d="M58.4 151.192a5.22 5.22 0 0 1-2.096-.416 4.07 4.07 0 0 1-1.552-1.216l1.44-1.728c.608.821 1.301 1.232 2.08 1.232 1.056 0 1.584-.619 1.584-1.856v-5.328H55.92v-2.08h6.512v7.264c0 1.376-.342 2.411-1.024 3.104-.683.683-1.686 1.024-3.008 1.024zm11.762-.064c-.907 0-1.723-.187-2.448-.56a4.292 4.292 0 0 1-1.68-1.584c-.405-.672-.608-1.435-.608-2.288 0-.853.203-1.616.608-2.288a4.177 4.177 0 0 1 1.68-1.568c.725-.384 1.541-.576 2.448-.576s1.717.192 2.432.576a4.178 4.178 0 0 1 1.68 1.568c.405.672.608 1.435.608 2.288 0 .853-.203 1.616-.608 2.288a4.293 4.293 0 0 1-1.68 1.584c-.715.373-1.525.56-2.432.56zm0-2.048c.64 0 1.163-.213 1.568-.64.416-.437.624-1.019.624-1.744 0-.725-.208-1.301-.624-1.728-.405-.437-.928-.656-1.568-.656s-1.168.219-1.584.656c-.416.427-.624 1.003-.624 1.728 0 .725.208 1.307.624 1.744.416.427.944.64 1.584.64zm7.638-6.688h2.496V151H77.8v-8.608zm1.248-1.2c-.458 0-.832-.133-1.12-.4a1.297 1.297 0 0 1-.432-.992c0-.395.144-.725.432-.992.288-.267.662-.4 1.12-.4.46 0 .832.128 1.12.384.288.256.432.576.432.96 0 .416-.144.763-.432 1.04-.288.267-.66.4-1.12.4zm10.047 1.072c1.067 0 1.925.32 2.576.96.661.64.992 1.589.992 2.848V151h-2.496v-4.544c0-.683-.15-1.189-.448-1.52-.299-.341-.73-.512-1.296-.512-.63 0-1.13.197-1.504.592-.373.384-.56.96-.56 1.728V151h-2.496v-8.608h2.384v1.008c.33-.363.741-.64 1.232-.832a4.187 4.187 0 0 1 1.616-.304zm12.632 8.32c-.245.181-.549.32-.912.416a4.755 4.755 0 0 1-1.12.128c-1.024 0-1.818-.261-2.384-.784-.554-.523-.832-1.291-.832-2.304v-3.536h-1.328v-1.92h1.328v-2.096h2.496v2.096h2.144v1.92h-2.144v3.504c0 .363.091.645.272.848.192.192.46.288.8.288.395 0 .731-.107 1.008-.32l.672 1.76zm13.457-10.784c.992 0 1.85.165 2.576.496.736.331 1.301.8 1.696 1.408.394.608.592 1.328.592 2.16 0 .821-.198 1.541-.592 2.16-.395.608-.96 1.077-1.696 1.408-.726.32-1.584.48-2.576.48h-2.256V151h-2.592v-11.2h4.848zm-.144 6c.778 0 1.37-.165 1.776-.496.405-.341.608-.821.608-1.44 0-.629-.203-1.109-.608-1.44-.406-.341-.998-.512-1.776-.512h-2.112v3.888h2.112zm11.326-3.536c1.334 0 2.358.32 3.072.96.715.629 1.072 1.584 1.072 2.864V151h-2.336v-1.072c-.469.8-1.344 1.2-2.624 1.2-.661 0-1.237-.112-1.728-.336-.48-.224-.848-.533-1.104-.928a2.417 2.417 0 0 1-.384-1.344c0-.8.299-1.429.896-1.888.608-.459 1.542-.688 2.8-.688h1.984c0-.544-.165-.96-.496-1.248-.33-.299-.826-.448-1.488-.448-.458 0-.912.075-1.36.224-.437.139-.81.331-1.12.576l-.896-1.744c.47-.331 1.03-.587 1.68-.768a7.669 7.669 0 0 1 2.032-.272zm-.192 7.184c.427 0 .806-.096 1.136-.288.331-.203.566-.496.704-.88v-.88h-1.712c-1.024 0-1.536.336-1.536 1.008 0 .32.123.576.368.768.256.181.603.272 1.04.272zm7.845-7.056h2.496V151h-2.496v-8.608zm1.248-1.2c-.458 0-.832-.133-1.12-.4a1.297 1.297 0 0 1-.432-.992c0-.395.144-.725.432-.992.288-.267.662-.4 1.12-.4.459 0 .832.128 1.12.384.288.256.432.576.432.96 0 .416-.144.763-.432 1.04-.288.267-.661.4-1.12.4zm10.047 1.072c1.066 0 1.925.32 2.576.96.661.64.992 1.589.992 2.848V151h-2.496v-4.544c0-.683-.15-1.189-.448-1.52-.299-.341-.731-.512-1.296-.512-.63 0-1.131.197-1.504.592-.374.384-.56.96-.56 1.728V151h-2.496v-8.608h2.384v1.008a3.22 3.22 0 0 1 1.232-.832 4.183 4.183 0 0 1 1.616-.304z" fill="#005D8D"/>
</svg>
