<svg width="75" height="76" fill="none" xmlns="http://www.w3.org/2000/svg">
    <path d="M75 0H0v75h75V0z" fill="#fff"/>
    <path d="M73.2 23.95c0 10.99-5.96 20.22-14.03 22.85h-.01a8.01 8.01 0 0 1-3.39.75c-.18 0-.34 0-.5-.02a5.31 5.31 0 0 1-.79-.09 8.135 8.135 0 0 1-6.85-8.03c0-3.04 1.38-4.86 3.83-6.25-1.59-1.76-2.29-4.93-2.29-7.49 0-2.45.45-5.87 1.92-7.6-3.43-1.55-5.36-3.83-5.36-7.83 0-5.06 3.82-9.25 8.75-9.8V.37c.18 0 .35 0 .53.02.2-.01.39-.02.59-.02 1.6 0 3.1.38 4.44 1.06h.01C67.66 4.41 73.2 13.38 73.2 23.95z" fill="#BCEBFF"/>
    <path d="M49.82 20.2h-8.35v3.76h7.4c-.01 0 .1-2.68.95-3.76z" fill="#42BA85"/>
    <path d="M55.27 47.97c-.26.01-.53.02-.79.02v-.11c.26.04.53.08.79.09z" stroke="#30446D" stroke-width="1.5" stroke-linecap="round" stroke-linejoin="round"/>
    <path d="M69.66 10.59c2.23 3.88 3.54 8.65 3.54 13.8 0 10.99-5.96 20.22-14.03 22.85h-.01a8.01 8.01 0 0 1-3.39.75c-.18 0-.34 0-.5-.02a5.31 5.31 0 0 1-.79-.09 8.135 8.135 0 0 1-6.85-8.03c0-3.04 1.38-4.86 3.83-6.25-1.59-1.76-2.29-4.93-2.29-7.49 0-2.45.45-5.87 1.92-7.6-3.43-1.55-5.36-3.83-5.36-7.83 0-5.06 3.82-9.25 8.75-9.8V.81c.18 0 .35 0 .53.02.2-.01.39-.02.59-.02 1.6 0 3.1.38 4.44 1.06h.01c.87.34 1.71.76 2.52 1.25M66.42 6.23c.57.6 1.11 1.23 1.62 1.91" stroke="#30446D" stroke-width="1.5" stroke-linecap="round" stroke-linejoin="round"/>
    <path d="M51.46 33.6s1.03 1.39 1.94 2.24M51.1 18.51s1.03-1.52 2.3-2.42M41.46 20.2h8.67M41.46 23.96h7.4M49.18 26.1s-5.45 1.55-6.81 9.05c-.18 1.01-.24 2.05-.24 3.08v36.05" stroke="#30446D" stroke-width="1.5" stroke-linecap="round" stroke-linejoin="round"/>
    <path d="M50.13 34.48s-4.85-1.32-8 3.74" stroke="#30446D" stroke-width="1.5" stroke-linecap="round" stroke-linejoin="round"/>
    <path d="M1.75 23.95c0 10.99 5.96 20.22 14.03 22.85h.01c1.03.48 2.18.75 3.39.75.18 0 .34 0 .5-.02.26-.01.53-.04.79-.09a8.135 8.135 0 0 0 6.85-8.03c0-3.04-1.38-4.86-3.83-6.25 1.59-1.76 2.29-4.93 2.29-7.49 0-2.45-.45-5.87-1.92-7.6 3.43-1.55 5.36-3.83 5.36-7.83 0-5.06-3.82-9.25-8.75-9.8V.37c-.18 0-.35 0-.53.02-.2-.01-.39-.02-.59-.02-1.6 0-3.1.38-4.44 1.06h-.01C7.28 4.41 1.75 13.38 1.75 23.95z" fill="#BCEBFF"/>
    <path d="M25.13 20.2h8.35v3.76h-7.4c.01 0-.11-2.68-.95-3.76z" fill="#42BA85"/>
    <path d="M20.47 47.88a8.135 8.135 0 0 0 6.85-8.03c0-3.04-1.38-4.86-3.83-6.25 1.59-1.76 2.29-4.93 2.29-7.49 0-2.45-.45-5.87-1.92-7.6 3.43-1.55 5.36-3.83 5.36-7.83 0-5.06-3.82-9.25-8.75-9.8V.81c-.18 0-.35 0-.53.02-.2-.01-.39-.02-.59-.02-1.6 0-3.1.38-4.44 1.06h-.01c-.87.34-1.71.76-2.52 1.25M12.67 45.85c.99.58 2.03 1.04 3.11 1.4h.01M8.53 6.23c-.57.6-1.11 1.23-1.62 1.91-3.2 4.23-5.16 9.96-5.16 16.26 0 8.05 3.2 15.16 8.09 19.42" stroke="#30446D" stroke-width="1.5" stroke-linecap="round" stroke-linejoin="round"/>
    <path d="M23.49 33.6s-1.03 1.39-1.94 2.24M23.85 18.51s-1.03-1.52-2.3-2.42M33.49 20.2h-8.67M33.49 23.96h-7.4M25.77 26.1s5.45 1.55 6.81 9.05c.18 1.01.24 2.05.24 3.08v36.05" stroke="#30446D" stroke-width="1.5" stroke-linecap="round" stroke-linejoin="round"/>
    <path d="M24.82 34.48s4.85-1.32 8 3.74" stroke="#30446D" stroke-width="1.5" stroke-linecap="round" stroke-linejoin="round"/>
</svg>
