<svg width="75" height="77" fill="none" xmlns="http://www.w3.org/2000/svg">
    <path d="M75 1H0v75h75V1z" fill="#fff"/>
    <path d="M52.22 67.22c-1.8.81-3.84 1.13-5.93.8-3.27-.51-5.95-2.49-7.48-5.15" stroke="#2F446D" stroke-width="1.218" stroke-linecap="round" stroke-linejoin="round"/>
    <path d="M39.84 54.95 38.81 5.98s-4.79-7.61-13.32-3.09c0 0-6.7 3.6-4.45 12.55 0 0-8.45.16-10.77 7.9 0 0-1.81 6.53 2.35 11.38 0 0-5.57 3.05-5.16 9.7 0 0 .35 4.84 4.06 7.5 0 0-.05 8.91 9.12 11.02 0 0 2.9 6.35 11.14 5 0 0 5.71-1.3 7-5.03.01-.01 1.73-2.37 1.06-7.96z" fill="#BDE3F8"/>
    <path d="M22.8 18.16c-3.57-4.42-2.88-10.9 1.55-14.47C28.77.12 35.25.81 38.82 5.24" stroke="#2F446D" stroke-width="1.5" stroke-linecap="round" stroke-linejoin="round"/>
    <path d="M36.86 13.96C35.66 8.4 39.2 2.93 44.75 1.73c5.56-1.2 11.03 2.34 12.23 7.89M17.56 15.99c1.1-.36 2.27-.55 3.49-.55M12.63 34.72c-2.04-2.04-2.88-4.87-2.88-7.98 0-2.01.52-3.89 1.44-5.52M15.83 33.73c-2.83.59-5.4 2.33-6.96 5.03-2.56 4.43-1.52 9.94 2.21 13.17" stroke="#2F446D" stroke-width="1.5" stroke-linecap="round" stroke-linejoin="round"/>
    <path d="M20.37 62.94a10.46 10.46 0 0 1-7.36-4.96c-2.98-4.97-1.37-11.41 3.6-14.39" stroke="#2F446D" stroke-width="1.5" stroke-linecap="round" stroke-linejoin="round"/>
    <path d="M39.84 54.95c.69 2.59.4 5.45-1.05 7.96-2.9 5.02-9.31 6.73-14.32 3.84-3.86-2.23-5.77-6.55-5.12-10.71M38.81 18.91l.92 30.7M21.05 8.45s5.35-3.09 10.36 2.96M21.89 39.39c-3.13 0-5.66-2.53-5.66-5.66 0-3.13 2.53-5.66 5.66-5.66" stroke="#2F446D" stroke-width="1.5" stroke-linecap="round" stroke-linejoin="round"/>
    <path d="M29.48 55.64a5.657 5.657 0 0 1-7.71 2.14 5.657 5.657 0 0 1-2.14-7.71M33.18 50.08c-3.13 0-5.66-2.53-5.66-5.66 0-3.13 2.53-5.66 5.66-5.66M33.47 33.06c-4.4 0-7.97-3.57-7.97-7.97s3.57-7.97 7.97-7.97" stroke="#2F446D" stroke-width="1.5" stroke-linecap="round" stroke-linejoin="round"/>
    <path d="M63.32 33.6c-1.66 1.74-3.63 3.38-5.57 5-4.15 3.46-8.45 7.04-8.45 10.74 0 3.55 4.25 7.12 8.36 10.57 4.84 4.07 9.85 8.28 9.85 13.71 0 1-.82 1.82-1.82 1.82s-1.82-.82-1.82-1.82c0-3.74-4.35-7.39-8.55-10.92-4.75-3.99-9.66-8.11-9.66-13.36 0-5.4 4.96-9.54 9.76-13.54 1.44-1.2 2.9-2.41 4.19-3.64" fill="#42BA85"/>
    <path d="M53.83 41.96c-2.57 2.41-4.54 4.87-4.54 7.38.01 3.55 4.26 7.11 8.38 10.55 4.85 4.06 9.87 8.26 9.88 13.69 0 1.01-.81 1.82-1.82 1.83-1.01 0-1.82-.81-1.83-1.82-.01-3.74-4.36-7.38-8.57-10.9-4.76-3.98-9.67-8.09-9.69-13.34-.01-5.4 4.94-9.55 9.73-13.56 1.44-1.2 2.89-2.42 4.18-3.65" stroke="#2F446D" stroke-width="1.5" stroke-linecap="round" stroke-linejoin="round"/>
    <path d="M53.52 32.15c1.29 1.23 2.75 2.44 4.19 3.63 4.81 3.99 9.78 8.11 9.79 13.52.01 5.24-4.89 9.38-9.63 13.38-4.2 3.54-8.54 7.2-8.53 10.94 0 1.01-.81 1.82-1.82 1.83-1.01 0-1.82-.81-1.83-1.82-.01-5.43 4.99-9.65 9.82-13.73 4.1-3.46 8.34-7.04 8.34-10.59-.01-3.7-4.31-7.27-8.47-10.72-1.94-1.61-3.91-3.24-5.57-4.98" fill="#BDE3F8"/>
    <path d="M54.74 33.27c.96.84 1.97 1.68 2.97 2.51 4.81 3.99 9.78 8.11 9.79 13.52.01 5.24-4.89 9.38-9.63 13.38-4.2 3.54-8.54 7.2-8.53 10.94 0 1.01-.81 1.82-1.82 1.83-1.01 0-1.82-.81-1.83-1.82-.01-5.43 4.99-9.65 9.82-13.73 4.1-3.46 8.34-7.04 8.34-10.59-.01-3.7-4.31-7.27-8.47-10.72-1.33-1.1-2.68-2.22-3.92-3.37" fill="#BDE3F8"/>
    <path d="M53.59 66.43c-2.44 2.35-4.28 4.74-4.28 7.17 0 1-.82 1.82-1.82 1.82s-1.82-.82-1.82-1.82c0-5.43 5.01-9.64 9.85-13.71 4.11-3.45 8.36-7.02 8.36-10.57 0-3.7-4.3-7.28-8.45-10.74-1.94-1.61-3.9-3.25-5.56-4.99" stroke="#2F446D" stroke-width="1.5" stroke-linecap="round" stroke-linejoin="round"/>
    <path d="M53.57 32.15c1.29 1.23 2.75 2.44 4.19 3.64 4.8 4 9.76 8.13 9.76 13.54 0 3.68-2.43 6.82-5.52 9.74M52.71 49.33l11.15-.03M51.06 44.96l11.03-.03M51.15 53.7l10.88-.02M60.41 73.59l3.51-.01M49.35 73.61l7.68-.02M51.11 69.24l11.03-.02" stroke="#2F446D" stroke-width="1.5" stroke-linecap="round" stroke-linejoin="round"/>
    <path d="M49.29 49.34c.01 3.55 4.26 7.11 8.38 10.55 4.85 4.06 9.87 8.26 9.88 13.69 0 1.01-.81 1.82-1.82 1.83-1.01 0-1.82-.81-1.83-1.82-.01-3.74-4.36-7.38-8.57-10.9-4.76-3.98-9.67-8.09-9.69-13.34" fill="#42BA85"/>
    <path d="M49.29 49.34c.01 3.55 4.26 7.11 8.38 10.55 4.85 4.06 9.87 8.26 9.88 13.69 0 1.01-.81 1.82-1.82 1.83-1.01 0-1.82-.81-1.83-1.82-.01-3.74-4.36-7.38-8.57-10.9-4.76-3.98-9.67-8.09-9.69-13.34" stroke="#2F446D" stroke-width="1.5" stroke-linecap="round" stroke-linejoin="round"/>
</svg>
