<svg width="75" height="76" fill="none" xmlns="http://www.w3.org/2000/svg">
    <path d="M75 0H0v75h75V0z" fill="#fff"/>
    <path d="M32.05 17.27v33.05s.28 5.46-5.93 7.77L11.5 63.38S1.11 66.76 1.2 55.92c0 0 .13-12.6 7.96-26.4 0 0 6.67-11.94 12.26-15.44 0 0 5.14-4.24 8.54-2.54 0-.01 2.37 1.2 2.09 5.73z" fill="#BDE3F8"/>
    <path d="M26.33 57.64c1.44-.52 2.75-1.37 3.75-2.53 1.03-1.19 1.94-2.91 1.94-5.24V16.4s.1-5.34-3.24-5.72c0 0-3.99-.68-10.09 5.27M14.15 21.25c-2.19 2.96-4.54 6.73-7 11.56 0 0-8.24 17.96-5.36 26.71.56 1.7 1.92 3.04 3.63 3.53 1.57.45 3.91.65 6.97-.4l9.39-3.37M72.35 45.38c1.05 4.22 1.84 9.58 1.13 12.98-.52 2.48-2.41 4.48-4.9 4.92-1.51.26-3.52.23-6-.62l-13.9-4.99c-1.4-.5-2.69-1.3-3.68-2.41-1.07-1.19-2.06-2.95-2.06-5.38V16.41s-.1-5.34 3.24-5.72c0 0 8.92-.22 19.66 18.1M34.47.94v1.97s1.15.64 3.02.64c0 0 2.06-.13 2.95-.7V.94c.01 0-2.92 1.53-5.97 0zM34.47 5.37v1.97s1.15.64 3.02.64c0 0 2.06-.13 2.95-.7V5.37c.01 0-2.92 1.53-5.97 0zM34.47 9.8v1.97s1.15.64 3.02.64c0 0 2.06-.13 2.95-.7V9.8s-1.07.56-2.58.66M34.47 14.23v1.97s1.15.64 3.02.64c0 0 2.06-.13 2.95-.7v-1.91s-1.02.53-2.48.65" stroke="#30446D" stroke-width="1.5" stroke-linecap="round" stroke-linejoin="round"/>
    <path d="M34.47 18.96s2.61 1.4 5.97 0c0 0-.87 6.61 2.49 7.82v1.33s-4.07.06-5.44-5.27c0 0-.92 4.7-5.47 5.53v-1.53c.01 0 3.28-2.04 2.45-7.88zM16.45 18.85l-.86 1.1" stroke="#30446D" stroke-width="1.5" stroke-linecap="round" stroke-linejoin="round"/>
    <path d="M31.59 28.63c-3.64 1.32-7.21-.41-8.53-4.05a7.03 7.03 0 0 1 .93-6.52M19.36 29.37s-.88-1.02-1.08-2.18M24.63 48.13s-1.69.59-4.09-.36c-.28-.11-.55-.23-.85-.25-.39-.03-.92.03-1.47.38M13.08 53.85s-1.15-1.37-1.1-3.96c.01-.3.02-.6-.06-.88-.11-.38-.35-.85-.87-1.25M17.79 56.88c.16-.48.4-1 .74-1.55.16-.25.32-.5.39-.79.1-.38.13-.91-.12-1.52" stroke="#2F446D" stroke-width="1.5" stroke-linecap="round" stroke-linejoin="round"/>
    <path d="M20.75 18.05s.11.73.91 1.2c0 0 .94.57 1.3.84M23.82 29.81s3.95.96 7.08-.72M15.23 30.38s.92-.98 4.12-.89c0 0 1.06.03 1.84.11" stroke="#2F446D" stroke-width="1.5" stroke-linecap="round" stroke-linejoin="round"/>
    <path d="M25.38 30.09s-1.47 1.01-1.39 2.73c0 0 .44 2.41-2.57 4.01" stroke="#2F446D" stroke-width="1.5" stroke-linecap="round" stroke-linejoin="round"/>
    <path d="M31.39 28.99s-2.75 1.37-3.66 11.11c-.31 3.28-.67 6.76-6.61 11.39-2.37 1.85-5.27 2.96-8.21 2.37-2.3-.46-4.83-1.86-6.66-5.35" stroke="#2F446D" stroke-width="1.5" stroke-linecap="round" stroke-linejoin="round"/>
    <path d="M57.8 54.79c7.34 0 13.29-5.95 13.29-13.29 0-7.34-5.95-13.29-13.29-13.29-7.34 0-13.29 5.95-13.29 13.29 0 7.34 5.95 13.29 13.29 13.29z" fill="#BDE3F8"/>
    <path d="m58.6 53.51-.01 3.88 2.12.01.01-3.86" fill="#fff"/>
    <path fill-rule="evenodd" clip-rule="evenodd" d="M50.34 49.65c-5.11-5.16-5.06-13.48.1-18.58 5.16-5.11 13.48-5.06 18.58.1 5.11 5.16 5.06 13.48-.1 18.58-5.15 5.1-13.48 5.06-18.58-.1z" fill="#fff"/>
    <path d="m60.71 55.33.01-1.8-2.12-.02-.01 1.81c.71.06 1.42.06 2.12.01z" fill="#BCEBFF"/>
    <path d="M56.89 59.07c0-.94.76-1.69 1.7-1.69l2.12.01c.94 0 1.69.76 1.69 1.7l-.04 12.51c0 1.52-1.24 2.75-2.76 2.75-1.52 0-2.75-1.24-2.75-2.76l.04-12.52z" fill="#42BA85"/>
    <path d="M56.85 71.58c0 1.52 1.23 2.76 2.75 2.76s2.76-1.23 2.76-2.75l.04-12.51c0-.94-.75-1.7-1.69-1.7l-2.12-.01c-.94 0-1.7.75-1.7 1.69l-.02 6.69" stroke="#30446D" stroke-width="1.736" stroke-linecap="round" stroke-linejoin="round"/>
    <path d="m58.6 53.51-.01 3.88 2.12.01.01-3.86" stroke="#30446D" stroke-width="1.736" stroke-linecap="round" stroke-linejoin="round"/>
    <path d="M65.69 52.1c-4.97 2.55-11.21 1.73-15.35-2.45-5.11-5.16-5.06-13.48.1-18.58 5.16-5.11 13.48-5.06 18.58.1 5.11 5.16 5.06 13.48-.1 18.58" stroke="#30446D" stroke-width="1.736" stroke-linecap="round" stroke-linejoin="round"/>
    <path d="M56.98 30.18a10.6 10.6 0 0 1 10.24 2.77c4.13 4.15 4.11 10.86-.05 14.99-3.23 3.21-8 3.91-11.9 2.11" stroke="#30446D" stroke-width="1.736" stroke-linecap="round" stroke-linejoin="round"/>
</svg>
