<svg width="75" height="75" fill="none" xmlns="http://www.w3.org/2000/svg">
    <g clip-path="url(#a)">
        <path d="M75 .2H0v75h75V.2z" fill="#fff"/>
        <path d="M46.03 3.91c-2.77 2.91-6.05 5.65-9.3 8.35-6.93 5.78-14.1 11.75-14.1 17.92 0 5.92 7.09 11.87 13.95 17.64 8.08 6.79 16.44 13.81 16.44 22.88 0 1.68-1.36 3.04-3.04 3.04s-3.04-1.36-3.04-3.04c0-6.23-7.26-12.33-14.27-18.22-7.92-6.66-16.12-13.54-16.12-22.29 0-9.02 8.28-15.92 16.29-22.59 2.4-2 4.83-4.03 6.99-6.08" fill="#42BA85"/>
        <path d="M29.93 17.47c-4.37 4.1-7.73 8.28-7.72 12.56.01 6.04 7.26 12.1 14.26 17.96 8.26 6.91 16.79 14.05 16.81 23.3 0 1.71-1.38 3.1-3.09 3.11a3.11 3.11 0 0 1-3.11-3.09c-.01-6.36-7.43-12.56-14.59-18.56-8.1-6.77-16.47-13.78-16.49-22.7-.02-9.2 8.41-16.26 16.56-23.08 2.45-2.05 4.92-4.12 7.11-6.21" stroke="#2F446D" stroke-width="1.5" stroke-linecap="round" stroke-linejoin="round"/>
        <path d="M37.82 16.16c-1.68-1.49-3.47-2.98-5.24-4.45-3.31-2.74-6.65-5.52-9.47-8.47M44.48 45.95c-2.39 2.32-5.04 4.56-7.67 6.77-7.14 6.03-14.53 12.26-14.52 18.62 0 1.71-1.38 3.1-3.09 3.11a3.11 3.11 0 0 1-3.11-3.09c-.02-9.24 8.49-16.43 16.72-23.37 2.46-2.07 4.95-4.18 7.14-6.29M29.4.77c2.2 2.09 4.68 4.15 7.14 6.19 1.87 1.55 3.75 3.11 5.54 4.7" fill="#BDE3F8"/>
        <path d="M29.53 59.12c-4.15 4-7.28 8.07-7.28 12.21 0 1.71-1.39 3.1-3.1 3.1-1.71 0-3.1-1.39-3.1-3.1 0-9.24 8.52-16.41 16.76-23.33 2.46-2.07 4.95-4.16 7.14-6.26M41.12 71.31l5.97-.01M22.3 71.35l13.07-.03M25.29 63.9l18.77-.04" stroke="#2F446D" stroke-width="1.5" stroke-linecap="round" stroke-linejoin="round"/>
        <path d="M22.21 30.03c.01 6.04 7.26 12.1 14.26 17.96 8.26 6.91 16.79 14.05 16.81 23.3 0 1.71-1.38 3.1-3.09 3.11a3.11 3.11 0 0 1-3.11-3.09c-.01-6.36-7.43-12.56-14.59-18.56-8.1-6.77-16.47-13.78-16.49-22.7" fill="#42BA85"/>
        <path d="M22.21 30.03c.01 6.04 7.26 12.1 14.26 17.96 8.26 6.91 16.79 14.05 16.81 23.3 0 1.71-1.38 3.1-3.09 3.11a3.11 3.11 0 0 1-3.11-3.09c-.01-6.36-7.43-12.56-14.59-18.56-8.1-6.77-16.47-13.78-16.49-22.7" stroke="#2F446D" stroke-width="1.53" stroke-linecap="round" stroke-linejoin="round"/>
        <path d="M23.86 3.93 29.49.5 42.5 12l-4.41 4.37L23.86 3.93zM64.06 31.29c-.02-9.2-4.86-13.24-13.04-20.03l-3.87 4.87C54.23 22 57.84 25 57.86 31.31c.007 4.46-3.44 8.267-8.32 12.69l5 4c5.794-5.297 9.535-9.982 9.52-16.71z" fill="#BDE3F8"/>
        <path d="M47.15 16.13c5.74 4.93 10.74 10 10.74 15.22 0 4.24-3.58 8.51-8.13 12.71" stroke="#2F446D" stroke-width="1.5" stroke-linecap="round" stroke-linejoin="round"/>
        <path d="M54.69 47.92c5.26-4.98 9.39-10.31 9.39-16.58 0-8.17-6.66-14.63-13.87-20.74M43.3 31.35l14.56-.04M46.59 23.91l8.24-.04M46.75 38.79l7.98-.04M22.89 31.35l6.73-.04M24.67 23.91l7.55-.04M27.08 38.79l6.28-.04M23.19 3.24c2.82 2.96 6.16 5.74 9.46 8.49 1.91 1.59 3.84 3.2 5.63 4.82M29.49.77c2.2 2.09 4.67 4.15 7.13 6.2C38.6 8.62 40.6 10.29 42.5 12" stroke="#2F446D" stroke-width="1.5" stroke-linecap="round" stroke-linejoin="round"/>
    </g>
    <defs>
        <clipPath id="a">
            <path fill="#fff" d="M0 0h75v75H0z"/>
        </clipPath>
    </defs>
</svg>
