<svg width="56" height="56" viewBox="0 0 56 56" fill="none" xmlns="http://www.w3.org/2000/svg">
<g clip-path="url(#clip0_301_2)">
<path d="M28 32.4481H31.4353C34.4003 32.4481 36.8038 30.0446 36.8038 27.0796C36.8038 24.1147 34.4003 21.7112 31.4353 21.7112H28H24.5646C21.5997 21.7112 19.1962 24.1147 19.1962 27.0796C19.1962 30.0446 21.5997 32.4481 24.5646 32.4481H28Z" fill="#BCEBFF"/>
<path d="M24.2434 39.8221C24.2434 37.9848 22.6969 36.5087 20.8347 36.6243C19.191 36.7263 17.8744 38.0993 17.8361 39.7457C17.8154 40.6327 18.1556 41.4399 18.7198 42.0318C19.0834 42.4132 19.2715 42.9291 19.2715 43.4559V55.1797H22.8071V43.4366C22.8071 42.9009 23.0232 42.3937 23.3878 42.0012C23.9187 41.4294 24.2434 40.6638 24.2434 39.8221V39.8221Z" fill="#42BA85"/>
<path d="M32.4194 11.9794V0.820312H23.5804V11.9794C23.5804 12.9148 22.9965 13.7634 22.1098 14.0616C19.9298 14.7945 18.3829 16.9049 18.5048 19.3587C18.6397 22.0776 20.8606 24.2768 23.5805 24.3873C25.3793 24.4604 26.9884 23.6362 27.9999 22.3268C29.0114 23.6362 30.6205 24.4604 32.4194 24.3873C35.1393 24.2769 37.3601 22.0777 37.4951 19.3587C37.6168 16.905 36.07 14.7946 33.8901 14.0616C33.0034 13.7635 32.4194 12.9149 32.4194 11.9794V11.9794Z" fill="#E6F7FE"/>
<path d="M33.89 14.0616C33.0034 13.7634 32.4194 12.9149 32.4194 11.9794V0.820312H29.5468V13.4885C29.5468 14.4238 30.1307 15.2725 31.0174 15.5706C33.1974 16.3035 34.7443 18.4139 34.6224 20.8678C34.556 22.2045 33.9846 23.415 33.0984 24.3141C35.5001 23.8993 37.3716 21.8473 37.495 19.3587C37.6169 16.905 36.07 14.7946 33.89 14.0616V14.0616Z" fill="#42BA85"/>
<path d="M37.496 34.82C37.3718 32.1289 35.2014 29.9324 32.512 29.7769C32.4957 29.7759 32.4793 29.775 32.463 29.7743C31.6779 29.736 30.94 29.422 30.354 28.8982C29.7289 28.3396 28.9042 28 27.9999 28C27.0958 28 26.2713 28.3395 25.6463 28.8979C25.0616 29.4202 24.3259 29.7359 23.5428 29.7742C23.4106 29.7806 23.2773 29.7921 23.1431 29.8087C20.611 30.1236 18.6389 32.2381 18.5056 34.7862C18.3456 37.8445 20.7781 40.3745 23.8016 40.3745C25.1567 40.3745 26.2777 41.4292 26.3602 42.7818L27.1162 55.1797H32.4196V42.18C32.4196 41.2441 33.0044 40.396 33.8914 40.0975C36.0649 39.3661 37.6089 37.265 37.496 34.82V34.82Z" fill="#E6F7FE"/>
<path d="M37.496 34.8198C37.3724 32.1423 35.223 29.9551 32.5522 29.78C33.8762 30.7384 34.7645 32.2672 34.8441 33.9922C34.9616 36.5368 33.3548 38.7232 31.0928 39.4843C30.1698 39.795 29.5612 40.6776 29.5612 41.6515V55.1796H32.4195V42.18C32.4195 41.2442 33.0043 40.396 33.8913 40.0975C36.0649 39.3661 37.6089 37.265 37.496 34.8198V34.8198Z" fill="#42BA85"/>
<path d="M19.2719 50.8003C18.8188 50.8003 18.4515 51.1675 18.4515 51.6206V55.1797C18.4515 55.6328 18.8188 56 19.2719 56C19.7249 56 20.0922 55.6328 20.0922 55.1797V51.6206C20.0922 51.1675 19.7249 50.8003 19.2719 50.8003Z" fill="#30446D"/>
<path d="M23.5801 4.58828C24.0331 4.58828 24.4004 4.22111 24.4004 3.76797V0.820312C24.4004 0.367172 24.0331 0 23.5801 0C23.127 0 22.7598 0.367172 22.7598 0.820312V3.76797C22.7598 4.22111 23.127 4.58828 23.5801 4.58828Z" fill="#30446D"/>
<path d="M36.5494 30.771C36.5213 30.7426 36.4919 30.7157 36.4633 30.6878C37.2162 29.6411 37.6239 28.3875 37.6239 27.0796C37.6239 25.7685 37.2152 24.5131 36.4602 23.4665C37.5368 22.4182 38.2358 20.983 38.3142 19.3992C38.4505 16.6683 36.7387 14.1535 34.151 13.2835C33.6062 13.1006 33.2402 12.5767 33.2402 11.9798V0.820312C33.2402 0.367172 32.873 0 32.4199 0C31.9669 0 31.5996 0.367172 31.5996 0.820312V11.9798C31.5996 13.2824 32.4151 14.4313 33.6285 14.8388C35.5225 15.4755 36.7755 17.3171 36.6756 19.3177C36.5623 21.6078 34.6783 23.4746 32.3866 23.5676C30.937 23.6303 29.5403 22.9763 28.6513 21.8276C28.4878 21.6065 27.0518 19.7329 24.9839 19.2464C24.5427 19.1425 24.1012 19.4161 23.9974 19.857C23.8937 20.298 24.167 20.7397 24.608 20.8435C25.5999 21.0768 26.4353 21.8109 26.9109 22.3126C26.0353 23.1555 24.8455 23.6181 23.6134 23.5676C21.3217 23.4745 19.4378 21.6078 19.3245 19.3174C19.2246 17.3171 20.4776 15.4755 22.3712 14.8389C23.585 14.4313 24.4005 13.2825 24.4005 11.9798V7.59609C24.4005 7.14295 24.0332 6.77578 23.5801 6.77578C23.1271 6.77578 22.7598 7.14295 22.7598 7.59609V11.9798C22.7598 12.5767 22.3939 13.1006 21.8487 13.2836C19.2614 14.1535 17.5495 16.6683 17.6858 19.3989C17.7641 20.9829 18.4631 22.418 19.5397 23.4665C18.7848 24.5131 18.3761 25.7685 18.3761 27.0796C18.3761 28.3836 18.7811 29.6336 19.5295 30.6784C18.4561 31.7215 17.7692 33.1533 17.6859 34.7429C17.6423 35.578 17.7646 36.3921 18.0378 37.1505C17.4046 37.86 17.0386 38.7703 17.0168 39.7254C16.9902 40.8008 17.3847 41.8211 18.1263 42.5971C18.336 42.8177 18.4515 43.1226 18.4515 43.4558V47.7925C18.4515 48.2456 18.8188 48.6128 19.2719 48.6128C19.7249 48.6128 20.0922 48.2456 20.0922 47.7925V43.4558C20.0922 42.6999 19.8162 41.9933 19.3136 41.465C18.8744 41.0055 18.6412 40.402 18.657 39.7645C18.665 39.4109 18.7539 39.0677 18.9111 38.7569C19.0498 38.94 19.1986 39.1172 19.3592 39.2865C20.3461 40.3262 21.6257 40.9695 23.0218 41.1447C22.9518 41.2491 22.8742 41.3491 22.7875 41.4424C22.2711 41.9978 21.9869 42.7059 21.9869 43.4362V55.1797C21.9869 55.6328 22.3542 56 22.8072 56C23.2602 56 23.6275 55.6328 23.6275 55.1797V43.4361C23.6275 43.1216 23.7559 42.8102 23.9893 42.5591C24.2939 42.2312 24.5373 41.8577 24.7159 41.4553C24.8153 41.5168 24.9095 41.5879 24.9963 41.6696C25.3206 41.9739 25.5143 42.3869 25.5416 42.8319L26.2975 55.2296C26.3239 55.6648 26.6852 56 27.1155 56C27.1323 56 27.1493 55.9995 27.1662 55.9985C27.6184 55.9709 27.9627 55.5819 27.9351 55.1298L27.1792 42.7318C27.1262 41.867 26.7496 41.0648 26.1197 40.4738C25.4893 39.8807 24.6659 39.5543 23.8011 39.5543C22.5593 39.5543 21.4045 39.058 20.5492 38.157C19.6944 37.2563 19.2593 36.0742 19.3244 34.8285C19.4361 32.695 21.1212 30.8872 23.2485 30.6225C23.3526 30.6089 23.4625 30.5993 23.583 30.5933C24.5359 30.5467 25.4628 30.1619 26.1933 29.5092C26.6897 29.0649 27.3313 28.8202 28 28.8202C28.6676 28.8202 29.3095 29.065 29.8071 29.5095C30.5351 30.1602 31.4616 30.5448 32.4165 30.593L32.4643 30.5961C34.7225 30.7265 36.5726 32.5981 36.6764 34.857C36.7682 36.8504 35.5151 38.6857 33.6292 39.3204C32.4151 39.729 31.5995 40.8784 31.5995 42.1804V45.7601C31.5995 46.2132 31.9668 46.5804 32.4198 46.5804C32.8729 46.5804 33.2401 46.2132 33.2401 45.7601V42.1805C33.2401 41.5836 33.6069 41.059 34.1525 40.8754C36.7289 40.0083 38.4407 37.5025 38.3154 34.7818C38.2462 33.2776 37.6191 31.8532 36.5494 30.771V30.771ZM32.5262 28.956C32.5187 28.9555 32.511 28.9551 32.5035 28.9546C31.9118 28.9257 31.3574 28.6946 30.9002 28.2861C30.1013 27.5727 29.0713 27.1797 28 27.1797C26.927 27.1797 25.8968 27.5729 25.0997 28.2862C24.6424 28.6949 24.0903 28.9261 23.5019 28.9547C23.3366 28.9629 23.1844 28.9763 23.0414 28.995C22.2517 29.0932 21.5126 29.3398 20.8497 29.7034C20.3091 28.9398 20.0167 28.0291 20.0167 27.0795C20.0167 26.1253 20.3109 25.2112 20.8552 24.4467C21.6624 24.8956 22.5777 25.1675 23.5467 25.2069C25.2034 25.2716 26.809 24.6634 27.9999 23.5434C29.1311 24.6075 30.6362 25.2119 32.2046 25.2119C32.2872 25.2119 32.3702 25.2102 32.453 25.2069C33.422 25.1675 34.3374 24.8956 35.1446 24.4467C35.6888 25.2113 35.983 26.1253 35.983 27.0795C35.983 28.0313 35.6895 28.9439 35.1464 29.7087C34.3554 29.2709 33.4753 29.0113 32.5649 28.9587L32.5262 28.956Z" fill="#30446D"/>
<path d="M32.4198 48.766C31.9668 48.766 31.5995 49.1332 31.5995 49.5863V55.1797C31.5995 55.6329 31.9668 56.0001 32.4198 56.0001C32.8728 56.0001 33.2401 55.6329 33.2401 55.1797V49.5863C33.2401 49.1333 32.8728 48.766 32.4198 48.766Z" fill="#30446D"/>
<path d="M49.6554 26.0715H46.1198C45.8409 26.0715 45.5812 26.2133 45.4301 26.4477C45.2791 26.6823 45.2576 26.9774 45.373 27.2312L45.9507 28.5022H43.6891C43.2361 28.5022 42.8688 28.8693 42.8688 29.3225C42.8688 29.7756 43.2361 30.1428 43.6891 30.1428H47.2246C47.5035 30.1428 47.7633 30.001 47.9144 29.7667C48.0654 29.532 48.0868 29.237 47.9714 28.9831L47.3937 27.7122H49.6554C50.1084 27.7122 50.4757 27.345 50.4757 26.8918C50.4757 26.4387 50.1084 26.0715 49.6554 26.0715V26.0715Z" fill="#30446D"/>
<path d="M40.7887 23.9364C40.9489 24.0965 41.1589 24.1766 41.3687 24.1766C41.5786 24.1766 41.7886 24.0965 41.9488 23.9364L44.4487 21.4364C44.646 21.2391 44.7294 20.9552 44.6705 20.6826C44.6114 20.41 44.4179 20.1861 44.1567 20.0881L42.8496 19.598L44.4487 17.9988C44.7691 17.6784 44.7691 17.1591 44.4487 16.8387C44.1284 16.5184 43.609 16.5184 43.2887 16.8387L40.7887 19.3387C40.5915 19.536 40.5081 19.8198 40.567 20.0925C40.6261 20.3651 40.8196 20.5889 41.0808 20.6869L42.3879 21.1771L40.7887 22.7762C40.4684 23.0966 40.4684 23.6159 40.7887 23.9364Z" fill="#30446D"/>
<path d="M42.8497 36.4019L44.1569 35.9118C44.4181 35.8138 44.6116 35.59 44.6706 35.3173C44.7297 35.0448 44.6461 34.7608 44.4489 34.5635L41.9489 32.0636C41.6286 31.7433 41.1091 31.7433 40.7889 32.0636C40.4685 32.384 40.4685 32.9033 40.7889 33.2237L42.3881 34.8229L41.0809 35.313C40.8197 35.411 40.6263 35.6348 40.5672 35.9074C40.5081 36.18 40.5917 36.4639 40.7889 36.6612L43.2889 39.1612C43.449 39.3213 43.659 39.4014 43.8689 39.4014C44.0788 39.4014 44.2888 39.3213 44.4489 39.1612C44.7693 38.8408 44.7693 38.3214 44.4489 38.0011L42.8497 36.4019Z" fill="#30446D"/>
<path d="M13.1312 29.3226C13.1312 28.8695 12.7639 28.5023 12.3109 28.5023H10.0492L10.627 27.2314C10.7424 26.9775 10.7209 26.6823 10.5699 26.4478C10.4189 26.2133 10.1591 26.0717 9.88015 26.0717H6.3446C5.89157 26.0717 5.52429 26.4388 5.52429 26.892C5.52429 27.3451 5.89157 27.7123 6.3446 27.7123H8.60626L8.02854 28.9832C7.91315 29.2371 7.93459 29.5323 8.08564 29.7668C8.23657 30.0013 8.49645 30.1429 8.77535 30.1429H12.3109C12.7639 30.1429 13.1312 29.7756 13.1312 29.3226Z" fill="#30446D"/>
<path d="M13.6121 21.1769L14.9192 20.6868C15.1804 20.5888 15.3739 20.365 15.4329 20.0924C15.492 19.8198 15.4084 19.5359 15.2112 19.3386L12.7113 16.8386C12.3909 16.5183 11.8715 16.5183 11.5512 16.8386C11.2309 17.159 11.2309 17.6784 11.5512 17.9987L13.1504 19.5979L11.8433 20.088C11.5821 20.186 11.3886 20.4098 11.3295 20.6825C11.2705 20.955 11.354 21.239 11.5512 21.4363L14.0512 23.9362C14.2113 24.0964 14.4213 24.1764 14.6312 24.1764C14.8411 24.1764 15.0511 24.0964 15.2112 23.9362C15.5316 23.6158 15.5316 23.0965 15.2112 22.7761L13.6121 21.1769Z" fill="#30446D"/>
<path d="M15.2112 32.0636C14.8908 31.7433 14.3714 31.7433 14.0512 32.0636L11.5512 34.5635C11.354 34.7608 11.2705 35.0447 11.3295 35.3173C11.3885 35.5899 11.582 35.8138 11.8432 35.9118L13.1504 36.4019L11.5512 38.0011C11.2308 38.3215 11.2308 38.8409 11.5512 39.1612C11.7113 39.3213 11.9213 39.4014 12.1312 39.4014C12.3411 39.4014 12.5511 39.3213 12.7112 39.1612L15.2112 36.6612C15.4084 36.4639 15.4919 36.1801 15.4329 35.9074C15.3738 35.6349 15.1804 35.411 14.9192 35.313L13.612 34.8229L15.2112 33.2237C15.5316 32.9033 15.5316 32.384 15.2112 32.0636Z" fill="#30446D"/>
</g>
<defs>
<clipPath id="clip0_301_2">
<rect width="56" height="56" fill="white"/>
</clipPath>
</defs>
</svg>
