<svg width="75" height="75" fill="none" xmlns="http://www.w3.org/2000/svg">
    <path d="M75 0H0v75h75V0z" fill="#fff"/>
    <path d="m65.94 23.97-2.22 6.32-1.37-1.44-3.07 3.56 2.58-7.3 1.31 2.23 2.77-3.37zM73.85 34.22l-7.5 3.28.14-2.43-5.74.23 8.68-3.78-.9 3.03 5.32-.33zM73.02 44.51l-6.65-.76 1.1-1.66-4.16-2.18 7.69.88-1.88 1.77 3.9 1.95zM64.8 54.51l-4.87-6.58 2.4-.4-1.51-5.55 5.62 7.62-3.15-.2 1.51 5.11z" fill="#42BA85"/>
    <path d="M11.28 1.26s17.83.97 32.07 10.28c8.24 5.39 12.09 13.86 12.59 23.88M21.54 41.32c1.36 3.67 2.96 15.41 3.01 27.32M55.43 48.3c-.58 2.9-2.06 13.66-4.12 25.09M55.81 43.69c0 .59 0 1.11-.21 1.66" stroke="#30446D" stroke-width="1.713" stroke-miterlimit="10" stroke-linecap="round"/>
    <path d="M6.48 12.39s14.81 1.85 19.39.99c0 0 9.16-1.85 12.46 3.07 0 0 .5 1.27 1.8 1.12 0 0 2.13-.33 1.1 4.5-.17.78-.4 1.54-.66 2.3-.15.44-.33 1.05-.43 1.65-.24 1.47-.96 2.85-2.2 3.69-.77.52-1.74.93-2.95.99-1.38.06-2.73-.44-3.82-1.29-1.5-1.16-4.03-3.4-5.55-6.29 0 0-.53-1.32-3.18-1.6-.9-.1-1.8-.17-2.7-.3L4.78 19.05l1.7-6.66z" fill="#BDE3F8"/>
    <path d="M30.96 13.07c2.68.17 5.74.94 7.37 3.37 0 0 .5 1.27 1.8 1.12 0 0 2.13-.33 1.1 4.5-.17.78-.4 1.54-.66 2.3-.15.44-.33 1.05-.43 1.65-.24 1.47-.96 2.85-2.2 3.69-.77.52-1.74.93-2.95.99-1.38.06-2.73-.44-3.82-1.29-1.5-1.16-4.03-3.4-5.55-6.29M25.88 13.38s1.07-.22 2.6-.3M19.75 21.22 4.78 19.05" stroke="#30446D" stroke-width="1.713" stroke-miterlimit="10" stroke-linecap="round"/>
    <path d="M45.14 22.16c-.84.03-1.49.73-1.51 1.57-.02 1.23.28 3.41 1.66 7.15 0 0 2.19 7.26 4.56 4.2.37-.47.59-1.04.68-1.63.44-2.65 1.35-11.5-5.39-11.29z" fill="#BDE3F8"/>
    <path d="M45.14 22.16c-.84.03-1.49.73-1.51 1.57-.02 1.23.28 3.41 1.66 7.15 0 0 2.19 7.26 4.56 4.2.37-.47.59-1.04.68-1.63.44-2.65 1.35-11.5-5.39-11.29z" stroke="#30446D" stroke-width="1.5" stroke-miterlimit="10" stroke-linecap="round"/>
    <path d="M17.76 34.29s-5.5-3.24-15.82-1.98M31.99 42.7v21.58h4.21V46.06l-1.4-3.85-2.06 1.1-.75-.61z" stroke="#30446D" stroke-width="1.713" stroke-miterlimit="10" stroke-linecap="round"/>
    <path d="m36.31 65.56-1.1-13s-.66-8.72-3.23-9.86c0 0-5.46-4.3 2.2-6.85 1.57-.52 3.21-.77 4.87-.81 2.65-.08 6.68.15 7.91 2.08 0 0 1.1 1.21-.18 3.73-.4.79-.76 1.6-1 2.46-.86 3.11-2.51 10.7-1.95 21.62l-7.52.63z" fill="#BDE3F8"/>
    <path d="M44.9 47.21c-.75 3.99-1.45 10.03-1.06 17.72l-7.53.64-1.1-13s-.66-8.72-3.23-9.86c0 0-5.46-4.3 2.2-6.85 1.57-.52 3.21-.77 4.87-.81M45.79 43.31c-.12.43-.26.96-.4 1.56" stroke="#30446D" stroke-width="1.713" stroke-miterlimit="10" stroke-linecap="round"/>
</svg>
