<svg width="56" height="56" viewBox="0 0 56 56" fill="none" xmlns="http://www.w3.org/2000/svg">
<path d="M42.0874 52.8501C42.3386 52.8501 42.5873 52.8006 42.8193 52.7045C43.0514 52.6083 43.2622 52.4674 43.4398 52.2898C43.6174 52.1122 43.7582 51.9013 43.8543 51.6693C43.9504 51.4372 43.9998 51.1885 43.9997 50.9373V42.2354C43.9996 40.6762 43.3801 39.1808 42.2775 38.0783C41.1749 36.9757 39.6795 36.3563 38.1202 36.3563H17.8797C16.3204 36.3563 14.825 36.9757 13.7224 38.0783C12.6197 39.1808 12.0002 40.6762 12.0001 42.2354V50.936C11.9999 51.1873 12.0492 51.4361 12.1452 51.6684C12.2412 51.9006 12.382 52.1116 12.5596 52.2894C12.7372 52.4671 12.9481 52.6081 13.1802 52.7043C13.4123 52.8006 13.6612 52.8501 13.9124 52.8501H42.0874Z" fill="#42BA85"/>
<path d="M19.2328 22.9622V17.5472H16.9749C16.2628 17.5563 15.5829 17.8455 15.0826 18.3523C14.5822 18.8591 14.3016 19.5425 14.3016 20.2547C14.3016 20.9669 14.5822 21.6504 15.0826 22.1571C15.5829 22.6639 16.2628 22.9531 16.9749 22.9622H19.2328Z" fill="white"/>
<path d="M41.7304 20.2562C41.7306 19.9007 41.6608 19.5486 41.525 19.2201C41.3892 18.8915 41.1899 18.593 40.9387 18.3414C40.6875 18.0899 40.3892 17.8903 40.0608 17.754C39.7324 17.6177 39.3804 17.5475 39.0249 17.5472H36.767V22.9622H39.0249C39.7423 22.9616 40.4302 22.6763 40.9375 22.169C41.4448 21.6616 41.7299 20.9737 41.7304 20.2562Z" fill="white"/>
<path d="M27.9999 3.15002C24.8833 3.15026 21.8945 4.38849 19.6909 6.59235C17.4873 8.79621 16.2494 11.7852 16.2495 14.9017V17.651H39.7503V14.9017C39.7504 11.7852 38.5125 8.79621 36.3089 6.59235C34.1053 4.38849 31.1164 3.15026 27.9999 3.15002V3.15002Z" fill="#30446D"/>
<path d="M28 39.7522C28.9095 39.7534 29.7835 39.3988 30.4351 38.7643C31.0867 38.1297 31.4643 37.2655 31.4873 36.3563C31.4917 36.3262 31.4934 36.2957 31.4926 36.2653V32.9801H24.5074V36.2649C24.5065 36.2953 24.5083 36.3257 24.5127 36.3559C24.5355 37.2652 24.9131 38.1295 25.5647 38.7641C26.2164 39.3988 27.0904 39.7534 28 39.7522V39.7522Z" fill="white"/>
<path d="M23.744 44.3328H17.0336C16.6119 44.3328 16.2701 44.6746 16.2701 45.0962V48.2165C16.2701 48.6381 16.6119 48.9799 17.0336 48.9799H23.744C24.1656 48.9799 24.5074 48.6381 24.5074 48.2165V45.0962C24.5074 44.6746 24.1656 44.3328 23.744 44.3328Z" fill="#FFF5EB"/>
<path d="M36.767 24.9375V15.2687C36.7669 14.9269 36.631 14.599 36.3893 14.3573C36.1475 14.1156 35.8196 13.9799 35.4777 13.9799H20.5222C20.1804 13.9799 19.8525 14.1156 19.6107 14.3573C19.3689 14.599 19.233 14.9269 19.2329 15.2687V24.9375C19.2329 27.2627 20.1566 29.4926 21.8007 31.1367C23.4449 32.7809 25.6748 33.7045 28 33.7045C30.3251 33.7045 32.5551 32.7809 34.1992 31.1367C35.8434 29.4926 36.767 27.2627 36.767 24.9375V24.9375Z" fill="white"/>
<path d="M38.1194 35.5898H32.2569V33.4622C33.8406 32.6707 35.173 31.4541 36.1048 29.9486C37.0366 28.4431 37.5311 26.708 37.5331 24.9375V23.7269H39.0206C39.8086 23.7279 40.5735 23.4605 41.1894 22.9689C41.8052 22.4773 42.2354 21.7908 42.4091 21.0221C42.5829 20.2535 42.4898 19.4486 42.1453 18.7399C41.8007 18.0313 41.2252 17.461 40.5134 17.1229V14.9008C40.5134 11.5815 39.1948 8.3981 36.8476 6.05098C34.5005 3.70385 31.3171 2.38525 27.9978 2.38525C24.6785 2.38525 21.4951 3.70385 19.148 6.05098C16.8008 8.3981 15.4822 11.5815 15.4822 14.9008V17.1229C14.7692 17.4603 14.1924 18.0306 13.8469 18.7397C13.5014 19.4489 13.4079 20.2546 13.5818 21.0241C13.7556 21.7935 14.1865 22.4808 14.8033 22.9725C15.4202 23.4642 16.1861 23.7311 16.975 23.7291H18.4669V24.9375C18.4687 26.7079 18.9631 28.4429 19.8946 29.9484C20.8262 31.4539 22.1583 32.6705 23.7418 33.4622V35.5898H17.8806C16.1186 35.5918 14.4294 36.2927 13.1836 37.5387C11.9377 38.7846 11.237 40.4739 11.235 42.2358V50.9373C11.2357 51.6472 11.518 52.3278 12.02 52.8298C12.522 53.3317 13.2026 53.6141 13.9125 53.6148H31.1019C31.3049 53.6148 31.4997 53.5341 31.6432 53.3905C31.7868 53.2469 31.8675 53.0522 31.8675 52.8491C31.8675 52.6461 31.7868 52.4513 31.6432 52.3077C31.4997 52.1642 31.3049 52.0835 31.1019 52.0835H28.7656V40.446C29.5969 40.2888 30.363 39.8893 30.9677 39.2976C31.5724 38.706 31.9885 37.9486 32.1637 37.121H38.1194C39.4755 37.1222 40.7758 37.6614 41.7346 38.6204C42.6935 39.5794 43.2327 40.8797 43.2337 42.2358V50.9373C43.2334 51.2412 43.1125 51.5325 42.8976 51.7474C42.6827 51.9623 42.3914 52.0832 42.0875 52.0835H41.2562C41.0532 52.0835 40.8584 52.1642 40.7149 52.3077C40.5713 52.4513 40.4906 52.6461 40.4906 52.8491C40.4906 53.0522 40.5713 53.2469 40.7149 53.3905C40.8584 53.5341 41.0532 53.6148 41.2562 53.6148H42.0875C42.7974 53.6141 43.478 53.3317 43.98 52.8298C44.482 52.3278 44.7643 51.6472 44.765 50.9373V42.2358C44.763 40.4739 44.0622 38.7846 42.8164 37.5387C41.5705 36.2927 39.8813 35.5918 38.1194 35.5898V35.5898ZM39.025 22.1957H37.5375V18.312H39.025C39.2824 18.3081 39.5381 18.3555 39.7771 18.4514C40.0161 18.5472 40.2336 18.6896 40.417 18.8703C40.6005 19.051 40.7461 19.2664 40.8456 19.5039C40.945 19.7414 40.9962 19.9964 40.9962 20.2538C40.9962 20.5113 40.945 20.7663 40.8456 21.0038C40.7461 21.2413 40.6005 21.4567 40.417 21.6374C40.2336 21.8181 40.0161 21.9605 39.7771 22.0563C39.5381 22.1522 39.2824 22.1996 39.025 22.1957V22.1957ZM16.9794 22.1957C16.7219 22.1996 16.4662 22.1522 16.2273 22.0563C15.9883 21.9605 15.7707 21.8181 15.5873 21.6374C15.4039 21.4567 15.2582 21.2413 15.1588 21.0038C15.0594 20.7663 15.0081 20.5113 15.0081 20.2538C15.0081 19.9964 15.0594 19.7414 15.1588 19.5039C15.2582 19.2664 15.4039 19.051 15.5873 18.8703C15.7707 18.6896 15.9883 18.5472 16.2273 18.4514C16.4662 18.3555 16.7219 18.3081 16.9794 18.312H18.4669V22.1957H16.9794ZM19.9981 24.9375V15.2688C19.9981 15.1295 20.0534 14.996 20.1519 14.8975C20.2503 14.7991 20.3839 14.7438 20.5231 14.7438H22.1769C22.3799 14.7438 22.5747 14.6631 22.7182 14.5195C22.8618 14.3759 22.9425 14.1812 22.9425 13.9781C22.9425 13.7751 22.8618 13.5803 22.7182 13.4368C22.5747 13.2932 22.3799 13.2125 22.1769 13.2125H20.5231C20.2531 13.2125 19.9857 13.2657 19.7362 13.369C19.4867 13.4724 19.2601 13.6238 19.0691 13.8148C18.8782 14.0057 18.7267 14.2324 18.6234 14.4819C18.52 14.7313 18.4669 14.9987 18.4669 15.2688V16.7812H17.0157V14.8999C17.0157 11.9867 18.1729 9.19282 20.2329 7.13286C22.2929 5.0729 25.0868 3.91563 28 3.91563C30.9132 3.91563 33.7071 5.0729 35.7671 7.13286C37.827 9.19282 38.9843 11.9867 38.9843 14.8999V16.7812H37.5331V15.2688C37.5331 14.7234 37.3165 14.2004 36.9308 13.8148C36.5452 13.4291 36.0222 13.2125 35.4769 13.2125H26.1581C25.9551 13.2125 25.7603 13.2932 25.6167 13.4368C25.4731 13.5803 25.3925 13.7751 25.3925 13.9781C25.3925 14.1812 25.4731 14.3759 25.6167 14.5195C25.7603 14.6631 25.9551 14.7438 26.1581 14.7438H35.4769C35.5458 14.7438 35.6141 14.7573 35.6778 14.7837C35.7415 14.8101 35.7993 14.8488 35.8481 14.8975C35.8968 14.9463 35.9355 15.0041 35.9619 15.0678C35.9883 15.1315 36.0019 15.1998 36.0019 15.2688V24.9375C36.0019 27.0597 35.1588 29.095 33.6582 30.5957C32.1575 32.0963 30.1222 32.9394 28 32.9394C25.8778 32.9394 23.8424 32.0963 22.3418 30.5957C20.8412 29.095 19.9981 27.0597 19.9981 24.9375ZM13.9125 52.0835C13.6086 52.0832 13.3172 51.9623 13.1023 51.7474C12.8875 51.5325 12.7666 51.2412 12.7662 50.9373V42.2358C12.7673 40.8797 13.3064 39.5794 14.2653 38.6204C15.2242 37.6614 16.5245 37.1222 17.8806 37.121H23.8363C24.0115 37.9486 24.4276 38.706 25.0323 39.2976C25.6369 39.8893 26.4031 40.2888 27.2344 40.446V52.0835H13.9125ZM28 38.9861C27.2914 38.9837 26.6114 38.7061 26.1036 38.212C25.5957 37.7178 25.2996 37.0457 25.2779 36.3374C25.2774 36.3123 25.2757 36.2872 25.2726 36.2622V34.0703C27.0515 34.6035 28.9476 34.6035 30.7265 34.0703V36.2653C30.7239 36.2893 30.7221 36.3134 30.7217 36.3374C30.6999 37.0456 30.4039 37.7177 29.8961 38.2118C29.3884 38.706 28.7085 38.9836 28 38.9861ZM38.0275 52.85C38.0275 53.0531 37.9468 53.2478 37.8032 53.3914C37.6597 53.535 37.4649 53.6156 37.2619 53.6156H35.0831C34.8801 53.6156 34.6853 53.535 34.5417 53.3914C34.3981 53.2478 34.3175 53.0531 34.3175 52.85C34.3175 52.6469 34.3981 52.4522 34.5417 52.3086C34.6853 52.165 34.8801 52.0844 35.0831 52.0844H37.2619C37.4649 52.0845 37.6596 52.1652 37.8031 52.3088C37.9467 52.4523 38.0274 52.647 38.0275 52.85V52.85ZM23.744 43.5667H17.0336C16.6283 43.5673 16.2398 43.7285 15.9532 44.015C15.6666 44.3016 15.5052 44.69 15.5045 45.0953V48.216C15.5045 48.6217 15.6656 49.0109 15.9523 49.298C16.239 49.5851 16.6279 49.7467 17.0336 49.7473H23.744C24.1501 49.7473 24.5396 49.5859 24.8267 49.2988C25.1139 49.0116 25.2752 48.6221 25.2752 48.216V45.0953C25.2745 44.6897 25.1129 44.3009 24.8258 44.0143C24.5387 43.7277 24.1496 43.5667 23.744 43.5667V43.5667ZM17.0358 48.216L17.0336 45.0979H23.7418V48.2138L17.0358 48.216ZM39.9932 46.6554C39.9932 46.8585 39.9125 47.0532 39.7689 47.1968C39.6253 47.3404 39.4306 47.4211 39.2276 47.4211H37.5327V49.1159C37.5327 49.319 37.452 49.5137 37.3084 49.6573C37.1648 49.8009 36.9701 49.8816 36.7671 49.8816C36.564 49.8816 36.3693 49.8009 36.2257 49.6573C36.0821 49.5137 36.0014 49.319 36.0014 49.1159V47.4211H34.3065C34.1035 47.4211 33.9088 47.3404 33.7652 47.1968C33.6216 47.0532 33.5409 46.8585 33.5409 46.6554C33.5409 46.4524 33.6216 46.2576 33.7652 46.1141C33.9088 45.9705 34.1035 45.8898 34.3065 45.8898H36.0014V44.1954C36.0014 43.9923 36.0821 43.7976 36.2257 43.654C36.3693 43.5104 36.564 43.4298 36.7671 43.4298C36.9701 43.4298 37.1648 43.5104 37.3084 43.654C37.452 43.7976 37.5327 43.9923 37.5327 44.1954V45.8898H39.2276C39.3281 45.8898 39.4277 45.9096 39.5205 45.9481C39.6134 45.9866 39.6978 46.043 39.7689 46.1141C39.84 46.1852 39.8964 46.2696 39.9349 46.3624C39.9734 46.4553 39.9932 46.5549 39.9932 46.6554V46.6554Z" fill="#30446D"/>
</svg>
