<svg width="56" height="56" viewBox="0 0 56 56" fill="none" xmlns="http://www.w3.org/2000/svg">
<path d="M45.5 25.5073V53.3749H18.375C16.9826 53.3749 15.6473 52.8218 14.6627 51.8372C13.6781 50.8527 13.125 49.5173 13.125 48.1249V36.7499H7L10.733 21.3532C11.7486 17.1599 14.2665 13.4846 17.81 11.0232C21.3535 8.56174 25.6765 7.48501 29.9605 7.99688C34.2445 8.50875 38.1922 10.5737 41.056 13.8007C43.9198 17.0277 45.5009 21.1928 45.5 25.5073V25.5073Z" fill="white"/>
<path d="M45.5 25.5074V53.375H37.625V25.5074C37.6238 21.5164 36.2696 17.6437 33.7835 14.5217C31.2973 11.3996 27.8262 9.21271 23.9368 8.31798C26.5197 7.7276 29.2024 7.72684 31.7857 8.31577C34.3689 8.90469 36.7862 10.0682 38.858 11.7197C40.9298 13.3713 42.6028 15.4684 43.7527 17.8554C44.9026 20.2424 45.4999 22.8578 45.5 25.5074V25.5074Z" fill="#BCEBFF"/>
<path d="M28 12.25C25.5422 12.249 23.1274 12.8954 20.9987 14.124C18.87 15.3527 17.1025 17.1203 15.8739 19.249L28 26.25V12.25Z" fill="#60D1E0"/>
<path d="M45.376 9.62402C44.1474 7.49528 42.3799 5.72766 40.2512 4.49901C38.1225 3.27036 35.7078 2.62401 33.25 2.625V16.625L45.376 9.62402Z" fill="#42BA85"/>
<path d="M15.8739 19.249C14.6462 21.378 14 23.7924 14 26.25C14 28.7076 14.6462 31.122 15.8739 33.251L28 26.25L15.8739 19.249Z" fill="#42BA85"/>
<path d="M15.8739 33.251C17.1025 35.3797 18.87 37.1473 20.9987 38.376C23.1274 39.6046 25.5422 40.251 28 40.25V26.25L15.8739 33.251Z" fill="#60D1E0" fill-opacity="0.42"/>
<path d="M40.126 19.249L28 26.25L40.126 33.251C41.3537 31.122 42 28.7076 42 26.25C42 23.7924 41.3537 21.378 40.126 19.249V19.249Z" fill="#60D1E0"/>
<path d="M28 40.25C30.4578 40.251 32.8725 39.6046 35.0012 38.376C37.1299 37.1473 38.8974 35.3797 40.126 33.251L28 26.25V40.25Z" fill="#42BA85"/>
<path d="M43.8298 20.3916L45.4966 19.8583C44.8091 17.7077 43.7313 15.7022 42.3172 13.942L40.9518 15.0366C42.2319 16.6297 43.2075 18.445 43.8298 20.3916V20.3916Z" fill="#30446D"/>
<path d="M44.625 26.1406H46.375V37.625H44.625V26.1406Z" fill="#30446D"/>
<path d="M44.625 52.5H18.375C17.3684 52.4979 16.3931 52.1497 15.6127 51.5138C14.8323 50.878 14.2943 49.9931 14.0889 49.0077L12.3745 49.3584C12.6618 50.7384 13.4148 51.9776 14.5074 52.8683C15.5999 53.7589 16.9655 54.2468 18.375 54.25H45.5C45.7321 54.25 45.9547 54.1578 46.1188 53.9937C46.2829 53.8296 46.375 53.6071 46.375 53.375V42.875H44.625V52.5Z" fill="#30446D"/>
<path d="M8.88128 25.2773L6.14964 36.5437C6.11843 36.6725 6.11685 36.8066 6.14502 36.936C6.17319 37.0654 6.23037 37.1867 6.31225 37.2909C6.39413 37.395 6.49858 37.4791 6.61772 37.537C6.73686 37.5948 6.86758 37.6249 7.00003 37.6249H12.25V43.7499H14V36.7499C14 36.5178 13.9078 36.2953 13.7437 36.1312C13.5797 35.9671 13.3571 35.8749 13.125 35.8749H8.11248L10.5816 25.6897L8.88128 25.2773Z" fill="#30446D"/>
<path d="M32.8125 17.3827C32.9455 17.4595 33.0964 17.4999 33.25 17.4999C33.4036 17.4999 33.5545 17.4595 33.6875 17.3827L45.8135 10.3817C45.913 10.3242 46.0003 10.2477 46.0703 10.1565C46.1402 10.0653 46.1915 9.96114 46.2213 9.85008C46.251 9.73901 46.2585 9.62318 46.2434 9.50921C46.2283 9.39523 46.191 9.28534 46.1334 9.18583C45.6522 8.35503 45.0922 7.57252 44.4609 6.84914L43.1424 7.99976C43.5072 8.41769 43.8453 8.85821 44.1547 9.31872L34.125 15.1095V3.52829C36.1463 3.65621 38.1093 4.25674 39.8562 5.28158L38.7563 6.38123L39.9937 7.6187L43.2375 4.37497H46.375V2.62497H42.875C42.7601 2.62496 42.6463 2.64759 42.5401 2.69156C42.434 2.73553 42.3375 2.79998 42.2563 2.88123L41.1315 4.00604C38.771 2.52271 36.0378 1.74032 33.25 1.74997C33.0179 1.74997 32.7954 1.84215 32.6313 2.00625C32.4672 2.17034 32.375 2.3929 32.375 2.62497V16.625C32.375 16.7786 32.4154 16.9294 32.4922 17.0625C32.569 17.1955 32.6795 17.3059 32.8125 17.3827V17.3827Z" fill="#30446D"/>
<path d="M48.125 2.625H54.25V4.375H48.125V2.625Z" fill="#30446D"/>
<path d="M48.125 6.125H54.25V7.875H48.125V6.125Z" fill="#30446D"/>
<path d="M48.125 9.625H52.5V11.375H48.125V9.625Z" fill="#30446D"/>
<path d="M49 21.875H54.25V23.625H49V21.875Z" fill="#30446D"/>
<path d="M49 25.375H54.25V27.125H49V25.375Z" fill="#30446D"/>
<path d="M49 28.875H52.5V30.625H49V28.875Z" fill="#30446D"/>
<path d="M49 39.375H54.25V41.125H49V39.375Z" fill="#30446D"/>
<path d="M49 42.875H54.25V44.625H49V42.875Z" fill="#30446D"/>
<path d="M49 46.375H52.5V48.125H49V46.375Z" fill="#30446D"/>
<path d="M43.3587 21.9674L42.383 22.4553C42.0478 21.179 41.5435 19.9533 40.8834 18.8108C40.7672 18.61 40.5761 18.4636 40.3521 18.4037C40.128 18.3438 39.8893 18.3753 39.6885 18.4913L28.875 24.7345V12.25C28.875 12.018 28.7828 11.7954 28.6187 11.6313C28.4546 11.4672 28.2321 11.375 28 11.375C25.2153 11.3782 22.4874 12.1626 20.1264 13.6391L18.2642 11.7769C21.8214 9.29171 26.2025 8.27996 30.4893 8.95368L30.7607 7.2249C25.9212 6.4644 20.9774 7.64968 17.0089 10.5219L14.6187 8.13129C14.5375 8.05004 14.441 7.98559 14.3349 7.94162C14.2287 7.89765 14.1149 7.87502 14 7.87502H9.625V9.62502H13.6375L18.6797 14.6672C16.176 16.6694 14.3918 19.432 13.5967 22.5377L12.7005 22C12.5644 21.9183 12.4087 21.8751 12.25 21.875H11.5062L11.5828 21.5596C12.2104 18.9797 13.4397 16.585 15.1703 14.5713L13.8448 13.4288C11.9333 15.6527 10.5753 18.2975 9.88181 21.1469L9.70583 21.875H7.875V23.625H12.0076L13.2453 24.3677C12.8787 27.212 13.3446 30.1016 14.5866 32.6866C15.8286 35.2715 17.7934 37.441 20.2431 38.9322L16.9592 45.5H9.625V47.25H17.5C17.6625 47.25 17.8218 47.2048 17.96 47.1193C18.0982 47.0339 18.2099 46.9117 18.2826 46.7664L21.7875 39.7568C23.8599 40.7159 26.1262 41.1822 28.4089 41.1194C30.6916 41.0566 32.9288 40.4663 34.9453 39.3947L36.0667 40.7969C36.1487 40.8993 36.2527 40.982 36.371 41.0388C36.4893 41.0956 36.6188 41.1251 36.75 41.125H47.25V39.375H37.1705L36.4535 38.4781C38.7166 36.9182 40.5024 34.7606 41.6118 32.2458C42.7212 29.7309 43.1108 26.9574 42.7372 24.2342L43.9566 23.625H47.25V21.875H43.75C43.6141 21.875 43.4802 21.9066 43.3587 21.9674V21.9674ZM19.9241 15.9116L21.2563 17.2438L22.4937 16.0063L21.4006 14.9133C23.148 13.8943 25.1069 13.2924 27.125 13.1546V24.7345L17.0953 18.9438C17.8716 17.7896 18.8265 16.7661 19.9241 15.9116V15.9116ZM14.9061 25.3641L16.1748 26.1253L17.0752 24.6247L15.1703 23.482C15.3948 22.4351 15.7468 21.4198 16.2187 20.4587L26.25 26.25L16.2191 32.0413C15.3343 30.239 14.8745 28.2578 14.875 26.25C14.875 25.9538 14.8859 25.6585 14.9061 25.3641ZM21.9674 35.4837L21.0285 37.3613C19.4653 36.3827 18.1252 35.0863 17.0953 33.5563L27.125 27.7655V39.3455C25.5496 39.2382 24.0066 38.8471 22.5703 38.1911L23.5328 36.2661L21.9674 35.4837ZM35.358 37.1092L33.9333 35.3281L32.5667 36.4219L33.8297 38.0009C32.2828 38.771 30.599 39.2279 28.875 39.3455V27.7655L38.9047 33.5563C37.9616 34.9574 36.7574 36.1637 35.358 37.1092V37.1092ZM41.125 26.25C41.1255 28.2578 40.6657 30.239 39.7809 32.0413L29.75 26.25L39.7809 20.4587C40.219 21.3505 40.5542 22.2893 40.7799 23.2569L38.1087 24.5924L38.8913 26.1576L41.0711 25.0677C41.1065 25.4599 41.1245 25.854 41.125 26.25Z" fill="#30446D"/>
<path d="M1.75 7.875H7.875V9.625H1.75V7.875Z" fill="#30446D"/>
<path d="M1.75 11.375H7.875V13.125H1.75V11.375Z" fill="#30446D"/>
<path d="M1.75 14.875H6.125V16.625H1.75V14.875Z" fill="#30446D"/>
<path d="M1.75 21.875H6.125V23.625H1.75V21.875Z" fill="#30446D"/>
<path d="M1.75 25.375H6.125V27.125H1.75V25.375Z" fill="#30446D"/>
<path d="M1.75 45.5H7.875V47.25H1.75V45.5Z" fill="#30446D"/>
<path d="M1.75 49H7.875V50.75H1.75V49Z" fill="#30446D"/>
<path d="M1.75 52.5H6.125V54.25H1.75V52.5Z" fill="#30446D"/>
</svg>
