<svg width="56" height="56" viewBox="0 0 56 56" fill="none" xmlns="http://www.w3.org/2000/svg">
<g clip-path="url(#clip0_304_2)">
<path d="M23.2112 45.4757V35.2841C23.2112 33.7203 21.9433 32.4524 20.3794 32.4524H3.67242C2.10857 32.4524 0.840698 33.7203 0.840698 35.2841V45.4757C0.840698 45.8279 1.12617 46.1133 1.47835 46.1133H22.5735C22.9257 46.1133 23.2112 45.8279 23.2112 45.4757V45.4757Z" fill="#BCEBFF"/>
<path d="M22.5735 46.5508H1.47835C0.885542 46.5508 0.403198 46.0685 0.403198 45.4757V35.2841C0.403198 33.4814 1.8697 32.0149 3.6722 32.0149H20.3794C22.1822 32.0149 23.6487 33.4814 23.6487 35.2841V45.4757C23.6487 46.0685 23.1663 46.5508 22.5735 46.5508ZM3.6722 32.8899C2.35204 32.8899 1.2782 33.964 1.2782 35.2841V45.4757C1.2782 45.5861 1.36789 45.6758 1.47835 45.6758H22.5737C22.6842 45.6758 22.7739 45.5861 22.7739 45.4757V35.2841C22.7739 33.964 21.6998 32.8899 20.3797 32.8899H3.6722Z" fill="#30446D"/>
<path d="M8.59534 26.7157V32.4524L12.0258 36.6999L15.4562 32.4524V26.7157H8.59534Z" fill="#F9CFCF"/>
<path d="M7.33931 41.6554L6.38447 43.142L7.63397 46.1133H10.1019L7.86715 32.4524H4.22278L5.86012 41.5139L7.33931 41.6554Z" fill="#E0EBFC"/>
<path d="M16.4177 46.1133L17.6674 43.142L16.7125 41.6554L18.1917 41.5139L19.8291 32.4524H16.1845L13.95 46.1133H16.4177Z" fill="#E0EBFC"/>
<path d="M12.026 37.1374C11.8939 37.1374 11.7687 37.0776 11.6856 36.9748L8.25496 32.7271C8.19196 32.6493 8.15784 32.5521 8.15784 32.4522V26.7155C8.15784 26.474 8.35384 26.278 8.59534 26.278H15.4562C15.6977 26.278 15.8937 26.474 15.8937 26.7155V32.4522C15.8937 32.5521 15.8596 32.649 15.7966 32.7271L12.3661 36.9748C12.2832 37.0776 12.1581 37.1374 12.026 37.1374V37.1374ZM9.03284 32.2975L12.026 36.0034L15.0189 32.2975V27.153H9.03284V32.2975Z" fill="#30446D"/>
<path d="M12.0259 31.2655C7.57956 31.2655 3.97522 27.6611 3.97522 23.2148V19.1235C3.97522 14.6772 7.57956 11.0729 12.0259 11.0729C16.4722 11.0729 20.0765 14.6772 20.0765 19.1235V23.215C20.0765 27.6611 16.4722 31.2655 12.0259 31.2655V31.2655Z" fill="white"/>
<path d="M16.2066 24.3829C15.6446 24.3829 15.189 23.9272 15.189 23.3653V22.2798C15.189 21.7179 15.6446 21.2622 16.2066 21.2622C16.7686 21.2622 17.2242 21.7179 17.2242 22.2798V23.3653C17.224 23.9275 16.7686 24.3829 16.2066 24.3829Z" fill="#30446D"/>
<path d="M7.84526 24.3829C7.28329 24.3829 6.82764 23.9272 6.82764 23.3653V22.2798C6.82764 21.7179 7.28329 21.2622 7.84526 21.2622C8.40723 21.2622 8.86289 21.7179 8.86289 22.2798V23.3653C8.86289 23.9275 8.40723 24.3829 7.84526 24.3829Z" fill="#30446D"/>
<path d="M3.97517 23.2148V20.2554C2.63948 20.26 1.55798 21.3437 1.55798 22.6804C1.55798 24.0201 2.64386 25.1059 3.98348 25.1059H4.2007C4.05458 24.4993 3.97517 23.8665 3.97517 23.2148Z" fill="white"/>
<path d="M20.0765 20.2554V23.2148C20.0765 23.8665 19.9971 24.4991 19.851 25.1059H20.0682C21.4078 25.1059 22.4937 24.0201 22.4937 22.6804C22.4937 21.3439 21.4122 20.26 20.0765 20.2554V20.2554Z" fill="white"/>
<path d="M12.0261 31.7032C7.34572 31.7032 3.53772 27.8954 3.53772 23.215V19.1235C3.53772 14.4432 7.3455 10.6354 12.0261 10.6354C16.7065 10.6354 20.5142 14.4432 20.5142 19.1235V23.215C20.514 27.8952 16.7063 31.7032 12.0261 31.7032ZM12.0261 11.5104C7.82828 11.5104 4.41272 14.9255 4.41272 19.1235V23.215C4.41272 27.4128 7.82806 30.8282 12.0261 30.8282C16.2241 30.8282 19.6392 27.4131 19.6392 23.215V19.1235C19.639 14.9255 16.2239 11.5104 12.0261 11.5104Z" fill="#30446D"/>
<path d="M4.20073 25.5436H3.98373C2.40501 25.5436 1.12073 24.2593 1.12073 22.6806C1.12073 21.1075 2.40063 19.8232 3.97367 19.818H3.9752C4.09092 19.818 4.20204 19.8639 4.28407 19.9455C4.36632 20.0278 4.4127 20.1393 4.4127 20.2555V23.2147C4.4127 23.8137 4.48445 24.4155 4.6262 25.0035C4.6577 25.1341 4.62751 25.2714 4.5446 25.3766C4.46148 25.4819 4.33482 25.5436 4.20073 25.5436V25.5436ZM3.5377 20.7433C2.65592 20.9467 1.99573 21.7391 1.99573 22.6803C1.99573 23.666 2.71673 24.4863 3.6591 24.6419C3.5786 24.1691 3.5377 23.6912 3.5377 23.2147V20.7433Z" fill="#30446D"/>
<path d="M20.0681 25.5436H19.8509C19.7168 25.5436 19.5904 25.4821 19.5073 25.3766C19.4244 25.2714 19.3942 25.1341 19.4257 25.0035C19.5672 24.4155 19.6392 23.8139 19.6392 23.2147V20.2555C19.6392 20.1393 19.6855 20.0278 19.7678 19.9455C19.8498 19.8639 19.961 19.818 20.0767 19.818H20.0782C21.6512 19.8232 22.9314 21.1075 22.9314 22.6806C22.9311 24.2591 21.6469 25.5436 20.0681 25.5436V25.5436ZM20.514 20.7433V23.2147C20.514 23.6914 20.473 24.1691 20.3925 24.6419C21.3349 24.4866 22.0559 23.666 22.0559 22.6803C22.0561 21.7391 21.396 20.9467 20.514 20.7433V20.7433Z" fill="#30446D"/>
<path d="M12.0261 31.7032C7.34572 31.7032 3.53772 27.8954 3.53772 23.215V19.1235C3.53772 14.4432 7.3455 10.6354 12.0261 10.6354C16.7065 10.6354 20.5142 14.4432 20.5142 19.1235V23.215C20.514 27.8952 16.7063 31.7032 12.0261 31.7032ZM12.0261 11.5104C7.82828 11.5104 4.41272 14.9255 4.41272 19.1235V23.215C4.41272 27.4128 7.82806 30.8282 12.0261 30.8282C16.2241 30.8282 19.6392 27.4131 19.6392 23.215V19.1235C19.639 14.9255 16.2239 11.5104 12.0261 11.5104Z" fill="#30446D"/>
<path d="M12.026 31.703C7.34562 31.703 3.53784 27.8954 3.53784 23.215V20.2556C3.53784 20.1716 3.5619 20.0893 3.6074 20.0187L4.97328 17.8974C5.14456 17.6317 5.4215 17.4475 5.73256 17.3919C6.04406 17.3368 6.36694 17.414 6.61937 17.6043L8.02265 18.6631C9.00965 19.4079 10.234 19.8181 11.4706 19.8181H20.0767C20.3182 19.8181 20.5142 20.0141 20.5142 20.2556V23.215C20.5139 27.8952 16.7062 31.703 12.026 31.703ZM4.41284 20.3842V23.215C4.41284 27.4126 7.82797 30.828 12.026 30.828C16.224 30.828 19.6392 27.4128 19.6392 23.215V20.6931H11.4706C10.045 20.6931 8.6334 20.2201 7.49547 19.3615L6.0924 18.3028C6.0119 18.2422 5.92834 18.245 5.88612 18.2533C5.84347 18.2608 5.76362 18.2862 5.70894 18.371L4.41284 20.3842Z" fill="#30446D"/>
<path d="M15.8364 8.59509H9.27325C7.77853 8.59509 6.4341 9.23472 5.48997 10.2528C5.48997 10.2526 5.49019 10.2526 5.49019 10.2526C3.29875 10.7126 1.68634 12.7115 1.80294 15.041L2.10853 21.1422C2.55172 20.6027 3.22306 20.258 3.97513 20.2553L5.34122 18.1341C5.56259 17.7902 6.02941 17.7073 6.35578 17.9534L7.75885 19.0122C8.8281 19.8189 10.131 20.2553 11.4704 20.2553H21.7V18.8763V14.4587C21.7 11.2203 19.0748 8.59509 15.8364 8.59509V8.59509Z" fill="#30446D"/>
<path d="M2.10874 21.5796C2.06281 21.5796 2.01665 21.5724 1.97159 21.5575C1.80009 21.5009 1.68087 21.3445 1.6719 21.1638L1.36609 15.0626C1.24228 12.591 2.87481 10.4227 5.26509 9.85419C6.31793 8.774 7.77043 8.15735 9.27303 8.15735H15.8364C19.3108 8.15735 22.1375 10.984 22.1375 14.4587V20.2553C22.1375 20.4968 21.9415 20.6928 21.7 20.6928H11.4706C10.045 20.6928 8.6334 20.2199 7.49546 19.3613L6.0924 18.3025C6.0119 18.2419 5.92834 18.2448 5.88612 18.2531C5.84346 18.2605 5.76362 18.2859 5.70893 18.3708L4.34327 20.492C4.26299 20.6165 4.12518 20.6922 3.97687 20.6926C3.38231 20.6946 2.82449 20.9597 2.44693 21.4195C2.36228 21.523 2.23737 21.5796 2.10874 21.5796V21.5796ZM5.56324 10.6841C3.53259 11.119 2.13587 12.9394 2.23999 15.0191L2.50118 20.2308C2.87153 20.0064 3.29065 19.8679 3.72946 19.829L4.97349 17.8972C5.14478 17.6314 5.42171 17.4472 5.73278 17.3917C6.04428 17.3365 6.36715 17.4138 6.61959 17.6041L8.02287 18.6628C9.00987 19.4077 10.2342 19.8178 11.4708 19.8178H21.2625V14.4589C21.2625 11.4668 18.8285 9.03257 15.8364 9.03257H9.27324C7.94784 9.03257 6.71846 9.57157 5.81109 10.5503C5.74393 10.6227 5.65599 10.6684 5.56324 10.6841V10.6841Z" fill="#30446D"/>
<path d="M12.0259 36.6998L10.4622 35.9919L9.18583 37.0113C9.0069 37.1544 8.75205 37.1264 8.60461 36.9599L10.102 46.1131H13.95L15.4473 36.9599C15.2999 37.1262 15.0453 37.1542 14.8661 37.0113L13.5897 35.9919L12.0259 36.6998Z" fill="#42BA85"/>
<path d="M10.102 46.5508H7.63404C7.45794 46.5508 7.29913 46.4454 7.23066 46.2828L5.98094 43.3116C5.92516 43.1788 5.93829 43.0267 6.01616 42.9056L6.58338 42.0227L5.81841 41.9494C5.62307 41.9306 5.46448 41.7845 5.42969 41.5915L3.79235 32.53C3.76938 32.4025 3.80394 32.2712 3.88707 32.1717C3.97019 32.0722 4.09313 32.0146 4.22285 32.0146H7.86723C8.08138 32.0146 8.26426 32.17 8.29904 32.3815L10.5338 46.0424C10.5546 46.1691 10.5187 46.2986 10.4356 46.3964C10.3524 46.4942 10.2304 46.5508 10.102 46.5508ZM7.92476 45.6758H9.58726L7.49557 32.8899H4.74632L6.23163 41.1098L7.38094 41.2199C7.53276 41.2343 7.66619 41.3271 7.73269 41.4642C7.79941 41.6016 7.78979 41.7635 7.70732 41.8919L6.87694 43.1847L7.92476 45.6758Z" fill="#30446D"/>
<path d="M16.4179 46.5508H13.9499C13.8215 46.5508 13.6995 46.4944 13.6166 46.3966C13.5336 46.2988 13.4975 46.1693 13.5183 46.0427L15.7531 32.3817C15.7876 32.1702 15.9705 32.0149 16.1849 32.0149H19.8293C19.959 32.0149 20.0819 32.0724 20.165 32.172C20.2482 32.2715 20.2827 32.4027 20.2598 32.5303L18.6226 41.5918C18.5879 41.7847 18.4291 41.9308 18.2339 41.9496L17.4687 42.0229L18.036 42.9058C18.1138 43.0272 18.127 43.179 18.0712 43.3118L16.8217 46.2831C16.7528 46.4452 16.5937 46.5508 16.4179 46.5508ZM14.4646 45.6758H16.1274L17.1747 43.1847L16.3444 41.8919C16.2619 41.7635 16.2523 41.6016 16.319 41.4642C16.3857 41.3271 16.5189 41.2343 16.6707 41.2199L17.82 41.1099L19.3054 32.8899H16.5563L14.4646 45.6758Z" fill="#30446D"/>
<path d="M13.95 46.5508H10.1019C9.88777 46.5508 9.7049 46.3955 9.67011 46.1839L8.17277 37.0308C8.14127 36.8385 8.2408 36.6486 8.41668 36.5649C8.59233 36.4815 8.80277 36.5237 8.93183 36.6699L10.189 35.65C10.3176 35.5472 10.4926 35.5256 10.6422 35.5932L12.0256 36.2192L13.4086 35.5932C13.5591 35.5256 13.7334 35.5472 13.862 35.65L15.1386 36.6694C15.2679 36.5231 15.4685 36.4809 15.6442 36.5646C15.8203 36.6482 15.91 36.8385 15.8785 37.0308L14.3811 46.1839C14.347 46.3955 14.1641 46.5508 13.95 46.5508V46.5508ZM10.4736 45.6758H13.5781L14.9133 37.5138C14.7996 37.4843 14.6902 37.4309 14.5929 37.3532L13.5258 36.501L12.2065 37.0982C12.0917 37.1498 11.9602 37.1498 11.8458 37.0982L10.5261 36.501L9.45902 37.3532C9.36168 37.4311 9.2523 37.4845 9.13855 37.5138L10.4736 45.6758Z" fill="#30446D"/>
<path d="M7.59113 31.6809L6.10844 32.261C5.85666 32.3595 5.75975 32.6651 5.90872 32.8908L8.56631 36.9138C8.70391 37.1221 8.99069 37.1674 9.18581 37.0116L10.4622 35.992L12.0258 36.6999L8.07631 31.8095C7.95994 31.6654 7.7635 31.6133 7.59113 31.6809V31.6809Z" fill="#42BA85"/>
<path d="M16.4607 31.6809L17.9434 32.261C18.1952 32.3595 18.2921 32.6651 18.1431 32.8908L15.4855 36.9138C15.3479 37.1221 15.0612 37.1674 14.866 37.0116L13.5896 35.992L12.026 36.6999L15.9755 31.8095C16.0919 31.6654 16.2881 31.6133 16.4607 31.6809V31.6809Z" fill="#42BA85"/>
<path d="M8.91975 37.5418C8.87534 37.5418 8.8305 37.5383 8.78609 37.5313C8.54743 37.4935 8.33437 37.3563 8.20115 37.1549L5.54356 33.1318C5.3994 32.9138 5.362 32.6453 5.44096 32.396C5.52015 32.1464 5.70521 31.9488 5.9489 31.8537L7.43159 31.2736L7.43181 31.2733C7.78378 31.136 8.1795 31.2414 8.4164 31.5347L12.3662 36.4251C12.4935 36.5828 12.4961 36.8073 12.3718 36.9676C12.2478 37.1275 12.0299 37.1818 11.8453 37.0987L10.5258 36.5013L9.45875 37.3535C9.30518 37.476 9.11421 37.5418 8.91975 37.5418V37.5418ZM7.74178 32.0915L6.26784 32.6683L8.93156 36.6727L10.1894 35.6503C10.2909 35.5694 10.4208 35.5383 10.5451 35.5626L7.74178 32.0915Z" fill="#30446D"/>
<path d="M15.1318 37.5419C14.9374 37.5419 14.7464 37.4758 14.5928 37.3533L13.5258 36.5011L12.2065 37.0985C12.0214 37.1818 11.8038 37.1276 11.68 36.9674C11.5562 36.8071 11.5583 36.5824 11.6857 36.4249L15.6352 31.5346C15.8721 31.2408 16.268 31.1356 16.6198 31.2732C16.62 31.2732 16.62 31.2734 16.6202 31.2734L18.1029 31.8535C18.3466 31.9489 18.5317 32.1466 18.6106 32.3958C18.6896 32.6454 18.6522 32.9136 18.508 33.1317L15.8507 37.1551C15.7172 37.357 15.5037 37.4942 15.2651 37.5316C15.2207 37.5384 15.1763 37.5419 15.1318 37.5419V37.5419ZM13.5894 35.5545C13.6868 35.5545 13.7835 35.5869 13.8624 35.6503L15.1391 36.6697L17.7778 32.6495L16.31 32.0915L13.507 35.5624C13.5343 35.5572 13.5619 35.5545 13.5894 35.5545V35.5545ZM16.3017 32.0882C16.3019 32.0882 16.3019 32.0884 16.3022 32.0884L16.3017 32.0882Z" fill="#30446D"/>
<path d="M12.1996 27.8147H11.8522C10.8278 27.8147 9.99719 26.9841 9.99719 25.9597V25.9015H14.0546V25.9597C14.0546 26.9841 13.2242 27.8147 12.1996 27.8147V27.8147Z" fill="#F9A7A7"/>
<path d="M12.1997 28.2522H11.8523C10.5882 28.2522 9.55981 27.2238 9.55981 25.9597V25.9015C9.55981 25.66 9.75581 25.464 9.99731 25.464H14.0547C14.2962 25.464 14.4922 25.66 14.4922 25.9015V25.9597C14.492 27.2238 13.4636 28.2522 12.1997 28.2522V28.2522ZM10.4862 26.339C10.6527 26.9371 11.202 27.3772 11.8523 27.3772H12.1997C12.85 27.3772 13.3991 26.9371 13.5656 26.339H10.4862Z" fill="#30446D"/>
<path d="M17.9695 7.20431C17.9695 3.58794 21.5872 0.65625 26.0499 0.65625C30.5126 0.65625 34.1303 3.58794 34.1303 7.20431C34.1303 10.8207 30.5126 13.7524 26.0499 13.7524C25.0135 13.7524 24.0236 13.5925 23.1129 13.3044L20.8299 14.6948C20.4164 14.9465 19.9094 14.5591 20.0435 14.0941L20.6301 12.0608C18.9963 10.8629 17.9695 9.13084 17.9695 7.20431V7.20431Z" fill="white"/>
<path d="M19.6235 13.9731L20.1272 12.2275C18.4739 10.9152 17.532 9.1 17.532 7.20453C17.532 3.35256 21.3531 0.21875 26.0499 0.21875C30.7469 0.21875 34.5678 3.35256 34.5678 7.20453C34.5678 11.0565 30.7467 14.1903 26.0499 14.1903C25.064 14.1903 24.0973 14.0525 23.1733 13.7806L21.0578 15.069C20.3051 15.5267 19.3793 14.8194 19.6235 13.9731V13.9731ZM26.0499 1.09375C21.8354 1.09375 18.407 3.83491 18.407 7.20453C18.407 8.90991 19.3117 10.5516 20.8891 11.7086C21.0372 11.8169 21.1018 12.0063 21.0508 12.1826L20.4641 14.2159C20.4396 14.299 20.5289 14.3668 20.6026 14.3216L22.8857 12.9312C22.9935 12.8651 23.125 12.85 23.2453 12.8877C24.1417 13.1716 25.0852 13.3153 26.0499 13.3153C30.2643 13.3153 33.6928 10.5742 33.6928 7.20453C33.6928 3.83491 30.2643 1.09375 26.0499 1.09375V1.09375Z" fill="#30446D"/>
<path d="M29.217 8.04362C29.6662 8.04362 30.0303 7.67949 30.0303 7.23031C30.0303 6.78113 29.6662 6.41699 29.217 6.41699C28.7678 6.41699 28.4037 6.78113 28.4037 7.23031C28.4037 7.67949 28.7678 8.04362 29.217 8.04362Z" fill="#30446D"/>
<path d="M25.8075 8.04362C26.2566 8.04362 26.6208 7.67949 26.6208 7.23031C26.6208 6.78113 26.2566 6.41699 25.8075 6.41699C25.3583 6.41699 24.9941 6.78113 24.9941 7.23031C24.9941 7.67949 25.3583 8.04362 25.8075 8.04362Z" fill="#30446D"/>
<path d="M22.3979 8.04362C22.8471 8.04362 23.2112 7.67949 23.2112 7.23031C23.2112 6.78113 22.8471 6.41699 22.3979 6.41699C21.9487 6.41699 21.5846 6.78113 21.5846 7.23031C21.5846 7.67949 21.9487 8.04362 22.3979 8.04362Z" fill="#30446D"/>
<path d="M26.3752 45.1279C25.1905 45.1279 24.0683 44.8617 23.0634 44.3877V46.9672C23.0634 48.7962 24.546 50.2791 26.3752 50.2791C28.2044 50.2791 29.6871 48.7964 29.6871 46.9672V44.3877C28.6822 44.8617 27.56 45.1279 26.3752 45.1279V45.1279Z" fill="#F9CFCF"/>
<path d="M26.3752 45.128C22.0827 45.128 18.6028 41.6481 18.6028 37.3556V33.4056C18.6028 29.1131 22.0827 25.6332 26.3752 25.6332C30.6677 25.6332 34.1476 29.1131 34.1476 33.4056V37.3556C34.1476 41.6481 30.6677 45.128 26.3752 45.128Z" fill="white"/>
<path d="M18.6028 37.7175V34.8602C17.3133 34.8646 16.2692 35.9109 16.2692 37.2015C16.2692 38.4948 17.3176 39.5432 18.6109 39.5432H18.8207C18.6794 38.9576 18.6028 38.3467 18.6028 37.7175Z" fill="white"/>
<path d="M34.1476 34.8605V37.7178C34.1476 38.3469 34.0708 38.9579 33.9297 39.5435H34.1395C35.4327 39.5435 36.4812 38.495 36.4812 37.2018C36.4812 35.9111 35.4371 34.8648 34.1476 34.8605Z" fill="white"/>
<path d="M18.8204 39.981H18.6107C17.0783 39.981 15.8317 38.7343 15.8317 37.202C15.8317 35.6749 17.0742 34.4282 18.6013 34.4232H18.6028C18.7185 34.4232 18.8296 34.4692 18.9117 34.5507C18.9939 34.633 19.0403 34.7446 19.0403 34.8607V37.718C19.0403 38.2957 19.1094 38.8754 19.2457 39.4411C19.2772 39.5715 19.247 39.7091 19.1641 39.8143C19.0812 39.9195 18.9545 39.981 18.8204 39.981V39.981ZM18.1653 35.3509C17.3299 35.5522 16.7067 36.3067 16.7067 37.2018C16.7067 38.1387 17.3865 38.9198 18.279 39.0771C18.2036 38.6269 18.1653 38.1719 18.1653 37.7178V35.3509Z" fill="#30446D"/>
<path d="M34.1396 39.981H33.9298C33.7959 39.981 33.6692 39.9195 33.5861 39.8141C33.5032 39.7091 33.473 39.5715 33.5045 39.4411C33.6408 38.8743 33.7099 38.2946 33.7099 37.7178V34.8605C33.7099 34.7443 33.7563 34.6328 33.8386 34.5505C33.9206 34.4689 34.0317 34.423 34.1474 34.423H34.149C35.6761 34.428 36.9186 35.6747 36.9186 37.2015C36.9188 38.7341 35.6719 39.981 34.1396 39.981V39.981ZM34.5852 35.3509V37.7178C34.5852 38.1715 34.5469 38.6265 34.4712 39.0771C35.3637 38.9196 36.0436 38.1387 36.0436 37.202C36.0438 36.3066 35.4206 35.5519 34.5852 35.3509Z" fill="#30446D"/>
<path d="M26.3752 50.7166C24.3078 50.7166 22.6256 49.0348 22.6256 46.9672V44.6596C19.9067 43.2605 18.165 40.4242 18.165 37.3553V33.4053C18.165 28.8785 21.8481 25.1954 26.3749 25.1954C30.9018 25.1954 34.5846 28.8785 34.5846 33.4053V37.3553C34.5846 40.4242 32.8429 43.2605 30.1241 44.6596V46.9672C30.1245 49.0346 28.4426 50.7166 26.3752 50.7166V50.7166ZM23.5008 44.4371V46.9672C23.5008 48.552 24.7903 49.8416 26.3754 49.8416C27.9602 49.8416 29.2498 48.552 29.2498 46.9672V44.4325C29.2314 44.2525 29.3272 44.0736 29.4987 43.9928C32.057 42.7867 33.7103 40.1813 33.7103 37.3553V33.4053C33.7103 29.3609 30.4199 26.0704 26.3756 26.0704C22.3311 26.0704 19.0407 29.3609 19.0407 33.4053V37.3553C19.0407 40.1813 20.694 42.7869 23.2527 43.9928C23.256 43.9944 23.2589 43.9959 23.2619 43.9974C23.4297 44.0817 23.5203 44.2599 23.5008 44.4371V44.4371Z" fill="#30446D"/>
<path d="M23.0634 46.4043H20.4101C18.171 46.4043 16.3558 48.2195 16.3558 50.4586V55.3437H36.3944V50.4586C36.3944 48.2195 34.5792 46.4043 32.3401 46.4043H29.6869H23.0634Z" fill="#42BA85"/>
<path d="M36.3943 55.7813H16.356C16.1145 55.7813 15.9185 55.5853 15.9185 55.3438V50.4586C15.9185 47.9819 17.9334 45.967 20.4101 45.967H32.34C34.8167 45.967 36.8318 47.9819 36.8318 50.4586V55.3438C36.8318 55.5853 36.636 55.7813 36.3943 55.7813ZM16.7935 54.9063H35.9568V50.4586C35.9568 48.4645 34.3344 46.842 32.34 46.842H20.4101C18.4159 46.842 16.7935 48.4645 16.7935 50.4586V54.9063Z" fill="#30446D"/>
<path d="M40.191 46.9724C38.0943 46.9724 36.3944 48.6723 36.3944 50.769V55.3438H55.1594V50.769C55.1594 48.6723 53.4595 46.9724 51.3628 46.9724C46.4016 46.9724 45.1214 46.9724 40.191 46.9724Z" fill="#BCEBFF"/>
<path d="M55.1594 55.7813H36.3944C36.1529 55.7813 35.9569 55.5853 35.9569 55.3438V50.7693C35.9569 48.4346 37.8565 46.5352 40.191 46.5352H51.3628C53.6975 46.5352 55.5967 48.4348 55.5967 50.7693V55.3438C55.5969 55.5853 55.4012 55.7813 55.1594 55.7813ZM36.8319 54.9063H54.7219V50.7693C54.7219 48.9169 53.215 47.4102 51.363 47.4102H40.191C38.3387 47.4102 36.8319 48.9171 36.8319 50.7693V54.9063Z" fill="#30446D"/>
<path d="M54.0718 48.6231L53.309 38.0192V34.1915C53.309 30.0318 49.9367 26.6595 45.777 26.6595C41.6172 26.6595 38.245 30.0316 38.245 34.1915V38.0192L37.4822 48.6231C37.3405 50.5936 38.9008 52.2704 40.8766 52.2704H50.6774C52.653 52.2704 54.2135 50.5936 54.0718 48.6231Z" fill="#30446D"/>
<path d="M50.6775 52.7079H40.8764C38.6491 52.7079 36.8864 50.8137 37.0456 48.5916L37.8073 38.0035V34.1915C37.8073 29.7971 41.3824 26.222 45.7768 26.222C50.1713 26.222 53.7463 29.7971 53.7463 34.1915V38.0035L54.508 48.5916C54.6679 50.813 52.9048 52.7079 50.6775 52.7079ZM45.7771 27.097C41.8651 27.097 38.6826 30.2796 38.6826 34.1915V38.0192C38.6826 38.0297 38.6821 38.0402 38.6815 38.0507L37.9187 48.6546C37.7949 50.3749 39.1533 51.8331 40.8764 51.8331H50.6775C52.4023 51.8331 53.759 50.3734 53.6352 48.6546L52.8724 38.0507C52.8718 38.0402 52.8713 38.0297 52.8713 38.0192V34.1915C52.8713 30.2796 49.6887 27.097 45.7771 27.097V27.097Z" fill="#30446D"/>
<path d="M43.2047 17.4045C42.223 14.8466 39.3221 13.3442 36.3946 13.3442C33.4671 13.3442 36.3946 13.3442 36.3946 13.3442C32.4628 13.3442 29.2638 15.9264 29.2638 19.123C29.2638 20.8651 30.223 22.3898 31.6112 23.4083C31.6114 23.4085 31.6119 23.4087 31.6121 23.4089L31.0943 25.2033C30.976 25.6137 31.4235 25.9554 31.7882 25.7334L33.8029 24.5064H33.8033C35.4822 25.038 37.3422 25.0272 38.9857 24.5064H38.9861L41.0008 25.7334C41.3657 25.9554 41.813 25.6137 41.6947 25.2033L41.1769 23.4089C41.1771 23.4087 41.1776 23.4085 41.1778 23.4083C43.1776 21.9409 44.0541 19.6189 43.2047 17.4045V17.4045Z" fill="white"/>
<path d="M30.6738 25.0817L31.1087 23.5738C29.6542 22.4079 28.826 20.801 28.826 19.1227C28.826 15.6951 32.2213 12.9065 36.3944 12.9065C39.7156 12.9065 42.6163 14.651 43.6131 17.2474C44.4739 19.4907 43.7146 21.9433 41.68 23.5738L42.1151 25.0817C42.3435 25.874 41.4779 26.5362 40.7731 26.1067L38.926 24.9817C37.2856 25.4601 35.5034 25.4603 33.8628 24.9815L32.0154 26.1067C31.3106 26.5362 30.4452 25.874 30.6738 25.0817V25.0817ZM39.2136 24.1323L41.2283 25.3593C41.2539 25.3746 41.2828 25.3523 41.2745 25.3243L40.7567 23.5299C40.7064 23.3544 40.7698 23.1667 40.9155 23.058C40.9168 23.0571 40.9181 23.0561 40.9194 23.0552C42.8085 21.6692 43.5453 19.5125 42.7965 17.5611C41.9423 15.3357 39.3099 13.7817 36.3946 13.7817C32.7038 13.7817 29.7013 16.1777 29.7013 19.1229C29.7013 20.6111 30.4916 22.0441 31.8697 23.0554C32.017 23.1615 32.0835 23.352 32.0323 23.5301L31.5147 25.3245C31.5064 25.3529 31.5348 25.3742 31.5606 25.3595L33.5753 24.1325C33.6891 24.0634 33.8238 24.0514 33.9437 24.0918C35.5251 24.5904 37.2654 24.5906 38.8457 24.0918C38.9675 24.0503 39.1018 24.0645 39.2136 24.1323V24.1323Z" fill="#30446D"/>
<path d="M39.4033 19.806C39.7996 19.806 40.121 19.4847 40.121 19.0883C40.121 18.6919 39.7996 18.3706 39.4033 18.3706C39.0069 18.3706 38.6855 18.6919 38.6855 19.0883C38.6855 19.4847 39.0069 19.806 39.4033 19.806Z" fill="#30446D"/>
<path d="M36.3944 19.806C36.7907 19.806 37.1121 19.4847 37.1121 19.0883C37.1121 18.6919 36.7907 18.3706 36.3944 18.3706C35.998 18.3706 35.6766 18.6919 35.6766 19.0883C35.6766 19.4847 35.998 19.806 36.3944 19.806Z" fill="#30446D"/>
<path d="M33.3857 19.806C33.7821 19.806 34.1034 19.4847 34.1034 19.0883C34.1034 18.6919 33.7821 18.3706 33.3857 18.3706C32.9893 18.3706 32.668 18.6919 32.668 19.0883C32.668 19.4847 32.9893 19.806 33.3857 19.806Z" fill="#30446D"/>
</g>
<defs>
<clipPath id="clip0_304_2">
<rect width="56" height="56" fill="white"/>
</clipPath>
</defs>
</svg>
