<svg width="56" height="56" viewBox="0 0 56 56" fill="none" xmlns="http://www.w3.org/2000/svg">
<path d="M24.744 34.5156C31.9394 34.5156 37.7723 28.6826 37.7723 21.4873C37.7723 14.292 31.9394 8.45898 24.744 8.45898C17.5487 8.45898 11.7157 14.292 11.7157 21.4873C11.7157 28.6826 17.5487 34.5156 24.744 34.5156Z" fill="#BCEBFF"/>
<path d="M24.7438 36.0302C16.7249 36.0302 10.201 29.5063 10.201 21.4874C10.201 13.4686 16.7249 6.94482 24.7438 6.94482C32.7626 6.94482 39.2865 13.4687 39.2865 21.4874C39.2865 29.5063 32.7626 36.0302 24.7438 36.0302ZM24.7438 9.97287C18.3947 9.97287 13.2292 15.1383 13.2292 21.4874C13.2292 27.8365 18.3947 33.002 24.7438 33.002C31.0929 33.002 36.2583 27.8365 36.2583 21.4874C36.2583 15.1383 31.0929 9.97287 24.7438 9.97287Z" fill="#30446D"/>
<path d="M49.2356 6.58558L52.3003 3.52089C52.8916 2.92961 52.8916 1.97094 52.3003 1.37955C51.7089 0.788266 50.7506 0.788266 50.159 1.37955L47.0943 4.44423L44.274 1.62389C43.6828 1.03261 42.7244 1.03261 42.1327 1.62389C41.5414 2.21517 41.5414 3.17384 42.1327 3.76502L44.9532 6.58547L42.3487 9.18991C38.335 3.47834 31.7548 0 24.7437 0C12.8955 0 3.25635 9.63933 3.25635 21.4874C3.25635 32.8265 12.0853 42.1412 23.2298 42.9207V47.1237H19.2412C18.405 47.1237 17.7271 47.8015 17.7271 48.6377C17.7271 49.4739 18.4049 50.1518 19.2412 50.1518H23.2298V54.4859C23.2298 55.3221 23.9076 56 24.7438 56C25.5801 56 26.2579 55.3222 26.2579 54.4859V50.1518H30.2465C31.0826 50.1518 31.7606 49.474 31.7606 48.6377C31.7606 47.8016 31.0826 47.1237 30.2465 47.1237H26.2579V42.9207C37.4021 42.1411 46.2313 32.8265 46.2313 21.4874C46.2313 20.6512 45.5533 19.9733 44.7172 19.9733C43.8812 19.9733 43.2032 20.6511 43.2032 21.4874C43.2032 31.6659 34.9224 39.9467 24.7438 39.9467C14.5653 39.9467 6.28439 31.666 6.28439 21.4874C6.28439 11.3087 14.5652 3.02805 24.7437 3.02805C31.3237 3.02805 37.4659 6.59663 40.7732 12.3412C41.0268 12.7818 41.4685 13.0453 41.9386 13.0914C41.9433 13.0919 41.948 13.0926 41.9527 13.0931C41.9863 13.0961 42.0201 13.0971 42.0538 13.0979C42.0673 13.0982 42.0808 13.0998 42.0943 13.0998C42.0989 13.0998 42.1034 13.0992 42.108 13.0992C42.128 13.0989 42.1481 13.0973 42.1681 13.0963C42.2007 13.0948 42.2331 13.0928 42.2655 13.0892C42.2713 13.0885 42.277 13.0876 42.2828 13.0868C42.6053 13.0466 42.9173 12.9043 43.165 12.6565L47.0947 8.72681L49.915 11.5472C50.2106 11.8428 50.5981 11.9907 50.9855 11.9907C51.3729 11.9907 51.7604 11.8428 52.0561 11.5472C52.6474 10.9559 52.6474 9.9972 52.0561 9.40603L49.2356 6.58558Z" fill="#30446D"/>
</svg>
