<svg width="50" height="50" viewBox="0 0 50 50" fill="none" xmlns="http://www.w3.org/2000/svg">
<path d="M43.75 3.90625H6.25C5.6284 3.90625 5.03226 4.15318 4.59272 4.59272C4.15318 5.03226 3.90625 5.6284 3.90625 6.25V36.7188C3.90625 37.3404 4.15318 37.9365 4.59272 38.376C5.03226 38.8156 5.6284 39.0625 6.25 39.0625H43.75C44.3716 39.0625 44.9677 38.8156 45.4073 38.376C45.8468 37.9365 46.0938 37.3404 46.0938 36.7188V6.25C46.0937 5.6284 45.8468 5.03226 45.4073 4.59272C44.9677 4.15318 44.3716 3.90625 43.75 3.90625V3.90625ZM43.75 33.5938C43.75 34.2154 43.5031 34.8115 43.0635 35.251C42.624 35.6906 42.0279 35.9375 41.4062 35.9375H8.59375C7.97215 35.9375 7.37601 35.6906 6.93647 35.251C6.49693 34.8115 6.25 34.2154 6.25 33.5938V8.59375C6.25 7.97215 6.49693 7.37601 6.93647 6.93647C7.37601 6.49693 7.97215 6.25 8.59375 6.25H41.4062C42.0279 6.25 42.624 6.49693 43.0635 6.93647C43.5031 7.37601 43.75 7.97215 43.75 8.59375V33.5938Z" fill="#4FAFD9"/>
<path d="M32.8125 46.0938H27.3438V40.625H22.6562V46.0938H17.1875C16.9803 46.0938 16.7816 46.1761 16.6351 46.3226C16.4886 46.4691 16.4062 46.6678 16.4062 46.875C16.4062 47.0822 16.4886 47.2809 16.6351 47.4274C16.7816 47.5739 16.9803 47.6562 17.1875 47.6562H32.8125C33.0197 47.6562 33.2184 47.5739 33.3649 47.4274C33.5114 47.2809 33.5938 47.0822 33.5938 46.875C33.5938 46.6678 33.5114 46.4691 33.3649 46.3226C33.2184 46.1761 33.0197 46.0938 32.8125 46.0938Z" fill="#4FAFD9"/>
<path d="M41.4062 7.8125H8.59375C8.38655 7.8125 8.18784 7.89481 8.04132 8.04132C7.89481 8.18784 7.8125 8.38655 7.8125 8.59375V33.5938C7.8125 33.801 7.89481 33.9997 8.04132 34.1462C8.18784 34.2927 8.38655 34.375 8.59375 34.375H41.4062C41.6135 34.375 41.8122 34.2927 41.9587 34.1462C42.1052 33.9997 42.1875 33.801 42.1875 33.5938V8.59375C42.1875 8.38655 42.1052 8.18784 41.9587 8.04132C41.8122 7.89481 41.6135 7.8125 41.4062 7.8125ZM20.3125 20.3125C20.3125 20.7269 20.1479 21.1243 19.8549 21.4174C19.5618 21.7104 19.1644 21.875 18.75 21.875H17.1875V23.4375C17.1875 23.8519 17.0229 24.2493 16.7299 24.5424C16.4368 24.8354 16.0394 25 15.625 25H14.0625C13.6481 25 13.2507 24.8354 12.9576 24.5424C12.6646 24.2493 12.5 23.8519 12.5 23.4375V21.875H10.9375C10.5231 21.875 10.1257 21.7104 9.83265 21.4174C9.53962 21.1243 9.375 20.7269 9.375 20.3125V18.75C9.375 18.3356 9.53962 17.9382 9.83265 17.6451C10.1257 17.3521 10.5231 17.1875 10.9375 17.1875H12.5V15.625C12.5 15.2106 12.6646 14.8132 12.9576 14.5201C13.2507 14.2271 13.6481 14.0625 14.0625 14.0625H15.625C16.0394 14.0625 16.4368 14.2271 16.7299 14.5201C17.0229 14.8132 17.1875 15.2106 17.1875 15.625V17.1875H18.75C19.1644 17.1875 19.5618 17.3521 19.8549 17.6451C20.1479 17.9382 20.3125 18.3356 20.3125 18.75V20.3125ZM37.5 29.6875H24.2188C24.0115 29.6875 23.8128 29.6052 23.6663 29.4587C23.5198 29.3122 23.4375 29.1135 23.4375 28.9062C23.4375 28.699 23.5198 28.5003 23.6663 28.3538C23.8128 28.2073 24.0115 28.125 24.2188 28.125H37.5C37.7072 28.125 37.9059 28.2073 38.0524 28.3538C38.1989 28.5003 38.2812 28.699 38.2812 28.9062C38.2812 29.1135 38.1989 29.3122 38.0524 29.4587C37.9059 29.6052 37.7072 29.6875 37.5 29.6875ZM39.0625 26.5625H24.2188C24.0115 26.5625 23.8128 26.4802 23.6663 26.3337C23.5198 26.1872 23.4375 25.9885 23.4375 25.7812C23.4375 25.574 23.5198 25.3753 23.6663 25.2288C23.8128 25.0823 24.0115 25 24.2188 25H39.0625C39.2697 25 39.4684 25.0823 39.6149 25.2288C39.7614 25.3753 39.8438 25.574 39.8438 25.7812C39.8438 25.9885 39.7614 26.1872 39.6149 26.3337C39.4684 26.4802 39.2697 26.5625 39.0625 26.5625ZM39.0625 23.4375H24.2188C24.0115 23.4375 23.8128 23.3552 23.6663 23.2087C23.5198 23.0622 23.4375 22.8635 23.4375 22.6562C23.4375 22.449 23.5198 22.2503 23.6663 22.1038C23.8128 21.9573 24.0115 21.875 24.2188 21.875H39.0625C39.2697 21.875 39.4684 21.9573 39.6149 22.1038C39.7614 22.2503 39.8438 22.449 39.8438 22.6562C39.8438 22.8635 39.7614 23.0622 39.6149 23.2087C39.4684 23.3552 39.2697 23.4375 39.0625 23.4375ZM39.8438 17.1875C39.8438 17.8091 39.5968 18.4052 39.1573 18.8448C38.7177 19.2843 38.1216 19.5312 37.5 19.5312H25.7812C25.1596 19.5312 24.5635 19.2843 24.124 18.8448C23.6844 18.4052 23.4375 17.8091 23.4375 17.1875V15.625C23.4375 15.0034 23.6844 14.4073 24.124 13.9677C24.5635 13.5282 25.1596 13.2813 25.7812 13.2812H37.5C38.1216 13.2813 38.7177 13.5282 39.1573 13.9677C39.5968 14.4073 39.8438 15.0034 39.8438 15.625V17.1875Z" fill="#4FAFD9"/>
<path d="M15.625 17.9688V15.625H14.0625V17.9688C14.0625 18.176 13.9802 18.3747 13.8337 18.5212C13.6872 18.6677 13.4885 18.75 13.2812 18.75H10.9375V20.3125H13.2812C13.4885 20.3125 13.6872 20.3948 13.8337 20.5413C13.9802 20.6878 14.0625 20.8865 14.0625 21.0938V23.4375H15.625V21.0938C15.625 20.8865 15.7073 20.6878 15.8538 20.5413C16.0003 20.3948 16.199 20.3125 16.4062 20.3125H18.75V18.75H16.4062C16.199 18.75 16.0003 18.6677 15.8538 18.5212C15.7073 18.3747 15.625 18.176 15.625 17.9688Z" fill="#4FAFD9"/>
<path d="M37.5 14.8438H25.7812C25.3498 14.8438 25 15.1935 25 15.625V17.1875C25 17.619 25.3498 17.9688 25.7812 17.9688H37.5C37.9315 17.9688 38.2812 17.619 38.2812 17.1875V15.625C38.2812 15.1935 37.9315 14.8438 37.5 14.8438Z" fill="#4FAFD9"/>
</svg>
