<svg width="50" height="50" viewBox="0 0 50 50" fill="none" xmlns="http://www.w3.org/2000/svg">
<path d="M10.2584 16.4819H0V46.7077H10.2584V16.4819ZM6.77773 36.2641H3.48066V33.3344H6.77773V36.2641ZM6.77773 29.67H3.48066V26.7403H6.77773V29.67ZM3.48066 23.076V20.1463H6.77773V23.076H3.48066Z" fill="#4FAFD9"/>
<path d="M39.7412 46.7078H49.9996V16.4819H39.7412V46.7078ZM43.222 20.1463H46.5189V23.076H43.222V20.1463ZM43.222 26.7403H46.5189V29.67H43.222V26.7403ZM46.5188 33.3344V36.2641H43.2219V33.3344H46.5188Z" fill="#4FAFD9"/>
<path d="M19.8711 42.8579H23.5354V46.7076H19.8711V42.8579Z" fill="#4FAFD9"/>
<path d="M26.4648 42.8579H30.1291V46.7076H26.4648V42.8579Z" fill="#4FAFD9"/>
<path d="M13.1885 46.7077H16.9415V39.9283H33.0592V46.7077H36.8123V3.29248H13.1885V46.7077ZM26.6489 36.264H23.3519V33.3343H26.6489V36.264ZM26.6489 29.6699H23.3519V26.7402H26.6489V29.6699ZM26.6489 23.0759H23.3519V20.1462H26.6489V23.0759ZM33.2429 36.264H29.9459V33.3343H33.2429V36.264ZM33.2429 29.6699H29.9459V26.7402H33.2429V29.6699ZM33.2429 23.0759H29.9459V20.1462H33.2429V23.0759ZM20.0549 10.2591H23.5355V6.77842H26.4652V10.2591H29.946V13.1888H26.4652V16.6695H23.5355V13.1888H20.0549V10.2591ZM16.7578 20.1462H20.0549V23.0759H16.7578V20.1462ZM16.7578 26.7402H20.0549V29.6699H16.7578V26.7402ZM16.7578 33.3343H20.0549V36.264H16.7578V33.3343Z" fill="#4FAFD9"/>
</svg>
